<?xml version="1.0" encoding="UTF-8" standalone="no"?>
<!-- Created with Inkscape (http://www.inkscape.org/) -->

<svg
   xmlns:dc="http://purl.org/dc/elements/1.1/"
   xmlns:cc="http://creativecommons.org/ns#"
   xmlns:rdf="http://www.w3.org/1999/02/22-rdf-syntax-ns#"
   xmlns:svg="http://www.w3.org/2000/svg"
   xmlns="http://www.w3.org/2000/svg"
   xmlns:sodipodi="http://sodipodi.sourceforge.net/DTD/sodipodi-0.dtd"
   xmlns:inkscape="http://www.inkscape.org/namespaces/inkscape"
   width="350"
   height="70"
   viewBox="0 0 350 70.000001"
   id="svg4353"
   version="1.1"
   inkscape:version="0.91 r13725"
   sodipodi:docname="f5logo-treinamentoemfoco-site(350x70).svg">
  <defs
     id="defs4355" />
  <sodipodi:namedview
     id="base"
     pagecolor="#ffffff"
     bordercolor="#666666"
     borderopacity="1.0"
     inkscape:pageopacity="0.0"
     inkscape:pageshadow="2"
     inkscape:zoom="1.4"
     inkscape:cx="129.97953"
     inkscape:cy="59.923728"
     inkscape:document-units="px"
     inkscape:current-layer="layer1"
     showgrid="false"
     units="px"
     inkscape:window-width="1301"
     inkscape:window-height="744"
     inkscape:window-x="65"
     inkscape:window-y="24"
     inkscape:window-maximized="1" />
  <metadata
     id="metadata4358">
    <rdf:RDF>
      <cc:Work
         rdf:about="">
        <dc:format>image/svg+xml</dc:format>
        <dc:type
           rdf:resource="http://purl.org/dc/dcmitype/StillImage" />
        <dc:title></dc:title>
      </cc:Work>
    </rdf:RDF>
  </metadata>
  <g
     inkscape:label="Layer 1"
     inkscape:groupmode="layer"
     id="layer1"
     transform="translate(0,-982.36216)">
    <g
       transform="matrix(0.18819813,0,0,0.18819813,-24.16658,895.76168)"
       id="g4901">
      <path
         d="m 197.7183,631.92275 q 0,-10.90427 4.012,-20.36835 4.0119,-9.56698 12.2416,-17.38513 8.3325,-7.92103 22.5286,-12.44733 14.299,-4.62917 33.1243,-4.62917 2.7775,0 22.5286,1.85167 19.7512,1.74879 31.5813,1.74879 16.665,0 24.2774,-3.18898 -0.6172,1.64593 -1.6459,6.06936 -0.9258,4.42343 -1.9546,7.50954 -1.0287,2.98324 -2.9832,6.48084 -1.8517,3.39473 -5.2464,5.2464 -3.3947,1.85166 -8.2296,1.85166 -2.6747,0 -5.9665,-0.20574 -3.2919,-0.30861 -5.8637,-0.61722 -2.4688,-0.30861 -6.7894,-0.92583 -4.2177,-0.7201 -6.378,-1.02871 -2.0574,-0.41148 -7.2009,-1.33732 -5.0407,-1.0287 -6.7895,-1.33731 l -29.1123,135.68621 -30.2439,0 29.8324,-139.28668 q -6.2751,0 -11.3157,0.7201 -5.0407,0.61722 -10.0814,2.36602 -4.9377,1.64592 -8.5382,4.83491 -3.6005,3.08611 -6.4808,7.7153 -2.7775,4.5263 -4.2177,11.31576 -1.4402,6.68658 -1.4402,15.43057 0,4.73204 0.6172,7.81815 0.7201,3.08612 1.4402,4.62917 0.823,1.44019 0.823,1.85167 -11.3158,0 -16.9737,-4.62917 -5.555,-4.73204 -5.555,-15.73918 z"
         style="font-style:normal;font-variant:normal;font-weight:normal;font-stretch:normal;font-size:medium;line-height:125%;font-family:'Lobster 13';-inkscape-font-specification:'Lobster 13, ';letter-spacing:0px;word-spacing:0px;fill:#000000;fill-opacity:1;stroke:none;stroke-width:1px;stroke-linecap:butt;stroke-linejoin:miter;stroke-opacity:1"
         id="path4365-4-8-9"
         inkscape:connector-curvature="0" />
      <path
         d="m 290.919,734.89613 22.4257,-105.3394 30.244,0 -2.2632,10.49279 q 13.5789,-10.49279 24.8946,-10.49279 6.9952,0 11.0072,3.70333 4.1148,3.70334 4.1148,9.7727 0,6.17223 -4.3206,11.31575 -4.3205,5.14352 -11.5215,5.14352 -3.2918,0 -5.1435,-1.44018 -1.8516,-1.44019 -2.4689,-3.39473 -0.6172,-2.05741 -0.9258,-4.11482 -0.3086,-2.05741 -1.1316,-3.49759 -0.72,-1.44019 -2.4688,-1.44019 -4.4235,0 -7.6124,1.54306 -3.0862,1.54306 -6.9952,5.14352 l -17.488,82.60503 -30.3468,0 z"
         style="font-style:normal;font-variant:normal;font-weight:normal;font-stretch:normal;font-size:medium;line-height:125%;font-family:'Lobster 13';-inkscape-font-specification:'Lobster 13, ';letter-spacing:0px;word-spacing:0px;fill:#000000;fill-opacity:1;stroke:none;stroke-width:1px;stroke-linecap:butt;stroke-linejoin:miter;stroke-opacity:1"
         id="path4367-1-3-7"
         inkscape:connector-curvature="0" />
      <path
         d="m 376.1986,701.36034 q 0,-7.09807 1.0287,-14.71048 1.0287,-7.71529 3.189,-16.15066 2.2631,-8.53827 6.2751,-16.04782 4.0119,-7.50954 9.2583,-13.5789 5.2464,-6.06936 12.9617,-9.56695 7.7153,-3.60047 16.9736,-3.60047 13.1674,0 20.0598,5.555 6.9952,5.45214 6.9952,16.35641 0,9.15547 -4.6292,17.07652 -4.5263,7.92102 -11.7272,13.16742 -7.201,5.14352 -15.3277,8.43538 -8.0239,3.18898 -15.945,4.21769 -0.6172,5.14352 -0.6172,9.0526 0,9.56695 5.0407,13.88751 5.0406,4.32056 12.2415,4.32056 8.1268,0 19.0311,-8.22964 11.0071,-8.3325 16.3564,-19.64826 l 9.4641,0 q -3.8062,6.78945 -8.2297,12.85881 -4.3205,5.96649 -10.0813,11.62437 -5.7607,5.65787 -11.9329,9.66984 -6.1723,4.01195 -13.7847,6.48084 -7.5095,2.36602 -15.4306,2.36602 -14.6076,0 -22.9401,-9.56695 -8.2296,-9.66985 -8.2296,-23.96884 z m 30.7583,-18.92817 q 9.2583,-0.10287 16.9736,-4.93778 7.8181,-4.83491 12.0358,-12.03587 4.2177,-7.3038 4.3206,-14.81335 0,-2.7775 -0.5144,-5.14352 -0.4114,-2.36602 -2.2631,-4.5263 -1.7488,-2.16028 -4.6292,-2.16028 -5.555,0 -11.0071,6.99519 -5.3493,6.99519 -8.9498,16.45928 -3.6004,9.36123 -5.9664,20.16263 z"
         style="font-style:normal;font-variant:normal;font-weight:normal;font-stretch:normal;font-size:medium;line-height:125%;font-family:'Lobster 13';-inkscape-font-specification:'Lobster 13, ';letter-spacing:0px;word-spacing:0px;fill:#000000;fill-opacity:1;stroke:none;stroke-width:1px;stroke-linecap:butt;stroke-linejoin:miter;stroke-opacity:1"
         id="path4369-4-4-9"
         inkscape:connector-curvature="0" />
      <path
         d="m 455.2031,711.956 q 0,-4.32056 1.3373,-10.8014 l 15.122,-71.59787 30.3468,0 -15.122,71.59787 q -0.9258,5.34926 -0.9258,6.58371 0,3.8062 2.2631,5.96648 2.3661,2.05741 8.3326,2.05741 2.9832,0 6.8924,-2.05741 3.9091,-2.16028 6.7894,-4.5263 2.8804,-2.36602 7.5096,-6.37797 4.732,-4.11482 6.5837,-5.65787 l 7.2009,0 q -1.3373,1.33731 -5.8636,6.06936 -4.4234,4.62917 -7.8182,8.12676 -3.3947,3.4976 -8.7439,8.22964 -5.2464,4.73206 -9.5671,7.81818 -4.2177,3.08611 -9.1555,5.34926 -4.9378,2.16028 -8.8468,2.16028 -12.5502,0 -19.4426,-5.65788 -6.8923,-5.65787 -6.8923,-17.28225 z m 20.4712,-110.17432 q 0,-6.99519 4.835,-11.93297 4.9377,-4.93779 11.8301,-4.93779 6.9952,0 11.933,4.93779 4.9378,4.93778 4.9378,11.93297 0,6.89232 -4.9378,11.72725 -4.9378,4.83492 -11.933,4.83492 -6.9952,0 -11.8301,-4.83492 -4.835,-4.83493 -4.835,-11.72725 z"
         style="font-style:normal;font-variant:normal;font-weight:normal;font-stretch:normal;font-size:medium;line-height:125%;font-family:'Lobster 13';-inkscape-font-specification:'Lobster 13, ';letter-spacing:0px;word-spacing:0px;fill:#000000;fill-opacity:1;stroke:none;stroke-width:1px;stroke-linecap:butt;stroke-linejoin:miter;stroke-opacity:1"
         id="path4371-9-4-7"
         inkscape:connector-curvature="0" />
      <path
         d="m 505.7126,734.89613 22.3229,-105.3394 30.3468,0 -2.4689,11.41862 q 15.7392,-11.41862 27.5693,-11.41862 8.8469,0 16.5622,8.02389 7.7153,8.0239 7.7153,18.31095 0,2.98324 -0.5144,5.04065 l -8.6411,40.22238 q -1.0287,3.90907 -1.0287,6.78945 0,3.8062 2.366,5.86361 2.366,1.95454 8.2296,1.95454 3.8062,0 6.4809,-1.54305 2.7775,-1.54306 6.8923,-5.65788 4.2177,-4.11482 6.5837,-6.06936 l 7.2009,0 q -1.9545,1.95454 -6.3779,6.99519 -4.4235,4.93779 -8.1268,8.74399 -3.6005,3.80621 -8.3325,7.92105 -4.732,4.11482 -9.7727,6.48084 -4.9378,2.26315 -9.567,2.26315 -26.1291,0 -26.1291,-22.94013 0,-4.32056 1.3374,-10.8014 l 7.921,-37.85636 q 0.6172,-2.7775 0.6172,-5.555 0,-5.65788 -2.6746,-8.94973 -2.6747,-3.39473 -6.9952,-3.39473 -6.6866,0 -13.2703,4.42343 l -17.8995,85.07392 -30.3468,0 z"
         style="font-style:normal;font-variant:normal;font-weight:normal;font-stretch:normal;font-size:medium;line-height:125%;font-family:'Lobster 13';-inkscape-font-specification:'Lobster 13, ';letter-spacing:0px;word-spacing:0px;fill:#000000;fill-opacity:1;stroke:none;stroke-width:1px;stroke-linecap:butt;stroke-linejoin:miter;stroke-opacity:1"
         id="path4373-8-9-5"
         inkscape:connector-curvature="0" />
      <path
         d="m 617.7386,709.38423 q 0,-11.52149 1.6459,-22.22002 1.6459,-10.8014 5.6579,-21.39708 4.1148,-10.59565 10.1842,-18.41381 6.1722,-7.92103 15.842,-12.75594 9.7727,-4.83491 21.9114,-4.83491 7.8182,0 14.0933,5.24639 l 1.2344,-5.45213 30.3468,0 -15.1219,71.59787 q -0.9259,5.34926 -0.9259,6.58371 0,3.8062 2.2632,5.96648 2.366,2.05741 8.3325,2.05741 2.9832,0 6.8923,-2.05741 3.9091,-2.16028 6.7895,-4.5263 2.8803,-2.36602 7.5095,-6.37797 4.732,-4.11482 6.5837,-5.65787 l 7.201,0 q -1.3374,1.33731 -5.8637,6.06936 -4.4234,4.62917 -7.8181,8.12676 -3.3947,3.4976 -8.744,8.22964 -5.2464,4.73206 -9.567,7.81818 -4.2177,3.08611 -9.1554,5.34926 -4.9378,2.16028 -8.8469,2.16028 -21.4999,0 -25.6147,-16.04781 -12.5502,17.28226 -28.7009,17.28226 -7.3038,0 -12.6531,-2.36602 -5.2464,-2.36603 -8.1268,-6.37797 -2.7775,-4.01195 -4.0119,-8.4354 -1.3373,-4.5263 -1.3373,-9.56696 z m 28.4951,-5.65787 q 0,14.91622 12.1387,14.91622 6.2751,0 13.4761,-10.49279 0.2057,-2.46889 1.3373,-6.99519 l 11.7272,-55.75582 q -4.3206,-3.80621 -10.287,-3.80621 -7.6125,0 -14.299,9.56696 -6.6866,9.56695 -10.39,23.86597 -3.7033,14.29899 -3.7033,28.70086 z"
         style="font-style:normal;font-variant:normal;font-weight:normal;font-stretch:normal;font-size:medium;line-height:125%;font-family:'Lobster 13';-inkscape-font-specification:'Lobster 13, ';letter-spacing:0px;word-spacing:0px;fill:#000000;fill-opacity:1;stroke:none;stroke-width:1px;stroke-linecap:butt;stroke-linejoin:miter;stroke-opacity:1"
         id="path4375-6-1-1"
         inkscape:connector-curvature="0" />
      <path
         d="m 718.6546,734.89613 22.3228,-105.3394 30.3468,0 -2.366,11.21288 q 15.5335,-11.21288 27.2607,-11.21288 5.8636,0 11.5215,3.90908 5.7607,3.8062 9.2583,9.97843 17.3852,-13.88751 30.7583,-13.88751 8.9497,0 16.5622,8.02389 7.7152,8.0239 7.7152,18.51669 0,1.54306 -0.4114,4.83491 l -8.6412,40.22238 q -1.0287,4.32056 -1.0287,7.81815 0,8.64112 8.6412,8.64112 5.6578,0 11.6243,-6.48084 5.9665,-6.58371 10.4928,-15.01909 l 9.8756,0 q -1.4402,1.7488 -5.4522,6.78945 -4.0119,4.93779 -6.9952,8.43538 -2.8803,3.4976 -7.5095,8.33251 -4.5263,4.83493 -8.3325,7.81818 -3.8062,2.98324 -8.3325,5.24639 -4.5263,2.16028 -8.4354,2.16028 -26.1291,0 -26.1291,-22.94013 0,-4.83492 1.2345,-10.8014 l 8.0239,-37.85636 q 0.6172,-2.7775 0.6172,-5.555 0,-5.65788 -2.6747,-8.94973 -2.6746,-3.39473 -6.9952,-3.39473 -6.4808,0 -12.2415,3.70334 1.0287,4.32056 1.0287,7.40667 0,1.54306 -0.4115,4.42343 l -15.6363,73.96391 -30.4497,0 15.122,-71.59789 q 0.6172,-2.7775 0.6172,-5.555 0,-5.65788 -2.6746,-8.94973 -2.6747,-3.39473 -6.9952,-3.39473 -6.5837,0 -12.8588,4.42343 l -18.1053,85.07392 -30.3467,0 z"
         style="font-style:normal;font-variant:normal;font-weight:normal;font-stretch:normal;font-size:medium;line-height:125%;font-family:'Lobster 13';-inkscape-font-specification:'Lobster 13, ';letter-spacing:0px;word-spacing:0px;fill:#000000;fill-opacity:1;stroke:none;stroke-width:1px;stroke-linecap:butt;stroke-linejoin:miter;stroke-opacity:1"
         id="path4377-2-7-3"
         inkscape:connector-curvature="0" />
      <path
         d="m 883.1444,701.36034 q 0,-7.09807 1.0287,-14.71048 1.0287,-7.71529 3.189,-16.15066 2.2632,-8.53827 6.2751,-16.04782 4.012,-7.50954 9.2584,-13.5789 5.2464,-6.06936 12.9617,-9.56695 7.7152,-3.60047 16.9736,-3.60047 13.1674,0 20.0597,5.555 6.9952,5.45214 6.9952,16.35641 0,9.15547 -4.6292,17.07652 -4.5263,7.92102 -11.7272,13.16742 -7.2009,5.14352 -15.3277,8.43538 -8.0239,3.18898 -15.9449,4.21769 -0.6172,5.14352 -0.6172,9.0526 0,9.56695 5.0406,13.88751 5.0407,4.32056 12.2416,4.32056 8.1268,0 19.031,-8.22964 11.0072,-8.3325 16.3563,-19.64826 l 9.4641,0 q -3.8062,6.78945 -8.2296,12.85881 -4.3206,5.96649 -10.0812,11.62437 -5.7608,5.65787 -11.933,9.66984 -6.1722,4.01195 -13.7846,6.48084 -7.5096,2.36602 -15.4306,2.36602 -14.6076,0 -22.9401,-9.56695 -8.2297,-9.66985 -8.2297,-23.96884 z m 30.7583,-18.92817 q 9.2584,-0.10287 16.9736,-4.93778 7.8182,-4.83491 12.0359,-12.03587 4.2177,-7.3038 4.3205,-14.81335 0,-2.7775 -0.5143,-5.14352 -0.4115,-2.36602 -2.2632,-4.5263 -1.7488,-2.16028 -4.6291,-2.16028 -5.555,0 -11.0072,6.99519 -5.3492,6.99519 -8.9497,16.45928 -3.6005,9.36123 -5.9665,20.16263 z"
         style="font-style:normal;font-variant:normal;font-weight:normal;font-stretch:normal;font-size:medium;line-height:125%;font-family:'Lobster 13';-inkscape-font-specification:'Lobster 13, ';letter-spacing:0px;word-spacing:0px;fill:#000000;fill-opacity:1;stroke:none;stroke-width:1px;stroke-linecap:butt;stroke-linejoin:miter;stroke-opacity:1"
         id="path4379-2-5-7"
         inkscape:connector-curvature="0" />
      <path
         d="m 955.4624,734.89613 22.3228,-105.3394 30.3468,0 -2.4689,11.41862 q 15.7391,-11.41862 27.5692,-11.41862 8.8469,0 16.5622,8.02389 7.7153,8.0239 7.7153,18.31095 0,2.98324 -0.5144,5.04065 l -8.6411,40.22238 q -1.0287,3.90907 -1.0287,6.78945 0,3.8062 2.366,5.86361 2.366,1.95454 8.2296,1.95454 3.8062,0 6.4809,-1.54305 2.7775,-1.54306 6.8923,-5.65788 4.2177,-4.11482 6.5837,-6.06936 l 7.201,0 q -1.9545,1.95454 -6.3779,6.99519 -4.4236,4.93779 -8.1269,8.74399 -3.6005,3.80621 -8.3325,7.92105 -4.732,4.11482 -9.7727,6.48084 -4.9378,2.26315 -9.567,2.26315 -26.129,0 -26.129,-22.94013 0,-4.32056 1.3373,-10.8014 l 7.921,-37.85636 q 0.6172,-2.7775 0.6172,-5.555 0,-5.65788 -2.6746,-8.94973 -2.6747,-3.39473 -6.9952,-3.39473 -6.6865,0 -13.2703,4.42343 l -17.8994,85.07392 -30.3467,0 z"
         style="font-style:normal;font-variant:normal;font-weight:normal;font-stretch:normal;font-size:medium;line-height:125%;font-family:'Lobster 13';-inkscape-font-specification:'Lobster 13, ';letter-spacing:0px;word-spacing:0px;fill:#000000;fill-opacity:1;stroke:none;stroke-width:1px;stroke-linecap:butt;stroke-linejoin:miter;stroke-opacity:1"
         id="path4381-5-7-8"
         inkscape:connector-curvature="0" />
      <path
         d="m 1069.0312,711.956 q 0,-5.04066 2.6746,-18.72243 2.6747,-13.68177 6.6866,-31.99274 4.1149,-18.31094 5.1436,-23.24872 l -6.8924,0 1.646,-8.43538 6.9952,0 6.2751,-29.11237 31.1698,-4.21769 q -3.0861,14.40187 -7.0981,33.33006 l 12.5502,0 -1.6459,8.43538 -12.6531,0 q -14.299,65.63138 -14.299,69.7462 0,4.01194 2.2632,6.06935 2.2631,1.95454 8.2296,1.95454 2.9833,0 6.8924,-2.05741 4.0119,-2.16028 6.8923,-4.5263 2.8803,-2.36602 7.5095,-6.48084 4.7321,-4.11482 6.5837,-5.555 l 7.0981,0 q -1.4402,1.44018 -5.8636,6.06936 -4.4235,4.62917 -7.8182,8.12676 -3.3947,3.4976 -8.6411,8.22964 -5.2464,4.73206 -9.567,7.81818 -4.3205,3.08611 -9.2583,5.34926 -4.8349,2.16028 -8.744,2.16028 -12.5502,0 -19.3397,-5.65788 -6.7895,-5.65787 -6.7895,-17.28225 z"
         style="font-style:normal;font-variant:normal;font-weight:normal;font-stretch:normal;font-size:medium;line-height:125%;font-family:'Lobster 13';-inkscape-font-specification:'Lobster 13, ';letter-spacing:0px;word-spacing:0px;fill:#000000;fill-opacity:1;stroke:none;stroke-width:1px;stroke-linecap:butt;stroke-linejoin:miter;stroke-opacity:1"
         id="path4383-2-6-0"
         inkscape:connector-curvature="0" />
      <path
         d="m 1126.6388,701.56608 q 0,-18.8253 4.5263,-33.33003 4.5263,-14.50476 12.2416,-23.24875 7.8181,-8.74399 17.5908,-13.06455 9.7727,-4.42343 20.9856,-4.42343 24.6889,0 25.5119,30.96401 1.8515,1.85167 6.0693,1.85167 4.3207,0 8.024,-1.7488 3.7034,-1.85167 7.5096,-4.62917 3.9091,-2.7775 6.6866,-3.90908 l 0.8229,4.42343 q -4.8349,6.17223 -12.7559,11.11001 -7.8183,4.83493 -16.9738,7.4067 -1.4402,15.3277 -6.1723,27.67215 -4.7319,12.34446 -11.5214,19.95688 -6.6865,7.50956 -14.5047,11.52151 -7.7153,4.01195 -15.8421,4.01195 -17.0765,0 -24.6889,-7.92103 -7.5095,-8.02392 -7.5095,-26.64347 z m 27.9808,-1.85167 q 0,8.94973 3.6004,12.5502 3.7034,3.49759 10.4928,3.49759 4.6292,0 8.5383,-3.39472 3.909,-3.4976 6.5837,-9.36122 2.7775,-5.86361 4.5263,-12.8588 1.8516,-7.09807 2.8803,-15.12196 -4.3205,0 -6.5837,-2.67464 -2.2631,-2.7775 -2.2631,-6.78947 0,-4.73204 2.5717,-8.94973 2.5718,-4.21769 6.6866,-5.76074 -0.9258,-11.00715 -8.8468,-11.00715 -6.9952,0 -12.756,6.89233 -5.6579,6.89232 -8.8468,16.87075 -3.189,9.97846 -4.9378,19.54541 -1.6459,9.56696 -1.6459,16.56215 z"
         style="font-style:normal;font-variant:normal;font-weight:normal;font-stretch:normal;font-size:medium;line-height:125%;font-family:'Lobster 13';-inkscape-font-specification:'Lobster 13, ';letter-spacing:0px;word-spacing:0px;fill:#000000;fill-opacity:1;stroke:none;stroke-width:1px;stroke-linecap:butt;stroke-linejoin:miter;stroke-opacity:1"
         id="path4385-3-2-9"
         inkscape:connector-curvature="0" />
      <path
         d="m 1258.0044,701.36034 q 0,-7.09807 1.0287,-14.71048 1.0287,-7.71529 3.189,-16.15066 2.2632,-8.53827 6.2751,-16.04782 4.012,-7.50954 9.2584,-13.5789 5.2464,-6.06936 12.9616,-9.56695 7.7153,-3.60047 16.9737,-3.60047 13.1674,0 20.0597,5.555 6.9952,5.45214 6.9952,16.35641 0,9.15547 -4.6292,17.07652 -4.5263,7.92102 -11.7272,13.16742 -7.2009,5.14352 -15.3277,8.43538 -8.0239,3.18898 -15.9449,4.21769 -0.6172,5.14352 -0.6172,9.0526 0,9.56695 5.0406,13.88751 5.0407,4.32056 12.2416,4.32056 8.1268,0 19.031,-8.22964 11.0072,-8.3325 16.3564,-19.64826 l 9.4641,0 q -3.8062,6.78945 -8.2296,12.85881 -4.3206,5.96649 -10.0813,11.62437 -5.7608,5.65787 -11.933,9.66984 -6.1722,4.01195 -13.7846,6.48084 -7.5096,2.36602 -15.4306,2.36602 -14.6076,0 -22.9401,-9.56695 -8.2297,-9.66985 -8.2297,-23.96884 z m 30.7583,-18.92817 q 9.2583,-0.10287 16.9736,-4.93778 7.8182,-4.83491 12.0359,-12.03587 4.2177,-7.3038 4.3205,-14.81335 0,-2.7775 -0.5143,-5.14352 -0.4115,-2.36602 -2.2632,-4.5263 -1.7488,-2.16028 -4.6291,-2.16028 -5.555,0 -11.0072,6.99519 -5.3492,6.99519 -8.9497,16.45928 -3.6005,9.36123 -5.9665,20.16263 z"
         style="font-style:normal;font-variant:normal;font-weight:normal;font-stretch:normal;font-size:medium;line-height:125%;font-family:'Lobster 13';-inkscape-font-specification:'Lobster 13, ';letter-spacing:0px;word-spacing:0px;fill:#000000;fill-opacity:1;stroke:none;stroke-width:1px;stroke-linecap:butt;stroke-linejoin:miter;stroke-opacity:1"
         id="path4387-2-4-5"
         inkscape:connector-curvature="0" />
      <path
         d="m 1330.5282,734.89613 22.3229,-105.3394 30.3468,0 -2.3661,11.21288 q 15.5335,-11.21288 27.2607,-11.21288 5.8636,0 11.5215,3.90908 5.7608,3.8062 9.2584,9.97843 17.3851,-13.88751 30.7583,-13.88751 8.9498,0 16.5622,8.02389 7.7153,8.0239 7.7153,18.51669 0,1.54306 -0.4115,4.83491 l -8.6411,40.22238 q -1.0288,4.32056 -1.0288,7.81815 0,8.64112 8.6412,8.64112 5.6578,0 11.6243,-6.48084 5.9665,-6.58371 10.4928,-15.01909 l 9.8756,0 q -1.4402,1.7488 -5.4522,6.78945 -4.0119,4.93779 -6.9951,8.43538 -2.8804,3.4976 -7.5096,8.33251 -4.5263,4.83493 -8.3325,7.81818 -3.8062,2.98324 -8.3325,5.24639 -4.5263,2.16028 -8.4354,2.16028 -26.1292,0 -26.1292,-22.94013 0,-4.83492 1.2345,-10.8014 l 8.0239,-37.85636 q 0.6171,-2.7775 0.6171,-5.555 0,-5.65788 -2.6746,-8.94973 -2.6747,-3.39473 -6.9952,-3.39473 -6.4809,0 -12.2416,3.70334 1.0287,4.32056 1.0287,7.40667 0,1.54306 -0.4115,4.42343 l -15.6362,73.96391 -30.4497,0 15.122,-71.59789 q 0.6172,-2.7775 0.6172,-5.555 0,-5.65788 -2.6746,-8.94973 -2.6747,-3.39473 -6.9953,-3.39473 -6.5836,0 -12.8587,4.42343 l -18.1052,85.07392 -30.3468,0 z"
         style="font-style:normal;font-variant:normal;font-weight:normal;font-stretch:normal;font-size:medium;line-height:125%;font-family:'Lobster 13';-inkscape-font-specification:'Lobster 13, ';letter-spacing:0px;word-spacing:0px;fill:#000000;fill-opacity:1;stroke:none;stroke-width:1px;stroke-linecap:butt;stroke-linejoin:miter;stroke-opacity:1"
         id="path4389-7-2-2"
         inkscape:connector-curvature="0" />
      <path
         d="m 1543.8816,631.61414 q 0,-8.64112 2.3661,-16.45928 2.4689,-7.81817 7.921,-14.81337 5.555,-7.09806 13.6818,-12.24158 8.2296,-5.14353 20.4712,-8.12677 12.3444,-3.08611 27.4664,-3.08611 3.6005,0 15.6363,1.33731 12.1387,1.23445 19.3397,1.23445 10.8014,0 18.9281,-2.57176 -0.5143,1.44018 -1.4402,4.62917 -0.8229,3.18898 -1.4401,5.14352 -0.6173,1.95454 -2.0574,4.83491 -1.4402,2.77751 -3.189,4.62917 -1.7488,1.7488 -4.8349,3.4976 -3.0862,1.7488 -6.9952,2.57176 -10.2871,0 -29.5239,-4.01195 l -10.3899,48.45202 32.5071,0 -4.2177,15.53344 -31.5812,0 -15.6363,72.72946 -30.3468,0 30.3468,-140.72686 q -6.4809,0.30861 -11.2129,2.46889 -4.7321,2.16028 -8.5383,6.99519 -3.7033,4.83491 -5.6579,13.37318 -1.9545,8.53825 -1.9545,20.77984 0,4.73204 0.6172,7.81815 0.7201,3.08612 1.5431,4.62917 0.823,1.44019 0.823,1.85167 -11.3158,0 -16.9737,-4.73204 -5.6579,-4.73204 -5.6579,-15.73918 z"
         style="font-style:normal;font-variant:normal;font-weight:normal;font-stretch:normal;font-size:medium;line-height:125%;font-family:'Lobster 13';-inkscape-font-specification:'Lobster 13, ';letter-spacing:0px;word-spacing:0px;fill:#000000;fill-opacity:1;stroke:none;stroke-width:1px;stroke-linecap:butt;stroke-linejoin:miter;stroke-opacity:1"
         id="path4391-3-5-1"
         inkscape:connector-curvature="0" />
      <path
         d="m 1644.6947,701.56608 q 0,-18.8253 4.5263,-33.33003 4.5263,-14.50476 12.2415,-23.24875 7.8182,-8.74399 17.5909,-13.06455 9.7727,-4.42343 20.9856,-4.42343 24.6889,0 25.5118,30.96401 1.8517,1.85167 6.0694,1.85167 4.3206,0 8.0239,-1.7488 3.7033,-1.85167 7.5095,-4.62917 3.9091,-2.7775 6.6866,-3.90908 l 0.823,4.42343 q -4.8349,6.17223 -12.756,11.11001 -7.8181,4.83493 -16.9736,7.4067 -1.4402,15.3277 -6.1722,27.67215 -4.7321,12.34446 -11.5215,19.95688 -6.6866,7.50956 -14.5047,11.52151 -7.7153,4.01195 -15.8421,4.01195 -17.0765,0 -24.689,-7.92103 -7.5094,-8.02392 -7.5094,-26.64347 z m 27.9807,-1.85167 q 0,8.94973 3.6005,12.5502 3.7033,3.49759 10.4928,3.49759 4.6291,0 8.5382,-3.39472 3.9091,-3.4976 6.5837,-9.36122 2.7775,-5.86361 4.5263,-12.8588 1.8517,-7.09807 2.8804,-15.12196 -4.3206,0 -6.5837,-2.67464 -2.2632,-2.7775 -2.2632,-6.78947 0,-4.73204 2.5718,-8.94973 2.5718,-4.21769 6.6866,-5.76074 -0.9258,-11.00715 -8.8469,-11.00715 -6.9952,0 -12.7559,6.89233 -5.6579,6.89232 -8.8469,16.87075 -3.1891,9.97846 -4.9378,19.54541 -1.6459,9.56696 -1.6459,16.56215 z"
         style="font-style:normal;font-variant:normal;font-weight:normal;font-stretch:normal;font-size:medium;line-height:125%;font-family:'Lobster 13';-inkscape-font-specification:'Lobster 13, ';letter-spacing:0px;word-spacing:0px;fill:#000000;fill-opacity:1;stroke:none;stroke-width:1px;stroke-linecap:butt;stroke-linejoin:miter;stroke-opacity:1"
         id="path4393-9-5-3"
         inkscape:connector-curvature="0" />
      <path
         d="m 1731.826,700.33163 q 0,-9.77269 1.6459,-19.23678 1.6459,-9.56695 5.6579,-19.13392 4.1148,-9.56696 10.0813,-16.76789 6.0693,-7.20093 15.5334,-11.72723 9.567,-4.52631 21.2942,-4.52631 23.1459,0 23.1459,14.50474 0,3.4976 -1.0287,6.99519 -2.2633,-1.33731 -5.2464,-1.33731 -2.2633,0 -6.7896,1.33731 1.0288,-3.90907 1.0288,-5.96648 0,-7.09807 -7.8181,-7.09807 -8.3326,0 -15.2249,9.66983 -6.8923,9.66982 -10.3899,22.63152 -3.3947,12.85881 -3.3947,24.79179 0,10.69852 3.189,16.66501 3.2918,5.86362 12.1387,5.86362 19.1339,0 36.7247,-19.854 l 7.0981,0 q -1.7488,1.95454 -5.2464,6.68658 -3.4976,4.62917 -6.2751,8.22964 -2.6746,3.60046 -7.6124,8.12676 -4.9378,4.52632 -10.0813,7.50957 -5.1435,2.98324 -12.9618,5.14352 -7.7153,2.05741 -16.5621,2.05741 -28.9066,0 -28.9066,-34.5645 z"
         style="font-style:normal;font-variant:normal;font-weight:normal;font-stretch:normal;font-size:medium;line-height:125%;font-family:'Lobster 13';-inkscape-font-specification:'Lobster 13, ';letter-spacing:0px;word-spacing:0px;fill:#000000;fill-opacity:1;stroke:none;stroke-width:1px;stroke-linecap:butt;stroke-linejoin:miter;stroke-opacity:1"
         id="path4395-0-0-2"
         inkscape:connector-curvature="0" />
      <path
         d="m 1808.8759,701.56608 q 0,-18.8253 4.5263,-33.33003 4.5263,-14.50476 12.2416,-23.24875 7.8182,-8.74399 17.5909,-13.06455 9.7727,-4.42343 20.9855,-4.42343 24.689,0 25.5119,30.96401 1.8517,1.85167 6.0694,1.85167 4.3205,0 8.0239,-1.7488 3.7033,-1.85167 7.5095,-4.62917 3.9091,-2.7775 6.6866,-3.90908 l 0.823,4.42343 q -4.835,6.17223 -12.756,11.11001 -7.8181,4.83493 -16.9736,7.4067 -1.4402,15.3277 -6.1722,27.67215 -4.7321,12.34446 -11.5215,19.95688 -6.6866,7.50956 -14.5048,11.52151 -7.7152,4.01195 -15.842,4.01195 -17.0765,0 -24.689,-7.92103 -7.5096,-8.02392 -7.5096,-26.64347 z m 27.9808,-1.85167 q 0,8.94973 3.6005,12.5502 3.7033,3.49759 10.4927,3.49759 4.6292,0 8.5383,-3.39472 3.9091,-3.4976 6.5837,-9.36122 2.7775,-5.86361 4.5263,-12.8588 1.8517,-7.09807 2.8804,-15.12196 -4.3206,0 -6.5837,-2.67464 -2.2632,-2.7775 -2.2632,-6.78947 0,-4.73204 2.5718,-8.94973 2.5717,-4.21769 6.6866,-5.76074 -0.9259,-11.00715 -8.8469,-11.00715 -6.9952,0 -12.7559,6.89233 -5.6579,6.89232 -8.8469,16.87075 -3.1891,9.97846 -4.9378,19.54541 -1.6459,9.56696 -1.6459,16.56215 z"
         style="font-style:normal;font-variant:normal;font-weight:normal;font-stretch:normal;font-size:medium;line-height:125%;font-family:'Lobster 13';-inkscape-font-specification:'Lobster 13, ';letter-spacing:0px;word-spacing:0px;fill:#000000;fill-opacity:1;stroke:none;stroke-width:1px;stroke-linecap:butt;stroke-linejoin:miter;stroke-opacity:1"
         id="path4397-1-5-7"
         inkscape:connector-curvature="0" />
      <path
         inkscape:connector-curvature="0"
         id="path4513-97-3-3"
         d="m 1629.9289,564.4227 57.5207,22.31632 -56.1033,24.85403"
         style="fill:none;fill-rule:evenodd;stroke:#000000;stroke-width:16.50000191;stroke-linecap:round;stroke-linejoin:round;stroke-miterlimit:4;stroke-dasharray:none;stroke-opacity:1" />
      <path
         inkscape:connector-curvature="0"
         id="path4513-97-3-3-3"
         d="m 306.72671,568.16526 57.52071,22.31632 -56.10331,24.85404"
         style="fill:none;fill-rule:evenodd;stroke:#000000;stroke-width:16.50000191;stroke-linecap:round;stroke-linejoin:round;stroke-miterlimit:4;stroke-dasharray:none;stroke-opacity:1" />
    </g>
  </g>
</svg>
