<?xml version="1.0" encoding="UTF-8" standalone="no"?>
<!-- Created with Inkscape (http://www.inkscape.org/) -->

<svg
   xmlns:dc="http://purl.org/dc/elements/1.1/"
   xmlns:cc="http://creativecommons.org/ns#"
   xmlns:rdf="http://www.w3.org/1999/02/22-rdf-syntax-ns#"
   xmlns:svg="http://www.w3.org/2000/svg"
   xmlns="http://www.w3.org/2000/svg"
   xmlns:xlink="http://www.w3.org/1999/xlink"
   xmlns:sodipodi="http://sodipodi.sourceforge.net/DTD/sodipodi-0.dtd"
   xmlns:inkscape="http://www.inkscape.org/namespaces/inkscape"
   width="300mm"
   height="300mm"
   viewBox="0 0 1062.9921 1062.9921"
   id="svg10712"
   version="1.1"
   inkscape:version="0.91 r13725"
   sodipodi:docname="pacote-5-morangos-coracao.svg"
   inkscape:export-filename="/home/francisco/f5sites/sites-e-subsites(projetos)/hortical.f5sites.com/desenhos/pacote-5-morangos-coracao(pre-order).svg.png"
   inkscape:export-xdpi="38.100002"
   inkscape:export-ydpi="38.100002">
  <defs
     id="defs10714" />
  <sodipodi:namedview
     id="base"
     pagecolor="#ffffff"
     bordercolor="#666666"
     borderopacity="1.0"
     inkscape:pageopacity="0.0"
     inkscape:pageshadow="2"
     inkscape:zoom="0.49497475"
     inkscape:cx="642.44632"
     inkscape:cy="390.08402"
     inkscape:document-units="px"
     inkscape:current-layer="g12333"
     showgrid="false"
     inkscape:window-width="1215"
     inkscape:window-height="1000"
     inkscape:window-x="1431"
     inkscape:window-y="24"
     inkscape:window-maximized="1" />
  <metadata
     id="metadata10717">
    <rdf:RDF>
      <cc:Work
         rdf:about="">
        <dc:format>image/svg+xml</dc:format>
        <dc:type
           rdf:resource="http://purl.org/dc/dcmitype/StillImage" />
        <dc:title></dc:title>
      </cc:Work>
    </rdf:RDF>
  </metadata>
  <g
     inkscape:label="Layer 1"
     inkscape:groupmode="layer"
     id="layer1"
     transform="translate(0,10.629921)">
    <g
       style="display:inline"
       id="g12333"
       transform="matrix(36.586575,10.749582,-10.749582,36.586575,-11381.825,-7179.7768)">
      <rect
         ry="2.1462464"
         y="96.400177"
         x="345.81171"
         height="18.958511"
         width="20.925903"
         id="rect10211"
         style="opacity:1;fill:#65a1cd;fill-opacity:1;stroke:#000000;stroke-width:1.4164505;stroke-linecap:round;stroke-linejoin:round;stroke-miterlimit:4;stroke-dasharray:none;stroke-dashoffset:0;stroke-opacity:1" />
      <rect
         ry="0.32902756"
         y="96.819908"
         x="345.93945"
         height="2.9064105"
         width="20.468031"
         id="rect10211-4"
         style="opacity:1;fill:#000000;fill-opacity:1;stroke:#000000;stroke-width:0.54799998;stroke-linecap:round;stroke-linejoin:round;stroke-miterlimit:4;stroke-dasharray:none;stroke-dashoffset:0;stroke-opacity:1" />
      <text
         sodipodi:linespacing="125%"
         id="text12329"
         y="98.624748"
         x="350.22064"
         style="font-style:normal;font-weight:normal;font-size:2.00735879px;line-height:125%;font-family:sans-serif;letter-spacing:0px;word-spacing:0px;fill:#ffffff;fill-opacity:1;stroke:none;stroke-width:1px;stroke-linecap:butt;stroke-linejoin:miter;stroke-opacity:1"
         xml:space="preserve"><tspan
           y="98.624748"
           x="350.22064"
           id="tspan12331"
           sodipodi:role="line"
           style="font-style:normal;font-variant:normal;font-weight:normal;font-stretch:normal;font-family:Purisa;-inkscape-font-specification:Purisa">AMORangaria</tspan></text>
      <use
         x="0"
         y="0"
         xlink:href="#g51359"
         id="use15146"
         transform="matrix(0.00887131,0.00484213,-0.00484213,0.00887131,345.41389,105.59974)"
         width="100%"
         height="100%" />
      <use
         x="0"
         y="0"
         xlink:href="#use15146"
         id="use15163"
         transform="matrix(0.85571531,-0.51744691,0.51744691,0.85571531,7.2840565,194.64479)"
         width="100%"
         height="100%" />
      <use
         x="0"
         y="0"
         xlink:href="#use15163"
         id="use15165"
         transform="matrix(0.97674886,-0.56886218,0.57044587,1.0081086,-55.536069,210.82093)"
         width="100%"
         height="100%" />
      <use
         x="0"
         y="0"
         xlink:href="#use15165"
         id="use15167"
         transform="matrix(0.78741339,0.35020128,-0.31970196,0.80835974,104.48436,-101.44285)"
         width="100%"
         height="100%" />
      <use
         x="0"
         y="0"
         xlink:href="#use15167"
         id="use15169"
         transform="matrix(1.1542843,0.15889184,-0.17265323,1.1384397,-23.295753,-71.635528)"
         width="100%"
         height="100%" />
    </g>
    <g
       id="g14418">
      <g
         id="g30140">
        <rect
           style="opacity:1;fill:#aa0000;fill-opacity:1;stroke:none;stroke-width:22.23699951;stroke-linecap:round;stroke-linejoin:round;stroke-miterlimit:4;stroke-dasharray:none;stroke-dashoffset:0;stroke-opacity:0.9872549"
           id="rect14384"
           width="491.33005"
           height="491.33005"
           x="494.42682"
           y="-1026.8629"
           rx="1.5226907"
           ry="5.8370786"
           transform="matrix(0.70710678,0.70710678,-0.70710678,0.70710678,0,0)" />
        <text
           xml:space="preserve"
           style="font-style:normal;font-weight:normal;font-size:68.52793884px;line-height:125%;font-family:sans-serif;text-align:center;letter-spacing:0px;word-spacing:0px;text-anchor:middle;fill:#ffffff;fill-opacity:1;stroke:none;stroke-width:1px;stroke-linecap:butt;stroke-linejoin:miter;stroke-opacity:1"
           x="744.409"
           y="-638.7113"
           id="text14386"
           sodipodi:linespacing="125%"
           transform="matrix(0.70710678,0.70710678,-0.70710678,0.70710678,0,0)"><tspan
             sodipodi:role="line"
             id="tspan14388"
             x="744.409"
             y="-638.7113">PRE</tspan><tspan
             sodipodi:role="line"
             x="744.409"
             y="-553.05139"
             id="tspan14390">ORDER</tspan></text>
      </g>
    </g>
    <g
       id="g14426"
       transform="translate(-2.0203055,9.0913728)">
      <path
         style="fill:#b0cde5"
         d="m 96.2,1024.1622 c -0.66,-0.66 -1.2,-1.785 -1.2,-2.5 0,-1.793 -1.429414,-1.6318 -5.941965,0.6704 -3.354941,1.7115 -4.021174,1.7789 -5.071829,0.513 -1.864055,-2.2461 -0.282808,-6.4152 3.148175,-8.3005 4.944114,-2.7168 7.865619,-5.226 7.865619,-6.7555 0,-2.2464 -1.143808,-1.8138 -12.345422,4.6688 -5.793706,3.353 -11.011139,5.8014 -11.594295,5.441 -1.680183,-1.0384 -1.232437,-6.0764 0.689717,-7.7606 0.9625,-0.8434 5.4625,-3.6739 10,-6.29 4.5375,-2.6161 8.25,-5.10832 8.25,-5.53825 0,-2.08026 -3.138988,-1.38048 -9.702896,2.16305 C 71.781775,1005.0707 70,1005.3103 70,1001.8584 c 0,-2.21023 -0.381104,-2.47407 -3.25,-2.25003 l -3.25,0.25381 -0.5,-8.98991 c -0.418827,-7.53044 -0.784104,-9.04404 -2.25,-9.32332 -1.58108,-0.30124 -1.75,0.73168 -1.75,10.70095 0,10.1133 -0.18543,11.2071 -2.221482,13.104 -4.440108,4.1366 -5.254183,2.5935 -5.54148,-10.5038 C 50.933085,980.9935 50.645176,979.58184 48.488167,981.372 47.456312,982.22836 47,984.55553 47,988.96157 c 0,5.6694 -0.268701,6.53056 -2.49228,7.98751 C 40.586076,999.51864 39,998.20129 39,992.37451 c 0,-4.89475 -0.07747,-5.03099 -2.512986,-4.41971 -4.639934,1.16454 -7.131999,-3.11745 -3.895602,-6.69363 1.480086,-1.63548 1.300779,-1.94196 -2.563222,-4.38119 -4.759176,-3.00434 -5.006047,-5.4499 -0.702914,-6.96323 2.326821,-0.8183 3.630751,-0.52306 7.637664,1.72933 2.657501,1.49386 5.526441,2.7161 6.375423,2.7161 4.071397,0 1.779834,-2.33154 -7.788221,-7.92409 -5.749196,-3.36042 -10.771521,-6.62509 -11.160722,-7.25483 -0.775161,-1.25424 3.031926,-4.82108 5.145803,-4.82108 0.722511,0 5.510158,2.43642 10.639217,5.41426 5.39222,3.13064 9.708376,5.04653 10.233178,4.54239 1.39791,-1.34287 -0.932197,-3.51865 -8.002819,-7.47277 C 38.882159,954.87609 36,952.75925 36,952.14198 c 0,-0.61728 0.781526,-1.9859 1.736725,-3.04138 1.648966,-1.82209 1.648966,-1.98323 0,-3.18898 -3.0405,-2.22327 -1.909797,-4.02442 5.013275,-7.98587 6.438313,-3.68407 8.200563,-5.1422 8.234687,-6.81357 0.03222,-1.578 -2.538465,-0.5834 -10.984687,4.25 -4.805542,2.75 -9.583945,4.98569 -10.618674,4.9682 -2.657185,-0.0449 -5.732486,-2.61071 -5.101135,-4.25598 0.292073,-0.76113 5.350815,-4.19545 11.24165,-7.63182 8.151603,-4.75518 10.432268,-6.52629 9.545628,-7.41293 -0.88664,-0.88664 -2.653343,-0.36976 -7.39446,2.16338 -5.525658,2.95231 -6.530777,3.19108 -8.896233,2.1133 -4.294039,-1.95649 -4.093592,-3.63009 0.841439,-7.02548 l 4.539387,-3.12319 -2.138178,-1.99201 c -1.93615,-1.8038 -2.000162,-2.1957 -0.677469,-4.14774 1.020073,-1.50544 2.395449,-2.11125 4.559377,-2.00828 3.065713,0.14588 3.098668,0.095 3.098668,-4.78139 0,-5.70025 1.613357,-7.00464 5.50772,-4.45296 2.223579,1.45695 2.49228,2.3181 2.49228,7.98751 0,5.9726 1.570273,9.69578 3.342009,7.92405 C 50.703904,913.32494 51,907.46472 51,900.66413 51,887.0746 51.610159,885.75019 56.419212,888.9012 58.939738,890.55271 59,890.85415 59,901.81052 c 0,6.17008 0.296096,11.51442 0.657991,11.87632 0.361895,0.36189 1.261895,0.15679 2,-0.45578 C 62.597571,912.45128 63,909.43599 63,903.17576 l 0,-8.94152 3.25,0.31397 c 2.724129,0.26317 3.301705,-0.0501 3.569551,-1.93603 0.445698,-3.13822 2.192673,-2.84383 10.641771,1.79331 4.894893,2.68647 7.597291,3.67087 8.053031,2.93347 0.891936,-1.44319 1.134825,-1.24936 -9.154883,-7.30572 -8.0738,-4.75212 -8.8881,-5.51212 -9.182312,-8.56996 -0.566088,-5.88355 0.932625,-5.82001 12.012503,0.50924 C 93.927284,888.6775 95,889.09662 95,886.97766 c 0,-0.84215 -2.1375,-2.74655 -4.75,-4.232 -5.869174,-3.33719 -7.25,-4.97628 -7.25,-8.60599 0,-3.75448 2.002126,-4.35608 6.127316,-1.84114 4.327423,2.63823 5.657795,2.59728 6.053133,-0.18635 0.261875,-1.8439 0.95127,-2.25 3.819551,-2.25 2.86828,0 3.55768,0.4061 3.81955,2.25 0.39534,2.78363 1.72571,2.82458 6.05313,0.18635 4.541,-2.76844 6.33123,-1.9353 5.93816,2.76352 -0.27995,3.34672 -0.88217,4.05419 -6.06084,7.1202 -3.1625,1.87234 -5.75,4.02878 -5.75,4.79209 0,2.19723 1.15466,1.7588 12.47568,-4.73707 11.43833,-6.56318 12.91124,-6.65292 12.34716,-0.75225 -0.29582,3.09452 -1.09734,3.83642 -9.57702,8.86463 -5.08979,3.0181 -9.09311,5.9431 -8.89625,6.5 0.5509,1.55846 3.17642,0.72754 9.60358,-3.03932 7.01196,-4.10959 8.62405,-4.26887 9.46086,-0.93473 0.53174,2.11861 1.03688,2.41152 3.21575,1.86466 3.63856,-0.91322 4.33707,0.75038 4.35493,10.37192 0.0124,6.65986 0.30443,8.25 1.51531,8.25 1.23936,0 1.50266,-1.86792 1.51531,-10.75 0.008,-5.9125 0.34592,-11.24513 0.75,-11.8503 1.13748,-1.70353 5.16363,-3.56165 6.25536,-2.88693 0.55304,0.3418 0.97933,5.94807 0.97933,12.87958 0,6.75087 0.2961,12.57041 0.65799,12.93231 1.77174,1.77173 3.34201,-1.95145 3.34201,-7.92405 0,-5.66941 0.2687,-6.53056 2.49228,-7.98751 C 157.39563,895.21771 159,896.5264 159,902.26792 l 0,4.96852 3.29502,-0.53471 c 2.83382,-0.45987 3.46163,-0.16906 4.48528,2.0776 1.01959,2.23775 0.9067,2.89585 -0.78734,4.58989 -1.97011,1.97011 -1.96281,1.9869 1.93067,4.44475 5.77756,3.64721 6.0164,4.96403 1.34636,7.42299 -1.88954,0.99492 -3.16796,0.70071 -8.37334,-1.92695 -4.58691,-2.31546 -6.42878,-2.81259 -7.26999,-1.96221 -0.83668,0.84579 -0.74059,1.36527 0.37334,2.01832 16.93412,9.9277 19.5,11.70421 19.5,13.50098 0,1.23952 -1.03591,2.31123 -2.85106,2.94958 -2.43887,0.8577 -3.74003,0.50714 -9,-2.42483 -3.38192,-1.88512 -7.80521,-4.34422 -9.82953,-5.46466 -3.85634,-2.13444 -5.97406,-1.66121 -3.87646,0.86624 0.67537,0.81378 4.11449,3.16815 7.6425,5.23195 6.63311,3.88021 7.66484,5.64449 4.66455,7.97656 -1.66667,1.29547 -1.66667,1.42501 0,2.72048 3.10917,2.4167 1.95816,4.42547 -4.6548,8.12364 -7.08706,3.96331 -9.39565,6.12453 -8.00282,7.49192 0.53491,0.52514 4.96447,-1.41514 10.78692,-4.725 9.415,-5.3521 10.00213,-5.54709 12.49292,-4.14904 4.7391,2.65998 3.6967,4.0842 -7.86179,10.74146 -10.16791,5.85633 -12.49032,8.16465 -8.20141,8.15166 0.93004,-0.003 3.49098,-1.11378 5.69098,-2.46879 4.68085,-2.88302 7.20955,-3.11826 10.29422,-0.95767 2.68775,1.88258 2.2685,2.73563 -2.96969,6.04235 -3.83492,2.42088 -3.93378,2.61103 -2.29742,4.41919 1.18355,1.30781 1.50418,2.70923 1.04155,4.5525 -0.60125,2.39556 -1.01492,2.60681 -4.11852,2.10316 L 159,987.48792 l 0,4.96852 c 0,5.74152 -1.60437,7.05021 -5.50772,4.49264 C 151.2687,995.49213 151,994.63097 151,988.96157 c 0,-5.9726 -1.57027,-9.69578 -3.34201,-7.92405 -0.36189,0.3619 -0.65799,6.18144 -0.65799,12.93231 0,6.93147 -0.42629,12.53777 -0.97933,12.87957 -1.09173,0.6747 -5.11788,-1.1834 -6.25536,-2.8869 -0.40408,-0.6052 -0.74158,-5.93782 -0.75,-11.85032 -0.0119,-8.38 -0.3146,-10.75 -1.37285,-10.75 -1.34581,0 -2.64246,7.7324 -2.64246,15.75798 0,3.41794 -0.0471,3.45574 -3.5,2.808 -3.25526,-0.61069 -3.5,-0.47862 -3.5,1.88874 0,3.4619 -1.92778,3.2695 -9.04685,-0.9029 -5.75946,-3.3755 -7.17287,-3.91014 -9.70315,-3.6703 -2.87668,0.27267 -0.7306,2.18772 8,7.1387 5.0875,2.8851 9.58061,5.7483 9.98469,6.3627 1.08837,1.6548 0.91928,6.4039 -0.25382,7.1289 -0.56053,0.3464 -5.78026,-2.102 -11.59942,-5.441 -5.81915,-3.3389 -10.98554,-6.0708 -11.48086,-6.0708 -2.64943,0 -0.19725,3.4095 4.84941,6.7427 4.4464,2.9367 5.8244,4.4442 6.07818,6.6493 0.52731,4.582 -1.11716,5.1764 -6.30281,2.278 -3.74357,-2.0923 -4.70739,-2.3063 -5.07346,-1.1265 -0.24855,0.8011 -0.66279,2.1315 -0.92053,2.9565 -0.56065,1.7946 -4.643305,1.9881 -6.33138,0.3 z M 81.799447,989.86819 c 0.883615,-0.7999 1.203622,-3.31904 1,-7.87215 L 82.5,975.30023 l -5.5,3.28711 -5.5,3.2871 -0.295195,7.31251 -0.295195,7.31251 4.795195,-2.72747 c 2.637357,-1.50011 5.379946,-3.25682 6.094642,-3.9038 z m 45.199533,-1.25601 -0.001,-6.75 -4.89637,-2.75 c -2.69301,-1.5125 -5.39255,-2.75 -5.99899,-2.75 -0.68891,0 -1.10262,2.40709 -1.10262,6.41544 l 0,6.41545 4.75,3.01497 c 6.91184,4.38716 7.25016,4.21933 7.24898,-3.59586 z m -24.2138,3.0231 c 1.49315,-0.9498 3.04543,-2.1873 3.44951,-2.75 0.40408,-0.56271 0.74158,-6.50904 0.75,-13.21408 0.009,-7.35727 0.42834,-12.44625 1.05701,-12.83479 0.57294,-0.3541 5.73561,2.09435 11.47261,5.44098 5.737,3.34663 11.16127,6.08479 12.05393,6.08479 0.89266,0 2.92999,-0.93064 4.52739,-2.06809 C 138.52354,970.56526 139,969.52692 139,965.96463 l 0,-4.26136 -11,-6.29616 c -6.05,-3.4629 -11,-6.90826 -11,-7.65636 0,-1.45543 3.20876,-3.69887 14.80176,-10.34882 l 7.30175,-4.18842 -0.30175,-4.53544 c -0.26644,-4.00453 -0.71565,-4.77473 -3.83759,-6.57969 l -3.53583,-2.04427 -10.66149,6.15404 c -5.86381,3.38471 -11.36019,6.15403 -12.21417,6.15403 -1.31778,0 -1.55268,-1.82535 -1.55268,-12.06574 0,-6.63616 -0.4328,-12.87444 -0.96178,-13.86285 -0.52898,-0.98841 -2.32898,-2.36342 -4,-3.05558 -3.555812,-1.47286 -8.446611,0.0102 -10.076437,3.05558 C 91.432802,907.422 91,913.66028 91,920.29644 c 0,10.15459 -0.24193,12.06574 -1.527388,12.06574 -0.840064,0 -6.274137,-2.76898 -12.075718,-6.15328 l -10.54833,-6.15329 -3.674282,2.09343 c -3.257883,1.85618 -3.708262,2.59645 -3.974122,6.53204 l -0.299839,4.43862 11.041931,6.37124 c 7.032521,4.05779 11.044803,6.9735 11.04984,8.02986 0.0051,1.07313 -3.875119,3.84115 -10.992092,7.84138 l -11,6.18276 0,4.42332 c 0,3.91727 0.371815,4.65002 3.25,6.40488 1.7875,1.08986 3.824825,1.98325 4.527388,1.9853 0.702564,0.002 5.971299,-2.73442 11.7083,-6.08105 5.737002,-3.34663 10.899677,-5.79508 11.472612,-5.44098 0.628667,0.38854 1.047772,5.47752 1.057013,12.83479 0.0084,6.70504 0.345922,12.64856 0.75,13.20783 1.128669,1.56215 5.580433,4.37195 7.01987,4.4307 0.706851,0.0289 2.506847,-0.72466 3.999997,-1.67445 z m -7.178191,-4.85489 C 95.273145,985.91041 95,978.43726 95,970.1734 c 0,-12.41201 -0.241601,-14.93249 -1.38915,-14.49213 -0.764032,0.29319 -6.925879,3.71633 -13.692993,7.60699 -6.767114,3.89066 -12.801996,7.07392 -13.41085,7.07392 -1.803198,0 -3.507007,-2.23981 -3.507007,-4.61027 0,-1.78756 2.584167,-3.69781 13.511847,-9.98816 8.680292,-4.99667 13.166815,-8.12291 12.546938,-8.74279 -0.530699,-0.53069 -6.49853,-4.18413 -13.261846,-8.11874 C 64.643072,932.41338 63.5,931.48494 63.5,928.91427 c 0,-5.8293 2.299486,-5.44274 16.533399,2.77939 7.301537,4.21768 13.644867,7.66852 14.09629,7.66852 0.451423,0 0.944415,-7.3125 1.09554,-16.25 l 0.274771,-16.25 3.5,0 3.5,0 0.27477,16.25 c 0.15113,8.9375 0.6763,16.25 1.16706,16.25 0.49076,0 6.70033,-3.375 13.79904,-7.5 7.09871,-4.125 13.41051,-7.5 14.02623,-7.5 2.04309,0 4.22336,4.1493 3.19245,6.07558 -0.51993,0.97151 -6.5647,4.98061 -13.43281,8.90913 -6.86811,3.92851 -12.69359,7.47624 -12.94551,7.88385 -0.25191,0.40761 5.61487,4.24826 13.03729,8.5348 12.24254,7.07021 13.46682,8.03047 13.18839,10.3443 -0.65777,5.46646 -2.73139,5.09389 -17.09255,-3.07107 -7.4262,-4.22212 -13.77493,-7.67659 -14.10827,-7.67659 -0.33335,0 -0.60609,6.7132 -0.60609,14.91821 0,8.20502 -0.27314,15.63002 -0.60699,16.5 -0.35251,0.91863 -1.77501,1.58179 -3.39301,1.58179 -1.617997,0 -3.040499,-0.66316 -3.393011,-1.58179 z M 60.628273,951.28879 C 63.582723,949.59842 66,947.86994 66,947.44772 c 0,-1.0229 -9.366827,-6.08554 -11.259375,-6.08554 -1.997622,0 -10.740625,4.9372 -10.740625,6.06527 0,0.74197 9.665523,6.89526 10.878273,6.92535 0.208051,0.005 2.795551,-1.37365 5.75,-3.06401 z m 88.121727,0.0438 c 2.8875,-1.65597 5.25,-3.41327 5.25,-3.90512 0,-1.12429 -8.73988,-6.06527 -10.72857,-6.06527 -1.75494,0 -11.26895,5.20631 -11.27041,6.16746 -9.6e-4,0.63098 9.9339,6.77409 10.99898,6.80109 0.275,0.007 2.8625,-1.3422 5.75,-2.99816 z M 83,912.59581 l 0,-6.76637 -5.406271,-3.23363 c -2.973449,-1.7785 -5.673449,-3.23363 -6,-3.23363 -0.326551,0 -0.593729,3.04236 -0.593729,6.76081 l 0,6.76081 5.75,3.21579 c 3.1625,1.76869 5.8625,3.22632 6,3.23919 0.1375,0.0129 0.25,-3.02147 0.25,-6.74297 z m 44,-6.44435 c 0,-3.7341 -0.19928,-6.78928 -0.44284,-6.78928 -0.77539,0 -7.98924,4.286 -9.80716,5.82677 -1.28707,1.09085 -1.75,2.9853 -1.75,7.16155 0,3.12309 0.25787,5.93621 0.57304,6.25138 0.31517,0.31517 3.01517,-0.82965 6,-2.54405 L 127,912.94075 l 0,-6.78929 z"
         id="path14440"
         inkscape:connector-curvature="0" />
      <path
         style="fill:#8cb7da"
         d="m 96.364193,1021.4331 c -0.71752,-3.5876 -1.773111,-3.7803 -5.864193,-1.0709 -4.004495,2.652 -5.5,2.5127 -5.5,-0.5124 0,-1.9523 1.226326,-3.2969 5.5,-6.0308 4.172239,-2.6689 5.5,-4.1001 5.5,-5.9285 0,-1.3257 -0.3541,-2.6291 -0.786889,-2.8966 -0.432789,-0.2675 -5.42353,2.1809 -11.090536,5.441 -5.667005,3.26 -10.937905,5.9273 -11.713111,5.9273 -0.834928,0 -1.409464,-1.0141 -1.409464,-2.4879 0,-2.0993 1.558408,-3.3877 9.979606,-8.25 5.488783,-3.1692 9.988783,-6.30879 10,-6.97694 0.01122,-0.66815 -0.900355,-1.70758 -2.025716,-2.30986 -1.701752,-0.91075 -3.231223,-0.41177 -9.087843,2.96482 -3.872954,2.23288 -7.452205,4.05988 -7.953891,4.05988 -0.501686,0 -0.912156,-1.328 -0.912156,-2.9511 0,-2.59256 0.789575,-3.39259 6.5,-6.58604 l 6.5,-3.63501 0,-7.91394 c 0,-4.35266 -0.3375,-7.90856 -0.75,-7.90201 -0.4125,0.007 -3.45,1.51149 -6.75,3.34428 l -6,3.33236 -0.5,7.73872 c -0.392168,6.06975 -0.909185,8.03741 -2.397322,9.12369 -1.043527,0.76173 -2.281027,1.14782 -2.75,0.85798 C 64.383705,998.48129 64,994.74045 64,990.45815 64,984.1852 63.644623,982.35054 62.171259,981.01717 58.467512,977.66532 58,978.81106 58,991.23974 58,1003.2439 57.582554,1004.734 53.99657,1005.53 52.747287,1005.8073 52.417382,1003.7275 52,992.94302 51.485542,979.65028 50.783925,977.72111 47.616071,980.88897 46.501187,982.00385 46,984.29558 46,988.27862 c 0,4.44099 -0.447075,6.17818 -1.936987,7.52653 C 41.268841,998.33385 40,996.93725 40,991.33306 l 0,-4.91108 -3.711429,0.2201 c -2.945969,0.17471 -3.792136,-0.17233 -4.102742,-1.68265 -0.215221,-1.04651 0.329922,-2.30637 1.21143,-2.79969 2.416148,-1.35215 1.930396,-3.56878 -1.147259,-5.23529 -5.498707,-2.97748 -5.744457,-3.26156 -4.313253,-4.98605 1.860402,-2.24165 4.49732,-1.95857 9.157156,0.98306 4.358482,2.75139 9.20302,2.97243 9.659386,0.44072 0.176839,-0.98102 -3.555763,-3.70376 -10.788287,-7.8695 -10.641749,-6.12937 -10.994516,-6.44041 -9.356852,-8.25 0.936004,-1.03428 2.165926,-1.8805 2.733159,-1.8805 0.567234,0 5.488705,2.52378 10.936602,5.60841 7.068697,4.00233 10.21334,5.30034 10.981051,4.53263 1.939282,-1.93928 -0.553832,-5.0256 -7.183839,-8.89315 -3.533682,-2.06134 -6.60653,-4.30393 -6.82855,-4.98354 -0.22202,-0.67961 0.707202,-1.7418 2.064937,-2.36042 2.133328,-0.97201 3.364111,-0.62398 9.061983,2.56245 l 6.593372,3.68722 6.016567,-3.30762 C 64.292545,950.38896 67,948.368 67,947.71713 c 0,-1.54346 -9.458853,-7.35495 -11.971016,-7.35495 -1.067535,0 -4.315464,1.40005 -7.217622,3.11122 -4.144558,2.44372 -5.799212,2.92646 -7.712292,2.25 -4.227872,-1.49494 -3.413882,-3.08488 3.761862,-7.34791 7.107523,-4.2225 8.740382,-6.11641 7.375736,-8.55489 -0.596074,-1.06513 -2.978306,-0.13017 -10.713156,4.20458 -8.182537,4.58565 -10.38235,5.42022 -12.403359,4.70564 -1.351199,-0.47775 -2.612458,-1.33803 -2.8028,-1.91172 -0.190341,-0.5737 4.611164,-3.94637 10.670012,-7.49483 6.058848,-3.54845 10.876027,-6.87192 10.704842,-7.38547 -0.983474,-2.95042 -3.661959,-2.87139 -9.579542,0.28265 -4.929908,2.62761 -6.448177,3.03154 -8.090705,2.15248 -3.048351,-1.63143 -2.454435,-3.4004 1.97804,-5.89159 4.393652,-2.46937 4.761396,-3.24337 2.451743,-5.16021 -0.851541,-0.70672 -1.413946,-2.22432 -1.249788,-3.37245 0.248834,-1.74036 0.922046,-2.0509 4.048257,-1.8674 L 40,908.30238 l 0,-5.4701 c 0,-5.63717 0.598818,-6.29036 4.065741,-4.43492 1.57418,0.84248 1.934259,2.12497 1.934259,6.88922 0,4.37234 0.501071,6.45156 1.979685,8.21482 3.122347,3.72341 3.987717,0.9384 4.005002,-12.88922 0.0084,-6.7375 0.365185,-12.25 0.792807,-12.25 0.427621,0 1.777621,0.70052 3,1.5567 C 57.852857,891.37252 58,892.22929 58,902.85987 c 0,11.40622 0.717092,13.81192 3.442774,11.5498 0.882843,-0.73269 1.47751,-4.04492 1.706195,-9.50332 0.193067,-4.60825 0.689209,-8.71656 1.102538,-9.12958 0.413328,-0.41302 1.875828,-0.14922 3.25,0.58622 C 69.837197,897.61301 70,898.20664 70,905.47325 l 0,7.77311 6.199427,3.49367 c 3.409685,1.92152 6.559685,3.27103 7,2.9989 C 83.639742,919.4668 84,916.14055 84,912.34727 l 0,-6.89687 -7,-4.08822 c -5.69468,-3.32587 -7,-4.55203 -7,-6.5755 0,-3.8837 2.350336,-3.8857 9.284542,-0.008 6.285519,3.51507 10.068968,4.43843 11.13286,2.71702 0.75046,-1.21427 -1.679916,-3.08067 -11.076413,-8.50611 -9.012607,-5.20379 -10.566071,-7.14435 -8.425506,-10.52503 0.707918,-1.11804 3.098945,-0.15302 11.957265,4.82597 6.089824,3.4229 11.534748,5.93771 12.09983,5.58847 2.176112,-1.34488 0.841887,-3.67591 -3.722578,-6.50369 -6.595409,-4.086 -7.25,-4.76259 -7.25,-7.49364 0,-3.58324 1.297744,-3.7713 6.388872,-0.92581 4.888883,2.73245 4.533774,2.85474 6.079743,-2.09378 0.566068,-1.81194 4.442975,-2.00708 4.966835,-0.25 1.56797,5.2591 1.2047,5.12211 6.19167,2.33484 2.54363,-1.42166 5.01811,-2.58484 5.49883,-2.58484 0.48073,0 0.87405,1.54197 0.87405,3.42661 0,3.0976 -0.51839,3.7232 -5.399,6.5156 -5.25564,3.00698 -7.19055,5.29486 -6.04523,7.14803 0.93335,1.51019 1.83112,1.14747 12.94847,-5.23154 8.5299,-4.89435 10.88196,-5.8588 11.5841,-4.75 2.23347,3.52703 0.82256,5.15129 -10.23419,11.78181 -5.14478,3.08522 -9.25564,6.05949 -9.13524,6.60949 0.50252,2.29553 5.30165,1.42515 11.1987,-2.03102 6.69242,-3.92232 9.08239,-3.94147 9.08239,-0.0728 0,1.94848 -1.29755,3.23987 -6.25,6.22031 -3.4375,2.06872 -6.58061,4.2388 -6.98469,4.8224 -1.06664,1.54052 -0.93227,13.33986 0.1596,14.01467 0.5087,0.3144 3.6587,-1.0306 7,-2.98888 L 128,913.26637 l 0,-7.78311 c 0,-7.19624 0.18132,-7.88016 2.40465,-9.07005 3.83242,-2.05105 4.59535,-0.64437 4.59535,8.4728 0,7.18518 0.27133,8.55101 1.86852,9.4058 1.02768,0.55 2.15268,0.71583 2.5,0.36852 0.34731,-0.34732 0.63148,-5.70597 0.63148,-11.90811 0,-10.51933 0.14926,-11.38118 2.22251,-12.83334 1.22237,-0.85618 2.57237,-1.5567 3,-1.5567 0.42762,0 0.77749,5.3632 0.77749,11.91821 0,15.05096 0.71295,17.22598 4.42857,13.51036 1.10085,-1.10085 1.57143,-3.48598 1.57143,-7.96482 0,-5.29749 0.33155,-6.57082 1.93426,-7.42857 3.47471,-1.85961 4.06574,-1.20398 4.06574,4.51013 l 0,5.54532 3.4139,-0.64045 c 2.76855,-0.51939 3.61313,-0.26819 4.46782,1.32881 0.83552,1.56118 0.64613,2.33832 -0.9139,3.75013 -2.72972,2.47036 -2.52675,3.02878 2.03218,5.59104 4.43248,2.49119 5.02639,4.26016 1.97804,5.89159 -1.63943,0.8774 -3.13448,0.48916 -7.90251,-2.05218 -4.90358,-2.61358 -6.23366,-2.94531 -8.00604,-1.99676 -1.16903,0.62565 -1.86607,1.55731 -1.54898,2.07037 0.31708,0.51306 4.94219,3.49762 10.278,6.63236 11.96428,7.02889 11.80997,6.89636 10.23666,8.79208 -2.06726,2.4909 -4.43951,1.85598 -14.73384,-3.94346 -7.69476,-4.33495 -9.90203,-5.19216 -10.52109,-4.08595 -1.38235,2.47013 0.22787,4.34868 7.35883,8.5851 6.97513,4.14385 7.74496,5.40497 4.52651,7.41525 -1.34322,0.83898 -3.06596,0.36021 -7.94048,-2.20679 -3.42381,-1.80303 -6.9001,-3.2613 -7.7251,-3.24061 -2.3523,0.059 -12.00015,5.91995 -11.99867,7.28907 7.4e-4,0.67637 2.81324,2.74496 6.25,4.59687 l 6.24867,3.36709 6.3581,-3.72835 c 5.51707,-3.23518 6.68489,-3.57947 8.82855,-2.60275 1.35875,0.61909 2.28691,1.67622 2.06259,2.34919 -0.22432,0.67296 -3.41482,3.02828 -7.08999,5.23403 -6.64154,3.98608 -8.80682,6.76612 -6.81853,8.75441 0.71919,0.71919 4.15495,-0.7401 11.15261,-4.73691 8.91436,-5.09155 10.40326,-5.64414 12.55994,-4.66149 1.3457,0.61314 2.44673,1.54131 2.44673,2.06261 0,0.52129 -4.95108,3.79344 -11.0024,7.27144 -7.17374,4.12311 -10.91101,6.84561 -10.73978,7.82363 0.44291,2.52982 4.75737,2.30959 9.93237,-0.507 3.32844,-1.81156 5.71733,-2.48204 7.36765,-2.06784 3.56529,0.89483 2.99357,2.89665 -1.55784,5.45468 -4.22218,2.373 -5.0555,4.43009 -2.39726,5.91772 0.88151,0.49332 1.42665,1.75318 1.21143,2.79969 -0.31061,1.51032 -1.15677,1.85736 -4.10274,1.68265 L 158,986.42198 l 0,4.91108 c 0,5.60419 -1.26884,7.00079 -4.06301,4.47209 C 152.41087,994.42403 152,992.71379 152,987.74238 c 0,-5.30789 -0.32086,-6.48155 -2.02067,-7.39126 -1.11136,-0.59479 -2.46136,-0.80906 -3,-0.47617 -0.5542,0.34252 -0.97933,6.00597 -0.97933,13.04625 0,11.7 -0.11702,12.441 -1.96482,12.441 -3.17269,0 -4.03518,-3.1921 -4.03518,-14.93428 0,-8.97632 -0.27252,-11.06574 -1.4433,-11.06574 -2.99687,0 -4.5567,4.18395 -4.5567,12.22251 0,4.27762 -0.34987,7.77749 -0.77749,7.77749 -0.42763,0 -1.77763,-0.70052 -3,-1.5567 C 128.26651,996.43544 128,995.36195 128,988.85338 l 0,-7.39539 -6.07509,-3.56051 c -3.3413,-1.95829 -6.4913,-3.30329 -7,-2.98889 -0.5087,0.31439 -0.92491,3.62532 -0.92491,7.35762 0,7.56728 0.25026,7.94804 8.25,12.5522 3.9492,2.27292 4.75,3.22356 4.75,5.63879 0,1.5977 -0.41047,2.905 -0.91216,2.905 -0.50168,0 -4.08093,-1.827 -7.95389,-4.05988 -5.85662,-3.37659 -7.38609,-3.87557 -9.08784,-2.96482 -1.12536,0.60228 -2.03279,1.64171 -2.01652,2.30986 0.0163,0.66815 4.40377,3.70594 9.75,6.75074 8.14926,4.6411 9.77155,5.9746 10.03683,8.25 0.19542,1.6762 -0.16265,2.7141 -0.93632,2.7141 -0.68901,0 -5.62395,-2.475 -10.96654,-5.5 -11.1405,-6.3078 -13.19497,-6.7618 -12.72998,-2.8127 0.23764,2.0183 1.56126,3.4154 5.31642,5.6117 5.43119,3.1765 6.46132,4.2807 6.48469,6.951 0.0204,2.333 -2.09561,2.2071 -6.49119,-0.3864 -3.75817,-2.2173 -5.03416,-1.8482 -5.65665,1.6364 -0.20874,1.1685 -1.29298,2.1334 -2.607872,2.3209 -1.815694,0.259 -2.369276,-0.2724 -2.864785,-2.75 z M 104.10212,992.0756 107.5,989.78903 108,976.8256 c 0.32206,-8.35002 0.87818,-12.89667 1.56266,-12.77587 0.58446,0.10316 5.39811,2.69066 10.69699,5.75 5.29887,3.05935 10.39256,5.56245 11.3193,5.56245 0.92674,0 3.22237,-0.95016 5.10141,-2.11147 3.24957,-2.00834 3.40185,-2.35953 3.11803,-7.19053 L 139.5,960.98111 129,954.90298 c -5.775,-3.34298 -10.5,-6.64034 -10.5,-7.32748 0,-0.68714 4.725,-4.05374 10.5,-7.48133 l 10.5,-6.23199 0.30188,-4.6787 c 0.28563,-4.42689 0.0982,-4.81708 -3.48214,-7.25 -2.0812,-1.41421 -4.15326,-2.5713 -4.60456,-2.5713 -0.4513,0 -5.49813,2.7 -11.21518,6 -5.71705,3.3 -10.85977,6 -11.42826,6 -1.54878,0 -2.05301,-3.36133 -2.32514,-15.5 l -0.2466,-11 -3.75,-2 c -3.75,-2 -3.75,-2 -7.5,0 l -3.75,2 -0.246603,11 c -0.273206,12.18665 -0.775555,15.5 -2.350011,15.5 -0.58218,0 -5.677825,-2.7 -11.323655,-6 -5.64583,-3.3 -10.569869,-6 -10.94231,-6 -0.372441,0 -2.492034,1.14568 -4.710208,2.54595 -3.876882,2.44737 -4.021313,2.72691 -3.730128,7.21964 L 58.5,933.80147 69,940.0088 c 5.775,3.41403 10.5,6.79429 10.5,7.51169 0,0.71739 -4.725,4.03951 -10.5,7.38249 l -10.5,6.07813 -0.297855,5.06352 c -0.286775,4.87517 -0.163754,5.14265 3.30716,7.19054 1.982759,1.16986 4.366793,2.11944 5.297855,2.1102 0.931062,-0.009 6.190423,-2.66777 11.687468,-5.90783 5.497045,-3.24006 10.334545,-5.68094 10.75,-5.42417 C 89.660083,964.27013 90,970.06243 90,976.88515 l 0,12.40493 3.732135,2.53605 c 4.592384,3.1206 6.051287,3.1557 10.369985,0.24947 z m -7.393271,-5.3379 C 96.318982,986.34783 96,979.1554 96,970.75453 c 0,-9.11531 -0.403667,-15.5238 -1.001094,-15.89303 -0.550601,-0.34029 -7.071801,2.83276 -14.491554,7.05122 -13.673835,7.77418 -16.959856,8.62657 -16.327489,4.23534 0.239319,-1.66186 3.591512,-4.15607 13.278653,-9.88002 7.127184,-4.21133 13.105497,-8.0979 13.28514,-8.63683 0.179642,-0.53893 -5.76419,-4.46771 -13.208517,-8.73062 C 66.006235,932.29868 64,930.79036 64,928.72462 c 0,-1.33386 0.67107,-2.68272 1.491266,-2.99746 0.845926,-0.32461 7.187586,2.71819 14.65446,7.03138 7.239757,4.182 13.768687,7.60364 14.508734,7.60364 1.07089,0 1.34554,-3.24091 1.34554,-15.87756 0,-12.89343 0.281919,-16.11152 1.5,-17.12244 1.196716,-0.99319 1.803284,-0.99319 3,0 1.21458,1.00801 1.5,4.17695 1.5,16.65383 0,12.02304 0.29702,15.52292 1.35171,15.92764 0.74344,0.28528 7.20876,-2.87884 14.36738,-7.03139 7.15862,-4.15254 13.50952,-7.55008 14.11311,-7.55008 1.40937,0 3.03114,3.12774 2.45466,4.73404 -0.24359,0.67872 -6.48278,4.66798 -13.86487,8.86503 C 113.03989,943.1583 107,946.96423 107,947.41888 c 0,0.45465 4.3875,3.37676 9.75,6.49359 15.3732,8.93531 17.25,10.2948 17.25,12.49528 0,1.10946 -0.66153,2.27105 -1.47008,2.58132 -0.81535,0.31288 -7.52519,-2.87843 -15.06583,-7.16555 -8.13329,-4.62406 -13.96013,-7.3653 -14.50266,-6.82277 -0.49879,0.49879 -1.03166,7.87166 -1.18416,16.38416 -0.26359,14.71343 -0.37801,15.49169 -2.318421,15.76945 -1.122633,0.1607 -2.360133,-0.0268 -2.75,-0.41666 z"
         id="path14438"
         inkscape:connector-curvature="0" />
      <path
         style="fill:#72a7d2"
         d="m 97,1020.9212 c 0,-3.5696 -1.331255,-3.8579 -6.412823,-1.3891 -8.214514,3.9909 -7.573346,-0.1982 0.8556,-5.5902 C 95.797683,1011.1561 97,1009.8367 97,1007.8432 c 0,-5.0406 -2.370854,-4.3253 -20.75,6.261 l -4.25,2.448 0,-2.4922 c 0,-2.099 1.57507,-3.4158 9.982057,-8.3451 5.490131,-3.219 9.990131,-6.32522 10,-6.90272 0.02854,-1.67011 -2.208422,-3.45 -4.335957,-3.45 -1.074645,0 -4.853241,1.6214 -8.39688,3.60312 -4.001144,2.2376 -6.79768,3.2484 -7.378883,2.6672 -1.635392,-1.63537 0.03714,-3.65999 6.41905,-7.77032 l 6.210613,-4 0.292064,-7.75 c 0.270519,-7.17827 0.144665,-7.75 -1.705993,-7.75 -2.159176,0 -12.118426,5.50599 -13.320758,7.36441 -0.404078,0.62457 -0.741578,4.11799 -0.75,7.76315 -0.01055,4.5674 -0.467966,7.00322 -1.471508,7.83609 C 64.929691,999.49535 64,997.40554 64,989.35987 64,982.39016 63.746906,981.29831 61.81815,979.94736 57.887296,977.19408 57,979.374 57,991.78462 c 0,10.38918 -0.715751,13.57758 -3.048024,13.57758 -0.356413,0 -0.916899,-5.69051 -1.245523,-12.64554 -0.328625,-6.95504 -1.037241,-13.08527 -1.574703,-13.62273 -0.636273,-0.63627 -1.876377,-0.078 -3.554477,1.60007 C 45.386238,982.88503 45,984.16123 45,989.20974 c 0,5.50511 -0.812912,7.15244 -3.529528,7.15244 -0.201274,0 -0.50197,-2.3625 -0.668212,-5.25 -0.312571,-5.42909 -0.955888,-5.94921 -5.74287,-4.64307 -2.035935,0.55551 -2.61546,-3.21623 -0.662131,-4.30937 2.663875,-1.49078 1.821112,-3.61314 -2.389557,-6.0177 -4.42126,-2.52482 -4.668876,-2.98625 -2.547387,-4.74692 1.178137,-0.97777 2.613856,-0.5778 7.430067,2.06993 5.211581,2.86508 6.296139,3.13318 8.539685,2.11095 C 46.84353,974.93198 48,973.81222 48,973.08765 c 0,-0.72458 -4.95,-4.14047 -11,-7.59087 -6.05,-3.4504 -11,-6.68364 -11,-7.18498 0,-0.50133 1.117715,-1.19204 2.483812,-1.53491 1.893521,-0.47525 4.763548,0.7113 12.076451,4.99271 5.275953,3.08886 10.008237,5.35926 10.516189,5.04533 C 51.584403,966.501 52,965.02938 52,963.54467 c 0,-2.26589 -1.084147,-3.35015 -6.75,-6.75065 -3.7125,-2.22815 -6.75,-4.69933 -6.75,-5.49151 0,-2.60698 4.442841,-2.14705 9.53676,0.98727 2.746307,1.68982 5.774025,3.07054 6.728263,3.06826 2.146882,-0.005 12.436942,-6.10175 12.963153,-7.68039 0.360646,-1.08194 -10.743075,-8.31547 -12.764531,-8.31547 -0.511062,0 -3.719628,1.54659 -7.130147,3.43686 -4.736317,2.62509 -6.629937,3.20727 -8.017221,2.46481 -2.881529,-1.54214 -2.220903,-2.51335 4.433723,-6.51819 3.4375,-2.06872 6.580609,-4.2388 6.984687,-4.8224 1.162221,-1.67855 0.88399,-5.56108 -0.398519,-5.56108 -0.640108,0 -5.607011,2.48179 -11.037562,5.51508 -8.101942,4.52543 -10.22588,5.32662 -11.836168,4.46482 C 26.883097,937.76443 26,936.91358 26,936.45129 c 0,-0.46229 4.1625,-3.21564 9.25,-6.11856 11.656226,-6.65103 13.098877,-7.84525 11.624024,-9.62234 -1.683616,-2.02864 -5.173996,-1.63169 -10.02195,1.13974 -4.979844,2.84684 -7.110307,3.11075 -8.788471,1.08869 -0.964897,-1.16263 -0.346193,-1.91276 3.377556,-4.09503 C 33.948521,917.37438 36,915.79041 36,915.32386 c 0,-0.46655 -1.007112,-1.55368 -2.238028,-2.41585 -1.818916,-1.27402 -2.027085,-1.89326 -1.111609,-3.3067 1.162824,-1.79534 2.577854,-1.98315 5.599637,-0.74323 1.532782,0.62895 1.75,0.0803 1.75,-4.4203 0,-3.66417 0.434003,-5.30491 1.512735,-5.71886 2.968,-1.13893 4.487265,1.5919 4.487265,8.0657 0,6.39357 1.069391,8.57756 4.2,8.57756 1.641026,0 1.8,-1.14815 1.8,-13 0,-10.6 0.263736,-13 1.428571,-13 3.690098,0 4.571429,2.80924 4.571429,14.57143 0,10.33862 0.171667,11.42857 1.8,11.42857 3.361774,0 4.2,-2.13548 4.2,-10.7 0,-7.54921 0.175575,-8.3 1.940983,-8.3 2.830167,0 3.501562,1.6447 4.059017,9.94325 l 0.5,7.44326 5.5,3.30261 c 3.025,1.81643 6.0625,3.30447 6.75,3.30674 0.889789,0.003 1.25,-2.16756 1.25,-7.53207 l 0,-7.53621 -6.5,-4.07549 c -4.826517,-3.02622 -6.5,-4.64747 -6.5,-6.29712 0,-1.2219 0.293634,-2.51527 0.65252,-2.87416 0.358885,-0.35888 3.95751,1.17188 7.996942,3.40169 C 86.958811,899.47953 91,899.98074 91,896.85243 c 0,-0.75623 -4.3875,-3.98891 -9.75,-7.18373 -8.150679,-4.85593 -9.801904,-6.25966 -10.066422,-8.55764 -0.203899,-1.77135 0.151712,-2.74398 1,-2.73511 0.724032,0.008 6.017256,2.67954 11.76272,5.9377 5.745463,3.25816 10.807963,5.7004 11.25,5.42721 C 95.638334,889.46767 96,888.17873 96,886.87655 c 0,-1.81634 -1.257049,-3.0868 -5.398999,-5.45658 -5.560135,-3.18119 -6.960806,-4.95658 -5.962627,-7.55779 0.757903,-1.97506 1.666465,-1.89437 5.587456,0.49626 4.096718,2.49777 5.77417,2.53443 5.77417,0.12618 0,-2.39924 2.525388,-4.51854 4.48727,-3.7657 0.832,0.31927 1.51273,1.71961 1.51273,3.11187 0,3.04941 1.4246,3.17959 5.77417,0.52765 4.63797,-2.82777 6.4308,-2.61488 6.04225,0.71749 -0.24255,2.08026 -1.54569,3.42254 -5.58234,5.75 -3.2207,1.85701 -5.50317,3.93856 -5.87678,5.35947 -1.23971,4.71479 1.1294,4.35722 11.83678,-1.78655 5.7864,-3.32017 11.06478,-6.03667 11.72975,-6.03667 0.72897,0 1.08338,1.0919 0.89259,2.75 -0.2635,2.29005 -1.90533,3.70282 -9.81642,8.44681 -5.225,3.13325 -9.5,6.2342 -9.5,6.89102 0,0.65681 0.72856,1.65376 1.61903,2.21545 1.2392,0.78167 3.41341,0.0364 9.26773,-3.17659 6.12125,-3.35954 7.7619,-3.90286 8.21554,-2.72069 1.15628,3.01322 -0.2524,4.97806 -6.1023,8.51157 l -6,3.62416 -0.29206,7.72914 c -0.34298,9.07639 -0.10531,9.21209 7.8363,4.47443 l 5.45576,-3.2547 0.5,-7.78407 c 0.34741,-5.40856 0.95776,-8.07275 2,-8.72999 3.42759,-2.16147 4,-1.16661 4,6.95203 0,8.10778 1.2237,11.07143 4.57143,11.07143 1.15476,0 1.42857,-2.19048 1.42857,-11.42857 0,-11.76219 0.88133,-14.57143 4.57143,-14.57143 1.16483,0 1.42857,2.4 1.42857,13 0,11.85185 0.15897,13 1.8,13 3.13061,0 4.2,-2.18399 4.2,-8.57756 0,-6.4738 1.51926,-9.20463 4.48727,-8.0657 1.07873,0.41395 1.51273,2.05469 1.51273,5.71886 0,4.50058 0.21722,5.04925 1.75,4.4203 3.02178,-1.23992 4.43681,-1.05211 5.59964,0.74323 0.91547,1.41344 0.7073,2.03268 -1.11161,3.3067 -1.23092,0.86217 -2.23803,1.9493 -2.23803,2.41585 0,0.46655 2.05148,2.05052 4.55884,3.51993 3.72375,2.18227 4.34245,2.9324 3.37756,4.09503 -1.67779,2.0216 -3.50442,1.7833 -8.91872,-1.16354 -5.16225,-2.80965 -9.30884,-2.90196 -9.8201,-0.21863 -0.23421,1.2293 2.57688,3.40048 10.23979,7.90883 5.80945,3.41789 10.56263,6.57705 10.56263,7.02034 0,0.4433 -0.89815,1.28667 -1.99589,1.87416 -1.65797,0.88732 -3.61837,0.13141 -11.57918,-4.46482 -11.01536,-6.3598 -12.6969,-6.74208 -12.24135,-2.78298 0.22746,1.97683 1.58802,3.59346 4.83923,5.75 10.20277,6.76754 9.71796,6.25649 7.55219,7.9612 -1.76205,1.38695 -2.45298,1.21994 -8.16248,-1.973 -3.43062,-1.91851 -6.69462,-3.4882 -7.25333,-3.4882 -2.00502,0 -13.22542,7.30132 -12.86803,8.37347 0.50786,1.52359 10.83268,7.61735 12.91483,7.62239 0.9383,0.002 4.03543,-1.36934 6.88252,-3.04805 5.36839,-3.16531 9.18632,-3.53944 9.67238,-0.94781 0.17141,0.91393 -1.5353,2.46001 -4.36818,3.95707 -2.55722,1.35139 -5.71672,3.29656 -7.0211,4.32258 -2.35154,1.84972 -3.21336,6.08209 -1.45922,7.1662 0.50181,0.31014 5.25155,-1.94136 10.55497,-5.00333 9.20289,-5.31336 14.03264,-6.58536 14.03264,-3.69576 0,0.68571 -4.70065,4.06071 -10.44588,7.5 -5.74524,3.43928 -10.61809,6.80928 -10.82855,7.48889 -0.21047,0.67961 0.80915,1.77868 2.26581,2.44238 2.33952,1.06595 3.32789,0.83323 8.47242,-1.995 5.6106,-3.08444 9.0362,-3.37262 9.0362,-0.76018 0,0.66488 -1.8,2.22052 -4,3.45699 -4.22218,2.373 -5.0555,4.43009 -2.39726,5.91772 1.95333,1.09314 1.37381,4.86488 -0.66213,4.30937 -4.78698,-1.30614 -5.4303,-0.78602 -5.74287,4.64307 -0.16624,2.8875 -0.63874,5.25 -1.05,5.25 -1.9904,0 -3.14915,-2.91239 -3.16305,-7.95 -0.0169,-6.13253 -0.46264,-7.2126 -3.674,-8.903 -3.28098,-1.72704 -3.75307,-0.18433 -4.1567,13.58344 -0.34149,11.64798 -0.44895,12.18208 -2.25628,11.21478 C 141.20533,1003.4017 141,1002.0646 141,991.94944 c 0,-12.58306 -0.8754,-14.76369 -4.81815,-12.00208 -1.92876,1.35095 -2.18185,2.4428 -2.18185,9.41251 0,8.04567 -0.92969,10.13548 -3.5438,7.96596 C 129.42364,996.46888 129,993.98494 129,988.78764 l 0,-7.32965 -6.05358,-3.54791 c -3.32946,-1.95134 -6.66865,-3.5479 -7.4204,-3.5479 -1.84741,0 -3.16614,11.93541 -1.63486,14.79663 0.60337,1.12741 3.52924,3.4414 6.50194,5.14221 5.63709,3.22521 6.95956,4.87251 5.63383,7.01758 -0.59634,0.9649 -2.36077,0.3955 -7.25358,-2.34068 -3.55605,-1.98866 -7.3448,-3.61574 -8.41945,-3.61574 -2.13082,0 -4.36897,1.78402 -4.32821,3.45 0.0141,0.5775 4.51413,3.67142 10,6.87542 8.4157,4.9152 9.97431,6.2158 9.97431,8.3234 l 0,2.498 -5.75,-3.2937 c -17.04637,-9.7644 -17.74328,-10.025 -18.70529,-6.994 -0.99203,3.1256 0.48568,5.1409 6.08767,8.3025 4.22099,2.3822 5.36762,3.5563 5.36762,5.4962 l 0,2.467 -5.06941,-2.7591 c -5.32715,-2.8994 -6.87711,-2.4771 -6.91528,1.8843 -0.009,1.0782 -0.78305,1.75 -2.01531,1.75 -1.453772,0 -2,-0.6667 -2,-2.441 z m 6.5,-27.85536 4,-2.26344 0.28265,-12.45275 c 0.15545,-6.84902 0.66565,-12.83577 1.13377,-13.30389 0.46817,-0.46817 5.6333,1.93851 11.47959,5.3489 9.87846,5.76252 10.83188,6.11576 13.51118,5.00596 6.19528,-2.56616 8.68857,-7.71638 6.49853,-13.42354 -0.32686,-0.85177 -5.27816,-4.15107 -11.0029,-7.33178 -6.19843,-3.4439 -10.30632,-6.33375 -10.15572,-7.14441 0.13909,-0.7487 4.7529,-3.96021 10.2529,-7.13667 l 10,-5.77538 0.29614,-5.48733 c 0.28919,-5.35833 0.21144,-5.53731 -3.30716,-7.61333 -1.98181,-1.1693 -4.27759,-2.126 -5.10172,-2.126 -0.82414,0 -5.64555,2.44071 -10.71426,5.4238 -5.06871,2.9831 -9.88119,5.5706 -10.69441,5.75 -1.22627,0.27053 -1.56391,-1.88941 -1.97859,-12.65721 l -0.5,-12.9834 -4.25,-2.34152 -4.25,-2.34152 -4.25,2.34152 -4.25,2.34152 -0.5,12.9834 c -0.322108,8.36413 -0.878077,12.91668 -1.562661,12.79586 -0.584464,-0.10316 -5.398107,-2.69066 -10.696985,-5.75 -5.298878,-3.05935 -10.307459,-5.56245 -11.130179,-5.56245 -0.82272,0 -3.096577,0.94445 -5.053015,2.09878 C 58.193446,923.4456 58,923.84753 58,928.85184 l 0,5.29211 10.5,6.12509 c 5.775,3.3688 10.49245,6.6804 10.483222,7.35912 -0.0092,0.67871 -4.703142,3.84278 -10.43092,7.03126 -8.78916,4.89266 -10.515337,6.25798 -11.062678,8.75 -1.165963,5.3086 0.203608,8.32695 4.956412,10.92328 l 4.379825,2.39258 10.681364,-6.18155 c 5.874751,-3.39985 11.07587,-6.18155 11.558045,-6.18155 0.482174,0 1.002241,5.94895 1.155705,13.2199 L 90.5,990.80197 l 4,2.26366 c 2.2,1.24501 4.225,2.26365 4.5,2.26365 0.275,0 2.3,-1.01855 4.5,-2.26344 z m -5.866236,-6.48723 c -0.266349,-0.43096 -0.808374,-7.86986 -1.204501,-16.53089 -0.396126,-8.66103 -1.023659,-15.93486 -1.394517,-16.16407 -0.370859,-0.2292 -6.492891,2.92116 -13.604517,7.00079 -12.816267,7.35215 -15.711015,8.45047 -16.957302,6.43394 -1.093024,-1.76856 1.206323,-3.56399 14.719126,-11.49334 11.306103,-6.63445 12.854289,-7.84509 11.615979,-9.0834 -0.785803,-0.7858 -7.026575,-4.69055 -13.868382,-8.67722 C 67.705918,932.68399 64.5,930.30998 64.5,928.85275 c 0,-3.68488 3.507807,-2.6399 16.566612,4.93521 7.181506,4.16582 13.468526,7.57422 13.971157,7.57422 0.504545,0 1.036679,-7.5024 1.188052,-16.75 l 0.274179,-16.75 2.5,0 2.5,0 0.27654,15.97654 c 0.1521,8.7871 0.64246,16.34246 1.08968,16.78968 0.44722,0.44722 6.76507,-2.60698 14.03966,-6.78712 13.27321,-7.62707 16.59412,-8.62713 16.59412,-4.99714 0,1.44938 -3.35994,3.91915 -12.99964,9.55556 -7.14981,4.18055 -13.11696,8.24483 -13.26035,9.03174 -0.16427,0.90153 4.53914,4.2049 12.71578,8.93074 12.42622,7.18196 14.73213,9.0779 13.48844,11.09024 -1.11433,1.80302 -3.69393,0.79251 -16.66261,-6.52726 -7.24703,-4.09036 -13.53758,-7.2138 -13.97902,-6.94098 C 102.36117,954.257 102,961.33866 102,969.7212 c 0,10.52076 -0.37165,15.61263 -1.2,16.44098 -1.387509,1.38751 -2.47748,1.53087 -3.166236,0.41643 z"
         id="path14436"
         inkscape:connector-curvature="0" />
      <path
         style="fill:#4e90c9"
         d="m 98,1019.8308 c 0,-3.5868 -2.670764,-4.2026 -7.120396,-1.6417 C 86.654989,1020.6205 86,1020.7836 86,1019.4043 c 0,-0.5268 2.1375,-2.1732 4.75,-3.6586 5.869174,-3.3372 7.25,-4.9763 7.25,-8.606 0,-5.4785 -3.688467,-4.6302 -19.294006,4.437 -5.463899,3.1747 -5.720286,3.2442 -5.667045,1.5355 0.02142,-0.6875 4.521421,-3.888 10,-7.1122 10.874942,-6.39993 12.192235,-8.47099 6.806821,-10.7017 -2.942441,-1.2188 -3.606687,-1.05909 -9.892826,2.37868 C 72.386791,1001.8147 72,1001.9256 72,999.95674 c 0,-0.77299 2.907537,-3.10627 6.461194,-5.18507 7.393061,-4.32476 8.135758,-5.95808 7.03233,-15.46529 -0.467093,-4.0245 -1.131501,-5.9442 -2.057288,-5.9442 -0.752065,0 -4.309959,1.61744 -7.906431,3.59431 -7.109368,3.9078 -7.360637,4.35479 -7.772404,13.82669 -0.158766,3.65209 -0.736395,6.079 -1.507401,6.33333 -0.929564,0.30663 -1.25,-1.62009 -1.25,-7.51601 0,-8.50932 -1.380276,-11.23832 -5.684136,-11.23832 -1.772413,0 -2.106627,0.84678 -2.66415,6.75 -0.350623,3.7125 -0.640695,9.3375 -0.644605,12.5 -0.0039,3.16252 -0.400859,5.75002 -0.882109,5.75002 -1.381165,0 -2.125,-5.46939 -2.125,-15.62502 0,-9.1681 -0.05175,-9.375 -2.345012,-9.375 -3.827151,0 -5.654988,2.97571 -5.654988,9.2063 0,3.71232 -0.496454,5.96083 -1.5,6.7937 -1.294153,1.07405 -1.502101,0.64485 -1.515313,-3.12756 -0.02189,-6.25186 -1.125001,-7.63541 -4.939696,-6.19552 C 34.630802,985.95035 34,985.92107 34,984.89776 c 0,-0.70988 0.675,-1.85089 1.5,-2.53558 2.452514,-2.03541 1.741536,-3.82244 -2.614914,-6.57254 -3.003411,-1.89597 -3.8165,-2.89605 -3.010152,-3.70239 1.040067,-1.04007 3.849359,0.11841 11.367814,4.6878 1.99975,1.21536 7.044707,-1.25217 7.551506,-3.6935 0.185261,-0.89243 -3.796582,-3.75898 -10.75,-7.73897 C 31.969914,961.86576 27,958.69598 27,958.29862 c 0,-2.30348 3.882265,-1.16527 12.40792,3.63776 11.494906,6.47581 13.857403,6.86042 13.405438,2.18243 -0.256654,-2.65646 -1.218137,-3.81951 -5.313358,-6.42722 -8.46786,-5.39208 -9.220162,-6.11453 -7.53574,-7.23675 1.062399,-0.7078 3.313567,0.0358 8.202582,2.70952 l 6.738323,3.68506 3.297417,-1.9189 C 65.842265,950.4847 69,948.28166 69,947.39754 c 0,-1.34066 -11.721438,-8.03536 -14.068725,-8.03536 -1.078865,0 -4.435228,1.39604 -7.458585,3.10232 C 42.36471,945.34727 39,945.74497 39,943.46597 c 0,-0.52744 2.702377,-2.60059 6.005283,-4.607 3.302906,-2.00641 6.429802,-4.44124 6.948659,-5.41073 1.012515,-1.8919 0.332343,-6.08606 -0.986985,-6.08606 -0.43988,0 -5.198923,2.49133 -10.575653,5.53629 -5.37673,3.04496 -10.439554,5.40746 -11.250722,5.25 -3.501071,-0.67961 -1.534289,-2.71884 8.098948,-8.39725 5.643258,-3.32648 10.405012,-6.7949 10.581675,-7.70759 0.195575,-1.0104 -0.711798,-2.13011 -2.319933,-2.86282 -2.328598,-1.06098 -3.32371,-0.82814 -8.409257,1.96765 -4.989333,2.7429 -6.01333,2.99174 -7.584277,1.84304 -1.676894,-1.22618 -1.497612,-1.50704 2.338053,-3.66281 4.367698,-2.45478 5.372497,-5.18534 2.499717,-6.79303 -2.818547,-1.57734 -0.880491,-4.22638 2.876048,-3.93114 l 3.278444,0.25766 0.30226,-5.25 c 0.318796,-5.53723 1.043473,-6.26141 3.653699,-3.65118 1.161943,1.16194 1.549197,3.25246 1.417225,7.65065 -0.145965,4.86454 0.180443,6.31657 1.663742,7.40119 C 51.587617,917.97478 52,916.99822 52,904.44397 52,890.61393 52.36702,888.95305 55.099961,890.41568 56.803347,891.3273 57,892.66479 57,903.33835 c 0,12.75214 0.534935,14.14587 4.595353,11.9728 C 63.837367,914.11126 64,913.46476 64,905.75222 c 0,-8.39118 0.900621,-10.54733 3.50334,-8.38727 0.940039,0.78016 1.513328,3.74544 1.706195,8.82511 l 0.290465,7.65015 6.697171,3.85265 c 3.683444,2.11896 7.170944,3.55985 7.75,3.20197 C 84.532102,920.53332 85,916.92744 85,912.78114 l 0,-7.46301 -4.75,-2.92511 C 72.340489,897.52224 71,896.35167 71,894.31549 c 0,-2.70441 1.237898,-2.47738 8.433615,1.54669 3.442222,1.925 7.13784,3.5 8.212485,3.5 1.921848,0 4.3539,-1.73009 4.3539,-3.09723 0,-0.38347 -4.495482,-3.33097 -9.98996,-6.55 -9.427935,-5.5235 -12.324228,-8.43858 -10.34784,-10.41497 0.481164,-0.48116 5.487061,1.76253 11.349337,5.08689 5.768654,3.27127 11.002818,5.95397 11.631474,5.96154 1.694726,0.0204 2.491328,-2.8667 1.369388,-4.96306 -0.539236,-1.00757 -3.237622,-3.22081 -5.996414,-4.91832 C 86.926201,878.56587 85,876.67309 85,875.53809 c 0,-3.02406 0.898312,-3.09195 5.664432,-0.42812 4.77298,2.66767 6.28361,2.19017 6.320255,-1.99779 0.02693,-3.07807 3.709373,-2.06638 4.898893,1.34589 l 1.07923,3.09588 4.69288,-2.6229 c 3.26021,-1.82216 4.90754,-2.27557 5.39603,-1.48519 1.37221,2.22029 -0.23526,4.45507 -5.36036,7.45223 -4.33623,2.53584 -5.24298,3.56535 -5.50472,6.25 -0.20973,2.15117 0.12098,3.20954 1,3.20032 0.72235,-0.008 6.03317,-2.69027 11.80182,-5.96154 5.86228,-3.32436 10.86818,-5.56805 11.34934,-5.08689 2.0016,2.0016 -0.91834,4.94379 -10.33179,10.41051 -5.5033,3.19597 -10.00601,6.13504 -10.00601,6.53127 0,1.38756 2.41785,3.12042 4.3539,3.12042 1.07465,0 4.85324,-1.6214 8.39688,-3.60312 4.79164,-2.67963 6.73277,-3.31333 7.57362,-2.47248 1.74036,1.74036 -0.25914,4.11759 -6.67646,7.93776 L 114,904.58651 l 0,8.38783 c 0,6.07632 0.34447,8.37094 1.25,8.3265 0.6875,-0.0337 3.95,-1.73063 7.25,-3.77087 l 6,-3.70953 0.29046,-7.64027 c 0.19279,-5.07108 0.76654,-8.03537 1.7062,-8.81522 2.56467,-2.12849 3.50334,-0.0115 3.50334,7.90126 0,6.46675 0.33256,8.08696 1.96275,9.56226 4.02808,3.64536 4.95271,1.59406 5.25612,-11.66079 0.24654,-10.77016 0.49644,-12.32243 2.03113,-12.61665 1.58623,-0.3041 1.75143,0.77096 1.76531,11.48783 0.0179,13.82537 0.62753,15.54562 4.70959,13.28963 2.52449,-1.39519 2.80248,-2.11418 3.07831,-7.96166 0.46312,-9.81797 3.87749,-12.73519 4.39453,-3.75465 l 0.30226,5.25 3.75,-0.2201 c 3.07025,-0.1802 3.75,0.11762 3.75,1.64301 0,1.02471 -0.675,2.12213 -1.5,2.43872 -2.76713,1.06184 -1.57417,4.08721 2.53762,6.43545 4.06385,2.32085 4.46861,4.20292 0.90388,4.20292 -1.06725,0 -4.13238,-1.2238 -6.81141,-2.71955 -4.23876,-2.36659 -5.21223,-2.56405 -7.50052,-1.52144 -1.44626,0.65896 -2.62957,1.85847 -2.62957,2.66558 0,0.80711 4.72598,4.30132 10.50218,7.76491 5.7762,3.46359 10.35141,6.75037 10.16713,7.30397 -0.7428,2.23151 -3.73199,1.32583 -13.06061,-3.95718 -5.37673,-3.04496 -10.15794,-5.53629 -10.6249,-5.53629 -1.46265,0 -2.14295,3.83411 -1.04448,5.88661 0.57756,1.07919 3.75249,3.60377 7.0554,5.61018 3.3029,2.00641 6.00528,4.07956 6.00528,4.607 0,2.26845 -3.30625,1.86777 -8.33658,-1.01029 -2.97378,-1.70143 -6.33234,-3.0935 -7.46348,-3.0935 -2.33313,0 -14.19994,6.77274 -14.19994,8.10433 0,0.8219 3.28046,3.0896 10.79742,7.46401 l 3.29742,1.9189 6.79737,-3.71735 c 5.85012,-3.19932 7.04611,-3.53548 8.58222,-2.41224 1.61639,1.18193 1.22991,1.61518 -4.09479,4.59043 -3.2338,1.80693 -6.66714,3.97755 -7.62964,4.82361 -2.03516,1.78895 -2.34337,6.78664 -0.46302,7.50819 0.70783,0.27162 5.93366,-2.1216 11.61296,-5.31828 9.13747,-5.14316 13.10006,-6.36031 13.10006,-4.0238 0,0.39811 -4.70622,3.38746 -10.45827,6.64302 -5.75205,3.25555 -10.724,6.57569 -11.04878,7.37808 -0.60909,1.50482 2.99851,4.97803 5.21304,5.01886 0.6633,0.0122 3.4956,-1.32776 6.29401,-2.97776 5.48366,-3.23328 6.55717,-3.52554 7.47786,-2.03582 0.32774,0.53029 -1.2207,2.11094 -3.44098,3.51254 -4.28269,2.70354 -4.97973,4.49589 -2.53688,6.52328 0.825,0.68469 1.5,1.8257 1.5,2.53558 0,1.02331 -0.6308,1.05259 -3.04499,0.14134 -3.82544,-1.44395 -4.91792,-0.0566 -4.9397,6.27308 -0.0227,6.59955 -1.72138,3.67888 -2.23009,-3.83438 -0.46578,-6.8792 -2.05469,-9.11562 -6.47635,-9.11562 -2.23507,0 -2.30922,0.27967 -2.31988,8.75 -0.0125,9.91363 -0.83905,16.25002 -2.11983,16.25002 -0.47804,0 -0.86916,-3.53721 -0.86916,-7.86045 0,-16.30586 -1.34155,-19.39035 -6.77749,-15.58287 -1.98279,1.3888 -2.22251,2.42246 -2.22251,9.58334 0,5.97455 -0.31957,7.92121 -1.25,7.61429 -0.77101,-0.25433 -1.34863,-2.68124 -1.5074,-6.33333 -0.4116,-9.46802 -0.66973,-9.9285 -7.80119,-13.91664 -8.8957,-4.97476 -9.59346,-4.54249 -9.23211,5.7193 l 0.2907,8.2552 5,3.20933 c 6.53371,4.19376 7.66571,5.23467 6.95079,6.39143 -0.33102,0.5356 -3.64961,-0.70622 -7.50917,-2.80994 -6.60708,-3.60129 -7.03911,-3.70114 -9.67174,-2.23531 -4.98792,2.77725 -4.03867,4.28806 6.64478,10.57575 5.50409,3.2394 10.02497,6.4524 10.04639,7.1399 0.0536,1.7187 -0.44529,1.6006 -4.76792,-1.1281 -5.80516,-3.6646 -15.96165,-8.6219 -17.66461,-8.6219 -1.13251,0 -1.52852,1.1053 -1.52852,4.2663 0,4.106 0.20682,4.3901 5.5,7.5561 3.025,1.8093 5.5,3.7145 5.5,4.2336 0,1.4191 -1.18127,1.1419 -4.5,-1.056 -4.33262,-2.8694 -6.43493,-2.5754 -7.15,1 -0.729905,3.6495 -2.35,3.9726 -2.35,0.4686 z m 7.26787,-27.00467 3.73213,-2.53605 0,-12.57094 c 0,-14.59319 -1.29035,-13.99863 12.61711,-5.81366 l 9.35392,5.50507 5.01448,-2.54103 5.01449,-2.54103 0,-5.89178 0,-5.89177 -11.07868,-6.22699 c -9.12193,-5.12715 -10.84401,-6.45496 -9.75,-7.51779 0.73077,-0.70995 5.37868,-3.618 10.32868,-6.46233 4.95,-2.84433 9.33061,-5.68995 9.73469,-6.32358 0.40408,-0.63364 0.74158,-3.04167 0.75,-5.35118 0.0131,-3.58643 -0.45889,-4.54972 -3.23469,-6.60212 -5.64067,-4.17064 -6.16243,-4.09875 -17.42183,2.40041 -5.87238,3.38967 -10.92365,5.70534 -11.40194,5.22705 -0.47229,-0.47229 -0.98641,-6.2345 -1.14247,-12.80491 L 107.5,904.93731 l -3.39788,-2.28757 c -4.258619,-2.86703 -5.945621,-2.86703 -10.204237,0 L 90.5,904.93731 90.216242,916.8835 c -0.156066,6.57041 -0.674641,12.33708 -1.152389,12.81483 -0.491508,0.4915 -5.414367,-1.78837 -11.338874,-5.25125 -11.222888,-6.55981 -11.735528,-6.6298 -17.474979,-2.38613 -2.809803,2.07754 -3.25,2.99873 -3.25,6.80123 0,5.06246 1.078767,6.0922 14.237735,13.59072 4.255755,2.42511 7.743255,4.69931 7.75,5.05378 0.0067,0.35448 -4.600235,3.24378 -10.237735,6.42067 -5.6375,3.17689 -10.580609,6.26186 -10.984687,6.8555 -0.404078,0.59363 -0.741578,3.14709 -0.75,5.67434 -0.01655,4.96575 1.039941,6.42539 6.741048,9.31337 l 3.256361,1.64956 9.362045,-5.50986 C 90.292512,963.71923 89,963.12235 89,977.74063 l 0,12.59243 3.75,2.45573 c 4.833412,3.1652 7.90133,3.17436 12.51787,0.0373 z M 97.6875,985.71635 C 97.309375,985.33822 97,978.11472 97,969.66413 c 0,-12.69167 -0.259313,-15.46423 -1.490534,-15.93669 -0.839206,-0.32203 -7.413042,2.76444 -15.043919,7.06326 -7.454362,4.19937 -13.983622,7.36933 -14.509466,7.04434 -2.431429,-1.50271 -0.01119,-3.62185 12.571512,-11.00751 8.730545,-5.12456 13.428061,-8.4571 13.246916,-9.39771 -0.154372,-0.80159 -5.904288,-4.72376 -12.777592,-8.71594 -13.097995,-7.60763 -15.268457,-9.48016 -13.28618,-11.46244 0.887712,-0.88771 4.318838,0.66643 14.384593,6.51555 7.270344,4.22474 13.935627,7.54292 14.811739,7.37374 1.368121,-0.26419 1.618461,-2.54682 1.773825,-16.17397 0.185812,-16.29767 0.831915,-19.08373 3.845606,-16.58259 1.37458,1.1408 1.57507,3.59095 1.36489,16.68013 -0.13616,8.47955 0.16852,15.74509 0.68112,16.242 0.55595,0.53893 6.33533,-2.26376 14.42749,-6.99658 7.425,-4.34262 14.01436,-7.90735 14.64301,-7.92161 0.62866,-0.0143 1.40113,0.64671 1.7166,1.46883 0.72337,1.88505 -1.99787,3.90825 -15.92917,11.84305 -6.00237,3.41876 -11.0323,6.87883 -11.17763,7.68905 -0.17104,0.95355 4.49933,4.26314 13.24148,9.38337 12.49998,7.32119 15.01834,9.53688 12.56384,11.05385 -0.51803,0.32016 -6.93053,-2.81358 -14.25,-6.96386 -7.31947,-4.15028 -13.98313,-7.41779 -14.80813,-7.26113 -1.23299,0.23413 -1.589,3.11626 -2,16.1914 -0.46604,14.82604 -1.145215,18.09096 -3.3125,15.92368 z"
         id="path14434"
         inkscape:connector-curvature="0" />
      <path
         style="fill:#3a84c1"
         d="m 87,986.66842 c 0,-6.95067 -1.241321,-13.46161 -2.671078,-14.01026 -0.756282,-0.29021 -4.733778,1.11012 -8.838881,3.11186 -5.998488,2.92499 -7.581731,4.17476 -8.064403,6.36584 -1.005779,4.56571 -1.26437,4.86227 -1.346691,1.54441 -0.13559,-5.46486 -8.571549,-9.73551 -10.998848,-5.56809 -0.970744,1.66667 -1.02073,1.66667 -1.04969,0 -0.01917,-1.10333 -0.808993,-1.75 -2.137398,-1.75 -1.462036,0 -1.930795,-0.45915 -1.531385,-1.5 1.051649,-2.74055 -0.499808,-4.43608 -7.713266,-8.42955 C 38.716762,964.25604 34.6,961.73937 33.5,960.84002 c -1.877342,-1.53489 6.362322,2.71829 13,6.71039 5.781621,3.47725 8.290104,1.83692 7.077293,-4.62792 -0.552182,-2.94338 -1.564917,-3.94049 -7.206759,-7.09559 -4.451475,-2.4894 -6.236795,-3.99846 -5.546791,-4.68846 0.690004,-0.69001 3.026891,0.20313 7.260448,2.77488 l 6.242946,3.79239 5.34614,-2.89194 c 2.940377,-1.59057 6.533185,-3.83846 7.984018,-4.99531 l 2.637878,-2.10337 -2.100146,-1.92646 c -1.15508,-1.05955 -4.58695,-3.2555 -7.626377,-4.8799 l -5.526231,-2.95345 -7.003333,3.38799 c -3.851833,1.8634 -7.345129,3.0462 -7.762879,2.62845 -0.41775,-0.41775 -0.0883,-1.15303 0.732123,-1.63396 9.285464,-5.44311 11.496499,-7.54742 11.802035,-11.23238 0.26634,-3.21223 0.01844,-3.7432 -1.747621,-3.7432 -1.131892,0 -6.153973,2.27435 -11.160179,5.0541 -10.847053,6.02296 -15.517132,6.31458 -6.214868,0.38809 3.403233,-2.1682 8.240733,-5.16861 10.75,-6.66757 5.312771,-3.17369 5.733527,-5.1176 1.573346,-7.26891 -2.850104,-1.47385 -3.273932,-1.40179 -9.123342,1.55098 -6.932044,3.49928 -10.334488,2.68676 -3.897854,-0.93083 4.447872,-2.49984 5.250572,-5.39164 1.982145,-7.14085 -2.950721,-1.57918 -1.358183,-3.14809 2.467069,-2.43046 2.847705,0.53423 3.366021,0.30622 3.908365,-1.71932 0.343896,-1.28438 0.631409,-3.83523 0.638919,-5.66856 0.0091,-2.21618 0.432589,-3.19481 1.263655,-2.92001 0.806294,0.26661 1.35427,2.95734 1.543748,7.58027 0.279553,6.82063 0.438019,7.24156 3.279368,8.71088 1.64209,0.84916 3.422404,1.27398 3.956252,0.94404 C 52.575971,916.50621 53,910.59076 53,903.30316 c 0,-7.11754 0.3949,-12.94098 0.877555,-12.94098 2.277365,0 3.076114,3.48347 3.339086,14.56227 0.268427,11.30864 0.388755,11.9198 2.283359,11.59748 4.401717,-0.74885 5.5,-3.00827 5.5,-11.31474 0,-4.31475 0.36,-7.84501 0.8,-7.84501 2.225,0 3.2,2.94056 3.2,9.65106 l 0,7.25106 6.3461,3.54894 C 84.7698,923.08327 85,922.96638 85,912.91112 l 0,-8.45106 -6.5,-3.635 C 73.220099,897.87237 72,896.72379 72,894.70607 l 0,-2.48398 7.589783,4.18965 c 6.618853,3.65369 7.907221,4.04502 10.071205,3.05904 4.167991,-1.89906 2.351667,-4.29519 -7.916373,-10.44341 C 74.841583,884.89402 72,882.63407 72,881.27737 c 0,-1.05336 0.298158,-1.91519 0.662574,-1.91519 0.364416,0 5.570708,2.75871 11.569538,6.13046 11.465054,6.44415 13.214557,6.6216 12.596066,1.27761 -0.256629,-2.21737 -1.466666,-3.49754 -5.550142,-5.87182 -2.872081,-1.66994 -5.474333,-3.674 -5.782783,-4.45347 -1.06518,-2.69176 1.178857,-3.25166 4.621239,-1.15301 4.692676,2.86089 6.681702,2.66957 7.067086,-0.67977 0.388419,-3.37572 3.180082,-3.71192 3.643982,-0.43885 0.46758,3.29897 2.61926,3.71278 6.72117,1.2926 4.42267,-2.60944 5.45127,-2.63697 5.45127,-0.1459 0,1.28994 -1.62042,2.8792 -4.75,4.65867 -6.95807,3.95633 -8.621229,6.66856 -6.31937,10.30547 0.72877,1.15146 2.99686,0.24776 11.92142,-4.75 6.06178,-3.39459 11.27489,-6.17199 11.58468,-6.17199 0.3098,0 0.56327,0.87406 0.56327,1.94236 0,1.3925 -2.7563,3.58645 -9.73645,7.75 -5.35506,3.1942 -9.8726,6.51491 -10.039,7.37936 -0.17471,0.90765 0.80858,2.07798 2.32725,2.76993 2.35171,1.07151 3.41321,0.76574 10.03899,-2.89177 L 126,892.22209 l 0,2.54436 c 0,1.86673 -0.86557,2.98215 -3.25,4.1881 -1.7875,0.90406 -4.7125,2.73852 -6.5,4.07658 -3.16021,2.36562 -3.25,2.6395 -3.25,9.91333 0,5.67691 0.35631,7.61722 1.47781,8.04758 0.8128,0.3119 4.4128,-1.07425 8,-3.08033 L 129,914.2643 l 0,-7.25106 c 0,-6.7105 0.975,-9.65106 3.2,-9.65106 0.44,0 0.8,3.27487 0.8,7.27749 0,8.27011 1.6365,11.72251 5.5567,11.72251 l 2.4433,0 0,-11.8 c 0,-11.19896 0.67629,-14.2 3.2,-14.2 0.44,0 0.8,5.82344 0.8,12.94098 0,7.2876 0.42403,13.20305 0.97063,13.54087 0.53385,0.32994 2.33385,-0.10506 4,-0.96666 2.89012,-1.49454 3.02937,-1.85852 3.02937,-7.91843 0,-4.42616 0.45476,-6.72929 1.5,-7.59676 1.28261,-1.06448 1.50198,-0.75614 1.51365,2.12755 0.008,1.85485 0.29503,4.4233 0.63892,5.70768 0.54235,2.02554 1.06066,2.25355 3.90837,1.71932 3.82525,-0.71763 5.41779,0.85128 2.46707,2.43046 -3.22896,1.72808 -2.43058,4.42045 2.05907,6.94377 6.10265,3.42989 3.48593,4.90202 -2.93228,1.64966 -2.79857,-1.41814 -6.14226,-2.57844 -7.43043,-2.57844 -3.12808,0 -6.18929,2.34605 -5.47842,4.19855 0.314,0.81827 5.10404,4.14585 10.64454,7.39461 5.54049,3.24876 10.0817,6.24434 10.09157,6.65684 0.0401,1.67662 -3.14377,0.48501 -12.46364,-4.6647 -5.38969,-2.97808 -10.41121,-5.17994 -11.15893,-4.89301 -0.78064,0.29956 -1.35949,1.98327 -1.35949,3.95438 0,3.13316 0.56717,3.79428 6.5,7.57663 6.0861,3.88007 7.88252,5.7767 5.47148,5.7767 -0.56568,0 -3.70285,-1.35 -6.97148,-3 -3.26863,-1.65 -6.42573,-3 -7.01578,-3 -2.5232,0 -13.98422,7.51407 -13.98422,9.16834 0,1.09646 2.62643,3.30268 7.08505,5.9515 l 7.08506,4.20915 6.83807,-3.69339 c 8.16488,-4.41005 10.42821,-3.17634 2.49733,1.36125 -7.33907,4.19899 -8.50551,5.51635 -8.50551,9.60596 0,6.07318 1.70483,5.84733 16,-2.11967 3.575,-1.99243 5.6,-2.89078 4.5,-1.99635 -1.1,0.89443 -5.22969,3.41421 -9.17709,5.59952 -5.79465,3.20796 -7.30275,4.5454 -7.82945,6.94349 -0.35881,1.63361 -1.29162,2.9702 -2.07292,2.9702 -0.78129,0 -1.43485,0.7875 -1.45234,1.75 -0.0303,1.66667 -0.0951,1.66667 -1.36025,0 -1.71267,-2.25616 -3.35292,-2.20287 -7.35795,0.23904 -2.34383,1.42906 -3.27515,2.75242 -3.34019,4.74626 -0.0893,2.73723 -0.0994,2.73273 -1.02027,-0.45318 -0.77475,-2.68047 -2.12749,-3.80779 -8.09979,-6.75 -3.94334,-1.94267 -7.71108,-3.53212 -8.37274,-3.53212 -1.84393,0 -2.41063,2.46791 -2.4873,10.83179 -0.0478,5.2131 -0.34544,7.02788 -0.92971,5.66821 -0.94246,-2.19322 -1.34156,-22.5 -0.4422,-22.5 0.30678,0 4.85365,2.7 10.10414,6 5.25049,3.3 10.11781,6 10.81625,6 0.69845,0 3.37102,-1.17434 5.93905,-2.60963 l 4.66914,-2.60964 -0.29319,-6.6309 -0.29319,-6.63091 -10.47998,-5.6994 c -5.76399,-3.13467 -10.58875,-6.06393 -10.72169,-6.50946 -0.13294,-0.44553 4.47056,-3.49026 10.22998,-6.76605 L 141,934.9502 l 0,-5.75796 c 0,-5.52906 -0.14836,-5.85877 -3.73213,-8.29401 -2.05268,-1.39483 -4.57228,-2.53605 -5.59912,-2.53605 -1.02684,0 -6.07237,2.475 -11.21228,5.5 -5.13992,3.025 -9.82031,5.5 -10.40089,5.5 -0.67958,0 -1.05558,-4.09629 -1.05558,-11.5 0,-12.61381 -0.39788,-13.58591 -6.94682,-16.9725 -2.781716,-1.43848 -3.324644,-1.43848 -6.106361,0 C 89.39788,904.27627 89,905.24837 89,917.86218 c 0,6.34075 -0.413108,11.5 -0.92082,11.5 -0.506451,0 -5.207594,-2.475 -10.446985,-5.5 -5.239391,-3.025 -10.345561,-5.5 -11.347046,-5.5 -1.001484,0 -3.521877,1.15586 -5.600872,2.56857 -3.710682,2.52147 -3.774531,2.67275 -3.482135,8.25 l 0.297858,5.68143 10.219763,6 c 5.62087,3.3 10.23337,6.30253 10.25,6.67229 0.01663,0.36976 -4.645974,3.18059 -10.361344,6.24628 -5.715369,3.06568 -10.665369,6.28746 -11,7.15949 C 56.273789,961.81227 56,964.92548 56,967.85847 c 0,5.3025 0.02622,5.34737 4.625953,7.91822 2.544274,1.42202 5.197408,2.58549 5.895854,2.58549 0.698445,0 5.565759,-2.7 10.816252,-6 5.250493,-3.3 10.024342,-6 10.608554,-6 0.725834,0 0.858505,3.72089 0.418956,11.75 C 87.725564,989.80296 87,994.34912 87,986.66842 Z m 11.75,-1.88174 c -0.4125,-0.41681 -0.756145,-6.87033 -0.763655,-14.34117 -0.01484,-14.76797 -0.490531,-18.08333 -2.594583,-18.08333 -0.756236,0 -6.899417,3.12409 -13.651512,6.94241 -14.493343,8.19603 -15.742496,8.74499 -15.733813,6.91458 0.0035,-0.74635 5.422917,-4.50699 12.04306,-8.35699 15.415572,-8.96506 15.379755,-8.939 14.705423,-10.69628 -0.313522,-0.81703 -6.686637,-4.98811 -14.16248,-9.26907 -12.338239,-7.06536 -16.293769,-10.53465 -12.011153,-10.53465 0.869708,0 7.387275,3.375 14.483482,7.5 7.096207,4.125 13.584627,7.5 14.418713,7.5 1.295886,0 1.516518,-2.47326 1.516518,-17 0,-16.33333 0.07843,-17 2,-17 1.91935,0 2,0.66667 2,16.53138 0,13.43308 0.26873,16.63451 1.43384,17.08161 0.78862,0.30262 7.28046,-2.86151 14.42632,-7.03139 7.14586,-4.16988 13.73363,-7.5816 14.63948,-7.5816 4.2266,0 -0.0998,3.75919 -12.49388,10.8558 -7.42182,4.24961 -13.6214,8.3869 -13.77683,9.19399 -0.18329,0.95172 4.46747,4.27593 13.23342,9.45882 7.43382,4.39526 13.5209,8.60203 13.52684,9.34838 0.0146,1.83242 -1.23381,1.28274 -15.81904,-6.96525 -6.80138,-3.84619 -12.88454,-6.82213 -13.51814,-6.61318 -0.7496,0.24719 -1.50132,6.06036 -2.15201,16.64183 -0.55,8.94407 -1.3375,15.92092 -1.75,15.50411 z"
         id="path14432"
         inkscape:connector-curvature="0" />
      <path
         style="fill:#3682bd"
         d="m 98.755994,971.36218 c -0.409204,-4.675 -0.746704,-10.65162 -0.75,-13.28138 -0.0045,-3.56299 -0.436679,-4.94666 -1.696141,-5.42996 -1.078779,-0.41397 -6.639334,1.94859 -15.372363,6.53139 -7.525219,3.94897 -14.009873,7.17995 -14.410342,7.17995 -0.985954,0 7.633126,-5.75451 17.980147,-12.00441 C 89.911213,951.09365 93,948.59916 93,947.49909 c 0,-1.15864 -3.71049,-3.82925 -11.25,-8.09712 -14.901153,-8.43507 -17.151972,-10.03782 -15.881215,-11.30858 0.697166,-0.69716 5.305075,1.41175 14.470958,6.62296 13.312548,7.56877 16.587052,8.81999 16.73819,6.39583 0.04286,-0.6875 0.155363,-8.225 0.25,-16.75 0.144699,-13.03464 0.410651,-15.5 1.672067,-15.5 1.26272,0 1.54337,2.64963 1.77418,16.75 0.25422,15.53082 0.40881,16.75 2.12388,16.75 1.01733,0 7.63288,-3.375 14.70122,-7.5 7.06833,-4.125 13.17353,-7.5 13.5671,-7.5 0.39357,0 0.99062,0.44502 1.32678,0.98893 0.66678,1.07888 -3.08621,3.60836 -17.82076,12.01107 -5.94178,3.38843 -9.64987,6.12405 -9.65846,7.12546 -0.009,0.99679 4.14386,4.18299 10.73606,8.23794 14.17905,8.72172 17.83683,11.76864 8.75,7.2887 -3.85,-1.8981 -9.85573,-5.07132 -13.34607,-7.0516 -5.31963,-3.01814 -9.66761,-4.4325 -10.30006,-3.3505 -0.0804,0.1375 -0.41787,6.325 -0.75,13.75 l -0.60387,13.5 -0.744006,-8.5 z M 87,974.9286 c 0,-2.95044 -0.366051,-3.4781 -2.60147,-3.75 l -2.601469,-0.31642 3.101469,-2.27994 3.10147,-2.27993 0,6.02993 c 0,3.31647 -0.225,6.02994 -0.5,6.02994 -0.275,0 -0.5,-1.54511 -0.5,-3.43358 z m 23.7428,-1.97982 c -0.41213,-2.70237 -0.53691,-5.12583 -0.27727,-5.38546 0.25963,-0.25963 1.7236,0.37108 3.25326,1.40158 2.67589,1.80269 2.69823,1.8859 0.58996,2.19731 -1.64525,0.24302 -2.26917,1.11809 -2.50393,3.51182 -0.26889,2.74164 -0.41763,2.50002 -1.06202,-1.72525 z m -56.598553,-11.0866 c -0.08353,-2.71233 0.677295,-3.46586 7.934176,-7.85818 5.516123,-3.3387 7.928049,-5.3697 7.711595,-6.49365 -0.173231,-0.89952 -3.520503,-3.58618 -7.438382,-5.97037 l -7.123418,-4.33488 -4.148172,2.11624 C 45.983707,941.9213 42,943.4684 42,942.84764 c 0,-0.25577 2.475,-2.10834 5.5,-4.11683 5.098157,-3.38498 5.5,-3.93599 5.5,-7.5416 0,-5.08421 -1.685061,-5.62542 -7.466028,-2.39794 -2.543724,1.42015 -6.291982,3.25731 -8.329462,4.0826 L 33.5,934.37438 36,932.37914 c 1.375,-1.09738 4.879952,-3.45578 7.788783,-5.24089 5.976367,-3.66762 6.553718,-6.17842 2.005784,-8.72283 -2.527227,-1.41389 -3.078498,-1.33062 -8.369114,1.26414 -6.578487,3.22639 -8.011988,3.02111 -2.954695,-0.42312 4.064051,-2.7678 4.466331,-5.02032 1.279242,-7.16298 -2.771777,-1.86344 -1.737976,-3.3304 1.228276,-1.74291 C 40.316717,912.13723 42,910.04784 42,904.11729 c 0,-4.33106 0.200681,-4.83345 1.5,-3.75511 1.04536,0.86757 1.5,3.1709 1.5,7.59939 0,5.6694 0.268701,6.53056 2.49228,7.98751 4.746381,3.10995 5.42069,1.69161 5.727522,-12.04719 0.368209,-16.48705 2.118899,-16.56928 2.780198,-0.13058 0.275,6.836 0.803588,12.73158 1.174639,13.10129 0.913513,0.9102 4.470584,-0.2985 6.319441,-2.14736 C 64.584693,913.63463 65,911.00978 65,905.20742 c 0,-5.96277 0.319701,-7.90645 1.25,-7.59957 0.771006,0.25433 1.348635,2.68124 1.507401,6.33333 0.416541,9.58172 0.651799,9.98773 8.413936,14.52107 6.816768,3.9812 7.216499,4.09002 8.512714,2.31734 0.748044,-1.02301 1.125151,-2.47224 0.838015,-3.2205 C 85.23493,916.81082 85,913.58567 85,910.39209 l 0,-5.80652 -6.5,-4.07548 c -3.575,-2.24152 -6.5,-4.76678 -6.5,-5.6117 0,-2.23784 1.212117,-1.93518 7.864688,1.96379 6.833333,4.00491 8.060132,4.19121 11.145739,1.69264 1.98879,-1.61042 2.067757,-1.9716 0.724711,-3.31465 -0.829006,-0.829 -5.608551,-3.89426 -10.621211,-6.81168 C 74.738989,884.7182 72,882.5588 72,881.24313 c 0,-1.03452 0.241422,-1.88095 0.536494,-1.88095 0.295072,0 5.329578,2.71572 11.187792,6.03493 5.858214,3.31921 11.241792,5.80833 11.963506,5.53138 C 96.409507,890.65154 97,889.05524 97,887.38114 c 0,-2.59633 -0.808559,-3.56103 -5.5,-6.56211 -3.759477,-2.40491 -5.5,-4.17276 -5.5,-5.58636 l 0,-2.06804 3.55716,2.09877 c 4.974705,2.93515 7.235978,2.74206 7.626418,-0.65122 0.420419,-3.65383 3.212422,-3.65383 3.632842,0 0.38708,3.36403 2.7362,3.603 7.40941,0.75374 4.05691,-2.4735 4.77417,-2.49514 4.77417,-0.14402 0,1.20427 -2.02657,3.05462 -5.75,5.25 -4.90803,2.89384 -5.79596,3.86718 -6.06387,6.64715 -0.20991,2.17811 0.17773,3.44552 1.17031,3.82641 0.82443,0.31637 6.16367,-2.13156 12.01119,-5.50687 5.78985,-3.34203 10.77571,-6.07641 11.07969,-6.07641 0.30397,0 0.55268,0.86419 0.55268,1.92042 0,1.37917 -2.82875,3.56317 -10.03689,7.7492 -7.93085,4.60573 -9.9767,6.24439 -9.75,7.80946 0.15779,1.08937 1.45474,2.3896 2.88212,2.88941 2.13747,0.74845 3.69028,0.26694 8.80358,-2.72988 6.89002,-4.03813 8.10119,-4.35245 8.10119,-2.1024 0,0.84492 -2.925,3.37018 -6.5,5.6117 l -6.5,4.07548 0,8.32929 c 0,4.58111 0.44615,8.60502 0.99144,8.94203 1.08135,0.66831 13.51953,-5.93107 14.74966,-7.8258 0.41739,-0.6429 0.9839,-4.50852 1.2589,-8.59026 0.31449,-4.66795 0.96376,-7.5742 1.75,-7.83333 0.93027,-0.30661 1.25,1.63733 1.25,7.59992 0,8.43252 0.83338,10.33233 5.13077,11.69626 3.27153,1.03835 3.83723,-0.98604 3.85392,-13.7915 0.0127,-9.77097 0.26795,-11.75 1.51531,-11.75 1.25641,0 1.5,2.11111 1.5,13 0,14.01385 0.23023,14.5271 5.31574,11.8503 3.25144,-1.71143 3.65219,-2.76005 3.66895,-9.6003 0.009,-3.48979 0.45694,-6.25 1.01531,-6.25 0.55,0 1,1.9699 1,4.37755 0,5.2951 1.81742,7.32572 5.02172,5.61082 2.96626,-1.58749 4.00006,-0.12053 1.22828,1.74291 -3.12494,2.10088 -2.82128,3.7312 1.27722,6.85728 1.93997,1.47969 3.34357,2.87398 3.11911,3.09844 -0.22446,0.22446 -2.95676,-0.84187 -6.07178,-2.36962 -5.29062,-2.59476 -5.84189,-2.67803 -8.36912,-1.26414 -4.53703,2.53831 -3.95997,5.0286 2.00977,8.67315 2.90664,1.77452 6.4098,4.14062 7.7848,5.258 l 2.5,2.03161 -3,-1.28602 c -1.65,-0.70731 -5.34754,-2.51091 -8.21676,-4.008 -6.2697,-3.27138 -6.89364,-3.31847 -8.33309,-0.62884 -1.92606,3.59888 -0.29106,6.41946 6.28379,10.84036 6.45012,4.33703 4.79422,4.58029 -3.34372,0.4912 l -4.60979,-2.31629 -4.89021,2.5814 C 131.50069,943.68876 128,946.29014 128,947.77301 c 0,0.70106 3.7125,3.63482 8.25,6.51947 4.5375,2.88465 7.125,4.92862 5.75,4.54215 -3.40449,-0.95689 -20.37711,-10.0863 -20.69615,-11.13226 -0.14095,-0.46211 4.34553,-3.54019 9.96994,-6.84019 9.96719,-5.84803 10.2343,-6.0989 10.5458,-9.90468 0.50634,-6.18645 -0.49081,-8.38694 -4.79575,-10.58316 -2.16929,-1.10669 -4.68204,-2.01216 -5.58388,-2.01216 -0.90185,0 -6.01093,2.475 -11.35352,5.5 -5.34259,3.025 -10.00879,5.5 -10.36934,5.5 -0.36055,0 -0.78189,-5.49625 -0.93632,-12.21389 L 108.5,904.9344 l -4.30086,-2.88637 c -3.89817,-2.61611 -4.580814,-2.7704 -7.290925,-1.64783 -1.644538,0.68119 -4.096651,2.10896 -5.449142,3.17283 C 89.092537,905.43455 89,905.95618 89,917.43476 c 0,6.56008 -0.360608,11.92742 -0.801351,11.92742 -0.440743,0 -4.98975,-2.475 -10.108906,-5.5 -5.119156,-3.025 -10.176475,-5.5 -11.238488,-5.5 -2.787212,0 -9.496716,3.6337 -10.22792,5.53919 -0.789357,2.05703 -0.807878,7.81632 -0.03164,9.83916 0.325431,0.84806 5.057781,4.12532 10.516333,7.28279 5.458552,3.15747 9.776777,6.18445 9.596056,6.72661 -0.180722,0.54217 -5.025572,3.38847 -10.766334,6.32511 -8.604041,4.40134 -10.548723,5.81789 -11.069433,8.06325 l -0.631687,2.72389 -0.09238,-3 z"
         id="path14430"
         inkscape:connector-curvature="0" />
      <path
         style="fill:#1f74b5"
         d="m 99.149342,959.36218 c -0.442724,-8.77171 -2.396969,-9.83509 -10.04261,-5.46456 -2.416297,1.38125 -4.60201,2.30262 -4.85714,2.04749 -0.255129,-0.25513 1.827858,-1.72816 4.628861,-3.2734 8.06498,-4.44924 7.415929,-5.53188 -8.878453,-14.80953 -7.7,-4.3842 -14,-8.5518 -14,-9.26132 0,-1.5533 1.130204,-1.00631 17.103221,8.27739 6.204503,3.60613 11.981985,6.42026 12.838847,6.25361 1.332961,-0.25923 1.571732,-2.75544 1.653497,-17.28633 0.07805,-13.87067 0.352967,-16.98335 1.5,-16.98335 1.142505,0 1.426345,2.98408 1.521895,16 0.1427,19.43727 0.0473,18.5 1.88337,18.5 0.82545,0 7.68311,-3.61454 15.23923,-8.03231 7.59509,-4.44055 13.90159,-7.54275 14.10334,-6.9375 0.46325,1.38977 1.71958,0.5188 -13.32728,9.23934 -14.58038,8.45019 -16.18959,10.03811 -12.73092,12.56254 6.258,4.56761 6.82119,5.31124 2.38938,3.1549 -6.34409,-3.08677 -7.56526,-2.49231 -8.261583,4.0217 -0.426215,3.98718 -0.635391,4.53263 -0.763655,1.99133 z M 71,947.99781 c 0,-1.80559 -1.500069,-3.20758 -6.75,-6.30866 -3.7125,-2.19294 -7.51317,-4.26516 -8.445932,-4.60494 -1.244184,-0.45321 -1.776928,-2.0301 -2,-5.9199 -0.289556,-5.04908 -0.434767,-5.30029 -3.042598,-5.2636 -1.804503,0.0254 -2.401373,-0.29863 -1.75,-0.95 2.305928,-2.30593 1.031098,-5.40419 -2.985672,-7.25617 -3.659393,-1.68721 -4.719021,-3.24168 -3.975732,-5.83236 0.1578,-0.55 0.59773,-3.25 0.977623,-6 0.673824,-4.87773 0.694158,-4.82333 0.831513,2.22432 0.135053,6.92953 0.261187,7.28657 3.091138,8.75 3.769148,1.9491 5.679585,1.93246 6.442671,-0.0561 C 53.726855,915.91041 54,909.80885 54,903.22138 c 0,-7.73018 0.354594,-11.75808 1,-11.3592 0.579962,0.35844 1,5.84372 1,13.05902 l 0,12.44098 2.389216,0 c 4.90768,0 6.547664,-2.75659 6.841726,-11.5 0.150918,-4.48729 0.708146,-8 1.269058,-8 0.55,0 1.225,3.67693 1.5,8.17095 0.275,4.49403 0.725,8.36413 1,8.60022 2.485344,2.13371 13.621324,7.75644 14.884492,7.51541 1.292467,-0.24663 1.674251,-1.87477 1.909279,-8.14222 0.339256,-9.04692 0.04172,-9.59137 -7.597566,-13.90272 -4.986342,-2.81412 -7.150262,-5.12092 -5.939503,-6.33167 0.277078,-0.27708 3.407541,1.09232 6.956584,3.04312 7.067618,3.88485 9.280842,4.24364 12.264631,1.98821 2.870244,-2.1696 1.481594,-3.68125 -9.41706,-10.25119 -8.598947,-5.18362 -11.959543,-8.19011 -9.154753,-8.19011 0.590024,0 5.503799,2.475 10.919501,5.5 C 95.841487,892.57378 97,892.71214 97,887.43557 c 0,-3.71143 -0.301399,-4.09905 -5.5,-7.07339 -3.025,-1.73073 -5.5,-3.78876 -5.5,-4.57339 0,-1.84743 0.328691,-1.80973 5,0.57339 5.206582,2.6562 5.941706,2.54147 6.657813,-1.03906 0.654759,-3.2738 2.622797,-3.5071 3.189247,-0.37807 0.6318,3.48992 1.93181,3.71171 6.56796,1.12052 3.07238,-1.71719 4.78418,-2.19009 5.24262,-1.44832 0.37439,0.60577 -0.18292,1.71524 -1.23847,2.46549 -1.05554,0.75026 -3.83167,2.69787 -6.16917,4.32804 -3.62345,2.52699 -4.25,3.479 -4.25,6.45767 0,4.82816 1.56435,4.59176 13.27621,-2.00627 5.36954,-3.025 10.24152,-5.5 10.82663,-5.5 2.76217,0 -0.55604,3.0005 -9.08857,8.21835 -11.7599,7.19147 -11.81101,7.24378 -9.53565,9.75802 2.55599,2.82434 4.90404,2.5465 12.15301,-1.43803 4.32661,-2.3782 6.51822,-3.10489 7.00222,-2.32177 0.75292,1.21825 -0.41019,2.22427 -7.88385,6.81908 l -4.75,2.9203 0,9.02203 c 0,7.56011 0.2563,9.02202 1.58174,9.02202 1.85064,0 13.57713,-6.6902 14.65295,-8.3598 0.40408,-0.62711 0.74158,-4.4027 0.75,-8.3902 0.0122,-5.77097 0.32132,-7.25 1.51531,-7.25 1.20744,0 1.5,1.54925 1.5,7.9433 0,7.07475 0.24301,8.11351 2.22251,9.5 1.22237,0.85618 3.24737,1.5567 4.5,1.5567 2.24795,0 2.27749,-0.16139 2.27749,-12.44098 0,-7.2153 0.42004,-12.70058 1,-13.05902 0.64721,-0.4 1,4.00008 1,12.47237 0,14.87599 0.54629,15.86072 6.90546,12.4476 2.54175,-1.36421 3.73556,-2.78835 4.12425,-4.91997 0.52012,-2.85238 0.57869,-2.88454 1.19027,-0.65355 0.93633,3.41566 0.16777,4.59758 -4.25987,6.55105 -3.01342,1.32952 -3.96011,2.31566 -3.96011,4.12516 0,1.30788 0.78249,2.81586 1.73886,3.35108 1.36303,0.76279 0.98479,0.93563 -1.75,0.79969 l -3.48886,-0.17343 0,5.75183 c 0,4.63274 -0.31473,5.75147 -1.61765,5.75 -0.88971,-10e-4 -4.86442,1.87791 -8.8327,4.17538 -6.19069,3.58414 -7.15201,4.50698 -6.77102,6.5 0.24421,1.27753 0.3026,2.32279 0.12975,2.32279 -0.93772,0 -5.40668,-2.40999 -5.3971,-2.91052 0.006,-0.32421 4.50621,-3.05676 10,-6.07233 L 142,935.89647 l 0,-6.77801 0,-6.77801 -5.38114,-2.63916 -5.38114,-2.63916 -10.66252,6.11804 c -6.96816,3.99825 -10.81592,5.69601 -11.10526,4.90002 -0.24351,-0.66991 -0.56136,-6.34447 -0.70634,-12.61015 l -0.2636,-11.39215 -4.7235,-2.60785 -4.723503,-2.60786 -4.776499,2.68026 L 89.5,904.2227 89,916.29863 c -0.275,6.64176 -0.725,12.18502 -1,12.31835 -0.275,0.13333 -5.155949,-2.41689 -10.846554,-5.66716 l -10.346554,-5.90957 -5.448875,2.67238 -5.448876,2.67238 0.295429,6.70813 0.29543,6.70812 9.741235,5.53046 c 5.357679,3.04175 9.745179,5.79573 9.75,6.11994 0.0048,0.32422 -1.116235,1.10207 -2.491235,1.72857 -2.275849,1.03694 -2.5,0.93093 -2.5,-1.18242 z"
         id="path14428"
         inkscape:connector-curvature="0" />
    </g>
    <text
       xml:space="preserve"
       style="font-style:normal;font-weight:normal;font-size:57.8608284px;line-height:125%;font-family:sans-serif;letter-spacing:0px;word-spacing:0px;fill:#0364a9;fill-opacity:1;stroke:none;stroke-width:1px;stroke-linecap:butt;stroke-linejoin:miter;stroke-opacity:1"
       x="177.33023"
       y="979.03473"
       id="text14414"
       sodipodi:linespacing="125%"><tspan
         sodipodi:role="line"
         id="tspan14416"
         x="177.33023"
         y="979.03473"
         style="letter-spacing:-4.97452641px">CONGELADO</tspan></text>
    <text
       xml:space="preserve"
       style="font-style:normal;font-weight:normal;font-size:82.01613617px;line-height:125%;font-family:sans-serif;letter-spacing:0px;word-spacing:0px;fill:#000000;fill-opacity:1;stroke:none;stroke-width:1px;stroke-linecap:butt;stroke-linejoin:miter;stroke-opacity:1"
       x="870.04919"
       y="960.38794"
       id="text14414-2"
       sodipodi:linespacing="125%"
       transform="matrix(0.96592583,0.25881905,-0.25881905,0.96592583,0,0)"><tspan
         sodipodi:role="line"
         id="tspan14416-1"
         x="870.04919"
         y="960.38794"
         style="letter-spacing:-7.05125427px;fill:#000000;fill-opacity:1">150g</tspan></text>
    <g
       id="g51359"
       transform="matrix(-9.9317602,0,0,9.9317602,1591.563,-5896.2456)">
      <g
         transform="matrix(0.26967762,-0.61348198,0.61348198,0.26967762,-278.26822,403.29482)"
         id="g12503-3-3-1-7-0"
         style="fill:#aa0000;fill-opacity:1">
        <path
           inkscape:connector-curvature="0"
           id="path12499-9-2-8-7-89-5"
           d="m 54.710617,633.24903 c -5.013365,-9.85955 -28.937566,-13.37228 -36.069538,-20.15998 -3.263921,-0.37321 15.466395,5.35726 15.38249,6.09113 -0.02443,0.21334 -0.323945,0.24224 -0.665634,0.0642 -0.768398,-0.40028 -3.87801,0.20528 -3.942326,0.76772 -0.02583,0.226 -0.320652,0.37961 -0.655081,0.34138 -0.334449,-0.0383 -1.129166,0.25184 -1.766019,0.64465 -0.636871,0.39278 -1.310336,0.72406 -1.496568,0.73618 -1.170528,0.0761 -4.967057,1.68062 -5.811399,2.45609 -2.493224,2.28993 -3.835086,3.26135 -4.413562,3.1952 -0.343403,-0.0393 -1.318278,2.60536 -1.829522,1.59593 -2.373463,-4.68621 -1.363591,1.64922 -1.557157,1.6271 -0.364301,-0.0417 -2.1034199,2.29812 -2.3643429,3.1803 -0.08128,0.27522 -0.563825,0.8461 -1.072269,1.26863 -0.508401,0.42255 -4.4041797,-3.16622 -5.2748751,-2.0636 -2.98311836,3.77772 -11.5252858,10.56874 -12.5981767,13.83488 26.8672387,9.19502 -3.9385923,-5.82572 -0.254448,1.67443 0.505195,0.59017 12.8121031,6.40459 12.6469542,6.53587 -0.1651247,0.13128 0.043392,0.27795 0.4634401,0.32599 0.4200098,0.048 1.154531,0.61942 1.6322605,1.26975 0.4777245,0.65034 1.6818013,1.50431 2.675739,1.89772 0.993944,0.3934 1.898994,0.91048 2.011254,1.14906 0.234796,0.49915 2.6003949,2.12106 3.5663699,2.44518 0.358538,0.1203 1.897518,0.86928 3.419935,1.66438 1.522426,0.79512 3.151484,1.64428 3.620135,1.88703 0.46864,0.24275 1.745261,0.60559 2.836928,0.80632 1.245993,0.22915 2.161067,0.67445 2.458089,1.19625 0.260289,0.45721 0.487865,0.70355 0.505722,0.54743 0.01786,-0.15613 1.048902,0.15084 2.29122,0.6822 1.24234,0.53135 3.054119,1.1144 4.026214,1.29567 0.972083,0.18131 1.762399,0.37357 1.756258,0.42731 -0.0062,0.0537 0.885901,0.24449 1.982305,0.42388 2.911063,0.47634 6.918803,-0.6184 9.568308,-2.61363 0.357655,-0.26936 0.870339,-0.46458 1.13932,-0.43382 1.115519,0.12755 6.514757,-4.96564 6.609075,-6.23444 0.0093,-0.12565 0.04427,-0.27607 0.07748,-0.33433 0.03331,-0.0582 0.195689,-0.80121 0.360941,-1.65105 0.8205,-4.21864 1.009894,-4.9286 1.358724,-5.0927"
           style="fill:#aa0000;fill-opacity:1"
           sodipodi:nodetypes="cccccscccsssccscccscscsscccccccscscccc" />
        <use
           x="0"
           y="0"
           xlink:href="#path12499-9-2-8-7-89-5"
           id="use15144"
           transform="matrix(0.67611552,-0.73679563,-0.73679563,-0.67611552,473.77077,1078.3011)"
           width="100%"
           height="100%" />
      </g>
      <path
         inkscape:connector-curvature="0"
         id="path12501-4-0-6-9-8"
         d="m 108.59219,547.43896 c 0.0644,-0.1395 -0.0595,-0.2399 -0.27541,-0.22309 -0.21588,0.0169 -1.07202,0.043 -1.90254,0.0583 -0.83052,0.0153 -1.83354,0.0774 -2.22893,0.13814 -0.39537,0.0609 -0.63097,-0.002 -0.5235,-0.13916 0.10746,-0.13729 0.95447,-0.36215 1.88222,-0.49974 2.02908,-0.3009 2.064,-0.31244 1.64421,-0.54262 -0.34,-0.18645 -1.54638,-1.57085 -1.5752,-1.80769 -0.009,-0.0725 0.26094,-0.0942 0.5995,-0.0481 0.33854,0.0458 0.62648,0.17337 0.63987,0.28337 0.0134,0.11002 0.46437,0.1781 1.00215,0.15128 1.1098,-0.0553 3.83678,0.43507 4.07498,0.73281 0.26036,0.32541 2.33997,0.10531 2.71042,-0.28684 0.26272,-0.27814 0.23773,-0.64025 -0.10522,-1.52513 -0.36572,-0.94351 -0.37714,-1.39312 -0.0613,-2.40546 0.43955,-1.40871 0.95836,-1.72744 0.80368,-0.49376 -0.0815,0.65001 -0.0246,0.75086 0.28213,0.49998 0.37475,-0.30659 0.52075,-0.37588 1.1058,-0.52497 0.1564,-0.0399 0.19131,-0.24788 0.0777,-0.46227 -0.11369,-0.21438 -0.0196,-0.48898 0.20896,-0.6102 0.29832,-0.15818 0.41792,-0.0297 0.42368,0.45521 0.007,0.57685 0.12489,0.64368 0.80768,0.45699 l 0.7997,-0.21864 -0.0894,1.40611 c -0.0881,1.38597 -0.29037,1.88869 -1.20052,2.98461 -0.25404,0.30595 -0.4511,0.6454 -0.43783,0.75436 0.0278,0.22802 2.22114,0.32527 4.41274,0.1957 0.82644,-0.0489 1.77925,-0.0541 2.11738,-0.0116 0.33814,0.0425 0.85884,0.058 1.15714,0.0344 0.33062,-0.026 0.47562,0.10166 0.37147,0.32734 -0.11706,0.25353 -0.0489,0.2718 0.2162,0.0579 0.41676,-0.33644 0.91596,-0.54214 1.84588,-0.76087 0.32367,-0.0762 0.74354,-0.26349 0.93304,-0.41629 0.18947,-0.15284 0.35251,-0.21222 0.36228,-0.13197 0.01,0.0802 0.397,-0.0147 0.8605,-0.21087 0.6424,-0.27194 0.8962,-0.25597 1.06759,0.0672 0.31602,0.59597 0.34574,0.53962 -0.7129,1.35149 -1.48041,1.13529 -4.24128,1.88129 -6.08905,1.64531 -0.46505,-0.0594 -0.8381,-0.047 -0.82901,0.0277"
         style="fill:#008000" />
    </g>
  </g>
</svg>
