<?xml version="1.0" encoding="UTF-8" standalone="no"?>
<!-- Created with Inkscape (http://www.inkscape.org/) -->

<svg
   xmlns:dc="http://purl.org/dc/elements/1.1/"
   xmlns:cc="http://creativecommons.org/ns#"
   xmlns:rdf="http://www.w3.org/1999/02/22-rdf-syntax-ns#"
   xmlns:svg="http://www.w3.org/2000/svg"
   xmlns="http://www.w3.org/2000/svg"
   xmlns:sodipodi="http://sodipodi.sourceforge.net/DTD/sodipodi-0.dtd"
   xmlns:inkscape="http://www.inkscape.org/namespaces/inkscape"
   width="1366"
   height="768"
   viewBox="0 0 1366.0001 768.00002"
   id="svg2"
   version="1.1"
   inkscape:version="0.91 r13725"
   sodipodi:docname="over-banner-tv-arca-circular.svg"
   inkscape:export-filename="/home/francisco/pessoal/conteudo-videos/over-banners/over-banner-tvarca-circular.png"
   inkscape:export-xdpi="90"
   inkscape:export-ydpi="90">
  <defs
     id="defs4" />
  <sodipodi:namedview
     id="base"
     pagecolor="#ffffff"
     bordercolor="#666666"
     borderopacity="1.0"
     inkscape:pageopacity="0.0"
     inkscape:pageshadow="2"
     inkscape:zoom="0.24748737"
     inkscape:cx="817.55815"
     inkscape:cy="732.54222"
     inkscape:document-units="px"
     inkscape:current-layer="layer1"
     showgrid="false"
     inkscape:window-width="1301"
     inkscape:window-height="744"
     inkscape:window-x="1345"
     inkscape:window-y="24"
     inkscape:window-maximized="1"
     units="px"
     borderlayer="true" />
  <metadata
     id="metadata7">
    <rdf:RDF>
      <cc:Work
         rdf:about="">
        <dc:format>image/svg+xml</dc:format>
        <dc:type
           rdf:resource="http://purl.org/dc/dcmitype/StillImage" />
        <dc:title />
      </cc:Work>
    </rdf:RDF>
  </metadata>
  <g
     inkscape:label="Layer 1"
     inkscape:groupmode="layer"
     id="layer1"
     transform="translate(0,-284.36208)">
    <path
       style="opacity:1;fill:#00ff00;fill-opacity:1;stroke:none;stroke-width:14.68700027;stroke-linecap:round;stroke-linejoin:round;stroke-miterlimit:4;stroke-dasharray:none;stroke-dashoffset:0;stroke-opacity:1"
       d="M -184.66992 -130.26367 L -184.66992 904 L 1550.6699 904 L 1550.6699 -130.26367 L -184.66992 -130.26367 z M 683 12.722656 A 381.45017 371.27815 0 0 1 1064.4492 384 A 381.45017 371.27815 0 0 1 683 755.27734 A 381.45017 371.27815 0 0 1 301.55078 384 A 381.45017 371.27815 0 0 1 683 12.722656 z "
       transform="translate(0,284.36205)"
       id="rect6481" />
    <path
       style="opacity:1;fill:#00ff00;fill-opacity:1;stroke:none;stroke-width:14.68700027;stroke-linecap:round;stroke-linejoin:round;stroke-miterlimit:4;stroke-dasharray:none;stroke-dashoffset:0;stroke-opacity:1"
       d="m -176.72513,-1072.933 0,1034.264321 1735.33903,0 0,-1034.264321 -1735.33903,0 z m 507.79143,144.77214 719.7562,0 c 62.2318,0 112.3324,50.10062 112.3324,112.33244 l 0,520.05509 c 0,62.2318 -50.1006,112.3325 -112.3324,112.3325 l -719.7562,0 c -62.23183,0 -112.33246,-50.1007 -112.33246,-112.3325 l 0,-520.05509 c 0,-62.23182 50.10063,-112.33244 112.33246,-112.33244 z"
       id="rect6481-3"
       inkscape:connector-curvature="0" />
    <path
       style="opacity:0.67000002;fill:#000000;fill-opacity:0;stroke:none;stroke-width:25;stroke-linecap:round;stroke-linejoin:round;stroke-miterlimit:4;stroke-dasharray:25, 25;stroke-dashoffset:0;stroke-opacity:1"
       d="m 286.04596,750.55901 c -27.00829,-9.71076 -49.49175,-30.32559 -62.05259,-56.89531 l -9.55101,-20.20305 -0.0395,-287.10012 -0.0395,-287.100124 10.45817,-20.986824 c 5.752,-11.542755 17.78277,-27.256407 26.73506,-34.919229 32.40027,-27.73343 12.19367,-26.492854 431.51755,-26.492854 419.3239,0 399.1173,-1.240576 431.5175,26.492854 8.9523,7.662822 20.9831,23.376474 26.7351,34.919229 l 10.4582,20.986824 -0.089,287.100124 c -0.086,279.97738 -0.2926,287.55122 -8.3099,305.28287 -10.0636,22.2579 -28.7108,42.28058 -50.1902,53.89216 l -16.1625,8.7373 -387.89855,0.87394 c -317.38354,0.71511 -390.66003,-0.11879 -403.08915,-4.58779 l 1.6e-4,0 z"
       id="path4153"
       inkscape:connector-curvature="0"
       transform="translate(0,284.36205)" />
    <path
       style="opacity:0.67000002;fill:#000000;fill-opacity:0;stroke:none;stroke-width:25;stroke-linecap:round;stroke-linejoin:round;stroke-miterlimit:4;stroke-dasharray:25, 25;stroke-dashoffset:0;stroke-opacity:1"
       d="m 286.04596,750.55901 c -27.00829,-9.71076 -49.49175,-30.32559 -62.05259,-56.89531 l -9.55101,-20.20305 -0.0395,-287.10012 -0.0395,-287.100124 10.45817,-20.986824 c 5.752,-11.542755 17.78277,-27.256407 26.73506,-34.919229 32.40027,-27.73343 12.19367,-26.492854 431.51755,-26.492854 419.3239,0 399.1173,-1.240576 431.5175,26.492854 8.9523,7.662822 20.9831,23.376474 26.7351,34.919229 l 10.4582,20.986824 -0.089,287.100124 c -0.086,279.97738 -0.2926,287.55122 -8.3099,305.28287 -10.0636,22.2579 -28.7108,42.28058 -50.1902,53.89216 l -16.1625,8.7373 -387.89855,0.87394 c -317.38354,0.71511 -390.66003,-0.11879 -403.08915,-4.58779 l 1.6e-4,0 z"
       id="path4155"
       inkscape:connector-curvature="0"
       transform="translate(0,284.36205)" />
    <path
       style="opacity:0.67000002;fill:#000000;fill-opacity:0;stroke:none;stroke-width:25;stroke-linecap:round;stroke-linejoin:round;stroke-miterlimit:4;stroke-dasharray:25, 25;stroke-dashoffset:0;stroke-opacity:1"
       d="m 286.04596,750.55901 c -27.00829,-9.71076 -49.49175,-30.32559 -62.05259,-56.89531 l -9.55101,-20.20305 -0.0395,-287.10012 -0.0395,-287.100124 10.45817,-20.986824 c 5.752,-11.542755 17.78277,-27.256407 26.73506,-34.919229 32.40027,-27.73343 12.19367,-26.492854 431.51755,-26.492854 419.3239,0 399.1173,-1.240576 431.5175,26.492854 8.9523,7.662822 20.9831,23.376474 26.7351,34.919229 l 10.4582,20.986824 -0.089,287.100124 c -0.086,279.97738 -0.2926,287.55122 -8.3099,305.28287 -10.0636,22.2579 -28.7108,42.28058 -50.1902,53.89216 l -16.1625,8.7373 -387.89855,0.87394 c -317.38354,0.71511 -390.66003,-0.11879 -403.08915,-4.58779 l 1.6e-4,0 z"
       id="path4157"
       inkscape:connector-curvature="0"
       transform="translate(0,284.36205)" />
    <ellipse
       style="opacity:1;fill:#aad400;fill-opacity:0.19215687;stroke:none;stroke-width:25;stroke-linecap:round;stroke-linejoin:round;stroke-miterlimit:4;stroke-dasharray:25, 25;stroke-dashoffset:0;stroke-opacity:1"
       id="path4165"
       cx="2179.9092"
       cy="587.69189"
       rx="183.84776"
       ry="105.05586" />
  </g>
</svg>
