<?xml version="1.0" encoding="UTF-8" standalone="no"?>
<!-- Created with Inkscape (http://www.inkscape.org/) -->

<svg
   xmlns:dc="http://purl.org/dc/elements/1.1/"
   xmlns:cc="http://creativecommons.org/ns#"
   xmlns:rdf="http://www.w3.org/1999/02/22-rdf-syntax-ns#"
   xmlns:svg="http://www.w3.org/2000/svg"
   xmlns="http://www.w3.org/2000/svg"
   xmlns:sodipodi="http://sodipodi.sourceforge.net/DTD/sodipodi-0.dtd"
   xmlns:inkscape="http://www.inkscape.org/namespaces/inkscape"
   width="200"
   height="200"
   id="svg5630"
   version="1.1"
   inkscape:version="0.48.4 r9939"
   sodipodi:docname="itapemapa-logo-200x200.svg"
   inkscape:export-filename="/media/francisco/f5sites/projetos/itapemapa/itapemapa-logo/itapemapa-logo-1024x1024.png"
   inkscape:export-xdpi="460.79999"
   inkscape:export-ydpi="460.79999">
  <defs
     id="defs5632" />
  <sodipodi:namedview
     id="base"
     pagecolor="#ffffff"
     bordercolor="#666666"
     borderopacity="1.0"
     inkscape:pageopacity="0.0"
     inkscape:pageshadow="2"
     inkscape:zoom="0.98994949"
     inkscape:cx="449.81644"
     inkscape:cy="202.79978"
     inkscape:document-units="px"
     inkscape:current-layer="g5725"
     showgrid="false"
     inkscape:window-width="1301"
     inkscape:window-height="744"
     inkscape:window-x="65"
     inkscape:window-y="24"
     inkscape:window-maximized="1" />
  <metadata
     id="metadata5635">
    <rdf:RDF>
      <cc:Work
         rdf:about="">
        <dc:format>image/svg+xml</dc:format>
        <dc:type
           rdf:resource="http://purl.org/dc/dcmitype/StillImage" />
        <dc:title></dc:title>
      </cc:Work>
    </rdf:RDF>
  </metadata>
  <g
     inkscape:label="Layer 1"
     inkscape:groupmode="layer"
     id="layer1"
     transform="translate(0,-852.36218)">
    <g
       transform="matrix(1.1932403,0,0,1.1932403,29.134639,-92.508926)"
       id="g5583">
      <g
         id="g5725"
         transform="translate(4.7888809,213.82353)">
        <g
           transform="matrix(1.518084,0,0,1.518084,-109.74446,-306.59272)"
           id="g5714">
          <path
             style="fill:#dcd3ba;fill-opacity:1;stroke:#333333;stroke-width:1.26991546;stroke-linejoin:round;stroke-miterlimit:4;stroke-opacity:1"
             d="m 70.188529,653.41817 77.465491,0 8.14234,31.60673 -94.990788,0 z"
             id="path5553"
             inkscape:connector-curvature="0"
             sodipodi:nodetypes="ccccc" />
          <path
             style="fill:#b4d398;fill-opacity:1;stroke:none"
             d="m 143.68577,684.47779 c -0.0949,-0.0183 -0.17261,-0.0853 -0.17261,-0.14889 0,-0.1613 -0.41898,-0.56384 -0.58864,-0.56552 -0.23116,-0.003 -0.7338,-0.37043 -1.52603,-1.11765 -0.24215,-0.2284 -0.48035,-0.41526 -0.52933,-0.41526 -0.11056,0 -0.50132,-0.40025 -0.50132,-0.51349 0,-0.0457 -0.12083,-0.10583 -0.26851,-0.13353 -0.22025,-0.0413 -0.2685,-0.0842 -0.2685,-0.23869 0,-0.1327 -0.0423,-0.18831 -0.14324,-0.18831 -0.0821,0 -0.22988,-0.13093 -0.3463,-0.30686 -0.11169,-0.16878 -0.25493,-0.30686 -0.31831,-0.30686 -0.0633,0 -0.17118,-0.11735 -0.23956,-0.26077 -0.0684,-0.14341 -0.29394,-0.39008 -0.50121,-0.54815 -0.20727,-0.15806 -0.42655,-0.38349 -0.48729,-0.50095 -0.0607,-0.11746 -0.17986,-0.2356 -0.26472,-0.26253 -0.0849,-0.0269 -0.15427,-0.0778 -0.15427,-0.11293 0,-0.0352 -0.12428,-0.1373 -0.27619,-0.22693 -0.15191,-0.0896 -0.29372,-0.22998 -0.31514,-0.3119 -0.0214,-0.0819 -0.0956,-0.16799 -0.16492,-0.19129 -0.0692,-0.0233 -0.24099,-0.21218 -0.38158,-0.41976 -0.17612,-0.26005 -0.32521,-0.39269 -0.47946,-0.42658 -0.12314,-0.0271 -0.22387,-0.076 -0.22387,-0.10888 0,-0.0598 -0.86206,-0.61853 -0.95429,-0.61853 -0.0269,0 -0.18484,-0.13058 -0.35092,-0.29018 -0.1661,-0.15959 -0.51861,-0.40449 -0.78337,-0.54421 -0.64704,-0.34147 -1.23045,-0.77628 -2.17839,-1.62354 -0.21606,-0.19311 -0.64759,-0.48395 -0.95894,-0.6463 -0.31136,-0.16235 -0.73042,-0.43139 -0.93126,-0.59786 -0.43623,-0.36158 -0.81592,-0.62358 -1.15209,-0.79498 -0.13597,-0.0693 -0.40485,-0.26822 -0.59752,-0.44199 -0.69246,-0.62453 -1.767,-1.45747 -2.65641,-2.05913 -0.49817,-0.337 -0.97703,-0.67815 -1.06413,-0.75811 -0.0871,-0.08 -0.24686,-0.14539 -0.35501,-0.14539 -0.10815,0 -0.2388,-0.0508 -0.29034,-0.11291 -0.0516,-0.0621 -0.35783,-0.2466 -0.68065,-0.41001 -0.32282,-0.16342 -0.79205,-0.4233 -1.04272,-0.57753 -0.25068,-0.15423 -0.51619,-0.28042 -0.59002,-0.28042 -0.0738,0 -0.15556,-0.0345 -0.18163,-0.0767 -0.0717,-0.11608 -1.16821,-0.62615 -2.32066,-1.07956 -0.11541,-0.0455 -0.17261,-0.13202 -0.17261,-0.26134 0,-0.16993 -0.0327,-0.19344 -0.2685,-0.19344 -0.25572,0 -0.26851,-0.0128 -0.26851,-0.2685 0,-0.18319 -0.0353,-0.26851 -0.11103,-0.26851 -0.0611,0 -0.20188,-0.18124 -0.31292,-0.40275 -0.11104,-0.22151 -0.25094,-0.45726 -0.3109,-0.52387 -0.0722,-0.0802 -0.10901,-0.30149 -0.10901,-0.65433 0,-0.4602 -0.0227,-0.54865 -0.16554,-0.64603 -0.0911,-0.062 -0.27229,-0.20363 -0.40276,-0.3146 -0.13047,-0.11098 -0.40365,-0.2799 -0.60706,-0.37541 -0.20341,-0.0955 -0.422,-0.25324 -0.48575,-0.35054 -0.0637,-0.0973 -0.23391,-0.21585 -0.37814,-0.26344 -0.14422,-0.0476 -0.26221,-0.13555 -0.26221,-0.19545 0,-0.0599 -0.11613,-0.23846 -0.25805,-0.39681 -0.14194,-0.15834 -0.31235,-0.39414 -0.37872,-0.52399 -0.0663,-0.12987 -0.24344,-0.31973 -0.3935,-0.42195 -0.15007,-0.1022 -0.27308,-0.20706 -0.27337,-0.23301 -3.1e-4,-0.0259 -0.28533,-0.21141 -0.63343,-0.41213 -0.3481,-0.20073 -0.88594,-0.53603 -1.19523,-0.74512 -0.30928,-0.20908 -0.78588,-0.48046 -1.05912,-0.60306 -0.27323,-0.12259 -0.86917,-0.44786 -1.32431,-0.72283 -0.45512,-0.27496 -0.87954,-0.49994 -0.94314,-0.49994 -0.0636,0 -0.26753,-0.11052 -0.45319,-0.24559 -0.18565,-0.13509 -0.57295,-0.37543 -0.86067,-0.53409 -0.28772,-0.15866 -0.63294,-0.37763 -0.76716,-0.4866 -0.13421,-0.10896 -0.38907,-0.30878 -0.56635,-0.44404 -0.17728,-0.13526 -0.52338,-0.41852 -0.7691,-0.62949 -0.24572,-0.21097 -0.5322,-0.43965 -0.63661,-0.50817 -0.17576,-0.11536 0.84631,-0.12955 13.77235,-0.19123 7.6792,-0.0367 17.42804,-0.0668 21.66407,-0.0672 l 7.70189,-5.7e-4 3.86039,15.38144 c 2.12321,8.45978 3.86154,15.39006 3.86296,15.40061 0.004,0.0339 -11.07643,-4.7e-4 -11.25542,-0.035 z"
             id="path5555"
             inkscape:connector-curvature="0" />
          <path
             sodipodi:nodetypes="ccccc"
             inkscape:connector-curvature="0"
             id="path5557"
             d="m 70.188529,653.41817 77.465491,0 8.14234,31.60673 -94.990788,0 z"
             style="fill:#dcd3ba;fill-opacity:1;stroke:#333333;stroke-width:2.06537795;stroke-linejoin:round;stroke-miterlimit:4;stroke-opacity:1;stroke-dasharray:none" />
          <path
             style="fill:#ffffff;fill-opacity:1;stroke:none"
             d="m 85.203011,653.87845 5.713932,0 0,0 -3.859606,19.2467 -9e-6,0.48822 -5.388454,-0.70519 -2.058156,-1.47236 5.131996,-17.40394 z"
             id="path5559"
             inkscape:connector-curvature="0"
             sodipodi:nodetypes="ccccccccc" />
          <path
             style="fill:#fdfefd;fill-opacity:1;stroke:none"
             d="m 134.83648,653.70592 c 0.0247,8.77164 0.188,20.88053 0.12042,30.68612 l -1e-5,1e-5 -9.30435,0 -1e-5,-1e-5 2.52402,-30.62861 c 2.48343,-0.0538 4.27659,-0.0446 6.65993,-0.0576 z"
             id="path5561"
             inkscape:connector-curvature="0"
             sodipodi:nodetypes="ccccccc" />
          <path
             style="fill:#ffffff;fill-opacity:1;stroke:none"
             d="m 81.520669,671.79151 70.347981,-0.0383 0,0 1.68774,5.5235 -0.30687,-0.30685 -72.265859,0.15343 -3.055461,0.0345 3.27676,-11.21114 z"
             id="path5563"
             inkscape:connector-curvature="0"
             sodipodi:nodetypes="ccccccccc" />
          <path
             style="fill:none;stroke:#000000;stroke-width:2.06537795;stroke-linejoin:round;stroke-miterlimit:4;stroke-opacity:1;stroke-dasharray:none"
             d="m 70.188529,653.41817 77.465491,0 8.14234,31.60673 -94.990788,0 z"
             id="path5573"
             inkscape:connector-curvature="0"
             sodipodi:nodetypes="ccccc" />
          <g
             transform="matrix(0.74540591,0,0,0.69004699,-283.08949,-101.39434)"
             id="g5565"
             style="fill:#fc1515;fill-opacity:1;stroke-width:2.87980962;stroke-miterlimit:4;stroke-dasharray:none">
            <path
               sodipodi:nodetypes="csssssc"
               inkscape:connector-curvature="0"
               id="path5567"
               d="m 553.84839,1033.6302 c -0.9462,29.9244 -4.27063,19.6134 -25.85679,65.3666 -6.10843,12.9472 -2.9258,15.4339 -9.00241,1.9993 -20.95738,-46.3341 -24.9873,-38.3432 -25.69699,-67.3658 -0.40873,-16.7172 13.55599,-30.2781 30.27807,-30.2781 16.72213,-1e-4 30.80658,13.5643 30.27812,30.2781 z"
               style="fill:#fc1515;fill-opacity:1;stroke:#000000;stroke-width:2.87980962;stroke-linecap:butt;stroke-linejoin:miter;stroke-miterlimit:4;stroke-opacity:1;stroke-dasharray:none;display:inline" />
          </g>
        </g>
      </g>
    </g>
  </g>
</svg>
