<?xml version="1.0" encoding="UTF-8" standalone="no"?>
<!-- Created with Inkscape (http://www.inkscape.org/) -->

<svg
   xmlns:dc="http://purl.org/dc/elements/1.1/"
   xmlns:cc="http://creativecommons.org/ns#"
   xmlns:rdf="http://www.w3.org/1999/02/22-rdf-syntax-ns#"
   xmlns:svg="http://www.w3.org/2000/svg"
   xmlns="http://www.w3.org/2000/svg"
   xmlns:sodipodi="http://sodipodi.sourceforge.net/DTD/sodipodi-0.dtd"
   xmlns:inkscape="http://www.inkscape.org/namespaces/inkscape"
   id="svg3211"
   version="1.1"
   inkscape:version="0.48.4 r9939"
   width="390"
   height="300"
   sodipodi:docname="pirata-simbolo.svg"
   inkscape:export-filename="/home/francisco/Ãrea de Trabalho/pirata-simbolo/pirata-simbolo.png"
   inkscape:export-xdpi="460"
   inkscape:export-ydpi="460">
  <metadata
     id="metadata3217">
    <rdf:RDF>
      <cc:Work
         rdf:about="">
        <dc:format>image/svg+xml</dc:format>
        <dc:type
           rdf:resource="http://purl.org/dc/dcmitype/StillImage" />
        <dc:title></dc:title>
      </cc:Work>
    </rdf:RDF>
  </metadata>
  <defs
     id="defs3215" />
  <sodipodi:namedview
     pagecolor="#ffffff"
     bordercolor="#666666"
     borderopacity="1"
     objecttolerance="10"
     gridtolerance="10"
     guidetolerance="10"
     inkscape:pageopacity="0"
     inkscape:pageshadow="2"
     inkscape:window-width="1301"
     inkscape:window-height="744"
     id="namedview3213"
     showgrid="false"
     inkscape:zoom="1.1125147"
     inkscape:cx="289.76033"
     inkscape:cy="145.12075"
     inkscape:window-x="65"
     inkscape:window-y="24"
     inkscape:window-maximized="1"
     inkscape:current-layer="svg3211" />
  <path
     inkscape:connector-curvature="0"
     style="fill:#ac9393;fill-opacity:1;stroke:none"
     d="m -210.96449,278.7314 c -5.24364,0 -9.53125,0.22684 -9.53125,0.53125 0,0.30441 -1.99047,0.75887 -4.4375,1 -2.44704,0.24112 -4.46875,0.68003 -4.46875,0.96875 0,0.28872 -1.27066,0.7016 -2.84375,0.9375 -1.5731,0.2359 -2.875,0.70309 -2.875,1.03125 0,0.32816 -0.55085,0.59375 -1.25,0.59375 -0.69915,0 -1.28125,0.27195 -1.28125,0.59375 0,0.3218 -0.85752,0.76966 -1.90625,1 -1.04872,0.23034 -1.90625,0.67473 -1.90625,0.96875 0,0.29402 -0.85752,0.70716 -1.90625,0.9375 -1.04872,0.23034 -1.90625,0.6536 -1.90625,0.9375 0,0.2839 -0.71185,0.69275 -1.5625,0.90625 -0.85064,0.2135 -1.71585,0.95791 -1.9375,1.65625 -0.22164,0.69834 -0.84056,1.28125 -1.375,1.28125 -1.09541,0 -11.03125,9.68125 -11.03125,10.75 0,0.3795 -0.26773,0.6875 -0.59375,0.6875 -0.32602,0 -0.7829,0.65095 -1.03125,1.4375 -0.24835,0.78655 -0.968,1.86117 -1.59375,2.40625 -0.62575,0.54508 -1.32642,1.77813 -1.5625,2.71875 -0.23608,0.94062 -0.65359,1.6875 -0.9375,1.6875 -0.2839,0 -0.70716,0.85752 -0.9375,1.90625 -0.23034,1.04873 -0.67819,1.90625 -1,1.90625 -0.3218,0 -0.59375,0.71981 -0.59375,1.59375 0,0.87394 -0.26932,1.59375 -0.59375,1.59375 -0.32442,0 -0.79103,1.57734 -1.03125,3.50001 -0.24022,1.92267 -0.70352,3.5 -1.03125,3.5 -1.42672,0 0.5684,27.34673 2.03125,27.84375 0.34297,0.11653 0.625,0.76748 0.625,1.4375 0,0.67002 0.2576,1.21875 0.5625,1.21875 0.3049,0 0.7139,1.13295 0.9375,2.53125 0.2236,1.39831 0.67811,2.5625 1,2.5625 0.32188,0 0.76069,0.53197 0.96875,1.1875 0.52491,1.65384 4.65904,5.78125 5.78125,5.78125 0.50754,0 0.90625,0.27195 0.90625,0.59375 0,0.3218 0.85753,0.76966 1.90625,1 1.04873,0.23034 1.90625,0.6782 1.90625,1 0,0.32179 0.31295,0.59375 0.6875,0.59375 1.62614,0 2.82701,2.17139 2.71875,4.96875 -0.0605,1.56432 -0.39158,3.00806 -0.71875,3.21875 -0.32716,0.21068 -0.82473,1.12606 -1.09375,2 -0.26902,0.87394 -0.72145,1.73754 -1.03125,1.9375 -0.3098,0.19996 -0.75076,2.29053 -0.96875,4.625 -0.34324,3.67569 -0.24897,4.21875 0.65625,4.21875 0.57492,0 1.03125,0.30668 1.03125,0.65625 0,0.34958 0.37553,0.623 0.8125,0.625 0.43697,0.002 1.51164,0.37689 2.40625,0.84375 0.8946,0.46686 2.83733,1.04536 4.3125,1.28125 2.32143,0.37121 2.89065,0.23434 4.25,-1.125 0.8638,-0.86381 1.5625,-2.15996 1.5625,-2.875 0,-0.71505 0.30667,-1.3125 0.65625,-1.3125 0.34958,0 0.62,-0.34428 0.625,-0.78125 0.005,-0.43697 0.28125,-1.19384 0.59375,-1.6875 0.48258,-0.76235 0.70376,-0.76499 1.5625,0.0937 1.13881,1.13882 1.33362,2.375 0.375,2.375 -0.34958,0 -0.625,0.78536 -0.625,1.75 0,2.63719 1.88481,3.44261 8.71875,3.6875 3.29377,0.11804 6.38172,0.55404 6.84375,0.9375 0.49925,0.41437 2.8493,0.61097 5.8125,0.5 4.62076,-0.17304 4.99927,-0.2997 5.1875,-1.625 0.1117,-0.78655 0.48724,-1.4375 0.8125,-1.4375 0.32526,0 0.59375,-0.41313 0.59375,-0.9375 0,-0.52436 0.53303,-0.96875 1.1875,-0.96875 0.90002,0 1.28118,0.63901 1.59375,2.59375 0.2273,1.42144 0.75836,2.98082 1.1875,3.46875 0.84504,0.96081 6.1875,1.28362 6.1875,0.375 0,-0.30454 1.39976,-0.71279 3.09375,-0.9375 3.37995,-0.44837 4.53125,-1.88734 4.53125,-5.53125 0,-1.03228 0.13505,-1.875 0.28125,-1.875 1.22976,0 2.28125,1.01708 2.28125,2.21875 0,0.79914 0.45831,1.65514 1.03125,1.875 1.10467,0.4239 6.59375,-1.91685 6.59375,-2.8125 0,-0.29062 0.85752,-0.73841 1.90625,-0.96875 1.11551,-0.24501 1.90625,-0.8003 1.90625,-1.375 0,-0.75791 0.42894,-0.89546 1.9375,-0.59375 2.35697,0.4714 7.22267,-1.54506 8.21875,-3.40625 0.72369,-1.35221 -0.27951,-4.64493 -1.96875,-6.40625 -0.88763,-0.92551 -2.46975,-4.05823 -2.46875,-4.90625 0.001,-0.74284 2.97041,-3.96875 3.65625,-3.96875 0.66162,0 4.37641,-3.95367 7.15625,-7.625 2.09609,-2.7683 4.4375,-7.4323 4.4375,-8.8125 0,-0.60572 0.26045,-1.3554 0.5625,-1.6875 1.0835,-1.19129 1.96875,-6.67009 1.96875,-12 0,-5.37453 -1.16035,-14.38728 -1.9375,-15 -0.2217,-0.17479 -0.56513,-1.84647 -0.78125,-3.71875 -0.21612,-1.8723 -0.65267,-3.72506 -0.96875,-4.12501 -0.31609,-0.39996 -0.78697,-1.83356 -1.03125,-3.1875 -0.452,-2.50522 -0.60029,-2.92755 -2.46875,-6.65625 -0.58352,-1.1644 -1.0625,-2.5018 -1.0625,-2.9687 0,-0.4669 -0.20657,-0.94597 -0.46875,-1.0625 -0.26218,-0.11653 -1.05738,-1.3517 -1.75,-2.75 -2.32679,-4.69744 -7.55858,-10.69388 -10,-11.46875 -0.61928,-0.19655 -1.125,-0.60801 -1.125,-0.90625 0,-0.29824 -0.85752,-0.73841 -1.90625,-0.96875 -1.04873,-0.23034 -1.90625,-0.68233 -1.90625,-1 0,-0.31767 -1.16419,-0.74515 -2.5625,-0.96875 -1.3983,-0.2236 -2.53125,-0.66385 -2.53125,-0.96875 0,-0.3049 -0.41313,-0.5625 -0.9375,-0.5625 -0.52436,0 -0.96875,-0.25262 -0.96875,-0.5625 0,-0.30988 -1.27065,-0.73285 -2.84375,-0.96875 -1.57309,-0.2359 -2.875,-0.67607 -2.875,-0.96875 0,-0.29268 -1.99047,-0.75425 -4.4375,-1 -2.44703,-0.24575 -4.46875,-0.6859 -4.46875,-1 0,-0.3141 -4.28761,-0.5625 -9.53125,-0.5625 z m -14.5,28.21875 c 4.24723,0.0194 8.44746,0.31242 8.625,0.84375 0.14602,0.43697 0.741,0.8125 1.3125,0.8125 1.1653,0 3.9375,2.92069 3.9375,4.15625 0,0.44086 0.34428,0.91634 0.78125,1.0625 0.9889,0.33078 1.04786,11.1747 0.0625,11.81251 -0.36013,0.2331 -0.8527,1.50159 -1.09375,2.8125 -0.24105,1.31092 -0.70418,2.375 -1.03125,2.375 -0.32708,0 -0.78066,0.71981 -1,1.59375 -0.21935,0.87394 -0.65707,1.59375 -0.96875,1.59375 -0.31168,0 -0.5625,0.44439 -0.5625,0.96875 0,0.52437 -0.25082,0.9375 -0.5625,0.9375 -0.31168,0 -0.74941,0.71981 -0.96875,1.59375 -0.21935,0.87394 -0.65361,1.59375 -0.96875,1.59375 -0.31515,0 -0.77608,0.82423 -1,1.84375 -0.22393,1.01953 -0.8095,2.02573 -1.3125,2.21875 -0.503,0.19302 -0.90625,0.90718 -0.90625,1.59375 0,0.68657 -0.55435,1.41412 -1.21875,1.625 -0.6644,0.21087 -1.37755,1.07608 -1.59375,1.9375 -0.21621,0.86142 -0.68834,1.59375 -1.03125,1.59375 -0.34292,0 -0.625,0.40971 -0.625,0.9375 0,0.52778 -0.55085,1.46387 -1.25,2.0625 -0.69915,0.59864 -1.28125,1.45957 -1.28125,1.90625 0,0.44667 -0.52575,0.8125 -1.1875,0.8125 -0.66175,0 -1.39253,0.41314 -1.59375,0.9375 -0.20122,0.52437 -0.80841,0.96875 -1.34375,0.96875 -0.53533,0 -0.96875,0.27542 -0.96875,0.625 0,0.34957 -0.41101,0.625 -0.90625,0.625 -0.49523,0 -0.97551,0.30152 -1.09375,0.65625 -0.23728,0.71185 -7.64224,1.34048 -9.90625,0.84375 -0.78654,-0.17257 -1.4375,-0.58099 -1.4375,-0.90625 0,-0.32527 -0.41314,-0.59375 -0.9375,-0.59375 -0.52437,0 -0.96875,-0.26774 -0.96875,-0.59375 0,-0.32602 -0.63601,-0.78679 -1.40625,-1.03125 -1.54139,-0.48923 -3.03125,-1.78326 -3.03125,-2.625 0,-0.29685 -0.5821,-1.02636 -1.28125,-1.625 -0.69915,-0.59863 -1.28125,-1.53472 -1.28125,-2.0625 0,-0.52779 -0.27542,-0.9375 -0.625,-0.9375 -0.34958,0 -0.625,-0.41102 -0.625,-0.90625 0,-0.49523 -0.37553,-1.01059 -0.8125,-1.15625 -1.13577,-0.37859 -1.13577,-17.12141 0,-17.5 0.43697,-0.14565 0.8125,-0.66102 0.8125,-1.15625 0,-0.49523 0.2407,-0.90625 0.5625,-0.90625 0.3218,0 0.80091,-0.85752 1.03125,-1.90625 0.23034,-1.04873 0.6782,-1.90625 1,-1.90625 0.3218,0 0.5625,-0.40878 0.5625,-0.90625 0,-0.49748 0.85752,-1.76377 1.90625,-2.8125 1.04873,-1.04874 1.90625,-2.05233 1.90625,-2.25001 0,-0.61235 2.17625,-2.9375 2.75,-2.9375 0.29878,0 1.38877,-0.85752 2.4375,-1.90625 1.04873,-1.04873 2.31503,-1.90625 2.8125,-1.90625 0.49747,0 0.90625,-0.27542 0.90625,-0.625 0,-0.34958 0.44438,-0.625 0.96875,-0.625 0.52436,0 0.9375,-0.27195 0.9375,-0.59375 0,-0.3218 0.92637,-0.78477 2.0625,-1.03125 1.13612,-0.24648 2.28207,-0.7632 2.53125,-1.15625 0.33536,-0.52899 4.62777,-0.80063 8.875,-0.78125 z m 33.46875,12.09375 c 3.61252,-0.0207 7.25938,0.22739 7.59375,0.75 0.24943,0.38985 1.15731,0.91702 2.03125,1.18751 0.87394,0.27049 2.23015,1.17464 3,2 0.76986,0.82535 1.57501,1.5 1.78125,1.5 0.20623,0 0.70278,0.30124 1.125,0.65625 2.88643,2.42694 4.28125,3.82035 4.28125,4.3125 0,0.31278 0.5821,1.22512 1.28125,2.03125 0.69915,0.80613 1.25,1.84162 1.25,2.3125 0,0.47088 0.30668,0.84375 0.65625,0.84375 0.34958,0 0.625,0.41102 0.625,0.90625 0,0.49523 0.32745,1.01542 0.75,1.15625 1.10316,0.36772 1.13298,13.3188 0.0312,13.6875 -0.43697,0.14623 -0.78125,0.79873 -0.78125,1.46875 0,0.67002 -0.27542,1.21875 -0.625,1.21875 -0.34957,0 -0.65625,0.34834 -0.65625,0.75 0,0.90338 -4.14768,4.96875 -5.0625,4.96875 -0.36691,0 -0.65625,0.26774 -0.65625,0.59375 0,0.32602 -0.65095,0.81704 -1.4375,1.0625 -0.78654,0.24546 -1.574,0.70965 -1.78125,1.03125 -0.41994,0.65167 -10.7383,1.19768 -13.46875,0.71875 -0.96134,-0.16862 -1.75,-0.52404 -1.75,-0.8125 0,-0.28846 -0.71981,-0.71816 -1.59375,-0.9375 -0.87394,-0.21935 -1.5625,-0.68834 -1.5625,-1.03125 0,-0.34292 -0.43669,-0.625 -0.9375,-0.625 -0.50081,0 -1.10453,-0.59002 -1.34375,-1.34375 -0.23922,-0.75373 -1.10444,-2.00919 -1.9375,-2.78125 -0.83306,-0.77205 -1.5,-1.72811 -1.5,-2.125 0,-0.39688 -0.3108,-0.71875 -0.65625,-0.71875 -0.34544,0 -0.80766,-1.16419 -1.03125,-2.5625 -0.2236,-1.3983 -0.61872,-2.53125 -0.90625,-2.53125 -0.28755,0 -0.73145,-1.71504 -0.96875,-3.8125 -0.2373,-2.09746 -0.66433,-3.8125 -0.96875,-3.8125 -0.77357,0 -0.71604,-7.45634 0.0625,-7.9375 0.34957,-0.21605 0.65625,-0.97442 0.65625,-1.6875 0,-3.08029 3.9324,-8.8125 6.0625,-8.8125 0.44086,0 0.91684,-0.34428 1.0625,-0.78126 0.17517,-0.52553 3.76248,-0.82307 7.375,-0.84375 z m -19.5625,40.40626 c 0.80795,0 3.15625,2.34287 3.15625,3.15625 0,0.34958 0.23649,0.65625 0.5625,0.65625 0.32602,0 0.81803,0.63601 1.0625,1.40625 0.24446,0.77025 0.83425,1.77175 1.3125,2.25 0.47824,0.47825 0.875,1.27417 0.875,1.75 0,0.47584 0.52997,1.04131 1.1875,1.25 1.262,0.40055 2.19237,3.45234 1.5625,5.09375 -0.30667,0.79918 -2.01449,0.96875 -10.15625,0.96875 l -9.78125,0 0,-2.25 c 0,-1.22352 0.28207,-2.21875 0.59375,-2.21875 0.31168,0 0.71816,-0.71981 0.9375,-1.59375 0.21935,-0.87394 0.68833,-1.59375 1.03125,-1.59375 0.34291,0 0.625,-0.43341 0.625,-0.96875 0,-0.53534 0.44439,-1.14254 0.96875,-1.34375 0.52436,-0.20123 0.9375,-0.74344 0.9375,-1.21875 0,-0.98215 4.18867,-5.34375 5.125,-5.34375 z m 73.4375,17.15625 c -3.6412,0 -4.1875,0.45504 -4.1875,3.53125 0,0.84535 -0.30667,1.5625 -0.65625,1.5625 -0.34957,0 -0.625,1.36106 -0.625,3.03125 0,3.6134 -1.13378,4.87806 -5,5.53125 -1.43804,0.24296 -2.625,0.68115 -2.625,1 0,0.31885 -0.41313,0.59375 -0.9375,0.59375 -0.52436,0 -0.96875,0.24573 -0.96875,0.5625 0,0.31677 -1.43962,0.79086 -3.1875,1.03125 -1.74789,0.2404 -3.15625,0.68736 -3.15625,1 0,0.31264 -1.1642,0.74516 -2.5625,0.96875 -1.39831,0.2236 -2.53125,0.65402 -2.53125,0.9375 0,0.28348 -1.3019,0.7016 -2.875,0.9375 -1.57309,0.2359 -2.84375,0.69011 -2.84375,1 0,0.30988 -0.44439,0.5625 -0.96875,0.5625 -0.52437,0 -0.9375,0.24573 -0.9375,0.5625 0,0.31678 -1.43962,0.79085 -3.1875,1.03125 -1.74788,0.24039 -3.1875,0.6734 -3.1875,0.96875 0,0.29536 -1.27065,0.73285 -2.84375,0.96875 -1.57309,0.2359 -2.875,0.663 -2.875,0.96875 0,0.30576 -1.13294,0.74515 -2.53125,0.96875 -1.3983,0.2236 -2.53125,0.66385 -2.53125,0.96875 0,0.3049 -0.71981,0.53125 -1.59375,0.53125 -0.87395,0 -1.59375,0.29684 -1.59375,0.625 0,0.32815 -1.3019,0.7641 -2.875,1 -1.57309,0.23589 -2.84375,0.69425 -2.84375,1 0,0.30575 -1.13294,0.74516 -2.53125,0.96875 -1.3983,0.2236 -2.5625,0.63416 -2.5625,0.90625 0,0.2721 -1.40837,0.66586 -3.15625,0.90625 -1.74788,0.2404 -3.1875,0.71448 -3.1875,1.03125 0,0.31678 -0.44439,0.5625 -0.96875,0.5625 -0.52437,0 -0.9375,-0.272 -0.9375,-0.59375 0,-0.32175 -1.85275,-0.75667 -4.125,-1 -2.27225,-0.24334 -4.15625,-0.69422 -4.15625,-0.96875 0,-0.27452 -1.71504,-0.69406 -3.8125,-0.9375 -2.09745,-0.24343 -3.8125,-0.67865 -3.8125,-0.96875 0,-0.2901 -1.57733,-0.72853 -3.5,-0.96875 -1.92267,-0.24022 -3.46875,-0.69071 -3.46875,-1 0,-0.3093 -1.02648,-0.5625 -2.25,-0.5625 -1.22351,0 -2.21875,-0.24725 -2.21875,-0.5625 0,-0.31525 -1.71504,-0.75657 -3.8125,-1 -2.09746,-0.24344 -3.8125,-0.67865 -3.8125,-0.96875 0,-0.29009 -1.57733,-0.72853 -3.5,-0.96875 -1.92267,-0.24023 -3.5,-0.66893 -3.5,-0.9375 0,-0.26858 -1.85276,-0.69416 -4.125,-0.9375 -2.27225,-0.24334 -4.125,-0.7095 -4.125,-1.03125 0,-0.32175 -0.71981,-0.5625 -1.59375,-0.5625 -0.87394,0 -1.59375,-0.2785 -1.59375,-0.59375 0,-0.31526 -1.71505,-0.75656 -3.8125,-1 -2.09746,-0.24344 -3.8125,-0.66799 -3.8125,-0.9375 0,-0.26952 -0.96934,-0.65114 -2.15625,-0.84375 -3.07379,-0.49881 -4.8125,-2.21319 -4.8125,-4.71875 0,-1.14582 -0.30668,-2.09375 -0.65625,-2.09375 -0.34958,0 -0.625,-0.64134 -0.625,-1.4375 0,-0.79616 -0.459,-2.1205 -1.03125,-2.9375 -0.89955,-1.2843 -1.44072,-1.43415 -3.90625,-1.15625 -1.56844,0.17679 -3.03105,0.60028 -3.25,0.9375 -0.21895,0.33722 -1.47034,0.7902 -2.78125,1.03125 -1.31091,0.24105 -2.375,0.72876 -2.375,1.0625 0,0.33374 -0.44439,0.59375 -0.96875,0.59375 -0.52437,0 -0.9375,0.26774 -0.9375,0.59375 0,0.32602 -0.5821,0.77809 -1.28125,1 -1.01932,0.32351 -1.28125,0.95963 -1.28125,3.21875 0,1.54954 0.30667,2.8125 0.65625,2.8125 0.34957,0 0.625,1.30627 0.625,2.90625 0,2.38483 -0.34308,3.28059 -1.90625,4.84375 -1.06941,1.06941 -1.90625,2.57375 -1.90625,3.4375 0,0.84705 -0.27543,1.53125 -0.625,1.53125 -1.16258,0 -0.73564,5.67141 0.53125,7.03125 1.32142,1.41838 4.51698,2.5 7.40625,2.5 1.06065,0 2.60792,0.47207 3.40625,1.03125 1.33848,0.93747 1.5314,0.92422 2.65625,-0.0937 0.67091,-0.60717 1.40671,-2.05515 1.625,-3.21875 0.24658,-1.31438 0.85462,-2.25549 1.625,-2.5 1.70632,-0.54157 11.96875,0.36974 11.96875,1.0625 0,0.30823 1.16419,0.5625 2.5625,0.5625 1.3983,0 2.53125,0.22684 2.53125,0.53125 0,0.3044 1.99047,0.75888 4.4375,1 2.44704,0.24113 4.46875,0.68141 4.46875,0.96875 0,0.28734 2.12817,0.72307 4.75,0.96875 2.62182,0.24569 4.78125,0.68448 4.78125,0.96875 0,0.28427 1.99046,0.69175 4.4375,0.9375 2.44703,0.24575 4.46875,0.71715 4.46875,1.03125 0,0.31409 0.41314,0.5625 0.9375,0.5625 2.60636,0 -0.22872,2.4244 -3.4375,2.9375 -1.43295,0.22914 -2.59375,0.63416 -2.59375,0.90625 0,0.2721 -1.43962,0.69711 -3.1875,0.9375 -1.74788,0.2404 -3.1875,0.68323 -3.1875,1 0,0.31678 -0.55085,0.59375 -1.25,0.59375 -0.69916,0 -1.28125,0.26933 -1.28125,0.59375 0,0.32443 -1.57733,0.75978 -3.5,1 -1.92267,0.24022 -3.5,0.68461 -3.5,0.96875 0,0.28414 -1.54608,0.69728 -3.46875,0.9375 -1.92267,0.24022 -3.5,0.68928 -3.5,0.96875 0,0.27948 -2.15943,0.69182 -4.78125,0.9375 -2.62182,0.24569 -4.75,0.6915 -4.75,1 0,0.85872 -5.01128,0.68146 -6.09375,-0.21875 -0.52544,-0.43697 -1.95518,-1.75456 -3.15625,-2.9375 -1.88849,-1.85998 -2.49769,-2.09604 -4.4375,-1.78125 -2.285,0.3708 -4.125,1.67405 -4.125,2.9375 0,0.38551 -0.41313,0.86128 -0.9375,1.0625 -0.52436,0.20121 -0.96875,0.7776 -0.96875,1.28125 0,0.50366 -0.73766,1.61742 -1.65625,2.46875 -1.21616,1.12709 -1.7028,2.23037 -1.75,4.03125 -0.0572,2.18062 0.3192,2.84899 3.25,5.71875 2.5071,2.45489 3.34375,3.72441 3.34375,5.125 0,1.02133 -0.33021,1.96424 -0.71875,2.09375 -1.15196,0.38399 1.3467,8.16671 3.15625,9.84375 1.78899,1.65797 3.49619,1.83614 5.9375,0.5625 0.94347,-0.49221 3.32932,-1.36097 5.3125,-1.9375 l 3.625,-1.0625 -0.4375,-3.75 c -0.51814,-4.57976 0.56939,-6.02309 5,-6.6875 1.59829,-0.23969 2.90625,-0.6747 2.90625,-0.96875 0,-0.29404 0.99523,-0.70797 2.21875,-0.9375 1.22352,-0.22953 2.21875,-0.68933 2.21875,-1 0,-0.31067 0.71981,-0.5625 1.59375,-0.5625 0.87394,0 1.59375,-0.24573 1.59375,-0.5625 0,-0.31678 1.43962,-0.79085 3.1875,-1.03125 1.74788,-0.24039 3.15625,-0.65145 3.15625,-0.9375 0,-0.28605 1.16602,-0.73282 2.5625,-0.96875 1.39647,-0.23594 2.67775,-0.68084 2.875,-1 0.19725,-0.31916 0.98408,-0.59175 1.75,-0.59375 0.76591,-0.002 2.21745,-0.41529 3.21875,-0.9375 1.00129,-0.52221 2.23434,-0.96875 2.71875,-0.96875 0.4844,0 0.875,-0.26559 0.875,-0.59375 0,-0.32816 1.27066,-0.7641 2.84375,-1 1.5731,-0.2359 2.875,-0.69012 2.875,-1 0,-0.30989 0.50003,-0.5625 1.125,-0.5625 1.41725,0 12.41082,-3.79909 12.84375,-4.4375 0.17479,-0.25774 1.4767,-0.681 2.875,-0.9375 1.39831,-0.25649 2.83792,-0.70164 3.1875,-0.96875 1.60769,-1.22844 5.98013,-1.73212 9.75,-1.125 2.15251,0.34665 3.90625,0.85797 3.90625,1.125 0,0.26703 1.71505,0.69407 3.8125,0.9375 2.09746,0.24344 3.8125,0.66049 3.8125,0.9375 0,0.27701 0.92638,0.68084 2.0625,0.875 4.80943,0.82194 9.95438,2.01505 10.375,2.4375 0.24895,0.25004 2.10491,0.64292 4.15625,0.875 2.05133,0.23208 3.75,0.6674 3.75,0.9375 0,0.2701 1.71504,0.69406 3.8125,0.9375 2.09745,0.24343 3.8125,0.68475 3.8125,1 0,0.31526 0.85753,0.5625 1.90625,0.5625 1.04873,0 1.90625,0.25365 1.90625,0.5625 0,0.30885 1.85275,0.78791 4.125,1.03125 2.27225,0.24334 4.125,0.67482 4.125,0.96875 0,0.29393 1.88401,0.72541 4.15625,0.96875 2.27225,0.24333 4.125,0.69114 4.125,1 0,0.30885 0.77896,0.5625 1.75,0.5625 2.60405,0 3.8718,1.8874 4.09375,6.15625 l 0.1875,3.6875 3.8125,0.53125 c 2.09422,0.29112 3.98119,0.82243 4.1875,1.15625 0.20632,0.33383 1.36029,0.76859 2.59375,0.96875 1.89811,0.30802 2.51699,0.0632 3.9375,-1.46875 0.92311,-0.99552 1.6875,-2.2803 1.6875,-2.875 0,-0.59471 0.27543,-1.25269 0.625,-1.46875 0.34958,-0.21605 0.625,-1.804 0.625,-3.53125 0,-1.72725 -0.27542,-3.15625 -0.625,-3.15625 -0.9041,0 -0.79101,-3.05102 0.15625,-4.1875 0.43697,-0.52426 1.59177,-1.73097 2.5625,-2.6875 1.00523,-0.99052 1.91059,-2.74119 2.125,-4.0625 0.43218,-2.66319 -0.6602,-4.58058 -5.53125,-9.5625 -3.95379,-4.04378 -5.22456,-3.98968 -9.71875,0.46875 -3.33595,3.3094 -3.68407,3.5 -6.71875,3.5 -1.76306,0 -3.21875,-0.27543 -3.21875,-0.625 0,-0.34958 -1.57733,-0.625 -3.5,-0.625 -1.92267,0 -3.5,-0.28056 -3.5,-0.59375 0,-0.3132 -2.26589,-0.75244 -5.0625,-1 -2.79661,-0.24755 -5.09375,-0.66947 -5.09375,-0.9375 0,-0.26802 -1.99047,-0.69637 -4.4375,-0.9375 -2.44703,-0.24112 -4.46875,-0.65426 -4.46875,-0.9375 0,-0.28324 -1.99047,-0.72762 -4.4375,-0.96875 -2.44704,-0.24112 -4.46875,-0.70284 -4.46875,-1.03125 0,-0.32841 -0.68856,-0.59375 -1.5625,-0.59375 -1.13338,0 -1.59375,-0.33227 -1.59375,-1.1875 0,-0.93379 0.61627,-1.32222 2.84375,-1.65625 1.57309,-0.2359 2.875,-0.64215 2.875,-0.9375 0,-0.29535 1.43962,-0.7596 3.1875,-1 1.74788,-0.24039 3.15625,-0.68323 3.15625,-1 0,-0.31677 0.71981,-0.5625 1.59375,-0.5625 0.87394,0 1.59375,-0.2532 1.59375,-0.5625 0,-0.3093 1.57733,-0.75977 3.5,-1 1.92267,-0.24022 3.5,-0.69699 3.5,-1 0,-0.303 1.33951,-0.75969 3,-1 1.66049,-0.2403 3.30667,-0.64897 3.65625,-0.90625 0.34958,-0.25728 1.51377,-0.64387 2.5625,-0.875 4.17584,-0.92032 7.28125,-1.96602 7.28125,-2.4375 0,-0.27326 1.31727,-0.5 2.90625,-0.5 3.25584,0 5.47204,1.64987 6.21875,4.625 0.28739,1.14506 0.88032,1.71875 1.71875,1.71875 0.69249,0 1.25,-0.26002 1.25,-0.59375 0,-0.33374 1.06409,-0.79027 2.375,-1 1.31091,-0.20973 2.89298,-0.63827 3.5,-0.96875 0.60701,-0.33048 1.53339,-0.59375 2.0625,-0.59375 2.07379,0 3.503,-2.39763 3.5,-5.875 -0.002,-3.32848 -1.74747,-7.46875 -3.15625,-7.46875 -1.32327,0 -3.1875,-2.6216 -3.1875,-4.46875 0,-1.04873 0.27543,-1.90625 0.625,-1.90625 0.34958,0 0.625,-1.40837 0.625,-3.15625 0,-3.30939 -1.4776,-5.71875 -3.5,-5.71875 -0.52436,0 -0.9375,-0.29685 -0.9375,-0.625 0,-0.32816 -1.30191,-0.7641 -2.875,-1 -1.5731,-0.2359 -2.84375,-0.69012 -2.84375,-1 0,-0.30989 -1.55223,-0.5625 -3.4375,-0.5625 z"
     id="path3223" />
  <path
     id="path3268"
     d="m -210.92817,80.119753 c -5.24364,0 -9.53125,0.226842 -9.53125,0.53125 0,0.304407 -1.99047,0.758875 -4.4375,1 -2.44704,0.241124 -4.46875,0.680034 -4.46875,0.96875 0,0.288717 -1.27066,0.701601 -2.84375,0.9375 -1.5731,0.2359 -2.875,0.703093 -2.875,1.03125 0,0.328157 -0.55085,0.59375 -1.25,0.59375 -0.69915,0 -1.28125,0.27195 -1.28125,0.59375 0,0.321801 -0.85752,0.76966 -1.90625,1 -1.04872,0.230339 -1.90625,0.674726 -1.90625,0.96875 0,0.294025 -0.85752,0.707161 -1.90625,0.9375 -1.04872,0.23034 -1.90625,0.653596 -1.90625,0.9375 0,0.283903 -0.71185,0.692752 -1.5625,0.90625 -0.85064,0.213497 -1.71585,0.95791 -1.9375,1.65625 -0.22164,0.69834 -0.84056,1.28125 -1.375,1.28125 -1.09541,0 -11.03125,9.681257 -11.03125,10.749997 0,0.3795 -0.26773,0.6875 -0.59375,0.6875 -0.32602,0 -0.7829,0.65096 -1.03125,1.4375 -0.24835,0.78655 -0.968,1.86118 -1.59375,2.40625 -0.62575,0.54508 -1.32642,1.77813 -1.5625,2.71875 -0.23608,0.94063 -0.65359,1.6875 -0.9375,1.6875 -0.2839,0 -0.70716,0.85752 -0.9375,1.90625 -0.23034,1.04874 -0.67819,1.90626 -1,1.90626 -0.3218,0 -0.59375,0.71981 -0.59375,1.59375 0,0.87394 -0.26932,1.59375 -0.59375,1.59375 -0.32442,0 -0.79103,1.57733 -1.03125,3.5 -0.24022,1.92267 -0.70352,3.5 -1.03125,3.5 -1.42672,0 0.5684,27.34673 2.03125,27.84375 0.34297,0.11653 0.625,0.76748 0.625,1.4375 0,0.67002 0.2576,1.21875 0.5625,1.21875 0.3049,0 0.7139,1.13295 0.9375,2.53125 0.2236,1.39831 0.67811,2.5625 1,2.5625 0.32188,0 0.76069,0.53197 0.96875,1.1875 0.52491,1.65384 4.65904,5.78125 5.78125,5.78125 0.50754,0 0.90625,0.27195 0.90625,0.59375 0,0.3218 0.85753,0.76966 1.90625,1 1.04873,0.23034 1.90625,0.6782 1.90625,1 0,0.32179 0.31295,0.59375 0.6875,0.59375 1.62614,0 2.82701,2.17139 2.71875,4.96875 -0.0605,1.56432 -0.39158,3.00806 -0.71875,3.21875 -0.32716,0.21068 -0.82473,1.12606 -1.09375,2 -0.26902,0.87394 -0.72145,1.73754 -1.03125,1.9375 -0.3098,0.19996 -0.75076,2.29053 -0.96875,4.625 -0.34324,3.67569 -0.24897,4.21875 0.65625,4.21875 0.57492,0 1.03125,0.30668 1.03125,0.65625 0,0.34958 0.37553,0.623 0.8125,0.625 0.43697,0.002 1.51164,0.37689 2.40625,0.84375 0.8946,0.46686 2.83733,1.04536 4.3125,1.28125 2.32143,0.37121 2.89065,0.23434 4.25,-1.125 0.8638,-0.86381 1.5625,-2.15996 1.5625,-2.875 0,-0.71505 0.30667,-1.3125 0.65625,-1.3125 0.34958,0 0.62,-0.34428 0.625,-0.78125 0.005,-0.43697 0.28125,-1.19384 0.59375,-1.6875 0.48258,-0.76235 0.70376,-0.76499 1.5625,0.0937 1.13881,1.13882 1.33362,2.375 0.375,2.375 -0.34958,0 -0.625,0.78536 -0.625,1.75 0,2.63719 1.88481,3.44261 8.71875,3.6875 3.29377,0.11804 6.38172,0.55404 6.84375,0.9375 0.49925,0.41437 2.8493,0.61097 5.8125,0.5 4.62076,-0.17304 4.99927,-0.2997 5.1875,-1.625 0.1117,-0.78655 0.48724,-1.4375 0.8125,-1.4375 0.32526,0 0.59375,-0.41313 0.59375,-0.9375 0,-0.52436 0.53303,-0.96875 1.1875,-0.96875 0.90002,0 1.28118,0.63901 1.59375,2.59375 0.2273,1.42144 0.75836,2.98082 1.1875,3.46875 0.84504,0.96081 6.1875,1.28362 6.1875,0.375 0,-0.30454 1.39976,-0.71279 3.09375,-0.9375 3.37995,-0.44837 4.53125,-1.88734 4.53125,-5.53125 0,-1.03228 0.13505,-1.875 0.28125,-1.875 1.22976,0 2.28125,1.01708 2.28125,2.21875 0,0.79914 0.45831,1.65514 1.03125,1.875 1.10467,0.4239 6.59375,-1.91685 6.59375,-2.8125 0,-0.29062 0.85752,-0.73841 1.90625,-0.96875 1.11551,-0.24501 1.90625,-0.8003 1.90625,-1.375 0,-0.75791 0.42894,-0.89546 1.9375,-0.59375 2.35697,0.4714 7.22267,-1.54506 8.21875,-3.40625 0.72369,-1.35221 -0.27951,-4.64493 -1.96875,-6.40625 -0.88763,-0.92551 -2.46975,-4.05823 -2.46875,-4.90625 0.001,-0.74284 2.97041,-3.96875 3.65625,-3.96875 0.66162,0 4.37641,-3.95367 7.15625,-7.625 2.09609,-2.7683 4.4375,-7.4323 4.4375,-8.8125 0,-0.60572 0.26045,-1.3554 0.5625,-1.6875 1.0835,-1.19129 1.96875,-6.67009 1.96875,-12 0,-5.37453 -1.16035,-14.38728 -1.9375,-15 -0.2217,-0.17479 -0.56513,-1.84647 -0.78125,-3.71875 -0.21612,-1.87229 -0.65267,-3.72505 -0.96875,-4.125 -0.31609,-0.39996 -0.78697,-1.83356 -1.03125,-3.1875 -0.452,-2.50522 -0.60029,-2.92755 -2.46875,-6.65626 -0.58352,-1.1644 -1.0625,-2.50179 -1.0625,-2.9687 0,-0.4669 -0.20657,-0.94597 -0.46875,-1.0625 -0.26218,-0.11652 -1.05738,-1.35169 -1.75,-2.75 -2.32679,-4.69744 -7.55858,-10.693873 -10,-11.468747 -0.61928,-0.196553 -1.125,-0.608006 -1.125,-0.90625 0,-0.298243 -0.85752,-0.73841 -1.90625,-0.96875 -1.04873,-0.230339 -1.90625,-0.68233 -1.90625,-1 0,-0.317669 -1.16419,-0.745151 -2.5625,-0.96875 -1.3983,-0.223597 -2.53125,-0.663853 -2.53125,-0.96875 0,-0.304898 -0.41313,-0.5625 -0.9375,-0.5625 -0.52436,0 -0.96875,-0.252616 -0.96875,-0.5625 0,-0.309884 -1.27065,-0.732851 -2.84375,-0.96875 -1.57309,-0.2359 -2.875,-0.676072 -2.875,-0.96875 0,-0.292677 -1.99047,-0.754254 -4.4375,-1 -2.44703,-0.245746 -4.46875,-0.685903 -4.46875,-1 0,-0.314098 -4.28761,-0.5625 -9.53125,-0.5625 z m -14.5,28.218747 c 4.24723,0.0194 8.44746,0.31243 8.625,0.84375 0.14602,0.43697 0.741,0.8125 1.3125,0.8125 1.1653,0 3.9375,2.9207 3.9375,4.15625 0,0.44086 0.34428,0.91634 0.78125,1.0625 0.9889,0.33079 1.04786,11.1747 0.0625,11.81251 -0.36013,0.2331 -0.8527,1.50159 -1.09375,2.8125 -0.24105,1.31092 -0.70418,2.375 -1.03125,2.375 -0.32708,0 -0.78066,0.71981 -1,1.59375 -0.21935,0.87394 -0.65707,1.59375 -0.96875,1.59375 -0.31168,0 -0.5625,0.44439 -0.5625,0.96875 0,0.52437 -0.25082,0.9375 -0.5625,0.9375 -0.31168,0 -0.74941,0.71981 -0.96875,1.59375 -0.21935,0.87394 -0.65361,1.59375 -0.96875,1.59375 -0.31515,0 -0.77608,0.82423 -1,1.84375 -0.22393,1.01953 -0.8095,2.02573 -1.3125,2.21875 -0.503,0.19302 -0.90625,0.90718 -0.90625,1.59375 0,0.68657 -0.55435,1.41412 -1.21875,1.625 -0.6644,0.21087 -1.37755,1.07608 -1.59375,1.9375 -0.21621,0.86142 -0.68834,1.59375 -1.03125,1.59375 -0.34292,0 -0.625,0.40971 -0.625,0.9375 0,0.52778 -0.55085,1.46387 -1.25,2.0625 -0.69915,0.59864 -1.28125,1.45957 -1.28125,1.90625 0,0.44667 -0.52575,0.8125 -1.1875,0.8125 -0.66175,0 -1.39253,0.41314 -1.59375,0.9375 -0.20122,0.52437 -0.80841,0.96875 -1.34375,0.96875 -0.53533,0 -0.96875,0.27542 -0.96875,0.625 0,0.34957 -0.41101,0.625 -0.90625,0.625 -0.49523,0 -0.97551,0.30152 -1.09375,0.65625 -0.23728,0.71185 -7.64224,1.34048 -9.90625,0.84375 -0.78654,-0.17257 -1.4375,-0.58099 -1.4375,-0.90625 0,-0.32527 -0.41314,-0.59375 -0.9375,-0.59375 -0.52437,0 -0.96875,-0.26774 -0.96875,-0.59375 0,-0.32602 -0.63601,-0.78679 -1.40625,-1.03125 -1.54139,-0.48923 -3.03125,-1.78326 -3.03125,-2.625 0,-0.29685 -0.5821,-1.02636 -1.28125,-1.625 -0.69915,-0.59863 -1.28125,-1.53472 -1.28125,-2.0625 0,-0.52779 -0.27542,-0.9375 -0.625,-0.9375 -0.34958,0 -0.625,-0.41102 -0.625,-0.90625 0,-0.49523 -0.37553,-1.01059 -0.8125,-1.15625 -1.13577,-0.37859 -1.13577,-17.12141 0,-17.5 0.43697,-0.14565 0.8125,-0.66102 0.8125,-1.15625 0,-0.49523 0.2407,-0.90625 0.5625,-0.90625 0.3218,0 0.80091,-0.85752 1.03125,-1.90625 0.23034,-1.04873 0.6782,-1.90625 1,-1.90625 0.3218,0 0.5625,-0.40878 0.5625,-0.90625 0,-0.49748 0.85752,-1.76377 1.90625,-2.8125 1.04873,-1.04873 1.90625,-2.05232 1.90625,-2.25 0,-0.61235 2.17625,-2.9375 2.75,-2.9375 0.29878,0 1.38877,-0.85752 2.4375,-1.90626 1.04873,-1.04873 2.31503,-1.90625 2.8125,-1.90625 0.49747,0 0.90625,-0.27542 0.90625,-0.625 0,-0.34957 0.44438,-0.625 0.96875,-0.625 0.52436,0 0.9375,-0.27195 0.9375,-0.59375 0,-0.3218 0.92637,-0.78476 2.0625,-1.03125 1.13612,-0.24648 2.28207,-0.76319 2.53125,-1.15625 0.33536,-0.52898 4.62777,-0.80062 8.875,-0.78125 z m 33.46875,12.09376 c 3.61252,-0.0207 7.25938,0.22739 7.59375,0.75 0.24943,0.38985 1.15731,0.91701 2.03125,1.1875 0.87394,0.27049 2.23015,1.17464 3,2 0.76986,0.82535 1.57501,1.5 1.78125,1.5 0.20623,0 0.70278,0.30124 1.125,0.65625 2.88643,2.42694 4.28125,3.82035 4.28125,4.3125 0,0.31278 0.5821,1.22512 1.28125,2.03125 0.69915,0.80613 1.25,1.84162 1.25,2.3125 0,0.47088 0.30668,0.84375 0.65625,0.84375 0.34958,0 0.625,0.41102 0.625,0.90625 0,0.49523 0.32745,1.01542 0.75,1.15625 1.10316,0.36772 1.13298,13.3188 0.0312,13.6875 -0.43697,0.14623 -0.78125,0.79873 -0.78125,1.46875 0,0.67002 -0.27542,1.21875 -0.625,1.21875 -0.34957,0 -0.65625,0.34834 -0.65625,0.75 0,0.90338 -4.14768,4.96875 -5.0625,4.96875 -0.36691,0 -0.65625,0.26774 -0.65625,0.59375 0,0.32602 -0.65095,0.81704 -1.4375,1.0625 -0.78654,0.24546 -1.574,0.70965 -1.78125,1.03125 -0.41994,0.65167 -10.7383,1.19768 -13.46875,0.71875 -0.96134,-0.16862 -1.75,-0.52404 -1.75,-0.8125 0,-0.28846 -0.71981,-0.71816 -1.59375,-0.9375 -0.87394,-0.21935 -1.5625,-0.68834 -1.5625,-1.03125 0,-0.34292 -0.43669,-0.625 -0.9375,-0.625 -0.50081,0 -1.10453,-0.59002 -1.34375,-1.34375 -0.23922,-0.75373 -1.10444,-2.00919 -1.9375,-2.78125 -0.83306,-0.77205 -1.5,-1.72811 -1.5,-2.125 0,-0.39688 -0.3108,-0.71875 -0.65625,-0.71875 -0.34544,0 -0.80766,-1.16419 -1.03125,-2.5625 -0.2236,-1.3983 -0.61872,-2.53125 -0.90625,-2.53125 -0.28755,0 -0.73145,-1.71504 -0.96875,-3.8125 -0.2373,-2.09746 -0.66433,-3.8125 -0.96875,-3.8125 -0.77357,0 -0.71604,-7.45634 0.0625,-7.9375 0.34957,-0.21605 0.65625,-0.97442 0.65625,-1.6875 0,-3.08029 3.9324,-8.8125 6.0625,-8.8125 0.44086,0 0.91684,-0.34428 1.0625,-0.78125 0.17517,-0.52553 3.76248,-0.82307 7.375,-0.84375 z m -19.5625,40.40625 c 0.80795,0 3.15625,2.34287 3.15625,3.15625 0,0.34958 0.23649,0.65625 0.5625,0.65625 0.32602,0 0.81803,0.63601 1.0625,1.40625 0.24446,0.77025 0.83425,1.77175 1.3125,2.25 0.47824,0.47825 0.875,1.27417 0.875,1.75 0,0.47584 0.52997,1.04131 1.1875,1.25 1.262,0.40055 2.19237,3.45234 1.5625,5.09375 -0.30667,0.79918 -2.01449,0.96875 -10.15625,0.96875 l -9.78125,0 0,-2.25 c 0,-1.22352 0.28207,-2.21875 0.59375,-2.21875 0.31168,0 0.71816,-0.71981 0.9375,-1.59375 0.21935,-0.87394 0.68833,-1.59375 1.03125,-1.59375 0.34291,0 0.625,-0.43341 0.625,-0.96875 0,-0.53534 0.44439,-1.14254 0.96875,-1.34375 0.52436,-0.20123 0.9375,-0.74344 0.9375,-1.21875 0,-0.98215 4.18867,-5.34375 5.125,-5.34375 z m 73.4375,17.15625 c -3.6412,0 -4.1875,0.45504 -4.1875,3.53125 0,0.84535 -0.30667,1.5625 -0.65625,1.5625 -0.34957,0 -0.625,1.36106 -0.625,3.03125 0,3.6134 -1.13378,4.87806 -5,5.53125 -1.43804,0.24296 -2.625,0.68115 -2.625,1 0,0.31885 -0.41313,0.59375 -0.9375,0.59375 -0.52436,0 -0.96875,0.24573 -0.96875,0.5625 0,0.31677 -1.43962,0.79086 -3.1875,1.03125 -1.74789,0.2404 -3.15625,0.68736 -3.15625,1 0,0.31264 -1.1642,0.74516 -2.5625,0.96875 -1.39831,0.2236 -2.53125,0.65402 -2.53125,0.9375 0,0.28348 -1.3019,0.7016 -2.875,0.9375 -1.57309,0.2359 -2.84375,0.69011 -2.84375,1 0,0.30988 -0.44439,0.5625 -0.96875,0.5625 -0.52437,0 -0.9375,0.24573 -0.9375,0.5625 0,0.31678 -1.43962,0.79085 -3.1875,1.03125 -1.74788,0.24039 -3.1875,0.6734 -3.1875,0.96875 0,0.29536 -1.27065,0.73285 -2.84375,0.96875 -1.57309,0.2359 -2.875,0.663 -2.875,0.96875 0,0.30576 -1.13294,0.74515 -2.53125,0.96875 -1.3983,0.2236 -2.53125,0.66385 -2.53125,0.96875 0,0.3049 -0.71981,0.53125 -1.59375,0.53125 -0.87395,0 -1.59375,0.29684 -1.59375,0.625 0,0.32815 -1.3019,0.7641 -2.875,1 -1.57309,0.23589 -2.84375,0.69425 -2.84375,1 0,0.30575 -1.13294,0.74516 -2.53125,0.96875 -1.3983,0.2236 -2.5625,0.63416 -2.5625,0.90625 0,0.2721 -1.40837,0.66586 -3.15625,0.90625 -1.74788,0.2404 -3.1875,0.71448 -3.1875,1.03125 0,0.31678 -0.44439,0.5625 -0.96875,0.5625 -0.52437,0 -0.9375,-0.272 -0.9375,-0.59375 0,-0.32175 -1.85275,-0.75667 -4.125,-1 -2.27225,-0.24334 -4.15625,-0.69422 -4.15625,-0.96875 0,-0.27452 -1.71504,-0.69406 -3.8125,-0.9375 -2.09745,-0.24343 -3.8125,-0.67865 -3.8125,-0.96875 0,-0.2901 -1.57733,-0.72853 -3.5,-0.96875 -1.92267,-0.24022 -3.46875,-0.69071 -3.46875,-1 0,-0.3093 -1.02648,-0.5625 -2.25,-0.5625 -1.22351,0 -2.21875,-0.24725 -2.21875,-0.5625 0,-0.31525 -1.71504,-0.75657 -3.8125,-1 -2.09746,-0.24344 -3.8125,-0.67865 -3.8125,-0.96875 0,-0.29009 -1.57733,-0.72853 -3.5,-0.96875 -1.92267,-0.24023 -3.5,-0.66893 -3.5,-0.9375 0,-0.26858 -1.85276,-0.69416 -4.125,-0.9375 -2.27225,-0.24334 -4.125,-0.7095 -4.125,-1.03125 0,-0.32175 -0.71981,-0.5625 -1.59375,-0.5625 -0.87394,0 -1.59375,-0.2785 -1.59375,-0.59375 0,-0.31526 -1.71505,-0.75656 -3.8125,-1 -2.09746,-0.24344 -3.8125,-0.66799 -3.8125,-0.9375 0,-0.26952 -0.96934,-0.65114 -2.15625,-0.84375 -3.07379,-0.49881 -4.8125,-2.21319 -4.8125,-4.71875 0,-1.14582 -0.30668,-2.09375 -0.65625,-2.09375 -0.34958,0 -0.625,-0.64134 -0.625,-1.4375 0,-0.79616 -0.459,-2.1205 -1.03125,-2.9375 -0.89955,-1.2843 -1.44072,-1.43415 -3.90625,-1.15625 -1.56844,0.17679 -3.03105,0.60028 -3.25,0.9375 -0.21895,0.33722 -1.47034,0.7902 -2.78125,1.03125 -1.31091,0.24105 -2.375,0.72876 -2.375,1.0625 0,0.33374 -0.44439,0.59375 -0.96875,0.59375 -0.52437,0 -0.9375,0.26774 -0.9375,0.59375 0,0.32602 -0.5821,0.77809 -1.28125,1 -1.01932,0.32351 -1.28125,0.95963 -1.28125,3.21875 0,1.54954 0.30667,2.8125 0.65625,2.8125 0.34957,0 0.625,1.30627 0.625,2.90625 0,2.38483 -0.34308,3.28059 -1.90625,4.84375 -1.06941,1.06941 -1.90625,2.57375 -1.90625,3.4375 0,0.84705 -0.27543,1.53125 -0.625,1.53125 -1.16258,0 -0.73564,5.67141 0.53125,7.03125 1.32142,1.41838 4.51698,2.5 7.40625,2.5 1.06065,0 2.60792,0.47207 3.40625,1.03125 1.33848,0.93747 1.5314,0.92422 2.65625,-0.0937 0.67091,-0.60717 1.40671,-2.05515 1.625,-3.21875 0.24658,-1.31438 0.85462,-2.25549 1.625,-2.5 1.70632,-0.54157 11.96875,0.36974 11.96875,1.0625 0,0.30823 1.16419,0.5625 2.5625,0.5625 1.3983,0 2.53125,0.22684 2.53125,0.53125 0,0.3044 1.99047,0.75888 4.4375,1 2.44704,0.24113 4.46875,0.68141 4.46875,0.96875 0,0.28734 2.12817,0.72307 4.75,0.96875 2.62182,0.24569 4.78125,0.68448 4.78125,0.96875 0,0.28427 1.99046,0.69175 4.4375,0.9375 2.44703,0.24575 4.46875,0.71715 4.46875,1.03125 0,0.31409 0.41314,0.5625 0.9375,0.5625 2.60636,0 -0.22872,2.4244 -3.4375,2.9375 -1.43295,0.22914 -2.59375,0.63416 -2.59375,0.90625 0,0.2721 -1.43962,0.69711 -3.1875,0.9375 -1.74788,0.2404 -3.1875,0.68323 -3.1875,1 0,0.31678 -0.55085,0.59375 -1.25,0.59375 -0.69916,0 -1.28125,0.26933 -1.28125,0.59375 0,0.32443 -1.57733,0.75978 -3.5,1 -1.92267,0.24022 -3.5,0.68461 -3.5,0.96875 0,0.28414 -1.54608,0.69728 -3.46875,0.9375 -1.92267,0.24022 -3.5,0.68928 -3.5,0.96875 0,0.27948 -2.15943,0.69182 -4.78125,0.9375 -2.62182,0.24569 -4.75,0.6915 -4.75,1 0,0.85872 -5.01128,0.68146 -6.09375,-0.21875 -0.52544,-0.43697 -1.95518,-1.75456 -3.15625,-2.9375 -1.88849,-1.85998 -2.49769,-2.09604 -4.4375,-1.78125 -2.285,0.3708 -4.125,1.67405 -4.125,2.9375 0,0.38551 -0.41313,0.86128 -0.9375,1.0625 -0.52436,0.20121 -0.96875,0.7776 -0.96875,1.28125 0,0.50366 -0.73766,1.61742 -1.65625,2.46875 -1.21616,1.12709 -1.7028,2.23037 -1.75,4.03125 -0.0572,2.18062 0.3192,2.84899 3.25,5.71875 2.5071,2.45489 3.34375,3.72441 3.34375,5.125 0,1.02133 -0.33021,1.96424 -0.71875,2.09375 -1.15196,0.38399 1.3467,8.16671 3.15625,9.84375 1.78899,1.65797 3.49619,1.83614 5.9375,0.5625 0.94347,-0.49221 3.32932,-1.36097 5.3125,-1.9375 l 3.625,-1.0625 -0.4375,-3.75 c -0.51814,-4.57976 0.56939,-6.02309 5,-6.6875 1.59829,-0.23969 2.90625,-0.6747 2.90625,-0.96875 0,-0.29404 0.99523,-0.70797 2.21875,-0.9375 1.22352,-0.22953 2.21875,-0.68933 2.21875,-1 0,-0.31067 0.71981,-0.5625 1.59375,-0.5625 0.87394,0 1.59375,-0.24573 1.59375,-0.5625 0,-0.31678 1.43962,-0.79085 3.1875,-1.03125 1.74788,-0.24039 3.15625,-0.65145 3.15625,-0.9375 0,-0.28605 1.16602,-0.73282 2.5625,-0.96875 1.39647,-0.23594 2.67775,-0.68084 2.875,-1 0.19725,-0.31916 0.98408,-0.59175 1.75,-0.59375 0.76591,-0.002 2.21745,-0.41529 3.21875,-0.9375 1.00129,-0.52221 2.23434,-0.96875 2.71875,-0.96875 0.4844,0 0.875,-0.26559 0.875,-0.59375 0,-0.32816 1.27066,-0.7641 2.84375,-1 1.5731,-0.2359 2.875,-0.69012 2.875,-1 0,-0.30989 0.50003,-0.5625 1.125,-0.5625 1.41725,0 12.41082,-3.79909 12.84375,-4.4375 0.17479,-0.25774 1.4767,-0.681 2.875,-0.9375 1.39831,-0.25649 2.83792,-0.70164 3.1875,-0.96875 1.60769,-1.22844 5.98013,-1.73212 9.75,-1.125 2.15251,0.34665 3.90625,0.85797 3.90625,1.125 0,0.26703 1.71505,0.69407 3.8125,0.9375 2.09746,0.24344 3.8125,0.66049 3.8125,0.9375 0,0.27701 0.92638,0.68084 2.0625,0.875 4.80943,0.82194 9.95438,2.01505 10.375,2.4375 0.24895,0.25004 2.10491,0.64292 4.15625,0.875 2.05133,0.23208 3.75,0.6674 3.75,0.9375 0,0.2701 1.71504,0.69406 3.8125,0.9375 2.09745,0.24343 3.8125,0.68475 3.8125,1 0,0.31526 0.85753,0.5625 1.90625,0.5625 1.04873,0 1.90625,0.25365 1.90625,0.5625 0,0.30885 1.85275,0.78791 4.125,1.03125 2.27225,0.24334 4.125,0.67482 4.125,0.96875 0,0.29393 1.88401,0.72541 4.15625,0.96875 2.27225,0.24333 4.125,0.69114 4.125,1 0,0.30885 0.77896,0.5625 1.75,0.5625 2.60405,0 3.8718,1.8874 4.09375,6.15625 l 0.1875,3.6875 3.8125,0.53125 c 2.09422,0.29112 3.98119,0.82243 4.1875,1.15625 0.20632,0.33383 1.36029,0.76859 2.59375,0.96875 1.89811,0.30802 2.51699,0.0632 3.9375,-1.46875 0.92311,-0.99552 1.6875,-2.2803 1.6875,-2.875 0,-0.59471 0.27543,-1.25269 0.625,-1.46875 0.34958,-0.21605 0.625,-1.804 0.625,-3.53125 0,-1.72725 -0.27542,-3.15625 -0.625,-3.15625 -0.9041,0 -0.79101,-3.05102 0.15625,-4.1875 0.43697,-0.52426 1.59177,-1.73097 2.5625,-2.6875 1.00523,-0.99052 1.91059,-2.74119 2.125,-4.0625 0.43218,-2.66319 -0.6602,-4.58058 -5.53125,-9.5625 -3.95379,-4.04378 -5.22456,-3.98968 -9.71875,0.46875 -3.33595,3.3094 -3.68407,3.5 -6.71875,3.5 -1.76306,0 -3.21875,-0.27543 -3.21875,-0.625 0,-0.34958 -1.57733,-0.625 -3.5,-0.625 -1.92267,0 -3.5,-0.28056 -3.5,-0.59375 0,-0.3132 -2.26589,-0.75244 -5.0625,-1 -2.79661,-0.24755 -5.09375,-0.66947 -5.09375,-0.9375 0,-0.26802 -1.99047,-0.69637 -4.4375,-0.9375 -2.44703,-0.24112 -4.46875,-0.65426 -4.46875,-0.9375 0,-0.28324 -1.99047,-0.72762 -4.4375,-0.96875 -2.44704,-0.24112 -4.46875,-0.70284 -4.46875,-1.03125 0,-0.32841 -0.68856,-0.59375 -1.5625,-0.59375 -1.13338,0 -1.59375,-0.33227 -1.59375,-1.1875 0,-0.93379 0.61627,-1.32222 2.84375,-1.65625 1.57309,-0.2359 2.875,-0.64215 2.875,-0.9375 0,-0.29535 1.43962,-0.7596 3.1875,-1 1.74788,-0.24039 3.15625,-0.68323 3.15625,-1 0,-0.31677 0.71981,-0.5625 1.59375,-0.5625 0.87394,0 1.59375,-0.2532 1.59375,-0.5625 0,-0.3093 1.57733,-0.75977 3.5,-1 1.92267,-0.24022 3.5,-0.69699 3.5,-1 0,-0.303 1.33951,-0.75969 3,-1 1.66049,-0.2403 3.30667,-0.64897 3.65625,-0.90625 0.34958,-0.25728 1.51377,-0.64387 2.5625,-0.875 4.17584,-0.92032 7.28125,-1.96602 7.28125,-2.4375 0,-0.27326 1.31727,-0.5 2.90625,-0.5 3.25584,0 5.47204,1.64987 6.21875,4.625 0.28739,1.14506 0.88032,1.71875 1.71875,1.71875 0.69249,0 1.25,-0.26002 1.25,-0.59375 0,-0.33374 1.06409,-0.79027 2.375,-1 1.31091,-0.20973 2.89298,-0.63827 3.5,-0.96875 0.60701,-0.33048 1.53339,-0.59375 2.0625,-0.59375 2.07379,0 3.503,-2.39763 3.5,-5.875 -0.002,-3.32848 -1.74747,-7.46875 -3.15625,-7.46875 -1.32327,0 -3.1875,-2.6216 -3.1875,-4.46875 0,-1.04873 0.27543,-1.90625 0.625,-1.90625 0.34958,0 0.625,-1.40837 0.625,-3.15625 0,-3.30939 -1.4776,-5.71875 -3.5,-5.71875 -0.52436,0 -0.9375,-0.29685 -0.9375,-0.625 0,-0.32816 -1.30191,-0.7641 -2.875,-1 -1.5731,-0.2359 -2.84375,-0.69012 -2.84375,-1 0,-0.30989 -1.55223,-0.5625 -3.4375,-0.5625 z"
     style="fill:#0000ff;fill-opacity:1;stroke:none"
     inkscape:connector-curvature="0" />
  <path
     style="fill:#6c5353;fill-opacity:1;stroke:none"
     d="m 98.027341,282.13251 c -1.168715,-1.40824 -2.338572,-5.55969 -2.599664,-9.2255 -0.261114,-3.66579 -2.044359,-8.8694 -3.962769,-11.56357 -4.554862,-6.39671 -4.399365,-9.58971 0.798881,-16.40497 5.009794,-6.56818 7.08867,-6.89119 13.235071,-2.05645 5.46463,4.29849 13.15797,3.67726 35.85711,-2.89542 20.08512,-5.81576 30.5599,-10.55041 27.28727,-12.33396 -3.4945,-1.90446 -51.88075,-11.87489 -57.59484,-11.86793 -3.30748,0.004 -5.20079,1.19799 -6.53173,4.11909 -1.57992,3.46755 -2.69572,3.95813 -7.106308,3.12439 -12.214568,-2.30893 -15.031792,-7.36979 -9.408266,-16.90095 2.719248,-4.60879 3.398416,-7.75723 2.66404,-12.34978 -1.138322,-7.11863 0.219325,-8.72108 10.445554,-12.32911 6.64641,-2.34499 7.07878,-2.29085 9.51806,1.19172 1.40545,2.00656 2.55538,4.96591 2.55538,6.57633 0,5.15176 1.52978,5.70167 55.22462,19.85146 l 37.57888,9.90288 21.24035,-7.5216 c 11.68219,-4.13688 25.02158,-8.9824 29.64309,-10.76783 4.62151,-1.78543 14.0746,-5.25399 21.00687,-7.70792 15.56753,-5.51069 16.14242,-5.97263 17.42657,-14.00339 1.30431,-8.1566 4.08959,-9.24419 14.11425,-5.51118 7.91958,2.94913 7.95208,2.99321 7.95208,10.78481 0,6.00555 0.90074,8.66311 3.87623,11.43639 2.7817,2.59266 3.73078,5.09964 3.36109,8.87834 -0.44772,4.57648 -1.54758,5.64751 -8.40485,8.1846 -7.68537,2.84344 -7.91681,2.83377 -8.93489,-0.37394 -1.65755,-5.22247 -8.28189,-5.73767 -21.49933,-1.6721 -34.45734,10.59878 -42.28614,13.32739 -42.81822,14.92365 -0.70661,2.11981 5.51201,3.8392 34.68344,9.58955 l 22.44377,4.42421 7.12555,-5.11719 7.12555,-5.11719 6.14233,6.29033 c 6.97368,7.14167 7.5703,10.21731 2.81664,14.51932 -2.51461,2.2757 -3.28055,5.01407 -3.14055,11.22814 0.26278,11.66356 -2.97972,14.91652 -12.66036,12.70127 -6.47754,-1.48228 -7.44642,-2.3362 -8.78191,-7.74009 l -1.50109,-6.074 -36.97208,-9.35746 c -20.33463,-5.14662 -40.8277,-10.36488 -45.54015,-11.59612 -9.48287,-2.47764 -6.42693,-3.30632 -65.37609,17.72794 -12.01591,4.28754 -23.35962,8.19995 -25.20823,8.69427 -5.64386,1.50915 -7.56248,3.9437 -7.56248,9.59609 0,4.82453 -0.70324,5.62082 -6.49703,7.35668 -8.39237,2.51443 -9.47133,2.45934 -12.021839,-0.61381 l 0,0 z"
     id="path3270"
     inkscape:connector-curvature="0" />
  <path
     style="fill:#6c5353;fill-opacity:1;stroke:none"
     d="m -291.85199,461.31102 c -0.88403,-1.06519 -1.76892,-4.20541 -1.96642,-6.97826 -0.19751,-2.77286 -1.45258,-6.62062 -2.78905,-8.55058 -1.33647,-1.92997 -2.79935,-4.15261 -3.25085,-4.93921 -1.03562,-1.80428 6.18027,-11.91728 8.50329,-11.91728 0.95006,0 3.31281,1.2471 5.25055,2.77132 3.31102,2.60446 4.02936,2.68266 11.9299,1.29867 8.73941,-1.53094 31.15077,-8.28677 34.45544,-10.38647 3.36445,-2.13769 -0.0808,-3.45477 -19.69277,-7.52825 -23.41561,-4.86351 -25.66714,-4.93224 -27.53149,-0.84044 -1.19507,2.6229 -2.03907,2.99397 -5.37529,2.36332 -9.23924,-1.7465 -11.37022,-5.57459 -7.11653,-12.78407 2.05687,-3.48613 2.57061,-5.86766 2.01511,-9.34151 -0.86631,-5.41764 0.15013,-6.59116 8.1552,-9.41551 6.12501,-2.16104 7.04345,-1.63598 8.44727,4.8292 1.16786,5.37848 1.52041,5.50986 46.56127,17.35203 23.38915,6.14949 23.99535,6.23914 29.23729,4.32386 2.94412,-1.0757 12.21734,-4.40917 20.60717,-7.40769 8.38983,-2.99853 20.40255,-7.29291 26.69492,-9.54306 6.29237,-2.25015 12.08433,-4.61458 12.87103,-5.25428 0.7867,-0.63969 1.78453,-3.37798 2.2174,-6.08508 0.88985,-5.56475 2.81917,-6.80824 8.17849,-5.2712 8.18505,2.34744 9.50476,3.72361 8.77665,9.15212 -0.5527,4.12068 -0.11466,5.6185 2.45353,8.38963 2.18408,2.35665 3.01196,4.53292 2.74683,7.22054 -0.3257,3.30161 -1.22579,4.16025 -6.3474,6.05516 -5.8133,2.15082 -5.98837,2.14349 -6.75846,-0.28286 -1.23589,-3.89397 -6.25876,-4.34694 -15.62674,-1.40925 -4.68123,1.46798 -13.91996,4.32089 -20.5305,6.3398 -6.61055,2.01891 -12.22488,4.28785 -12.47629,5.04209 -0.54873,1.64618 3.90751,2.88247 26.17153,7.26079 18.36573,3.6117 16.34242,3.8205 25.15696,-2.59616 2.51937,-1.83403 2.95867,-1.66488 7.30932,2.81433 5.30458,5.46135 5.59636,7.0223 2.13506,11.42262 -1.69833,2.15907 -2.45709,4.99792 -2.37877,8.8999 0.16496,8.21853 -2.81301,10.93269 -9.89269,9.01636 -4.51556,-1.22227 -5.38522,-2.03858 -6.35594,-5.96605 l -1.12459,-4.55003 -33.68644,-8.55141 c -19.03839,-4.83296 -35.06833,-8.26485 -36.86441,-7.89239 -3.8398,0.79628 -60.72761,20.70897 -63.87711,22.35919 -1.43512,0.75194 -2.22458,2.65723 -2.22458,5.3688 0,3.77811 -0.49704,4.35213 -4.91443,5.67561 -6.3481,1.90194 -7.16424,1.86027 -9.09346,-0.4643 l 0,0 z"
     id="path3290"
     inkscape:connector-curvature="0" />
  <path
     style="fill:#6c5353;fill-opacity:1;stroke:none"
     d="m 201.97762,192.3629 c -1.19292,0.10793 -1.18264,-1.12429 -4.01342,2.37157 -19.8608,6.63506 -19.34611,-21.65154 -16.11244,-13.99335 -0.7169,4.15279 -3.28995,-1.82261 -8.85569,-3.62151 -5.33912,-1.72566 -13.82074,-26.64371 -10.84715,-34.07544 2.67403,-6.68305 1.75678,-9.07737 -4.99279,-13.03288 -4.23354,-2.48102 -6.42166,-5.01749 -9.12182,-10.57401 -3.24955,-6.68707 -3.55535,-8.55584 -3.58842,-21.92868 -0.0335,-13.53331 0.23253,-15.1658 3.58271,-21.98846 11.497,-23.413701 38.62941,-37.594784 64.82473,-33.881432 12.88699,1.826812 26.56694,7.941158 32.01962,14.311386 11.528,13.467876 18.20958,42.452336 13.27924,57.604866 -1.94819,5.98739 -8.20839,15.00769 -12.25623,17.65993 -3.54716,2.32419 -3.68222,4.11915 -0.76952,10.22715 2.11823,4.44197 2.10923,4.67909 -0.24296,6.39905 -1.34349,0.98239 0.64916,4.9449 -2.36332,11.92665 -3.2372,10.12772 -6.96861,16.42758 -8.71649,17.7948 -3.92458,3.06985 -5.6434,3.10644 -8.67131,5.56323 -5.27311,7.36659 0.83876,12.94265 -17.64263,12.85027 -2.21557,0 -4.16263,-3.73522 -5.51211,-3.61314 z m 11.27879,-56.15269 c 1.54552,-4.02755 -7.91533,-17.09584 -10.99754,-15.19093 -2.96319,1.83135 -8.90844,11.29473 -8.90844,14.18005 0,2.8711 0.3722,2.98724 9.57379,2.98724 7.48718,0 9.73909,-0.43075 10.33219,-1.97636 z m 27.28675,-25.59433 c 3.24978,-17.16539 7.31597,-15.976987 -4.70304,-26.88914 -4.27691,-3.883037 -7.39457,-4.01475 -12.5519,-4.01475 -7.65541,0 -11.66946,2.37409 -14.18224,8.38802 -3.81057,9.11998 -3.87844,18.49587 3.79949,26.56706 4.58349,4.81824 6.82661,3.18052 13.95728,3.18052 8.99284,0.6592 6.9876,-2.87134 13.68041,-7.23171 z m -48.03935,3.53914 c 4.07254,-2.47219 7.66435,-9.00653 7.49423,-19.812582 -0.16291,-10.347989 0.20656,-10.401348 -5.20239,-14.554208 -1.16262,-0.89263 -6.9833,-5.61057 -12.51863,-5.63387 -8.44533,-0.0356 -13.12517,5.264584 -16.15309,10.343734 -4.92255,8.257292 -3.79529,4.468396 -3.79529,16.607096 0,7.71192 4.56194,9.80493 8.0775,14.32712 7.36865,5.4191 15.65275,0.9128 22.09767,-1.27729 z"
     id="path3292"
     inkscape:connector-curvature="0"
     sodipodi:nodetypes="sccsssssssssssscsccsssssscsssscccssssscc" />
  <path
     style="fill:#6c5353;fill-opacity:1;stroke:none"
     d="m 277.11865,57.203391 c -4.44916,-8.385306 -11.99368,24.988876 -14.30084,15.254237 -3.01279,-12.711865 -20.02119,-26.181916 -30.19069,-32.415254 -7.48204,-4.58608 13.63736,-13.111973 23.19916,-10.169492 47.50431,14.618644 25.40554,35.082599 21.29237,27.330509 z"
     id="path3331"
     inkscape:connector-curvature="0"
     sodipodi:nodetypes="sssss" />
  <path
     sodipodi:nodetypes="sssss"
     inkscape:connector-curvature="0"
     id="path3334"
     d="M 128.53673,59.745763 C 132.98589,51.360457 140.53041,84.734639 142.83757,75 145.85036,62.288135 162.85876,48.818084 173.02826,42.584746 180.5103,37.998666 159.3909,29.472773 149.8291,32.415254 102.3248,47.033898 124.42356,67.497853 128.53673,59.745763 z"
     style="fill:#6c5353;fill-opacity:1;stroke:none" />
  <path
     style="fill:#ffffff;stroke:#ffffff;stroke-width:1px;stroke-linecap:butt;stroke-linejoin:miter;stroke-opacity:1"
     d="m 181.77966,42.584745 c 21.30396,38.891559 50.67001,56.03306 83.89831,68.008475"
     id="path3336"
     inkscape:connector-curvature="0"
     sodipodi:nodetypes="cc" />
</svg>
