0
SECTION
2
HEADER
9
$LTSCALE
40
1.0
9
$LIMMIN
10
100
20
0
9
$LIMMAX
10
4117
20
592
9
$EXTMIN
10
100
20
0
9
$EXTMAX
10
4117
20
592
9
$SNAPMODE
70
0
9
$SNAPUNIT
10
1.0
20
1.0
9
$GRIDMODE
70
0
9
$GRIDUNIT
10
1.0
20
1.0
9
$ORTHOMODE
70
0
9
$TEXTSTYLE
7
txt
9
$CLAYER
8
1
9
$CECOLOR
62
7
9
$CELTYPE
6
CONTINUOUS
9
$PLINEWID
40
0.0
9
$OSMODE
70
0
9
$FILLMODE
70
1
9
$CHAMFERA
40
0.5
9
$CHAMFERB
40
0.5
9
$SCOORDS
70
1
9
$FILLETRAD
40
0.5
9
$INSBASE
10
0.0
20
0.0
9
$SPLFRAME
70
0
9
$SPLINESEGS
70
8
0
ENDSEC
0
SECTION
2
TABLES
0
TABLE
2
LTYPE
70
9
0
LTYPE
2
CONTINUOUS
70
64
3
Solid line
72
65
73
0
40
0.0
0
ENDTAB
0
TABLE
2
STYLE
70
1
0
STYLE
2
ROMANS
70
0
40
0.000
41
1.000
50
0.000
71
0
42
0.000
3
ROMANS
4

0
ENDTAB
0
TABLE
2
LAYER
70
10
0
LAYER
2
1
70
0
62
7
6
CONTINUOUS
0
LAYER
2
2
70
0
62
7
6
CONTINUOUS
0
LAYER
2
3
70
0
62
7
6
CONTINUOUS
0
LAYER
2
4
70
0
62
7
6
CONTINUOUS
0
LAYER
2
5
70
0
62
7
6
CONTINUOUS
0
LAYER
2
6
70
0
62
7
6
CONTINUOUS
0
LAYER
2
7
70
0
62
7
6
CONTINUOUS
0
LAYER
2
8
70
0
62
7
6
CONTINUOUS
0
LAYER
2
9
70
0
62
7
6
CONTINUOUS
0
LAYER
2
10
70
0
62
7
6
CONTINUOUS
0
ENDTAB
0
ENDSEC
0
SECTION
2
ENTITIES
0
POLYLINE
8
0
62
132
66
1
40
160
41
160
0
VERTEX
8
0
10
3974
20
418
0
VERTEX
8
0
10
3896
20
423
0
SEQEND
0
POLYLINE
8
0
62
132
66
1
40
160
41
160
0
VERTEX
8
0
10
4100
20
174
0
VERTEX
8
0
10
3883
20
199
0
SEQEND
0
POLYLINE
8
0
62
132
66
1
40
160
41
160
0
VERTEX
8
0
10
3956
20
475
0
VERTEX
8
0
10
3919
20
478
0
SEQEND
0
POLYLINE
8
0
62
132
66
1
40
160
41
160
0
VERTEX
8
0
10
3987
20
365
0
VERTEX
8
0
10
3882
20
372
0
SEQEND
0
POLYLINE
8
0
62
132
66
1
40
160
41
160
0
VERTEX
8
0
10
4024
20
304
0
VERTEX
8
0
10
3872
20
316
0
SEQEND
0
POLYLINE
8
0
62
132
66
1
40
160
41
160
0
VERTEX
8
0
10
4065
20
240
0
VERTEX
8
0
10
3869
20
261
0
SEQEND
0
POLYLINE
8
0
62
252
66
1
40
160
41
160
0
VERTEX
8
0
10
3869
20
261
0
VERTEX
8
0
10
3667
20
218
0
SEQEND
0
POLYLINE
8
0
62
252
66
1
40
160
41
160
0
VERTEX
8
0
10
3872
20
316
0
VERTEX
8
0
10
3734
20
291
0
SEQEND
0
POLYLINE
8
0
62
252
66
1
40
160
41
160
0
VERTEX
8
0
10
3919
20
478
0
VERTEX
8
0
10
3888
20
476
0
SEQEND
0
POLYLINE
8
0
62
252
66
1
40
160
41
160
0
VERTEX
8
0
10
3896
20
423
0
VERTEX
8
0
10
3843
20
419
0
SEQEND
0
POLYLINE
8
0
62
252
66
1
40
160
41
160
0
VERTEX
8
0
10
3883
20
199
0
VERTEX
8
0
10
3638
20
146
0
SEQEND
0
POLYLINE
8
0
62
252
66
1
40
160
41
160
0
VERTEX
8
0
10
3882
20
372
0
VERTEX
8
0
10
3793
20
357
0
SEQEND
0
TEXT
8
0
40
353
41
0.782
62
132
7
ROMANS
1
i
10
3437
20
125
0
TEXT
8
0
40
353
41
0.782
62
132
7
ROMANS
1
l
10
3316
20
125
0
TEXT
8
0
40
353
41
0.782
62
132
7
ROMANS
1
l
10
3206
20
125
0
TEXT
8
0
40
353
41
0.66
62
132
7
ROMANS
1
e
10
2970
20
125
0
TEXT
8
0
40
353
41
0.66
62
132
7
ROMANS
1
t
10
2771
20
125
0
TEXT
8
0
40
353
41
0.66
62
132
7
ROMANS
1
a
10
2524
20
125
0
TEXT
8
0
40
353
41
0.66
62
132
7
ROMANS
1
M
10
2138
20
125
0
TEXT
8
0
40
353
41
0.66
62
252
7
ROMANS
1
o
10
1893
20
125
0
TEXT
8
0
40
353
41
0.66
62
252
7
ROMANS
1
c
10
1650
20
125
0
TEXT
8
0
40
353
41
0.66
62
252
7
ROMANS
1
s
10
1403
20
125
0
TEXT
8
0
40
353
41
0.782
62
252
7
ROMANS
1
i
10
1328
20
125
0
TEXT
8
0
40
353
41
0.66
62
252
7
ROMANS
1
c
10
1083
20
125
0
TEXT
8
0
40
353
41
0.66
62
252
7
ROMANS
1
n
10
832
20
125
0
TEXT
8
0
40
353
41
0.66
62
252
7
ROMANS
1
a
10
585
20
125
0
TEXT
8
0
40
353
41
0.66
62
252
7
ROMANS
1
r
10
352
20
124
0
TEXT
8
0
40
353
41
0.66
62
252
7
ROMANS
1
F
10
109
20
124
0
ENDSEC
0
EOF
