<?xml version="1.0" encoding="UTF-8" standalone="no"?>
<!-- Created with Inkscape (http://www.inkscape.org/) -->

<svg
   xmlns:dc="http://purl.org/dc/elements/1.1/"
   xmlns:cc="http://creativecommons.org/ns#"
   xmlns:rdf="http://www.w3.org/1999/02/22-rdf-syntax-ns#"
   xmlns:svg="http://www.w3.org/2000/svg"
   xmlns="http://www.w3.org/2000/svg"
   xmlns:sodipodi="http://sodipodi.sourceforge.net/DTD/sodipodi-0.dtd"
   xmlns:inkscape="http://www.inkscape.org/namespaces/inkscape"
   width="800"
   height="800"
   id="svg2"
   version="1.1"
   inkscape:version="0.48.4 r9939"
   sodipodi:docname="2015-02-04-me-tome-toda.svg">
  <defs
     id="defs4" />
  <sodipodi:namedview
     id="base"
     pagecolor="#ffffff"
     bordercolor="#666666"
     borderopacity="1.0"
     inkscape:pageopacity="0.0"
     inkscape:pageshadow="2"
     inkscape:zoom="0.35"
     inkscape:cx="402.25374"
     inkscape:cy="-40.403149"
     inkscape:document-units="px"
     inkscape:current-layer="layer1"
     showgrid="false"
     inkscape:window-width="1920"
     inkscape:window-height="1017"
     inkscape:window-x="0"
     inkscape:window-y="0"
     inkscape:window-maximized="1" />
  <metadata
     id="metadata7">
    <rdf:RDF>
      <cc:Work
         rdf:about="">
        <dc:format>image/svg+xml</dc:format>
        <dc:type
           rdf:resource="http://purl.org/dc/dcmitype/StillImage" />
        <dc:title />
      </cc:Work>
    </rdf:RDF>
  </metadata>
  <g
     inkscape:label="Layer 1"
     inkscape:groupmode="layer"
     id="layer1"
     transform="translate(0,-252.36218)">
    <rect
       style="fill:#000080;fill-opacity:1;stroke:none"
       id="rect3787"
       width="800"
       height="800"
       x="0"
       y="252.36218" />
    <path
       sodipodi:type="arc"
       style="fill:#ffffff;fill-opacity:1;stroke:none"
       id="path3757"
       sodipodi:cx="319.20819"
       sodipodi:cy="390.38315"
       sodipodi:rx="248.49753"
       sodipodi:ry="316.68283"
       d="m 567.70572,390.38315 a 248.49753,316.68283 0 1 1 -496.995057,0 248.49753,316.68283 0 1 1 496.995057,0 z"
       transform="matrix(1.3197411,0,0,1.1650346,-48.726029,197.45649)" />
    <path
       style="fill:none;stroke:#000000;stroke-width:13.10000038;stroke-linecap:butt;stroke-linejoin:miter;stroke-miterlimit:4;stroke-opacity:1;stroke-dasharray:none"
       d="m 171.42857,181.42857 0,65.71429 64.28572,334.28571 -32.85715,42.85714 c 49.04762,12.28664 98.09524,20.18427 147.14286,1.42858 l -31.42857,-48.57143 64.28571,-338.57143 -1.42857,-62.85714 c -59.90822,16.32159 -123.73918,27.03926 -210,5.71428 z"
       id="path2985"
       inkscape:connector-curvature="0"
       sodipodi:nodetypes="ccccccccc"
       transform="translate(0,252.36218)" />
    <path
       style="fill:#ffdd55;fill-opacity:1;stroke:none"
       d="m 230.00717,600.65815 c 7.00483,-9.11144 12.73605,-17.37953 12.73605,-18.37354 0,-0.99401 -13.64342,-77.66289 -32.32488,-169.97951 L 184.15438,282.51868 c 38.81648,16.0739 143.19388,11.30362 189.61555,-8.74621 l -30.15801,133.29286 c -20.95884,92.63421 -32.17832,170.23622 -32.17832,170.94249 0,0.70626 5.36566,9.59162 11.92372,19.74524 3.33106,15.55256 -89.17701,9.42337 -93.35015,2.90509 z"
       id="path3755"
       inkscape:connector-curvature="0"
       sodipodi:nodetypes="cssccsscc"
       transform="translate(0,252.36218)" />
    <g
       id="g3797"
       transform="translate(-340,0)">
      <path
         transform="translate(0,252.36218)"
         inkscape:connector-curvature="0"
         id="path3793"
         d="m 262.63966,450.48722 6.06092,15.15229 12.12183,-18.18275"
         style="fill:none;stroke:#000000;stroke-width:13;stroke-linecap:butt;stroke-linejoin:miter;stroke-miterlimit:4;stroke-opacity:1;stroke-dasharray:none" />
      <path
         transform="translate(0,252.36218)"
         inkscape:connector-curvature="0"
         id="path3795"
         d="M 279.81226,618.17254 269.71073,461.5989"
         style="fill:none;stroke:#000000;stroke-width:13;stroke-linecap:butt;stroke-linejoin:miter;stroke-miterlimit:4;stroke-opacity:1;stroke-dasharray:none" />
    </g>
    <path
       sodipodi:type="arc"
       style="fill:#ff5555;fill-opacity:1;stroke:none"
       id="path3763"
       sodipodi:cx="-224.25386"
       sodipodi:cy="337.85522"
       sodipodi:rx="127.27922"
       sodipodi:ry="140.91628"
       d="m -96.97464,337.85522 c 0,77.82591 -56.98485,140.91628 -127.27922,140.91628 -70.29437,0 -127.27922,-63.09037 -127.27922,-140.91628 0,-77.82591 56.98485,-140.91627 127.27922,-140.91627 70.29437,0 127.27922,63.09036 127.27922,140.91627 z"
       transform="translate(0,252.36218)" />
    <path
       transform="matrix(0.46544716,0,0,0.36044659,-436.9731,758.6118)"
       sodipodi:type="arc"
       style="fill:#5599ff;fill-opacity:1;stroke:none"
       id="path3757-4"
       sodipodi:cx="319.20819"
       sodipodi:cy="390.38315"
       sodipodi:rx="248.49753"
       sodipodi:ry="316.68283"
       d="m 567.70572,390.38315 c 0,174.8991 -111.25613,316.68283 -248.49753,316.68283 -137.24139,0 -248.497527,-141.78373 -248.497527,-316.68283 0,-174.8991 111.256137,-316.682833 248.497527,-316.682833 137.2414,0 248.49753,141.783733 248.49753,316.682833 z" />
    <path
       d="m 567.70572,390.38315 c 0,174.8991 -111.25613,316.68283 -248.49753,316.68283 -137.24139,0 -248.497527,-141.78373 -248.497527,-316.68283 0,-174.8991 111.256137,-316.682833 248.497527,-316.682833 137.2414,0 248.49753,141.783733 248.49753,316.682833 z"
       sodipodi:ry="316.68283"
       sodipodi:rx="248.49753"
       sodipodi:cy="390.38315"
       sodipodi:cx="319.20819"
       id="path3783"
       style="fill:#ffdd55;fill-opacity:1;stroke:none"
       sodipodi:type="arc"
       transform="matrix(0.46544716,0,0,0.36044659,-528.89698,175.75378)" />
    <path
       transform="matrix(0.46544716,0,0,0.36044659,-622.84117,459.60665)"
       sodipodi:type="arc"
       style="fill:#447821;fill-opacity:1;stroke:none"
       id="path3785"
       sodipodi:cx="319.20819"
       sodipodi:cy="390.38315"
       sodipodi:rx="248.49753"
       sodipodi:ry="316.68283"
       d="m 567.70572,390.38315 c 0,174.8991 -111.25613,316.68283 -248.49753,316.68283 -137.24139,0 -248.497527,-141.78373 -248.497527,-316.68283 0,-174.8991 111.256137,-316.682833 248.497527,-316.682833 137.2414,0 248.49753,141.783733 248.49753,316.682833 z" />
    <path
       style="fill:none;stroke:#000000;stroke-width:13;stroke-linecap:butt;stroke-linejoin:miter;stroke-opacity:1;stroke-miterlimit:4;stroke-dasharray:none"
       d="m 189.90868,324.21815 c 29.53264,53.7029 52.27359,25.90559 76.77159,19.1929"
       id="path3789"
       inkscape:connector-curvature="0"
       sodipodi:nodetypes="cc"
       transform="translate(0,252.36218)" />
    <path
       style="fill:none;stroke:#000000;stroke-width:13;stroke-linecap:butt;stroke-linejoin:miter;stroke-opacity:1;stroke-miterlimit:4;stroke-dasharray:none"
       d="m 277.79195,341.39074 c 39.7016,24.32894 67.68159,23.08345 77.78175,-17.17259"
       id="path3791"
       inkscape:connector-curvature="0"
       sodipodi:nodetypes="cc"
       transform="translate(0,252.36218)" />
    <path
       style="fill:none;stroke:#000000;stroke-width:13;stroke-linecap:butt;stroke-linejoin:miter;stroke-opacity:1;stroke-miterlimit:4;stroke-dasharray:none"
       d="m 221.22341,367.65471 2.0203,-8.08122"
       id="path3801"
       inkscape:connector-curvature="0"
       transform="translate(0,252.36218)" />
    <path
       style="fill:none;stroke:#000000;stroke-width:13;stroke-linecap:butt;stroke-linejoin:miter;stroke-miterlimit:4;stroke-opacity:1;stroke-dasharray:none"
       d="m 332.34019,618.98643 -4.04061,-8.08122"
       id="path3803"
       inkscape:connector-curvature="0" />
    <path
       style="fill:none;stroke:#000000;stroke-width:5;stroke-linecap:butt;stroke-linejoin:miter;stroke-miterlimit:4;stroke-opacity:1;stroke-dasharray:none"
       d="m 166.67517,172.65466 c 66.74235,-16.19417 141.56394,-10.84369 216.17264,-6.06092"
       id="path3805"
       inkscape:connector-curvature="0"
       sodipodi:nodetypes="cc"
       transform="translate(0,252.36218)" />
    <text
       xml:space="preserve"
       style="font-size:82.01937866px;font-style:normal;font-weight:normal;text-align:center;line-height:125%;letter-spacing:0px;word-spacing:0px;text-anchor:middle;fill:#000000;fill-opacity:1;stroke:none;font-family:Sans"
       x="516.53302"
       y="473.03479"
       id="text3807"
       sodipodi:linespacing="125%"><tspan
         sodipodi:role="line"
         id="tspan3809"
         x="516.53302"
         y="473.03479">ME</tspan><tspan
         sodipodi:role="line"
         x="516.53302"
         y="575.55902"
         id="tspan3811">TOME</tspan><tspan
         sodipodi:role="line"
         x="516.53302"
         y="678.08325"
         id="tspan3813">TODA</tspan><tspan
         sodipodi:role="line"
         x="516.53302"
         y="780.60748"
         id="tspan3017">TODO</tspan><tspan
         sodipodi:role="line"
         x="516.53302"
         y="883.13171"
         id="tspan3019">DIA</tspan></text>
  </g>
</svg>
