<?xml version="1.0" encoding="UTF-8" standalone="no"?>
<!-- Created with Inkscape (http://www.inkscape.org/) -->

<svg
   xmlns:dc="http://purl.org/dc/elements/1.1/"
   xmlns:cc="http://creativecommons.org/ns#"
   xmlns:rdf="http://www.w3.org/1999/02/22-rdf-syntax-ns#"
   xmlns:svg="http://www.w3.org/2000/svg"
   xmlns="http://www.w3.org/2000/svg"
   xmlns:sodipodi="http://sodipodi.sourceforge.net/DTD/sodipodi-0.dtd"
   xmlns:inkscape="http://www.inkscape.org/namespaces/inkscape"
   width="744.09448819"
   height="1052.3622047"
   id="svg2"
   version="1.1"
   inkscape:version="0.48.4 r9939"
   sodipodi:docname="2015-02-10-morte-lenta-cola.svg">
  <defs
     id="defs4" />
  <sodipodi:namedview
     id="base"
     pagecolor="#ffffff"
     bordercolor="#666666"
     borderopacity="1.0"
     inkscape:pageopacity="0.0"
     inkscape:pageshadow="2"
     inkscape:zoom="0.98994949"
     inkscape:cx="432.54689"
     inkscape:cy="711.82933"
     inkscape:document-units="px"
     inkscape:current-layer="layer1"
     showgrid="false"
     inkscape:window-width="1920"
     inkscape:window-height="1017"
     inkscape:window-x="0"
     inkscape:window-y="0"
     inkscape:window-maximized="1" />
  <metadata
     id="metadata7">
    <rdf:RDF>
      <cc:Work
         rdf:about="">
        <dc:format>image/svg+xml</dc:format>
        <dc:type
           rdf:resource="http://purl.org/dc/dcmitype/StillImage" />
        <dc:title></dc:title>
      </cc:Work>
    </rdf:RDF>
  </metadata>
  <g
     inkscape:label="Layer 1"
     inkscape:groupmode="layer"
     id="layer1">
    <text
       sodipodi:linespacing="125%"
       id="text2989"
       y="943.00665"
       x="342.5658"
       style="font-size:53.21007919000000186px;font-style:normal;font-variant:normal;font-weight:normal;font-stretch:normal;text-align:center;line-height:125%;letter-spacing:0px;word-spacing:0px;text-anchor:middle;fill:#ff0000;fill-opacity:1;stroke:none;font-family:Coca Cola ii;-inkscape-font-specification:Coca Cola ii"
       xml:space="preserve"><tspan
         y="943.00665"
         x="342.5658"
         id="tspan2991"
         sodipodi:role="line">Corte Centa Cola</tspan></text>
    <text
       sodipodi:linespacing="125%"
       id="text2993"
       y="852.48663"
       x="353.13712"
       style="font-size:102.29463959000000273px;font-style:normal;font-variant:normal;font-weight:normal;font-stretch:normal;text-align:center;line-height:125%;letter-spacing:0px;word-spacing:0px;text-anchor:middle;fill:#ff0000;fill-opacity:1;stroke:none;font-family:Coca Cola ii;-inkscape-font-specification:Coca Cola ii"
       xml:space="preserve"><tspan
         y="852.48663"
         x="353.13712"
         id="tspan2995"
         sodipodi:role="line">Morte Lenta Cola</tspan></text>
    <g
       style="font-size:144px;font-style:normal;font-variant:normal;font-weight:normal;font-stretch:normal;text-align:center;line-height:125%;letter-spacing:0px;word-spacing:0px;text-anchor:middle;fill:#ff0000;fill-opacity:1;stroke:none;font-family:Coca Cola ii;-inkscape-font-specification:Coca Cola ii"
       id="text3001"
       transform="matrix(0.88281335,0,0,0.88281335,-14.608494,240.75221)">
      <path
         d="m 280.51468,185.22939 c -0.0815,2.60349 -2.92898,6.46789 -8.54237,11.59323 -10.33236,9.51871 -20.7459,14.27803 -31.24068,14.27796 -2.92894,7e-5 -5.32894,-0.16264 -7.2,-0.48813 -2.27809,-0.40672 -6.06113,-2.15587 -11.34915,-5.24746 -16.59671,-9.76263 -27.25432,-14.64398 -31.97288,-14.64407 -2.44076,9e-5 -3.6611,0.5289 -3.66102,1.58644 -8e-5,0.48822 0.0813,1.2611 0.24407,2.31865 0.24399,1.05771 0.36602,1.83059 0.3661,2.31864 -8e-5,6.10177 -2.11533,11.87804 -6.34576,17.32881 -4.556,5.85769 -9.80345,8.7865 -15.74237,8.78644 l -4.75933,-1.34237 -1.8305,-4.27119 c -5e-5,-4.96264 2.35927,-10.45416 7.07796,-16.47457 4.55587,-5.69483 9.27451,-9.4372 14.15593,-11.22712 -1.62718,-0.65076 -2.72549,-0.97618 -3.29491,-0.97627 -7.56616,9e-5 -16.06785,5.28822 -25.50509,15.8644 -6.91529,7.72888 -12.93562,16.39328 -18.06101,25.99323 -5.939,11.14579 -8.90849,19.9729 -8.90848,26.48135 -1e-5,8.46103 3.17287,12.69154 9.51865,12.69153 6.34573,1e-5 12.2847,-3.37626 17.81695,-10.12882 5.28808,-6.50845 7.93215,-13.01691 7.9322,-19.52542 -5e-5,-0.97623 -0.36615,-1.9525 -1.09831,-2.92881 -0.73225,-0.97623 -1.54581,-1.46437 -2.44067,-1.46441 -1.3831,4e-5 -3.45767,1.46445 -6.22373,4.39322 l -0.24407,0.12203 c -1.05767,1.62716 -2.35936,5.12546 -3.90509,10.49492 -2.03393,0.89494 -4.1085,2.11528 -6.22372,3.66102 l -5.85763,4.14915 -0.24407,0 c -0.16274,-0.97625 -0.24409,-1.58642 -0.24407,-1.83051 -2e-5,-6.67116 1.74913,-12.56946 5.24746,-17.69492 3.90505,-5.85758 9.03047,-8.78639 15.37627,-8.78644 6.34571,5e-5 9.51859,2.96954 9.51865,8.90848 -6e-5,9.19325 -3.57972,17.81697 -10.73899,25.87118 -7.40342,8.37967 -15.62036,12.5695 -24.65084,12.5695 -12.9356,0 -19.40339,-5.73559 -19.40339,-17.20678 0,-10.41353 4.02711,-22.00674 12.08135,-34.77966 7.07795,-11.22706 15.29489,-20.62366 24.65085,-28.18984 11.06436,-8.94906 21.39655,-13.42363 30.99661,-13.42372 3.41688,9e-5 6.46772,1.09839 9.15254,3.29491 4.71856,-2.19652 9.72195,-3.29482 15.01017,-3.29491 l 0,-0.12204 c 4.88126,0.16281 10.25075,1.74925 16.10848,4.75932 1.54565,0.81365 6.14225,3.53907 13.78983,8.17628 4.79987,2.92889 8.37953,4.39329 10.73898,4.39322 l 2.31864,0 c 7.40325,7e-5 14.07443,-1.58637 20.01356,-4.75933 3.17273,-1.70839 8.7456,-5.7355 16.71865,-12.08135 l 0.48813,0 0,0.12203 0.3661,0.7322 m -97.87118,11.83729 c -8e-5,-0.40669 -0.0814,-1.09822 -0.24407,-2.07457 -0.16279,-0.97619 -0.20346,-1.74907 -0.12203,-2.31865 -8.46109,3.57975 -14.60345,10.2916 -18.42712,20.1356 -0.56955,1.46447 -0.85429,2.56277 -0.85424,3.29491 -5e-5,1.9526 1.05757,2.92887 3.17288,2.92881 4.23045,6e-5 8.09485,-2.68468 11.59322,-8.05423 3.25417,-4.79993 4.88128,-9.43721 4.88136,-13.91187"
         id="path3025"
         inkscape:connector-curvature="0"
         style="fill:#ff0000" />
      <path
         d="m 204.09191,249.41923 c -5e-5,0.97629 -1.17971,1.74918 -3.53898,2.31864 -1.87123,0.48816 -3.49835,0.73223 -4.88136,0.7322 -0.89495,3e-5 -1.78986,-0.0813 -2.68475,-0.24406 -3.09155,5.939 -6.75256,11.26781 -10.98305,15.98644 -5.85764,6.58983 -11.10509,9.88474 -15.74237,9.88474 -6.42712,0 -9.64067,-2.92881 -9.64068,-8.78644 1e-5,-7.32202 3.49831,-15.41692 10.49492,-24.28474 7.32202,-9.19318 14.56269,-13.78979 21.72203,-13.78984 5.53217,5e-5 8.29827,2.56276 8.29831,7.68814 -4e-5,1.70851 -0.89496,5.0441 -2.68475,10.00678 0.81352,0.2441 1.54573,0.36613 2.19661,0.3661 0.65081,3e-5 1.62708,-0.122 2.92881,-0.3661 1.30166,-0.24404 2.27793,-0.36607 2.92882,-0.3661 1.05758,3e-5 1.58639,0.28477 1.58644,0.85424 m -10.37288,-9.76272 c -4e-5,-2.6847 -1.05766,-4.02707 -3.17288,-4.02712 -1.62715,5e-5 -3.3763,0.73225 -5.24746,2.19662 -1.78986,1.46444 -2.68477,2.96952 -2.68475,4.51525 -2e-5,1.62715 0.81354,3.13224 2.44068,4.51525 1.70845,1.30173 3.37624,1.95258 5.00339,1.95255 0.16268,3e-5 0.36607,-0.0406 0.61017,-0.12204 l 0,-0.12203 c 0.73217,3e-5 1.46437,-1.30167 2.19661,-3.90509 0.56946,-2.03386 0.8542,-3.70165 0.85424,-5.00339 m -4.27119,11.95933 c -4.4746,-0.48811 -7.64748,-2.68472 -9.51864,-6.58983 -1.38307,1.62715 -3.41697,5.12545 -6.1017,10.49491 l 0,-0.12203 c -0.16272,0.89493 -0.81357,2.60341 -1.95254,5.12542 -0.97628,2.19663 -1.46442,3.94578 -1.46441,5.24746 -1e-5,1.62713 0.81355,2.44069 2.44068,2.44068 5.28812,1e-5 10.82032,-5.53219 16.59661,-16.59661"
         id="path3027"
         inkscape:connector-curvature="0"
         style="fill:#ff0000" />
      <path
         d="m 237.83714,237.4599 c -4e-5,2.35936 -0.85428,4.75936 -2.56271,7.2 -1.87122,2.76614 -3.90512,4.14919 -6.10169,4.14916 -0.40682,3e-5 -1.1797,-0.40675 -2.31865,-1.22034 -0.40681,-0.97624 -0.6102,-1.66777 -0.61017,-2.07458 -3e-5,-1.87115 0.85421,-3.6203 2.56271,-5.24746 1.7898,-1.70843 3.62031,-2.39996 5.49153,-2.07457 -4e-5,-1.38301 -1.09834,-2.07454 -3.29492,-2.07458 -3.90511,4e-5 -8.54239,4.43394 -13.91186,13.3017 -5.04408,8.37968 -7.56611,14.76611 -7.5661,19.15932 -1e-5,1.95255 0.73219,2.92882 2.19661,2.92881 3.41693,10e-6 6.87455,-1.4644 10.37288,-4.39322 1.46438,-1.22033 4.06777,-3.94575 7.81017,-8.17627 2.60335,-2.92879 4.39318,-4.3932 5.36949,-4.39322 0.32539,2e-5 0.4881,0.20341 0.48814,0.61017 -4e-5,0.89494 -2.4814,4.43392 -7.44407,10.61695 -6.91528,8.62373 -13.99324,12.93559 -21.2339,12.93559 -6.8339,0 -10.25085,-3.25423 -10.25085,-9.76271 0,-2.27796 0.65085,-5.36948 1.95254,-9.27458 1.22034,-3.66099 2.48136,-6.54912 3.78306,-8.6644 8.54235,-13.50505 17.81692,-20.25758 27.82372,-20.25763 1.87116,5e-5 3.57963,0.65089 5.12543,1.95254 1.54572,1.30174 2.3186,2.88818 2.31864,4.75932"
         id="path3029"
         inkscape:connector-curvature="0"
         style="fill:#ff0000" />
      <path
         d="m 284.80399,230.87007 c -1.2204,4.71869 -4.18988,10.69835 -8.90848,17.93899 -5.12546,7.89154 -8.3797,13.70849 -9.76271,17.45084 l 1.0983,0.73221 c 3.09149,-0.97626 6.0203,-3.41694 8.78644,-7.32204 2.76606,-3.90506 4.27114,-5.89828 4.51526,-5.97966 l 0.48813,0 c 0.32538,0.40681 0.48809,0.85426 0.48814,1.34237 -5e-5,3.41697 -2.84751,8.01358 -8.54237,13.78984 -5.6136,5.77627 -10.12885,8.6644 -13.54577,8.6644 -2.60341,0 -4.39324,-0.65084 -5.36949,-1.95254 -0.24409,-0.32542 -0.93561,-2.11525 -2.07457,-5.36949 -2.76612,4.88136 -6.54917,7.32203 -11.34916,7.32203 -2.19661,0 -4.10848,-0.93559 -5.73559,-2.80678 -1.62712,-1.87118 -2.44068,-3.90507 -2.44068,-6.10169 0,-6.34575 4.06779,-14.23727 12.20339,-23.67458 8.21693,-9.5186 15.41692,-14.27792 21.6,-14.27796 0.65081,4e-5 1.7898,0.4475 3.41695,1.34237 1.62708,0.8136 2.80674,1.26106 3.53898,1.34237 0.4881,-0.24402 0.77284,-0.81351 0.85424,-1.70847 0.89487,-0.73216 2.60335,-1.09826 5.12543,-1.09831 2.44062,5e-5 4.31181,0.12208 5.61356,0.3661 m -13.91187,5.85763 c -0.24411,-1.05758 -0.97631,-1.5864 -2.19661,-1.58644 -1.13902,4e-5 -2.35936,0.52886 -3.66102,1.58644 l 0,-0.12203 c -4.06782,3.33563 -7.89155,7.68817 -11.47118,13.05762 -4.23053,6.26443 -6.34578,11.51189 -6.34577,15.74238 -1e-5,1.70848 0.69151,2.56272 2.07458,2.56271 1.87117,10e-6 5.77625,-4.5966 11.71525,-13.78983 5.28811,-8.13556 8.58302,-13.95251 9.88475,-17.45085"
         id="path3031"
         inkscape:connector-curvature="0"
         style="fill:#ff0000" />
      <path
         d="m 497.49906,185.22939 c -0.0815,2.60349 -2.92898,6.46789 -8.54237,11.59323 -10.33236,9.51871 -20.74591,14.27803 -31.24068,14.27796 -2.92894,7e-5 -5.32894,-0.16264 -7.2,-0.48813 -2.27809,-0.40672 -6.06114,-2.15587 -11.34915,-5.24746 -16.59671,-9.76263 -27.25433,-14.64398 -31.97289,-14.64407 -2.44075,9e-5 -3.66109,0.5289 -3.66101,1.58644 -8e-5,0.48822 0.0813,1.2611 0.24407,2.31865 0.24398,1.05771 0.36602,1.83059 0.3661,2.31864 -8e-5,6.10177 -2.11533,11.87804 -6.34577,17.32881 -4.556,5.85769 -9.80345,8.7865 -15.74237,8.78644 l -4.75932,-1.34237 -1.83051,-4.27119 c -5e-5,-4.96264 2.35927,-10.45416 7.07797,-16.47457 4.55587,-5.69483 9.27451,-9.4372 14.15593,-11.22712 -1.62719,-0.65076 -2.72549,-0.97618 -3.29492,-0.97627 -7.56616,9e-5 -16.06784,5.28822 -25.50508,15.8644 -6.91529,7.72888 -12.93562,16.39328 -18.06102,25.99323 -5.939,11.14579 -8.90849,19.9729 -8.90847,26.48135 -2e-5,8.46103 3.17286,12.69154 9.51864,12.69153 6.34573,1e-5 12.28471,-3.37626 17.81695,-10.12882 5.28809,-6.50845 7.93215,-13.01691 7.9322,-19.52542 -5e-5,-0.97623 -0.36615,-1.9525 -1.0983,-2.92881 -0.73225,-0.97623 -1.54581,-1.46437 -2.44068,-1.46441 -1.3831,4e-5 -3.45767,1.46445 -6.22373,4.39322 l -0.24407,0.12203 c -1.05766,1.62716 -2.35936,5.12546 -3.90508,10.49492 -2.03393,0.89494 -4.10851,2.11528 -6.22373,3.66102 l -5.85763,4.14915 -0.24406,0 c -0.16274,-0.97625 -0.2441,-1.58642 -0.24407,-1.83051 -3e-5,-6.67116 1.74912,-12.56946 5.24746,-17.69492 3.90505,-5.85758 9.03047,-8.78639 15.37627,-8.78644 6.34571,5e-5 9.51859,2.96954 9.51864,8.90848 -5e-5,9.19325 -3.57971,17.81697 -10.73898,25.87118 -7.40343,8.37967 -15.62037,12.5695 -24.65085,12.5695 -12.9356,0 -19.40339,-5.73559 -19.40339,-17.20678 0,-10.41353 4.02712,-22.00674 12.08136,-34.77966 7.07794,-11.22706 15.29488,-20.62366 24.65084,-28.18984 11.06436,-8.94906 21.39656,-13.42363 30.99661,-13.42372 3.41688,9e-5 6.46773,1.09839 9.15255,3.29491 4.71856,-2.19652 9.72194,-3.29482 15.01017,-3.29491 l 0,-0.12204 c 4.88126,0.16281 10.25074,1.74925 16.10847,4.75932 1.54565,0.81365 6.14226,3.53907 13.78983,8.17628 4.79987,2.92889 8.37953,4.39329 10.73898,4.39322 l 2.31865,0 c 7.40325,7e-5 14.07443,-1.58637 20.01356,-4.75933 3.17272,-1.70839 8.7456,-5.7355 16.71864,-12.08135 l 0.48814,0 0,0.12203 0.3661,0.7322 m -97.87119,11.83729 c -7e-5,-0.40669 -0.0814,-1.09822 -0.24407,-2.07457 -0.16278,-0.97619 -0.20346,-1.74907 -0.12203,-2.31865 -8.46108,3.57975 -14.60345,10.2916 -18.42712,20.1356 -0.56954,1.46447 -0.85429,2.56277 -0.85423,3.29491 -6e-5,1.9526 1.05757,2.92887 3.17288,2.92881 4.23044,6e-5 8.09485,-2.68468 11.59322,-8.05423 3.25416,-4.79993 4.88128,-9.43721 4.88135,-13.91187"
         id="path3033"
         inkscape:connector-curvature="0"
         style="fill:#ff0000" />
      <path
         d="m 421.21691,249.41923 c -5e-5,0.97629 -1.17971,1.74918 -3.53898,2.31864 -1.87123,0.48816 -3.49835,0.73223 -4.88136,0.7322 -0.89495,3e-5 -1.78986,-0.0813 -2.68475,-0.24406 -3.09155,5.939 -6.75256,11.26781 -10.98305,15.98644 -5.85764,6.58983 -11.10509,9.88474 -15.74237,9.88474 -6.42712,0 -9.64067,-2.92881 -9.64068,-8.78644 10e-6,-7.32202 3.49831,-15.41692 10.49492,-24.28474 7.32202,-9.19318 14.56269,-13.78979 21.72203,-13.78984 5.53217,5e-5 8.29827,2.56276 8.29831,7.68814 -4e-5,1.70851 -0.89496,5.0441 -2.68475,10.00678 0.81352,0.2441 1.54573,0.36613 2.19661,0.3661 0.65081,3e-5 1.62708,-0.122 2.92881,-0.3661 1.30166,-0.24404 2.27793,-0.36607 2.92882,-0.3661 1.05758,3e-5 1.58639,0.28477 1.58644,0.85424 m -10.37288,-9.76272 c -4e-5,-2.6847 -1.05766,-4.02707 -3.17288,-4.02712 -1.62715,5e-5 -3.3763,0.73225 -5.24746,2.19662 -1.78986,1.46444 -2.68477,2.96952 -2.68475,4.51525 -2e-5,1.62715 0.81354,3.13224 2.44068,4.51525 1.70845,1.30173 3.37624,1.95258 5.00339,1.95255 0.16268,3e-5 0.36607,-0.0406 0.61017,-0.12204 l 0,-0.12203 c 0.73217,3e-5 1.46437,-1.30167 2.19661,-3.90509 0.56946,-2.03386 0.8542,-3.70165 0.85424,-5.00339 m -4.27119,11.95933 c -4.4746,-0.48811 -7.64748,-2.68472 -9.51864,-6.58983 -1.38307,1.62715 -3.41697,5.12545 -6.1017,10.49491 l 0,-0.12203 c -0.16272,0.89493 -0.81357,2.60341 -1.95254,5.12542 -0.97628,2.19663 -1.46442,3.94578 -1.46441,5.24746 -10e-6,1.62713 0.81355,2.44069 2.44068,2.44068 5.28812,1e-5 10.82032,-5.53219 16.59661,-16.59661"
         id="path3035"
         inkscape:connector-curvature="0"
         style="fill:#ff0000" />
      <path
         d="m 483.01707,189.74465 c -7e-5,2.84754 -0.93566,5.89839 -2.80678,9.15254 -7.89158,13.91193 -19.36276,27.37633 -34.41356,40.39322 -2.19664,1.78987 -6.10172,5.0441 -11.71526,9.76271 -1.22035,0.9763 -2.48137,3.62037 -3.78305,7.93221 -1.22035,3.9051 -1.87119,6.91527 -1.95254,9.03051 l 1.34237,2.92881 c 0.32541,0.0814 0.5288,0.12204 0.61017,0.12203 1.54575,10e-6 4.0271,-1.91185 7.44407,-5.73559 3.41693,-3.82371 5.53218,-5.73557 6.34576,-5.73559 0.40676,2e-5 0.61015,0.20341 0.61017,0.61017 -2e-5,0.97629 -1.78985,3.57967 -5.36949,7.81017 -7.15934,8.46102 -12.36611,12.69152 -15.62034,12.69152 -2.0339,0 -3.74237,-0.7322 -5.12542,-2.19661 -1.3017,-1.54576 -1.95254,-3.33559 -1.95254,-5.36949 0,-5.04406 1.42372,-11.38981 4.27118,-19.03729 5.20677,-13.99318 12.93558,-27.74232 23.18644,-41.24746 12.77285,-16.84059 23.59317,-25.26092 32.46102,-25.26101 4.3118,9e-5 6.46773,1.38314 6.4678,4.14915 m -3.66102,2.31864 c -0.89498,-1.62703 -1.5865,-2.44059 -2.07458,-2.44067 -5.4509,8e-5 -13.46445,7.68821 -24.04067,23.0644 -8.94918,13.017 -14.88816,23.55259 -17.81695,31.60678 6.67116,-4.47454 15.17285,-12.48809 25.50508,-24.04068 11.30842,-12.69145 17.45079,-22.08805 18.42712,-28.18983"
         id="path3037"
         inkscape:connector-curvature="0"
         style="fill:#ff0000" />
      <path
         d="m 495.31961,230.87007 c -1.22039,4.71869 -4.18988,10.69835 -8.90847,17.93899 -5.12547,7.89154 -8.3797,13.70849 -9.76272,17.45084 l 1.09831,0.73221 c 3.09148,-0.97626 6.0203,-3.41694 8.78644,-7.32204 2.76605,-3.90506 4.27114,-5.89828 4.51525,-5.97966 l 0.48814,0 c 0.32537,0.40681 0.48808,0.85426 0.48813,1.34237 -5e-5,3.41697 -2.8475,8.01358 -8.54237,13.78984 -5.61359,5.77627 -10.12884,8.6644 -13.54576,8.6644 -2.60342,0 -4.39325,-0.65084 -5.36949,-1.95254 -0.24409,-0.32542 -0.93562,-2.11525 -2.07458,-5.36949 -2.76612,4.88136 -6.54917,7.32203 -11.34915,7.32203 -2.19662,0 -4.10848,-0.93559 -5.73559,-2.80678 -1.62713,-1.87118 -2.44068,-3.90507 -2.44068,-6.10169 0,-6.34575 4.06779,-14.23727 12.20339,-23.67458 8.21692,-9.5186 15.41692,-14.27792 21.6,-14.27796 0.65081,4e-5 1.78979,0.4475 3.41695,1.34237 1.62708,0.8136 2.80673,1.26106 3.53898,1.34237 0.48809,-0.24402 0.77284,-0.81351 0.85424,-1.70847 0.89487,-0.73216 2.60334,-1.09826 5.12542,-1.09831 2.44063,5e-5 4.31181,0.12208 5.61356,0.3661 m -13.91186,5.85763 c -0.24411,-1.05758 -0.97631,-1.5864 -2.19661,-1.58644 -1.13902,4e-5 -2.35936,0.52886 -3.66102,1.58644 l 0,-0.12203 c -4.06783,3.33563 -7.89155,7.68817 -11.47119,13.05762 -4.23052,6.26443 -6.34578,11.51189 -6.34576,15.74238 -2e-5,1.70848 0.69151,2.56272 2.07458,2.56271 1.87116,10e-6 5.77624,-4.5966 11.71525,-13.78983 5.2881,-8.13556 8.58301,-13.95251 9.88475,-17.45085"
         id="path3039"
         inkscape:connector-curvature="0"
         style="fill:#ff0000" />
    </g>
    <g
       id="g3112"
       transform="matrix(0.75147179,0,0,0.75147179,63.632207,228.06536)"
       style="fill:#ff0000">
      <g
         id="text2985"
         style="font-size:144px;font-style:normal;font-variant:normal;font-weight:normal;font-stretch:normal;text-align:center;line-height:125%;letter-spacing:0px;word-spacing:0px;text-anchor:middle;fill:#ff0000;fill-opacity:1;stroke:none;font-family:Coca Cola ii;-inkscape-font-specification:Coca Cola ii">
        <path
           sodipodi:nodetypes="cccscccccscccccccscscccsccccsccccscccccccccc"
           inkscape:connector-curvature="0"
           id="path3060"
           d="m 207.3383,385.20927 c 31.65168,5.97929 6.90596,8.05471 2.10606,10.14082 -44.55105,33.02292 -48.52295,70.93355 -48.52288,80.69625 -7e-5,1.22034 0.48806,1.83051 1.4644,1.83051 1.54569,0 8.17619,-5.85762 19.89153,-17.57288 0.5694,-0.16269 1.09821,-0.24405 1.58644,-0.24407 1.05753,2e-5 1.58634,0.32544 1.58644,0.97627 -1e-4,0.48816 -1.74925,2.31866 -5.24746,5.49152 -3.41703,3.1729 -6.87466,6.34578 -10.37288,9.51865 -4.88143,4.23051 -8.70515,6.34576 -11.47119,6.34576 -3.33565,0 -5.93904,-1.50508 -7.81017,-4.51525 -1.62717,-2.60339 -2.44073,-5.65423 -2.44067,-9.15254 -6e-5,-7.48473 3.5796,-17.61353 10.73898,-30.38645 2.68467,-4.79995 8.70501,-14.11519 18.06102,-27.94576 l 14.12009,-17.36465 c -8.29839,5.77636 -20.01848,16.3071 -32.30314,34.4494 -9.03057,13.34241 -17.4509,27.33562 -25.26102,41.97966 -4.47462,8.37966 -7.89156,12.56949 -10.25085,12.56949 -2.76613,0 -4.8407,-1.66779 -6.22373,-5.00339 -1.05765,-2.52203 -1.58646,-5.41016 -1.58644,-8.66441 -2e-5,-9.76268 13.17962,-35.22707 39.53899,-76.39322 -8.13565,5.85771 -22.94242,25.87125 -44.42034,60.04068 -5.2068,8.29833 -9.60001,14.52205 -13.179665,18.67119 -6.671187,7.81017 -12.69152,11.71525 -18.061017,11.71525 -4.067781,0 -7.444049,-1.22034 -10.128813,-3.66102 -2.766078,-2.52202 -4.149128,-5.77626 -4.149153,-9.76271 2.5e-5,-3.90506 1.098329,-7.28133 3.294915,-10.12881 2.359342,-3.17286 5.410186,-4.75929 9.152543,-4.75932 4.800008,3e-5 7.200005,2.27799 7.2,6.8339 5e-6,2.84747 -1.301688,4.84069 -3.905085,5.97966 -1.38304,0.40679 -3.783038,1.13899 -7.2,2.19661 -2.522015,0.81357 -3.78303,2.52204 -3.783051,5.12542 2.1e-5,1.70848 1.098325,3.17289 3.294915,4.39322 1.952558,1.05763 3.86442,1.58644 5.735594,1.58644 6.915258,0 16.433893,-9.51863 28.555927,-28.55593 14.31862,-22.45418 26.31861,-39.41688 36,-50.88814 6.99655,-8.29821 11.59316,-12.44736 13.78984,-12.44745 1.22027,9e-5 1.83044,0.5289 1.8305,1.58644 -6e-5,1.70856 -2.40006,8.13567 -7.2,19.28135 -5.85768,13.5865 -11.75598,27.86446 -17.69491,42.8339 -2.27801,5.7763 -3.82377,9.84409 -4.63729,12.20339 -1.5458,4.71866 -2.48139,8.90848 -2.80678,12.56949 7.40335,-13.9932 17.2474,-30.26437 29.5322,-48.81356 17.49145,-26.44059 31.26818,-40.46449 37.04455,-40.46458"
           style="fill:#ff0000" />
        <path
           id="path3062"
           d="m 229.3434,453.47007 c -4e-5,0.9763 -1.1797,1.74918 -3.53898,2.31864 -1.87122,0.48816 -3.49834,0.73223 -4.88135,0.73221 -0.89496,2e-5 -1.78987,-0.0813 -2.68475,-0.24407 -3.09156,5.939 -6.75257,11.26781 -10.98305,15.98644 -5.85765,6.58983 -11.1051,9.88474 -15.74237,9.88474 -6.42712,0 -9.64068,-2.92881 -9.64068,-8.78644 0,-7.32201 3.4983,-15.41692 10.49491,-24.28474 7.32202,-9.19318 14.56269,-13.78979 21.72204,-13.78983 5.53217,4e-5 8.29826,2.56275 8.2983,7.68813 -4e-5,1.70852 -0.89495,5.0441 -2.68474,10.00678 0.81352,0.2441 1.54572,0.36613 2.19661,0.3661 0.65081,3e-5 1.62708,-0.122 2.92881,-0.3661 1.30165,-0.24404 2.27792,-0.36607 2.92881,-0.3661 1.05759,3e-5 1.5864,0.28478 1.58644,0.85424 m -10.37288,-9.76271 c -3e-5,-2.68471 -1.05766,-4.02708 -3.17288,-4.02712 -1.62715,4e-5 -3.3763,0.73224 -5.24746,2.19661 -1.78985,1.46444 -2.68476,2.96953 -2.68474,4.51525 -2e-5,1.62715 0.81353,3.13224 2.44068,4.51526 1.70844,1.30172 3.37624,1.95257 5.00339,1.95254 0.16268,3e-5 0.36607,-0.0406 0.61017,-0.12204 l 0,-0.12203 c 0.73217,3e-5 1.46437,-1.30166 2.19661,-3.90508 0.56945,-2.03387 0.8542,-3.70166 0.85423,-5.00339 m -4.27118,11.95932 c -4.47461,-0.48811 -7.64748,-2.68472 -9.51865,-6.58983 -1.38307,1.62715 -3.41696,5.12545 -6.10169,10.49491 l 0,-0.12203 c -0.16273,0.89494 -0.81358,2.60341 -1.95254,5.12542 -0.97629,2.19663 -1.46442,3.94578 -1.46441,5.24746 -1e-5,1.62713 0.81355,2.44069 2.44068,2.44068 5.28811,1e-5 10.82031,-5.53219 16.59661,-16.59661"
           inkscape:connector-curvature="0"
           style="fill:#ff0000" />
        <path
           id="path3064"
           d="m 268.21406,442.73108 c -4e-5,2.35936 -0.85428,4.75936 -2.56271,7.2 -1.87123,2.76614 -3.90513,4.14919 -6.1017,4.14916 -0.40681,3e-5 -1.13901,-0.40675 -2.19661,-1.22034 -0.48817,-0.97624 -0.73223,-1.66777 -0.7322,-2.07458 -3e-5,-1.87115 0.8542,-3.6203 2.56271,-5.24746 1.78979,-1.70843 3.6203,-2.39996 5.49153,-2.07457 l 0,-1.09831 c -4e-5,-1.13894 -1.22038,-1.70843 -3.66102,-1.70847 l -0.7322,0 c -1.13902,4e-5 -3.98648,1.99326 -8.54238,5.97966 -4.31188,3.66105 -6.95595,6.26444 -7.9322,7.81017 -2.84747,4.23053 -5.36951,8.82714 -7.5661,13.78983 -1.38306,3.17289 -3.45764,7.97289 -6.22373,14.4 l -12.20339,-0.24407 11.95932,-25.50508 c 0.97627,-1.78981 1.95254,-3.57963 2.92882,-5.36949 1.30168,-2.44065 1.95253,-4.1898 1.95254,-5.24746 -1e-5,-1.30166 -0.36611,-1.95251 -1.09831,-1.95254 -0.24407,3e-5 -1.50509,1.17969 -3.78305,3.53898 -2.19661,2.35935 -3.53898,3.53901 -4.02712,3.53898 -0.0814,-0.0813 -0.24407,-0.16268 -0.48813,-0.24407 l -0.12204,-0.3661 c 0.0814,-1.54573 2.35932,-4.71861 6.8339,-9.51864 4.55592,-4.79996 7.52541,-7.19995 8.90848,-7.2 3.66099,5e-5 5.4915,3.13225 5.49152,9.39661 -2e-5,0.73224 0.20337,1.09834 0.61017,1.0983 l 6.22373,-4.02712 c 4.14912,-2.76605 7.24064,-4.1491 9.27458,-4.14915 1.46436,5e-5 2.76606,0.69157 3.90508,2.07458 1.2203,1.38309 1.83047,2.80682 1.83051,4.27118"
           inkscape:connector-curvature="0"
           style="fill:#ff0000" />
        <path
           id="path3066"
           d="m 304.05484,400.62939 -9.64067,18.42712 9.03051,0 -0.85424,3.29491 -10.49492,0 -20.37966,38.44068 c -1.46442,2.76612 -2.19662,5.85764 -2.19661,9.27458 l 1.34237,2.92881 c 0.32542,0.0814 0.5288,0.12204 0.61017,0.12204 1.54575,0 4.02711,-1.91186 7.44407,-5.7356 3.41693,-3.82371 5.53218,-5.73557 6.34576,-5.73559 0.40676,2e-5 0.61015,0.20341 0.61017,0.61017 -2e-5,0.97629 -1.78985,3.57968 -5.36949,7.81017 -7.15933,8.46102 -12.36611,12.69152 -15.62034,12.69152 -2.0339,0 -3.74237,-0.7322 -5.12542,-2.19661 -1.3017,-1.54576 -1.95254,-3.33558 -1.95254,-5.36949 0,-6.75253 2.15593,-14.88811 6.46779,-24.40678 0.97627,-2.11522 5.00338,-9.68131 12.08136,-22.6983 l 14.64407,-26.84746 13.05762,-0.61017"
           inkscape:connector-curvature="0"
           style="fill:#ff0000" />
        <path
           id="path3068"
           d="m 324.49171,443.34125 c -4e-5,5.69495 -2.96953,10.65766 -8.90848,14.88814 -4.71866,3.41697 -10.33222,5.81697 -16.84067,7.2 -1.22035,3.09154 -1.83052,5.49154 -1.83051,7.2 -1e-5,1.95255 0.73219,2.92882 2.19661,2.92881 3.41693,10e-6 6.87455,-1.46439 10.37288,-4.39322 1.46438,-1.22032 4.06777,-3.94574 7.81017,-8.17627 2.60336,-2.92879 4.39318,-4.39319 5.36949,-4.39322 0.32539,3e-5 0.4881,0.20342 0.48814,0.61017 -4e-5,0.89494 -2.48139,4.43392 -7.44407,10.61695 -6.91528,8.62373 -13.99324,12.93559 -21.2339,12.93559 -6.8339,0 -10.25085,-3.25423 -10.25085,-9.76271 0,-7.89151 3.45763,-16.10845 10.37288,-24.65085 7.32202,-9.03046 14.80676,-13.54571 22.45424,-13.54576 4.96268,5e-5 7.44403,2.8475 7.44407,8.54237 m -5.12542,-1.0983 c -4e-5,-1.2203 -0.20343,-2.19657 -0.61017,-2.92881 -0.32546,-0.16267 -0.69156,-0.24403 -1.09831,-0.24407 -2.68477,4e-5 -6.1424,3.29495 -10.37288,9.88474 -3.25426,4.96274 -5.77629,9.60003 -7.5661,13.91187 4.55591,-1.13896 8.86777,-3.70167 12.93559,-7.68814 4.47455,-4.31183 6.71183,-8.62369 6.71187,-12.93559"
           inkscape:connector-curvature="0"
           style="fill:#ff0000" />
        <path
           id="path3070"
           d="m 363.50537,460.18193 -25.62711,0 2.19661,-5.36949 25.38305,0 -1.95255,5.36949"
           inkscape:connector-curvature="0"
           style="fill:#ff0000" />
        <path
           id="path3072"
           d="m 543.98493,389.28024 c -0.0815,2.60348 -2.92898,6.46788 -8.54237,11.59322 -10.33236,9.51871 -20.74591,14.27803 -31.24068,14.27796 -2.92894,7e-5 -5.32894,-0.16264 -7.2,-0.48813 -2.27809,-0.40671 -6.06114,-2.15586 -11.34915,-5.24746 -16.59671,-9.76263 -27.25433,-14.64398 -31.97289,-14.64407 -2.44075,9e-5 -3.66109,0.5289 -3.66101,1.58644 -8e-5,0.48822 0.0813,1.26111 0.24407,2.31865 0.24398,1.05771 0.36602,1.83059 0.3661,2.31864 -8e-5,6.10177 -2.11533,11.87804 -6.34577,17.32882 -4.556,5.85768 -9.80345,8.78649 -15.74237,8.78644 l -4.75932,-1.34238 -1.83051,-4.27118 c -5e-5,-4.96265 2.35927,-10.45417 7.07797,-16.47458 4.55587,-5.69483 9.27451,-9.4372 14.15593,-11.22712 -1.62719,-0.65076 -2.72549,-0.97618 -3.29492,-0.97627 -7.56616,9e-5 -16.06784,5.28822 -25.50508,15.86441 -6.91529,7.72888 -12.93562,16.39327 -18.06102,25.99322 -5.939,11.1458 -8.90849,19.97291 -8.90847,26.48135 -2e-5,8.46103 3.17286,12.69154 9.51864,12.69153 6.34573,10e-6 12.28471,-3.37626 17.81695,-10.12881 5.28809,-6.50845 7.93215,-13.01692 7.9322,-19.52543 -5e-5,-0.97623 -0.36615,-1.9525 -1.0983,-2.92881 -0.73225,-0.97623 -1.54581,-1.46437 -2.44068,-1.46441 -1.3831,4e-5 -3.45767,1.46445 -6.22373,4.39322 l -0.24406,0.12204 c -1.05767,1.62715 -2.35937,5.12545 -3.90509,10.49491 -2.03393,0.89494 -4.10851,2.11528 -6.22373,3.66102 l -5.85763,4.14915 -0.24406,0 c -0.16274,-0.97625 -0.2441,-1.58642 -0.24407,-1.83051 -3e-5,-6.67116 1.74913,-12.56946 5.24746,-17.69491 3.90505,-5.85759 9.03047,-8.7864 15.37627,-8.78644 6.34571,4e-5 9.51859,2.96953 9.51864,8.90847 -5e-5,9.19325 -3.57971,17.81697 -10.73898,25.87119 -7.40343,8.37966 -15.62037,12.56949 -24.65085,12.56949 -12.9356,0 -19.40339,-5.73559 -19.40339,-17.20678 0,-10.41353 4.02712,-22.00674 12.08136,-34.77966 7.07794,-11.22706 15.29489,-20.62366 24.65084,-28.18983 11.06436,-8.94907 21.39656,-13.42364 30.99661,-13.42373 3.41688,9e-5 6.46773,1.0984 9.15255,3.29491 4.71856,-2.19651 9.72194,-3.29482 15.01017,-3.29491 l 0,-0.12204 c 4.88126,0.16281 10.25074,1.74925 16.10847,4.75933 1.54565,0.81364 6.14226,3.53907 13.78983,8.17627 4.79988,2.92889 8.37953,4.3933 10.73898,4.39322 l 2.31865,0 c 7.40325,8e-5 14.07443,-1.58636 20.01356,-4.75932 3.17272,-1.70839 8.7456,-5.73551 16.71864,-12.08136 l 0.48814,0 0,0.12203 0.3661,0.73221 m -97.87119,11.83729 c -7e-5,-0.4067 -0.0814,-1.09823 -0.24406,-2.07458 -0.16279,-0.97619 -0.20347,-1.74907 -0.12204,-2.31864 -8.46108,3.57974 -14.60345,10.2916 -18.42712,20.13559 -0.56954,1.46447 -0.85429,2.56277 -0.85423,3.29491 -6e-5,1.95261 1.05757,2.92888 3.17288,2.92882 4.23044,6e-5 8.09485,-2.68469 11.59322,-8.05424 3.25416,-4.79993 4.88128,-9.43721 4.88135,-13.91186"
           inkscape:connector-curvature="0"
           style="fill:#ff0000" />
        <path
           id="path3074"
           d="m 467.56215,453.47007 c -4e-5,0.9763 -1.1797,1.74918 -3.53898,2.31864 -1.87122,0.48816 -3.49834,0.73223 -4.88135,0.73221 -0.89496,2e-5 -1.78987,-0.0813 -2.68475,-0.24407 -3.09156,5.939 -6.75257,11.26781 -10.98305,15.98644 -5.85765,6.58983 -11.1051,9.88474 -15.74237,9.88474 -6.42712,0 -9.64068,-2.92881 -9.64068,-8.78644 0,-7.32201 3.4983,-15.41692 10.49491,-24.28474 7.32202,-9.19318 14.56269,-13.78979 21.72204,-13.78983 5.53217,4e-5 8.29826,2.56275 8.2983,7.68813 -4e-5,1.70852 -0.89495,5.0441 -2.68474,10.00678 0.81352,0.2441 1.54572,0.36613 2.19661,0.3661 0.65081,3e-5 1.62708,-0.122 2.92881,-0.3661 1.30165,-0.24404 2.27792,-0.36607 2.92881,-0.3661 1.05759,3e-5 1.5864,0.28478 1.58644,0.85424 m -10.37288,-9.76271 c -3e-5,-2.68471 -1.05766,-4.02708 -3.17288,-4.02712 -1.62715,4e-5 -3.3763,0.73224 -5.24746,2.19661 -1.78985,1.46444 -2.68476,2.96953 -2.68474,4.51525 -2e-5,1.62715 0.81353,3.13224 2.44068,4.51526 1.70844,1.30172 3.37624,1.95257 5.00339,1.95254 0.16268,3e-5 0.36607,-0.0406 0.61017,-0.12204 l 0,-0.12203 c 0.73217,3e-5 1.46437,-1.30166 2.19661,-3.90508 0.56945,-2.03387 0.8542,-3.70166 0.85423,-5.00339 m -4.27118,11.95932 c -4.47461,-0.48811 -7.64748,-2.68472 -9.51865,-6.58983 -1.38307,1.62715 -3.41696,5.12545 -6.10169,10.49491 l 0,-0.12203 c -0.16273,0.89494 -0.81358,2.60341 -1.95254,5.12542 -0.97629,2.19663 -1.46442,3.94578 -1.46441,5.24746 -1e-5,1.62713 0.81355,2.44069 2.44068,2.44068 5.28811,1e-5 10.82031,-5.53219 16.59661,-16.59661"
           inkscape:connector-curvature="0"
           style="fill:#ff0000" />
        <path
           id="path3076"
           d="m 529.36231,393.79549 c -6e-5,2.84755 -0.93566,5.89839 -2.80678,9.15254 -7.89158,13.91193 -19.36275,27.37633 -34.41356,40.39322 -2.19663,1.78987 -6.10171,5.04411 -11.71525,9.76272 -1.22036,0.9763 -2.48137,3.62036 -3.78305,7.9322 -1.22035,3.9051 -1.8712,6.91527 -1.95254,9.03051 l 1.34237,2.92881 c 0.32541,0.0814 0.5288,0.12204 0.61017,0.12204 1.54575,0 4.0271,-1.91186 7.44407,-5.7356 3.41692,-3.82371 5.53217,-5.73557 6.34576,-5.73559 0.40675,2e-5 0.61014,0.20341 0.61017,0.61017 -3e-5,0.97629 -1.78986,3.57968 -5.36949,7.81017 -7.15934,8.46102 -12.36611,12.69152 -15.62034,12.69152 -2.0339,0 -3.74238,-0.7322 -5.12543,-2.19661 -1.30169,-1.54576 -1.95254,-3.33558 -1.95254,-5.36949 0,-5.04405 1.42373,-11.38981 4.27119,-19.03729 5.20677,-13.99318 12.93558,-27.74232 23.18644,-41.24745 12.77284,-16.8406 23.59317,-25.26093 32.46102,-25.26102 4.3118,9e-5 6.46773,1.38314 6.46779,4.14915 m -3.66101,2.31865 c -0.89498,-1.62703 -1.58651,-2.44059 -2.07458,-2.44068 -5.4509,9e-5 -13.46445,7.68821 -24.04068,23.0644 -8.94918,13.01701 -14.88816,23.55259 -17.81695,31.60678 6.67116,-4.47453 15.17285,-12.48808 25.50509,-24.04067 11.30842,-12.69146 17.45078,-22.08806 18.42712,-28.18983"
           inkscape:connector-curvature="0"
           style="fill:#ff0000" />
        <path
           id="path3078"
           d="m 541.66486,434.92092 c -1.2204,4.71868 -4.18988,10.69834 -8.90848,17.93898 -5.12546,7.89155 -8.3797,13.70849 -9.76271,17.45085 l 1.0983,0.7322 c 3.09149,-0.97626 6.0203,-3.41694 8.78644,-7.32203 2.76606,-3.90507 4.27114,-5.89829 4.51526,-5.97967 l 0.48813,0 c 0.32538,0.40681 0.48809,0.85427 0.48814,1.34238 -5e-5,3.41697 -2.8475,8.01357 -8.54237,13.78983 -5.6136,5.77627 -10.12885,8.66441 -13.54577,8.6644 -2.60341,10e-6 -4.39324,-0.65084 -5.36949,-1.95254 -0.24409,-0.32542 -0.93561,-2.11525 -2.07457,-5.36949 -2.76612,4.88136 -6.54917,7.32204 -11.34916,7.32203 -2.19661,10e-6 -4.10848,-0.93559 -5.73559,-2.80678 -1.62712,-1.87118 -2.44068,-3.90507 -2.44068,-6.10169 0,-6.34575 4.06779,-14.23726 12.20339,-23.67458 8.21693,-9.5186 15.41692,-14.27791 21.6,-14.27796 0.65081,5e-5 1.7898,0.4475 3.41695,1.34237 1.62708,0.81361 2.80674,1.26106 3.53899,1.34237 0.48809,-0.24402 0.77283,-0.81351 0.85423,-1.70847 0.89487,-0.73216 2.60335,-1.09826 5.12543,-1.09831 2.44062,5e-5 4.31181,0.12209 5.61356,0.36611 m -13.91187,5.85762 c -0.24411,-1.05758 -0.97631,-1.58639 -2.19661,-1.58644 -1.13902,5e-5 -2.35936,0.52886 -3.66102,1.58644 l 0,-0.12203 c -4.06782,3.33563 -7.89155,7.68817 -11.47118,13.05763 -4.23053,6.26442 -6.34578,11.51188 -6.34577,15.74237 -1e-5,1.70848 0.69151,2.56272 2.07458,2.56271 1.87117,10e-6 5.77625,-4.59659 11.71526,-13.78983 5.2881,-8.13556 8.58301,-13.9525 9.88474,-17.45085"
           inkscape:connector-curvature="0"
           style="fill:#ff0000" />
      </g>
      <path
         sodipodi:nodetypes="cccccccccccccccccccccccccccsccccccccccccc"
         id="path3025-4"
         style="font-size:144px;font-style:normal;font-variant:normal;font-weight:normal;font-stretch:normal;text-align:center;line-height:125%;letter-spacing:0px;word-spacing:0px;text-anchor:middle;fill:#ff0000;fill-opacity:1;stroke:none;font-family:Coca Cola ii;-inkscape-font-specification:Coca Cola ii"
         d="m 324.16623,390.07429 c -0.0815,2.60349 -2.92898,6.46789 -8.54237,11.59323 -10.33236,9.51871 -20.7459,14.27803 -31.24068,14.27796 -2.92894,7e-5 -5.32894,-0.16264 -7.2,-0.48813 -2.27809,-0.40672 -6.06113,-2.15587 -11.34915,-5.24746 -16.59671,-9.76263 -27.25432,-14.64398 -31.97288,-14.64407 -2.44076,9e-5 -3.6611,0.5289 -3.66102,1.58644 -8e-5,0.48822 0.0813,1.2611 0.24407,2.31865 0.24399,1.05771 0.36602,1.83059 0.3661,2.31864 -8e-5,6.10177 -2.11533,11.87804 -6.34576,17.32881 -4.556,5.85769 -9.80345,8.7865 -15.74237,8.78644 l -4.75933,-1.34237 -1.8305,-4.27119 c -5e-5,-4.96264 2.35927,-10.45416 7.07796,-16.47457 4.55587,-5.69483 9.27451,-9.4372 14.15593,-11.22712 -1.62718,-0.65076 -2.72549,-0.97618 -3.29491,-0.97627 -7.56616,9e-5 -16.06785,5.28822 -25.50509,15.8644 -6.91529,7.72888 -17.22877,17.40343 -22.35416,27.00338 -0.0778,-0.3829 -22.69072,26.58138 -8.39838,-6.01354 7.07795,-11.22706 15.29489,-20.62366 24.65085,-28.18984 11.06436,-8.94906 21.39655,-13.42363 30.99661,-13.42372 3.41688,9e-5 6.46772,1.09839 9.15254,3.29491 4.71856,-2.19652 9.72195,-3.29482 15.01017,-3.29491 l 0,-0.12204 c 4.88126,0.16281 10.25075,1.74925 16.10848,4.75932 1.54565,0.81365 6.14225,3.53907 13.78983,8.17628 4.79987,2.92889 8.37953,4.39329 10.73898,4.39322 l 2.31864,0 c 7.40325,7e-5 14.07443,-1.58637 20.01356,-4.75933 3.17273,-1.70839 8.7456,-5.7355 16.71865,-12.08135 l 0.48813,0 0,0.12203 0.3661,0.7322 m -97.87118,11.83729 c -8e-5,-0.40669 -0.0814,-1.09822 -0.24407,-2.07457 -0.16279,-0.97619 -0.20346,-1.74907 -0.12203,-2.31865 -8.46109,3.57975 -14.60345,10.2916 -18.42712,20.1356 -0.56955,1.46447 -0.85429,2.56277 -0.85424,3.29491 -5e-5,1.9526 1.05757,2.92887 3.17288,2.92881 4.23045,6e-5 8.09485,-2.68468 11.59322,-8.05423 3.25417,-4.79993 4.88128,-9.43721 4.88136,-13.91187"
         inkscape:connector-curvature="0" />
    </g>
    <text
       xml:space="preserve"
       style="font-size:53.21007919px;font-style:normal;font-variant:normal;font-weight:normal;font-stretch:normal;text-align:center;line-height:125%;letter-spacing:0px;word-spacing:0px;text-anchor:middle;fill:#ff0000;fill-opacity:1;stroke:none;font-family:Coca Cola ii;-inkscape-font-specification:Coca Cola ii"
       x="388.02264"
       y="673.2959"
       id="text3098"
       sodipodi:linespacing="125%"><tspan
         sodipodi:role="line"
         id="tspan3100"
         x="388.02264"
         y="673.2959">Cerda Cola</tspan><tspan
         sodipodi:role="line"
         x="388.02264"
         y="739.80847"
         id="tspan3102">Bosta Cola</tspan><tspan
         sodipodi:role="line"
         x="388.02264"
         y="806.32111"
         id="tspan3106">Gorda Cola</tspan><tspan
         sodipodi:role="line"
         x="388.02264"
         y="872.83368"
         id="tspan3110" /></text>
    <text
       xml:space="preserve"
       style="font-size:54.71560287px;font-style:normal;font-variant:normal;font-weight:normal;font-stretch:normal;text-align:center;line-height:125%;letter-spacing:0px;word-spacing:0px;text-anchor:middle;fill:#ff0000;fill-opacity:1;stroke:none;font-family:Coca Cola ii;-inkscape-font-specification:Coca Cola ii"
       x="608.19769"
       y="495.92834"
       id="text3126"
       sodipodi:linespacing="125%"><tspan
         sodipodi:role="line"
         id="tspan3128"
         x="608.19769"
         y="495.92834">Morte Certa Cola</tspan><tspan
         sodipodi:role="line"
         x="608.19769"
         y="564.32288"
         id="tspan3130">Fede Cola</tspan><tspan
         sodipodi:role="line"
         x="608.19769"
         y="632.71735"
         id="tspan3132">Engorda Cola</tspan><tspan
         sodipodi:role="line"
         x="608.19769"
         y="701.11188"
         id="tspan3134">Corta Cola</tspan><tspan
         sodipodi:role="line"
         x="608.19769"
         y="769.50635"
         id="tspan3136">Coca Ralho</tspan></text>
    <text
       sodipodi:linespacing="125%"
       id="text3142"
       y="394.28445"
       x="281.26935"
       style="font-size:106.65374756px;font-style:normal;font-variant:normal;font-weight:normal;font-stretch:normal;text-align:center;line-height:125%;letter-spacing:0px;word-spacing:0px;text-anchor:middle;fill:#ff0000;fill-opacity:1;stroke:none;font-family:Coca Cola ii;-inkscape-font-specification:Coca Cola ii"
       xml:space="preserve"><tspan
         id="tspan3148"
         y="394.28445"
         x="281.26935"
         sodipodi:role="line">Corda Cola</tspan><tspan
         id="tspan3150"
         y="527.60162"
         x="281.26935"
         sodipodi:role="line" /></text>
    <text
       xml:space="preserve"
       style="font-size:203.16574097px;font-style:normal;font-variant:normal;font-weight:normal;font-stretch:normal;text-align:center;line-height:125%;letter-spacing:0px;word-spacing:0px;text-anchor:middle;fill:#ff0000;fill-opacity:1;stroke:none;font-family:Coca Cola ii;-inkscape-font-specification:Coca Cola ii"
       x="373.0369"
       y="253.56342"
       id="text3113"
       sodipodi:linespacing="125%"><tspan
         sodipodi:role="line"
         x="373.0369"
         y="253.56342"
         id="tspan3115">Peida Cola</tspan><tspan
         sodipodi:role="line"
         x="373.0369"
         y="507.52057"
         id="tspan3117" /></text>
    <path
       sodipodi:type="star"
       style="fill:#00ff00;fill-opacity:1;stroke:none"
       id="path3121"
       sodipodi:sides="8"
       sodipodi:cx="522.24884"
       sodipodi:cy="16.95582"
       sodipodi:r1="45.050991"
       sodipodi:r2="22.525494"
       sodipodi:arg1="0.73781506"
       sodipodi:arg2="1.1305141"
       inkscape:flatsided="false"
       inkscape:rounded="0"
       inkscape:randomized="0"
       d="m 555.58387,47.260396 -23.73478,-9.927307 -7.45739,24.622731 -9.76336,-23.802694 -22.68408,12.137728 9.92731,-23.734786 -24.62273,-7.457391 23.80269,-9.7633616 -12.13772,-22.6840714 23.73478,9.9273069 7.45739,-24.6227299 9.76337,23.8026933 22.68407,-12.1377283 -9.92731,23.734786 24.62273,7.457391 -23.80269,9.763362 z"
       transform="translate(427.29453,69.700526)" />
  </g>
</svg>
