<?xml version="1.0" encoding="UTF-8" standalone="no"?>
<!-- Created with Inkscape (http://www.inkscape.org/) -->

<svg
   xmlns:dc="http://purl.org/dc/elements/1.1/"
   xmlns:cc="http://creativecommons.org/ns#"
   xmlns:rdf="http://www.w3.org/1999/02/22-rdf-syntax-ns#"
   xmlns:svg="http://www.w3.org/2000/svg"
   xmlns="http://www.w3.org/2000/svg"
   xmlns:sodipodi="http://sodipodi.sourceforge.net/DTD/sodipodi-0.dtd"
   xmlns:inkscape="http://www.inkscape.org/namespaces/inkscape"
   width="500"
   height="500"
   id="svg2"
   version="1.1"
   inkscape:version="0.48.0 r9654"
   sodipodi:docname="logo.svg"
   inkscape:export-filename="E:\2-EMPRESA\Projetos\Ativos\#itapemapa\logo.png"
   inkscape:export-xdpi="180"
   inkscape:export-ydpi="180">
  <defs
     id="defs4">
    <filter
       inkscape:collect="always"
       id="filter3947"
       x="-0.13068967"
       width="1.2613793"
       y="-0.073751936"
       height="1.1475039">
      <feGaussianBlur
         inkscape:collect="always"
         stdDeviation="1.8817581"
         id="feGaussianBlur3949" />
    </filter>
    <filter
       inkscape:collect="always"
       id="filter3951"
       x="-0.20080068"
       width="1.4016014"
       y="-0.12162578"
       height="1.2432516">
      <feGaussianBlur
         inkscape:collect="always"
         stdDeviation="1.8817581"
         id="feGaussianBlur3953" />
    </filter>
    <filter
       inkscape:collect="always"
       id="filter3955"
       x="-0.17133748"
       width="1.342675"
       y="-0.085490359"
       height="1.1709807">
      <feGaussianBlur
         inkscape:collect="always"
         stdDeviation="1.8817581"
         id="feGaussianBlur3957" />
    </filter>
    <filter
       inkscape:collect="always"
       id="filter3959"
       x="-0.1849412"
       width="1.3698824"
       y="-0.082434775"
       height="1.1648696">
      <feGaussianBlur
         inkscape:collect="always"
         stdDeviation="1.8817581"
         id="feGaussianBlur3961" />
    </filter>
    <filter
       inkscape:collect="always"
       id="filter3963"
       x="-0.12347113"
       width="1.2469423"
       y="-0.14714497"
       height="1.2942899">
      <feGaussianBlur
         inkscape:collect="always"
         stdDeviation="1.8817581"
         id="feGaussianBlur3965" />
    </filter>
    <filter
       inkscape:collect="always"
       id="filter4031"
       x="-0.1096"
       width="1.2192"
       y="-0.1096"
       height="1.2192">
      <feGaussianBlur
         inkscape:collect="always"
         stdDeviation="2.767818"
         id="feGaussianBlur4033" />
    </filter>
    <filter
       inkscape:collect="always"
       id="filter4035"
       x="-0.12177778"
       width="1.2435556"
       y="-0.12177778"
       height="1.2435556">
      <feGaussianBlur
         inkscape:collect="always"
         stdDeviation="2.767818"
         id="feGaussianBlur4037" />
    </filter>
    <filter
       inkscape:collect="always"
       id="filter4039"
       x="-0.137"
       width="1.274"
       y="-0.137"
       height="1.274">
      <feGaussianBlur
         inkscape:collect="always"
         stdDeviation="2.767818"
         id="feGaussianBlur4041" />
    </filter>
    <filter
       inkscape:collect="always"
       id="filter4043"
       x="-0.14945454"
       width="1.2989091"
       y="-0.14945454"
       height="1.2989091">
      <feGaussianBlur
         inkscape:collect="always"
         stdDeviation="2.767818"
         id="feGaussianBlur4045" />
    </filter>
    <filter
       inkscape:collect="always"
       id="filter4047"
       x="-0.137"
       width="1.274"
       y="-0.137"
       height="1.274">
      <feGaussianBlur
         inkscape:collect="always"
         stdDeviation="2.767818"
         id="feGaussianBlur4049" />
    </filter>
    <filter
       inkscape:collect="always"
       id="filter4051"
       x="-0.14945454"
       width="1.2989091"
       y="-0.14945454"
       height="1.2989091">
      <feGaussianBlur
         inkscape:collect="always"
         stdDeviation="2.767818"
         id="feGaussianBlur4053" />
    </filter>
    <filter
       inkscape:collect="always"
       id="filter4055"
       x="-0.12177778"
       width="1.2435556"
       y="-0.12177778"
       height="1.2435556">
      <feGaussianBlur
         inkscape:collect="always"
         stdDeviation="2.767818"
         id="feGaussianBlur4057" />
    </filter>
    <filter
       inkscape:collect="always"
       id="filter4059"
       x="-0.137"
       width="1.274"
       y="-0.137"
       height="1.274">
      <feGaussianBlur
         inkscape:collect="always"
         stdDeviation="2.767818"
         id="feGaussianBlur4061" />
    </filter>
    <filter
       inkscape:collect="always"
       id="filter4135"
       x="-0.33466667"
       width="1.6693333"
       y="-0.21514285"
       height="1.4302857">
      <feGaussianBlur
         inkscape:collect="always"
         stdDeviation="2.5354828"
         id="feGaussianBlur4137" />
    </filter>
    <filter
       inkscape:collect="always"
       id="filter4139"
       x="-0.33466667"
       width="1.6693333"
       y="-0.23169231"
       height="1.4633846">
      <feGaussianBlur
         inkscape:collect="always"
         stdDeviation="2.5354828"
         id="feGaussianBlur4141" />
    </filter>
    <filter
       inkscape:collect="always"
       id="filter4143"
       x="-0.20079999"
       width="1.4016"
       y="-0.33466667"
       height="1.6693333">
      <feGaussianBlur
         inkscape:collect="always"
         stdDeviation="2.5354828"
         id="feGaussianBlur4145" />
    </filter>
    <filter
       inkscape:collect="always"
       id="filter4147"
       x="-0.27381817"
       width="1.5476363"
       y="-0.16733334"
       height="1.3346667">
      <feGaussianBlur
         inkscape:collect="always"
         stdDeviation="2.5354828"
         id="feGaussianBlur4149" />
    </filter>
    <filter
       inkscape:collect="always"
       id="filter4151"
       x="-0.3012"
       width="1.6024"
       y="-0.20079999"
       height="1.4016">
      <feGaussianBlur
         inkscape:collect="always"
         stdDeviation="2.5354828"
         id="feGaussianBlur4153" />
    </filter>
    <filter
       inkscape:collect="always"
       id="filter4155"
       x="-0.3012"
       width="1.6024"
       y="-0.17717646"
       height="1.3543529">
      <feGaussianBlur
         inkscape:collect="always"
         stdDeviation="2.5354828"
         id="feGaussianBlur4157" />
    </filter>
  </defs>
  <sodipodi:namedview
     id="base"
     pagecolor="#ffffff"
     bordercolor="#666666"
     borderopacity="1.0"
     inkscape:pageopacity="0.0"
     inkscape:pageshadow="2"
     inkscape:zoom="0.49497475"
     inkscape:cx="7.4172596"
     inkscape:cy="207.26902"
     inkscape:document-units="px"
     inkscape:current-layer="layer2"
     showgrid="false"
     inkscape:window-width="960"
     inkscape:window-height="578"
     inkscape:window-x="-8"
     inkscape:window-y="-8"
     inkscape:window-maximized="1" />
  <metadata
     id="metadata7">
    <rdf:RDF>
      <cc:Work
         rdf:about="">
        <dc:format>image/svg+xml</dc:format>
        <dc:type
           rdf:resource="http://purl.org/dc/dcmitype/StillImage" />
        <dc:title></dc:title>
      </cc:Work>
    </rdf:RDF>
  </metadata>
  <g
     inkscape:label="Layer 1"
     inkscape:groupmode="layer"
     id="layer1"
     transform="translate(0,-552.36218)"
     sodipodi:insensitive="true">
    <path
       transform="translate(157.5838,716.00689)"
       style="fill:#bc8000;fill-opacity:1;stroke:none"
       d="m 230.31478,35.32983 c 0,28.834331 -4.02843,88.20874 7.3652,138.65009 9.81594,43.45668 79.23352,111.56631 62.96924,127.68666 -18.64526,18.48027 -62.14138,-48.15034 -109.94395,-64.8424 -40.02577,-13.9765 -126.704922,-9.56536 -150.299169,-9.56536 -104.883665,0 -189.908671,-85.92954 -189.908671,-191.92899 0,-105.999452 85.025006,-191.92899 189.908671,-191.92899 104.883669,0 189.908679,85.929538 189.908679,191.92899 z"
       id="path2987"
       inkscape:connector-curvature="0"
       sodipodi:nodetypes="ssssssss" />
  </g>
  <g
     inkscape:groupmode="layer"
     id="layer4"
     inkscape:label="Layer#1"
     sodipodi:insensitive="true">
    <path
       style="fill:#ffffff;fill-opacity:1;stroke:none"
       d="m 380.22081,208.69028 c 0,25.80469 -3.7808,78.94062 6.91244,124.08208 9.21255,38.89067 74.36293,99.84401 59.09844,114.27059 -17.49911,16.53854 -58.32146,-43.09117 -103.18555,-58.02939 -37.56533,-12.50799 -118.91619,-8.56033 -141.06007,-8.56033 -98.43633,0 -178.23473,-76.9009 -178.23473,-171.76295 0,-94.86209 79.7984,-171.762979 178.23473,-171.762979 98.43632,0 178.23474,76.900889 178.23474,171.762979 z"
       id="path2987-5-3"
       inkscape:connector-curvature="0"
       sodipodi:nodetypes="ssssssss" />
  </g>
  <g
     inkscape:groupmode="layer"
     id="layer3"
     inkscape:label="Layer"
     sodipodi:insensitive="true">
    <path
       style="fill:#ffff00;fill-opacity:1;stroke:none"
       d="m 376.16956,208.85159 c 0,24.79482 -3.63284,75.85126 6.64192,119.22609 8.85201,37.36867 71.45271,95.93658 56.7856,109.79857 -16.81428,15.89129 -56.03903,-41.40478 -99.14734,-55.75839 -36.0952,-12.01849 -114.26236,-8.22532 -135.53963,-8.22532 -94.58399,0 -171.25945,-73.89135 -171.25945,-165.04095 0,-91.14961 76.67546,-165.040958 171.25945,-165.040958 94.58397,0 171.25945,73.891348 171.25945,165.040958 z"
       id="path2987-5"
       inkscape:connector-curvature="0"
       sodipodi:nodetypes="ssssssss" />
  </g>
  <g
     inkscape:groupmode="layer"
     id="layer5"
     inkscape:label="cebolas"
     style="display:inline">
    <path
       style="fill:#ffffff;stroke:#808000;stroke-width:2.2;stroke-linecap:butt;stroke-linejoin:miter;stroke-opacity:1;filter:url(#filter3951);stroke-miterlimit:4;stroke-dasharray:none"
       d="m 125.25892,310.09132 c 5.61749,2.69166 1.18747,6.7702 2.0203,10.10153 0.5165,2.066 1.60266,3.97268 2.02031,6.06091 0.14406,0.72035 -0.45014,7.18095 0,8.08122 0.42591,0.85184 1.71913,1.1168 2.0203,2.02031 0.42592,1.27775 -0.60234,2.83593 0,4.04061 0.30117,0.60234 1.38143,-0.21296 2.02031,0 6.96442,2.32147 1.49656,2.0203 6.06091,2.0203 0.67344,0 1.71914,0.60234 2.02031,0 1.20467,-2.40935 -1.20468,-5.67186 0,-8.08122 0.30117,-0.60234 1.54411,0.47619 2.0203,0 2.86626,-2.86625 2.02031,-6.57885 2.02031,-10.10152 0,-0.67344 -0.30117,-1.41797 0,-2.02031 0.42591,-0.85183 1.59438,-1.16847 2.0203,-2.0203 0.30117,-0.60234 0,-1.34687 0,-2.02031 0,-1.34687 0.60234,-2.83593 0,-4.04061 -0.60234,-1.20468 -2.83593,0.60234 -4.04061,0 -8.40802,-4.20401 2.15978,0.13947 -2.0203,-4.04061 -0.47619,-0.47619 -1.45998,0.37356 -2.02031,0 -8.66903,-5.77935 1.65776,-6.31996 -14.14213,0 z"
       id="path3877"
       inkscape:connector-curvature="0" />
    <path
       style="fill:#ffffff;stroke:#808000;stroke-width:2.2;stroke-linecap:butt;stroke-linejoin:miter;stroke-opacity:1;filter:url(#filter3959);stroke-miterlimit:4;stroke-dasharray:none"
       d="m 276.7818,170.69027 c 6.46497,8.61997 6.06091,4.71405 6.06091,10.10153 0,1.34687 -0.60234,2.83593 0,4.04061 0.30117,0.60233 1.71914,-0.60234 2.02031,0 0.60234,1.20467 0,2.69374 0,4.04061 0,2.0203 0,4.04061 0,6.06091 0,4.04061 0,8.08122 0,12.12183 0,1.32756 0.37995,4.92106 0,6.06092 -0.47619,1.42857 -1.34687,2.69374 -2.02031,4.04061 -0.67343,1.34687 -0.95551,2.97581 -2.0203,4.04061 -0.47619,0.47619 -1.54412,-0.47619 -2.02031,0 -3.36717,3.36717 7.40779,2.0203 -4.04061,2.0203 -0.67343,0 1.34687,0 2.02031,0 0.67343,0 1.34687,0 2.0203,0 0.67344,0 1.41797,-0.30117 2.02031,0 0.85183,0.42592 1.16847,1.59439 2.0203,2.02031 1.67204,0.83601 3.38352,-0.70612 4.04061,-2.02031 0.30117,-0.60234 -0.47619,-1.54411 0,-2.0203 0.47619,-0.47619 1.54412,0.47619 2.02031,0 0.47619,-0.47619 -0.37356,-1.45998 0,-2.02031 1.34687,-1.34687 2.69374,-2.69374 4.04061,-4.04061 0,-0.67343 -0.30117,-1.41796 0,-2.0203 0.42592,-0.85184 1.59439,-1.16847 2.0203,-2.02031 0.60234,-1.20468 -0.95238,-3.08823 0,-4.04061 0.47619,-0.47619 1.54412,0.47619 2.02031,0 0.19487,-0.19487 -0.16349,-3.22316 0,-4.04061 0.54454,-2.72272 1.47576,-5.3585 2.0203,-8.08122 0.39622,-1.98107 0,-4.04061 0,-6.06091 0,-0.67344 0.37356,-1.45998 0,-2.02031 -1.05657,-1.58486 -2.98404,-2.45575 -4.04061,-4.04061 -0.74711,-1.12066 0.95238,-3.08823 0,-4.04061 -0.47619,-0.47619 -1.41796,0.30117 -2.0203,0 -0.85184,-0.42592 -1.16847,-1.59439 -2.02031,-2.0203 -0.60234,-0.30117 -1.54411,0.47619 -2.0203,0 -0.95238,-0.95239 0.95238,-3.08823 0,-4.04061 -0.47619,-0.47619 -1.35604,0.11071 -2.02031,0 -3.38713,-0.56453 -6.73435,-1.34687 -10.10152,-2.02031 z"
       id="path3879"
       inkscape:connector-curvature="0" />
    <path
       style="fill:#ffffff;stroke:#808000;stroke-width:2.2;stroke-linecap:butt;stroke-linejoin:miter;stroke-opacity:1;filter:url(#filter3947);stroke-miterlimit:4;stroke-dasharray:none"
       d="m 161.62441,152.50752 c -6.70256,0 -7.28436,-1.20467 -12.12183,2.02031 -0.79243,0.52829 -1.16847,1.59439 -2.02031,2.0203 -1.61624,0.80813 -4.44467,-0.80812 -6.06091,0 -0.60234,0.30117 0.47619,1.54412 0,2.02031 -2.38096,2.38095 -5.70027,3.67996 -8.08122,6.06092 -0.47619,0.47619 0.37355,1.45997 0,2.0203 -1.05658,1.58486 -2.98404,2.45575 -4.04061,4.04061 -0.44263,0.66394 0,8.95957 0,10.10153 0,2.0203 0,4.04061 0,6.06091 0,0.67344 -0.47619,1.54412 0,2.02031 0.47619,0.47619 1.34687,0 2.0203,0 0.67344,0.67343 1.49202,1.22787 2.02031,2.0203 4.45106,1.01741 1.06792,4.15615 2.0203,6.06092 0.42592,0.85183 1.34687,1.34687 2.02031,2.0203 0.67343,0.67344 1.16847,1.59439 2.0203,2.02031 0.60234,0.30117 1.54412,-0.47619 2.02031,0 1.71693,1.71693 2.32368,4.34398 4.04061,6.06091 0.47619,0.47619 1.54411,-0.47619 2.0203,0 0.47619,0.47619 -0.47619,1.54412 0,2.02031 0.47619,0.47619 1.54412,-0.47619 2.02031,0 1.06479,1.06479 0.95551,2.97581 2.0203,4.04061 0.47619,0.47619 1.71914,0.60234 2.02031,0 0.60234,-1.20468 0.74711,-2.91995 0,-4.04061 -3.91283,-5.86924 -2.87082,0.74454 -6.06092,-4.04061 -4.01096,-1.82081 -0.77855,-5.59772 -2.0203,-8.08122 -0.85184,-1.70367 -2.98404,-2.45576 -4.04061,-4.04061 -0.37356,-0.56034 0.30117,-1.41797 0,-2.02031 -0.85184,-1.70367 -3.18878,-2.33694 -4.04061,-4.04061 -0.32191,-0.64382 0,-8.29593 0,-10.10152 0,-0.50127 -0.1108,-7.91503 0,-8.08122 1.05657,-1.58486 2.98403,-2.45576 4.04061,-4.04061 0.93244,-1.39868 -0.93245,-4.66225 0,-6.06092 2.43342,-3.65014 7.44434,-1.13458 10.10152,-2.02031 3.44046,-1.14681 6.66107,-5.18742 10.10153,-4.04061 2.63415,0.87806 1.34687,5.38748 2.0203,8.08122"
       id="path3881"
       inkscape:connector-curvature="0" />
    <path
       style="fill:#ffffff;stroke:#808000;stroke-width:2.2;stroke-linecap:butt;stroke-linejoin:miter;stroke-opacity:1;filter:url(#filter3955);stroke-miterlimit:4;stroke-dasharray:none"
       d="m 359.61431,293.92888 c 2.69374,3.36718 5.6893,6.51365 8.08122,10.10153 0.37355,0.56033 0,1.34687 0,2.0203 0,1.34687 0,2.69374 0,4.04061 0,2.69374 0,5.38748 0,8.08122 0,1.34687 -0.95238,3.08823 0,4.04061 4.71404,4.71405 4.04061,-3.70389 4.04061,2.02031 0,2.69374 0,5.38748 0,8.08122 0,0.67343 0.21296,1.38143 0,2.0203 -0.47619,1.42857 -1.65509,2.57973 -2.02031,4.04061 -1.0669,4.26759 1.79517,4.26575 -2.0203,8.08122 -0.24956,0.24956 -6.81431,0 -8.08122,0 -4.04061,0 -8.08122,0 -12.12183,0 -0.67344,0 -2.02031,0.67344 -2.02031,0 0,-1.50584 1.54411,-2.61204 2.02031,-4.04061 0.21295,-0.63887 -0.67344,-2.0203 0,-2.0203 0.67343,0 0,2.69374 0,2.0203 0,-1.16409 -0.36818,-9.36517 0,-10.10152 0.42591,-0.85184 1.59438,-1.16847 2.0203,-2.02031 0.60234,-1.20467 -0.95238,-3.08823 0,-4.04061 0.95238,-0.95238 3.43827,1.20468 4.04061,0 0,-9.197 -0.95238,-0.11554 2.02031,-6.06091 0.40051,-0.80104 -0.41303,-5.64789 0,-6.06092 0.47619,-0.47619 1.54411,0.47619 2.0203,0 0.95238,-0.95238 -0.95238,-3.08823 0,-4.04061 0.47619,-0.47619 1.54412,0.47619 2.02031,0 0.95238,-0.95238 -0.60234,-2.83593 0,-4.04061 3.81292,-7.62584 4.49836,10.36999 0,-12.12183 z"
       id="path3883"
       inkscape:connector-curvature="0" />
    <path
       style="fill:#ffffff;stroke:#808000;stroke-width:2.2;stroke-linecap:butt;stroke-linejoin:miter;stroke-opacity:1;filter:url(#filter3963);stroke-miterlimit:4;stroke-dasharray:none"
       d="m 230.31478,61.593796 c 2.69374,0 5.38748,0 8.08122,0 2.02031,0 4.04061,0 6.06092,0 2.0203,0 4.07984,-0.396215 6.06091,0 1.47661,0.29532 2.57973,1.655083 4.04061,2.020305 1.30666,0.326664 2.83593,-0.602339 4.04061,0 8.05415,4.027073 2.78997,2.308993 4.04061,6.060915 0.47619,1.428571 1.54412,2.612039 2.02031,4.04061 0.42591,1.277753 -0.60234,2.835933 0,4.04061 0.42591,0.851836 1.71913,1.116797 2.0203,2.020305 0.30828,0.924823 0,8.973879 0,10.101526 0,0.673435 0.47619,1.544114 0,2.020305 -0.47619,0.47619 -1.34687,0 -2.0203,0 -0.67344,0 -1.34687,0 -2.02031,0 -0.0198,0 -5.04052,0 -6.06091,0 -0.67344,0 -1.54412,0.47619 -2.02031,0 -1.06479,-1.064794 -0.95551,-2.975816 -2.0203,-4.04061 -2.4607,-2.460698 -4.51379,-0.946356 -6.06092,-4.04061 -0.60234,-1.204678 1.20468,-3.438272 0,-4.040611 -1.20468,-0.602338 -3.08823,0.952381 -4.04061,0 -0.95238,-0.952381 0.60234,-2.835933 0,-4.04061 -0.30117,-0.602338 -1.54411,0.476191 -2.0203,0 -0.47619,-0.47619 0.47619,-1.544114 0,-2.020305 -1.0648,-1.064794 -3.0766,-0.863482 -4.04061,-2.020305 -2.51386,-3.016626 -4.04061,-6.73435 -6.06092,-10.101525 z"
       id="path3885"
       inkscape:connector-curvature="0" />
  </g>
  <g
     inkscape:groupmode="layer"
     id="layer6"
     inkscape:label="tomates">
    <path
       sodipodi:type="arc"
       style="fill:#ff0000;fill-opacity:1;stroke:#ffffff;filter:url(#filter4031)"
       id="path3846"
       sodipodi:cx="119.198"
       sodipodi:cy="227.25882"
       sodipodi:rx="30.304577"
       sodipodi:ry="30.304577"
       d="m 149.50257,227.25882 a 30.304577,30.304577 0 1 1 -60.609149,0 30.304577,30.304577 0 1 1 60.609149,0 z"
       transform="translate(-6.0609154,26.263966)" />
    <path
       sodipodi:type="arc"
       style="fill:#ff0000;fill-opacity:1;stroke:#ffffff;filter:url(#filter4035)"
       id="path3848"
       sodipodi:cx="152.53304"
       sodipodi:cy="135.33493"
       sodipodi:rx="27.274118"
       sodipodi:ry="27.274118"
       d="m 179.80715,135.33493 a 27.274118,27.274118 0 1 1 -54.54823,0 27.274118,27.274118 0 1 1 54.54823,0 z"
       transform="translate(-48.487322,14.142136)" />
    <path
       sodipodi:type="arc"
       style="fill:#ff0000;fill-opacity:1;stroke:#ffffff;filter:url(#filter4039)"
       id="path3850"
       sodipodi:cx="290.92392"
       sodipodi:cy="122.20295"
       sodipodi:rx="24.243662"
       sodipodi:ry="24.243662"
       d="m 315.16758,122.20295 a 24.243662,24.243662 0 1 1 -48.48732,0 24.243662,24.243662 0 1 1 48.48732,0 z" />
    <path
       sodipodi:type="arc"
       style="fill:#ff0000;fill-opacity:1;stroke:#ffffff;filter:url(#filter4043)"
       id="path3852"
       sodipodi:cx="224.25386"
       sodipodi:cy="308.07101"
       sodipodi:rx="22.223356"
       sodipodi:ry="22.223356"
       d="m 246.47722,308.07101 a 22.223356,22.223356 0 1 1 -44.44672,0 22.223356,22.223356 0 1 1 44.44672,0 z"
       transform="translate(-30.304576,10.101525)" />
    <path
       sodipodi:type="arc"
       style="fill:#ff0000;fill-opacity:1;stroke:#ffffff;filter:url(#filter4047)"
       id="path3854"
       sodipodi:cx="258.59906"
       sodipodi:cy="225.23851"
       sodipodi:rx="24.243662"
       sodipodi:ry="24.243662"
       d="m 282.84272,225.23851 a 24.243662,24.243662 0 1 1 -48.48732,0 24.243662,24.243662 0 1 1 48.48732,0 z"
       transform="translate(52.527932,90.913729)" />
    <path
       sodipodi:type="arc"
       style="fill:#ff0000;fill-opacity:1;stroke:#ffffff;filter:url(#filter4051)"
       id="path3856"
       sodipodi:cx="345.47217"
       sodipodi:cy="225.23851"
       sodipodi:rx="22.223356"
       sodipodi:ry="22.223356"
       d="m 367.69552,225.23851 a 22.223356,22.223356 0 1 1 -44.44671,0 22.223356,22.223356 0 1 1 44.44671,0 z" />
    <path
       sodipodi:type="arc"
       style="fill:#ff0000;fill-opacity:1;stroke:#ffffff;filter:url(#filter4055)"
       id="path3858"
       sodipodi:cx="194.95944"
       sodipodi:cy="212.10652"
       sodipodi:rx="27.274118"
       sodipodi:ry="27.274118"
       d="m 222.23356,212.10652 a 27.274118,27.274118 0 1 1 -54.54824,0 27.274118,27.274118 0 1 1 54.54824,0 z"
       transform="translate(28.284271,10.101526)" />
    <path
       sodipodi:type="arc"
       style="fill:#ff0000;fill-opacity:1;stroke:#ffffff;filter:url(#filter4059)"
       id="path3860"
       sodipodi:cx="216.17264"
       sodipodi:cy="85.837456"
       sodipodi:rx="24.243662"
       sodipodi:ry="24.243662"
       d="m 240.4163,85.837456 a 24.243662,24.243662 0 1 1 -48.48732,0 24.243662,24.243662 0 1 1 48.48732,0 z"
       transform="translate(-4.0406102,16.162441)" />
  </g>
  <g
     inkscape:groupmode="layer"
     id="layer7"
     inkscape:label="azeitonas">
    <path
       sodipodi:type="arc"
       style="fill:#241c1c;fill-opacity:1;stroke:#ffffff;filter:url(#filter4135)"
       id="path3865"
       sodipodi:cx="160.61426"
       sodipodi:cy="110.08112"
       sodipodi:rx="9.0913725"
       sodipodi:ry="14.142136"
       d="m 169.70563,110.08112 a 9.0913725,14.142136 0 1 1 -18.18274,0 9.0913725,14.142136 0 1 1 18.18274,0 z" />
    <path
       sodipodi:type="arc"
       style="fill:#241c1c;fill-opacity:1;stroke:#ffffff;filter:url(#filter4139)"
       id="path3867"
       sodipodi:cx="346.48233"
       sodipodi:cy="183.82225"
       sodipodi:rx="9.0913725"
       sodipodi:ry="13.131983"
       d="m 355.5737,183.82225 a 9.0913725,13.131983 0 1 1 -18.18274,0 9.0913725,13.131983 0 1 1 18.18274,0 z" />
    <path
       sodipodi:type="arc"
       style="fill:#241c1c;fill-opacity:1;stroke:#ffffff;filter:url(#filter4143)"
       id="path3869"
       sodipodi:cx="89.90358"
       sodipodi:cy="193.92378"
       sodipodi:rx="15.152288"
       sodipodi:ry="9.0913725"
       d="m 105.05587,193.92378 a 15.152288,9.0913725 0 1 1 -30.304579,0 15.152288,9.0913725 0 1 1 30.304579,0 z" />
    <path
       sodipodi:type="arc"
       style="fill:#241c1c;fill-opacity:1;stroke:#ffffff;filter:url(#filter4147)"
       id="path3871"
       sodipodi:cx="253.54829"
       sodipodi:cy="304.0304"
       sodipodi:rx="11.111678"
       sodipodi:ry="18.182745"
       d="m 264.65997,304.0304 a 11.111678,18.182745 0 1 1 -22.22335,0 11.111678,18.182745 0 1 1 22.22335,0 z" />
    <path
       sodipodi:type="arc"
       style="fill:#241c1c;fill-opacity:1;stroke:#ffffff;filter:url(#filter4151)"
       id="path3873"
       sodipodi:cx="175.76654"
       sodipodi:cy="262.61417"
       sodipodi:rx="10.101525"
       sodipodi:ry="15.152288"
       d="m 185.86807,262.61417 a 10.101525,15.152288 0 1 1 -20.20305,0 10.101525,15.152288 0 1 1 20.20305,0 z" />
    <path
       sodipodi:type="arc"
       style="fill:#241c1c;fill-opacity:1;stroke:#ffffff;filter:url(#filter4155)"
       id="path3875"
       sodipodi:cx="228.29448"
       sodipodi:cy="163.6192"
       sodipodi:rx="10.101525"
       sodipodi:ry="17.172594"
       d="m 238.396,163.6192 a 10.101525,17.172594 0 1 1 -20.20305,0 10.101525,17.172594 0 1 1 20.20305,0 z" />
  </g>
  <g
     inkscape:groupmode="layer"
     id="layer2"
     inkscape:label="txt"
     style="display:inline">
    <text
       xml:space="preserve"
       style="font-size:40px;font-style:normal;font-weight:normal;text-align:center;line-height:125%;letter-spacing:0px;word-spacing:0px;text-anchor:middle;fill:#c98000;fill-opacity:1;stroke:none;font-family:Sans"
       x="139.17137"
       y="428.29785"
       id="text2990"
       sodipodi:linespacing="125%"><tspan
         sodipodi:role="line"
         x="139.17137"
         y="428.29785"
         id="tspan2994"
         style="font-size:48px;fill:#c98000;fill-opacity:1">Pizzarias de</tspan><tspan
         sodipodi:role="line"
         x="139.17137"
         y="488.29785"
         style="font-size:48px;fill:#c98000;fill-opacity:1"
         id="tspan4161">Itapetininga</tspan></text>
  </g>
</svg>
