<?xml version="1.0" encoding="UTF-8" standalone="no"?>
<!-- Created with Inkscape (http://www.inkscape.org/) -->
<svg
   xmlns:dc="http://purl.org/dc/elements/1.1/"
   xmlns:cc="http://creativecommons.org/ns#"
   xmlns:rdf="http://www.w3.org/1999/02/22-rdf-syntax-ns#"
   xmlns:svg="http://www.w3.org/2000/svg"
   xmlns="http://www.w3.org/2000/svg"
   xmlns:sodipodi="http://sodipodi.sourceforge.net/DTD/sodipodi-0.dtd"
   xmlns:inkscape="http://www.inkscape.org/namespaces/inkscape"
   width="500"
   height="500"
   id="svg2"
   sodipodi:version="0.32"
   inkscape:version="0.46"
   version="1.0"
   sodipodi:docname="E-logo.svg"
   inkscape:output_extension="org.inkscape.output.svg.inkscape">
  <defs
     id="defs4">
    <inkscape:perspective
       sodipodi:type="inkscape:persp3d"
       inkscape:vp_x="0 : 526.18109 : 1"
       inkscape:vp_y="0 : 1000 : 0"
       inkscape:vp_z="744.09448 : 526.18109 : 1"
       inkscape:persp3d-origin="372.04724 : 350.78739 : 1"
       id="perspective10" />
  </defs>
  <sodipodi:namedview
     id="base"
     pagecolor="#ffffff"
     bordercolor="#666666"
     borderopacity="1.0"
     inkscape:pageopacity="0.0"
     inkscape:pageshadow="2"
     inkscape:zoom="0.9899495"
     inkscape:cx="261.93149"
     inkscape:cy="301.70338"
     inkscape:document-units="px"
     inkscape:current-layer="layer1"
     showgrid="false"
     inkscape:window-width="1424"
     inkscape:window-height="864"
     inkscape:window-x="0"
     inkscape:window-y="0" />
  <metadata
     id="metadata7">
    <rdf:RDF>
      <cc:Work
         rdf:about="">
        <dc:format>image/svg+xml</dc:format>
        <dc:type
           rdf:resource="http://purl.org/dc/dcmitype/StillImage" />
      </cc:Work>
    </rdf:RDF>
  </metadata>
  <g
     inkscape:label="Camada 1"
     inkscape:groupmode="layer"
     id="layer1">
    <g
       id="g3419">
      <rect
         y="151.69165"
         x="94.028999"
         height="47.152454"
         width="112.02075"
         id="rect3403"
         style="fill:#479cac;fill-opacity:1;stroke:none;stroke-width:0.86143458;stroke-opacity:1" />
      <path
         sodipodi:nodetypes="ccccc"
         id="rect3405"
         d="M 114.5,290.03125 C 140.73958,290.03125 168.74694,290.03125 194.98652,290.03125 C 192.06023,279.73704 190.64916,269.94792 187.2178,258.8961 C 160.87405,258.8336 140.84375,259.78125 114.5,259.71875 C 114.5,269.82292 114.5,279.92708 114.5,290.03125 z"
         style="fill:#479cac;fill-opacity:1;stroke:none;stroke-width:1.03963518;stroke-opacity:1" />
      <rect
         y="336.36951"
         x="112.73832"
         height="44.68018"
         width="116.46273"
         id="rect3409"
         style="fill:#479cac;fill-opacity:1;stroke:none;stroke-width:3.20000005;stroke-miterlimit:4;stroke-dasharray:none;stroke-opacity:1" />
      <rect
         y="151.69165"
         x="83.20359"
         height="229.35802"
         width="54.975948"
         id="rect3407"
         style="fill:#479cac;fill-opacity:1;stroke:none;stroke-width:0.91820091;stroke-opacity:1" />
    </g>
    <path
       style="fill:#ffffff;fill-opacity:1;stroke:#479cac;stroke-width:4.53423691;stroke-miterlimit:4;stroke-opacity:1"
       d="M 166.89261,155.86172 C 195.84888,226.12066 191.1688,215.86701 210.10573,293.28261 C 243.75914,299.43748 296.03701,289.56153 296.03701,289.56153 C 296.03701,289.56153 343.34388,123.88504 348.56887,40.152211 C 273.21967,40.314565 242.24182,155.69937 166.89261,155.86172 z"
       id="rect2405"
       sodipodi:nodetypes="ccscc" />
    <path
       style="fill:#ffffff;fill-opacity:1;stroke:#479cac;stroke-width:4.53423691;stroke-miterlimit:4;stroke-dasharray:none;stroke-opacity:1"
       d="M 214.59196,317.15161 C 214.59196,317.15161 222.72543,359.11114 224.2316,377.54044 C 241.3276,380.01835 269.72734,378.42323 290.01473,378.13406 C 290.01473,378.13406 297.70997,314.71481 297.70997,314.71481 C 263.07911,324.80549 250.19725,325.60324 214.59196,317.15161 z"
       id="rect2403"
       sodipodi:nodetypes="ccccc" />
    <path
       style="fill:#ffffff;fill-opacity:1;stroke:#479cac;stroke-width:4.53423691;stroke-miterlimit:4;stroke-opacity:1"
       d="M 477.87776,197.83524 C 506.83403,268.09418 502.15395,257.84053 521.09088,335.25613 C 554.74429,341.411 607.02216,331.53505 607.02216,331.53505 C 607.02216,331.53505 654.32903,165.85856 659.55402,82.125733 C 584.20482,82.288093 553.22697,197.67289 477.87776,197.83524 z"
       id="path3425"
       sodipodi:nodetypes="ccscc" />
    <path
       style="fill:#ffffff;fill-opacity:1;stroke:#479cac;stroke-width:4.53423691;stroke-miterlimit:4;stroke-dasharray:none;stroke-opacity:1"
       d="M 525.57711,359.12513 C 525.57711,359.12513 533.71058,401.08466 535.21675,419.51396 C 552.31275,421.99187 580.71249,420.39675 600.99988,420.10758 C 600.99988,420.10758 608.69512,356.68833 608.69512,356.68833 C 574.06426,366.77901 561.1824,367.57676 525.57711,359.12513 z"
       id="path3427"
       sodipodi:nodetypes="ccccc" />
  </g>
</svg>
