<?xml version="1.0" encoding="UTF-8" standalone="no"?>
<!-- Created with Inkscape (http://www.inkscape.org/) -->

<svg
   xmlns:dc="http://purl.org/dc/elements/1.1/"
   xmlns:cc="http://creativecommons.org/ns#"
   xmlns:rdf="http://www.w3.org/1999/02/22-rdf-syntax-ns#"
   xmlns:svg="http://www.w3.org/2000/svg"
   xmlns="http://www.w3.org/2000/svg"
   xmlns:sodipodi="http://sodipodi.sourceforge.net/DTD/sodipodi-0.dtd"
   xmlns:inkscape="http://www.inkscape.org/namespaces/inkscape"
   width="800"
   height="800"
   viewBox="0 0 211.66666 211.66667"
   version="1.1"
   id="svg22"
   inkscape:version="0.92.3 (2405546, 2018-03-11)"
   sodipodi:docname="2019-f5sites-f5.svg"
   inkscape:export-filename="/media/francisco/pessoal/conteudo-arte-digital/logos-f5/2019-f5sites-f5/2019-f5sites-f5.svg.png"
   inkscape:export-xdpi="96"
   inkscape:export-ydpi="96">
  <defs
     id="defs16" />
  <sodipodi:namedview
     id="base"
     pagecolor="#ffffff"
     bordercolor="#666666"
     borderopacity="1.0"
     inkscape:pageopacity="0.0"
     inkscape:pageshadow="2"
     inkscape:zoom="0.49497475"
     inkscape:cx="467.53138"
     inkscape:cy="339.91822"
     inkscape:document-units="mm"
     inkscape:current-layer="layer1"
     showgrid="false"
     units="px"
     inkscape:window-width="1299"
     inkscape:window-height="713"
     inkscape:window-x="67"
     inkscape:window-y="27"
     inkscape:window-maximized="1" />
  <metadata
     id="metadata19">
    <rdf:RDF>
      <cc:Work
         rdf:about="">
        <dc:format>image/svg+xml</dc:format>
        <dc:type
           rdf:resource="http://purl.org/dc/dcmitype/StillImage" />
        <dc:title />
      </cc:Work>
    </rdf:RDF>
  </metadata>
  <g
     inkscape:label="Layer 1"
     inkscape:groupmode="layer"
     id="layer1"
     transform="translate(0,-85.333317)">
    <rect
       style="fill:#e6e6e6;stroke-width:0.26458332"
       id="rect3717"
       width="227.17909"
       height="225.04094"
       x="-7.4835467"
       y="78.908051" />
    <text
       xml:space="preserve"
       style="font-style:normal;font-weight:normal;font-size:64.4890213px;line-height:1.25;font-family:sans-serif;letter-spacing:0px;word-spacing:0px;fill:#03659c;fill-opacity:1;stroke:none;stroke-width:1.61222541;"
       x="21.93148"
       y="215.1611"
       id="text26"><tspan
         sodipodi:role="line"
         id="tspan24"
         x="21.93148"
         y="215.1611"
         style="font-style:normal;font-variant:normal;font-weight:normal;font-stretch:normal;font-family:'Lobster 1.4';-inkscape-font-specification:'Lobster 1.4, ';stroke-width:1.61222541;fill:#03659c;fill-opacity:1;">F5sites</tspan></text>
    <text
       xml:space="preserve"
       style="font-style:normal;font-weight:normal;font-size:26.55400658px;line-height:1.25;font-family:sans-serif;letter-spacing:0px;word-spacing:0px;fill:#666666;fill-opacity:1;stroke:none;stroke-width:0.66385013;"
       x="139.76854"
       y="233.7984"
       id="text3722"><tspan
         sodipodi:role="line"
         id="tspan3720"
         x="139.76854"
         y="233.7984"
         style="font-style:normal;font-variant:normal;font-weight:normal;font-stretch:normal;font-family:'Lobster 1.4';-inkscape-font-specification:'Lobster 1.4, ';stroke-width:0.66385013;fill:#666666;">.com</tspan></text>
    <text
       xml:space="preserve"
       style="font-style:normal;font-weight:normal;font-size:20.10500526px;line-height:1.25;font-family:sans-serif;letter-spacing:0px;word-spacing:0px;fill:#000000;fill-opacity:1;stroke:none;stroke-width:0.50262511"
       x="264.04855"
       y="190.13889"
       id="text3722-8"><tspan
         sodipodi:role="line"
         id="tspan3720-2"
         x="264.04855"
         y="190.13889"
         style="stroke-width:0.50262511">.com</tspan></text>
    <path
       style="fill:#03659c;fill-opacity:1;stroke:none;stroke-width:0.55271459;stroke-linecap:round;stroke-linejoin:round;stroke-miterlimit:4;stroke-dasharray:none;stroke-dashoffset:0;stroke-opacity:1"
       d="m 279.76598,148.27835 c -3.76271,-0.14827 -6.94216,-0.50337 -8.68085,-0.96954 -0.74001,-0.19841 -0.8649,-0.26921 -1.09912,-0.62315 -0.684,-1.03359 -0.98696,-2.53693 -1.07567,-5.3376 -0.0565,-1.78511 -0.0408,-2.06203 0.16438,-2.88221 1.21614,-4.86256 6.51155,-8.63367 13.94706,-9.9324 1.64778,-0.28779 5.25689,-0.39974 7.00183,-0.21717 3.70448,0.38761 7.20398,1.64565 9.71052,3.49086 l 0.65437,0.48172 -0.78401,0.48067 c -0.4312,0.26435 -1.01439,0.70543 -1.29599,0.9802 -0.97529,0.95163 -1.2724,1.72744 -1.51994,3.96889 -0.0875,0.79261 -0.18482,1.59771 -0.21619,1.78911 -0.0502,0.30644 0.007,0.41598 0.48174,0.91765 0.29632,0.31332 0.53878,0.59754 0.53878,0.63156 0,0.034 -0.84065,0.74012 -1.86809,1.56909 -1.85754,1.49868 -2.13636,1.82822 -1.69127,1.999 0.15277,0.0586 2.49488,-0.32834 2.9045,-0.4799 0.10647,-0.0394 0.12646,0.007 0.0742,0.17164 -0.0507,0.15973 0.0404,0.40058 0.31203,0.82523 0.29718,0.46459 0.3406,0.5878 0.19271,0.54682 -0.10501,-0.0291 -0.41607,-0.0834 -0.69125,-0.12078 -0.4447,-0.0603 -0.51452,-0.0414 -0.62771,0.1701 -0.0824,0.15404 -0.10591,0.49368 -0.0666,0.96303 l 0.0608,0.72506 -0.39383,0.11147 c -2.34047,0.66252 -9.5562,0.99584 -16.0324,0.74065 z"
       id="path7871-57-0-4-7-2-8"
       inkscape:connector-curvature="0" />
  </g>
</svg>
