<?xml version="1.0" encoding="UTF-8" standalone="no"?>
<!-- Created with Inkscape (http://www.inkscape.org/) -->

<svg
   xmlns:dc="http://purl.org/dc/elements/1.1/"
   xmlns:cc="http://creativecommons.org/ns#"
   xmlns:rdf="http://www.w3.org/1999/02/22-rdf-syntax-ns#"
   xmlns:svg="http://www.w3.org/2000/svg"
   xmlns="http://www.w3.org/2000/svg"
   xmlns:xlink="http://www.w3.org/1999/xlink"
   xmlns:sodipodi="http://sodipodi.sourceforge.net/DTD/sodipodi-0.dtd"
   xmlns:inkscape="http://www.inkscape.org/namespaces/inkscape"
   height="1080"
   id="svg2383"
   inkscape:output_extension="org.inkscape.output.svg.inkscape"
   inkscape:version="0.91 r13725"
   sodipodi:docname="arca-da-risada-moldura.svg"
   sodipodi:version="0.32"
   version="1.0"
   width="1920">
  <defs
     id="defs2385">
    <linearGradient
       id="linearGradient3182"
       inkscape:collect="always">
      <stop
         id="stop3184"
         offset="0"
         style="stop-color:#ffffff;stop-opacity:0.55" />
      <stop
         id="stop3186"
         offset="1"
         style="stop-color:#ffffff;stop-opacity:0;" />
    </linearGradient>
    <linearGradient
       id="linearGradient3174"
       inkscape:collect="always">
      <stop
         id="stop3176"
         offset="0"
         style="stop-color:#324da7;stop-opacity:0.55" />
      <stop
         id="stop3178"
         offset="1"
         style="stop-color:#324da7;stop-opacity:0;" />
    </linearGradient>
    <linearGradient
       id="linearGradient3190"
       inkscape:collect="always">
      <stop
         id="stop3192"
         offset="0"
         style="stop-color:#324da7;stop-opacity:1" />
      <stop
         id="stop3194"
         offset="1"
         style="stop-color:#324da7;stop-opacity:0;" />
    </linearGradient>
    <linearGradient
       id="linearGradient3267"
       inkscape:collect="always">
      <stop
         id="stop3269"
         offset="0"
         style="stop-color:#0000ff;stop-opacity:0" />
      <stop
         id="stop3275"
         offset="0.48768985"
         style="stop-color:#ffffff;stop-opacity:1" />
      <stop
         id="stop3271"
         offset="1"
         style="stop-color:#0000ff;stop-opacity:0;" />
    </linearGradient>
    <inkscape:perspective
       id="perspective2391"
       inkscape:persp3d-origin="372.04724 : 350.78739 : 1"
       inkscape:vp_x="0 : 526.18109 : 1"
       inkscape:vp_y="0 : 1000 : 0"
       inkscape:vp_z="744.09448 : 526.18109 : 1"
       sodipodi:type="inkscape:persp3d" />
    <linearGradient
       gradientTransform="matrix(0.4475832,0,0,1.1594093,-317.72844,-354.23847)"
       gradientUnits="userSpaceOnUse"
       id="linearGradient3273"
       inkscape:collect="always"
       x1="333.26617"
       x2="1668.8561"
       xlink:href="#linearGradient3267"
       y1="671.26709"
       y2="671.26709" />
    <linearGradient
       gradientTransform="matrix(0.4475832,0,0,1.1594093,-317.72845,-255.93349)"
       gradientUnits="userSpaceOnUse"
       id="linearGradient3463"
       inkscape:collect="always"
       x1="333.26617"
       x2="1668.8561"
       xlink:href="#linearGradient3267"
       y1="671.26709"
       y2="671.26709" />
    <linearGradient
       gradientTransform="translate(-480.00173,0)"
       gradientUnits="userSpaceOnUse"
       id="linearGradient3196"
       inkscape:collect="always"
       x1="1917.6716"
       x2="1622.8263"
       xlink:href="#linearGradient3190"
       y1="542.59882"
       y2="542.59882" />
    <linearGradient
       gradientTransform="matrix(-1,0,0,1,1920.0025,7.77e-2)"
       gradientUnits="userSpaceOnUse"
       id="linearGradient3200"
       inkscape:collect="always"
       x1="1917.6716"
       x2="1622.8263"
       xlink:href="#linearGradient3190"
       y1="542.59882"
       y2="542.59882" />
    <linearGradient
       gradientUnits="userSpaceOnUse"
       id="linearGradient3180"
       inkscape:collect="always"
       x1="513.01154"
       x2="513.01154"
       xlink:href="#linearGradient3174"
       y1="-540.84637"
       y2="-636.17462" />
    <linearGradient
       gradientUnits="userSpaceOnUse"
       id="linearGradient3188"
       inkscape:collect="always"
       x1="719.99805"
       x2="719.99805"
       xlink:href="#linearGradient3182"
       y1="-540.84637"
       y2="-631.5105" />
    <linearGradient
       gradientUnits="userSpaceOnUse"
       id="linearGradient3197"
       inkscape:collect="always"
       x1="513.01154"
       x2="513.01154"
       xlink:href="#linearGradient3174"
       y1="-540.84637"
       y2="-636.17462" />
    <linearGradient
       gradientUnits="userSpaceOnUse"
       id="linearGradient3199"
       inkscape:collect="always"
       x1="719.99805"
       x2="719.99805"
       xlink:href="#linearGradient3182"
       y1="-540.84637"
       y2="-631.5105" />
    <linearGradient
       gradientTransform="translate(240.00003,-1.7053223)"
       gradientUnits="userSpaceOnUse"
       id="linearGradient2841"
       inkscape:collect="always"
       x1="513.01154"
       x2="513.01154"
       xlink:href="#linearGradient3174"
       y1="-540.84637"
       y2="-636.17462" />
    <linearGradient
       gradientTransform="translate(240.00003,-1.7053223)"
       gradientUnits="userSpaceOnUse"
       id="linearGradient2843"
       inkscape:collect="always"
       x1="719.99805"
       x2="719.99805"
       xlink:href="#linearGradient3182"
       y1="-540.84637"
       y2="-631.5105" />
    <inkscape:perspective
       id="perspective2855"
       inkscape:persp3d-origin="0.5 : 0.33333333 : 1"
       inkscape:vp_x="0 : 0.5 : 1"
       inkscape:vp_y="0 : 1000 : 0"
       inkscape:vp_z="1 : 0.5 : 1"
       sodipodi:type="inkscape:persp3d" />
    <inkscape:perspective
       id="perspective3664"
       inkscape:persp3d-origin="0.5 : 0.33333333 : 1"
       inkscape:vp_x="0 : 0.5 : 1"
       inkscape:vp_y="0 : 1000 : 0"
       inkscape:vp_z="1 : 0.5 : 1"
       sodipodi:type="inkscape:persp3d" />
    <filter
       height="1.5"
       id="filter3984"
       inkscape:label="Drop shadow"
       width="1.5"
       x="-.25"
       y="-.25">
      <feGaussianBlur
         id="feGaussianBlur3986"
         in="SourceAlpha"
         result="blur"
         stdDeviation="1.000000" />
      <feColorMatrix
         id="feColorMatrix3988"
         result="bluralpha"
         type="matrix"
         values="1 0 0 0 0 0 1 0 0 0 0 0 1 0 0 0 0 0 1.000000 0 " />
      <feOffset
         dx="0.000000"
         dy="4.000000"
         id="feOffset3990"
         in="bluralpha"
         result="offsetBlur" />
      <feMerge
         id="feMerge3992">
        <feMergeNode
           id="feMergeNode3994"
           in="offsetBlur" />
        <feMergeNode
           id="feMergeNode3996"
           in="SourceGraphic" />
      </feMerge>
    </filter>
    <filter
       height="1.5"
       id="filter3998"
       inkscape:label="Drop shadow"
       width="1.5"
       x="-.25"
       y="-.25">
      <feGaussianBlur
         id="feGaussianBlur4000"
         in="SourceAlpha"
         result="blur"
         stdDeviation="1.000000" />
      <feColorMatrix
         id="feColorMatrix4002"
         result="bluralpha"
         type="matrix"
         values="1 0 0 0 0 0 1 0 0 0 0 0 1 0 0 0 0 0 1.000000 0 " />
      <feOffset
         dx="0.000000"
         dy="4.000000"
         id="feOffset4004"
         in="bluralpha"
         result="offsetBlur" />
      <feMerge
         id="feMerge4006">
        <feMergeNode
           id="feMergeNode4008"
           in="offsetBlur" />
        <feMergeNode
           id="feMergeNode4010"
           in="SourceGraphic" />
      </feMerge>
    </filter>
    <pattern
       y="0"
       x="0"
       height="6"
       width="6"
       patternUnits="userSpaceOnUse"
       id="EMFhbasepattern" />
  </defs>
  <sodipodi:namedview
     bordercolor="#666666"
     borderopacity="1.0"
     gridtolerance="10000"
     guidetolerance="10"
     id="base"
     inkscape:current-layer="layer1"
     inkscape:cx="892.89195"
     inkscape:cy="467.60626"
     inkscape:document-units="px"
     inkscape:pageopacity="0.0"
     inkscape:pageshadow="2"
     inkscape:window-height="744"
     inkscape:window-maximized="1"
     inkscape:window-width="1301"
     inkscape:window-x="1345"
     inkscape:window-y="24"
     inkscape:zoom="0.35355339"
     objecttolerance="10"
     pagecolor="#ffffff"
     showgrid="false" />
  <metadata
     id="metadata2388">
    <rdf:RDF>
      <cc:Work
         rdf:about="">
        <dc:format>image/svg+xml</dc:format>
        <dc:type
           rdf:resource="http://purl.org/dc/dcmitype/StillImage" />
        <dc:title />
      </cc:Work>
    </rdf:RDF>
  </metadata>
  <g
     id="layer1"
     inkscape:groupmode="layer"
     inkscape:label="Layer 1"
     transform="translate(1.9328e-3,0)">
    <path
       style="opacity:0;fill:#e0e7ff;fill-opacity:1;stroke:none;stroke-width:1;stroke-miterlimit:4;stroke-dasharray:none;stroke-opacity:1"
       d="M 0 -0.005859375 L 0 1080 L 1920 1080 L 1920 -0.005859375 L 0 -0.005859375 z M 1299.5977 343.41016 C 1300.2149 343.37575 1300.75 343.41533 1301.0898 343.61328 C 1307.3005 343.22055 1311.1886 344.84316 1317.5332 348.75586 C 1319.0245 349.67553 1320.3192 350.89472 1321.8281 351.78516 C 1322.5224 352.19488 1323.3686 352.28056 1324.0957 352.62891 C 1325.5521 353.32673 1326.9416 354.15541 1328.3652 354.91797 C 1330.4177 354.59784 1338.234 358.57119 1339.2832 358.98438 C 1340.4835 359.45711 1341.7026 359.9025 1342.959 360.19531 C 1343.2357 360.25981 1343.9529 360.27126 1343.7949 360.03516 C 1343.5677 359.6957 1343.0111 359.80459 1342.6191 359.68945 C 1350.4565 358.03468 1354.2764 364.42264 1360.7578 366.2793 C 1360.9224 366.3265 1361.2538 366.08219 1361.1484 365.94727 C 1360.9101 365.64234 1359.7622 365.62584 1360.1035 365.44336 C 1360.9644 364.98297 1362.0292 365.12333 1362.9922 364.96289 C 1369.2406 363.90396 1375.5931 364.03228 1381.8965 364.32422 C 1382.7583 364.36412 1383.6581 364.19044 1384.4805 364.45117 C 1387.6005 365.44022 1390.5747 366.84434 1393.6211 368.04102 C 1394.2699 368.40162 1394.8565 368.90621 1395.5664 369.12305 C 1395.9268 369.23313 1394.3495 368.30126 1394.7188 368.37695 C 1401.7945 369.82765 1408.483 374.13779 1414.4844 378.01172 C 1420.8042 380.58907 1427.6834 384.74829 1433.8477 389.14648 C 1438.2126 392.43889 1441.6287 396.66729 1445.1836 400.75586 C 1446.6023 402.38749 1448.3514 403.73736 1449.6172 405.49023 C 1451.0352 407.45385 1452.1903 409.59419 1453.4766 411.64648 C 1454.2255 413.62353 1454.9635 415.60502 1455.7227 417.57812 C 1456.4027 419.34551 1457.2953 421.04199 1457.793 422.86914 C 1460.0769 431.25478 1459.2137 438.33061 1464.8477 445.02148 C 1469.0713 450.86742 1469.6047 455.67334 1468.6875 462.10547 C 1468.8368 462.41583 1468.9554 462.65191 1469.1387 463.02539 C 1469.6642 464.66614 1470.3615 466.26338 1470.7168 467.94922 C 1471.1276 469.8983 1471.0534 471.92445 1471.4277 473.88086 C 1471.7801 475.72254 1473.1651 477.20929 1473.9062 478.93164 C 1476.4858 484.92513 1475.9695 484.03217 1477.4414 490.47266 C 1477.2437 499.53681 1477.8446 494.49709 1476.2012 501.65625 C 1476.0614 502.2654 1475.5513 503.8293 1476.0996 503.5293 C 1476.7948 503.14889 1476.8937 502.36314 1476.8672 501.82812 C 1476.7157 501.09773 1476.8403 501.2853 1476.8672 501.82812 C 1477.0037 502.48644 1477.371 503.85718 1478.3691 506.66406 C 1481.7086 509.80389 1481.824 514.36479 1483.0859 518.47461 C 1483.1968 518.83582 1482.9624 517.00482 1483.1328 517.3418 C 1484.5281 520.09249 1484.8331 523.63359 1485.3301 526.54883 C 1485.3841 526.13981 1485.2619 524.979 1485.4941 525.32031 C 1487.0874 527.66543 1487.5095 532.25442 1488.2148 534.60156 C 1488.2928 534.86047 1488.3129 533.55863 1488.4062 533.8125 C 1490.8952 540.60984 1490.4471 541.13756 1491.207 548.62695 C 1491.4969 549.42841 1491.7864 550.22979 1492.0762 551.03125 C 1492.4815 552.86652 1492.7204 554.74636 1493.291 556.53711 C 1493.4095 556.90871 1493.906 557.04423 1494.0996 557.38281 C 1494.6413 558.33045 1495.1387 559.31488 1495.4746 560.35352 C 1497.5283 566.70538 1496.9802 565.86099 1496.7949 572.53906 C 1495.9333 579.48298 1494.8376 587.37346 1497.2676 594.05078 C 1497.7203 595.7051 1498.1723 597.35934 1498.625 599.01367 C 1498.9406 600.61193 1499.15 602.23519 1499.5723 603.80859 C 1499.7361 604.41844 1500.1059 604.95128 1500.373 605.52344 C 1500.7942 606.89841 1501.3231 608.24501 1501.6367 609.64844 C 1502.7994 614.85206 1502.4875 614.97819 1502.3828 620.20703 C 1502.4008 615.33844 1502.9785 617.53654 1500.9219 613.54883 C 1488.0879 588.66333 1496.1746 655.56018 1480.0684 632.65625 C 1474.5235 624.77106 1476.789 629.40919 1474.1602 618.3457 C 1474.3876 618.04562 1474.7972 619.00438 1474.5586 617.82031 C 1473.4046 612.09131 1470.6982 606.69908 1469.8203 600.88086 C 1469.1837 597.86518 1468.3668 594.88211 1467.9102 591.83398 C 1466.9395 585.35364 1467.783 577.56012 1468.5254 570.88281 C 1467.9554 569.28826 1467.1441 566.9568 1465.6602 562.57812 C 1464.3597 558.7405 1464.7278 554.44236 1463 550.7168 C 1462.967 542.85821 1459.3771 537.44235 1457.2539 529.96875 C 1457.9552 529.56672 1457.5736 529.8924 1457.0566 528.30078 C 1456.0213 525.11321 1455.473 523.4971 1455.0488 522.26562 C 1455.0234 522.20216 1455.0032 522.1451 1454.9785 522.08203 C 1451.5871 516.8432 1443.4709 505.44986 1451.7168 516.13672 C 1448.9383 508.31473 1446.7701 501.88579 1449.0527 493.7168 C 1449.0737 493.6416 1449.1544 493.83522 1449.2051 493.89453 C 1449.3511 494.49547 1449.4966 495.09633 1449.6426 495.69727 C 1449.8307 492.20479 1445.7003 485.37615 1444.8477 482.78906 C 1444.087 480.48039 1443.6461 478.07491 1443.1992 475.68555 C 1443.1772 475.56986 1443.5153 475.90044 1443.5391 475.78516 C 1443.6101 475.44094 1443.4425 475.08839 1443.3945 474.74023 C 1440.4098 467.95318 1440.7938 469.86577 1440.4121 459.36133 C 1437.412 454.92934 1436.1467 453.24548 1434.0566 446.74219 C 1425.7073 420.76295 1436.3645 451.16769 1431.4434 433.15234 C 1430.6407 430.21382 1428.9586 427.56404 1428.3145 424.56641 C 1428.6583 424.78291 1429.6007 425.53108 1429.3457 425.21484 C 1428.4264 424.07508 1427.288 423.13098 1426.291 422.05859 C 1423.9553 419.54625 1421.9038 416.7736 1419.543 414.28906 C 1418.7929 413.49967 1417.9804 412.77037 1417.1992 412.01172 C 1411.3443 407.60221 1405.0588 404.51751 1398.5059 401.34961 C 1393.0139 396.66717 1385.7463 395.83511 1379.5469 392.53125 C 1375.43 392.33311 1371.2874 392.19383 1367.2109 392.92969 C 1360.4823 393.88522 1354.7773 394.15573 1348.2637 391.65625 C 1346.351 390.92226 1344.5555 389.90047 1342.791 388.85938 C 1342.4957 388.68511 1341.9197 388.33837 1341.6934 388.07617 C 1341.1287 388.09656 1340.5625 388.09787 1339.998 388.0625 C 1331.0372 387.50095 1323.354 382.2375 1314.9062 379.79297 C 1314.7234 379.69261 1314.5253 379.60015 1314.3379 379.50195 C 1310.8421 382.30715 1305.4896 384.20703 1298.248 384.20703 C 1290.0339 384.20703 1285.2853 383.69663 1277.375 385.51172 C 1273.5755 386.38358 1270.1983 388.62209 1266.4434 389.66992 C 1266.0793 389.77151 1265.7104 389.85203 1265.3438 389.94336 C 1268.456 396.1081 1269.2209 402.29051 1270.1777 409.70898 C 1276.3553 424.35124 1269.6873 439.07715 1269.1523 453.91602 C 1269.8425 457.98859 1269.1525 462.40478 1270.0469 466.4375 C 1270.1069 466.70759 1270.6278 466.62679 1270.7539 466.87305 C 1272.0238 469.35195 1272.6298 472.7942 1273.248 475.38086 C 1273.32 477.30818 1273.8187 479.26657 1273.4629 481.16211 C 1271.5071 491.58075 1271.0669 487.66767 1268.7578 494.35156 C 1268.6222 494.74396 1268.6941 495.17986 1268.6621 495.59375 C 1268.1026 497.36068 1267.7313 499.19919 1266.9824 500.89453 C 1265.9294 503.27814 1264.514 505.48459 1263.2793 507.7793 C 1263.107 508.51044 1263.0352 509.27307 1262.7617 509.97266 C 1260.2388 516.42515 1260.3925 514.8851 1256.2129 521.11719 C 1255.4729 522.22048 1251.4504 527.36333 1254.168 524.76562 C 1256.9489 518.3294 1252.6792 531.0081 1252.2109 532.92188 C 1252.1199 533.29611 1252.6937 535.67453 1252.6953 535.6875 C 1252.6601 535.9585 1252.6079 536.21048 1252.5684 536.47656 C 1258.7077 541.046 1262.5586 547.02455 1263.209 555.33984 C 1263.5713 559.97179 1261.5333 565.39241 1260.9844 570.08008 C 1261.8457 576.70672 1259.7866 583.09338 1258.2246 589.44922 C 1258.0277 590.25054 1258.0658 591.1127 1257.7695 591.88281 C 1256.8698 594.22077 1255.6942 596.44271 1254.6562 598.72266 C 1254.6461 598.73298 1254.6371 598.74734 1254.627 598.75781 C 1253.932 602.70194 1252.8403 606.5407 1252.3008 610.5332 C 1247.8271 622.21799 1250.4999 615.1634 1246.6855 625.08008 C 1246.0649 626.69349 1245.7179 626.66037 1246.5547 626.48438 C 1247.9174 631.37571 1247.5149 636.91871 1247.377 641.97852 C 1247.2193 647.49554 1247.3268 653.01496 1247.3398 658.5332 C 1246.3686 661.59758 1245.9428 664.89242 1244.4258 667.72656 C 1243.0871 670.22765 1240.7172 672.02127 1238.9375 674.23047 C 1237.4715 676.05033 1237.8551 677.29287 1237.3594 678.96289 C 1236.8172 680.78979 1236.0264 682.53323 1235.3594 684.31836 C 1230.6814 692.54235 1224.414 699.20739 1217.5371 705.60352 C 1211.7868 709.12466 1205.8353 712.86456 1199.3672 712.88477 C 1202.5884 721.22493 1199.3078 730.33841 1192.6191 736.82227 C 1188.6504 740.38688 1184.6105 743.28393 1180.2422 746.30859 C 1176.8968 748.62503 1173.239 752.25455 1169.0801 752.98047 C 1168.8026 752.92997 1168.4662 752.26859 1168.3633 752.53125 C 1165.9705 758.64315 1164.2282 765.13015 1159.3516 769.94336 C 1150.305 780.89404 1144.97 783.81655 1131.0742 783.03906 C 1128.1708 782.96517 1125.2557 782.77128 1122.3555 782.83398 C 1122.2777 782.86936 1122.2033 782.91312 1122.125 782.94727 C 1118.778 784.40636 1114.9701 784.40703 1111.3926 785.13672 C 1105.6293 784.05409 1101.1469 782.41228 1097.5488 780.13672 C 1095.5894 779.87583 1093.5628 779.82819 1091.8613 778.88477 C 1087.4447 776.43585 1083.8484 772.73631 1079.8418 769.66211 C 1080.4503 767.845 1080.9635 765.98591 1081.4609 764.11914 C 1076.86 760.86105 1072.7138 757.24028 1071.2598 753.06836 C 1067.5024 742.28773 1069.239 741.67185 1072.8965 733.29492 C 1073.6123 731.80103 1074.4988 730.37905 1075.043 728.81445 C 1075.5488 727.36017 1075.6415 725.79189 1076.0254 724.30078 C 1077.5734 718.28778 1078.3262 717.71431 1078.7715 712.18945 C 1079.0016 709.33523 1078.9862 709.49967 1078.4082 710.32617 C 1076.5416 702.98046 1077.5798 695.14257 1077.6914 687.64062 C 1077.6354 675.99361 1077.6091 664.34841 1077.6211 652.70117 C 1076.4303 644.52188 1079.8913 636.88741 1081.3184 629.04492 C 1081.2739 629.11474 1081.2245 629.15623 1081.1641 629.10938 C 1080.7196 628.76472 1080.9861 627.99862 1080.8965 627.44336 C 1079.8824 616.71224 1080.3868 605.9296 1080.502 595.17383 C 1080.46 586.29983 1080.4422 577.42492 1080.4512 568.55078 C 1080.4652 561.65938 1080.4612 554.76836 1080.4512 547.87695 C 1080.4512 540.25211 1080.4534 532.62679 1080.4531 525.00195 C 1080.4529 516.8305 1080.4531 508.65973 1080.4531 500.48828 L 1080.4531 483.34375 L 1080.4531 462.97266 C 1073.3877 463.4461 1066.2801 462.56524 1059.2031 463.80664 C 1051.904 464.76343 1045.0549 464.78678 1037.9512 462.24609 C 1034.5027 461.01271 1029.2229 461.05358 1027.9941 457.60352 C 1019.56 433.92494 1022.299 435.09831 1034.207 428.75781 C 1045.3135 425.14668 1056.9919 421.61943 1067.3887 416.21289 C 1076.7275 411.35656 1084.6911 404.35495 1094.0059 399.48633 C 1098.2953 396.92746 1100.6266 395.31332 1105.3711 393.44727 C 1113.8729 390.10346 1123.0949 390.795 1131.9434 389.38086 C 1135.5703 386.97891 1139.2647 384.64739 1142.7559 382.10156 C 1145.5702 380.01772 1156.3666 371.95689 1158.8691 370.41406 C 1162.3188 368.28722 1166.0439 366.63956 1169.5781 364.65625 C 1171.928 363.33756 1174.0496 361.59584 1176.5156 360.50977 C 1181.5615 358.28744 1187.0481 356.95829 1192.373 355.54688 C 1217.4619 353.10154 1181.8303 356.18638 1205.8789 355.33594 C 1207.0682 355.29384 1208.175 354.68092 1209.3535 354.51562 C 1212.8106 354.03071 1216.3014 353.81806 1219.7656 353.38672 C 1233.5133 351.67492 1238.697 350.72901 1253.0117 348.47852 C 1265.7162 347.93389 1278.132 344.7128 1290.7852 343.75781 C 1292.6444 343.61748 1294.5173 343.58289 1296.3789 343.68555 C 1297.2328 343.73265 1298.5279 343.46978 1299.5977 343.41016 z M 1454.9785 522.08203 C 1454.9873 522.09556 1454.9913 522.09983 1455 522.11328 C 1454.07 519.4199 1454.3485 520.47386 1454.9785 522.08203 z M 1455 522.11328 C 1455.0103 522.14323 1455.0382 522.23465 1455.0488 522.26562 C 1455.4074 523.16168 1455.8231 524.06604 1456.125 524.33203 C 1456.6816 524.82237 1456.0609 523.75402 1455 522.11328 z M 1230.8359 380.63281 C 1221.6437 381.97664 1212.4165 383.07502 1203.2109 383.49414 C 1203.0954 383.49914 1200.2037 382.99735 1199.5938 382.89258 C 1198.0747 383.29183 1196.5697 383.74879 1195.0371 384.0918 C 1194.2072 384.27753 1193.3334 384.30706 1192.4883 384.42773 C 1194.2025 384.4018 1195.875 384.35673 1196.8242 384.24609 C 1204.5358 383.34736 1211.8083 382.64355 1218.6719 387.33203 C 1219.8112 388.37838 1221.4876 388.69594 1222.7715 389.54102 C 1223.2213 388.98079 1221.9346 390.61839 1229.3828 382.33203 C 1229.8822 381.77643 1230.363 381.20768 1230.8359 380.63281 z M 1145.1328 387.12891 C 1146.2825 386.92209 1144.7702 387.17322 1143.0684 387.48242 C 1143.3784 387.42798 1144.9568 387.16056 1145.1328 387.12891 z M 1221.3027 389.81836 C 1221.6336 389.92154 1221.9803 389.99995 1222.3223 390.08594 C 1222.3257 390.08165 1222.3561 390.04512 1222.3594 390.04102 C 1221.6603 389.89706 1220.9537 389.70948 1221.3027 389.81836 z M 1151.0469 410.91602 C 1149.6576 411.91865 1150.1034 411.6144 1151.0469 410.91602 z M 1169.0586 412.43359 C 1168.221 412.4434 1167.3832 412.47381 1166.5469 412.53125 C 1162.0661 412.83901 1157.7599 414.43926 1153.3086 415.03711 C 1136.6856 417.2697 1146.5234 415.46417 1142.7441 416.16602 C 1142.5493 416.29442 1142.3616 416.43237 1142.1602 416.55078 C 1141.8594 416.72757 1141.342 416.305 1141.1133 416.56836 C 1139.6067 418.30272 1138.5533 420.37764 1137.4355 422.4082 C 1141.4406 425.04807 1147.7688 427.61746 1149.207 429.86328 C 1152.2622 434.63395 1154.708 439.84328 1156.4785 445.22461 C 1157.5132 448.36929 1157.0492 451.8252 1157.5098 455.10352 C 1157.8058 457.21026 1158.3342 459.27805 1158.7461 461.36523 C 1159.3793 464.87417 1159.8242 468.40505 1160.0723 471.94922 C 1161.4942 471.95956 1160.1058 471.54613 1164.873 473.39844 C 1164.9342 473.17466 1165.0012 472.95081 1165.0703 472.71484 C 1157.8629 465.14789 1159.3567 466.08296 1184.4824 452.4375 C 1184.3416 452.3086 1184.197 452.18318 1184.0605 452.05078 C 1184.2619 452.2161 1184.3246 452.27535 1184.5059 452.42383 C 1184.6509 452.34504 1184.7459 452.29658 1184.8926 452.2168 C 1186.8102 451.17357 1188.0849 455.20453 1189.8184 456.53125 C 1191.047 457.47152 1192.508 458.35393 1194.0098 459.20117 C 1195.4003 458.51675 1196.8613 458.11962 1198.3672 458.07617 C 1191.3559 454.61839 1185.9519 453.24314 1183.3027 444.27734 C 1182.6258 441.98629 1181.9451 431.4256 1185.3398 427.80469 C 1185.7888 427.32575 1184.7079 434.34961 1185.668 427.39258 C 1187.9471 423.35722 1189.7388 419.00482 1192.5059 415.28711 C 1192.9446 414.69771 1194.79 413.74357 1196.6465 412.85547 C 1192.9377 412.97387 1189.0317 412.70136 1186.6641 412.73242 C 1180.8115 413.28658 1174.9218 412.36494 1169.0586 412.43359 z M 1184.5059 452.42383 C 1184.4969 452.4287 1184.4914 452.43263 1184.4824 452.4375 C 1185.2143 453.10744 1185.9901 453.7421 1186.7637 454.37891 C 1186.3481 453.94127 1185.5533 453.28195 1184.5059 452.42383 z M 1118.1289 442.52344 C 1116.3479 444.09651 1114.5443 445.65031 1112.7109 447.1875 C 1111.3011 448.36958 1109.9367 449.61104 1108.5449 450.81641 C 1108.7213 454.80972 1109.111 458.84273 1108.7363 462.69141 L 1108.7363 483.34375 L 1108.7363 500.48828 L 1108.7363 511.36914 C 1109.5943 510.69829 1110.5029 510.07824 1111.4375 509.50781 C 1111.1912 507.64488 1110.8893 505.7935 1110.8516 503.89258 C 1110.7606 499.30462 1111.8792 495.00122 1113.3711 490.71289 C 1114.2463 487.64615 1114.856 484.49012 1115.9961 481.51172 C 1118.9013 473.92251 1124.077 467.1489 1130.5039 464.26562 C 1130.0808 462.09211 1129.6473 459.91966 1129.3477 457.72656 C 1129.0594 455.61639 1127.5157 453.00148 1128.8672 451.35547 C 1129.8426 450.16761 1132.8437 454.64226 1133.123 453.13086 C 1133.4224 451.5107 1130.4232 451.23967 1129.0586 450.31641 C 1120.3748 444.44131 1124.3159 447.38968 1118.1289 442.52344 z M 1201.9551 458.69336 C 1202.8418 459.03958 1203.7386 459.53064 1204.6426 460.19531 C 1207.8463 462.55093 1209.4897 466.15522 1210.709 470.09766 C 1210.8464 470.05022 1210.9849 470.00593 1211.123 469.96094 C 1212.2879 466.72879 1214.0577 463.70685 1214.9414 460.38867 C 1214.9212 460.38688 1214.901 460.38463 1214.8809 460.38281 C 1214.6982 460.81337 1214.3558 461.75713 1214.2734 462.20508 C 1214.116 461.56746 1213.9881 460.92815 1213.8613 460.28906 C 1210.1838 459.88442 1206.4104 459.11635 1201.9551 458.69336 z M 1165.9551 467.84375 C 1166.0113 468.73701 1166.0046 468.7037 1166.0352 469.24609 C 1166.0397 469.21331 1166.0585 469.15047 1166.0605 469.12305 C 1166.0925 468.69614 1165.9282 467.41646 1165.9551 467.84375 z M 1241.8945 468.63867 C 1241.0367 472.01353 1239.5901 475.24819 1238.2285 478.48828 C 1240.0902 481.11482 1241.6351 484.00936 1241.9473 485.99023 C 1242.4555 483.3752 1242.9541 480.74405 1244.6738 478.79492 C 1245.2105 478.18669 1244.9407 481.00816 1245.5332 481.07031 C 1245.5126 479.33345 1242.0713 469.2332 1241.8945 468.63867 z M 1132.0938 489.88281 C 1131.9033 489.89859 1131.4557 489.90655 1131.6172 489.93164 C 1131.7833 489.95751 1131.9492 489.99178 1132.1152 490.01953 C 1132.1088 489.97281 1132.1 489.92966 1132.0938 489.88281 z M 1170.6172 514.30078 C 1172.1386 514.64108 1173.5843 515.06312 1174.9688 515.56836 C 1173.7266 514.77431 1172.2891 514.6362 1170.6172 514.30078 z M 1108.7363 536.32812 C 1108.7361 540.17592 1108.7364 544.02331 1108.7363 547.87109 C 1108.7363 554.77399 1108.7463 561.67719 1108.7363 568.58008 C 1108.7263 577.54634 1108.7492 586.51239 1108.7852 595.47852 C 1108.6808 605.09504 1108.2099 614.73419 1109.0078 624.33398 C 1109.4496 629.0958 1109.443 633.21484 1108.25 637.87305 C 1108.206 638.04315 1105.9409 646.08577 1105.9121 646.35156 C 1105.6833 648.46514 1105.9023 650.60259 1105.9023 652.72852 C 1105.8924 662.4895 1105.9162 672.25094 1105.9492 682.01172 C 1107.2212 680.75452 1108.5284 679.56119 1109.7871 678.44531 C 1111.1178 685.32151 1109.168 676.33993 1111.1738 669.65625 C 1112.6625 664.69565 1117.8572 661.37869 1121.207 657.79883 C 1122.5043 656.41256 1123.7225 654.95514 1124.9805 653.5332 C 1126.0337 652.16284 1127.1015 650.78066 1128.166 649.40039 C 1128.7434 646.54518 1129.7171 643.80363 1131.377 641.33594 C 1133.6708 637.9259 1136.9737 635.31501 1139.7715 632.30469 C 1142.2355 630.51674 1144.9003 629.06797 1147.5996 627.67969 C 1149.2411 625.73546 1150.7904 623.7097 1152.1465 621.51758 C 1153.497 620.03966 1154.7813 618.49737 1156.1992 617.08398 C 1156.9594 616.32613 1158.142 615.95338 1158.668 615.01758 C 1162.5508 608.10871 1161.7265 599.67174 1165.4316 592.71875 C 1165.4086 593.74349 1165.2883 594.77069 1165.3633 595.79297 C 1165.4283 596.68131 1165.4329 594.01326 1165.4629 593.12305 C 1165.5666 589.99032 1165.4292 586.94033 1164.709 583.85938 C 1164.671 581.98679 1164.449 580.10762 1164.5938 578.24023 C 1165.1277 571.34588 1168.7376 565.34965 1169.8809 558.60156 C 1169.7431 558.21212 1169.6384 557.81433 1169.6074 557.39844 C 1169.5076 556.05793 1169.478 554.85804 1169.4863 553.72656 C 1169.2525 553.74764 1169.0168 553.76346 1168.7891 553.81055 C 1162.5327 555.10391 1156.6805 555.784 1150.6699 552.79297 C 1149.7476 552.28658 1148.795 551.82931 1147.873 551.32227 C 1145.5924 552.01298 1143.2093 552.42644 1140.7949 552.54688 C 1138.5003 552.66133 1136.2357 551.96142 1133.957 551.66797 C 1127.4126 548.5795 1121.5784 544.37019 1115.3027 540.84375 C 1113.4102 539.78027 1111.3682 539.00366 1109.4727 537.94531 C 1109.254 537.40191 1108.9957 536.86444 1108.7363 536.32812 z M 1170.4668 559.90039 C 1171.1876 561.66526 1172.0728 563.9036 1171.7715 562.73633 C 1171.5144 561.73998 1170.955 560.82674 1170.4668 559.90039 z M 1468.5488 569.17383 C 1468.4809 569.11336 1468.555 569.46662 1468.6387 569.85156 C 1468.654 569.71383 1468.6685 569.56039 1468.6836 569.42383 C 1468.6301 569.3166 1468.5735 569.19578 1468.5488 569.17383 z M 1468.9805 570.13672 C 1469.4042 571.3807 1470.0879 572.997 1469.7988 572.21875 C 1469.3906 571.11993 1469.1817 570.61916 1468.9805 570.13672 z M 1213.3555 570.50977 C 1212.2871 571.23364 1211.2285 571.97015 1210.1953 572.73828 C 1204.9678 575.14191 1204.6295 578.21718 1204.7754 582.375 C 1207.3147 580.93199 1209.8722 579.51395 1212.3633 577.99219 C 1212.2624 575.71839 1212.606 573.31485 1213.3555 570.50977 z M 1204.9863 621.73828 C 1204.9863 621.76977 1205.0468 622.02647 1205.0898 622.3125 C 1205.1193 622.31425 1205.1483 622.31661 1205.1777 622.31836 C 1205.1162 622.1299 1205.0835 622.00374 1205.0098 621.78906 C 1204.9937 621.74222 1204.9863 621.72779 1204.9863 621.73828 z M 1127.3887 661.91602 C 1127.3544 662.31501 1127.3331 662.73464 1127.3242 663.16211 C 1127.3496 663.11863 1127.3755 663.07307 1127.3984 663.0293 C 1127.3938 662.65874 1127.3933 662.29047 1127.3887 661.91602 z M 1098.0078 706.19531 C 1097.9875 706.19776 1097.9267 706.25008 1097.8164 706.36523 C 1096.9073 707.31478 1096.3376 708.14002 1096.0312 708.87109 C 1096.8946 707.83229 1098.1267 706.18096 1098.0078 706.19531 z M 1174.7461 713.75 C 1174.1578 713.63528 1173.416 715.04421 1172.9004 716.54492 C 1173.076 716.37843 1173.2567 716.2186 1173.4297 716.04883 C 1173.9962 715.39978 1175.5379 714.85977 1175.1289 714.10156 C 1175.0139 713.88838 1174.8842 713.77694 1174.7461 713.75 z "
       transform="translate(-0.0019328,0)"
       id="rect3160" />
    <path
       style="opacity:1;fill:#ff6600;fill-opacity:0.80784314;stroke:none;stroke-width:51.536;stroke-linecap:round;stroke-linejoin:round;stroke-miterlimit:4;stroke-dasharray:none;stroke-dashoffset:0;stroke-opacity:1"
       d="M -134.38672 -48.503906 L -134.38672 1155.4414 L 2021.7832 1155.4414 L 2021.7832 -48.503906 L -134.38672 -48.503906 z M 1852.5098 46.027344 L 1874.0859 1025.9727 L 57.914062 986.33984 L 129.83594 150.51367 L 1852.5098 46.027344 z "
       transform="translate(-0.0019328,0)"
       id="rect4208" />
    <g
       id="g4227"
       transform="matrix(1.0943292,0,0,1.0943292,-153.11957,-114.56483)"
       style="stroke:#ff6600;stroke-opacity:0.80784315;stroke-width:5.48281084;stroke-miterlimit:4;stroke-dasharray:none">
      <text
         transform="matrix(0.99459649,-0.10381625,0.10381625,0.99459649,0,0)"
         sodipodi:linespacing="125%"
         id="text4196"
         y="292.30878"
         x="157.20403"
         style="font-style:normal;font-variant:normal;font-weight:bold;font-stretch:normal;font-size:116.82365417px;line-height:125%;font-family:'Super Mario 256';-inkscape-font-specification:'Super Mario 256 Bold';letter-spacing:0px;word-spacing:0px;fill:#000000;fill-opacity:1;stroke:#ff6600;stroke-width:5.48281086;stroke-linecap:butt;stroke-linejoin:miter;stroke-opacity:0.80784315;stroke-miterlimit:4;stroke-dasharray:none"
         xml:space="preserve"><tspan
           y="292.30878"
           x="157.20403"
           id="tspan4198"
           sodipodi:role="line">ARCA</tspan></text>
      <text
         transform="matrix(0.97086717,0.23961831,-0.23961831,0.97086717,0,0)"
         sodipodi:linespacing="125%"
         id="text4200"
         y="99.92804"
         x="562.89282"
         style="font-style:normal;font-variant:normal;font-weight:bold;font-stretch:normal;font-size:81.60488129px;line-height:125%;font-family:'Super Mario 256';-inkscape-font-specification:'Super Mario 256 Bold';letter-spacing:0px;word-spacing:0px;fill:#000000;fill-opacity:1;stroke:#ff6600;stroke-width:5.48281085;stroke-linecap:butt;stroke-linejoin:miter;stroke-opacity:0.80784315;stroke-miterlimit:4;stroke-dasharray:none"
         xml:space="preserve"><tspan
           y="99.92804"
           x="562.89282"
           id="tspan4202"
           sodipodi:role="line">DA</tspan></text>
      <text
         sodipodi:linespacing="125%"
         id="text4204"
         y="366.21106"
         x="218.80142"
         style="font-style:normal;font-variant:normal;font-weight:bold;font-stretch:normal;font-size:108.30440521px;line-height:125%;font-family:'Super Mario 256';-inkscape-font-specification:'Super Mario 256 Bold';letter-spacing:0px;word-spacing:0px;fill:#000000;fill-opacity:1;stroke:#ff6600;stroke-width:5.48281084;stroke-linecap:butt;stroke-linejoin:miter;stroke-opacity:0.80784315;stroke-miterlimit:4;stroke-dasharray:none"
         xml:space="preserve"><tspan
           y="366.21106"
           x="218.80142"
           id="tspan4206"
           sodipodi:role="line">RISADA</tspan></text>
    </g>
  </g>
</svg>
