<?xml version="1.0" encoding="UTF-8" standalone="no"?>
<!-- Created with Inkscape (http://www.inkscape.org/) -->

<svg
   xmlns:dc="http://purl.org/dc/elements/1.1/"
   xmlns:cc="http://creativecommons.org/ns#"
   xmlns:rdf="http://www.w3.org/1999/02/22-rdf-syntax-ns#"
   xmlns:svg="http://www.w3.org/2000/svg"
   xmlns="http://www.w3.org/2000/svg"
   xmlns:xlink="http://www.w3.org/1999/xlink"
   xmlns:sodipodi="http://sodipodi.sourceforge.net/DTD/sodipodi-0.dtd"
   xmlns:inkscape="http://www.inkscape.org/namespaces/inkscape"
   height="1080"
   id="svg2383"
   inkscape:output_extension="org.inkscape.output.svg.inkscape"
   inkscape:version="0.91 r13725"
   sodipodi:docname="arca-da-risada-moldura-tv-circular.svg"
   sodipodi:version="0.32"
   version="1.0"
   width="1920"
   inkscape:export-filename="/home/francisco/pessoal/conteudo-videos/molduras/arca-da-risada-moldura-tv-circular.png"
   inkscape:export-xdpi="90"
   inkscape:export-ydpi="90">
  <defs
     id="defs2385">
    <linearGradient
       id="linearGradient3182"
       inkscape:collect="always">
      <stop
         id="stop3184"
         offset="0"
         style="stop-color:#ffffff;stop-opacity:0.55" />
      <stop
         id="stop3186"
         offset="1"
         style="stop-color:#ffffff;stop-opacity:0;" />
    </linearGradient>
    <linearGradient
       id="linearGradient3174"
       inkscape:collect="always">
      <stop
         id="stop3176"
         offset="0"
         style="stop-color:#324da7;stop-opacity:0.55" />
      <stop
         id="stop3178"
         offset="1"
         style="stop-color:#324da7;stop-opacity:0;" />
    </linearGradient>
    <linearGradient
       id="linearGradient3190"
       inkscape:collect="always">
      <stop
         id="stop3192"
         offset="0"
         style="stop-color:#324da7;stop-opacity:1" />
      <stop
         id="stop3194"
         offset="1"
         style="stop-color:#324da7;stop-opacity:0;" />
    </linearGradient>
    <linearGradient
       id="linearGradient3267"
       inkscape:collect="always">
      <stop
         id="stop3269"
         offset="0"
         style="stop-color:#0000ff;stop-opacity:0" />
      <stop
         id="stop3275"
         offset="0.48768985"
         style="stop-color:#ffffff;stop-opacity:1" />
      <stop
         id="stop3271"
         offset="1"
         style="stop-color:#0000ff;stop-opacity:0;" />
    </linearGradient>
    <inkscape:perspective
       id="perspective2391"
       inkscape:persp3d-origin="372.04724 : 350.78739 : 1"
       inkscape:vp_x="0 : 526.18109 : 1"
       inkscape:vp_y="0 : 1000 : 0"
       inkscape:vp_z="744.09448 : 526.18109 : 1"
       sodipodi:type="inkscape:persp3d" />
    <linearGradient
       gradientTransform="matrix(0.4475832,0,0,1.1594093,-317.72844,-354.23847)"
       gradientUnits="userSpaceOnUse"
       id="linearGradient3273"
       inkscape:collect="always"
       x1="333.26617"
       x2="1668.8561"
       xlink:href="#linearGradient3267"
       y1="671.26709"
       y2="671.26709" />
    <linearGradient
       gradientTransform="matrix(0.4475832,0,0,1.1594093,-317.72845,-255.93349)"
       gradientUnits="userSpaceOnUse"
       id="linearGradient3463"
       inkscape:collect="always"
       x1="333.26617"
       x2="1668.8561"
       xlink:href="#linearGradient3267"
       y1="671.26709"
       y2="671.26709" />
    <linearGradient
       gradientTransform="translate(-480.00173,0)"
       gradientUnits="userSpaceOnUse"
       id="linearGradient3196"
       inkscape:collect="always"
       x1="1917.6716"
       x2="1622.8263"
       xlink:href="#linearGradient3190"
       y1="542.59882"
       y2="542.59882" />
    <linearGradient
       gradientTransform="matrix(-1,0,0,1,1920.0025,7.77e-2)"
       gradientUnits="userSpaceOnUse"
       id="linearGradient3200"
       inkscape:collect="always"
       x1="1917.6716"
       x2="1622.8263"
       xlink:href="#linearGradient3190"
       y1="542.59882"
       y2="542.59882" />
    <linearGradient
       gradientUnits="userSpaceOnUse"
       id="linearGradient3180"
       inkscape:collect="always"
       x1="513.01154"
       x2="513.01154"
       xlink:href="#linearGradient3174"
       y1="-540.84637"
       y2="-636.17462" />
    <linearGradient
       gradientUnits="userSpaceOnUse"
       id="linearGradient3188"
       inkscape:collect="always"
       x1="719.99805"
       x2="719.99805"
       xlink:href="#linearGradient3182"
       y1="-540.84637"
       y2="-631.5105" />
    <linearGradient
       gradientUnits="userSpaceOnUse"
       id="linearGradient3197"
       inkscape:collect="always"
       x1="513.01154"
       x2="513.01154"
       xlink:href="#linearGradient3174"
       y1="-540.84637"
       y2="-636.17462" />
    <linearGradient
       gradientUnits="userSpaceOnUse"
       id="linearGradient3199"
       inkscape:collect="always"
       x1="719.99805"
       x2="719.99805"
       xlink:href="#linearGradient3182"
       y1="-540.84637"
       y2="-631.5105" />
    <linearGradient
       gradientTransform="translate(240.00003,-1.7053223)"
       gradientUnits="userSpaceOnUse"
       id="linearGradient2841"
       inkscape:collect="always"
       x1="513.01154"
       x2="513.01154"
       xlink:href="#linearGradient3174"
       y1="-540.84637"
       y2="-636.17462" />
    <linearGradient
       gradientTransform="translate(240.00003,-1.7053223)"
       gradientUnits="userSpaceOnUse"
       id="linearGradient2843"
       inkscape:collect="always"
       x1="719.99805"
       x2="719.99805"
       xlink:href="#linearGradient3182"
       y1="-540.84637"
       y2="-631.5105" />
    <inkscape:perspective
       id="perspective2855"
       inkscape:persp3d-origin="0.5 : 0.33333333 : 1"
       inkscape:vp_x="0 : 0.5 : 1"
       inkscape:vp_y="0 : 1000 : 0"
       inkscape:vp_z="1 : 0.5 : 1"
       sodipodi:type="inkscape:persp3d" />
    <inkscape:perspective
       id="perspective3664"
       inkscape:persp3d-origin="0.5 : 0.33333333 : 1"
       inkscape:vp_x="0 : 0.5 : 1"
       inkscape:vp_y="0 : 1000 : 0"
       inkscape:vp_z="1 : 0.5 : 1"
       sodipodi:type="inkscape:persp3d" />
    <filter
       height="1.5"
       id="filter3984"
       inkscape:label="Drop shadow"
       width="1.5"
       x="-.25"
       y="-.25">
      <feGaussianBlur
         id="feGaussianBlur3986"
         in="SourceAlpha"
         result="blur"
         stdDeviation="1.000000" />
      <feColorMatrix
         id="feColorMatrix3988"
         result="bluralpha"
         type="matrix"
         values="1 0 0 0 0 0 1 0 0 0 0 0 1 0 0 0 0 0 1.000000 0 " />
      <feOffset
         dx="0.000000"
         dy="4.000000"
         id="feOffset3990"
         in="bluralpha"
         result="offsetBlur" />
      <feMerge
         id="feMerge3992">
        <feMergeNode
           id="feMergeNode3994"
           in="offsetBlur" />
        <feMergeNode
           id="feMergeNode3996"
           in="SourceGraphic" />
      </feMerge>
    </filter>
    <filter
       height="1.5"
       id="filter3998"
       inkscape:label="Drop shadow"
       width="1.5"
       x="-.25"
       y="-.25">
      <feGaussianBlur
         id="feGaussianBlur4000"
         in="SourceAlpha"
         result="blur"
         stdDeviation="1.000000" />
      <feColorMatrix
         id="feColorMatrix4002"
         result="bluralpha"
         type="matrix"
         values="1 0 0 0 0 0 1 0 0 0 0 0 1 0 0 0 0 0 1.000000 0 " />
      <feOffset
         dx="0.000000"
         dy="4.000000"
         id="feOffset4004"
         in="bluralpha"
         result="offsetBlur" />
      <feMerge
         id="feMerge4006">
        <feMergeNode
           id="feMergeNode4008"
           in="offsetBlur" />
        <feMergeNode
           id="feMergeNode4010"
           in="SourceGraphic" />
      </feMerge>
    </filter>
    <pattern
       y="0"
       x="0"
       height="6"
       width="6"
       patternUnits="userSpaceOnUse"
       id="EMFhbasepattern" />
  </defs>
  <sodipodi:namedview
     bordercolor="#666666"
     borderopacity="1.0"
     gridtolerance="10000"
     guidetolerance="10"
     id="base"
     inkscape:current-layer="g5882"
     inkscape:cx="312.03838"
     inkscape:cy="339.53097"
     inkscape:document-units="px"
     inkscape:pageopacity="0.0"
     inkscape:pageshadow="2"
     inkscape:window-height="1000"
     inkscape:window-maximized="1"
     inkscape:window-width="1215"
     inkscape:window-x="65"
     inkscape:window-y="24"
     inkscape:zoom="0.35355339"
     objecttolerance="10"
     pagecolor="#ffffff"
     showgrid="false" />
  <metadata
     id="metadata2388">
    <rdf:RDF>
      <cc:Work
         rdf:about="">
        <dc:format>image/svg+xml</dc:format>
        <dc:type
           rdf:resource="http://purl.org/dc/dcmitype/StillImage" />
        <dc:title />
      </cc:Work>
    </rdf:RDF>
  </metadata>
  <g
     id="layer1"
     inkscape:groupmode="layer"
     inkscape:label="Layer 1"
     transform="translate(1.9328e-3,0)">
    <path
       style="opacity:0;fill:#e0e7ff;fill-opacity:1;stroke:none;stroke-width:1;stroke-miterlimit:4;stroke-dasharray:none;stroke-opacity:1"
       d="M 0 -0.005859375 L 0 1080 L 1920 1080 L 1920 -0.005859375 L 0 -0.005859375 z M 1299.5977 343.41016 C 1300.2149 343.37575 1300.75 343.41533 1301.0898 343.61328 C 1307.3005 343.22055 1311.1886 344.84316 1317.5332 348.75586 C 1319.0245 349.67553 1320.3192 350.89472 1321.8281 351.78516 C 1322.5224 352.19488 1323.3686 352.28056 1324.0957 352.62891 C 1325.5521 353.32673 1326.9416 354.15541 1328.3652 354.91797 C 1330.4177 354.59784 1338.234 358.57119 1339.2832 358.98438 C 1340.4835 359.45711 1341.7026 359.9025 1342.959 360.19531 C 1343.2357 360.25981 1343.9529 360.27126 1343.7949 360.03516 C 1343.5677 359.6957 1343.0111 359.80459 1342.6191 359.68945 C 1350.4565 358.03468 1354.2764 364.42264 1360.7578 366.2793 C 1360.9224 366.3265 1361.2538 366.08219 1361.1484 365.94727 C 1360.9101 365.64234 1359.7622 365.62584 1360.1035 365.44336 C 1360.9644 364.98297 1362.0292 365.12333 1362.9922 364.96289 C 1369.2406 363.90396 1375.5931 364.03228 1381.8965 364.32422 C 1382.7583 364.36412 1383.6581 364.19044 1384.4805 364.45117 C 1387.6005 365.44022 1390.5747 366.84434 1393.6211 368.04102 C 1394.2699 368.40162 1394.8565 368.90621 1395.5664 369.12305 C 1395.9268 369.23313 1394.3495 368.30126 1394.7188 368.37695 C 1401.7945 369.82765 1408.483 374.13779 1414.4844 378.01172 C 1420.8042 380.58907 1427.6834 384.74829 1433.8477 389.14648 C 1438.2126 392.43889 1441.6287 396.66729 1445.1836 400.75586 C 1446.6023 402.38749 1448.3514 403.73736 1449.6172 405.49023 C 1451.0352 407.45385 1452.1903 409.59419 1453.4766 411.64648 C 1454.2255 413.62353 1454.9635 415.60502 1455.7227 417.57812 C 1456.4027 419.34551 1457.2953 421.04199 1457.793 422.86914 C 1460.0769 431.25478 1459.2137 438.33061 1464.8477 445.02148 C 1469.0713 450.86742 1469.6047 455.67334 1468.6875 462.10547 C 1468.8368 462.41583 1468.9554 462.65191 1469.1387 463.02539 C 1469.6642 464.66614 1470.3615 466.26338 1470.7168 467.94922 C 1471.1276 469.8983 1471.0534 471.92445 1471.4277 473.88086 C 1471.7801 475.72254 1473.1651 477.20929 1473.9062 478.93164 C 1476.4858 484.92513 1475.9695 484.03217 1477.4414 490.47266 C 1477.2437 499.53681 1477.8446 494.49709 1476.2012 501.65625 C 1476.0614 502.2654 1475.5513 503.8293 1476.0996 503.5293 C 1476.7948 503.14889 1476.8937 502.36314 1476.8672 501.82812 C 1476.7157 501.09773 1476.8403 501.2853 1476.8672 501.82812 C 1477.0037 502.48644 1477.371 503.85718 1478.3691 506.66406 C 1481.7086 509.80389 1481.824 514.36479 1483.0859 518.47461 C 1483.1968 518.83582 1482.9624 517.00482 1483.1328 517.3418 C 1484.5281 520.09249 1484.8331 523.63359 1485.3301 526.54883 C 1485.3841 526.13981 1485.2619 524.979 1485.4941 525.32031 C 1487.0874 527.66543 1487.5095 532.25442 1488.2148 534.60156 C 1488.2928 534.86047 1488.3129 533.55863 1488.4062 533.8125 C 1490.8952 540.60984 1490.4471 541.13756 1491.207 548.62695 C 1491.4969 549.42841 1491.7864 550.22979 1492.0762 551.03125 C 1492.4815 552.86652 1492.7204 554.74636 1493.291 556.53711 C 1493.4095 556.90871 1493.906 557.04423 1494.0996 557.38281 C 1494.6413 558.33045 1495.1387 559.31488 1495.4746 560.35352 C 1497.5283 566.70538 1496.9802 565.86099 1496.7949 572.53906 C 1495.9333 579.48298 1494.8376 587.37346 1497.2676 594.05078 C 1497.7203 595.7051 1498.1723 597.35934 1498.625 599.01367 C 1498.9406 600.61193 1499.15 602.23519 1499.5723 603.80859 C 1499.7361 604.41844 1500.1059 604.95128 1500.373 605.52344 C 1500.7942 606.89841 1501.3231 608.24501 1501.6367 609.64844 C 1502.7994 614.85206 1502.4875 614.97819 1502.3828 620.20703 C 1502.4008 615.33844 1502.9785 617.53654 1500.9219 613.54883 C 1488.0879 588.66333 1496.1746 655.56018 1480.0684 632.65625 C 1474.5235 624.77106 1476.789 629.40919 1474.1602 618.3457 C 1474.3876 618.04562 1474.7972 619.00438 1474.5586 617.82031 C 1473.4046 612.09131 1470.6982 606.69908 1469.8203 600.88086 C 1469.1837 597.86518 1468.3668 594.88211 1467.9102 591.83398 C 1466.9395 585.35364 1467.783 577.56012 1468.5254 570.88281 C 1467.9554 569.28826 1467.1441 566.9568 1465.6602 562.57812 C 1464.3597 558.7405 1464.7278 554.44236 1463 550.7168 C 1462.967 542.85821 1459.3771 537.44235 1457.2539 529.96875 C 1457.9552 529.56672 1457.5736 529.8924 1457.0566 528.30078 C 1456.0213 525.11321 1455.473 523.4971 1455.0488 522.26562 C 1455.0234 522.20216 1455.0032 522.1451 1454.9785 522.08203 C 1451.5871 516.8432 1443.4709 505.44986 1451.7168 516.13672 C 1448.9383 508.31473 1446.7701 501.88579 1449.0527 493.7168 C 1449.0737 493.6416 1449.1544 493.83522 1449.2051 493.89453 C 1449.3511 494.49547 1449.4966 495.09633 1449.6426 495.69727 C 1449.8307 492.20479 1445.7003 485.37615 1444.8477 482.78906 C 1444.087 480.48039 1443.6461 478.07491 1443.1992 475.68555 C 1443.1772 475.56986 1443.5153 475.90044 1443.5391 475.78516 C 1443.6101 475.44094 1443.4425 475.08839 1443.3945 474.74023 C 1440.4098 467.95318 1440.7938 469.86577 1440.4121 459.36133 C 1437.412 454.92934 1436.1467 453.24548 1434.0566 446.74219 C 1425.7073 420.76295 1436.3645 451.16769 1431.4434 433.15234 C 1430.6407 430.21382 1428.9586 427.56404 1428.3145 424.56641 C 1428.6583 424.78291 1429.6007 425.53108 1429.3457 425.21484 C 1428.4264 424.07508 1427.288 423.13098 1426.291 422.05859 C 1423.9553 419.54625 1421.9038 416.7736 1419.543 414.28906 C 1418.7929 413.49967 1417.9804 412.77037 1417.1992 412.01172 C 1411.3443 407.60221 1405.0588 404.51751 1398.5059 401.34961 C 1393.0139 396.66717 1385.7463 395.83511 1379.5469 392.53125 C 1375.43 392.33311 1371.2874 392.19383 1367.2109 392.92969 C 1360.4823 393.88522 1354.7773 394.15573 1348.2637 391.65625 C 1346.351 390.92226 1344.5555 389.90047 1342.791 388.85938 C 1342.4957 388.68511 1341.9197 388.33837 1341.6934 388.07617 C 1341.1287 388.09656 1340.5625 388.09787 1339.998 388.0625 C 1331.0372 387.50095 1323.354 382.2375 1314.9062 379.79297 C 1314.7234 379.69261 1314.5253 379.60015 1314.3379 379.50195 C 1310.8421 382.30715 1305.4896 384.20703 1298.248 384.20703 C 1290.0339 384.20703 1285.2853 383.69663 1277.375 385.51172 C 1273.5755 386.38358 1270.1983 388.62209 1266.4434 389.66992 C 1266.0793 389.77151 1265.7104 389.85203 1265.3438 389.94336 C 1268.456 396.1081 1269.2209 402.29051 1270.1777 409.70898 C 1276.3553 424.35124 1269.6873 439.07715 1269.1523 453.91602 C 1269.8425 457.98859 1269.1525 462.40478 1270.0469 466.4375 C 1270.1069 466.70759 1270.6278 466.62679 1270.7539 466.87305 C 1272.0238 469.35195 1272.6298 472.7942 1273.248 475.38086 C 1273.32 477.30818 1273.8187 479.26657 1273.4629 481.16211 C 1271.5071 491.58075 1271.0669 487.66767 1268.7578 494.35156 C 1268.6222 494.74396 1268.6941 495.17986 1268.6621 495.59375 C 1268.1026 497.36068 1267.7313 499.19919 1266.9824 500.89453 C 1265.9294 503.27814 1264.514 505.48459 1263.2793 507.7793 C 1263.107 508.51044 1263.0352 509.27307 1262.7617 509.97266 C 1260.2388 516.42515 1260.3925 514.8851 1256.2129 521.11719 C 1255.4729 522.22048 1251.4504 527.36333 1254.168 524.76562 C 1256.9489 518.3294 1252.6792 531.0081 1252.2109 532.92188 C 1252.1199 533.29611 1252.6937 535.67453 1252.6953 535.6875 C 1252.6601 535.9585 1252.6079 536.21048 1252.5684 536.47656 C 1258.7077 541.046 1262.5586 547.02455 1263.209 555.33984 C 1263.5713 559.97179 1261.5333 565.39241 1260.9844 570.08008 C 1261.8457 576.70672 1259.7866 583.09338 1258.2246 589.44922 C 1258.0277 590.25054 1258.0658 591.1127 1257.7695 591.88281 C 1256.8698 594.22077 1255.6942 596.44271 1254.6562 598.72266 C 1254.6461 598.73298 1254.6371 598.74734 1254.627 598.75781 C 1253.932 602.70194 1252.8403 606.5407 1252.3008 610.5332 C 1247.8271 622.21799 1250.4999 615.1634 1246.6855 625.08008 C 1246.0649 626.69349 1245.7179 626.66037 1246.5547 626.48438 C 1247.9174 631.37571 1247.5149 636.91871 1247.377 641.97852 C 1247.2193 647.49554 1247.3268 653.01496 1247.3398 658.5332 C 1246.3686 661.59758 1245.9428 664.89242 1244.4258 667.72656 C 1243.0871 670.22765 1240.7172 672.02127 1238.9375 674.23047 C 1237.4715 676.05033 1237.8551 677.29287 1237.3594 678.96289 C 1236.8172 680.78979 1236.0264 682.53323 1235.3594 684.31836 C 1230.6814 692.54235 1224.414 699.20739 1217.5371 705.60352 C 1211.7868 709.12466 1205.8353 712.86456 1199.3672 712.88477 C 1202.5884 721.22493 1199.3078 730.33841 1192.6191 736.82227 C 1188.6504 740.38688 1184.6105 743.28393 1180.2422 746.30859 C 1176.8968 748.62503 1173.239 752.25455 1169.0801 752.98047 C 1168.8026 752.92997 1168.4662 752.26859 1168.3633 752.53125 C 1165.9705 758.64315 1164.2282 765.13015 1159.3516 769.94336 C 1150.305 780.89404 1144.97 783.81655 1131.0742 783.03906 C 1128.1708 782.96517 1125.2557 782.77128 1122.3555 782.83398 C 1122.2777 782.86936 1122.2033 782.91312 1122.125 782.94727 C 1118.778 784.40636 1114.9701 784.40703 1111.3926 785.13672 C 1105.6293 784.05409 1101.1469 782.41228 1097.5488 780.13672 C 1095.5894 779.87583 1093.5628 779.82819 1091.8613 778.88477 C 1087.4447 776.43585 1083.8484 772.73631 1079.8418 769.66211 C 1080.4503 767.845 1080.9635 765.98591 1081.4609 764.11914 C 1076.86 760.86105 1072.7138 757.24028 1071.2598 753.06836 C 1067.5024 742.28773 1069.239 741.67185 1072.8965 733.29492 C 1073.6123 731.80103 1074.4988 730.37905 1075.043 728.81445 C 1075.5488 727.36017 1075.6415 725.79189 1076.0254 724.30078 C 1077.5734 718.28778 1078.3262 717.71431 1078.7715 712.18945 C 1079.0016 709.33523 1078.9862 709.49967 1078.4082 710.32617 C 1076.5416 702.98046 1077.5798 695.14257 1077.6914 687.64062 C 1077.6354 675.99361 1077.6091 664.34841 1077.6211 652.70117 C 1076.4303 644.52188 1079.8913 636.88741 1081.3184 629.04492 C 1081.2739 629.11474 1081.2245 629.15623 1081.1641 629.10938 C 1080.7196 628.76472 1080.9861 627.99862 1080.8965 627.44336 C 1079.8824 616.71224 1080.3868 605.9296 1080.502 595.17383 C 1080.46 586.29983 1080.4422 577.42492 1080.4512 568.55078 C 1080.4652 561.65938 1080.4612 554.76836 1080.4512 547.87695 C 1080.4512 540.25211 1080.4534 532.62679 1080.4531 525.00195 C 1080.4529 516.8305 1080.4531 508.65973 1080.4531 500.48828 L 1080.4531 483.34375 L 1080.4531 462.97266 C 1073.3877 463.4461 1066.2801 462.56524 1059.2031 463.80664 C 1051.904 464.76343 1045.0549 464.78678 1037.9512 462.24609 C 1034.5027 461.01271 1029.2229 461.05358 1027.9941 457.60352 C 1019.56 433.92494 1022.299 435.09831 1034.207 428.75781 C 1045.3135 425.14668 1056.9919 421.61943 1067.3887 416.21289 C 1076.7275 411.35656 1084.6911 404.35495 1094.0059 399.48633 C 1098.2953 396.92746 1100.6266 395.31332 1105.3711 393.44727 C 1113.8729 390.10346 1123.0949 390.795 1131.9434 389.38086 C 1135.5703 386.97891 1139.2647 384.64739 1142.7559 382.10156 C 1145.5702 380.01772 1156.3666 371.95689 1158.8691 370.41406 C 1162.3188 368.28722 1166.0439 366.63956 1169.5781 364.65625 C 1171.928 363.33756 1174.0496 361.59584 1176.5156 360.50977 C 1181.5615 358.28744 1187.0481 356.95829 1192.373 355.54688 C 1217.4619 353.10154 1181.8303 356.18638 1205.8789 355.33594 C 1207.0682 355.29384 1208.175 354.68092 1209.3535 354.51562 C 1212.8106 354.03071 1216.3014 353.81806 1219.7656 353.38672 C 1233.5133 351.67492 1238.697 350.72901 1253.0117 348.47852 C 1265.7162 347.93389 1278.132 344.7128 1290.7852 343.75781 C 1292.6444 343.61748 1294.5173 343.58289 1296.3789 343.68555 C 1297.2328 343.73265 1298.5279 343.46978 1299.5977 343.41016 z M 1454.9785 522.08203 C 1454.9873 522.09556 1454.9913 522.09983 1455 522.11328 C 1454.07 519.4199 1454.3485 520.47386 1454.9785 522.08203 z M 1455 522.11328 C 1455.0103 522.14323 1455.0382 522.23465 1455.0488 522.26562 C 1455.4074 523.16168 1455.8231 524.06604 1456.125 524.33203 C 1456.6816 524.82237 1456.0609 523.75402 1455 522.11328 z M 1230.8359 380.63281 C 1221.6437 381.97664 1212.4165 383.07502 1203.2109 383.49414 C 1203.0954 383.49914 1200.2037 382.99735 1199.5938 382.89258 C 1198.0747 383.29183 1196.5697 383.74879 1195.0371 384.0918 C 1194.2072 384.27753 1193.3334 384.30706 1192.4883 384.42773 C 1194.2025 384.4018 1195.875 384.35673 1196.8242 384.24609 C 1204.5358 383.34736 1211.8083 382.64355 1218.6719 387.33203 C 1219.8112 388.37838 1221.4876 388.69594 1222.7715 389.54102 C 1223.2213 388.98079 1221.9346 390.61839 1229.3828 382.33203 C 1229.8822 381.77643 1230.363 381.20768 1230.8359 380.63281 z M 1145.1328 387.12891 C 1146.2825 386.92209 1144.7702 387.17322 1143.0684 387.48242 C 1143.3784 387.42798 1144.9568 387.16056 1145.1328 387.12891 z M 1221.3027 389.81836 C 1221.6336 389.92154 1221.9803 389.99995 1222.3223 390.08594 C 1222.3257 390.08165 1222.3561 390.04512 1222.3594 390.04102 C 1221.6603 389.89706 1220.9537 389.70948 1221.3027 389.81836 z M 1151.0469 410.91602 C 1149.6576 411.91865 1150.1034 411.6144 1151.0469 410.91602 z M 1169.0586 412.43359 C 1168.221 412.4434 1167.3832 412.47381 1166.5469 412.53125 C 1162.0661 412.83901 1157.7599 414.43926 1153.3086 415.03711 C 1136.6856 417.2697 1146.5234 415.46417 1142.7441 416.16602 C 1142.5493 416.29442 1142.3616 416.43237 1142.1602 416.55078 C 1141.8594 416.72757 1141.342 416.305 1141.1133 416.56836 C 1139.6067 418.30272 1138.5533 420.37764 1137.4355 422.4082 C 1141.4406 425.04807 1147.7688 427.61746 1149.207 429.86328 C 1152.2622 434.63395 1154.708 439.84328 1156.4785 445.22461 C 1157.5132 448.36929 1157.0492 451.8252 1157.5098 455.10352 C 1157.8058 457.21026 1158.3342 459.27805 1158.7461 461.36523 C 1159.3793 464.87417 1159.8242 468.40505 1160.0723 471.94922 C 1161.4942 471.95956 1160.1058 471.54613 1164.873 473.39844 C 1164.9342 473.17466 1165.0012 472.95081 1165.0703 472.71484 C 1157.8629 465.14789 1159.3567 466.08296 1184.4824 452.4375 C 1184.3416 452.3086 1184.197 452.18318 1184.0605 452.05078 C 1184.2619 452.2161 1184.3246 452.27535 1184.5059 452.42383 C 1184.6509 452.34504 1184.7459 452.29658 1184.8926 452.2168 C 1186.8102 451.17357 1188.0849 455.20453 1189.8184 456.53125 C 1191.047 457.47152 1192.508 458.35393 1194.0098 459.20117 C 1195.4003 458.51675 1196.8613 458.11962 1198.3672 458.07617 C 1191.3559 454.61839 1185.9519 453.24314 1183.3027 444.27734 C 1182.6258 441.98629 1181.9451 431.4256 1185.3398 427.80469 C 1185.7888 427.32575 1184.7079 434.34961 1185.668 427.39258 C 1187.9471 423.35722 1189.7388 419.00482 1192.5059 415.28711 C 1192.9446 414.69771 1194.79 413.74357 1196.6465 412.85547 C 1192.9377 412.97387 1189.0317 412.70136 1186.6641 412.73242 C 1180.8115 413.28658 1174.9218 412.36494 1169.0586 412.43359 z M 1184.5059 452.42383 C 1184.4969 452.4287 1184.4914 452.43263 1184.4824 452.4375 C 1185.2143 453.10744 1185.9901 453.7421 1186.7637 454.37891 C 1186.3481 453.94127 1185.5533 453.28195 1184.5059 452.42383 z M 1118.1289 442.52344 C 1116.3479 444.09651 1114.5443 445.65031 1112.7109 447.1875 C 1111.3011 448.36958 1109.9367 449.61104 1108.5449 450.81641 C 1108.7213 454.80972 1109.111 458.84273 1108.7363 462.69141 L 1108.7363 483.34375 L 1108.7363 500.48828 L 1108.7363 511.36914 C 1109.5943 510.69829 1110.5029 510.07824 1111.4375 509.50781 C 1111.1912 507.64488 1110.8893 505.7935 1110.8516 503.89258 C 1110.7606 499.30462 1111.8792 495.00122 1113.3711 490.71289 C 1114.2463 487.64615 1114.856 484.49012 1115.9961 481.51172 C 1118.9013 473.92251 1124.077 467.1489 1130.5039 464.26562 C 1130.0808 462.09211 1129.6473 459.91966 1129.3477 457.72656 C 1129.0594 455.61639 1127.5157 453.00148 1128.8672 451.35547 C 1129.8426 450.16761 1132.8437 454.64226 1133.123 453.13086 C 1133.4224 451.5107 1130.4232 451.23967 1129.0586 450.31641 C 1120.3748 444.44131 1124.3159 447.38968 1118.1289 442.52344 z M 1201.9551 458.69336 C 1202.8418 459.03958 1203.7386 459.53064 1204.6426 460.19531 C 1207.8463 462.55093 1209.4897 466.15522 1210.709 470.09766 C 1210.8464 470.05022 1210.9849 470.00593 1211.123 469.96094 C 1212.2879 466.72879 1214.0577 463.70685 1214.9414 460.38867 C 1214.9212 460.38688 1214.901 460.38463 1214.8809 460.38281 C 1214.6982 460.81337 1214.3558 461.75713 1214.2734 462.20508 C 1214.116 461.56746 1213.9881 460.92815 1213.8613 460.28906 C 1210.1838 459.88442 1206.4104 459.11635 1201.9551 458.69336 z M 1165.9551 467.84375 C 1166.0113 468.73701 1166.0046 468.7037 1166.0352 469.24609 C 1166.0397 469.21331 1166.0585 469.15047 1166.0605 469.12305 C 1166.0925 468.69614 1165.9282 467.41646 1165.9551 467.84375 z M 1241.8945 468.63867 C 1241.0367 472.01353 1239.5901 475.24819 1238.2285 478.48828 C 1240.0902 481.11482 1241.6351 484.00936 1241.9473 485.99023 C 1242.4555 483.3752 1242.9541 480.74405 1244.6738 478.79492 C 1245.2105 478.18669 1244.9407 481.00816 1245.5332 481.07031 C 1245.5126 479.33345 1242.0713 469.2332 1241.8945 468.63867 z M 1132.0938 489.88281 C 1131.9033 489.89859 1131.4557 489.90655 1131.6172 489.93164 C 1131.7833 489.95751 1131.9492 489.99178 1132.1152 490.01953 C 1132.1088 489.97281 1132.1 489.92966 1132.0938 489.88281 z M 1170.6172 514.30078 C 1172.1386 514.64108 1173.5843 515.06312 1174.9688 515.56836 C 1173.7266 514.77431 1172.2891 514.6362 1170.6172 514.30078 z M 1108.7363 536.32812 C 1108.7361 540.17592 1108.7364 544.02331 1108.7363 547.87109 C 1108.7363 554.77399 1108.7463 561.67719 1108.7363 568.58008 C 1108.7263 577.54634 1108.7492 586.51239 1108.7852 595.47852 C 1108.6808 605.09504 1108.2099 614.73419 1109.0078 624.33398 C 1109.4496 629.0958 1109.443 633.21484 1108.25 637.87305 C 1108.206 638.04315 1105.9409 646.08577 1105.9121 646.35156 C 1105.6833 648.46514 1105.9023 650.60259 1105.9023 652.72852 C 1105.8924 662.4895 1105.9162 672.25094 1105.9492 682.01172 C 1107.2212 680.75452 1108.5284 679.56119 1109.7871 678.44531 C 1111.1178 685.32151 1109.168 676.33993 1111.1738 669.65625 C 1112.6625 664.69565 1117.8572 661.37869 1121.207 657.79883 C 1122.5043 656.41256 1123.7225 654.95514 1124.9805 653.5332 C 1126.0337 652.16284 1127.1015 650.78066 1128.166 649.40039 C 1128.7434 646.54518 1129.7171 643.80363 1131.377 641.33594 C 1133.6708 637.9259 1136.9737 635.31501 1139.7715 632.30469 C 1142.2355 630.51674 1144.9003 629.06797 1147.5996 627.67969 C 1149.2411 625.73546 1150.7904 623.7097 1152.1465 621.51758 C 1153.497 620.03966 1154.7813 618.49737 1156.1992 617.08398 C 1156.9594 616.32613 1158.142 615.95338 1158.668 615.01758 C 1162.5508 608.10871 1161.7265 599.67174 1165.4316 592.71875 C 1165.4086 593.74349 1165.2883 594.77069 1165.3633 595.79297 C 1165.4283 596.68131 1165.4329 594.01326 1165.4629 593.12305 C 1165.5666 589.99032 1165.4292 586.94033 1164.709 583.85938 C 1164.671 581.98679 1164.449 580.10762 1164.5938 578.24023 C 1165.1277 571.34588 1168.7376 565.34965 1169.8809 558.60156 C 1169.7431 558.21212 1169.6384 557.81433 1169.6074 557.39844 C 1169.5076 556.05793 1169.478 554.85804 1169.4863 553.72656 C 1169.2525 553.74764 1169.0168 553.76346 1168.7891 553.81055 C 1162.5327 555.10391 1156.6805 555.784 1150.6699 552.79297 C 1149.7476 552.28658 1148.795 551.82931 1147.873 551.32227 C 1145.5924 552.01298 1143.2093 552.42644 1140.7949 552.54688 C 1138.5003 552.66133 1136.2357 551.96142 1133.957 551.66797 C 1127.4126 548.5795 1121.5784 544.37019 1115.3027 540.84375 C 1113.4102 539.78027 1111.3682 539.00366 1109.4727 537.94531 C 1109.254 537.40191 1108.9957 536.86444 1108.7363 536.32812 z M 1170.4668 559.90039 C 1171.1876 561.66526 1172.0728 563.9036 1171.7715 562.73633 C 1171.5144 561.73998 1170.955 560.82674 1170.4668 559.90039 z M 1468.5488 569.17383 C 1468.4809 569.11336 1468.555 569.46662 1468.6387 569.85156 C 1468.654 569.71383 1468.6685 569.56039 1468.6836 569.42383 C 1468.6301 569.3166 1468.5735 569.19578 1468.5488 569.17383 z M 1468.9805 570.13672 C 1469.4042 571.3807 1470.0879 572.997 1469.7988 572.21875 C 1469.3906 571.11993 1469.1817 570.61916 1468.9805 570.13672 z M 1213.3555 570.50977 C 1212.2871 571.23364 1211.2285 571.97015 1210.1953 572.73828 C 1204.9678 575.14191 1204.6295 578.21718 1204.7754 582.375 C 1207.3147 580.93199 1209.8722 579.51395 1212.3633 577.99219 C 1212.2624 575.71839 1212.606 573.31485 1213.3555 570.50977 z M 1204.9863 621.73828 C 1204.9863 621.76977 1205.0468 622.02647 1205.0898 622.3125 C 1205.1193 622.31425 1205.1483 622.31661 1205.1777 622.31836 C 1205.1162 622.1299 1205.0835 622.00374 1205.0098 621.78906 C 1204.9937 621.74222 1204.9863 621.72779 1204.9863 621.73828 z M 1127.3887 661.91602 C 1127.3544 662.31501 1127.3331 662.73464 1127.3242 663.16211 C 1127.3496 663.11863 1127.3755 663.07307 1127.3984 663.0293 C 1127.3938 662.65874 1127.3933 662.29047 1127.3887 661.91602 z M 1098.0078 706.19531 C 1097.9875 706.19776 1097.9267 706.25008 1097.8164 706.36523 C 1096.9073 707.31478 1096.3376 708.14002 1096.0312 708.87109 C 1096.8946 707.83229 1098.1267 706.18096 1098.0078 706.19531 z M 1174.7461 713.75 C 1174.1578 713.63528 1173.416 715.04421 1172.9004 716.54492 C 1173.076 716.37843 1173.2567 716.2186 1173.4297 716.04883 C 1173.9962 715.39978 1175.5379 714.85977 1175.1289 714.10156 C 1175.0139 713.88838 1174.8842 713.77694 1174.7461 713.75 z "
       transform="translate(-0.0019328,0)"
       id="rect3160" />
    <path
       style="opacity:1;fill:#ff6600;fill-opacity:0.80784314;stroke:none;stroke-width:51.536;stroke-linecap:round;stroke-linejoin:round;stroke-miterlimit:4;stroke-dasharray:none;stroke-dashoffset:0;stroke-opacity:1"
       d="M -134.38672 -48.503906 L -134.38672 1155.4414 L 2021.7832 1155.4414 L 2021.7832 -48.503906 L -134.38672 -48.503906 z M 1852.5098 46.027344 L 1874.0859 1025.9727 L 57.914062 986.33984 L 129.83594 150.51367 L 1852.5098 46.027344 z "
       transform="translate(-0.0019328,0)"
       id="rect4208" />
    <g
       id="g4227"
       transform="matrix(1.0943292,0,0,1.0943292,-153.11957,-114.56483)"
       style="stroke:#ff6600;stroke-opacity:0.80784315;stroke-width:5.48281084;stroke-miterlimit:4;stroke-dasharray:none">
      <text
         transform="matrix(0.99459649,-0.10381625,0.10381625,0.99459649,0,0)"
         sodipodi:linespacing="125%"
         id="text4196"
         y="292.30878"
         x="157.20403"
         style="font-style:normal;font-variant:normal;font-weight:bold;font-stretch:normal;font-size:116.82365417px;line-height:125%;font-family:'Super Mario 256';-inkscape-font-specification:'Super Mario 256 Bold';letter-spacing:0px;word-spacing:0px;fill:#000000;fill-opacity:1;stroke:#ff6600;stroke-width:5.48281086;stroke-linecap:butt;stroke-linejoin:miter;stroke-opacity:0.80784315;stroke-miterlimit:4;stroke-dasharray:none"
         xml:space="preserve"><tspan
           y="292.30878"
           x="157.20403"
           id="tspan4198"
           sodipodi:role="line">ARCA</tspan></text>
      <text
         transform="matrix(0.97086717,0.23961831,-0.23961831,0.97086717,0,0)"
         sodipodi:linespacing="125%"
         id="text4200"
         y="99.92804"
         x="562.89282"
         style="font-style:normal;font-variant:normal;font-weight:bold;font-stretch:normal;font-size:81.60488129px;line-height:125%;font-family:'Super Mario 256';-inkscape-font-specification:'Super Mario 256 Bold';letter-spacing:0px;word-spacing:0px;fill:#000000;fill-opacity:1;stroke:#ff6600;stroke-width:5.48281085;stroke-linecap:butt;stroke-linejoin:miter;stroke-opacity:0.80784315;stroke-miterlimit:4;stroke-dasharray:none"
         xml:space="preserve"><tspan
           y="99.92804"
           x="562.89282"
           id="tspan4202"
           sodipodi:role="line">DA</tspan></text>
      <text
         sodipodi:linespacing="125%"
         id="text4204"
         y="366.21106"
         x="218.80142"
         style="font-style:normal;font-variant:normal;font-weight:bold;font-stretch:normal;font-size:108.30440521px;line-height:125%;font-family:'Super Mario 256';-inkscape-font-specification:'Super Mario 256 Bold';letter-spacing:0px;word-spacing:0px;fill:#000000;fill-opacity:1;stroke:#ff6600;stroke-width:5.48281084;stroke-linecap:butt;stroke-linejoin:miter;stroke-opacity:0.80784315;stroke-miterlimit:4;stroke-dasharray:none"
         xml:space="preserve"><tspan
           y="366.21106"
           x="218.80142"
           id="tspan4206"
           sodipodi:role="line">RISADA</tspan></text>
    </g>
    <path
       style="fill:#000000"
       d="m 429.41759,1588.127 0,-236.5 239.99998,0 240,0 0,236.5 0,236.5 -240,0 -239.99998,0 0,-236.5 z m 289.96528,210.5589 c 3.0441,-3.2676 6.8847,-6.4636 8.5347,-7.1022 2.8006,-1.0838 2.8729,-1.2373 1.0878,-2.3089 -5.1961,-3.119 -5.8684,-4.5632 -5.3177,-11.4232 0.4725,-5.8873 0.2947,-6.7508 -1.8278,-8.8733 -1.5778,-1.5777 -3.5094,-2.3513 -5.8711,-2.3513 -5.3466,0 -6.3439,2.8595 -6.9662,19.9736 -0.7386,20.3104 0.9082,22.2314 10.3603,12.0853 z m -135.9453,-6.5589 c 5.8455,-14.2435 7.5104,-28.4256 7.161,-61 -0.095,-8.8178 0.3446,-14.5051 1.2934,-16.75 0.9209,-2.1791 3.8509,-2.2679 5.5924,-0.1696 0.773,0.9315 2.2735,1.3965 3.6541,1.1326 1.609,-0.3076 2.9072,0.27 4.1455,1.8442 1.5659,1.9907 2.1153,2.1363 4.1792,1.1074 3.0222,-1.5067 12.9086,-13.6176 12.9347,-15.8451 0.011,-0.9734 0.9664,-1.8149 2.2697,-2 2.4559,-0.3488 2.4746,-0.5071 1.2165,-10.3195 -0.4231,-3.3 -1.2636,-6.3306 -1.8679,-6.7347 -0.7751,-0.5184 -0.7796,-0.7392 -0.015,-0.75 0.5959,-0.01 1.0874,-0.5778 1.0924,-1.2653 0.01,-0.6875 0.334,-5.3514 0.7311,-10.3642 0.6024,-7.603 0.4627,-9.3735 -0.8424,-10.6785 -1.7769,-1.777 -2.2681,-13.7073 -0.5644,-13.7073 0.55,0 1,-0.675 1,-1.5 0,-0.825 0.5051,-1.5 1.1225,-1.5 0.7845,0 0.8101,-0.3763 0.085,-1.25 -1.0257,-1.2359 -1.2075,-1.8004 -1.2075,-3.75 0,-0.55 -0.5062,-0.8875 -1.125,-0.75 -2.3885,0.5308 -1.823,-2.0462 0.5815,-2.6497 2.3,-0.5773 3.1582,-2.2784 2.573,-5.1003 -0.1141,-0.55 -0.405,-2.9941 -0.6465,-5.4313 -0.2415,-2.4373 -0.9676,-5.0682 -1.6135,-5.8465 -0.646,-0.7783 -1.33,-3.5092 -1.5202,-6.0687 -0.1901,-2.5594 -0.774,-4.8035 -1.2975,-4.9869 -1.2674,-0.4438 -1.226,-3.1666 0.048,-3.1666 0.5641,0 1,-2.8334 1,-6.5 0,-3.575 0.4221,-6.5 0.9379,-6.5 0.5158,0 0.9142,-1.0125 0.8854,-2.25 -0.069,-2.9647 -1.9068,-6.8164 -2.9459,-6.1742 -0.4516,0.2791 -0.6619,-1.8738 -0.4673,-4.7842 0.1946,-2.9104 0.407,-7.172 0.4719,-9.4702 0.065,-2.2982 0.7716,-4.8321 1.5704,-5.6309 0.7988,-0.7989 1.1654,-1.7394 0.8147,-2.0901 -1.7658,-1.7658 -3.2386,-8.9229 -3.252,-15.8034 -0.01,-4.2366 -0.5723,-8.9259 -1.2533,-10.4206 -0.9843,-2.1603 -0.9843,-2.8022 0,-3.1303 0.8373,-0.2792 1.2382,-2.8372 1.2382,-7.9009 0,-5.3247 0.4337,-7.9217 1.5009,-8.989 0.8255,-0.8255 1.2843,-2.4808 1.0194,-3.6786 -0.2648,-1.1977 -0.6962,-5.2093 -0.9587,-8.9146 -0.2625,-3.7054 -0.9717,-7.6608 -1.5759,-8.7898 -0.6634,-1.2396 -1.0028,-6.6914 -0.8567,-13.763 0.133,-6.4406 0.07,-14.6352 -0.1395,-18.2102 -0.5987,-10.2072 -0.4369,-19.9277 0.4507,-27.0759 0.5842,-4.7048 0.4634,-7.2359 -0.4247,-8.8952 -0.6826,-1.2755 -1.4307,-4.3481 -1.6624,-6.828 -0.3591,-3.844 -1.0796,-5.0883 -4.8871,-8.4398 -2.4563,-2.1621 -4.466,-4.4796 -4.466,-5.1499 0,-0.6704 1.6145,-2.7697 3.5877,-4.6651 5.5836,-5.3635 7.4562,-9.7798 6.7337,-15.8809 -0.7611,-6.4263 -2.2718,-7.4021 -9.3736,-6.0553 -2.8714,0.5445 -5.6093,0.9901 -6.0843,0.9901 -1.1761,0 -1.0986,-3.7367 0.093,-4.473 0.526,-0.3251 0.7557,-1.1392 0.5105,-1.8091 -0.8795,-2.403 3.4082,-5.7179 7.3961,-5.7179 2.6318,0 5.4061,-2.8566 4.6608,-4.799 -0.3253,-0.8476 -0.014,-1.9467 0.6925,-2.4424 3.0232,-2.1222 -16.7923,1.895 -29.1885,5.9174 -5.88,1.908 -17.1341,6.6258 -24.1176,10.1102 -4.9812,2.4854 -5.4204,2.9476 -4.0326,4.244 1.407,1.3143 1.3946,1.4863 -0.1286,1.7796 -0.9273,0.1786 -2.4877,-0.1276 -3.4674,-0.6805 -2.0109,-1.1347 -9.7328,2.7579 -20.7532,10.4617 -8.71045,6.0891 -8.78144,6.2117 -8.1704,14.1125 2.1224,27.4411 2.3997,34.116 1.5549,37.4283 -0.5931,2.3256 -0.5376,6.4614 0.1544,11.5 0.5942,4.3275 1.034,11.0182 0.9771,14.8682 -0.08,5.4031 0.3562,7.7414 1.9114,10.25 1.1082,1.7875 2.4716,3.25 3.0296,3.25 0.5581,0 1.0147,0.8279 1.0147,1.8399 0,1.2881 1.2746,2.2412 4.25,3.1777 2.3375,0.7358 4.9642,1.9362 5.8371,2.6676 1.015,0.8505 2.7371,1.0999 4.7772,0.6919 2.3224,-0.4645 3.7258,-0.1531 5.1599,1.1447 3.0431,2.754 7.5717,2.1224 10.9855,-1.5322 2.3725,-2.5398 3.3716,-2.9846 5.2127,-2.3207 1.2527,0.4516 4.7526,0.7058 7.7776,0.5647 4.1753,-0.1947 5.8305,-0.7355 6.872,-2.2451 0.7546,-1.0937 2.3908,-1.9885 3.6361,-1.9885 1.5868,0 2.7413,-1.0058 3.8595,-3.3623 0.8776,-1.8492 2.2788,-3.9293 3.114,-4.6224 1.831,-1.5196 2.0178,-5.0131 0.2684,-5.0209 -0.6875,-0 -2.9639,-0.4815 -5.0586,-1.0632 -3.5005,-0.9721 -3.7837,-1.3154 -3.5,-4.2444 0.3045,-3.1438 0.3761,-3.1844 5.3086,-3.0093 10.4128,0.3696 11.9531,0.7222 12.3292,2.8225 0.1969,1.1 1.9117,3.6152 3.8105,5.5893 3.0398,3.1603 3.2676,3.7427 1.9064,4.8725 -0.9353,0.7762 -1.5486,2.9135 -1.5524,5.4106 0,3.5436 -0.4338,4.3709 -3.0278,5.847 -1.9193,1.0923 -4.0803,1.5077 -5.9241,1.1389 -2.5428,-0.5085 -3.2521,-0.078 -5.7222,3.4752 -3.7706,5.4237 -9.4093,7.588 -18.8421,7.2321 -3.2501,-0.1227 -6.7584,0.5545 -9.9414,1.9189 l -4.9189,2.1085 -2.7867,-2.0603 -2.7867,-2.0602 -6.9023,6.7637 c -7.2789,7.1327 -9.1415,9.8218 -9.1415,13.198 0,4.2175 4.69,0.8661 5.6741,-4.0548 0.7212,-3.6057 1.7932,-3.6401 4.0391,-0.1294 0.9676,1.5125 2.2826,3.2 2.9221,3.75 0.6395,0.55 1.4582,1.9955 1.8192,3.2123 0.6546,2.2064 -0.055,3.1645 -4.9529,6.6869 -1.0991,0.7905 -1.6636,1.7721 -1.2544,2.1813 1.2405,1.2405 9.9615,0.5146 14.881,-1.2386 5.443,-1.9398 7.5702,-1.3921 8.4667,2.1801 0.5387,2.1461 0.013,3.1951 -2.9702,5.9276 -1.9936,1.8261 -3.6247,3.8206 -3.6247,4.4324 0,1.4293 -6.9218,9.118 -8.2086,9.118 -0.5367,0 -2.042,0.8386 -3.345,1.8635 -2.1736,1.7097 -2.8029,1.751 -7.6257,0.5 -11.0277,-2.8606 -14.0926,-1.4246 -15.2317,7.1365 -2.6247,19.7265 -3.3861,39.2943 -1.6998,43.6849 0.489,1.2733 2.064,3.5758 3.5,5.1166 3.16,3.3908 3.1975,3.986 0.4822,7.6585 -2.3454,3.1725 -1.9746,8.04 0.6125,8.04 0.7952,0 1.9515,0.9449 2.5695,2.0997 1.7418,3.2546 2.4225,31.2667 0.9331,38.4003 -1.4894,7.1337 -1.4808,8.0793 0.1507,16.5 0.6926,3.575 1.1222,10.1 0.9546,14.5 -0.4651,12.2141 -0.3834,16.5315 0.4203,22.2255 0.4341,3.0748 0.2916,6.9971 -0.3461,9.5297 -0.8552,3.3963 -0.7722,5.2088 0.3936,8.5925 0.8126,2.3585 1.7359,7.5202 2.0518,11.4703 0.72,9.0018 -0.1702,10.2995 -7.6114,11.0964 -3.025,0.324 -6.4,0.723 -7.49997,0.8867 -2.8864,0.4295 -7.98497,-1.3834 -6.48961,-2.3075 0.87149,-0.5387 0.89481,-0.9342 0.0846,-1.4349 -0.69813,-0.4315 -1.35311,0.4817 -1.74273,2.4298 -0.41597,2.0799 -1.07927,2.9465 -1.98825,2.5977 -2.5507,-0.9788 -1.37295,0.1298 6.38596,6.011 4.2625,3.231 7.975,6.1214 8.25,6.4232 2.2314,2.4489 17.7541,11.5751 30,17.638 13.0522,6.4619 18.4174,8.4576 18.8236,7.0016 0.178,-0.638 1.6164,-4.31 3.1964,-8.16 z m -24.0333,-36.0161 c -0.8636,-1.0406 -1.0583,-3.2172 -0.6208,-6.94 0.384,-3.2669 0.2377,-5.6709 -0.3678,-6.0451 -1.3228,-0.8176 -0.5351,-22.6268 0.9151,-25.3365 1.3713,-2.5623 1.3642,-12.2654 -0.013,-18.1623 -1.2271,-5.2532 -1.2516,-58.0969 -0.03,-64.5 0.1049,-0.55 0.6925,-0.1356 1.3057,0.9209 1.638,2.8222 2.8973,40.0337 1.4349,42.4 -0.3851,0.6231 -0.2483,2.8308 0.3039,4.906 0.5523,2.0752 1.0213,11.4231 1.0424,20.7731 0.021,9.35 0.4893,18.572 1.0406,20.4934 0.5513,1.9213 1.0024,4.7338 1.0024,6.25 0,1.5161 0.399,2.7566 0.8865,2.7566 0.9796,0 1.5203,-2.1257 3.1797,-12.5 0.6159,-3.85 1.6155,-9.475 2.2214,-12.5 l 1.1016,-5.5 0.7157,6.5 c 0.3936,3.575 1.1824,7.7045 1.7528,9.1767 1.6537,4.2681 1.3816,23.3798 -0.3533,24.8197 -2.2952,1.9048 -7.5044,-2.3048 -7.5044,-6.0645 0,-1.6126 -0.372,-2.9319 -0.8268,-2.9319 -0.4547,0 -0.6285,1.3508 -0.3862,3.0019 0.2609,1.7777 -0.2296,4.0247 -1.2029,5.5101 -1.229,1.8757 -1.3838,2.9937 -0.6138,4.4324 3.1271,5.8431 -1.1455,13.1642 -4.9836,8.5395 z m -12.5232,-0.543 c -0.36,-0.5826 -0.3737,-4.0701 -0.03,-7.75 0.3433,-3.68 0.8408,-11.1729 1.1056,-16.651 0.2648,-5.478 0.8761,-10.3547 1.3585,-10.8371 1.6111,-1.6111 2.5989,1.7012 2.7726,9.2972 0.094,4.125 0.6787,11.253 1.2986,15.8401 0.8543,6.3219 0.8439,8.6812 -0.043,9.75 -1.3722,1.6533 -5.5177,1.8783 -6.4618,0.3508 z m 23.5365,-2.8819 c 0,-1.6175 0.4697,-3.2313 1.0438,-3.5861 1.598,-0.9876 3.9562,1.4859 3.9562,4.1495 0,1.8694 -0.5343,2.3776 -2.5,2.3776 -2.0999,0 -2.5,-0.4706 -2.5,-2.941 z m 8.7441,2.3517 c -1.1924,-1.1924 1.2598,-4.4107 3.3607,-4.4107 1.5377,0 1.9563,0.5493 1.7148,2.25 -0.3119,2.1957 -3.6286,3.6077 -5.0755,2.1607 z m 0.7559,-13.9893 c -1.7834,-0.7504 -0.9928,-19.0021 1.0161,-23.457 0.9832,-2.1804 2.1578,-3.9644 2.6101,-3.9644 0.4524,0 1.6215,1.4625 2.5981,3.25 2.3871,4.3689 2.5951,22.3054 0.2757,23.7713 -1.5274,0.9654 -4.6932,1.1602 -6.5,0.4001 z m -32.6232,-31.1714 c -0.068,-1.5125 -0.065,-12.65 0.01,-24.75 0.078,-13.1422 -0.3232,-24.0413 -0.9956,-27.0699 -0.9605,-4.326 -0.8723,-5.5598 0.6009,-8.4086 1.4572,-2.8179 1.5411,-3.9008 0.5376,-6.9412 -1.3379,-4.0539 -1.045,-10.6804 0.4593,-10.3901 1.7843,0.3444 3.7761,10.4397 2.5783,13.0684 -0.7849,1.7228 -0.7515,2.9448 0.1243,4.5485 1.3625,2.4947 1.5596,13.3053 0.4048,22.1929 -0.9665,7.4385 -0.9671,7.6528 -0.057,20.5703 0.8614,12.2249 0.051,19.9297 -2.0975,19.9297 -0.873,0 -1.4871,-1.0814 -1.5619,-2.75 z m 45.9709,0.2 c -0.084,-0.5225 -0.2283,-1.4 -0.3213,-1.95 -1.8257,-10.8037 -1.513,-25.5 0.5425,-25.5 1.5477,0 2.3111,5.158 2.3298,15.7416 0.012,6.6939 -0.4006,10.6603 -1.1903,11.45 -0.6646,0.6646 -1.2769,0.7809 -1.3607,0.2584 z m -9.625,-8.2814 c -1.8603,-5.2726 -2.6706,-13.1686 -1.3515,-13.1686 0.6209,0 1.1288,1.1408 1.1288,2.5352 0,1.3943 0.7361,3.6585 1.6357,5.0314 1.2609,1.9244 1.421,3.2337 0.699,5.7149 l -0.9366,3.2185 -1.1754,-3.3314 z m 38.077,-25.1686 c 0,-3.025 0.1875,-4.2625 0.4166,-2.75 0.2291,1.5125 0.2291,3.9875 0,5.5 -0.2291,1.5125 -0.4166,0.275 -0.4166,-2.75 z m -51.6829,2.4437 c -0.8535,-2.2243 -0.6367,-24.947 0.2906,-30.4437 l 0.7591,-4.5 1.1668,2.8151 c 1.756,4.2368 1.5776,31.099 -0.2165,32.588 -1.0706,0.8885 -1.5226,0.7847 -2,-0.4594 z m 10.9171,-11.925 c -0.7687,-8.2036 10e-4,-13.8418 1.8072,-13.2358 0.6374,0.2138 1.0999,1.4752 1.0279,2.8029 -0.072,1.3278 -0.1846,5.9017 -0.25,10.1642 -0.065,4.2625 -0.5161,7.75 -1.0015,7.75 -0.4854,0 -1.198,-3.3666 -1.5836,-7.4813 z m -33.84,-50.1582 c -0.799,-0.7989 0.1042,-2.3605 1.3651,-2.3605 0.5176,0 0.941,0.675 0.941,1.5 0,1.5464 -1.1799,1.9867 -2.3061,0.8605 z m 30.8185,-93.9417 c -1.3571,-1.4643 -2.7597,-4.2201 -3.1169,-6.124 -0.5109,-2.7235 -1.0409,-3.3593 -2.4857,-2.9815 -2.7854,0.7284 -4.6439,-2.0078 -2.6905,-3.9611 1.2622,-1.2623 1.9608,-1.3262 3.7906,-0.347 1.6673,0.8924 2.8644,0.9174 4.6637,0.098 1.3313,-0.6065 3.2152,-1.1028 4.1864,-1.1028 0.9712,0 3.0592,-1.35 4.64,-3 3.2295,-3.3709 5.9555,-3.8613 6.9569,-1.2517 0.4668,1.2164 -0.2611,2.581 -2.393,4.4859 -1.6851,1.5056 -3.0639,3.3617 -3.0639,4.1245 0,2.7033 -4.1106,10.6301 -6.051,11.6686 -1.6138,0.8636 -2.4146,0.5733 -4.4366,-1.6085 z m 16.4876,-123.9778 c 0,-0.8575 0.45,-1.2809 1,-0.941 0.55,0.3399 1,1.0415 1,1.559 0,0.5175 -0.45,0.941 -1,0.941 -0.55,0 -1,-0.7016 -1,-1.559 z m -62.7562,-0.1892 c -0.6909,-0.2325 -1.0019,-0.8342 -0.691,-1.3372 0.7233,-1.1704 4.1588,-1.1903 4.877,-0.028 0.633,1.0242 -2.3288,1.9903 -4.186,1.3655 z m 50.7726,-3.8915 c -1.7254,-1.4518 -2.7724,-2.9812 -2.3267,-3.3988 0.4457,-0.4175 3.5726,-1.068 6.9486,-1.4455 6.9001,-0.7717 7.8752,-0.1305 6.8564,4.5084 -0.5868,2.6713 -1.0466,2.9756 -4.4974,2.9756 -2.6954,0 -4.7811,-0.7887 -6.9809,-2.6397 z m -73.51101,361.6484 c -0.33697,-0.5453 -0.55379,-9.8828 -0.48182,-20.75 0.27364,-41.3195 -0.0529,-59.4897 -1.14728,-63.8358 -0.84518,-3.3565 -0.8319,-5.9711 0.0532,-10.4699 0.80492,-4.0913 0.95864,-11.0257 0.48391,-21.8283 -0.53698,-12.2189 -0.40981,-16.0089 0.55723,-16.6066 1.78059,-1.1004 2.83972,1.0898 3.61383,7.4733 0.36741,3.0297 0.9051,6.4086 1.19487,7.5086 0.28977,1.1 0.68307,11.45 0.87401,23 0.19094,11.55 0.38404,21.9 0.42912,23 0.0451,1.1 -0.33221,4.6059 -0.83842,7.791 -0.50621,3.185 -0.59421,5.9925 -0.19556,6.2389 0.39865,0.2464 1.02649,2.056 1.3952,4.0214 0.84773,4.5188 3.88143,4.4775 4.39484,-0.06 0.39919,-3.528 1.96545,-5.7307 3.43089,-4.825 0.70211,0.4339 0.79737,-0.6314 0.2916,-3.261 -0.41314,-2.148 -1.08272,-6.0822 -1.48796,-8.7426 -0.40524,-2.6604 -1.32513,-5.2007 -2.04419,-5.6451 -1.00886,-0.6235 -1.12138,-2.4873 -0.49278,-8.1629 0.8007,-7.2294 1.04299,-20.4834 0.51833,-28.3549 -0.14663,-2.2 0.19856,-8.0015 0.76711,-12.8922 1.72269,-14.8187 -1.81088,-20.7465 -7.60179,-12.7524 l -2.88454,3.982 -1.66758,-2.823 c -0.91717,-1.5526 -1.67447,-3.8785 -1.68289,-5.1687 -0.008,-1.2901 -0.42413,-2.9917 -0.92379,-3.7814 -1.18796,-1.8774 -3.32059,-0.1973 -6.85355,5.3993 -2.47347,3.9182 -2.49642,4.1337 -1.22638,11.5147 0.88725,5.1564 1.40305,21.7915 1.64023,52.8995 0.19812,25.9845 0.74398,45.8574 1.27725,46.5 1.25323,1.5102 -1.47357,7.9305 -3.13323,7.3773 -0.6919,-0.2306 -1.58304,-2.1824 -1.98032,-4.3372 -0.39728,-2.1548 -0.91238,-30.2964 -1.14467,-62.5368 -0.36295,-50.3762 -0.63716,-58.9537 -1.95005,-61 -0.84023,-1.3095 -1.67676,-3.731 -1.85894,-5.381 l -0.33124,-3 5.22438,0.2774 c 4.34317,0.2307 5.43795,-0.064 6.49055,-1.75 1.43026,-2.2902 3.78507,-2.7182 3.78507,-0.6879 0,1.4805 4.09306,3.6605 6.87274,3.6605 0.97825,0 2.77174,-1.0571 3.98555,-2.3492 1.86871,-1.9891 2.04533,-2.7741 1.15251,-5.1224 -1.16898,-3.0747 -2.0425,-7.9629 -2.50689,-14.0284 -0.16843,-2.2 -0.35072,-4.2751 -0.40508,-4.6114 -0.24944,-1.5429 -5.37565,0.6248 -6.30597,2.6666 -0.57409,1.26 -2.08841,2.5531 -3.36517,2.8736 -1.27675,0.3204 -3.11731,1.93 -4.09013,3.5769 -0.97283,1.6468 -2.52167,2.9943 -3.44188,2.9943 -1.11096,0 -1.88738,1.1422 -2.31085,3.3995 -0.35077,1.8697 -1.29339,3.9436 -2.09472,4.6087 -2.82863,2.3475 -3.49011,-3.4203 -3.49011,-30.4324 l 0,-26.294 2.98733,-5.8909 c 1.64304,-3.24 2.99304,-6.6784 3,-7.6409 0.0157,-2.1651 2.81169,-2.2795 5.7312,-0.2346 3.00372,2.1039 4.0596,9.3674 1.85159,12.7372 -1.24633,1.9022 -1.39063,3.0893 -0.62144,5.1124 1.15105,3.0275 1.17763,3.0323 8.06043,1.4435 5.0455,-1.1646 5.14813,-1.2603 4.55959,-4.25 -0.33115,-1.6822 -0.52463,-3.7335 -0.42994,-4.5585 0.0947,-0.825 0.28167,-7.575 0.41552,-15 0.13385,-7.425 0.71207,-15.75 1.28493,-18.5 0.57286,-2.75 1.06839,-6.9191 1.10118,-9.2647 0.0526,-3.7669 -0.31975,-4.496 -3.19039,-6.2463 -1.7875,-1.0898 -4.9375,-1.9832 -7,-1.9853 -2.0625,-0 -3.75,-0.4537 -3.75,-1.0037 0,-0.55 -1.9125,-1.0029 -4.25,-1.0063 -3.69603,-0 -4.47811,-0.4071 -6,-3.0811 -0.9625,-1.6911 -1.75678,-4.0507 -1.76506,-5.2437 -0.008,-1.1929 -0.61108,-3.8806 -1.33956,-5.9727 -1.08966,-3.1293 -1.09544,-4.6868 -0.0326,-8.7841 0.94879,-3.6577 1.04984,-7.1025 0.38051,-12.9712 -0.50125,-4.3949 -0.63274,-8.7671 -0.29219,-9.7158 0.97297,-2.7108 -4.20459,2.3358 -9.51555,9.2749 -2.52573,3.3 -4.8474,6.225 -5.15927,6.5 -0.31187,0.275 -3.69714,5.225 -7.52283,11 -6.64402,10.0293 -17.63088,30.573 -20.32259,38 -3.80587,10.5011 -9.40613,28.2329 -9.7908,31 -0.11469,0.825 -0.95507,5.1 -1.8675,9.5 -5.74313,27.6949 -5.78883,65.2511 -0.11195,92 0.81708,3.85 1.68617,8.1382 1.9313,9.5295 0.54561,3.0965 2.60836,10.7518 3.62966,13.4705 0.41323,1.1 1.29342,3.8 1.95599,6 0.66257,2.2 1.58105,4.9 2.04108,6 0.46002,1.1 1.87402,4.7 3.14221,8 2.44176,6.3538 7.56983,16.451 14.22031,28 9.5683,16.6159 32.66887,45.0809 32.66887,40.2552 0,-2.3129 1.61691,-3.0306 3.97933,-1.7663 1.53194,0.8199 2.02067,2.0907 2.02067,5.2541 0,3.4629 0.62985,4.8177 3.70295,7.9648 3.65722,3.7453 4.99529,4.731 3.80242,2.8009 z m 20.31051,-2.8738 c 1.531,-0.9708 3.3683,-12.473 2.071,-12.9656 -0.479,-0.1819 -0.4951,-1.0819 -0.036,-2 0.4593,-0.9181 0.5005,-2.7943 0.092,-4.1693 -0.4239,-1.4258 -0.7862,-1.7901 -0.843,-0.8479 -0.055,0.9087 -1.4047,2.1072 -2.99972,2.6632 -2.67522,0.9326 -2.94268,0.8045 -3.45023,-1.6522 -0.3968,-1.9206 0.0244,-3.151 1.51082,-4.4131 1.67556,-1.4227 1.75976,-1.75 0.45023,-1.75 -0.88593,0 -1.61078,-0.7016 -1.61078,-1.559 0,-0.8575 -0.45,-1.2809 -1,-0.941 -1.11301,0.6879 -1.2219,-7.5043 -0.15032,-11.309 0.94196,-3.3445 2.59532,-3.1755 2.99055,0.3057 0.18713,1.6482 0.86213,3.3288 1.50005,3.7347 0.8527,0.5426 0.8288,0.742 -0.09,0.7533 -0.68755,0.01 -1.25005,0.9153 -1.25005,2.0153 0,1.1 0.61612,2 1.36915,2 1.5051,0 2.6022,-4.9338 2.6198,-11.7814 0.01,-2.8755 0.5036,-4.4704 1.5111,-4.857 3.2864,-1.2611 -0.1116,-8.3616 -4.0016,-8.3616 -1.75521,0 -2.37071,0.6763 -2.7082,2.9757 -0.3377,2.301 -0.15248,2.7399 0.81676,1.9355 0.91343,-0.7581 1.54374,-0.4981 2.32324,0.9585 1.6347,3.0545 1.2982,3.9792 -1.3424,3.6894 -1.80202,-0.1978 -2.26491,0.1189 -1.83006,1.2521 0.40344,1.0513 0.1887,1.2737 -0.69965,0.7247 -0.72519,-0.4482 -1.59358,-0.2876 -1.99989,0.3698 -1.04749,1.6949 -4.05825,0.2017 -4.05825,-2.0127 0,-1.2291 -0.70451,-1.893 -2.00874,-1.893 -1.8193,0 -1.96214,0.4951 -1.51471,5.25 0.27172,2.8875 0.71317,9.4353 0.98101,14.5506 0.26784,5.1153 0.77721,9.7702 1.13193,10.3442 0.35472,0.5739 1.71434,0.8391 3.02138,0.5892 3.76962,-0.7206 4.93219,1.5695 3.32396,6.5477 -1.68104,5.2036 -1.80352,6.7363 -0.71665,8.9683 0.89482,1.8375 4.36204,2.3026 6.59767,0.8849 z m 299.3117,-8.8849 c 1.2439,-1.5861 1.2085,-1.6215 -0.3776,-0.3776 -1.6657,1.3064 -2.1955,2.1276 -1.3724,2.1276 0.2076,0 0.9951,-0.7875 1.75,-1.75 z m 7,-8 c 1.2439,-1.5861 1.2085,-1.6215 -0.3776,-0.3776 -1.6657,1.3064 -2.1955,2.1276 -1.3724,2.1276 0.2076,0 0.9951,-0.7875 1.75,-1.75 z m -235.9109,-11.4334 c -1.5275,-1.5275 -2.6546,-0.4003 -1.8074,1.8075 0.5002,1.3035 0.9339,1.4327 1.8235,0.5431 0.8896,-0.8896 0.8858,-1.4487 -0.016,-2.3506 z m 147.5027,-0.5666 c 0.3612,-0.9625 1.3596,-2.304 2.2187,-2.981 1.379,-1.0868 1.3868,-1.3457 0.067,-2.2105 -1.2862,-0.8426 -1.2163,-1.1917 0.5,-2.4971 2.5341,-1.9276 11.9763,-5.5614 14.4508,-5.5614 3.2045,0 5.0621,-1.1339 6.54,-3.9917 0.7932,-1.5339 3.3618,-3.6612 5.8105,-4.8122 2.4138,-1.1346 6.5204,-4.434 9.1259,-7.3318 4.5198,-5.0272 4.7107,-5.4774 4.1617,-9.8166 -1.7114,-13.5262 -1.7391,-15.6605 -0.2585,-19.927 3.0967,-8.9229 0.5996,-21.1207 -4.3236,-21.1207 -2.5715,0 -2.8094,-0.7004 -1.8971,-5.5839 0.7408,-3.9655 0.5249,-5.0361 -1.7586,-8.7184 -1.4317,-2.3087 -3.4775,-5.1587 -4.5463,-6.3333 -1.5284,-1.6796 -1.7961,-2.9199 -1.2539,-5.8099 0.4879,-2.6008 1.1033,-3.5156 2.1063,-3.1307 0.7793,0.2991 2.1867,0.1673 3.1275,-0.2929 0.9407,-0.4602 3.3979,-1.6487 5.4604,-2.6413 2.191,-1.0543 3.75,-2.5232 3.75,-3.533 0,-2.3273 -6.9517,-8.9566 -9.3921,-8.9566 -1.0727,0 -2.7748,-0.7461 -3.7824,-1.658 -1.0076,-0.9118 -3.4811,-1.926 -5.4966,-2.2536 -2.0155,-0.3276 -3.8483,-1.269 -4.0729,-2.092 -0.3613,-1.3244 -0.2758,-1.324 0.744,0 0.7504,0.9768 1.3123,1.1147 1.611,0.3953 0.5625,-1.3544 5.389,-0.5696 5.389,0.8762 0,0.5712 0.7875,0.3777 1.75,-0.43 0.9625,-0.8076 2.425,-1.4233 3.25,-1.3682 0.825,0.055 3.3979,-0.4529 5.7176,-1.129 2.3196,-0.676 5.7499,-0.9805 7.6228,-0.6765 2.0032,0.3251 3.6879,0.095 4.0915,-0.5576 0.3774,-0.6106 1.3975,-1.1102 2.2669,-1.1102 0.8694,0 2.0803,-0.6713 2.691,-1.4918 0.6692,-0.8992 3.0966,-1.5944 6.1102,-1.75 l 5,-0.2582 -0.3174,3.6557 c -0.2913,3.3538 -0.068,3.7105 2.7046,4.3195 1.7172,0.3772 3.2867,1.4973 3.6349,2.5943 0.9017,2.8409 8.442,2.7839 9.1882,-0.069 0.3309,-1.2655 1.364,-2 2.8127,-2 1.8217,0 2.1794,-0.4223 1.7496,-2.0657 -0.838,-3.2047 1.6462,-6.9292 4.6464,-6.9661 2.4768,-0.031 2.5032,-0.091 0.654,-1.4897 -2.6303,-1.9899 -1.3281,-2.9374 2.2992,-1.6729 2.4238,0.8449 3.0854,0.7473 3.5746,-0.5275 0.6829,-1.7796 0.7909,-1.6234 -2.1968,-3.1779 -1.6701,-0.8689 -2.25,-0.8762 -2.25,-0.028 0,0.6282 -0.5625,0.9122 -1.25,0.6311 -0.6875,-0.281 -2.15,-0.8397 -3.25,-1.2415 -2,-0.7304 -2,-0.7304 0,0.8723 1.7419,1.3959 1.7806,1.6068 0.2997,1.6345 -0.9352,0.018 -2.0602,-0.593 -2.5,-1.3567 -0.4398,-0.7637 -1.6997,-1.6115 -2.7997,-1.884 -2,-0.4955 -2,-0.4955 0,-0.6193 1.1,-0.068 2.5202,-1.2453 3.1559,-2.616 1.0603,-2.286 0.9569,-2.4922 -1.25,-2.4922 -1.8996,-3e-4 -2.4059,-0.5264 -2.4059,-2.5003 0,-1.375 -0.4296,-2.5 -0.9547,-2.5 -0.525,0 -1.243,-1.5369 -1.5953,-3.4152 -0.7293,-3.8873 1.0424,-10.0326 3.8071,-13.205 1.0162,-1.1661 1.9189,-3.1911 2.0059,-4.5 0.087,-1.3089 0.8155,-2.8801 1.6187,-3.4915 0.8033,-0.6114 1.584,-1.9532 1.7349,-2.9818 0.151,-1.0286 0.749,-2.0284 1.329,-2.2217 0.5799,-0.1933 1.0544,-0.892 1.0544,-1.5526 0,-0.6605 1.3569,-2.0026 3.0154,-2.9822 2.7786,-1.6414 3.2616,-1.6583 6.1536,-0.2156 3.9633,1.9771 6.831,2.0047 6.831,0.066 0,-0.825 0.675,-1.5 1.5,-1.5 0.825,0 1.5,0.5101 1.5,1.1336 0,1.8549 -5.1775,5.7355 -6.8143,5.1074 -0.9919,-0.3806 -1.263,-0.1751 -0.7863,0.5961 0.4272,0.6913 -0.021,1.4549 -1.086,1.8505 -0.9974,0.3705 -2.5412,1.4923 -3.4307,2.493 -0.8895,1.0007 -2.3254,1.8194 -3.191,1.8194 -0.8655,0 -1.9227,0.5625 -2.3493,1.25 -1.124,1.8113 -1.3081,12.6531 -0.2262,13.3218 0.504,0.3115 0.6977,0.9203 0.4304,1.3528 -0.2673,0.4326 0.6253,0.574 1.9837,0.3144 2.03,-0.3881 2.4697,-0.074 2.4697,1.761 0,1.7418 0.4407,2.118 2.0024,1.7096 1.2376,-0.3236 2.3717,0.1092 2.9696,1.1334 0.5411,0.9269 0.9806,1.1182 0.9976,0.434 0.021,-0.859 2.1135,-1.179 7.0304,-1.0754 5.6313,0.1187 7.0045,0.4556 7.0228,1.723 0.012,0.8665 0.72,0.162 1.5721,-1.5655 1.2832,-2.6016 2.095,-3.1167 4.7272,-3 2.7651,0.1226 3.219,-0.2163 3.4943,-2.6091 0.1741,-1.5125 0.7847,-2.75 1.357,-2.75 0.5723,0 0.7816,-0.675 0.465,-1.5 -0.3166,-0.825 -0.1193,-1.5 0.4383,-1.5 0.6112,0 0.761,-1.3484 0.3771,-3.3947 -0.8098,-4.3167 0.7373,-7.2175 4.2025,-7.8799 3.4107,-0.652 5.1064,-0.021 5.6708,2.1097 0.2604,0.9831 0.4884,0.5997 0.5569,-0.9361 0.2898,-6.4985 -8.0616,-34.3957 -15.053,-50.2831 -17.2926,-39.2962 -50.5327,-77.5516 -88.8338,-102.237 -25.673,-16.5464 -55.942,-28.0439 -83.9972,-31.9056 -2.475,-0.3407 -5.4,-0.8074 -6.5,-1.0371 -1.1,-0.2298 -1.4375,-0.1594 -0.75,0.1563 0.819,0.3762 1.25,2.8903 1.25,7.2908 0,3.6942 0.4798,7.1965 1.0663,7.7829 0.7363,0.7363 0.7811,3.9703 0.1448,10.45 -1.139,11.5993 -0.879,18.3741 0.7821,20.3756 0.8513,1.0257 1.2275,4.6215 1.1403,10.8984 -0.1,7.1886 0.2156,9.6546 1.3563,10.6013 1.189,0.9868 1.5724,0.961 1.9153,-0.1289 0.2358,-0.7494 1.0287,-3.3853 1.7619,-5.8575 1.5305,-5.1608 2.794,-5.6889 14.083,-5.8868 8.2323,-0.1443 10.3229,-1.7821 11.2283,-8.7962 0.8321,-6.4457 1.6783,-7.7671 5.2015,-8.1227 2.4831,-0.2507 3.4221,0.34 5.6492,3.5537 1.469,2.1199 2.671,4.6073 2.671,5.5276 0,3.6036 4.3115,4.9562 13.388,4.2001 l 8.4562,-0.7044 5.148,4.9362 c 2.8314,2.715 6.8039,5.5262 8.8279,6.2472 6.3347,2.2567 17.1583,13.5341 17.1748,17.8949 0,0.7452 1.1301,3.5946 2.5051,6.3322 3.0507,6.0737 3.1441,9.7834 0.3968,15.7474 -1.1568,2.5111 -2.726,5.9157 -3.4873,7.5657 -1.2918,2.8001 -1.2183,3.1467 1.1032,5.202 1.368,1.2111 2.4873,2.4714 2.4873,2.8007 0,0.3292 -3.9375,0.5534 -8.75,0.4982 -12.4411,-0.1427 -49.4404,1.7307 -57.8002,2.9266 -3.8776,0.5547 -9.9717,1.6861 -13.5426,2.5143 -3.5708,0.8281 -9.8482,1.7951 -13.9498,2.149 l -7.4574,0.6433 4.7099,-2.5676 c 5.5453,-3.023 19.3755,-8.6665 21.2386,-8.6665 1.8472,0 10.3513,-3.867 11.0733,-5.0353 0.3326,-0.5381 -0.2332,-2.2128 -1.2573,-3.7215 -2.8929,-4.2621 -4.2645,-8.0306 -4.2645,-11.7175 0,-2.6623 -0.7616,-4.0079 -3.586,-6.336 -3.8561,-3.1786 -10.0151,-4.7657 -12.0239,-3.0985 -0.6801,0.5644 -3.3979,1.5623 -6.0396,2.2175 -4.3088,1.0687 -5.2619,1.8602 -9.2619,7.6913 -4.2213,6.1536 -8.7069,18.1904 -7.5041,20.1366 0.2934,0.4749 2.2804,0.8634 4.4155,0.8634 7.0155,0 6.3493,3.1798 -1.2547,5.9887 -2.69,0.9937 -4.3609,2.2799 -4.594,3.5365 -0.2016,1.0861 -0.8765,2.6015 -1.4998,3.3676 -1.7155,2.1081 -17.3635,9.3094 -19.3827,8.92 -1.6452,-0.3173 -1.7454,-2.0515 -1.4344,-24.827 0.214,-15.6708 -0.088,-27.0059 -0.8395,-31.4858 -0.6456,-3.85 -1.142,-14.2 -1.1033,-23 0.039,-8.8 -0.3485,-19.825 -0.8608,-24.5 -0.5122,-4.675 -1.0411,-14.6875 -1.1753,-22.25 l -0.244,-13.75 -7.5557,6e-4 -7.5558,7e-4 0.1197,11.8547 c 0.066,6.5201 0.5155,15.8573 0.9994,20.7494 0.4838,4.892 0.88,16.3196 0.8803,25.3946 10e-4,39.0389 1.5415,220.7321 1.9792,233.5 0.2639,7.7 0.1442,18.1591 -0.266,23.2424 -0.5294,6.5589 -0.3818,10.2944 0.5084,12.8655 0.6899,1.9927 1.0275,3.99 0.7504,4.4385 -0.2772,0.4484 -0.1315,1.0456 0.3237,1.3269 0.4553,0.2814 3.1093,-1.2153 5.8979,-3.3259 2.7886,-2.1106 5.9642,-4.1212 7.0567,-4.468 2.4458,-0.7763 5.5409,-4.0902 5.9562,-6.3774 1.2504,-6.8866 -0.1575,-56.4462 -1.8207,-64.0878 -0.525,-2.4122 -1.1475,-16.1372 -1.3833,-30.5 -0.2358,-14.3628 -0.7108,-30.8392 -1.0554,-36.6142 -0.3977,-6.6645 -0.2309,-11.5216 0.4565,-13.2967 0.9991,-2.5801 1.3739,-2.7426 4.84,-2.0991 2.0664,0.3836 4.809,1.3822 6.0947,2.2191 2.0224,1.3164 2.2567,2.0715 1.7371,5.5991 -0.3304,2.2427 -0.6613,10.2961 -0.7355,17.8965 l -0.1348,13.819 5.1578,5.2226 c 6.0607,6.1369 7.3747,9.8667 6.4965,18.4403 -0.6388,6.237 0.932,14.1992 2.8013,14.1992 0.462,0 0.8399,-0.3975 0.8399,-0.8834 0,-1.2717 3.5458,-2.0154 5.0822,-1.0659 0.9129,0.5643 1.4325,4.4227 1.7339,12.8775 0.2368,6.6395 0.7725,12.0718 1.1905,12.0718 1.1377,0 2.2724,4.0877 2.1054,7.5849 -0.098,2.0554 0.693,3.9916 2.3704,5.8015 1.6024,1.7291 2.5176,3.8828 2.5176,5.9246 0,2.1249 0.6752,3.6296 2,4.4569 2.6687,1.6666 2.6314,7.0741 -0.085,12.3995 -3.2666,6.4032 -3.5611,13.3631 -0.9075,21.4487 1.2425,3.7861 2.7085,7.4514 3.2577,8.145 0.5492,0.6936 1.7726,2.7186 2.7186,4.5 0.9459,1.7814 4.2894,5.2043 7.43,7.6064 3.1405,2.4022 6.7735,6.0524 8.0734,8.1115 1.4838,2.3504 3.8194,4.3264 6.2753,5.3091 2.1515,0.8608 4.6706,2.7232 5.5979,4.1385 1.967,3.002 3.4377,3.2798 4.3595,0.8234 z m -7.8463,-136.9544 c -6.1731,-0.951 -8.774,-7.719 -5.4424,-14.1617 0.8631,-1.669 1.571,-3.8445 1.5731,-4.8343 0,-0.9898 0.876,-3.2302 1.9421,-4.9786 1.6851,-2.7637 2.3016,-3.0819 4.7184,-2.4355 2.0757,0.5551 2.9449,1.549 3.4304,3.9228 0.3576,1.7487 1.0786,3.7446 1.6023,4.4355 1.6305,2.1514 6.303,13.7939 6.303,15.7055 0,2.7276 -5.6072,3.6589 -14.1269,2.3463 z m 24.6269,-9.2554 c -1.1,-0.4345 -2.3039,-0.6155 -2.6754,-0.4022 -0.3714,0.2133 -1.2414,-2.1414 -1.9332,-5.2326 -1.2236,-5.468 -1.1918,-5.6712 1.1754,-7.4907 1.3383,-1.0286 3.1082,-1.8946 3.9332,-1.9243 0.825,-0.03 2.3735,-0.7147 3.4412,-1.5222 2.8664,-2.1681 6.1453,-1.7909 8.9679,1.0318 1.5722,1.5721 3.6303,2.5 5.5455,2.5 1.7426,0 3.0672,0.5347 3.0962,1.25 0.028,0.6875 0.2928,3.1439 0.5885,5.4587 0.6113,4.785 0.4204,4.8963 -9.6393,5.6225 -3.025,0.2184 -6.625,0.6449 -8,0.948 -1.375,0.303 -3.4,0.1955 -4.5,-0.239 z m 64,-7.0402 c 0.3399,-0.55 0.8165,-1 1.059,-1 0.2426,0 0.441,0.45 0.441,1 0,0.55 -0.4765,1 -1.059,1 -0.5825,0 -0.7809,-0.45 -0.441,-1 z m 30.25,-41.798 c -0.9625,-0.1918 -1.75,-0.6657 -1.75,-1.0531 0,-1.1003 3.8827,-4.1507 5.2615,-4.1336 0.9042,0.011 0.9283,0.2136 0.089,0.75 -0.6321,0.4041 -1.3071,1.6461 -1.5,2.76 -0.2269,1.3093 -0.9695,1.902 -2.1009,1.6767 z m 0.25,-11.202 c 0,-0.55 -0.7875,-1.0317 -1.75,-1.0703 -1.4964,-0.06 -1.4602,-0.1948 0.25,-0.9297 1.8149,-0.7799 1.8303,-0.866 0.1667,-0.9297 -3.0599,-0.1173 -1.2351,-2.521 2.4155,-3.1817 1.8798,-0.3402 4.2834,-0.9825 5.3414,-1.4272 1.5454,-0.6496 1.7974,-0.4796 1.2814,0.865 -0.3532,0.9205 -0.1742,1.6736 0.3978,1.6736 1.3166,0 -2.0482,3.4282 -3.5153,3.5816 -0.5981,0.063 -1.6765,0.1823 -2.3965,0.2661 -0.72,0.084 -1.0309,0.6023 -0.691,1.1523 0.3399,0.55 0.1415,1 -0.441,1 -0.5824,0 -1.059,-0.45 -1.059,-1 z m -31.2524,-31.2155 c -0.2744,-0.715 -2.7621,-2.1138 -5.5282,-3.1085 -2.7661,-0.9947 -5.7924,-2.6517 -6.725,-3.6822 -1.6275,-1.7984 -1.568,-1.8575 1.4829,-1.4714 5.4279,0.687 14.2211,5.2104 13.8499,7.1247 -0.4118,2.1235 -2.417,2.8641 -3.0796,1.1374 z m 50.1586,181.7367 c 1.1631,-3.1087 1.6723,-5.3787 1.1315,-5.0445 -0.5408,0.3343 -1.4529,2.2762 -2.0267,4.3155 -1.44,5.1171 -3.5927,7.7872 -5.2297,6.4866 -0.7047,-0.5599 -3.0813,-1.3165 -5.2813,-1.6813 l -4,-0.6632 2.5,2.0106 c 1.375,1.1058 3.2698,2.0206 4.2106,2.0328 0.9408,0.012 2.278,0.6297 2.9716,1.3722 1.4754,1.5794 2.3134,0.2869 5.724,-8.8287 z m -179.5549,-6.3569 c 1.1842,-1.3085 1.5973,-2.7511 1.1717,-4.0919 -0.5142,-1.62 -0.085,-2.2883 1.9701,-3.0698 1.445,-0.5494 2.3365,-1.4694 1.981,-2.0446 -0.3554,-0.5751 -0.1257,-1.6729 0.5106,-2.4396 0.9238,-1.1131 0.5666,-1.6991 -1.7731,-2.909 -2.7111,-1.402 -4.3696,-4.1234 -5.5516,-9.1094 -0.2607,-1.1 -0.7993,-3.35 -1.1968,-5 l -0.7226,-3 -0.8595,3 c -1.1899,4.1531 -2.3187,26.6201 -1.5012,29.8775 0.5405,2.1533 1.0036,2.4876 2.4059,1.7371 0.9551,-0.5111 2.5596,-1.8388 3.5655,-2.9503 z m 186.9611,-17.6643 c 0.3974,-2.5774 -0.253,-1.3326 -1.8288,3.5 -1.3451,4.125 -2.4213,8.175 -2.3916,9 0.081,2.2539 3.5122,-7.9077 4.2204,-12.5 z m 4.1304,-19 c 3.8784,-23.8114 4.4936,-43.8635 2.0282,-66.1004 -1.6691,-15.0542 -2.9312,-19.4825 -2.026,-7.1084 0.546,7.464 0.4789,7.7863 -1.8391,8.8425 -1.3232,0.6029 -3.1822,2.8179 -4.1311,4.9223 -0.949,2.1044 -2.3508,4.0661 -3.1151,4.3594 -1.5141,0.5811 -3.4364,4.6281 -4.0775,8.5846 -0.2228,1.375 -0.8274,2.65 -1.3436,2.8333 -1.6198,0.5753 -1.0264,3.0069 1.2515,5.1292 1.4667,1.3664 2.4164,1.6743 2.875,0.9321 0.486,-0.7862 0.8784,-0.7951 1.351,-0.03 0.3664,0.5928 2.8941,1.3734 5.6172,1.7346 l 4.9511,0.6568 -0.4259,13.173 c -0.2448,7.5728 -1.3043,17.5549 -2.4922,23.4803 -2.1058,10.5044 -2.6211,16.007 -0.9919,10.5911 0.4964,-1.65 1.5621,-7.05 2.3684,-12 z m -79.4428,-7.059 c 0,-0.8575 -0.4573,-1.2764 -1.0163,-0.9309 -0.559,0.3454 -0.7574,1.047 -0.441,1.559 0.8573,1.387 1.4573,1.1284 1.4573,-0.6281 z m 18,-2.1077 c 0,-4.2848 -0.9428,-3.936 -1.5117,0.5592 -0.2163,1.7091 0.035,3.1075 0.5592,3.1075 0.5239,0 0.9525,-1.65 0.9525,-3.6667 z m -16,-1.3333 c 0,-0.55 -0.45,-1 -1,-1 -0.55,0 -1,0.45 -1,1 0,0.55 0.45,1 1,1 0.55,0 1,-0.45 1,-1 z m -1.5818,-3.607 c 1.844,-0.7076 2.1462,-3.393 0.3818,-3.393 -0.9333,0 -0.9333,-0.2667 0,-1.2 1.7357,-1.7357 1.476,-2.8 -0.6834,-2.8 -1.2149,0 -2.0531,0.8874 -2.3613,2.5 -0.2629,1.375 -0.035,2.5 0.5058,2.5 0.5411,0 0.4236,0.675 -0.2611,1.5 -1.3197,1.5902 -0.3407,1.9517 2.4182,0.893 z m 29.3605,-20.4735 c -0.046,-1.6057 -0.3521,-2.916 -0.6809,-2.9117 -0.943,0.012 -3.0981,5.1827 -2.538,6.089 1.0945,1.7708 3.2977,-0.404 3.2189,-3.1773 z m 4.9505,-2.5237 c -0.3323,-0.3323 -1.1948,-0.3678 -1.9167,-0.079 -0.7977,0.3192 -0.5608,0.5562 0.6042,0.6042 1.0542,0.043 1.6448,-0.193 1.3125,-0.5253 z M 517.41759,1554.186 c 0,-3.0554 -1.38871,-4.0005 -3.00914,-2.048 -0.98142,1.1825 -0.97954,1.7977 0.009,2.989 1.82661,2.2009 3,1.8329 3,-0.941 z m 17.81808,-13.059 c 0.6265,-1.375 1.8237,-2.5 2.6605,-2.5 2.1357,0 1.8948,-1.7298 -0.4128,-2.9648 -3.4532,-1.8481 -4.7764,-1.2056 -5.3974,2.621 -0.9126,5.6236 1.0682,7.412 3.1497,2.8438 z m 88.6392,-3.4309 c 0.3165,-0.512 0.118,-1.2136 -0.441,-1.559 -0.5589,-0.3455 -1.0163,0.073 -1.0163,0.9309 0,1.7565 0.6001,2.0151 1.4573,0.6281 z m -80.6705,-36.4694 c 3.3552,-3.2454 -4.3995,-8.52 -9.2306,-6.2785 -3.3922,1.5739 -3.5856,6.3603 -0.3062,7.5802 2.7971,1.0405 7.8248,0.3542 9.5368,-1.3017 z m 231.183,-33.6562 c -1.3777,-2.5743 -3.7652,-3.5481 -5.1946,-2.1187 -1.5674,1.5674 0.8575,4.1752 3.8825,4.1752 2.1249,0 2.2814,-0.2453 1.3121,-2.0565 z M 512.60775,1456.377 c 1.11359,-0.8853 1.75667,-3.8294 2.20384,-10.0895 0.34729,-4.8617 1.05135,-9.6242 1.56459,-10.5831 0.51324,-0.959 0.66979,-5.8088 0.3479,-10.7773 -0.55894,-8.6273 -0.71481,-9.1101 -3.46576,-10.7351 -2.82811,-1.6706 -2.95009,-1.6465 -6.70681,1.3289 -5.59823,4.4339 -6.68998,5.95 -5.29154,7.3485 2.81577,2.8157 0.46848,11.2051 -4.075,14.5643 -1.15096,0.8509 -1.75414,2.5948 -1.72943,5 0.0324,3.1562 0.61413,4.0918 4,6.4338 2.70882,1.8736 3.96205,3.4815 3.96205,5.0833 0,1.2886 0.3,2.6428 0.66667,3.0095 1.12943,1.1294 6.8625,0.7371 8.52349,-0.5833 z"
       id="path4213"
       inkscape:connector-curvature="0" />
    <g
       id="g5882">
      <path
         style="opacity:1;fill:none;fill-opacity:0.80784314;stroke:#000000;stroke-width:25.5178299;stroke-linecap:round;stroke-linejoin:round;stroke-miterlimit:4;stroke-dasharray:none;stroke-dashoffset:0;stroke-opacity:1"
         d="m 463.87603,970.84499 c -25.09148,15.36032 -54.59811,24.21409 -86.17266,24.21409 -28.95615,0 -56.17315,-7.44623 -79.84061,-20.52829 0,0 109.83987,-1.50444 166.01327,-3.6858 z"
         id="path4235"
         inkscape:connector-curvature="0"
         sodipodi:nodetypes="cscc" />
      <path
         style="fill:none;fill-rule:evenodd;stroke:#000000;stroke-width:9.40290451;stroke-linecap:round;stroke-linejoin:round;stroke-miterlimit:4;stroke-dasharray:none;stroke-opacity:1"
         d="m 313.34918,443.07775 69.93112,111.46156 65.1083,-99.72876"
         id="path5664"
         inkscape:connector-curvature="0" />
      <circle
         r="201.49406"
         cy="750.41846"
         cx="380.86942"
         id="path4235-9"
         style="opacity:1;fill:none;fill-opacity:0.80784314;stroke:#000000;stroke-width:31.108881;stroke-linecap:round;stroke-linejoin:round;stroke-miterlimit:4;stroke-dasharray:none;stroke-dashoffset:0;stroke-opacity:1" />
      <path
         style="opacity:0.98000004;fill:#ffffff;fill-opacity:1;stroke:#000000;stroke-width:25;stroke-linecap:round;stroke-linejoin:round;stroke-miterlimit:4;stroke-dasharray:25, 25;stroke-dashoffset:0;stroke-opacity:1"
         d="m -811.76056,-232.39017 393.15141,33.94113 11.3137,220.617315 -404.46511,59.39697 z"
         id="rect4190"
         inkscape:connector-curvature="0"
         sodipodi:nodetypes="ccccc" />
      <path
         style="opacity:0.98000004;fill:#ffffff;fill-opacity:1;stroke:#000000;stroke-width:25;stroke-linecap:round;stroke-linejoin:round;stroke-miterlimit:4;stroke-dasharray:25, 25;stroke-dashoffset:0;stroke-opacity:1"
         d="m -671.75336,1222.8356 393.15142,33.9411 11.3137,220.6174 -404.46512,59.3969 z"
         id="rect4190-3"
         inkscape:connector-curvature="0"
         sodipodi:nodetypes="ccccc" />
      <rect
         style="opacity:1;fill:none;fill-opacity:1;stroke:#000000;stroke-width:14.68700027;stroke-linecap:round;stroke-linejoin:round;stroke-miterlimit:4;stroke-dasharray:none;stroke-dashoffset:0;stroke-opacity:1"
         id="rect5660-6"
         width="407.29099"
         height="321.16776"
         x="234.75877"
         y="-429.74362"
         ry="48.444298" />
    </g>
    <path
       style="fill:#000000"
       d="m 110.56352,1160.7969 c -0.30523,0.01 -0.57013,0.018 -0.86708,0.027 0.24178,0.1147 0.47818,0.2395 0.7174,0.3586 0.05,-0.1289 0.099,-0.2559 0.14968,-0.3856 z m -29.61448,4.1815 -1.62224,0.2049 c -1.70874,0.2162 -4.03885,0.82 -5.17802,1.3417 -1.63066,0.7469 -1.70412,0.8535 -0.3452,0.503 0.94931,-0.2448 3.27941,-0.8486 5.17802,-1.3417 l 1.60602,-0.4167 c 0.11916,-0.099 0.24067,-0.1945 0.36142,-0.2912 z m -10.08637,2.6267 c -0.73175,-0.05 -3.66555,0.7954 -4.26109,1.3404 -0.33678,0.3082 0.33332,0.2858 1.48195,-0.027 0.83193,-0.3286 1.67892,-0.6268 2.53371,-0.9048 0.16693,-0.084 0.28706,-0.1577 0.3452,-0.2158 0.12165,-0.1216 0.0691,-0.1812 -0.0998,-0.1928 z m -11.73147,4.3218 c -0.78899,0.044 -4.05805,1.3561 -5.86034,2.4056 -0.66811,0.3891 -1.00709,0.7167 -0.75378,0.7282 0.79776,0.036 6.78804,-2.6732 6.78804,-3.0704 0,-0.05 -0.0612,-0.07 -0.17392,-0.063 z m -7.83179,3.3347 c -1.13764,0.146 -7.8855,3.7326 -8.90916,4.7897 -0.37972,0.3921 1.57667,-0.4481 4.3474,-1.8663 2.77072,-1.4182 4.89102,-2.725 4.71144,-2.9045 -0.0226,-0.023 -0.0738,-0.029 -0.14968,-0.019 z m -10.55826,5.3439 c -0.3376,0 -1.34732,0.6186 -2.24381,1.374 l -1.63031,1.3728 2.24381,-1.0788 c 2.22599,-1.0703 2.81063,-1.668 1.63031,-1.668 z m -4.42831,2.9814 c -0.0509,-0.012 -0.2134,0.05 -0.48142,0.1793 -1.65413,0.8012 -5.91778,3.8675 -9.34467,6.5346 0.33057,-0.033 0.66127,-0.064 0.99246,-0.093 l 2.72246,-1.9499 c 4.45807,-3.1928 6.33175,-4.6194 6.11117,-4.671 z m 132.72047,6.0262 c -0.38269,0.01 -0.76862,0.1419 -1.16236,0.3897 -0.78451,0.4937 -1.3708,2.0617 -1.67071,4.4714 -0.6556,5.2676 -2.61303,6.8434 -8.50596,6.8434 -2.42228,0 -5.15317,0.2846 -6.06802,0.6324 -1.77047,0.6732 -3.69725,4.3137 -2.93553,5.5461 0.9656,1.5624 -0.36957,3.4871 -2.41779,3.4871 -0.15306,0 -0.2959,-0.01 -0.43688,-0.019 -0.59983,1.614 -1.20303,3.2367 -1.66664,4.9124 -1.2432,2.9654 -2.30104,6.2998 -4.72629,8.3253 -0.28313,2.1338 -0.91002,4.2558 -1.86629,6.3066 -0.0228,-0.7002 -0.037,-2.8008 -0.0688,-2.1009 -0.049,1.0956 0.0908,2.1949 0.0148,3.2889 -0.30226,4.3516 -2.05934,7.9795 -3.18773,12.1508 -0.4665,0.6362 -0.91299,1.2882 -1.37273,1.9296 0.26615,1.0273 0.4779,2.0637 0.69041,2.9531 0.0497,1.3307 0.39401,2.6827 0.14836,3.9914 -0.01,0.052 -0.0173,0.08 -0.027,0.1308 1.1674,-0.8089 1.75141,-1.6072 2.13728,-2.7764 0.54949,-1.6649 1.57722,-2.6852 3.84174,-3.8161 3.66632,-1.8311 4.00731,-2.8905 0.76186,-2.3638 -1.34504,0.2182 -2.52501,0.06 -2.79399,-0.3749 -0.76648,-1.2401 0.9627,-9.072 2.83038,-12.8183 2.76796,-5.5521 6.74406,-9.1903 11.72338,-10.7282 5.30478,-1.6385 8.19784,-1.0099 12.1009,2.6308 2.14832,2.0039 2.8011,3.1842 3.11627,5.6392 0.2192,1.7076 0.99556,4.2939 1.72469,5.747 2.19355,4.3716 1.62873,5.333 -4.28001,7.2857 -10.37185,3.4276 -14.41409,5.0183 -15.22255,5.9925 -0.69876,0.8419 -0.32539,0.9951 2.43802,0.9951 1.79532,0 5.01826,-0.4473 7.16154,-0.9938 4.83303,-1.2324 14.0992,-2.2305 26.54813,-2.8587 5.24347,-0.2646 10.68039,-0.8897 12.08204,-1.3902 1.40173,-0.5005 2.00272,-0.9246 1.33635,-0.9412 -0.66638,-0.017 -2.82189,-0.8064 -4.78967,-1.7557 -1.96779,-0.9493 -4.21809,-1.7399 -5.00142,-1.757 -0.78333,-0.017 -2.356,-0.4335 -3.49516,-0.9251 l -2.07121,-0.894 3.79722,-2.0051 c 2.08846,-1.103 4.10789,-2.1259 4.48761,-2.2721 0.37973,-0.1463 2.0204,-0.8592 3.64623,-1.5845 3.33381,-1.4872 7.74542,-1.1538 7.74542,0.5853 0,0.7006 -0.43054,0.8686 -1.4212,0.5542 -1.72227,-0.5467 -6.17323,1.4262 -6.17323,2.736 0,0.5124 1.07765,1.8774 2.39487,3.034 2.04697,1.7972 2.77424,2.0445 5.00542,1.7017 3.51601,-0.5402 4.53525,-1.4611 4.08849,-3.6947 -0.20201,-1.0102 -0.097,-2.1154 0.23329,-2.4556 0.33029,-0.3401 1.2236,-2.2728 1.98622,-4.2948 1.18701,-3.147 1.29009,-4.2761 0.7147,-7.8492 -0.36978,-2.2958 -1.25363,-5.3021 -1.96467,-6.6802 -1.70944,-3.3132 -6.46977,-7.176 -11.40787,-9.2584 -2.99228,-1.2619 -4.21236,-2.2026 -4.86244,-3.7487 -0.47735,-1.1352 -1.42168,-2.2768 -2.0982,-2.5364 -0.6766,-0.2594 -4.2805,-0.2623 -8.00978,-0.01 l -6.78127,0.4679 -1.05853,-2.6874 c -1.95149,-4.9487 -3.55343,-7.1866 -5.21178,-7.1427 z m 54.34898,9.5995 c 6.32492,5.594 13.25532,12.7851 19.40011,20.0743 -0.13628,-0.4495 -0.29611,-0.8916 -0.47196,-1.3282 -5.45839,-6.3284 -11.55306,-12.7208 -16.93778,-17.7253 -0.65837,-0.346 -1.32192,-0.6862 -1.99037,-1.0208 z M -19.1189,1241.133 c -0.2219,0 -0.44483,0.015 -0.66617,0.015 -0.17743,0.3392 -0.29232,0.5929 -0.2899,0.6823 0.008,0.2934 0.41024,-0.051 0.95607,-0.6971 z m -1.26889,1.6087 c -0.18986,0 -0.67777,0.6214 -1.08421,1.3808 -0.40623,0.7595 -0.5836,1.3808 -0.39374,1.3808 0.18986,0 0.6777,-0.6213 1.08414,-1.3808 0.40617,-0.7594 0.58367,-1.3808 0.39381,-1.3808 z m -2.02267,3.7366 c -0.23136,0.1016 -0.79058,0.9812 -1.34304,2.1399 -0.63152,1.3243 -1.00599,2.4084 -0.83201,2.4084 0.47237,0 2.56913,-4.2271 2.25327,-4.5429 -0.0188,-0.019 -0.0452,-0.02 -0.0782,-0.01 z m -3.46555,7.3665 c -0.0785,-0.029 -0.3247,0.292 -0.8077,0.9385 -0.55067,0.7371 -1.00191,1.6095 -1.00191,1.9391 0,1.1395 1.216,-0.1568 1.6087,-1.7152 0.19021,-0.7546 0.27948,-1.1334 0.20091,-1.1624 z m -1.94983,4.5429 c -0.30226,-0.082 -1.62045,2.899 -2.18713,5.1106 -0.23695,0.9248 0.16632,0.4388 0.89669,-1.0801 0.73045,-1.5189 1.33938,-3.2276 1.3525,-3.7972 0.003,-0.1479 -0.0188,-0.2216 -0.0621,-0.2333 z m -2.5634,6.7921 -1.03961,1.726 c -0.57193,0.9493 -1.04368,2.192 -1.04368,2.7616 -0.003,0.9206 0.0617,0.9206 0.58249,0 0.32228,-0.5696 0.79203,-1.8123 1.04368,-2.7616 l 0.45712,-1.726 z m -2.5674,6.1071 c -0.10467,-0.016 -0.17619,0.2363 -0.1969,0.739 -0.03,0.7278 0.132,1.1355 0.36142,0.9061 0.22942,-0.2294 0.25462,-0.8244 0.0552,-1.3228 -0.0826,-0.2065 -0.15699,-0.3128 -0.21975,-0.3223 z m -0.52188,2.9113 c -0.0165,-0.01 -0.0364,-0.01 -0.0593,10e-4 -0.0611,0.028 -0.14568,0.1287 -0.25214,0.3007 -0.35272,0.5696 -0.84498,2.123 -1.09498,3.452 -0.30198,1.6058 -0.23998,2.069 0.18607,1.3808 0.35266,-0.5696 0.84629,-2.123 1.09629,-3.452 0.19821,-1.0538 0.23964,-1.6156 0.12406,-1.6828 z m 96.2748,1.4024 c 0.87578,0.1959 1.70813,0.4404 2.51756,0.7147 0.0238,-0.023 0.0476,-0.045 0.0714,-0.069 -0.75896,-0.3523 -1.61699,-0.4509 -2.58901,-0.6459 z m 65.43989,5.6351 c -0.50869,-0.075 -1.06052,0.1674 -2.06037,0.6661 l -2.11304,1.0545 0.22113,13.1865 c 1.35809,2.2165 2.2026,4.781 2.43802,7.7913 0.25014,3.1979 -1.15691,6.9403 -1.53587,10.1767 0.31655,2.4354 0.0564,4.8238 -0.41396,7.1872 0.24944,9.2541 0.56233,16.619 0.81039,18.1001 0.95697,5.7157 1.53463,26.875 0.98707,36.1585 l -0.48273,8.1972 -3.05696,1.8136 c -1.6812,0.9975 -4.28678,2.8045 -5.7902,4.0157 -3.07188,2.4749 -5.32798,3.3991 -6.1691,2.527 -0.11674,-0.1211 -0.23515,-2.7678 -0.35335,-6.9499 -0.26,0.2791 -0.51476,0.5613 -0.7524,0.8563 -1.01213,1.2564 -0.74729,2.1143 -1.08952,3.2672 -0.37434,1.2613 -0.92031,2.465 -1.38081,3.6975 -3.2297,5.6778 -7.55673,10.2794 -12.30456,14.6953 -3.97002,2.431 -8.07895,5.013 -12.54455,5.027 2.22393,5.7581 -0.041,12.05 -4.6589,16.5265 -2.32859,2.0915 -4.70144,3.851 -7.21009,5.6136 -0.78823,14.4996 -1.87624,19.5078 -5.383,29.6644 -1.3409,3.8836 -1.81023,4.5706 -2.89513,4.2408 -0.82483,-0.2507 -1.12695,-0.123 -0.83332,0.352 0.25345,0.4101 1.76792,1.0774 3.36571,1.4833 1.5978,0.4058 3.52589,1.0187 4.28533,1.3619 2.71833,1.2285 12.33115,3.5138 13.26872,3.154 0.52594,-0.2018 0.76731,-0.06 0.53533,0.3155 -0.38496,0.6229 0.76228,0.8319 5.35463,0.9776 0.85437,0.027 1.77123,0.3547 2.03752,0.7269 0.26621,0.3721 2.48821,0.6828 4.93803,0.6904 2.44983,0.01 4.31944,0.2324 4.1545,0.5003 -0.16487,0.2678 1.96212,0.6072 4.72629,0.7538 l 0.001,0 c 2.76575,0.1464 10.3093,0.1827 16.76381,0.081 6.45526,-0.1019 13.44559,-0.2011 15.53406,-0.2211 2.70865,-0.026 3.50296,-0.2293 2.77376,-0.7079 -0.69068,-0.4534 0.26104,-0.5389 2.93421,-0.263 2.68118,0.2768 3.95766,0.1613 3.95766,-0.3573 0,-0.421 0.46603,-0.5854 1.03561,-0.3668 0.57006,0.2187 1.0356,0.02 1.0356,-0.441 0,-0.467 0.46561,-0.6591 1.05183,-0.4342 1.40497,0.5392 7.28989,-0.2948 6.87034,-0.9735 -0.18158,-0.2939 0.26042,-0.3801 0.98161,-0.1915 0.72113,0.1886 2.04104,-0.06 2.93421,-0.5515 0.89325,-0.4917 2.20259,-0.8045 2.9086,-0.6958 0.70601,0.1087 1.10313,-0.095 0.88323,-0.4504 -0.22804,-0.369 0.37662,-0.4978 1.4078,-0.3007 1.15988,0.2217 1.64717,0.086 1.3592,-0.3803 -0.27119,-0.4388 0.0378,-0.5988 0.78077,-0.4045 0.67612,0.1768 1.96669,-0.3185 2.86814,-1.1003 0.90139,-0.7818 1.9796,-1.416 2.39619,-1.4105 0.41652,0.01 0.29176,0.3361 -0.27782,0.7349 -0.7901,0.5532 -0.62647,0.6114 0.6904,0.2468 2.35703,-0.6527 5.34282,-2.2135 5.8725,-3.0704 0.24012,-0.3887 0.72865,-0.5267 1.08552,-0.3061 0.93563,0.5782 3.49019,-0.3586 3.02589,-1.1098 -0.21506,-0.348 0.0605,-0.4607 0.6108,-0.2495 0.55081,0.2113 1.69998,-0.3348 2.55401,-1.2149 0.8541,-0.8801 1.33337,-1.2123 1.06522,-0.7376 -0.26808,0.4746 -0.17032,0.863 0.21844,0.863 0.38877,0 1.02505,-0.5936 1.41319,-1.3188 0.45145,-0.8435 1.18383,-1.194 2.03213,-0.9722 0.791,0.2068 1.90793,-0.2359 2.76969,-1.0976 0.79458,-0.7946 1.60084,-1.4442 1.7907,-1.4442 l 1.07606,0 c 0.40209,0 0.50959,-0.3586 0.23867,-0.797 -0.32394,-0.524 -0.18717,-0.6091 0.39919,-0.2467 0.57041,0.3525 1.37604,-0.044 2.23704,-1.1017 0.74025,-0.909 1.10858,-1.2039 0.81855,-0.6567 -0.6873,1.2963 4.45786,-1.7224 6.10433,-3.5815 0.66451,-0.7503 1.2082,-1.1635 1.2082,-0.9182 0,0.2452 0.62965,0.1087 1.39973,-0.3034 0.77007,-0.4122 1.18818,-1.0923 0.92907,-1.5117 -0.25918,-0.4193 -0.16349,-0.5724 0.21306,-0.3398 0.89559,0.5536 3.81199,-1.4946 3.30233,-2.3193 -0.21595,-0.3494 0.0572,-0.4622 0.60811,-0.2508 0.55108,0.2114 1.23686,0 1.52379,-0.4598 0.36198,-0.5857 0.225,-0.6721 -0.44773,-0.2818 -0.57407,0.333 -0.73562,0.306 -0.39505,-0.066 0.31642,-0.3455 0.62689,-0.4989 0.69041,-0.3398 0.0633,0.1591 0.82323,-0.089 1.68824,-0.5516 0.92044,-0.4926 1.37576,-1.1859 1.0976,-1.6707 -0.26132,-0.4556 -0.22169,-0.5983 0.089,-0.3169 0.7136,0.6465 2.53261,-0.8026 2.02944,-1.6167 -0.20539,-0.3324 0.0507,-0.4417 0.56903,-0.2428 0.51836,0.1989 1.54471,-0.3429 2.2802,-1.2041 1.32854,-1.5556 1.32861,-1.5591 -0.0431,-0.5421 -1.27677,0.9466 -1.30991,0.9321 -0.43958,-0.178 0.51766,-0.6603 1.21794,-1.0284 1.55748,-0.8185 0.3396,0.2099 2.24615,-1.2225 4.23679,-3.1823 1.99071,-1.9598 3.18434,-3.329 2.65101,-3.0435 -0.64663,0.3464 -0.80384,0.2506 -0.47058,-0.2885 0.27471,-0.4446 0.73694,-0.6624 1.02753,-0.4828 0.77332,0.478 6.40762,-5.4694 5.77804,-6.099 -0.29335,-0.2933 -0.10549,-0.4299 0.41666,-0.3034 0.52209,0.1266 1.10561,-0.2006 1.29727,-0.7281 0.2134,-0.5874 0.0462,-0.7726 -0.4315,-0.4774 -1.31273,0.8113 -0.86798,-7e-4 0.76186,-1.3916 1.52593,-1.3019 1.53145,-1.3007 0.52988,0.066 -0.99915,1.3636 -0.9937,1.3638 0.51242,0.08 0.83891,-0.7152 1.35899,-1.5696 1.15566,-1.8986 -0.20332,-0.329 -0.0215,-0.5973 0.40313,-0.5973 0.42453,0 0.55004,-0.3586 0.27913,-0.797 -0.28224,-0.4566 -0.192,-0.6109 0.21175,-0.3614 0.90194,0.5575 3.0823,-1.8191 2.81691,-3.0704 -0.11081,-0.5221 0.16922,-0.8781 0.62295,-0.7902 0.4538,0.088 1.52503,-0.8219 2.38002,-2.0226 0.89483,-1.2567 1.13047,-1.9511 0.55557,-1.637 -0.54928,0.3001 -0.0942,-0.214 1.0113,-1.1422 1.10547,-0.9281 1.79995,-2.0283 1.54264,-2.4447 -0.25732,-0.4163 -0.10481,-0.982 0.33981,-1.2567 0.55281,-0.3417 0.62351,-0.1926 0.22383,0.4706 -0.49771,0.8258 -0.41099,0.8285 0.58388,0.022 1.30603,-1.0594 1.61671,-2.5167 0.37212,-1.7476 -0.49778,0.3077 -0.61004,0.1893 -0.29797,-0.3155 0.27471,-0.4446 0.75875,-0.6479 1.07606,-0.4518 0.77801,0.4809 4.34429,-5.692 3.79859,-6.575 -0.23722,-0.3838 -0.0188,-0.6127 0.48404,-0.5083 0.51898,0.1076 0.86915,-0.3521 0.81047,-1.064 -0.057,-0.6898 0.0726,-1.0776 0.28852,-0.8616 0.21602,0.216 1.11728,-0.8823 2.00244,-2.4407 1.84586,-3.2497 1.94065,-3.6319 0.74702,-3.0272 -0.47466,0.2404 -0.28852,-0.032 0.41403,-0.6042 0.70255,-0.5724 1.08621,-1.3513 0.85217,-1.73 -0.23412,-0.3788 -0.063,-0.9132 0.38165,-1.188 0.54604,-0.3375 0.62985,-0.1844 0.25621,0.4706 -0.38242,0.6703 -0.3267,0.7564 0.18068,0.2791 0.40368,-0.3797 0.83746,-1.2919 0.96414,-2.0267 0.2569,-1.4901 0.3488,-1.4323 -10.5934,-6.5871 -5.05443,-2.3811 -7.87521,-4.1535 -8.97523,-5.6378 -0.88234,-1.1906 -3.02749,-3.5968 -4.76675,-5.348 -1.73926,-1.7511 -3.72037,-4.1157 -4.40263,-5.2548 -0.68219,-1.1392 -1.82791,-2.6926 -2.54724,-3.4521 -0.71933,-0.7594 -1.95225,-2.2431 -2.73869,-3.2969 -1.76066,-2.3593 -4.72152,-3.6433 -10.38027,-4.4998 -4.64351,-0.7028 -6.48143,-0.1666 -7.20069,2.0996 -0.2112,0.6654 -0.63828,1.2095 -0.94931,1.2095 -0.86141,0 -1.46469,3.9474 -1.42395,9.3205 0.02,2.658 -0.4313,6.5415 -1.0033,8.63 -1.88031,6.8652 -1.33282,10.8113 1.74355,12.5769 1.81817,1.0435 2.85129,3.3024 1.51025,3.3024 -0.28776,0 -3.00263,2.337 -6.03156,5.1942 -3.02901,2.8571 -6.75477,5.8042 -8.27945,6.548 -1.52469,0.7437 -3.31718,2.316 -3.98328,3.4952 -0.6661,1.1791 -2.11843,2.487 -3.22818,2.9059 -1.10976,0.4188 -2.33646,1.4618 -2.72654,2.3179 -0.39008,0.8562 -1.81162,2.7761 -3.15804,4.2665 -1.34649,1.4904 -2.44748,3.2011 -2.44748,3.8013 0,1.4215 -4.66981,5.945 -6.5116,6.308 -4.96607,0.9787 -5.79807,0.9583 -6.81635,-0.1767 -1.16139,-1.2945 -1.34801,-6.1822 -0.28859,-7.5593 0.67708,-0.8802 -1.03636,-4.3178 -2.15212,-4.3178 -0.30108,0 -1.27586,-1.3204 -2.16559,-2.9342 -0.88972,-1.6138 -3.20105,-4.3681 -5.13756,-6.1205 -1.93644,-1.7524 -3.97161,-4.0826 -4.52131,-5.1781 -0.55004,-1.0955 -1.36099,-2.4576 -1.80291,-3.0272 -0.44193,-0.5696 -1.48789,-3.1258 -2.32473,-5.681 -1.75949,-5.3722 -1.48298,-10.7678 0.78347,-15.2603 1.75846,-3.4857 1.18321,-6.6748 -1.20413,-6.6748 -1.09926,0 -1.99085,0.6363 -2.66054,1.8986 -1.18273,2.2294 -7.72947,7.9737 -8.71364,7.6456 -0.41459,-0.1381 -0.80411,-8.6659 -1.00453,-21.9728 -0.1802,-11.9607 -0.61329,-23.2638 -0.96146,-25.1188 -0.34824,-1.8551 -0.46492,-5.8157 -0.26028,-8.8013 l 0.3722,-5.4288 -4.06151,-4.04 -4.0615,-4.0399 0.23598,-10.2563 c 0.12987,-5.6408 0.51463,-10.9855 0.85355,-11.877 0.49819,-1.3103 0.28009,-1.9313 -1.13537,-3.2431 -0.82869,-0.768 -1.29423,-1.1602 -1.80292,-1.2351 z m -163.88435,0.4868 c -0.12482,-0.047 -0.21299,0.3506 -0.21299,1.0626 0,0.9493 0.15638,1.3376 0.3479,0.863 0.19159,-0.4747 0.19159,-1.2514 0,-1.726 -0.0479,-0.1187 -0.0933,-0.1841 -0.13491,-0.1996 z m -0.76455,3.8849 c -0.0454,-0.019 -0.11115,0.068 -0.19952,0.2845 -0.31041,0.7594 -0.75178,3.0895 -0.98169,5.178 -0.25703,2.3344 -0.20111,3.1323 0.14561,2.0712 0.6866,-2.1009 1.35339,-7.401 1.0356,-7.5337 z m -1.69093,11.3309 -0.7524,3.1068 c -0.89953,3.7144 -1.15346,32.4816 -0.33713,38.2028 0.96974,6.796 1.29817,3.8014 0.41528,-3.7878 -0.75516,-6.4914 -0.55653,-24.4356 0.38165,-34.415 l 0.2926,-3.1068 z m 212.01563,8.2849 c -1.11106,-0.05 -2.28923,2.6943 -3.4924,8.1432 -1.02318,4.634 -0.42315,5.7524 3.58954,6.7004 5.63459,1.3312 7.735,0.5188 5.79428,-2.2424 -0.601,-0.8551 -1.4076,-2.7975 -1.79215,-4.3164 -1.05411,-4.1635 -2.77169,-7.8131 -3.87806,-8.2376 -0.0735,-0.028 -0.14713,-0.044 -0.22121,-0.047 z m 29.16952,39.0293 c -1.79899,0.021 -1.82902,0.075 -0.58788,1.014 1.31922,0.9986 2.48648,0.8176 2.48648,-0.3856 0,-0.3573 -0.85437,-0.6405 -1.8986,-0.6284 z m -240.90872,1.366 c -0.31786,0 0.35805,5.7093 0.94254,7.8128 0.19262,0.6932 0.44462,1.1592 0.56095,1.0356 0.31283,-0.3323 -1.02973,-8.399 -1.46979,-8.8309 -0.0124,-0.012 -0.0235,-0.018 -0.0337,-0.017 z m 312.88865,9.7829 c -0.14353,0.6575 -0.23991,1.378 -0.23329,1.9472 l 0.0202,1.726 0.55281,-1.726 c 0.1037,-0.3237 0.19683,-0.702 0.28189,-1.0869 -0.22424,-0.3093 -0.44855,-0.624 -0.62164,-0.8603 z m -310.77967,0.805 c -0.10467,-0.016 -0.17619,0.2363 -0.1969,0.739 -0.03,0.7278 0.132,1.1356 0.36142,0.9061 0.22942,-0.2294 0.25462,-0.8244 0.0552,-1.3228 -0.0826,-0.2065 -0.15699,-0.3127 -0.21975,-0.3223 z m 68.74222,0.325 c -0.61543,0.9546 -1.23886,1.9039 -1.88107,2.8412 0.91955,-0.1976 1.56562,-1.1742 1.88107,-2.8412 z m -68.27026,2.5432 0.41935,2.7616 c 0.23073,1.5189 0.59009,3.0573 0.79962,3.4183 0.89994,1.5507 0.76435,-0.9319 -0.18875,-3.4534 l -1.03022,-2.7265 z m 308.82845,2.6551 c -0.10466,-0.016 -0.17619,0.2362 -0.1969,0.7389 -0.03,0.7278 0.13201,1.1356 0.36143,0.9062 0.22942,-0.2294 0.25462,-0.8245 0.0552,-1.3229 -0.0826,-0.2065 -0.157,-0.3127 -0.21976,-0.3222 z m -0.62301,3.6731 c -0.10805,0 -0.44414,0.7702 -0.99246,2.3018 -0.7477,2.0885 -1.35802,4.1079 -1.35112,4.4876 0.0137,1.2498 1.85767,-3.5329 2.28834,-5.9345 0.10198,-0.5689 0.12013,-0.852 0.0552,-0.8549 z m -239.85558,1.6114 c -0.42349,0 -0.85237,1.8027 -1.08552,3.7662 0.48653,-0.6357 0.97872,-1.2699 1.4698,-1.9067 0.0674,-0.333 0.14361,-0.6632 0.2279,-0.9911 -0.20629,-0.5182 -0.42984,-0.8684 -0.61218,-0.8684 z m -66.04675,0.2252 c -0.0269,0.01 -0.0515,0.022 -0.0742,0.044 -0.18095,0.181 -0.12489,0.6603 0.12538,1.0653 0.68087,1.1015 1.0791,0.8875 0.61218,-0.3291 -0.19642,-0.5127 -0.47555,-0.8305 -0.66341,-0.7807 z m 0.75917,2.7859 c -0.22728,-0.046 -0.13214,0.8145 0.43288,2.4353 0.42529,1.2201 0.93418,2.0579 1.13129,1.8608 0.19705,-0.197 -0.0359,-1.3109 -0.5178,-2.4744 -0.49792,-1.2021 -0.86956,-1.786 -1.04637,-1.8217 z m 302.63375,3.6624 c -0.32415,-0.083 -1.63032,2.8423 -2.20473,5.1079 -0.23446,0.9247 0.18427,0.4387 0.93045,-1.0801 0.74612,-1.5189 1.35533,-3.2277 1.34843,-3.7973 -10e-4,-0.1453 -0.0279,-0.2187 -0.0741,-0.2305 z m -300.76752,1.8244 c -0.19056,-0.078 0.11612,1.0635 0.99245,3.2538 0.61715,1.5423 1.24542,2.6813 1.39565,2.531 0.1503,-0.1502 -0.33284,-1.6385 -1.07337,-3.3077 -0.7174,-1.6171 -1.16644,-2.4163 -1.31473,-2.4771 z m 297.99783,5.5232 c -0.15037,0.015 -0.50192,0.4558 -0.90892,1.1678 -0.54272,0.9493 -0.98699,2.0367 -0.98699,2.4164 0,0.3797 0.44427,-0.086 0.98699,-1.0356 0.54266,-0.9493 0.98707,-2.0367 0.98707,-2.4164 0,-0.095 -0.0281,-0.1373 -0.0781,-0.1322 z m -295.26584,1.428 c -0.18641,-0.014 0.12821,1.0474 1.02614,2.9396 0.6193,1.3051 1.23941,2.2598 1.37812,2.1211 0.13863,-0.1387 -0.35473,-1.4711 -1.09761,-2.9598 -0.71284,-1.4286 -1.16167,-2.0898 -1.30665,-2.1009 z m 3.02721,6.1017 c -0.0343,-10e-4 -0.0644,0.01 -0.0903,0.036 -0.20719,0.2073 0.12082,1.3377 0.72817,2.5122 l 0.003,0 c 0.60728,1.1744 1.27,2.1359 1.47249,2.1359 0.19953,0 0.20091,-0.2656 0,-0.5906 -0.20083,-0.325 -0.69454,-1.4555 -1.09629,-2.5122 -0.35155,-0.9245 -0.77705,-1.5731 -1.01675,-1.5817 z m 2.47578,5.5421 c -0.0437,-0.013 -0.0646,0.019 -0.0661,0.088 -0.0126,0.577 4.34077,8.1511 5.70659,9.9286 1.39765,1.8189 1.22685,0.7479 -0.27505,-1.726 -3.64008,-5.9961 -5.05962,-8.2024 -5.36547,-8.2902 z m 7.98547,12.9586 c -0.55142,-0.01 1.49749,3.275 3.54909,5.6877 1.19163,1.4013 1.82729,1.6104 1.02076,0.3358 -2.37471,-3.7528 -4.09229,-6.0163 -4.56985,-6.0235 z m 79.74422,6.2352 c -0.40617,-0.079 -0.91831,0.8935 -1.27428,1.9296 0.12124,-0.115 0.24599,-0.2253 0.36543,-0.3425 0.39112,-0.4481 1.45551,-0.821 1.17313,-1.3444 -0.0794,-0.1472 -0.16894,-0.2241 -0.26428,-0.2427 z m -74.69164,1.3511 c -0.0356,0.036 0.17336,0.3155 0.60279,0.863 0.90194,1.15 1.46842,1.5162 1.46842,0.948 0,-0.1434 -0.5437,-0.6871 -1.20821,-1.2082 -0.54749,-0.4294 -0.82731,-0.6384 -0.863,-0.6028 z m 2.52432,2.7872 c -0.45408,-0.02 1.03512,1.9515 3.65161,4.9717 0.0482,-0.258 0.0961,-0.5164 0.14153,-0.7753 -0.45263,-0.5595 -0.90684,-1.1335 -1.3592,-1.7301 -1.01806,-1.3427 -2.11373,-2.4525 -2.43394,-2.4663 z m 243.15528,10.3304 c 0.18986,0 -0.38524,0.7767 -1.27704,1.7261 -0.89186,0.9493 -1.77613,1.726 -1.96599,1.726 -0.18986,0 0.38373,-0.7767 1.27559,-1.726 0.89179,-0.9494 1.77758,-1.7261 1.96744,-1.7261 z m -6.93102,6.9041 c 0.18986,0 -0.21755,0.6213 -0.90484,1.3808 -0.6873,0.7594 -1.40532,1.3808 -1.59518,1.3808 -0.18986,0 0.21748,-0.6214 0.90477,-1.3808 0.6873,-0.7595 1.40539,-1.3808 1.59525,-1.3808 z m -73.17592,9.7587 c 0.94143,0.033 2.05692,0.4004 3.37917,1.0463 2.60483,1.2726 2.6138,1.2923 2.71847,5.7646 0.0578,2.4682 0.13531,5.047 0.1726,5.7309 0.0396,0.7296 1.04651,1.6522 2.43663,2.233 3.35005,1.3998 3.59769,2.2747 0.96008,3.3941 -1.26137,0.5353 -4.14808,2.8599 -6.41453,5.1645 -4.40671,4.4809 -5.91199,5.0315 -7.50951,2.7508 -0.81275,-1.1604 -0.93792,-3.3284 -0.64726,-11.219 0.39982,-10.8523 1.54181,-14.9847 4.90435,-14.8652 z m -112.43188,16.1098 c -0.2725,0.074 -0.5526,0.1409 -0.83601,0.2023 0.53927,0.2391 0.85624,0.2012 0.85624,-0.1632 0,-0.01 -0.014,-0.026 -0.0202,-0.039 z m 0.81992,0.6607 c -0.27989,0.049 0.28362,0.5653 1.78932,1.3822 1.04423,0.5665 2.18305,1.042 2.53108,1.0572 0.87681,0.038 0.41659,-0.3041 -2.18588,-1.6276 -1.1895,-0.6049 -1.91704,-0.8499 -2.13452,-0.8118 z m 5.51777,2.6686 c -0.051,0.033 0.25952,0.2907 0.89138,0.7969 0.73707,0.5906 1.64274,1.0734 2.01321,1.0734 0.87716,0 0.4857,-0.319 -1.62762,-1.3255 -0.81371,-0.3876 -1.22595,-0.5781 -1.27697,-0.5448 z m 4.38378,1.9283 c -0.37972,0 0.39698,0.5952 1.726,1.3228 1.32903,0.7276 2.72709,1.3228 3.10682,1.3228 0.37972,0 -0.39699,-0.5952 -1.72601,-1.3228 -1.32903,-0.7276 -2.72709,-1.3228 -3.10681,-1.3228 z"
       id="path4215-7"
       inkscape:connector-curvature="0" />
  </g>
</svg>
