<?xml version="1.0" standalone="no"?><!DOCTYPE svg PUBLIC "-//W3C//DTD SVG 1.1//EN" "http://www.w3.org/Graphics/SVG/1.1/DTD/svg11.dtd"><svg xmlns:xlink="http://www.w3.org/1999/xlink" height="400" width="600" xmlns="http://www.w3.org/2000/svg" style="font-family:'lucida grande', 'lucida sans unicode', arial, helvetica, sans-serif;font-size:12px;" version="1.1"><desc>Created with Highcharts 4.0.3</desc><defs><clipPath id="highcharts-75"><rect height="252" width="556" y="0" x="0"></rect></clipPath></defs><rect class=" highcharts-background" fill="#FFFFFF" strokeWidth="0" height="400" width="600" y="0" x="0"></rect><g  class="highcharts-grid"></g><g  class="highcharts-grid"><path opacity="1"  stroke-width="1" stroke="#C0C0C0" d="M 34 45.5 L 590 45.5" fill="none"></path><path opacity="1"  stroke-width="1" stroke="#C0C0C0" d="M 34 96.5 L 590 96.5" fill="none"></path><path opacity="1"  stroke-width="1" stroke="#C0C0C0" d="M 34 147.5 L 590 147.5" fill="none"></path><path opacity="1"  stroke-width="1" stroke="#C0C0C0" d="M 34 197.5 L 590 197.5" fill="none"></path><path opacity="1"  stroke-width="1" stroke="#C0C0C0" d="M 34 248.5 L 590 248.5" fill="none"></path><path opacity="1"  stroke-width="1" stroke="#C0C0C0" d="M 34 298.5 L 590 298.5" fill="none"></path></g><g  class="highcharts-axis"><path opacity="1" stroke-width="1" stroke="#C0D0E0" d="M 192.5 298 L 192.5 308" fill="none"></path><path opacity="1" stroke-width="1" stroke="#C0D0E0" d="M 271.5 298 L 271.5 308" fill="none"></path><path opacity="1" stroke-width="1" stroke="#C0D0E0" d="M 351.5 298 L 351.5 308" fill="none"></path><path opacity="1" stroke-width="1" stroke="#C0D0E0" d="M 430.5 298 L 430.5 308" fill="none"></path><path opacity="1" stroke-width="1" stroke="#C0D0E0" d="M 510.5 298 L 510.5 308" fill="none"></path><path opacity="1" stroke-width="1" stroke="#C0D0E0" d="M 590.5 298 L 590.5 308" fill="none"></path><path opacity="1" stroke-width="1" stroke="#C0D0E0" d="M 112.5 298 L 112.5 308" fill="none"></path><path opacity="1" stroke-width="1" stroke="#C0D0E0" d="M 33.5 298 L 33.5 308" fill="none"></path><path visibility="visible"  stroke-width="1" stroke="#C0D0E0" d="M 34 298.5 L 590 298.5" fill="none"></path></g><g  class="highcharts-axis"><text y="172" visibility="visible" style="color:#707070;fill:#707070;" class=" highcharts-yaxis-title" transform="translate(0,0) rotate(270 24 172)" text-anchor="middle"  x="24">Rank</text></g><g  class="highcharts-series-group"><g clip-path="url(#highcharts-75)" transform="translate(34,46) scale(1 1)"  visibility="visible" class="highcharts-series"><path stroke-linecap="round" stroke-linejoin="round"  stroke-width="2" stroke="#7cb5ec" d="M 39.714285714285715 76.608 L 119.14285714285714 70.56 L 198.57142857142858 81.648 L 278 80.63999999999999 L 357.42857142857144 75.6 L 436.8571428571429 82.656 L 516.2857142857142 46.367999999999995" fill="none"></path></g><g clip-path="none" transform="translate(34,46) scale(1 1)"  visibility="visible" class="highcharts-markers"><path d="M 516 42.367999999999995 C 521.328 42.367999999999995 521.328 50.367999999999995 516 50.367999999999995 C 510.672 50.367999999999995 510.672 42.367999999999995 516 42.367999999999995 Z" fill="#7cb5ec"></path><path d="M 436 78.656 C 441.328 78.656 441.328 86.656 436 86.656 C 430.672 86.656 430.672 78.656 436 78.656 Z" fill="#7cb5ec"></path><path d="M 357 71.6 C 362.328 71.6 362.328 79.6 357 79.6 C 351.672 79.6 351.672 71.6 357 71.6 Z" fill="#7cb5ec"></path><path d="M 278 76.63999999999999 C 283.328 76.63999999999999 283.328 84.63999999999999 278 84.63999999999999 C 272.672 84.63999999999999 272.672 76.63999999999999 278 76.63999999999999 Z" fill="#7cb5ec"></path><path d="M 198 77.648 C 203.328 77.648 203.328 85.648 198 85.648 C 192.672 85.648 192.672 77.648 198 77.648 Z" fill="#7cb5ec"></path><path d="M 119 66.56 C 124.328 66.56 124.328 74.56 119 74.56 C 113.672 74.56 113.672 66.56 119 66.56 Z" fill="#7cb5ec"></path><path d="M 39 72.608 C 44.328 72.608 44.328 80.608 39 80.608 C 33.672 80.608 33.672 72.608 39 72.608 Z" fill="#7cb5ec"></path></g><g clip-path="url(#highcharts-75)" transform="translate(34,46) scale(1 1)"  visibility="visible" class="highcharts-series"><path stroke-linecap="round" stroke-linejoin="round"  stroke-width="2" stroke="#f15c80" d="M 39.714285714285715 167.328 L 119.14285714285714 121.96799999999999 L 198.57142857142858 166.32 L 278 173.376 L 357.42857142857144 143.136 L 436.8571428571429 151.2 L 516.2857142857142 123.98400000000001" fill="none"></path></g><g clip-path="none" transform="translate(34,46) scale(1 1)"  visibility="visible" class="highcharts-markers"><path d="M 516 119.98400000000001 C 521.328 119.98400000000001 521.328 127.98400000000001 516 127.98400000000001 C 510.672 127.98400000000001 510.672 119.98400000000001 516 119.98400000000001 Z" fill="#f15c80"></path><path d="M 436 147.2 C 441.328 147.2 441.328 155.2 436 155.2 C 430.672 155.2 430.672 147.2 436 147.2 Z" fill="#f15c80"></path><path d="M 357 139.136 C 362.328 139.136 362.328 147.136 357 147.136 C 351.672 147.136 351.672 139.136 357 139.136 Z" fill="#f15c80"></path><path d="M 278 169.376 C 283.328 169.376 283.328 177.376 278 177.376 C 272.672 177.376 272.672 169.376 278 169.376 Z" fill="#f15c80"></path><path d="M 198 162.32 C 203.328 162.32 203.328 170.32 198 170.32 C 192.672 170.32 192.672 162.32 198 162.32 Z" fill="#f15c80"></path><path d="M 119 117.96799999999999 C 124.328 117.96799999999999 124.328 125.96799999999999 119 125.96799999999999 C 113.672 125.96799999999999 113.672 117.96799999999999 119 117.96799999999999 Z" fill="#f15c80"></path><path d="M 39 163.328 C 44.328 163.328 44.328 171.328 39 171.328 C 33.672 171.328 33.672 163.328 39 163.328 Z" fill="#f15c80"></path></g><g clip-path="url(#highcharts-75)" transform="translate(34,46) scale(1 1)"  visibility="visible" class="highcharts-series"><path stroke-linecap="round" stroke-linejoin="round"  stroke-width="2" stroke="#434348" d="M 39.714285714285715 97.77600000000001 L 119.14285714285714 94.75200000000001 L 198.57142857142858 121.96799999999999 L 278 98.78399999999999 L 357.42857142857144 84.672 L 436.8571428571429 92.73599999999999 L 516.2857142857142 83.66399999999999" fill="none"></path></g><g clip-path="none" transform="translate(34,46) scale(1 1)"  visibility="visible" class="highcharts-markers"><path d="M 516 79.66399999999999 L 520 83.66399999999999 516 87.66399999999999 512 83.66399999999999 Z" fill="#434348"></path><path d="M 436 88.73599999999999 L 440 92.73599999999999 436 96.73599999999999 432 92.73599999999999 Z" fill="#434348"></path><path d="M 357 80.672 L 361 84.672 357 88.672 353 84.672 Z" fill="#434348"></path><path d="M 278 94.78399999999999 L 282 98.78399999999999 278 102.78399999999999 274 98.78399999999999 Z" fill="#434348"></path><path d="M 198 117.96799999999999 L 202 121.96799999999999 198 125.96799999999999 194 121.96799999999999 Z" fill="#434348"></path><path d="M 119 90.75200000000001 L 123 94.75200000000001 119 98.75200000000001 115 94.75200000000001 Z" fill="#434348"></path><path d="M 39 93.77600000000001 L 43 97.77600000000001 39 101.77600000000001 35 97.77600000000001 Z" fill="#434348"></path></g><g clip-path="url(#highcharts-75)" transform="translate(34,46) scale(1 1)"  visibility="visible" class="highcharts-series"><path stroke-linecap="round" stroke-linejoin="round"  stroke-width="2" stroke="#90ed7d" d="M 39.714285714285715 58.464 L 119.14285714285714 49.391999999999996 L 198.57142857142858 55.44 L 278 45.359999999999985 L 357.42857142857144 23.183999999999997 L 436.8571428571429 28.22399999999999 L 516.2857142857142 21.168000000000006" fill="none"></path></g><g clip-path="none" transform="translate(34,46) scale(1 1)"  visibility="visible" class="highcharts-markers"><path d="M 512 17.168000000000006 L 520 17.168000000000006 520 25.168000000000006 512 25.168000000000006 Z" fill="#90ed7d"></path><path d="M 432 24.22399999999999 L 440 24.22399999999999 440 32.22399999999999 432 32.22399999999999 Z" fill="#90ed7d"></path><path d="M 353 19.183999999999997 L 361 19.183999999999997 361 27.183999999999997 353 27.183999999999997 Z" fill="#90ed7d"></path><path d="M 274 41.359999999999985 L 282 41.359999999999985 282 49.359999999999985 274 49.359999999999985 Z" fill="#90ed7d"></path><path d="M 194 51.44 L 202 51.44 202 59.44 194 59.44 Z" fill="#90ed7d"></path><path d="M 115 45.391999999999996 L 123 45.391999999999996 123 53.391999999999996 115 53.391999999999996 Z" fill="#90ed7d"></path><path d="M 35 54.464 L 43 54.464 43 62.464 35 62.464 Z" fill="#90ed7d"></path></g><g clip-path="url(#highcharts-75)" transform="translate(34,46) scale(1 1)"  visibility="visible" class="highcharts-series"><path stroke-linecap="round" stroke-linejoin="round"  stroke-width="2" stroke="#7cb5ec" d="M 39.714285714285715 163.296 L 119.14285714285714 136.07999999999998 L 198.57142857142858 155.232 L 278 141.12 L 357.42857142857144 127.008 L 436.8571428571429 137.088 L 516.2857142857142 114.912" fill="none"></path></g><g clip-path="none" transform="translate(34,46) scale(1 1)"  visibility="visible" class="highcharts-markers"><path d="M 516 110.912 C 521.328 110.912 521.328 118.912 516 118.912 C 510.672 118.912 510.672 110.912 516 110.912 Z" fill="#7cb5ec"></path><path d="M 436 133.088 C 441.328 133.088 441.328 141.088 436 141.088 C 430.672 141.088 430.672 133.088 436 133.088 Z" fill="#7cb5ec"></path><path d="M 357 123.008 C 362.328 123.008 362.328 131.00799999999998 357 131.00799999999998 C 351.672 131.00799999999998 351.672 123.008 357 123.008 Z" fill="#7cb5ec"></path><path d="M 278 137.12 C 283.328 137.12 283.328 145.12 278 145.12 C 272.672 145.12 272.672 137.12 278 137.12 Z" fill="#7cb5ec"></path><path d="M 198 151.232 C 203.328 151.232 203.328 159.232 198 159.232 C 192.672 159.232 192.672 151.232 198 151.232 Z" fill="#7cb5ec"></path><path d="M 119 132.07999999999998 C 124.328 132.07999999999998 124.328 140.07999999999998 119 140.07999999999998 C 113.672 140.07999999999998 113.672 132.07999999999998 119 132.07999999999998 Z" fill="#7cb5ec"></path><path d="M 39 159.296 C 44.328 159.296 44.328 167.296 39 167.296 C 33.672 167.296 33.672 159.296 39 159.296 Z" fill="#7cb5ec"></path></g><g clip-path="url(#highcharts-75)" transform="translate(34,46) scale(1 1)"  visibility="visible" class="highcharts-series"><path stroke-linecap="round" stroke-linejoin="round"  stroke-width="2" stroke="#7cb5ec" d="M 39.714285714285715 142.128 L 119.14285714285714 111.888 L 198.57142857142858 126 L 278 119.952 L 357.42857142857144 110.88 L 436.8571428571429 123.98400000000001 L 516.2857142857142 104.832" fill="none"></path></g><g clip-path="none" transform="translate(34,46) scale(1 1)"  visibility="visible" class="highcharts-markers"><path d="M 516 100.832 C 521.328 100.832 521.328 108.832 516 108.832 C 510.672 108.832 510.672 100.832 516 100.832 Z" fill="#7cb5ec"></path><path d="M 436 119.98400000000001 C 441.328 119.98400000000001 441.328 127.98400000000001 436 127.98400000000001 C 430.672 127.98400000000001 430.672 119.98400000000001 436 119.98400000000001 Z" fill="#7cb5ec"></path><path d="M 357 106.88 C 362.328 106.88 362.328 114.88 357 114.88 C 351.672 114.88 351.672 106.88 357 106.88 Z" fill="#7cb5ec"></path><path d="M 278 115.952 C 283.328 115.952 283.328 123.952 278 123.952 C 272.672 123.952 272.672 115.952 278 115.952 Z" fill="#7cb5ec"></path><path d="M 198 122 C 203.328 122 203.328 130 198 130 C 192.672 130 192.672 122 198 122 Z" fill="#7cb5ec"></path><path d="M 119 107.888 C 124.328 107.888 124.328 115.888 119 115.888 C 113.672 115.888 113.672 107.888 119 107.888 Z" fill="#7cb5ec"></path><path d="M 39 138.128 C 44.328 138.128 44.328 146.128 39 146.128 C 33.672 146.128 33.672 138.128 39 138.128 Z" fill="#7cb5ec"></path></g><g clip-path="url(#highcharts-75)" transform="translate(34,46) scale(1 1)"  visibility="visible" class="highcharts-series"><path stroke-linecap="round" stroke-linejoin="round"  stroke-width="2" stroke="#8085e9" d="M 39.714285714285715 192.528 L 119.14285714285714 187.488 L 198.57142857142858 184.464 L 278 156.24 L 357.42857142857144 137.088 L 436.8571428571429 161.28 L 516.2857142857142 158.256" fill="none"></path></g><g clip-path="none" transform="translate(34,46) scale(1 1)"  visibility="visible" class="highcharts-markers"><path d="M 512 154.256 L 520 154.256 516 162.256 Z" fill="#8085e9"></path><path d="M 432 157.28 L 440 157.28 436 165.28 Z" fill="#8085e9"></path><path d="M 353 133.088 L 361 133.088 357 141.088 Z" fill="#8085e9"></path><path d="M 274 152.24 L 282 152.24 278 160.24 Z" fill="#8085e9"></path><path d="M 194 180.464 L 202 180.464 198 188.464 Z" fill="#8085e9"></path><path d="M 115 183.488 L 123 183.488 119 191.488 Z" fill="#8085e9"></path><path d="M 35 188.528 L 43 188.528 39 196.528 Z" fill="#8085e9"></path></g><g clip-path="url(#highcharts-75)" transform="translate(34,46) scale(1 1)"  visibility="visible" class="highcharts-series"><path stroke-linecap="round" stroke-linejoin="round"  stroke-width="2" stroke="#90ed7d" d="M 39.714285714285715 94.75200000000001 L 119.14285714285714 87.696 L 198.57142857142858 92.73599999999999 L 278 91.72800000000001 L 357.42857142857144 94.75200000000001 L 436.8571428571429 96.768 L 516.2857142857142 89.71199999999999" fill="none"></path></g><g clip-path="none" transform="translate(34,46) scale(1 1)"  visibility="visible" class="highcharts-markers"><path d="M 512 85.71199999999999 L 520 85.71199999999999 520 93.71199999999999 512 93.71199999999999 Z" fill="#90ed7d"></path><path d="M 432 92.768 L 440 92.768 440 100.768 432 100.768 Z" fill="#90ed7d"></path><path d="M 353 90.75200000000001 L 361 90.75200000000001 361 98.75200000000001 353 98.75200000000001 Z" fill="#90ed7d"></path><path d="M 274 87.72800000000001 L 282 87.72800000000001 282 95.72800000000001 274 95.72800000000001 Z" fill="#90ed7d"></path><path d="M 194 88.73599999999999 L 202 88.73599999999999 202 96.73599999999999 194 96.73599999999999 Z" fill="#90ed7d"></path><path d="M 115 83.696 L 123 83.696 123 91.696 115 91.696 Z" fill="#90ed7d"></path><path d="M 35 90.75200000000001 L 43 90.75200000000001 43 98.75200000000001 35 98.75200000000001 Z" fill="#90ed7d"></path></g><g clip-path="url(#highcharts-75)" transform="translate(34,46) scale(1 1)"  visibility="visible" class="highcharts-series"><path stroke-linecap="round" stroke-linejoin="round"  stroke-width="2" stroke="#f7a35c" d="M 39.714285714285715 51.40799999999999 L 119.14285714285714 42.33600000000001 L 198.57142857142858 37.29599999999999 L 278 20.159999999999997 L 357.42857142857144 17.135999999999996 L 436.8571428571429 21.168000000000006 L 516.2857142857142 18.144000000000005" fill="none"></path></g><g clip-path="none" transform="translate(34,46) scale(1 1)"  visibility="visible" class="highcharts-markers"><path d="M 516 14.144000000000005 L 520 22.144000000000005 512 22.144000000000005 Z" fill="#f7a35c"></path><path d="M 436 17.168000000000006 L 440 25.168000000000006 432 25.168000000000006 Z" fill="#f7a35c"></path><path d="M 357 13.135999999999996 L 361 21.135999999999996 353 21.135999999999996 Z" fill="#f7a35c"></path><path d="M 278 16.159999999999997 L 282 24.159999999999997 274 24.159999999999997 Z" fill="#f7a35c"></path><path d="M 198 33.29599999999999 L 202 41.29599999999999 194 41.29599999999999 Z" fill="#f7a35c"></path><path d="M 119 38.33600000000001 L 123 46.33600000000001 115 46.33600000000001 Z" fill="#f7a35c"></path><path d="M 39 47.40799999999999 L 43 55.40799999999999 35 55.40799999999999 Z" fill="#f7a35c"></path></g><g clip-path="url(#highcharts-75)" transform="translate(34,46) scale(1 1)"  visibility="visible" class="highcharts-series"><path stroke-linecap="round" stroke-linejoin="round"  stroke-width="2" stroke="#434348" d="M 39.714285714285715 221.76 L 119.14285714285714 211.68 L 198.57142857142858 228.816 L 278 216.72 L 357.42857142857144 204.624 L 436.8571428571429 226.8 L 516.2857142857142 235.872" fill="none"></path></g><g clip-path="none" transform="translate(34,46) scale(1 1)"  visibility="visible" class="highcharts-markers"><path d="M 516 231.872 L 520 235.872 516 239.872 512 235.872 Z" fill="#434348"></path><path d="M 436 222.8 L 440 226.8 436 230.8 432 226.8 Z" fill="#434348"></path><path d="M 357 200.624 L 361 204.624 357 208.624 353 204.624 Z" fill="#434348"></path><path d="M 278 212.72 L 282 216.72 278 220.72 274 216.72 Z" fill="#434348"></path><path d="M 198 224.816 L 202 228.816 198 232.816 194 228.816 Z" fill="#434348"></path><path d="M 119 207.68 L 123 211.68 119 215.68 115 211.68 Z" fill="#434348"></path><path d="M 39 217.76 L 43 221.76 39 225.76 35 221.76 Z" fill="#434348"></path></g></g><text y="25" style="color:#333333;font-size:18px;fill:#333333;width:536px;"  class="highcharts-title" text-anchor="middle" x="300"><tspan>Comparison Chart</tspan></text><g transform="translate(53,354)"  class="highcharts-legend"><g ><g><g transform="translate(8,3)"  class="highcharts-legend-item"><path stroke-width="2" stroke="#7cb5ec" d="M 0 11 L 16 11" fill="none"></path><path d="M 8 7 C 13.328 7 13.328 15 8 15 C 2.6719999999999997 15 2.6719999999999997 7 8 7 Z" fill="#7cb5ec"></path><text y="15"  text-anchor="start" style="color:#333333;font-size:12px;font-weight:bold;cursor:pointer;fill:#333333;" x="21">Argentina</text></g><g transform="translate(104.9000015258789,3)"  class="highcharts-legend-item"><path stroke-width="2" stroke="#f15c80" d="M 0 11 L 16 11" fill="none"></path><path d="M 8 7 C 13.328 7 13.328 15 8 15 C 2.6719999999999997 15 2.6719999999999997 7 8 7 Z" fill="#f15c80"></path><text  text-anchor="start" style="color:#333333;font-size:12px;font-weight:bold;cursor:pointer;fill:#333333;" y="15" x="21">Bolivia</text></g><g transform="translate(185.31666946411133,3)"  class="highcharts-legend-item"><path stroke-width="2" stroke="#434348" d="M 0 11 L 16 11" fill="none"></path><path d="M 8 7 L 12 11 8 15 4 11 Z" fill="#434348"></path><text  text-anchor="start" style="color:#333333;font-size:12px;font-weight:bold;cursor:pointer;fill:#333333;" y="15" x="21">Brazil</text></g><g transform="translate(259.2833366394043,3)"  class="highcharts-legend-item"><path stroke-width="2" stroke="#90ed7d" d="M 0 11 L 16 11" fill="none"></path><path d="M 4 7 L 12 7 12 15 4 15 Z" fill="#90ed7d"></path><text  text-anchor="start" style="color:#333333;font-size:12px;font-weight:bold;cursor:pointer;fill:#333333;" y="15" x="21">Chile</text></g><g transform="translate(329.6666717529297,3)"  class="highcharts-legend-item"><path stroke-width="2" stroke="#7cb5ec" d="M 0 11 L 16 11" fill="none"></path><path d="M 8 7 C 13.328 7 13.328 15 8 15 C 2.6719999999999997 15 2.6719999999999997 7 8 7 Z" fill="#7cb5ec"></path><text  text-anchor="start" style="color:#333333;font-size:12px;font-weight:bold;cursor:pointer;fill:#333333;" y="15" x="21">Colombia</text></g><g transform="translate(425.1333427429199,3)"  class="highcharts-legend-item"><path stroke-width="2" stroke="#7cb5ec" d="M 0 11 L 16 11" fill="none"></path><path d="M 8 7 C 13.328 7 13.328 15 8 15 C 2.6719999999999997 15 2.6719999999999997 7 8 7 Z" fill="#7cb5ec"></path><text  text-anchor="start" style="color:#333333;font-size:12px;font-weight:bold;cursor:pointer;fill:#333333;" y="15" x="21">Ecuador</text></g><g transform="translate(8,17)"  class="highcharts-legend-item"><path stroke-width="2" stroke="#8085e9" d="M 0 11 L 16 11" fill="none"></path><path d="M 4 7 L 12 7 8 15 Z" fill="#8085e9"></path><text  text-anchor="start" style="color:#333333;font-size:12px;font-weight:bold;cursor:pointer;fill:#333333;" y="15" x="21">Paraguay</text></g><g transform="translate(102.0333366394043,17)"  class="highcharts-legend-item"><path stroke-width="2" stroke="#90ed7d" d="M 0 11 L 16 11" fill="none"></path><path d="M 4 7 L 12 7 12 15 4 15 Z" fill="#90ed7d"></path><text  text-anchor="start" style="color:#333333;font-size:12px;font-weight:bold;cursor:pointer;fill:#333333;" y="15" x="21">Peru</text></g><g transform="translate(169.55000495910645,17)"  class="highcharts-legend-item"><path stroke-width="2" stroke="#f7a35c" d="M 0 11 L 16 11" fill="none"></path><path d="M 8 7 L 12 15 4 15 Z" fill="#f7a35c"></path><text  text-anchor="start" style="color:#333333;font-size:12px;font-weight:bold;cursor:pointer;fill:#333333;" y="15" x="21">Uruguay</text></g><g transform="translate(258.5666751861572,17)"  class="highcharts-legend-item"><path stroke-width="2" stroke="#434348" d="M 0 11 L 16 11" fill="none"></path><path d="M 8 7 L 12 11 8 15 4 11 Z" fill="#434348"></path><text  text-anchor="start" style="color:#333333;font-size:12px;font-weight:bold;cursor:pointer;fill:#333333;" y="15" x="21"><tspan>Venezuela, RB</tspan></text></g></g></g></g><g  class="highcharts-axis-labels highcharts-xaxis-labels"><text opacity="1" y="318" style="width:59px;color:#606060;cursor:default;font-size:11px;fill:#606060;" text-anchor="middle" x="73.71428571428572"><tspan>Ranking</tspan><tspan x="73.71428571428572" dy="15">2008</tspan></text><text opacity="1" y="318" style="width:59px;color:#606060;cursor:default;font-size:11px;fill:#606060;" text-anchor="middle" x="153.14285714285714"><tspan>Ranking</tspan><tspan x="153.14285714285714" dy="15">2008-2009</tspan></text><text opacity="1" y="318" style="width:59px;color:#606060;cursor:default;font-size:11px;fill:#606060;" text-anchor="middle" x="232.5714285714286"><tspan>Ranking</tspan><tspan x="232.5714285714286" dy="15">2009</tspan></text><text opacity="1" y="318" style="width:59px;color:#606060;cursor:default;font-size:11px;fill:#606060;" text-anchor="middle" x="312"><tspan>Ranking</tspan><tspan x="312" dy="15">2010</tspan></text><text opacity="1" y="318" style="width:59px;color:#606060;cursor:default;font-size:11px;fill:#606060;" text-anchor="middle" x="391.42857142857144"><tspan>Ranking</tspan><tspan x="391.42857142857144" dy="15">2011</tspan></text><text opacity="1" y="318" style="width:59px;color:#606060;cursor:default;font-size:11px;fill:#606060;" text-anchor="middle" x="470.8571428571429"><tspan>Ranking</tspan><tspan x="470.8571428571429" dy="15">2012</tspan></text><text opacity="1" y="318" style="width:59px;color:#606060;cursor:default;font-size:11px;fill:#606060;" text-anchor="middle" x="550.2857142857143"><tspan>Ranking</tspan><tspan x="550.2857142857143" dy="15">2013</tspan></text></g><g  class="highcharts-axis-labels highcharts-yaxis-labels"></g><g transform="translate(0,-9999)" style="cursor:default;padding:0;white-space:nowrap;"  class="highcharts-tooltip"><path transform="translate(1, 1)" stroke-width="5" stroke-opacity="0.049999999999999996" stroke="black"  d="M 3 0 L 13 0 C 16 0 16 0 16 3 L 16 13 C 16 16 16 16 13 16 L 3 16 C 0 16 0 16 0 13 L 0 3 C 0 0 0 0 3 0" fill="none"></path><path transform="translate(1, 1)" stroke-width="3" stroke-opacity="0.09999999999999999" stroke="black"  d="M 3 0 L 13 0 C 16 0 16 0 16 3 L 16 13 C 16 16 16 16 13 16 L 3 16 C 0 16 0 16 0 13 L 0 3 C 0 0 0 0 3 0" fill="none"></path><path transform="translate(1, 1)" stroke-width="1" stroke-opacity="0.15" stroke="black"  d="M 3 0 L 13 0 C 16 0 16 0 16 3 L 16 13 C 16 16 16 16 13 16 L 3 16 C 0 16 0 16 0 13 L 0 3 C 0 0 0 0 3 0" fill="none"></path><path d="M 3 0 L 13 0 C 16 0 16 0 16 3 L 16 13 C 16 16 16 16 13 16 L 3 16 C 0 16 0 16 0 13 L 0 3 C 0 0 0 0 3 0" fill="rgb(249, 249, 249)" fill-opacity=" .85"></path><text y="21" style="font-size:12px;color:#333333;fill:#333333;"  x="8"></text></g></svg>