<?xml version="1.0" encoding="UTF-8" standalone="no"?>
<!-- Created with Inkscape (http://www.inkscape.org/) -->

<svg
   xmlns:dc="http://purl.org/dc/elements/1.1/"
   xmlns:cc="http://creativecommons.org/ns#"
   xmlns:rdf="http://www.w3.org/1999/02/22-rdf-syntax-ns#"
   xmlns:svg="http://www.w3.org/2000/svg"
   xmlns="http://www.w3.org/2000/svg"
   xmlns:sodipodi="http://sodipodi.sourceforge.net/DTD/sodipodi-0.dtd"
   xmlns:inkscape="http://www.inkscape.org/namespaces/inkscape"
   width="2560"
   height="1440"
   id="svg3113"
   version="1.1"
   inkscape:version="0.48.4 r9939"
   sodipodi:docname="2015-09-fibra-art-chanel.svg"
   inkscape:export-filename="/home/francisco/Ãrea de Trabalho/2015-09-fibra-art-chanel.png"
   inkscape:export-xdpi="90"
   inkscape:export-ydpi="90">
  <defs
     id="defs3115" />
  <sodipodi:namedview
     id="base"
     pagecolor="#ffffff"
     bordercolor="#666666"
     borderopacity="1.0"
     inkscape:pageopacity="0.0"
     inkscape:pageshadow="2"
     inkscape:zoom="0.35"
     inkscape:cx="1359.6487"
     inkscape:cy="520"
     inkscape:document-units="px"
     inkscape:current-layer="layer1"
     showgrid="false"
     inkscape:window-width="1855"
     inkscape:window-height="1056"
     inkscape:window-x="65"
     inkscape:window-y="24"
     inkscape:window-maximized="1" />
  <metadata
     id="metadata3118">
    <rdf:RDF>
      <cc:Work
         rdf:about="">
        <dc:format>image/svg+xml</dc:format>
        <dc:type
           rdf:resource="http://purl.org/dc/dcmitype/StillImage" />
        <dc:title></dc:title>
      </cc:Work>
    </rdf:RDF>
  </metadata>
  <g
     inkscape:label="Camada 1"
     inkscape:groupmode="layer"
     id="layer1"
     transform="translate(0,387.63782)">
    <path
       style="fill:none;stroke:#000000;stroke-width:2.67405486px;stroke-linecap:butt;stroke-linejoin:miter;stroke-opacity:1"
       d="M 2879.726,632.09103 C 2526.3099,803.63537 2166.5684,974.37551 1494.7661,1105.4342"
       id="path3014"
       inkscape:connector-curvature="0"
       sodipodi:nodetypes="cc" />
    <path
       style="fill:none;stroke:#000000;stroke-width:2.78013253px;stroke-linecap:butt;stroke-linejoin:miter;stroke-opacity:1"
       d="M 2950.0923,-413.22925 893.76918,1110.5699"
       id="path3016"
       inkscape:connector-curvature="0" />
    <path
       style="fill:none;stroke:#000000;stroke-width:2.55917907px;stroke-linecap:butt;stroke-linejoin:miter;stroke-opacity:1"
       d="m 625.79678,-428.83635 c -60.7274,452.618013 -313.211,611.73018 -70.2774,1529.13815"
       id="path3018"
       inkscape:connector-curvature="0"
       sodipodi:nodetypes="cc" />
    <rect
       style="fill:none;stroke:#000000;stroke-width:2.44004154"
       id="rect3020"
       width="2662.5454"
       height="1464.5385"
       x="-2875.1877"
       y="-1077.0583"
       transform="scale(-1,-1)" />
    <path
       style="fill:#c83737;stroke:#000000;stroke-width:4.9296279"
       d="m 2867.9228,857.71621 0,216.28709 -602.6647,-0.159 -602.6645,-0.1591 53.1276,-12.0347 c 372.4169,-84.36201 725.4099,-211.03248 1100.7344,-394.9951 l 51.4672,-25.22627 0,216.28704 z"
       id="path3156"
       inkscape:connector-curvature="0" />
    <path
       style="fill:#a02c2c;stroke:#000000;stroke-width:4.9296279"
       d="m 2867.9228,143.60945 0,490.63869 -124.5175,58.59106 c -379.3772,178.51406 -691.9952,287.55922 -1056.7217,368.598 l -56.555,12.5661 -337.397,0 c -185.5683,0 -337.39682,-0.7814 -337.39682,-1.7364 0,-1.27 1895.74132,-1408.26645 1910.25922,-1417.77145 1.2808,-0.8386 2.3288,219.26271 2.3288,489.114 z"
       id="path3160"
       inkscape:connector-curvature="0" />
    <path
       style="fill:#782121;stroke:#000000;stroke-width:4.9296279"
       d="m 2867.9228,-371.94675 c 0,13.0353 -73.8224,68.81836 -964.901,729.11778 l -964.90092,715.00257 -192.2295,0 -192.2298,0 -11.4145,-45.7414 c -60.3816,-241.96643 -89.3586,-467.13141 -82.8831,-644.03876 5.5187,-150.76984 23.7108,-253.89594 74.2351,-420.820787 48.4883,-160.198053 89.636,-317.602803 89.6811,-343.060403 0,-3.6413 228.9029,-4.5742 1122.32532,-4.5742 l 1122.3173,0 0,14.1152 z"
       id="path3164"
       inkscape:connector-curvature="0" />
    <path
       style="fill:#d35f5f;stroke:#000000;stroke-width:4.9296279"
       d="m 612.23388,-375.99885 c -1.1621,5.5348 -6.7436,32.2935 -12.4035,59.46385 -5.6604,27.17039 -25.2228,100.4481 -43.4727,162.83935 -60.1154,205.519353 -65.7572,226.284903 -79.0353,290.91524 -35.0696,170.70073 -37.3638,380.74593 -6.394,585.4898 14.3997,95.19885 55.5301,293.77911 70.2971,339.40111 l 3.8494,11.8928 -163.4418,0 -526.29884,28.5715 c 84.533084,-565.90096 45.976935,-945.58182 45.714283,-1482.92246 l 515.220457,-5.71429 198.0779,0 z"
       id="path3170"
       inkscape:connector-curvature="0"
       sodipodi:nodetypes="ccssssccccccc" />
    <path
       style="fill:none;stroke:#000000;stroke-width:4.9296279"
       d="m 2858.2676,-300.96789 c 2.3445,16.59585 4.1471,233.540503 4.0056,482.09922 l -0.257,451.92493 -106.8719,49.4007 C 2357.3909,866.31565 2075.0207,966.80012 1732.732,1046.2936 l -103.854,24.1192 -330.0511,-0.9493 -330.05102,-0.9492 922.01382,-684.29882 C 2397.897,7.8511533 2822.0734,-307.07155 2833.4039,-315.61274 l 20.6008,-15.52941 4.2629,30.17426 0,0 z"
       id="path3172"
       inkscape:connector-curvature="0" />
    <path
       style="fill:none;stroke:#000000;stroke-width:4.9296279"
       d="m 2862.61,859.86894 0,210.47506 -582.7417,-0.07 -582.7418,-0.07 79.6912,-19.2741 c 338.3606,-81.83551 649.3525,-193.68257 991.159,-356.46674 l 94.6333,-45.06873 0,210.47502 z"
       id="path3174"
       inkscape:connector-curvature="0" />
    <path
       style="fill:none;stroke:#000000;stroke-width:4.9296279"
       d="m 2862.61,-375.64435 c 0,3.8616 -28.9766,29.8561 -64.3925,57.76563 -61.2887,48.29837 -629.7856,471.80098 -1476.5084,1099.92671 l -388.28942,288.04561 -187.6066,0.1251 c -103.1835,0.069 -187.6062,-0.7147 -187.6062,-1.7413 0,-1.0266 -10.5423,-48.369 -23.4274,-105.20522 -50.5572,-223.00715 -73.9655,-426.15235 -67.3566,-584.5381 6.8721,-164.67721 16.951,-217.87319 91.3054,-481.89771 29.0148,-103.0277 56.7197,-206.36541 61.5665,-229.63932 4.8468,-23.2739 11.0388,-43.5433 13.7597,-45.0431 2.7212,-1.4999 505.25922,-3.1977 1116.75152,-3.7731 1092.333,-1.0279 1111.804,-0.9234 1111.804,5.9748 z"
       id="path3176"
       inkscape:connector-curvature="0" />
    <path
       style="fill:none;stroke:#000000;stroke-width:4.9296279"
       d="m 601.67438,-357.70225 c -5.995,32.431 -49.2942,195.02497 -82.5872,310.126643 -56.9902,197.029447 -66.7283,257.082737 -71.5012,440.946987 -4.2377,163.24615 3.7703,261.61704 34.7035,426.30975 16.6823,88.81959 46.9371,227.29417 52.9673,242.42937 l 3.2805,8.2335 -156.1886,0 -470.473914,14.2857 c 0,-484.24887 -54.285716,-1019.926324 -54.285716,-1504.17521 l 558.61143,37.14286 190.0404,0 -4.5665,24.7004 z"
       id="path3178"
       inkscape:connector-curvature="0"
       sodipodi:nodetypes="csssscccccccc" />
    <path
       style="fill:none;stroke:#000000;stroke-width:4.9296279"
       d="m 2855.9691,863.14653 0,203.53817 -562.819,-0.059 -562.8188,-0.059 66.4092,-16.532 c 316.483,-78.78558 604.2749,-181.07413 915.5045,-325.39348 65.2257,-30.24574 124.247,-57.25146 131.1582,-60.0127 12.2858,-4.9086 12.5659,-0.48395 12.5659,198.51761 z"
       id="path3180"
       inkscape:connector-curvature="0" />
    <path
       style="fill:none;stroke:#000000;stroke-width:4.9296279"
       d="m 2851.5901,-223.67818 c 2.3935,52.57874 4.3579,266.415783 4.3654,475.19344 l 0.013,379.59575 -94.6332,43.25556 C 2336.1575,868.70958 2086.0669,957.7938 1722.6379,1044.3589 l -94.0253,22.3958 -323.1041,-0.9499 -323.10452,-0.9498 751.76442,-558.04496 c 413.4703,-306.92473 833.0579,-618.3542 932.4169,-692.06545 l 180.6526,-134.02054 4.3519,95.59777 z"
       id="path3182"
       inkscape:connector-curvature="0" />
    <path
       style="fill:none;stroke:#000000;stroke-width:4.9296279"
       d="m 2820.5597,-375.40225 34.3204,2.148 -36.0527,30.3502 C 2766.4912,-298.84585 1400.9251,719.91027 984.56128,1025.5174 l -56.087,41.1673 -181.5123,0 -181.5124,0 -3.5292,-11.8928 c -4.4315,-14.9313 -25.6118,-115.2264 -43.0824,-204.00661 -58.533,-297.44928 -59.8852,-540.11928 -4.2512,-762.966407 15.4968,-62.0727 112.4752,-426.035833 120.0127,-450.411333 l 3.4926,-11.2942 379.52982,-2.4283 c 446.3902,-2.8561 1753.2914,-2.1947 1802.9378,0.9127 z"
       id="path3184"
       inkscape:connector-curvature="0" />
    <path
       style="fill:none;stroke:#000000;stroke-width:4.9296279"
       d="m 598.05238,-373.88175 c 0,9.1488 -33.9353,139.63858 -76.2951,293.372323 -65.5022,237.724117 -72.8131,280.072117 -80.2303,464.732537 -4.7471,118.17892 3.6194,249.62989 23.6391,371.42007 16.1284,98.11827 54.1529,279.63392 63.433,302.80802 l 3.2973,8.2335 -149.5477,0 -538.11873,0 c 0,-481.80928 51.42857,-989.332852 51.42857,-1471.14214 l 519.76856,25.71429 c 147.24941,7.28481 182.6253,0.9366 182.6253,4.8614 z"
       id="path3186"
       inkscape:connector-curvature="0"
       sodipodi:nodetypes="sssscccccss" />
  </g>
  <g
     inkscape:groupmode="layer"
     id="layer3"
     inkscape:label="visible part"
     style="display:none"
     sodipodi:insensitive="true">
    <rect
       style="fill:#ffffff;stroke:#ff4b00;stroke-width:3.625;stroke-miterlimit:4;stroke-opacity:1;stroke-dasharray:none"
       id="rect3246"
       width="1546"
       height="423"
       x="507"
       y="508.5" />
  </g>
  <g
     inkscape:groupmode="layer"
     id="layer2"
     inkscape:label="Camada"
     sodipodi:insensitive="true">
    <text
       xml:space="preserve"
       style="font-size:261.84515381px;font-style:normal;font-weight:normal;line-height:125%;letter-spacing:0px;word-spacing:0px;fill:#ffffff;fill-opacity:1;stroke:#ff4b00;stroke-width:8.55125046;stroke-miterlimit:4;stroke-opacity:1;stroke-dasharray:none;display:inline;font-family:Sans"
       x="963.83362"
       y="805.73993"
       id="text2985"
       sodipodi:linespacing="125%"><tspan
         sodipodi:role="line"
         id="tspan2987"
         x="963.83362"
         y="805.73993">FiBRA</tspan></text>
    <text
       xml:space="preserve"
       style="font-size:63.98996735px;font-style:normal;font-weight:normal;line-height:125%;letter-spacing:0px;word-spacing:0px;fill:#ffffff;fill-opacity:1;stroke:#ff4b00;stroke-width:2.73311591;stroke-miterlimit:4;stroke-opacity:1;stroke-dasharray:none;display:inline;font-family:Sans"
       x="1009.2628"
       y="564.67206"
       id="text2989"
       sodipodi:linespacing="125%"><tspan
         sodipodi:role="line"
         id="tspan2991"
         x="1009.2628"
         y="564.67206"
         style="fill:#ffffff;stroke:#ff4b00;stroke-width:2.73311591;stroke-miterlimit:4;stroke-opacity:1;stroke-dasharray:none">academia</tspan></text>
    <g
       style="font-size:40px;font-style:normal;font-weight:normal;line-height:125%;letter-spacing:0px;word-spacing:0px;fill:#ffffff;fill-opacity:1;stroke:#ff4b00;stroke-width:1.59005558;stroke-miterlimit:4;stroke-opacity:1;stroke-dasharray:none;display:inline;font-family:Sans"
       id="text2993"
       transform="matrix(2.2797946,0,0,2.2797946,572.58903,-754.79958)">
      <path
         d="m 296.51508,710.4007 c 0.89841,-1.61457 1.97263,-2.80597 3.22265,-3.57422 1.24998,-0.76821 2.72133,-1.15232 4.41406,-1.15235 2.27862,3e-5 4.03643,0.80081 5.27344,2.40235 1.23695,1.58856 1.85544,3.85418 1.85547,6.79687 l 0,13.20313 -3.61328,0 0,-13.08594 c -3e-5,-2.09634 -0.37113,-3.65233 -1.11328,-4.66797 -0.74222,-1.01561 -1.87503,-1.52342 -3.39844,-1.52344 -1.862,2e-5 -3.33336,0.61851 -4.41406,1.85547 -1.08075,1.237 -1.62112,2.92319 -1.6211,5.0586 l 0,12.36328 -3.61328,0 0,-13.08594 c -10e-6,-2.10936 -0.37111,-3.66535 -1.11328,-4.66797 -0.7422,-1.01561 -1.88803,-1.52342 -3.4375,-1.52344 -1.83595,2e-5 -3.29428,0.62502 -4.375,1.875 -1.08074,1.237 -1.6211,2.91668 -1.62109,5.03907 l 0,12.36328 -3.61328,0 0,-21.875 3.61328,0 0,3.39843 c 0.8203,-1.34112 1.80337,-2.3307 2.94922,-2.96875 1.14582,-0.63799 2.50649,-0.957 4.08203,-0.95703 1.58852,3e-5 2.93618,0.40367 4.04297,1.21094 1.11977,0.80731 1.94659,1.97919 2.48047,3.51563"
         id="path2998"
         inkscape:connector-curvature="0"
         style="fill:#ffffff;stroke:#ff4b00;stroke-width:1.59005558;stroke-miterlimit:4;stroke-opacity:1;stroke-dasharray:none" />
      <path
         d="m 318.09711,719.44366 0,-13.24218 3.59375,0 0,13.10547 c -10e-6,2.07031 0.40364,3.6263 1.21093,4.66796 0.80729,1.02865 2.01822,1.54298 3.63282,1.54297 1.94009,10e-6 3.47003,-0.61848 4.58984,-1.85547 1.1328,-1.23697 1.6992,-2.92317 1.69922,-5.05859 l 0,-12.40234 3.59375,0 0,21.875 -3.59375,0 0,-3.35938 c -0.87241,1.32813 -1.88804,2.31771 -3.04688,2.96875 -1.14584,0.63802 -2.48048,0.95703 -4.0039,0.95703 -2.51303,0 -4.42058,-0.78125 -5.72266,-2.34375 -1.30209,-1.56249 -1.95313,-3.84765 -1.95312,-6.85547 m 9.04297,-13.76953 0,0"
         id="path3000"
         inkscape:connector-curvature="0"
         style="fill:#ffffff;stroke:#ff4b00;stroke-width:1.59005558;stroke-miterlimit:4;stroke-opacity:1;stroke-dasharray:none" />
      <path
         d="m 357.80414,706.84601 0,3.39844 c -1.01564,-0.52082 -2.07033,-0.91144 -3.16406,-1.17188 -1.09377,-0.2604 -2.22658,-0.3906 -3.39844,-0.39062 -1.78387,2e-5 -3.12501,0.27345 -4.02344,0.82031 -0.88542,0.54689 -1.32813,1.3672 -1.32812,2.46094 -1e-5,0.83334 0.319,1.4909 0.95703,1.97265 0.63801,0.46877 1.92056,0.91798 3.84765,1.34766 l 1.23047,0.27344 c 2.55207,0.54688 4.36196,1.32162 5.42969,2.32421 1.08071,0.9896 1.62107,2.37631 1.62109,4.16016 -2e-5,2.03125 -0.80731,3.63933 -2.42187,4.82422 -1.60158,1.1849 -3.80861,1.77734 -6.6211,1.77734 -1.17188,0 -2.39584,-0.11718 -3.67187,-0.35156 -1.26303,-0.22135 -2.59766,-0.55989 -4.00391,-1.01562 l 0,-3.71094 c 1.32812,0.69011 2.63672,1.21094 3.92578,1.5625 1.28906,0.33854 2.5651,0.50781 3.82813,0.50781 1.6927,0 2.99478,-0.28645 3.90625,-0.85937 0.91144,-0.58594 1.36717,-1.40625 1.36719,-2.46094 -2e-5,-0.97656 -0.33205,-1.72525 -0.9961,-2.2461 -0.65105,-0.52082 -2.08985,-1.02212 -4.3164,-1.5039 l -1.25,-0.29297 c -2.22657,-0.46874 -3.83464,-1.18489 -4.82422,-2.14844 -0.98959,-0.97655 -1.48438,-2.31118 -1.48438,-4.0039 0,-2.05728 0.72917,-3.64582 2.1875,-4.76563 1.45833,-1.11977 3.52864,-1.67966 6.21094,-1.67969 1.32811,3e-5 2.57811,0.0977 3.75,0.29297 1.17186,0.19534 2.25259,0.4883 3.24219,0.87891"
         id="path3002"
         inkscape:connector-curvature="0"
         style="fill:#ffffff;stroke:#ff4b00;stroke-width:1.59005558;stroke-miterlimit:4;stroke-opacity:1;stroke-dasharray:none" />
      <path
         d="m 380.46039,707.04132 0,3.35938 c -1.01565,-0.55988 -2.03778,-0.97655 -3.06641,-1.25 -1.01564,-0.28644 -2.04428,-0.42967 -3.08594,-0.42969 -2.33074,2e-5 -4.14063,0.7422 -5.42968,2.22656 -1.28907,1.47137 -1.9336,3.54168 -1.9336,6.21094 0,2.66928 0.64453,4.7461 1.9336,6.23047 1.28905,1.47135 3.09894,2.20703 5.42968,2.20703 1.04166,0 2.0703,-0.13672 3.08594,-0.41016 1.02863,-0.28645 2.05076,-0.70963 3.06641,-1.26953 l 0,3.32031 c -1.00262,0.46875 -2.04429,0.82032 -3.125,1.05469 -1.06773,0.23438 -2.20705,0.35156 -3.41797,0.35156 -3.29428,0 -5.91147,-1.03515 -7.85156,-3.10547 -1.94011,-2.0703 -2.91016,-4.86327 -2.91016,-8.3789 0,-3.5677 0.97656,-6.37368 2.92969,-8.41797 1.96614,-2.04425 4.65494,-3.06638 8.0664,-3.06641 1.10676,3e-5 2.18749,0.11721 3.24219,0.35157 1.05467,0.22137 2.07681,0.55991 3.06641,1.01562"
         id="path3004"
         inkscape:connector-curvature="0"
         style="fill:#ffffff;stroke:#ff4b00;stroke-width:1.59005558;stroke-miterlimit:4;stroke-opacity:1;stroke-dasharray:none" />
      <path
         d="m 386.37836,719.44366 0,-13.24218 3.59375,0 0,13.10547 c -10e-6,2.07031 0.40364,3.6263 1.21093,4.66796 0.80729,1.02865 2.01822,1.54298 3.63282,1.54297 1.94009,10e-6 3.47003,-0.61848 4.58984,-1.85547 1.1328,-1.23697 1.6992,-2.92317 1.69922,-5.05859 l 0,-12.40234 3.59375,0 0,21.875 -3.59375,0 0,-3.35938 c -0.87241,1.32813 -1.88804,2.31771 -3.04688,2.96875 -1.14584,0.63802 -2.48048,0.95703 -4.0039,0.95703 -2.51303,0 -4.42058,-0.78125 -5.72266,-2.34375 -1.30209,-1.56249 -1.95313,-3.84765 -1.95312,-6.85547 m 9.04297,-13.76953 0,0"
         id="path3006"
         inkscape:connector-curvature="0"
         style="fill:#ffffff;stroke:#ff4b00;stroke-width:1.59005558;stroke-miterlimit:4;stroke-opacity:1;stroke-dasharray:none" />
      <path
         d="m 412.14008,697.68585 3.59375,0 0,30.39063 -3.59375,0 0,-30.39063"
         id="path3008"
         inkscape:connector-curvature="0"
         style="fill:#ffffff;stroke:#ff4b00;stroke-width:1.59005558;stroke-miterlimit:4;stroke-opacity:1;stroke-dasharray:none" />
      <path
         d="m 433.17523,717.08038 c -2.90365,10e-6 -4.91537,0.33205 -6.03515,0.9961 -1.1198,0.66407 -1.6797,1.79688 -1.67969,3.39843 -1e-5,1.27605 0.41666,2.29168 1.25,3.04688 0.84634,0.74219 1.99218,1.11328 3.4375,1.11328 1.99217,0 3.58722,-0.70312 4.78515,-2.10937 1.21093,-1.41927 1.81639,-3.30078 1.81641,-5.64454 l 0,-0.80078 -3.57422,0 m 7.16797,-1.48437 0,12.48047 -3.59375,0 0,-3.32032 c -0.82033,1.32813 -1.84246,2.3112 -3.06641,2.94922 -1.22397,0.625 -2.72136,0.9375 -4.49218,0.9375 -2.23959,0 -4.02345,-0.625 -5.35157,-1.875 -1.3151,-1.26301 -1.97265,-2.94921 -1.97265,-5.05859 0,-2.46093 0.82031,-4.3164 2.46094,-5.56641 1.65364,-1.24998 4.11457,-1.87498 7.38281,-1.875 l 5.03906,0 0,-0.35156 c -2e-5,-1.65363 -0.54689,-2.92967 -1.64062,-3.82812 -1.08075,-0.91144 -2.60418,-1.36717 -4.57032,-1.36719 -1.25001,2e-5 -2.46745,0.14976 -3.65234,0.44922 -1.1849,0.29949 -2.32422,0.74871 -3.41797,1.34765 l 0,-3.32031 c 1.3151,-0.50779 2.59114,-0.88539 3.82813,-1.13281 1.23697,-0.2604 2.44139,-0.3906 3.61328,-0.39063 3.16404,3e-5 5.52732,0.82034 7.08984,2.46094 1.56248,1.64064 2.34373,4.12762 2.34375,7.46094"
         id="path3010"
         inkscape:connector-curvature="0"
         style="fill:#ffffff;stroke:#ff4b00;stroke-width:1.59005558;stroke-miterlimit:4;stroke-opacity:1;stroke-dasharray:none" />
      <path
         d="m 460.44086,709.56085 c -0.40366,-0.23435 -0.84637,-0.40362 -1.32813,-0.50781 -0.46876,-0.11717 -0.9896,-0.17576 -1.5625,-0.17578 -2.03126,2e-5 -3.59376,0.66408 -4.6875,1.99219 -1.08074,1.31512 -1.6211,3.20965 -1.62109,5.68359 l 0,11.52344 -3.61328,0 0,-21.875 3.61328,0 0,3.39843 c 0.7552,-1.3281 1.73827,-2.31117 2.94922,-2.94921 1.21092,-0.65102 2.68228,-0.97654 4.41406,-0.97657 0.24738,3e-5 0.52082,0.0196 0.82031,0.0586 0.29947,0.0261 0.6315,0.0716 0.9961,0.13672 l 0.0195,3.6914"
         id="path3012"
         inkscape:connector-curvature="0"
         style="fill:#ffffff;stroke:#ff4b00;stroke-width:1.59005558;stroke-miterlimit:4;stroke-opacity:1;stroke-dasharray:none" />
    </g>
  </g>
</svg>
