<?xml version="1.0" encoding="UTF-8" standalone="no"?>
<!-- Created with Inkscape (http://www.inkscape.org/) -->

<svg
   xmlns:dc="http://purl.org/dc/elements/1.1/"
   xmlns:cc="http://creativecommons.org/ns#"
   xmlns:rdf="http://www.w3.org/1999/02/22-rdf-syntax-ns#"
   xmlns:svg="http://www.w3.org/2000/svg"
   xmlns="http://www.w3.org/2000/svg"
   xmlns:sodipodi="http://sodipodi.sourceforge.net/DTD/sodipodi-0.dtd"
   xmlns:inkscape="http://www.inkscape.org/namespaces/inkscape"
   width="210mm"
   height="297mm"
   viewBox="0 0 210 297"
   version="1.1"
   id="svg8"
   inkscape:version="0.92.3 (2405546, 2018-03-11)"
   sodipodi:docname="2019-cartaz-treinamentoemfoco-qrcode.svg">
  <defs
     id="defs2">
    <clipPath
       id="clipPath850"
       clipPathUnits="userSpaceOnUse">
      <path
         inkscape:connector-curvature="0"
         id="path848"
         d="M 0,170.077 H 283.466 V 0 H 0 Z" />
    </clipPath>
    <clipPath
       id="clipPath870"
       clipPathUnits="userSpaceOnUse">
      <path
         inkscape:connector-curvature="0"
         id="path868"
         d="M 0,170.077 H 283.466 V 0 H 0 Z" />
    </clipPath>
  </defs>
  <sodipodi:namedview
     id="base"
     pagecolor="#ffffff"
     bordercolor="#666666"
     borderopacity="1.0"
     inkscape:pageopacity="0.0"
     inkscape:pageshadow="2"
     inkscape:zoom="0.49497475"
     inkscape:cx="-8.5794573"
     inkscape:cy="546.86059"
     inkscape:document-units="mm"
     inkscape:current-layer="g842"
     showgrid="false"
     inkscape:window-width="1549"
     inkscape:window-height="838"
     inkscape:window-x="51"
     inkscape:window-y="34"
     inkscape:window-maximized="1" />
  <metadata
     id="metadata5">
    <rdf:RDF>
      <cc:Work
         rdf:about="">
        <dc:format>image/svg+xml</dc:format>
        <dc:type
           rdf:resource="http://purl.org/dc/dcmitype/StillImage" />
        <dc:title></dc:title>
      </cc:Work>
    </rdf:RDF>
  </metadata>
  <g
     inkscape:label="Layer 1"
     inkscape:groupmode="layer"
     id="layer1">
    <g
       transform="matrix(0.35277777,0,0,-0.35277777,49.063895,107.00086)"
       inkscape:label="Cartão_de_visita_9x5_foco"
       id="g842">
      <text
         id="text862"
         style="font-variant:normal;font-weight:bold;font-stretch:normal;font-size:23.865345px;font-family:'Myriad Pro Light';-inkscape-font-specification:MyriadPro-Semibold;writing-mode:lr-tb;fill:#949598;fill-opacity:1;fill-rule:nonzero;stroke:none;stroke-width:2.38653445"
         transform="scale(1,-1)"
         x="-61.82238"
         y="485.41135">
        <tspan
           id="tspan860"
           sodipodi:role="line"
           y="485.41135"
           x="-61.82238 -48.982826 -36.859234 -30.72584 -18.411322 -8.4594698 -0.082737826 8.1985397 20.32213 30.273983 35.214111 41.4907 46.430824 66.382256 72.491776 86.142761 92.252281 100.17319 110.88873 124.46811 132.96417 142.91603 156.37608 166.32793 171.26805 177.54465 182.48479 197.35287 207.85364 221.31369 241.5515 255.51271 267.63632 281.28729 294.93829 307.06189 327.29968 339.6142 353.14587 361.37939"
           style="stroke-width:2.38653445">Palestras | Mini-cursos | Acompanhamento</tspan>
      </text>
      <g
         id="g864"
         transform="matrix(2.3865345,0,0,2.3865345,-179.69237,2.8761064)">
        <g
           clip-path="url(#clipPath870)"
           id="g866">
          <g
             transform="translate(60.8491,72.2871)"
             id="g872">
            <path
               inkscape:connector-curvature="0"
               id="path874"
               style="fill:#949598;fill-opacity:1;fill-rule:nonzero;stroke:none"
               d="M 0,0 -0.741,6.01 H 0.32 L 0.668,2.703 C 0.739,2.078 0.774,1.596 0.802,1.078 h 0.017 c 0.197,0.49 0.428,1.045 0.742,1.668 L 3.166,6.01 H 4.315 L 1.186,0 Z" />
          </g>
          <g
             transform="translate(65.8882,74.0078)"
             id="g876">
            <path
               inkscape:connector-curvature="0"
               id="path878"
               style="fill:#949598;fill-opacity:1;fill-rule:nonzero;stroke:none"
               d="m 0,0 c 0,-0.598 0.321,-1.016 0.848,-1.016 0.775,0 1.292,1.071 1.292,1.936 0,0.445 -0.196,0.998 -0.829,0.998 C 0.481,1.918 0,0.812 0,0 m 3.219,0.918 c 0,-1.471 -1.034,-2.736 -2.515,-2.736 -1.098,0 -1.774,0.757 -1.774,1.791 0,1.472 1.026,2.748 2.506,2.748 1.168,0 1.783,-0.838 1.783,-1.803" />
          </g>
          <g
             transform="translate(72.9868,72.4375)"
             id="g880">
            <path
               inkscape:connector-curvature="0"
               id="path882"
               style="fill:#949598;fill-opacity:1;fill-rule:nonzero;stroke:none"
               d="m 0,0 c -0.249,-0.125 -0.694,-0.248 -1.248,-0.248 -1.088,0 -1.757,0.703 -1.757,1.738 0,1.516 1.151,2.801 2.765,2.801 0.384,0 0.722,-0.098 0.884,-0.17 L 0.376,3.311 c -0.161,0.07 -0.366,0.132 -0.651,0.132 -1.008,0 -1.641,-0.925 -1.641,-1.828 0,-0.65 0.374,-1.017 0.953,-1.017 0.402,0 0.706,0.107 0.928,0.207 z" />
          </g>
          <g
             transform="translate(77.0728,78.4756)"
             id="g884">
            <path
               inkscape:connector-curvature="0"
               id="path886"
               style="fill:#949598;fill-opacity:1;fill-rule:nonzero;stroke:none"
               d="M 0,0 0.642,-1.319 H -0.062 L -0.429,-0.57 H -0.446 L -1.008,-1.319 H -1.783 L -0.723,0 Z m -0.178,-2.97 c 0,0.278 -0.223,0.448 -0.552,0.448 -0.652,0 -1.08,-0.581 -1.206,-1.108 1.071,-0.016 1.758,0.135 1.758,0.652 z m 0.437,-2.97 c -0.428,-0.223 -1.007,-0.346 -1.533,-0.346 -1.205,0 -1.785,0.74 -1.785,1.801 0,1.31 0.963,2.738 2.461,2.738 0.857,0 1.401,-0.5 1.401,-1.223 0,-1.113 -1.168,-1.472 -2.845,-1.435 -0.018,-0.153 0.018,-0.446 0.115,-0.616 0.17,-0.292 0.483,-0.445 0.893,-0.445 0.49,0 0.883,0.125 1.195,0.285 z" />
          </g>
          <g
             transform="translate(83.3872,75.5059)"
             id="g888">
            <path
               inkscape:connector-curvature="0"
               id="path890"
               style="fill:#949598;fill-opacity:1;fill-rule:nonzero;stroke:none"
               d="m 0,0 c 0,0.277 -0.223,0.447 -0.553,0.447 -0.65,0 -1.078,-0.58 -1.204,-1.107 C -0.687,-0.676 0,-0.525 0,-0.008 Z M 0.437,-2.971 C 0.01,-3.193 -0.57,-3.316 -1.097,-3.316 c -1.203,0 -1.784,0.74 -1.784,1.8 0,1.311 0.965,2.739 2.462,2.739 0.856,0 1.4,-0.5 1.4,-1.223 0,-1.113 -1.168,-1.473 -2.844,-1.436 -0.019,-0.152 0.017,-0.445 0.115,-0.615 0.169,-0.293 0.482,-0.445 0.892,-0.445 0.491,0 0.883,0.125 1.195,0.285 z" />
          </g>
          <g
             transform="translate(87.019,73.2598)"
             id="g892">
            <path
               inkscape:connector-curvature="0"
               id="path894"
               style="fill:#949598;fill-opacity:1;fill-rule:nonzero;stroke:none"
               d="m 0,0 c 0.222,-0.125 0.65,-0.295 1.043,-0.295 0.419,0.008 0.669,0.25 0.669,0.535 0,0.276 -0.143,0.446 -0.57,0.668 -0.499,0.268 -0.857,0.633 -0.857,1.133 0,0.838 0.731,1.428 1.757,1.428 0.455,0 0.83,-0.108 1.025,-0.223 L 2.801,2.496 C 2.64,2.586 2.346,2.693 1.988,2.693 1.597,2.693 1.329,2.479 1.329,2.184 c 0,-0.241 0.196,-0.411 0.562,-0.596 0.472,-0.26 0.901,-0.615 0.901,-1.17 0,-0.953 -0.804,-1.488 -1.847,-1.488 -0.508,0.008 -0.981,0.15 -1.213,0.32 z" />
          </g>
          <g
             transform="translate(93.7163,75.5059)"
             id="g896">
            <path
               inkscape:connector-curvature="0"
               id="path898"
               style="fill:#949598;fill-opacity:1;fill-rule:nonzero;stroke:none"
               d="m 0,0 c 0,0.277 -0.223,0.447 -0.553,0.447 -0.65,0 -1.079,-0.58 -1.205,-1.107 C -0.687,-0.676 0,-0.525 0,-0.008 Z m 0.437,-2.971 c -0.428,-0.222 -1.007,-0.345 -1.534,-0.345 -1.204,0 -1.784,0.74 -1.784,1.8 0,1.311 0.963,2.739 2.462,2.739 0.856,0 1.399,-0.5 1.399,-1.223 0,-1.113 -1.167,-1.473 -2.844,-1.436 -0.019,-0.152 0.018,-0.445 0.116,-0.615 0.17,-0.293 0.481,-0.445 0.893,-0.445 0.49,0 0.882,0.125 1.194,0.285 z" />
          </g>
          <g
             transform="translate(99.8081,76.6309)"
             id="g900">
            <path
               inkscape:connector-curvature="0"
               id="path902"
               style="fill:#949598;fill-opacity:1;fill-rule:nonzero;stroke:none"
               d="M 0,0 -0.571,-2.996 C -0.668,-3.514 -0.73,-3.969 -0.785,-4.344 h -0.918 l 0.089,0.758 h -0.018 c -0.42,-0.562 -0.964,-0.855 -1.507,-0.855 -0.632,0 -1.132,0.337 -1.132,1.23 0,0.232 0.026,0.481 0.088,0.775 L -3.72,0 h 1.035 l -0.446,-2.373 c -0.044,-0.215 -0.071,-0.428 -0.071,-0.598 0,-0.357 0.142,-0.617 0.553,-0.617 0.481,0 1.044,0.572 1.212,1.473 L -1.035,0 Z" />
          </g>
          <g
             transform="translate(104.6079,77.7451)"
             id="g904">
            <path
               inkscape:connector-curvature="0"
               id="path906"
               style="fill:#949598;fill-opacity:1;fill-rule:nonzero;stroke:none"
               d="M 0,0 -0.214,-1.114 H 0.767 L 0.606,-1.917 h -0.972 l -0.347,-1.758 c -0.036,-0.197 -0.072,-0.428 -0.072,-0.607 0,-0.239 0.108,-0.391 0.384,-0.391 0.125,0 0.249,0.008 0.357,0.027 l -0.099,-0.822 c -0.152,-0.053 -0.427,-0.088 -0.678,-0.088 -0.713,0 -1.034,0.401 -1.034,0.901 0,0.24 0.027,0.482 0.098,0.802 l 0.374,1.936 h -0.588 l 0.152,0.803 h 0.589 l 0.152,0.802 z" />
          </g>
          <g
             transform="translate(107.1763,77.2539)"
             id="g908">
            <path
               inkscape:connector-curvature="0"
               id="path910"
               style="fill:#949598;fill-opacity:1;fill-rule:nonzero;stroke:none"
               d="m 0,0 c -0.312,0 -0.527,0.232 -0.527,0.554 0,0.374 0.287,0.633 0.625,0.633 C 0.42,1.187 0.65,0.954 0.65,0.624 0.642,0.24 0.357,0 0.009,0 Z m -1.516,-4.967 0.829,4.344 H 0.349 L -0.48,-4.967 Z" />
          </g>
          <g
             transform="translate(108.1753,72.2871)"
             id="g912">
            <path
               inkscape:connector-curvature="0"
               id="path914"
               style="fill:#949598;fill-opacity:1;fill-rule:nonzero;stroke:none"
               d="M 0,0 0.554,2.996 C 0.65,3.514 0.723,3.969 0.767,4.344 H 1.669 L 1.58,3.584 h 0.008 c 0.41,0.582 0.945,0.857 1.507,0.857 0.678,0 0.989,-0.429 1.025,-0.892 0.384,0.597 0.938,0.883 1.535,0.892 0.598,0 1.062,-0.382 1.062,-1.16 0,-0.185 -0.036,-0.508 -0.072,-0.738 L 6.163,0 H 5.155 L 5.61,2.426 c 0.027,0.179 0.063,0.375 0.063,0.553 0,0.365 -0.152,0.615 -0.535,0.615 -0.474,0 -0.999,-0.598 -1.169,-1.516 L 3.577,0 H 2.578 l 0.464,2.461 c 0.036,0.178 0.053,0.348 0.053,0.508 0,0.33 -0.098,0.625 -0.517,0.625 -0.481,0 -1.034,-0.653 -1.195,-1.533 L 1.008,0 Z" />
          </g>
          <g
             transform="translate(118.7632,75.5059)"
             id="g916">
            <path
               inkscape:connector-curvature="0"
               id="path918"
               style="fill:#949598;fill-opacity:1;fill-rule:nonzero;stroke:none"
               d="m 0,0 c 0,0.277 -0.224,0.447 -0.553,0.447 -0.651,0 -1.079,-0.58 -1.204,-1.107 C -0.687,-0.676 0,-0.525 0,-0.008 Z m 0.437,-2.971 c -0.429,-0.222 -1.008,-0.345 -1.535,-0.345 -1.204,0 -1.783,0.74 -1.783,1.8 0,1.311 0.963,2.739 2.462,2.739 0.856,0 1.399,-0.5 1.399,-1.223 0,-1.113 -1.167,-1.473 -2.845,-1.436 -0.017,-0.152 0.018,-0.445 0.117,-0.615 0.17,-0.293 0.48,-0.445 0.891,-0.445 0.491,0 0.883,0.125 1.195,0.285 z" />
          </g>
          <g
             transform="translate(122.2866,72.2871)"
             id="g920">
            <path
               inkscape:connector-curvature="0"
               id="path922"
               style="fill:#949598;fill-opacity:1;fill-rule:nonzero;stroke:none"
               d="M 0,0 0.554,2.996 C 0.65,3.514 0.723,3.969 0.767,4.344 H 1.668 L 1.579,3.584 h 0.009 c 0.41,0.582 0.944,0.857 1.507,0.857 0.677,0 0.989,-0.429 1.025,-0.892 0.384,0.597 0.938,0.883 1.535,0.892 0.598,0 1.062,-0.382 1.062,-1.16 0,-0.185 -0.036,-0.508 -0.072,-0.738 L 6.163,0 H 5.155 L 5.609,2.426 C 5.637,2.605 5.672,2.801 5.672,2.979 5.672,3.344 5.521,3.594 5.137,3.594 4.664,3.594 4.138,2.996 3.97,2.078 L 3.576,0 H 2.577 l 0.464,2.461 c 0.035,0.178 0.054,0.348 0.054,0.508 0,0.33 -0.099,0.625 -0.518,0.625 -0.481,0 -1.034,-0.653 -1.195,-1.533 L 1.008,0 Z" />
          </g>
          <g
             transform="translate(133.1851,75.8809)"
             id="g924">
            <path
               inkscape:connector-curvature="0"
               id="path926"
               style="fill:#949598;fill-opacity:1;fill-rule:nonzero;stroke:none"
               d="m 0,0 c -0.106,0.027 -0.24,0.045 -0.428,0.045 -0.963,0 -1.703,-1.078 -1.703,-2.068 0,-0.456 0.169,-0.831 0.624,-0.831 0.482,0 1.07,0.608 1.276,1.711 z m -0.428,-3.594 c 0.009,0.258 0.045,0.606 0.08,0.981 h -0.026 c -0.428,-0.803 -0.998,-1.078 -1.552,-1.078 -0.776,0 -1.284,0.605 -1.284,1.48 0,1.481 1.033,3.059 3.06,3.059 0.471,0 0.979,-0.09 1.309,-0.198 L 0.714,-1.613 C 0.588,-2.266 0.518,-3.076 0.534,-3.594 Z" />
          </g>
          <g
             transform="translate(136.5571,77.2539)"
             id="g928">
            <path
               inkscape:connector-curvature="0"
               id="path930"
               style="fill:#949598;fill-opacity:1;fill-rule:nonzero;stroke:none"
               d="m 0,0 c -0.312,0 -0.525,0.232 -0.525,0.554 0,0.374 0.284,0.633 0.623,0.633 0.322,0 0.553,-0.233 0.553,-0.563 C 0.642,0.24 0.355,0 0.009,0 Z m -1.517,-4.967 0.83,4.344 h 1.035 l -0.829,-4.344 z" />
          </g>
          <g
             transform="translate(137.6626,73.2598)"
             id="g932">
            <path
               inkscape:connector-curvature="0"
               id="path934"
               style="fill:#949598;fill-opacity:1;fill-rule:nonzero;stroke:none"
               d="m 0,0 c 0.224,-0.125 0.65,-0.295 1.044,-0.295 0.42,0.008 0.669,0.25 0.669,0.535 0,0.276 -0.143,0.446 -0.57,0.668 -0.5,0.268 -0.857,0.633 -0.857,1.133 0,0.838 0.732,1.428 1.756,1.428 0.457,0 0.83,-0.108 1.027,-0.223 L 2.802,2.496 C 2.641,2.586 2.346,2.693 1.99,2.693 1.597,2.693 1.33,2.479 1.33,2.184 1.33,1.943 1.526,1.773 1.893,1.588 2.364,1.328 2.794,0.973 2.794,0.418 2.794,-0.535 1.99,-1.07 0.945,-1.07 c -0.508,0.008 -0.979,0.15 -1.213,0.32 z" />
          </g>
          <g
             transform="translate(144.5044,73.2051)"
             id="g936">
            <path
               inkscape:connector-curvature="0"
               id="path938"
               style="fill:#949598;fill-opacity:1;fill-rule:nonzero;stroke:none"
               d="m 0,0 c 0.16,-0.133 0.394,-0.213 0.696,-0.213 0.803,0 1.462,1.07 1.462,2.041 0,0.402 -0.179,0.848 -0.686,0.848 -0.527,0 -1.096,-0.598 -1.285,-1.614 z m -1.551,-2.684 0.847,4.495 c 0.099,0.517 0.195,1.195 0.25,1.632 H 0.482 L 0.383,2.711 h 0.018 c 0.376,0.518 0.911,0.812 1.473,0.812 0.936,0 1.372,-0.767 1.372,-1.615 0,-1.515 -1.052,-2.926 -2.531,-2.926 -0.403,0 -0.705,0.09 -0.866,0.188 H -0.17 l -0.347,-1.854 z" />
          </g>
          <g
             transform="translate(148.4751,72.2871)"
             id="g940">
            <path
               inkscape:connector-curvature="0"
               id="path942"
               style="fill:#949598;fill-opacity:1;fill-rule:nonzero;stroke:none"
               d="m 0,0 0.508,2.676 c 0.115,0.615 0.169,1.273 0.223,1.668 h 0.9 C 1.604,4.049 1.578,3.746 1.532,3.424 h 0.029 c 0.293,0.59 0.765,1.017 1.364,1.017 0.072,0 0.15,-0.009 0.222,-0.018 L 2.942,3.406 C 2.889,3.416 2.817,3.424 2.745,3.424 2.005,3.424 1.532,2.676 1.364,1.748 L 1.034,0 Z" />
          </g>
          <g
             transform="translate(153.0063,74.0078)"
             id="g944">
            <path
               inkscape:connector-curvature="0"
               id="path946"
               style="fill:#949598;fill-opacity:1;fill-rule:nonzero;stroke:none"
               d="m 0,0 c 0,-0.598 0.319,-1.016 0.846,-1.016 0.777,0 1.293,1.071 1.293,1.936 0,0.445 -0.197,0.998 -0.829,0.998 C 0.479,1.918 0,0.812 0,0 m 3.219,0.918 c 0,-1.471 -1.035,-2.736 -2.516,-2.736 -1.097,0 -1.775,0.757 -1.775,1.791 0,1.472 1.026,2.748 2.508,2.748 1.168,0 1.783,-0.838 1.783,-1.803" />
          </g>
          <g
             transform="translate(160.3091,75.7559)"
             id="g948">
            <path
               inkscape:connector-curvature="0"
               id="path950"
               style="fill:#949598;fill-opacity:1;fill-rule:nonzero;stroke:none"
               d="m 0,0 c -0.124,0.09 -0.337,0.17 -0.597,0.17 -0.891,0 -1.551,-0.99 -1.551,-1.963 0,-0.525 0.205,-0.936 0.695,-0.936 0.465,0 1.016,0.508 1.196,1.409 z M 1.57,2.861 0.661,-1.926 c -0.099,-0.5 -0.169,-1.07 -0.197,-1.543 h -0.953 l 0.088,0.776 h -0.018 c -0.392,-0.598 -0.926,-0.873 -1.488,-0.873 -0.776,0 -1.321,0.632 -1.321,1.613 0,1.525 1.116,2.926 2.712,2.926 0.223,0 0.482,-0.045 0.669,-0.125 l 0.383,2.013 z" />
          </g>
          <g
             transform="translate(166.6421,76.6309)"
             id="g952">
            <path
               inkscape:connector-curvature="0"
               id="path954"
               style="fill:#949598;fill-opacity:1;fill-rule:nonzero;stroke:none"
               d="m 0,0 -0.57,-2.996 c -0.097,-0.518 -0.16,-0.973 -0.213,-1.348 h -0.92 l 0.089,0.758 h -0.017 c -0.419,-0.562 -0.964,-0.855 -1.508,-0.855 -0.634,0 -1.132,0.337 -1.132,1.23 0,0.232 0.027,0.481 0.088,0.775 L -3.719,0 h 1.034 L -3.13,-2.373 c -0.045,-0.215 -0.071,-0.428 -0.071,-0.598 0,-0.357 0.142,-0.617 0.553,-0.617 0.481,0 1.042,0.572 1.212,1.473 L -1.034,0 Z" />
          </g>
          <g
             transform="translate(169.5151,77.7451)"
             id="g956">
            <path
               inkscape:connector-curvature="0"
               id="path958"
               style="fill:#949598;fill-opacity:1;fill-rule:nonzero;stroke:none"
               d="M 0,0 -0.214,-1.114 H 0.768 L 0.606,-1.917 h -0.971 l -0.349,-1.758 c -0.036,-0.197 -0.072,-0.428 -0.072,-0.607 0,-0.239 0.108,-0.391 0.385,-0.391 0.124,0 0.25,0.008 0.356,0.027 l -0.099,-0.822 c -0.15,-0.053 -0.426,-0.088 -0.676,-0.088 -0.714,0 -1.036,0.401 -1.036,0.901 0,0.24 0.028,0.482 0.1,0.802 l 0.373,1.936 h -0.589 l 0.154,0.803 h 0.587 l 0.152,0.802 z" />
          </g>
          <g
             transform="translate(172.0835,77.2539)"
             id="g960">
            <path
               inkscape:connector-curvature="0"
               id="path962"
               style="fill:#949598;fill-opacity:1;fill-rule:nonzero;stroke:none"
               d="m 0,0 c -0.312,0 -0.526,0.232 -0.526,0.554 0,0.374 0.287,0.633 0.625,0.633 C 0.42,1.187 0.65,0.954 0.65,0.624 0.643,0.24 0.357,0 0.009,0 Z m -1.515,-4.967 0.828,4.344 H 0.348 L -0.48,-4.967 Z" />
          </g>
          <g
             transform="translate(174.4028,76.6309)"
             id="g964">
            <path
               inkscape:connector-curvature="0"
               id="path966"
               style="fill:#949598;fill-opacity:1;fill-rule:nonzero;stroke:none"
               d="m 0,0 0.278,-2.16 c 0.054,-0.516 0.107,-0.846 0.124,-1.133 h 0.027 c 0.106,0.277 0.23,0.59 0.472,1.107 L 1.979,0 H 3.131 L 0.714,-4.344 H -0.33 L -1.07,0 Z" />
          </g>
          <g
             transform="translate(178.8101,74.0078)"
             id="g968">
            <path
               inkscape:connector-curvature="0"
               id="path970"
               style="fill:#949598;fill-opacity:1;fill-rule:nonzero;stroke:none"
               d="m 0,0 c 0,-0.598 0.32,-1.016 0.848,-1.016 0.775,0 1.292,1.071 1.292,1.936 0,0.445 -0.196,0.998 -0.828,0.998 C 0.482,1.918 0,0.812 0,0 m 3.22,0.918 c 0,-1.471 -1.034,-2.736 -2.517,-2.736 -1.097,0 -1.773,0.757 -1.773,1.791 0,1.472 1.024,2.748 2.507,2.748 1.167,0 1.783,-0.838 1.783,-1.803" />
          </g>
          <g
             transform="translate(182.8755,73.2598)"
             id="g972">
            <path
               inkscape:connector-curvature="0"
               id="path974"
               style="fill:#949598;fill-opacity:1;fill-rule:nonzero;stroke:none"
               d="m 0,0 c 0.226,-0.125 0.652,-0.295 1.045,-0.295 0.42,0.008 0.668,0.25 0.668,0.535 0,0.276 -0.142,0.446 -0.57,0.668 -0.5,0.268 -0.856,0.633 -0.856,1.133 0,0.838 0.732,1.428 1.758,1.428 0.454,0 0.829,-0.108 1.024,-0.223 L 2.802,2.496 C 2.642,2.586 2.348,2.693 1.991,2.693 1.599,2.693 1.33,2.479 1.33,2.184 1.33,1.943 1.527,1.773 1.893,1.588 2.364,1.328 2.794,0.973 2.794,0.418 c 0,-0.953 -0.803,-1.488 -1.846,-1.488 -0.509,0.008 -0.982,0.15 -1.213,0.32 z" />
          </g>
          <g
             transform="translate(191.8403,75.7559)"
             id="g976">
            <path
               inkscape:connector-curvature="0"
               id="path978"
               style="fill:#949598;fill-opacity:1;fill-rule:nonzero;stroke:none"
               d="m 0,0 c -0.125,0.09 -0.338,0.17 -0.597,0.17 -0.892,0 -1.552,-0.99 -1.552,-1.963 0,-0.525 0.205,-0.936 0.695,-0.936 0.464,0 1.016,0.508 1.195,1.409 z M 1.568,2.861 0.659,-1.926 C 0.562,-2.426 0.49,-2.996 0.464,-3.469 h -0.955 l 0.089,0.776 H -0.42 c -0.392,-0.598 -0.926,-0.873 -1.488,-0.873 -0.776,0 -1.321,0.632 -1.321,1.613 0,1.525 1.116,2.926 2.712,2.926 0.223,0 0.481,-0.045 0.669,-0.125 l 0.382,2.013 z" />
          </g>
          <g
             transform="translate(194.855,74.0078)"
             id="g980">
            <path
               inkscape:connector-curvature="0"
               id="path982"
               style="fill:#949598;fill-opacity:1;fill-rule:nonzero;stroke:none"
               d="m 0,0 c 0,-0.598 0.321,-1.016 0.848,-1.016 0.775,0 1.293,1.071 1.293,1.936 0,0.445 -0.197,0.998 -0.829,0.998 C 0.481,1.918 0,0.812 0,0 m 3.221,0.918 c 0,-1.471 -1.034,-2.736 -2.516,-2.736 -1.095,0 -1.773,0.757 -1.773,1.791 0,1.472 1.025,2.748 2.505,2.748 1.168,0 1.784,-0.838 1.784,-1.803" />
          </g>
          <g
             transform="translate(204.0503,75.8008)"
             id="g984">
            <path
               inkscape:connector-curvature="0"
               id="path986"
               style="fill:#949598;fill-opacity:1;fill-rule:nonzero;stroke:none"
               d="m 0,0 c -0.125,0.07 -0.328,0.115 -0.597,0.115 -0.873,0 -1.55,-0.99 -1.55,-1.988 0,-0.57 0.258,-0.9 0.632,-0.9 0.561,0 1.106,0.623 1.265,1.453 z m -1.006,-5.279 0.526,2.47 h -0.018 c -0.34,-0.535 -0.893,-0.802 -1.408,-0.802 -0.829,0 -1.322,0.685 -1.322,1.613 0,1.418 1.008,2.926 2.873,2.926 0.606,0 1.123,-0.143 1.506,-0.268 L 0.038,-5.279 Z" />
          </g>
          <g
             transform="translate(210.3931,76.6309)"
             id="g988">
            <path
               inkscape:connector-curvature="0"
               id="path990"
               style="fill:#949598;fill-opacity:1;fill-rule:nonzero;stroke:none"
               d="m 0,0 -0.57,-2.996 c -0.099,-0.518 -0.161,-0.973 -0.215,-1.348 h -0.918 l 0.089,0.758 h -0.019 c -0.418,-0.562 -0.963,-0.855 -1.507,-0.855 -0.632,0 -1.132,0.337 -1.132,1.23 0,0.232 0.026,0.481 0.088,0.775 L -3.72,0 h 1.035 L -3.13,-2.373 c -0.046,-0.215 -0.072,-0.428 -0.072,-0.598 0,-0.357 0.142,-0.617 0.553,-0.617 0.482,0 1.043,0.572 1.212,1.473 L -1.034,0 Z" />
          </g>
          <g
             transform="translate(214.0229,75.5059)"
             id="g992">
            <path
               inkscape:connector-curvature="0"
               id="path994"
               style="fill:#949598;fill-opacity:1;fill-rule:nonzero;stroke:none"
               d="m 0,0 c 0,0.277 -0.221,0.447 -0.553,0.447 -0.651,0 -1.079,-0.58 -1.203,-1.107 C -0.687,-0.676 0,-0.525 0,-0.008 Z m 0.437,-2.971 c -0.427,-0.222 -1.008,-0.345 -1.535,-0.345 -1.203,0 -1.781,0.74 -1.781,1.8 0,1.311 0.963,2.739 2.461,2.739 0.855,0 1.4,-0.5 1.4,-1.223 0,-1.113 -1.169,-1.473 -2.844,-1.436 -0.018,-0.152 0.017,-0.445 0.116,-0.615 0.167,-0.293 0.48,-0.445 0.891,-0.445 0.489,0 0.882,0.125 1.195,0.285 z" />
          </g>
          <g
             transform="translate(217.5474,72.2871)"
             id="g996">
            <path
               inkscape:connector-curvature="0"
               id="path998"
               style="fill:#949598;fill-opacity:1;fill-rule:nonzero;stroke:none"
               d="M 0,0 0.562,2.996 C 0.669,3.514 0.731,3.969 0.786,4.344 H 1.703 L 1.613,3.559 h 0.02 c 0.4,0.587 0.954,0.882 1.56,0.882 0.616,0 1.106,-0.375 1.106,-1.195 0,-0.195 -0.036,-0.5 -0.08,-0.723 L 3.736,0 H 2.701 l 0.466,2.451 c 0.026,0.162 0.053,0.35 0.053,0.52 0,0.355 -0.134,0.623 -0.543,0.623 -0.474,0 -1.08,-0.571 -1.268,-1.588 L 1.034,0 Z" />
          </g>
          <g
             transform="translate(227.189,76.6309)"
             id="g1000">
            <path
               inkscape:connector-curvature="0"
               id="path1002"
               style="fill:#949598;fill-opacity:1;fill-rule:nonzero;stroke:none"
               d="m 0,0 -0.57,-2.996 c -0.099,-0.518 -0.161,-0.973 -0.214,-1.348 h -0.919 l 0.088,0.758 h -0.016 c -0.42,-0.562 -0.964,-0.855 -1.509,-0.855 -0.632,0 -1.132,0.337 -1.132,1.23 0,0.232 0.026,0.481 0.088,0.775 L -3.72,0 h 1.034 L -3.13,-2.373 c -0.046,-0.215 -0.071,-0.428 -0.071,-0.598 0,-0.357 0.14,-0.617 0.552,-0.617 0.482,0 1.043,0.572 1.213,1.473 L -1.034,0 Z" />
          </g>
          <g
             transform="translate(227.8501,72.2871)"
             id="g1004">
            <path
               inkscape:connector-curvature="0"
               id="path1006"
               style="fill:#949598;fill-opacity:1;fill-rule:nonzero;stroke:none"
               d="m 0,0 0.562,2.996 c 0.107,0.518 0.169,0.973 0.221,1.348 h 0.92 L 1.612,3.559 h 0.021 c 0.399,0.587 0.951,0.882 1.558,0.882 0.617,0 1.107,-0.375 1.107,-1.195 0,-0.195 -0.036,-0.5 -0.081,-0.723 L 3.735,0 H 2.701 l 0.464,2.451 c 0.026,0.162 0.054,0.35 0.054,0.52 0,0.355 -0.135,0.623 -0.544,0.623 -0.472,0 -1.078,-0.571 -1.266,-1.588 L 1.034,0 Z" />
          </g>
          <g
             transform="translate(236.1528,72.4375)"
             id="g1008">
            <path
               inkscape:connector-curvature="0"
               id="path1010"
               style="fill:#949598;fill-opacity:1;fill-rule:nonzero;stroke:none"
               d="m 0,0 c -0.249,-0.125 -0.695,-0.248 -1.249,-0.248 -1.087,0 -1.757,0.703 -1.757,1.738 0,1.516 1.151,2.801 2.766,2.801 0.383,0 0.721,-0.098 0.883,-0.17 L 0.375,3.311 c -0.16,0.07 -0.365,0.132 -0.649,0.132 -1.01,0 -1.643,-0.925 -1.643,-1.828 0,-0.65 0.375,-1.017 0.953,-1.017 0.402,0 0.705,0.107 0.93,0.207 z" />
          </g>
          <g
             transform="translate(240.3452,75.8809)"
             id="g1012">
            <path
               inkscape:connector-curvature="0"
               id="path1014"
               style="fill:#949598;fill-opacity:1;fill-rule:nonzero;stroke:none"
               d="m 0,0 c -0.106,0.027 -0.241,0.045 -0.428,0.045 -0.963,0 -1.703,-1.078 -1.703,-2.068 0,-0.456 0.168,-0.831 0.624,-0.831 0.483,0 1.071,0.608 1.276,1.711 z m -0.428,-3.594 c 0.008,0.258 0.044,0.606 0.08,0.981 h -0.026 c -0.43,-0.803 -0.998,-1.078 -1.553,-1.078 -0.774,0 -1.284,0.605 -1.284,1.48 0,1.481 1.035,3.059 3.058,3.059 0.472,0 0.982,-0.09 1.312,-0.198 L 0.713,-1.613 C 0.589,-2.266 0.517,-3.076 0.536,-3.594 Z" />
          </g>
          <g
             transform="translate(242.6548,74.1504)"
             id="g1016">
            <path
               inkscape:connector-curvature="0"
               id="path1018"
               style="fill:#949598;fill-opacity:1;fill-rule:nonzero;stroke:none"
               d="M 0,0 0.644,4.146 H 1.776 L 0.821,0 Z m 0.108,-1.961 c -0.366,0 -0.606,0.275 -0.606,0.633 0,0.41 0.303,0.758 0.723,0.758 0.374,0 0.632,-0.268 0.632,-0.651 0,-0.42 -0.312,-0.742 -0.74,-0.742 H 0.108 Z" />
          </g>
          <g
             transform="translate(67.7495,95.751)"
             id="g1020">
            <path
               inkscape:connector-curvature="0"
               id="path1022"
               style="fill:#f15f22;fill-opacity:1;fill-rule:nonzero;stroke:none"
               d="M 0,0 -3.219,-14.979 H -6.58 l 3.313,15.446 h -0.28 c -2.473,0 -4.386,-0.956 -4.386,-4.714 0,-1.189 0.303,-1.376 0.328,-1.586 -1.612,0 -2.498,0.583 -2.498,2.263 0,3.104 2.194,6.067 7.957,6.067 2.824,0 3.686,-0.537 5.973,-0.537 1.072,0 2.077,0.234 2.708,0.491 C 6.487,0.42 5.483,-0.513 3.616,-0.513 2.474,-0.513 1.261,-0.28 0,0" />
          </g>
          <g
             transform="translate(73.6782,92.438)"
             id="g1024">
            <path
               inkscape:connector-curvature="0"
               id="path1026"
               style="fill:#f15f22;fill-opacity:1;fill-rule:nonzero;stroke:none"
               d="M 0,0 -0.303,-1.447 C 0.514,-0.747 1.399,0 2.52,0 c 1.05,0 1.611,-0.863 1.611,-1.75 0,-0.817 -0.538,-1.704 -1.681,-1.704 -1.306,0 -0.654,1.54 -1.353,1.54 -0.701,0 -1.12,-0.35 -1.703,-0.886 l -1.867,-8.867 H -5.834 L -3.36,0 Z" />
          </g>
          <g
             transform="translate(83.6899,91.4116)"
             id="g1028">
            <path
               inkscape:connector-curvature="0"
               id="path1030"
               style="fill:#f15f22;fill-opacity:1;fill-rule:nonzero;stroke:none"
               d="m 0,0 c -1.19,0 -2.334,-2.497 -2.801,-4.807 1.796,0.117 3.384,1.914 3.384,3.85 C 0.583,-0.374 0.443,0 0,0 m -1.354,-8.82 c 1.843,0 2.963,1.027 4.13,2.357 h 0.793 c -1.331,-2.147 -3.313,-4.318 -6.416,-4.318 -2.194,0 -3.64,1.074 -3.64,3.711 0,2.683 1.515,8.307 6.3,8.307 2.077,0 2.566,-1.074 2.566,-2.241 0,-2.683 -2.566,-4.759 -5.366,-4.922 -0.024,-0.327 -0.047,-0.655 -0.047,-0.934 0,-1.587 0.559,-1.96 1.68,-1.96" />
          </g>
          <g
             transform="translate(91.4126,92.438)"
             id="g1032">
            <path
               inkscape:connector-curvature="0"
               id="path1034"
               style="fill:#f15f22;fill-opacity:1;fill-rule:nonzero;stroke:none"
               d="M 0,0 -1.679,-7.934 C -1.75,-8.237 -1.772,-8.47 -1.772,-8.68 c 0,-0.653 0.303,-0.863 0.955,-0.863 0.911,0 1.751,0.885 2.101,2.053 h 0.98 c -1.331,-3.803 -3.64,-4.317 -4.9,-4.317 -1.4,0 -2.498,0.84 -2.498,2.801 0,0.443 0.072,0.956 0.188,1.516 L -3.36,0 Z" />
          </g>
          <g
             transform="translate(90.3638,97.4077)"
             id="g1036">
            <path
               inkscape:connector-curvature="0"
               id="path1038"
               style="fill:#949598;fill-opacity:1;fill-rule:nonzero;stroke:none"
               d="m 0,0 c 1.025,0 1.866,-0.839 1.866,-1.866 0,-1.028 -0.841,-1.843 -1.866,-1.843 -1.027,0 -1.844,0.815 -1.844,1.843 C -1.844,-0.84 -1.027,0 0,0" />
          </g>
          <g
             transform="translate(98.5776,90.4077)"
             id="g1040">
            <path
               inkscape:connector-curvature="0"
               id="path1042"
               style="fill:#f15f22;fill-opacity:1;fill-rule:nonzero;stroke:none"
               d="M 0,0 C -0.841,0 -1.471,-0.98 -1.82,-2.146 L -3.406,-9.637 H -6.768 L -4.294,2.03 h 3.361 L -1.19,0.816 c 0.979,1.121 2.007,1.308 2.73,1.308 1.493,0 2.59,-0.77 2.59,-2.637 0,-1.89 -1.119,-4.714 -1.119,-6.02 0,-0.584 0.232,-0.98 0.932,-0.98 1.027,0 1.448,0.84 1.959,2.053 h 0.982 c -1.308,-3.827 -3.103,-4.317 -4.34,-4.317 -2.03,0 -2.755,1.307 -2.755,2.637 0,1.586 1.051,4.456 1.051,5.95 C 0.84,-0.42 0.56,0 0,0" />
          </g>
          <g
             transform="translate(107.6323,84.7144)"
             id="g1044">
            <path
               inkscape:connector-curvature="0"
               id="path1046"
               style="fill:#f15f22;fill-opacity:1;fill-rule:nonzero;stroke:none"
               d="m 0,0 c 0,-1.796 0.746,-1.82 1.167,-1.82 0.676,0 1.656,0.7 1.937,2.054 l 1.119,5.273 c 0,0.281 -0.21,0.887 -0.956,0.887 C 1.282,6.394 0,2.193 0,0 M 8.051,7.724 6.37,-0.21 C 6.301,-0.514 6.277,-0.746 6.277,-0.957 c 0,-0.653 0.304,-1.003 0.956,-1.003 0.911,0 1.541,1.026 1.89,2.193 h 0.981 c -1.33,-3.803 -3.43,-4.316 -4.691,-4.316 -1.306,0 -2.145,0.746 -2.286,2.146 -0.724,-1.073 -1.82,-2.146 -3.478,-2.146 -1.585,0 -3.102,0.98 -3.102,3.756 0,3.15 1.936,8.167 5.997,8.167 1.33,0 1.89,-0.513 1.89,-1.19 V 6.487 L 4.69,7.724 Z" />
          </g>
          <g
             transform="translate(128.3999,90.4077)"
             id="g1048">
            <path
               inkscape:connector-curvature="0"
               id="path1050"
               style="fill:#f15f22;fill-opacity:1;fill-rule:nonzero;stroke:none"
               d="m 0,0 c -0.84,0 -1.47,-0.98 -1.819,-2.146 l -1.588,-7.491 h -3.359 l 1.703,8.051 c 0.046,0.186 0.07,0.373 0.07,0.583 0,0.513 -0.188,1.027 -0.7,1.027 -0.911,0 -1.54,-1.004 -1.89,-2.17 l -1.586,-7.491 h -3.361 l 2.474,11.667 h 3.36 L -6.954,0.816 c 0.981,1.121 2.03,1.33 2.848,1.33 1.236,0 2.146,-0.559 2.403,-2.006 1.12,1.727 2.38,1.983 3.243,1.983 1.492,0 2.59,-0.769 2.59,-2.637 0,-1.89 -1.119,-4.713 -1.119,-6.02 0,-0.583 0.233,-0.981 0.932,-0.981 1.027,0 1.448,0.84 1.961,2.054 H 6.883 C 5.576,-9.288 3.78,-9.779 2.544,-9.779 c -2.03,0 -2.755,1.308 -2.755,2.639 0,1.585 1.051,4.456 1.051,5.95 C 0.84,-0.42 0.561,0 0,0" />
          </g>
          <g
             transform="translate(140.4888,91.4116)"
             id="g1052">
            <path
               inkscape:connector-curvature="0"
               id="path1054"
               style="fill:#f15f22;fill-opacity:1;fill-rule:nonzero;stroke:none"
               d="m 0,0 c -1.189,0 -2.333,-2.497 -2.8,-4.807 1.796,0.117 3.384,1.914 3.384,3.85 C 0.584,-0.374 0.444,0 0,0 m -1.353,-8.82 c 1.843,0 2.963,1.027 4.13,2.357 h 0.794 c -1.332,-2.147 -3.313,-4.318 -6.417,-4.318 -2.193,0 -3.641,1.074 -3.641,3.711 0,2.683 1.518,8.307 6.301,8.307 2.077,0 2.567,-1.074 2.567,-2.241 0,-2.683 -2.567,-4.759 -5.368,-4.922 -0.023,-0.327 -0.045,-0.655 -0.045,-0.934 0,-1.587 0.558,-1.96 1.679,-1.96" />
          </g>
          <g
             transform="translate(149.147,90.4077)"
             id="g1056">
            <path
               inkscape:connector-curvature="0"
               id="path1058"
               style="fill:#f15f22;fill-opacity:1;fill-rule:nonzero;stroke:none"
               d="M 0,0 C -0.84,0 -1.471,-0.98 -1.819,-2.146 L -3.406,-9.637 H -6.768 L -4.294,2.03 h 3.361 L -1.19,0.816 c 0.98,1.121 2.006,1.308 2.729,1.308 1.494,0 2.591,-0.77 2.591,-2.637 0,-1.89 -1.12,-4.714 -1.12,-6.02 0,-0.584 0.232,-0.98 0.934,-0.98 1.026,0 1.447,0.84 1.959,2.053 H 6.884 C 5.577,-9.287 3.78,-9.777 2.545,-9.777 c -2.032,0 -2.755,1.307 -2.755,2.637 0,1.586 1.05,4.456 1.05,5.95 C 0.84,-0.42 0.56,0 0,0" />
          </g>
          <g
             transform="translate(160.7915,96.125)"
             id="g1060">
            <path
               inkscape:connector-curvature="0"
               id="path1062"
               style="fill:#f15f22;fill-opacity:1;fill-rule:nonzero;stroke:none"
               d="M 0,0 -0.793,-3.687 H 0.606 L 0.42,-4.621 h -1.4 l -1.492,-7 c -0.071,-0.303 -0.095,-0.535 -0.095,-0.746 0,-0.654 0.304,-0.863 0.958,-0.863 0.911,0 1.75,0.885 2.1,2.053 h 0.98 c -1.33,-3.802 -3.64,-4.317 -4.901,-4.317 -1.398,0 -2.495,0.841 -2.495,2.801 0,0.443 0.069,0.957 0.186,1.516 l 1.4,6.556 H -5.11 l 0.187,0.934 h 0.769 l 0.7,3.22 z" />
          </g>
          <g
             transform="translate(168.2612,87.6318)"
             id="g1064">
            <path
               inkscape:connector-curvature="0"
               id="path1066"
               style="fill:#f15f22;fill-opacity:1;fill-rule:nonzero;stroke:none"
               d="m 0,0 c -0.376,0.14 -0.562,0.466 -0.562,1.05 0,0.629 0.258,1.026 0.653,1.213 -0.045,0.98 -0.303,1.329 -0.887,1.329 -1.655,0 -3.032,-4.27 -3.032,-6.556 0,-1.541 0.303,-1.89 1.189,-1.89 1.143,0 2.287,2.1 2.639,4.854 m 1.981,1.866 c 0.817,0.163 1.401,1.167 1.658,1.61 H 4.385 C 3.918,2.473 3.219,1.026 1.981,0.349 1.703,-4.132 -0.632,-6.954 -3.571,-6.954 c -2.17,0 -3.735,1.027 -3.735,3.686 0,2.684 1.519,8.284 6.325,8.284 1.843,0.001 2.822,-1.073 2.962,-3.15" />
          </g>
          <g
             transform="translate(183.894,91.4116)"
             id="g1068">
            <path
               inkscape:connector-curvature="0"
               id="path1070"
               style="fill:#f15f22;fill-opacity:1;fill-rule:nonzero;stroke:none"
               d="m 0,0 c -1.188,0 -2.333,-2.497 -2.801,-4.807 1.8,0.117 3.385,1.914 3.385,3.85 C 0.585,-0.374 0.444,0 0,0 m -1.353,-8.82 c 1.843,0 2.964,1.027 4.13,2.357 H 3.57 c -1.329,-2.147 -3.313,-4.318 -6.416,-4.318 -2.194,0 -3.639,1.074 -3.639,3.711 0,2.683 1.515,8.307 6.298,8.307 2.077,0 2.567,-1.074 2.567,-2.241 0,-2.683 -2.567,-4.759 -5.366,-4.922 -0.024,-0.327 -0.047,-0.655 -0.047,-0.934 0,-1.587 0.56,-1.96 1.68,-1.96" />
          </g>
          <g
             transform="translate(198.3159,90.4077)"
             id="g1072">
            <path
               inkscape:connector-curvature="0"
               id="path1074"
               style="fill:#f15f22;fill-opacity:1;fill-rule:nonzero;stroke:none"
               d="m 0,0 c -0.839,0 -1.471,-0.98 -1.82,-2.146 l -1.587,-7.491 h -3.359 l 1.702,8.051 c 0.046,0.186 0.072,0.373 0.072,0.583 0,0.513 -0.189,1.027 -0.701,1.027 -0.911,0 -1.54,-1.004 -1.891,-2.17 l -1.587,-7.491 h -3.359 l 2.473,11.667 h 3.36 L -6.954,0.816 c 0.979,1.121 2.029,1.33 2.848,1.33 1.235,0 2.147,-0.559 2.403,-2.006 1.12,1.727 2.38,1.983 3.242,1.983 1.494,0 2.591,-0.769 2.591,-2.637 0,-1.89 -1.12,-4.713 -1.12,-6.02 0,-0.583 0.233,-0.981 0.934,-0.981 0.396,0 0.629,0.047 0.769,0.141 -0.21,-1.68 -1.329,-2.403 -2.567,-2.403 -1.795,0 -2.356,1.307 -2.356,2.637 0,1.586 1.051,4.456 1.051,5.95 C 0.84,-0.42 0.561,0 0,0" />
          </g>
          <g
             transform="translate(219.1782,91.2715)"
             id="g1076">
            <path
               inkscape:connector-curvature="0"
               id="path1078"
               style="fill:#f15f22;fill-opacity:1;fill-rule:nonzero;stroke:none"
               d="M 0,0 -0.373,-1.727 H -3.779 L -5.67,-10.501 H -9.03 L -5.67,5.087 C -7.467,5.016 -8.703,3.99 -8.703,0.257 c 0,-1.191 0.302,-1.377 0.326,-1.587 -1.609,0 -2.496,0.583 -2.496,2.263 C -10.873,4.037 -8.68,7 -2.917,7 -1.983,7 -0.515,6.72 0.956,6.72 1.679,6.72 2.402,6.79 3.055,7 2.729,6.02 2.659,4.597 0.84,4.2 -0.235,4.2 -1.354,4.41 -2.427,4.643 L -3.408,0 Z" />
          </g>
          <g
             transform="translate(225.8521,87.6318)"
             id="g1080">
            <path
               inkscape:connector-curvature="0"
               id="path1082"
               style="fill:#f15f22;fill-opacity:1;fill-rule:nonzero;stroke:none"
               d="m 0,0 c -0.489,0.116 -0.629,0.513 -0.629,0.979 0,0.654 0.303,1.074 0.724,1.261 -0.046,0.98 -0.28,1.353 -0.887,1.353 -1.656,0 -3.104,-4.27 -3.104,-6.556 0,-1.541 0.302,-1.891 1.19,-1.891 1.143,0 2.335,2.1 2.706,4.854 M 2.01,1.283 C 2.101,1.236 2.193,1.236 2.265,1.236 c 1.074,0 2.589,0.7 3.593,1.4 L 6.067,2.006 C 5.181,1.049 3.641,0.349 1.938,0.069 1.564,-4.248 -0.768,-6.954 -3.639,-6.954 c -2.171,0 -3.732,1.027 -3.732,3.686 0,2.684 1.586,8.284 6.393,8.284 C 1.026,5.017 2.01,3.732 2.01,1.283" />
          </g>
          <g
             transform="translate(235.8403,90.4551)"
             id="g1084">
            <path
               inkscape:connector-curvature="0"
               id="path1086"
               style="fill:#f15f22;fill-opacity:1;fill-rule:nonzero;stroke:none"
               d="m 0,0 c 0,0.583 -0.208,0.957 -0.653,0.957 -1.47,0 -2.988,-4.271 -2.988,-6.861 0,-1.586 0.562,-1.959 1.681,-1.959 1.843,0 2.963,1.026 4.131,2.356 h 0.792 c -1.33,-2.146 -3.313,-4.317 -6.416,-4.317 -2.193,0 -3.641,1.074 -3.641,3.71 0,2.707 1.54,8.307 6.28,8.307 2.074,0 2.587,-1.073 2.587,-2.146 0,-1.144 -0.558,-1.703 -1.235,-1.703 -0.256,0 -0.536,0.093 -0.816,0.279 C -0.093,-0.864 0,-0.397 0,0" />
          </g>
          <g
             transform="translate(244.9878,87.6318)"
             id="g1088">
            <path
               inkscape:connector-curvature="0"
               id="path1090"
               style="fill:#f15f22;fill-opacity:1;fill-rule:nonzero;stroke:none"
               d="m 0,0 c -0.372,0.14 -0.559,0.466 -0.559,1.05 0,0.629 0.256,1.026 0.652,1.213 -0.045,0.98 -0.303,1.329 -0.885,1.329 -1.657,0 -3.034,-4.27 -3.034,-6.556 0,-1.541 0.303,-1.89 1.189,-1.89 1.145,0 2.287,2.1 2.637,4.854 M 1.983,1.866 C 2.8,2.029 3.384,3.033 3.64,3.476 H 4.388 C 3.922,2.473 3.22,1.026 1.983,0.349 1.703,-4.132 -0.629,-6.954 -3.57,-6.954 c -2.167,0 -3.732,1.027 -3.732,3.686 0,2.684 1.517,8.284 6.322,8.284 1.844,0.001 2.824,-1.073 2.963,-3.15" />
          </g>
          <g
             transform="translate(57.2886,72.6016)"
             id="g1092">
            <path
               inkscape:connector-curvature="0"
               id="path1094"
               style="fill:#f16022;fill-opacity:1;fill-rule:nonzero;stroke:none"
               d="m 0,0 c -0.272,0 -0.543,0.105 -0.749,0.311 l -5.903,5.902 c -0.413,0.414 -0.413,1.084 0,1.498 0.414,0.414 1.085,0.414 1.499,0 L 0.749,1.809 C 1.163,1.396 1.163,0.727 0.749,0.311 0.542,0.105 0.271,0 0,0" />
          </g>
          <g
             transform="translate(44.5698,95.2788)"
             id="g1096">
            <path
               inkscape:connector-curvature="0"
               id="path1098"
               style="fill:#f16022;fill-opacity:1;fill-rule:nonzero;stroke:none"
               d="m 0,0 c -4.787,0 -8.682,-3.894 -8.682,-8.681 0,-4.787 3.895,-8.682 8.682,-8.682 4.786,0 8.68,3.895 8.68,8.682 C 8.68,-3.894 4.786,0 0,0 m 0,-19.158 c -5.779,0 -10.479,4.701 -10.479,10.478 0,5.776 4.7,10.476 10.479,10.476 5.777,0 10.476,-4.7 10.476,-10.476 0,-5.777 -4.699,-10.478 -10.476,-10.478" />
          </g>
          <g
             transform="translate(44.5698,85.6997)"
             id="g1100">
            <path
               inkscape:connector-curvature="0"
               id="path1102"
               style="fill:#f16022;fill-opacity:1;fill-rule:nonzero;stroke:none"
               d="m 0,0 c -0.495,0 -0.898,0.402 -0.898,0.899 v 6.48 c 0,0.496 0.403,0.898 0.898,0.898 0.496,0 0.896,-0.402 0.896,-0.898 V 0.899 C 0.896,0.402 0.496,0 0,0" />
          </g>
          <g
             transform="translate(44.5698,94.6963)"
             id="g1104">
            <path
               inkscape:connector-curvature="0"
               id="path1106"
               style="fill:#f16022;fill-opacity:1;fill-rule:nonzero;stroke:none"
               d="M 0,0 C -0.495,0 -0.898,0.402 -0.898,0.899 V 1.48 c 0,0.497 0.403,0.899 0.898,0.899 0.496,0 0.896,-0.402 0.896,-0.899 V 0.899 C 0.896,0.402 0.496,0 0,0" />
          </g>
          <g
             transform="translate(44.5698,76.1211)"
             id="g1108">
            <path
               inkscape:connector-curvature="0"
               id="path1110"
               style="fill:#f16022;fill-opacity:1;fill-rule:nonzero;stroke:none"
               d="m 0,0 c -0.495,0 -0.898,0.402 -0.898,0.898 v 0.583 c 0,0.496 0.403,0.898 0.898,0.898 0.496,0 0.896,-0.402 0.896,-0.898 V 0.898 C 0.896,0.402 0.496,0 0,0" />
          </g>
          <g
             transform="translate(54.1479,85.7007)"
             id="g1112">
            <path
               inkscape:connector-curvature="0"
               id="path1114"
               style="fill:#f16022;fill-opacity:1;fill-rule:nonzero;stroke:none"
               d="m 0,0 h -0.583 c -0.498,0 -0.898,0.403 -0.898,0.899 0,0.496 0.4,0.897 0.898,0.897 H 0 C 0.494,1.796 0.897,1.395 0.897,0.899 0.897,0.403 0.494,0 0,0" />
          </g>
          <g
             transform="translate(35.5718,85.7007)"
             id="g1116">
            <path
               inkscape:connector-curvature="0"
               id="path1118"
               style="fill:#f16022;fill-opacity:1;fill-rule:nonzero;stroke:none"
               d="m 0,0 h -0.583 c -0.496,0 -0.897,0.403 -0.897,0.899 0,0.496 0.401,0.897 0.897,0.897 H 0 C 0.497,1.796 0.897,1.395 0.897,0.899 0.897,0.403 0.497,0 0,0" />
          </g>
          <g
             transform="translate(41.8569,82.9873)"
             id="g1120">
            <path
               inkscape:connector-curvature="0"
               id="path1122"
               style="fill:#f16022;fill-opacity:1;fill-rule:nonzero;stroke:none"
               d="m 0,0 c -0.231,0 -0.46,0.089 -0.636,0.264 -0.35,0.35 -0.35,0.919 0,1.269 l 2.608,2.606 c 0.349,0.351 0.917,0.351 1.269,0 0.351,-0.351 0.351,-0.919 0,-1.269 L 0.635,0.264 C 0.46,0.089 0.229,0 0,0" />
          </g>
          <g
             transform="translate(72.1421,99.5547)"
             id="g1124">
            <path
               inkscape:connector-curvature="0"
               id="path1126"
               style="fill:#f16022;fill-opacity:1;fill-rule:nonzero;stroke:none"
               d="M 0,0 4.609,-2.662 0,-5.323 Z" />
          </g>
          <g
             transform="translate(220.3091,99.5547)"
             id="g1128">
            <path
               inkscape:connector-curvature="0"
               id="path1130"
               style="fill:#f16022;fill-opacity:1;fill-rule:nonzero;stroke:none"
               d="M 0,0 4.61,-2.662 0,-5.323 Z" />
          </g>
        </g>
      </g>
      <text
         xml:space="preserve"
         style="font-style:normal;font-weight:normal;font-size:30px;line-height:1.25;font-family:sans-serif;letter-spacing:0px;word-spacing:0px;fill:#000000;fill-opacity:1;stroke:none;stroke-width:0.75"
         x="-134.53307"
         y="-65.996056"
         id="text1279"
         transform="scale(1,-1)"><tspan
           sodipodi:role="line"
           id="tspan1277"
           x="-134.53307"
           y="-65.996056"
           style="stroke-width:0.75">* ESTUDE COM FOCO</tspan><tspan
           sodipodi:role="line"
           x="-134.53307"
           y="-28.496056"
           style="stroke-width:0.75"
           id="tspan1281">* MELHOR DESEMPRENHO EM PROVAS</tspan><tspan
           sodipodi:role="line"
           x="-134.53307"
           y="9.0039454"
           style="stroke-width:0.75"
           id="tspan1283">* TENHA MAIS CHANCE NO VESTIBULAR</tspan></text>
    </g>
  </g>
</svg>
