<?xml version="1.0" encoding="UTF-8" standalone="no"?>
<!-- Created with Inkscape (http://www.inkscape.org/) -->

<svg
   xmlns:dc="http://purl.org/dc/elements/1.1/"
   xmlns:cc="http://creativecommons.org/ns#"
   xmlns:rdf="http://www.w3.org/1999/02/22-rdf-syntax-ns#"
   xmlns:svg="http://www.w3.org/2000/svg"
   xmlns="http://www.w3.org/2000/svg"
   xmlns:sodipodi="http://sodipodi.sourceforge.net/DTD/sodipodi-0.dtd"
   xmlns:inkscape="http://www.inkscape.org/namespaces/inkscape"
   width="200mm"
   height="200mm"
   viewBox="0 0 708.66142 708.66141"
   id="svg4774"
   version="1.1"
   inkscape:version="0.91 r13725"
   sodipodi:docname="brf5sites-logo-2016-ovo(quadrado).svg">
  <defs
     id="defs4776" />
  <sodipodi:namedview
     id="base"
     pagecolor="#ffffff"
     bordercolor="#666666"
     borderopacity="1.0"
     inkscape:pageopacity="0.0"
     inkscape:pageshadow="2"
     inkscape:zoom="0.35"
     inkscape:cx="-109.28571"
     inkscape:cy="405.71429"
     inkscape:document-units="px"
     inkscape:current-layer="layer1"
     showgrid="false"
     inkscape:window-width="1301"
     inkscape:window-height="744"
     inkscape:window-x="65"
     inkscape:window-y="24"
     inkscape:window-maximized="1" />
  <metadata
     id="metadata4779">
    <rdf:RDF>
      <cc:Work
         rdf:about="">
        <dc:format>image/svg+xml</dc:format>
        <dc:type
           rdf:resource="http://purl.org/dc/dcmitype/StillImage" />
        <dc:title></dc:title>
      </cc:Work>
    </rdf:RDF>
  </metadata>
  <g
     inkscape:label="Layer 1"
     inkscape:groupmode="layer"
     id="layer1"
     transform="translate(0,-343.70079)">
    <ellipse
       style="fill:#1a1a1a;fill-opacity:1;stroke:none;stroke-width:9.73371506;stroke-linecap:round;stroke-linejoin:round;stroke-miterlimit:4;stroke-dasharray:none;stroke-dashoffset:0;stroke-opacity:1"
       id="path5348"
       cx="494.32248"
       cy="609.6524"
       rx="341.89029"
       ry="217.60457"
       transform="matrix(0.97757651,0.21058054,-0.21058054,0.97757651,0,0)" />
    <g
       transform="translate(96.284139,-3565.0366)"
       id="g5318-3-3">
      <path
         inkscape:connector-curvature="0"
         id="path7871-57-0-4-7-8-8-8-3-6"
         d="m 102.09243,4302.0303 c -11.093638,-0.4373 -20.467648,-1.4843 -25.593718,-2.8587 -2.1819,-0.5849 -2.55007,-0.7936 -3.24068,-1.8373 -2.01664,-3.0472 -2.90984,-7.4796 -3.17146,-15.7368 -0.16647,-5.2631 -0.12094,-6.0795 0.48471,-8.4977 3.58555,-14.3364 19.19804,-25.4548 41.120328,-29.2839 4.85814,-0.8484 15.49895,-1.1783 20.6436,-0.6402 10.92207,1.1428 21.23973,4.852 28.62971,10.2922 l 1.92938,1.4204 -2.31158,1.4171 c -1.27134,0.7793 -2.99079,2.0796 -3.82088,2.8898 -2.87549,2.8057 -3.75151,5.0931 -4.48138,11.7016 -0.25812,2.3367 -0.54483,4.7105 -0.63733,5.2748 -0.14897,0.9036 0.021,1.2265 1.4203,2.7055 0.87373,0.9238 1.58853,1.7619 1.58853,1.8621 0,0.1005 -2.47856,2.182 -5.50773,4.6261 -5.47673,4.4186 -6.29876,5.3901 -4.98641,5.8938 0.45036,0.1735 7.35563,-0.9683 8.56336,-1.4149 0.31386,-0.1157 0.37291,0.021 0.2187,0.5059 -0.14897,0.4711 0.11911,1.1812 0.92001,2.4333 0.87618,1.3696 1.00411,1.7329 0.56812,1.6121 -0.30965,-0.085 -1.22667,-0.246 -2.03801,-0.3563 -1.31115,-0.1777 -1.51705,-0.1233 -1.85071,0.5016 -0.24305,0.4542 -0.31227,1.4554 -0.19626,2.8394 l 0.17926,2.1376 -1.16112,0.3286 c -6.90054,1.9535 -28.17481,2.9362 -47.26874,2.1839 z"
         style="fill:#03659c;fill-opacity:1;stroke:none;stroke-width:2.08899999;stroke-linecap:round;stroke-linejoin:round;stroke-miterlimit:4;stroke-dasharray:none;stroke-dashoffset:0;stroke-opacity:1" />
      <ellipse
         ry="57.265224"
         rx="41.069"
         cy="4249.4468"
         cx="53.479317"
         id="path8189-1-5-0-6-0-7-7"
         style="fill:#ffff00;fill-opacity:1;stroke:none;stroke-width:2.08899999;stroke-linecap:round;stroke-linejoin:round;stroke-miterlimit:4;stroke-dasharray:none;stroke-dashoffset:0;stroke-opacity:1" />
      <ellipse
         transform="matrix(0.81231496,0.58321901,-0.58321901,0.81231496,0,0)"
         ry="37.598381"
         rx="54.951477"
         cy="3462.603"
         cx="2489.2229"
         id="path8191-7-4-5-8-4-3-5"
         style="fill:#008000;fill-opacity:1;stroke:none;stroke-width:2.08899999;stroke-linecap:round;stroke-linejoin:round;stroke-miterlimit:4;stroke-dasharray:none;stroke-dashoffset:0;stroke-opacity:1" />
      <text
         sodipodi:linespacing="125%"
         id="text7846-42-6-4-6-1-8-66-3-7-2-3"
         y="4307.3594"
         x="177.42937"
         style="font-style:normal;font-weight:normal;font-size:104.44138336px;line-height:125%;font-family:sans-serif;letter-spacing:0px;word-spacing:0px;fill:#ececec;fill-opacity:1;stroke:none;stroke-width:4.0999999;stroke-linecap:butt;stroke-linejoin:miter;stroke-miterlimit:4;stroke-dasharray:none;stroke-opacity:1"
         xml:space="preserve"><tspan
           style="font-style:normal;font-variant:normal;font-weight:normal;font-stretch:normal;font-family:'Arial Black';-inkscape-font-specification:'Arial Black, ';fill:#ececec;fill-opacity:1;stroke:none;stroke-width:4.0999999;stroke-miterlimit:4;stroke-dasharray:none;stroke-opacity:1"
           y="4307.3594"
           x="177.42937"
           id="tspan7848-7-0-8-2-30-1-4-8-6-6-5"
           sodipodi:role="line">f5sites</tspan></text>
      <text
         sodipodi:linespacing="125%"
         id="text7846-42-6-4-6-1-8-6-0-3-8-5-62"
         y="4333.5474"
         x="476.12762"
         style="font-style:normal;font-weight:normal;font-size:33.36292648px;line-height:125%;font-family:sans-serif;letter-spacing:0px;word-spacing:0px;fill:#ececec;fill-opacity:1;stroke:none;stroke-width:4.0999999;stroke-linecap:butt;stroke-linejoin:miter;stroke-miterlimit:4;stroke-dasharray:none;stroke-opacity:1"
         xml:space="preserve"><tspan
           style="font-style:normal;font-variant:normal;font-weight:normal;font-stretch:normal;font-family:'Arial Black';-inkscape-font-specification:'Arial Black, ';fill:#ececec;fill-opacity:1;stroke:none;stroke-width:4.0999999;stroke-miterlimit:4;stroke-dasharray:none;stroke-opacity:1"
           y="4333.5474"
           x="476.12762"
           id="tspan7848-7-0-8-2-30-1-2-0-3-9-2-9"
           sodipodi:role="line">.com</tspan></text>
      <text
         sodipodi:linespacing="125%"
         id="text7846-42-6-4-6-1-8-6-0-3-8-5-6-1"
         y="4283.1255"
         x="100.09219"
         style="font-style:normal;font-weight:normal;font-size:33.36292648px;line-height:125%;font-family:sans-serif;letter-spacing:0px;word-spacing:0px;fill:#ececec;fill-opacity:1;stroke:none;stroke-width:4.0999999;stroke-linecap:butt;stroke-linejoin:miter;stroke-miterlimit:4;stroke-dasharray:none;stroke-opacity:1"
         xml:space="preserve"><tspan
           style="font-style:normal;font-variant:normal;font-weight:normal;font-stretch:normal;font-family:'Arial Black';-inkscape-font-specification:'Arial Black, ';fill:#ececec;fill-opacity:1;stroke:none;stroke-width:4.0999999;stroke-miterlimit:4;stroke-dasharray:none;stroke-opacity:1"
           y="4283.1255"
           x="100.09219"
           id="tspan7848-7-0-8-2-30-1-2-0-3-9-2-5-2"
           sodipodi:role="line">br.</tspan></text>
    </g>
  </g>
</svg>
