<?xml version="1.0" encoding="UTF-8" standalone="no"?>
<!-- Created with Inkscape (http://www.inkscape.org/) -->

<svg
   xmlns:dc="http://purl.org/dc/elements/1.1/"
   xmlns:cc="http://creativecommons.org/ns#"
   xmlns:rdf="http://www.w3.org/1999/02/22-rdf-syntax-ns#"
   xmlns:svg="http://www.w3.org/2000/svg"
   xmlns="http://www.w3.org/2000/svg"
   xmlns:sodipodi="http://sodipodi.sourceforge.net/DTD/sodipodi-0.dtd"
   xmlns:inkscape="http://www.inkscape.org/namespaces/inkscape"
   width="400"
   height="400"
   id="svg8188"
   version="1.1"
   inkscape:version="0.48.4 r9939"
   sodipodi:docname="2015-redemapas-icone.svg"
   inkscape:export-filename="/media/francisco/f5sites/projetos/redemapas/redemapas-logo/2015-redemapas-icone120x120.png"
   inkscape:export-xdpi="27"
   inkscape:export-ydpi="27">
  <defs
     id="defs8190" />
  <sodipodi:namedview
     id="base"
     pagecolor="#ffffff"
     bordercolor="#666666"
     borderopacity="1.0"
     inkscape:pageopacity="0.0"
     inkscape:pageshadow="2"
     inkscape:zoom="0.7"
     inkscape:cx="-1.8070504"
     inkscape:cy="324.49897"
     inkscape:document-units="px"
     inkscape:current-layer="layer1"
     showgrid="false"
     inkscape:window-width="1301"
     inkscape:window-height="744"
     inkscape:window-x="65"
     inkscape:window-y="24"
     inkscape:window-maximized="1" />
  <metadata
     id="metadata8193">
    <rdf:RDF>
      <cc:Work
         rdf:about="">
        <dc:format>image/svg+xml</dc:format>
        <dc:type
           rdf:resource="http://purl.org/dc/dcmitype/StillImage" />
        <dc:title></dc:title>
      </cc:Work>
    </rdf:RDF>
  </metadata>
  <g
     inkscape:label="Camada 1"
     inkscape:groupmode="layer"
     id="layer1"
     transform="translate(0,-652.36218)">
    <g
       id="g8231"
       transform="translate(12.568523,-1.1428515)">
      <g
         id="g7925"
         transform="matrix(0.76491444,0,0,0.76491444,-83.129752,449.01947)"
         style="fill:#483737">
        <path
           sodipodi:nodetypes="csssssc"
           inkscape:connector-curvature="0"
           id="path7927"
           d="m 475.15467,443.2949 c -3.79541,111.11843 -17.13038,72.83054 -103.71688,242.72614 -24.50217,48.07691 -11.73599,57.31078 -36.11051,7.42401 -84.06434,-172.05266 -100.22918,-142.38 -103.07589,-250.14978 -1.6395,-62.07607 54.37585,-112.43183 121.45154,-112.43183 67.07588,-3.7e-4 123.5715,50.36839 121.45174,112.43183 z"
           style="fill:#483737;fill-opacity:1;stroke:none;display:inline" />
        <g
           transform="matrix(0.33100894,0,0,0.33100894,232.56045,280.51627)"
           id="g7929"
           style="fill:#483737;fill-opacity:1;stroke:#ffffff;stroke-width:38.66194153;stroke-miterlimit:4;stroke-opacity:1;stroke-dasharray:none">
          <g
             transform="translate(-3.1565,4.0357)"
             stroke-miterlimit="0"
             id="g7931"
             style="fill:#483737;stroke:#ffffff;stroke-width:38.66194153;stroke-miterlimit:4;stroke-opacity:1;stroke-dasharray:none">
            <path
               d="m 654.29,578.08 a 231.43,231.43 0 1 1 -462.86,0 231.43,231.43 0 1 1 462.86,0 z"
               transform="matrix(0.99284,0.11944,-0.11944,0.99284,20.955,-98.214)"
               id="path7933"
               inkscape:connector-curvature="0"
               style="fill:#483737;stroke:#ffffff;stroke-width:38.66199493;stroke-miterlimit:4;stroke-opacity:1;stroke-dasharray:none" />
            <path
               transform="matrix(-0.44349,-0.19233,0.21042,-0.3707,97.221,255.04)"
               d="m -815.11,230.18 a 241.43,241.43 0 0 1 373.23,-85.32"
               id="path7935"
               inkscape:connector-curvature="0"
               style="fill:#483737;fill-opacity:0;stroke:#ffffff;stroke-width:85.41664886;stroke-miterlimit:4;stroke-opacity:1;stroke-dasharray:none" />
            <path
               transform="matrix(-1.0189,-0.45628,0.49607,-0.85034,-380.71,484.23)"
               d="m -815.11,230.18 a 241.43,241.43 0 0 1 373.23,-85.32"
               id="path7937"
               inkscape:connector-curvature="0"
               style="fill:#483737;fill-opacity:0;stroke:#ffffff;stroke-width:36.98465729;stroke-miterlimit:4;stroke-opacity:1;stroke-dasharray:none" />
            <path
               transform="matrix(0.64115,-0.98764,0.80549,0.6552,575.85,-235.75)"
               d="m -815.11,230.18 a 241.43,241.43 0 0 1 373.23,-85.32"
               id="path7939"
               inkscape:connector-curvature="0"
               style="fill:#483737;fill-opacity:0;stroke:#ffffff;stroke-width:35.06594086;stroke-miterlimit:4;stroke-opacity:1;stroke-dasharray:none" />
            <path
               d="M 422.2,299.12 314.83,753.5"
               id="path7941"
               inkscape:connector-curvature="0"
               style="fill:#483737;stroke:#ffffff;stroke-width:38.66194153;stroke-miterlimit:4;stroke-opacity:1;stroke-dasharray:none" />
            <path
               transform="matrix(-1.3253,-0.66861,0.7111,-1.0989,-589.04,215.76)"
               d="m -794.06,193.28 a 241.43,241.43 0 0 1 285.09,-87.65"
               id="path7943"
               inkscape:connector-curvature="0"
               style="fill:#483737;fill-opacity:0;stroke:#ffffff;stroke-width:27.81635666;stroke-linecap:round;stroke-miterlimit:4;stroke-opacity:1;stroke-dasharray:none" />
            <path
               transform="matrix(-0.31108,1.1351,-0.96591,-0.37971,404.8,1314.6)"
               d="m -815.11,230.18 a 241.43,241.43 0 0 1 373.23,-85.32"
               id="path7945"
               inkscape:connector-curvature="0"
               style="fill:#483737;fill-opacity:0;stroke:#ffffff;stroke-width:35.08168793;stroke-miterlimit:4;stroke-opacity:1;stroke-dasharray:none" />
          </g>
        </g>
      </g>
    </g>
  </g>
</svg>
