<?xml version="1.0" encoding="UTF-8" standalone="no"?>
<!-- Created with Inkscape (http://www.inkscape.org/) -->

<svg
   xmlns:dc="http://purl.org/dc/elements/1.1/"
   xmlns:cc="http://creativecommons.org/ns#"
   xmlns:rdf="http://www.w3.org/1999/02/22-rdf-syntax-ns#"
   xmlns:svg="http://www.w3.org/2000/svg"
   xmlns="http://www.w3.org/2000/svg"
   xmlns:sodipodi="http://sodipodi.sourceforge.net/DTD/sodipodi-0.dtd"
   xmlns:inkscape="http://www.inkscape.org/namespaces/inkscape"
   width="800"
   height="200"
   id="svg2"
   version="1.1"
   inkscape:version="0.48.4 r9939"
   sodipodi:docname="2015-redemapas-logo.svg">
  <defs
     id="defs4">
    <filter
       inkscape:collect="always"
       id="filter8051"
       x="-0.1173"
       width="1.2346"
       y="-0.78200003"
       height="2.5640001">
      <feGaussianBlur
         inkscape:collect="always"
         stdDeviation="4.1892857"
         id="feGaussianBlur8053" />
    </filter>
    <filter
       inkscape:collect="always"
       id="filter8163"
       x="-0.080916116"
       width="1.1618322"
       y="-0.5394408"
       height="2.0788816">
      <feGaussianBlur
         inkscape:collect="always"
         stdDeviation="2.8898613"
         id="feGaussianBlur8165" />
    </filter>
  </defs>
  <sodipodi:namedview
     id="base"
     pagecolor="#ffffff"
     bordercolor="#666666"
     borderopacity="1.0"
     inkscape:pageopacity="0.0"
     inkscape:pageshadow="2"
     inkscape:zoom="0.7"
     inkscape:cx="439.21051"
     inkscape:cy="278.22854"
     inkscape:document-units="px"
     inkscape:current-layer="layer1"
     showgrid="false"
     inkscape:window-width="1301"
     inkscape:window-height="744"
     inkscape:window-x="65"
     inkscape:window-y="24"
     inkscape:window-maximized="1" />
  <metadata
     id="metadata7">
    <rdf:RDF>
      <cc:Work
         rdf:about="">
        <dc:format>image/svg+xml</dc:format>
        <dc:type
           rdf:resource="http://purl.org/dc/dcmitype/StillImage" />
        <dc:title></dc:title>
      </cc:Work>
    </rdf:RDF>
  </metadata>
  <g
     inkscape:label="Camada 1"
     inkscape:groupmode="layer"
     id="layer1"
     transform="translate(0,-852.36218)">
    <path
       id="path3167"
       d="m 1085.7143,1210.0895 c -3.096,0 -5.606,2.51 -5.606,5.606 0,0.237 0.019,0.468 0.048,0.697 0.479,4.378 5.194,9.425 5.194,9.425 0.084,0.094 0.165,0.153 0.243,0.195 l 0,0 0.157,0.049 0.157,-0.049 0,0 c 0.078,-0.042 0.159,-0.102 0.243,-0.195 0,0 4.648,-5.055 5.115,-9.435 0.028,-0.226 0.047,-0.455 0.047,-0.688 -10e-4,-3.095 -2.51,-5.605 -5.606,-5.605 z m 0,9.212 c -1.988,0 -3.606,-1.618 -3.606,-3.606 0,-1.988 1.618,-3.606 3.606,-3.606 1.988,0 3.605,1.618 3.605,3.606 0,1.988 -1.617,3.606 -3.605,3.606 z"
       inkscape:connector-curvature="0" />
    <path
       style="fill:#000080"
       id="path3623"
       d="m -389.87658,-52.767684 c -98.62717,0 -178.58656,79.95937 -178.58656,178.586564 0,7.54997 0.60527,14.90875 1.5291,22.20384 15.2592,139.46697 165.46176,300.24587 165.46176,300.24587 2.67593,2.9945 5.2563,4.874 7.7411,6.212 l 0,0.064 5.00145,1.561 5.00144,-1.561 0,-0.064 c 2.48478,-1.338 5.06515,-3.2494 7.74108,-6.212 0,0 148.06813,-161.0337 162.94515,-300.56442 0.89192,-7.19953 1.49722,-14.49463 1.49722,-21.91716 -0.0318,-98.595324 -79.95939,-178.554694 -178.58658,-178.554694 z m 0,293.460474 c -63.33038,0 -114.8739,-51.54351 -114.8739,-114.87391 0,-63.330384 51.54352,-114.873924 114.8739,-114.873924 63.33038,0 114.84214,51.54354 114.84214,114.873924 0,63.3304 -51.51176,114.87391 -114.84214,114.87391 z"
       inkscape:connector-curvature="0" />
    <path
       d="m 505.71427,759.50507 c 0,57.5954 -46.6903,104.28571 -104.28571,104.28571 -57.59541,0 -104.28571,-46.69031 -104.28571,-104.28571 0,-57.59541 46.6903,-104.28572 104.28571,-104.28572 57.59541,0 104.28571,46.69031 104.28571,104.28572 z"
       sodipodi:ry="104.28571"
       sodipodi:rx="104.28571"
       sodipodi:cy="759.50507"
       sodipodi:cx="401.42856"
       id="path3625"
       style="fill:#ffffff;fill-opacity:1;stroke:none"
       sodipodi:type="arc"
       transform="translate(-660,-794.28571)" />
    <g
       transform="matrix(0.45004493,0,0,0.45004493,-382.29972,-180.5123)"
       id="g3627">
      <g
         transform="matrix(2.0936,0,0,2.0936,271.75,304.77)"
         style="stroke:#0000ff"
         id="g3629">
        <g
           style="stroke:#0000ff"
           id="g3631">
          <path
             transform="matrix(0.99919663,0.04007599,-0.04007599,0.99919663,0,0)"
             d="M 1.5314e-7,100 C -3.1563998,100 -5.7150998,55.228 -5.7150998,0 c 0,-55.228 2.5587,-100 5.71509995314,-100 h 2.6524e-7"
             style="fill:none;stroke:#0000ff"
             id="path3633"
             inkscape:connector-curvature="0" />
          <path
             transform="matrix(0.98104996,0.19375494,-0.19375494,0.98104996,0,0)"
             d="M 7.1462e-7,100 C -14.728999,100 -26.669999,55.228 -26.669999,0 c 0,-55.228 11.941,-100 26.66999971462,-100 h 1.2378e-6"
             style="fill:none;stroke:#0000ff"
             id="path3635"
             inkscape:connector-curvature="0" />
          <path
             transform="matrix(0.93263273,0.3608271,-0.3608271,0.93263273,0,0)"
             d="M 1.2274e-6,100 C -25.298999,100 -45.806999,55.228 -45.806999,0 c 0,-55.228 20.508,-100 45.8070002274,-100 h 2.1259e-6"
             style="fill:none;stroke:#0000ff"
             id="path3637"
             inkscape:connector-curvature="0" />
          <path
             transform="matrix(0.83467488,0.55074299,-0.55074299,0.83467488,0,0)"
             d="M 1.6565e-6,100 C -34.143998,100 -61.822998,55.228 -61.822998,0 c 0,-55.228 27.679,-100 61.8229996565,-100 h 2.8692e-6"
             style="fill:none;stroke:#0000ff"
             id="path3639"
             inkscape:connector-curvature="0" />
          <path
             transform="matrix(0.6478,0.76181,-0.76181,0.6478,0,0)"
             d="M 1.9728e-6,100 C -40.661998,100 -73.625998,55.228 -73.625998,0 c 0,-55.228 32.964,-100 73.6259999728,-100 h 3.417e-6"
             style="fill:none;stroke:#0000ff"
             id="path3641"
             inkscape:connector-curvature="0" />
          <path
             transform="matrix(0.32096014,0.9470927,-0.9470927,0.32096014,0,0)"
             d="M 2.1546e-6,100 C -44.409998,100 -80.410998,55.228 -80.410998,0 c 0,-55.228 36.001,-100 80.4110001546,-100 h 3.7319e-6"
             style="fill:none;stroke:#0000ff"
             id="path3643"
             inkscape:connector-curvature="0" />
          <path
             transform="matrix(0.12102046,-0.99265001,0.99265001,0.12102046,0,0)"
             d="M 1.6029e-6,-100 C 45.131002,-100 81.717002,-55.228 81.717002,0 c 0,55.228 -36.586,100 -81.7170003971,100"
             style="fill:none;stroke:#0000ff"
             id="path3645"
             inkscape:connector-curvature="0" />
          <path
             transform="matrix(0.51469394,-0.85737398,0.85737398,0.51469394,0,0)"
             d="M 1.5193e-6,-100 C 42.776002,-100 77.453002,-55.228 77.453002,0 c 0,55.228 -34.677,100 -77.4530004807,100"
             style="fill:none;stroke:#0000ff"
             id="path3647"
             inkscape:connector-curvature="0" />
          <path
             transform="matrix(0.76179842,-0.64781415,0.64781415,0.76179842,0,0)"
             d="M 1.3321e-6,-100 C 37.507001,-100 67.912001,-55.228 67.912001,0 c 0,55.228 -30.405,100 -67.9119996679,100"
             style="fill:none;stroke:#0000ff"
             id="path3649"
             inkscape:connector-curvature="0" />
          <path
             transform="matrix(0.89492657,-0.44621343,0.44621343,0.89492657,0,0)"
             d="M 1.0542e-6,-100 C 29.681001,-100 53.742001,-55.228 53.742001,0 c 0,55.228 -24.061,100 -53.7419999458,100"
             style="fill:none;stroke:#0000ff"
             id="path3651"
             inkscape:connector-curvature="0" />
          <path
             transform="matrix(0.96302633,-0.26940729,0.26940729,0.96302633,0,0)"
             d="M 7.0439e-7,-100 C 19.833001,-100 35.910001,-55.228 35.910001,0 35.910001,55.228 19.833001,100 7.0439e-7,100"
             style="fill:none;stroke:#0000ff"
             id="path3653"
             inkscape:connector-curvature="0" />
          <path
             transform="matrix(0.99384163,-0.11080982,0.11080982,0.99384163,0,0)"
             d="M 3.0661e-7,-100 C 8.6329003,-100 15.631,-55.228 15.631,0 15.631,55.228 8.6329003,100 3.0661e-7,100"
             style="fill:none;stroke:#0000ff"
             id="path3655"
             inkscape:connector-curvature="0" />
        </g>
        <g
           style="stroke:#0000ff"
           id="g3657">
          <path
             d="m 15.682,98.764 c -10.262,1.6294 -21.102,1.6294 -31.364,10e-7"
             style="fill:none;stroke:#0000ff"
             id="path3659"
             inkscape:connector-curvature="0" />
          <path
             d="m 50.483,86.323 c -27.345,15.992 -72.114,16.242 -99.995,0.55695 -0.3268,-0.18384 -0.65047,-0.3695 -0.97099,-0.55695"
             style="fill:none;stroke:#0000ff"
             id="path3661"
             inkscape:connector-curvature="0" />
          <path
             d="M 69.65,71.756 C 46.92,93.82 -2.69,101.14 -41.16,88.099 -52.906,84.117 -62.708,78.495 -69.65,71.756"
             style="fill:none;stroke:#0000ff"
             id="path3663"
             inkscape:connector-curvature="0" />
          <path
             d="M 83.237,55.422 C 65.681,81.79 14.182,95.003 -31.793,84.932 -55.478,79.743 -74.19,69.01 -83.237,55.422"
             style="fill:none;stroke:#0000ff"
             id="path3665"
             inkscape:connector-curvature="0" />
          <path
             d="M 92.612,37.724 C 80.661,67.062 29.51,85.288 -21.638,78.434 -56.87,73.712 -84.38,57.933 -92.612,37.724"
             style="fill:none;stroke:#0000ff"
             id="path3667"
             inkscape:connector-curvature="0" />
          <path
             d="M 98.16,19.097 C 92.11,50.193 43.258,72.587 -10.95,69.117 -56.829,66.181 -93.04,45.411 -98.16,19.097"
             style="fill:none;stroke:#0000ff"
             id="path3669"
             inkscape:connector-curvature="0" />
          <path
             d="M 100,0 C 100,31.678 55.228,57.359 0,57.359 -55.228,57.359 -100,31.678 -100,0 v -2.662e-6"
             style="fill:none;stroke:#0000ff"
             id="path3671"
             inkscape:connector-curvature="0" />
          <path
             d="m 98.16,-19.097 c 6.05,31.095 -32.994,59.116 -87.206,62.586 -54.212,3.47 -103.06,-18.925 -109.11,-50.02 -0.81236,-4.1756 -0.81236,-8.3901 -10e-7,-12.566"
             style="fill:none;stroke:#0000ff"
             id="path3673"
             inkscape:connector-curvature="0" />
          <path
             d="m 92.612,-37.724 c 11.948,29.338 -19.826,58.677 -70.974,65.532 -51.148,6.854 -102.3,-11.372 -114.25,-40.71 -3.3255,-8.1641 -3.3255,-16.658 10e-7,-24.822"
             style="fill:none;stroke:#0000ff"
             id="path3675"
             inkscape:connector-curvature="0" />
          <path
             d="m 83.237,-55.422 c 17.553,26.368 -5.478,55.907 -51.448,65.977 -45.971,10.07 -97.47,-3.142 -115.03,-29.51 -7.8182,-11.742 -7.8182,-24.725 -2e-6,-36.467"
             style="fill:none;stroke:#0000ff"
             id="path3677"
             inkscape:connector-curvature="0" />
          <path
             d="m 69.65,-71.756 c 22.731,22.064 9.974,50.52 -28.493,63.558 C 2.69,4.84 -46.92,-2.4771 -69.653,-24.541 c -15.002,-14.562 -15.002,-32.653 1e-6,-47.215"
             style="fill:none;stroke:#0000ff"
             id="path3679"
             inkscape:connector-curvature="0" />
          <path
             d="m 50.483,-86.322 c 27.345,15.992 26.91,41.672 -0.97099,57.356 -27.881,15.685 -72.65,15.435 -99.995,-0.55695 -26.97,-15.773 -26.97,-41.026 -3e-6,-56.799"
             style="fill:none;stroke:#0000ff"
             id="path3681"
             inkscape:connector-curvature="0" />
          <path
             d="m 15.682,-98.764 c 31.286,4.9678 49.627,23.543 40.966,41.488 -8.6609,17.945 -41.044,28.466 -72.33,23.498 -31.286,-4.9678 -49.627,-23.543 -40.966,-41.488 5.5101,-11.417 21.062,-20.337 40.966,-23.498"
             style="fill:none;stroke:#0000ff"
             id="path3683"
             inkscape:connector-curvature="0" />
          <path
             d="m 45.399,-72.987 c 0,14.382 -20.326,26.041 -45.399,26.041 -25.073,0 -45.399,-11.659 -45.399,-26.041 0,-14.382 20.326,-26.041 45.399,-26.041 25.073,0 45.399,11.659 45.399,26.041 z"
             style="fill:none;stroke:#0000ff"
             id="path3685"
             inkscape:connector-curvature="0" />
          <path
             d="m 30.902,-77.906 c 0,9.7895 -13.835,17.725 -30.902,17.725 -17.067,0 -30.902,-7.936 -30.902,-17.725 0,-9.7895 13.835,-17.725 30.902,-17.725 17.067,0 30.902,7.936 30.902,17.725 z"
             style="fill:none;stroke:#0000ff"
             id="path3687"
             inkscape:connector-curvature="0" />
          <path
             d="m 15.643,-80.907 c 0,4.956 -7.0038,8.9737 -15.643,8.9737 -8.6396,0 -15.643,-4.0177 -15.643,-8.9737 0,-4.956 7.0038,-8.9737 15.643,-8.9737 8.6396,0 15.643,4.0177 15.643,8.9737 z"
             style="fill:none;stroke:#0000ff"
             id="path3689"
             inkscape:connector-curvature="0" />
        </g>
        <path
           d="M 100,0 C 100,55.228 55.228,100 0,100 -55.228,100 -100,55.228 -100,0 c 0,-55.228 44.772,-100 100,-100 55.228,0 100,44.772 100,100 z"
           style="fill:none;stroke:#0000ff"
           id="path3691"
           inkscape:connector-curvature="0" />
      </g>
    </g>
    <text
       sodipodi:linespacing="125%"
       id="text5150"
       y="338.77155"
       x="142.04607"
       style="font-size:112.97097015px;font-style:normal;font-variant:normal;font-weight:bold;font-stretch:normal;line-height:125%;letter-spacing:0px;word-spacing:0px;fill:#6f918a;fill-opacity:1;stroke:none;font-family:Nexa Bold;-inkscape-font-specification:'Nexa Bold, Bold'"
       xml:space="preserve"><tspan
         y="338.77155"
         x="142.04607"
         id="tspan5152"
         sodipodi:role="line">rede</tspan></text>
    <text
       sodipodi:linespacing="125%"
       id="text5154"
       y="338.64484"
       x="403.54279"
       style="font-size:112.97097015px;font-style:normal;font-weight:normal;line-height:125%;letter-spacing:0px;word-spacing:0px;fill:#008000;fill-opacity:1;stroke:none;font-family:Nexa Bold;-inkscape-font-specification:Nexa Bold"
       xml:space="preserve"><tspan
         y="338.64484"
         x="403.54279"
         id="tspan5156"
         sodipodi:role="line">mapas</tspan></text>
    <path
       style="fill:#000000"
       id="path5074"
       d="m 352.08448,-552.76768 c -80.77538,0 -146.2619,65.4865 -146.2619,146.2619 0,6.18341 0.49571,12.21022 1.25233,18.18489 12.49724,114.22308 135.51272,245.90058 135.51272,245.90058 2.19158,2.4525 4.3049,3.9917 6.33994,5.0875 l 0,0.052 4.09618,1.2785 4.09616,-1.2785 0,-0.052 c 2.03503,-1.0958 4.14835,-2.6612 6.33992,-5.0875 0,0 121.2674,-131.8862 133.45163,-246.16147 0.73048,-5.8964 1.22622,-11.87106 1.22622,-17.9501 -0.0261,-80.7493 -65.48652,-146.2358 -146.26191,-146.2358 z m 0,240.34332 c -51.8674,0 -94.08141,-42.214 -94.08141,-94.08142 0,-51.8674 42.21401,-94.08142 94.08141,-94.08142 51.8674,0 94.0554,42.21402 94.0554,94.08142 0,51.86742 -42.188,94.08142 -94.0554,94.08142 z"
       inkscape:connector-curvature="0" />
    <g
       style="fill:#ffffff;fill-opacity:1;stroke-width:2.87980962;stroke-miterlimit:4;stroke-dasharray:none"
       id="g5076"
       transform="matrix(4.0112047,0,0,3.7133053,-1744.4446,-4274.8896)">
      <path
         style="fill:#ffffff;fill-opacity:1;stroke:#000000;stroke-width:2.87980962;stroke-linecap:butt;stroke-linejoin:miter;stroke-miterlimit:4;stroke-opacity:1;stroke-dasharray:none;display:inline"
         d="m 553.84839,1033.6302 c -0.9462,29.9244 -4.27063,19.6134 -25.85679,65.3666 -6.10843,12.9472 -2.9258,15.4339 -9.00241,1.9993 -20.95738,-46.3341 -24.9873,-38.3432 -25.69699,-67.3658 -0.40873,-16.7172 13.55599,-30.2781 30.27807,-30.2781 16.72213,-1e-4 30.80658,13.5643 30.27812,30.2781 z"
         id="path5078"
         inkscape:connector-curvature="0"
         sodipodi:nodetypes="csssssc" />
    </g>
    <path
       transform="translate(60,-1300)"
       d="m 505.71427,759.50507 c 0,57.5954 -46.6903,104.28571 -104.28571,104.28571 -57.59541,0 -104.28571,-46.69031 -104.28571,-104.28571 0,-57.59541 46.6903,-104.28572 104.28571,-104.28572 57.59541,0 104.28571,46.69031 104.28571,104.28572 z"
       sodipodi:ry="104.28571"
       sodipodi:rx="104.28571"
       sodipodi:cy="759.50507"
       sodipodi:cx="401.42856"
       id="path5080"
       style="fill:#ffffff;fill-opacity:1;stroke:none"
       sodipodi:type="arc" />
    <g
       style="stroke-width:6.66600132;stroke-miterlimit:4;stroke-dasharray:none"
       transform="matrix(0.45004493,0,0,0.45004493,343.41457,-680.5123)"
       id="g5082">
      <g
         transform="matrix(2.0936,0,0,2.0936,271.75,304.77)"
         style="stroke:#000000;stroke-width:3.18398976;stroke-miterlimit:4;stroke-opacity:1;stroke-dasharray:none"
         id="g5084">
        <g
           style="stroke:#000000;stroke-width:3.18398976;stroke-miterlimit:4;stroke-opacity:1;stroke-dasharray:none"
           id="g5086">
          <path
             transform="matrix(0.99919663,0.04007599,-0.04007599,0.99919663,0,0)"
             d="M 1.5314e-7,100 C -3.1563998,100 -5.7150998,55.228 -5.7150998,0 c 0,-55.228 2.5587,-100 5.71509995314,-100 h 2.6524e-7"
             style="fill:none;stroke:#000000;stroke-width:3.18398976;stroke-miterlimit:4;stroke-opacity:1;stroke-dasharray:none"
             id="path5088"
             inkscape:connector-curvature="0" />
          <path
             transform="matrix(0.98104996,0.19375494,-0.19375494,0.98104996,0,0)"
             d="M 7.1462e-7,100 C -14.728999,100 -26.669999,55.228 -26.669999,0 c 0,-55.228 11.941,-100 26.66999971462,-100 h 1.2378e-6"
             style="fill:none;stroke:#000000;stroke-width:3.18398976;stroke-miterlimit:4;stroke-opacity:1;stroke-dasharray:none"
             id="path5090"
             inkscape:connector-curvature="0" />
          <path
             transform="matrix(0.93263273,0.3608271,-0.3608271,0.93263273,0,0)"
             d="M 1.2274e-6,100 C -25.298999,100 -45.806999,55.228 -45.806999,0 c 0,-55.228 20.508,-100 45.8070002274,-100 h 2.1259e-6"
             style="fill:none;stroke:#000000;stroke-width:3.18398976;stroke-miterlimit:4;stroke-opacity:1;stroke-dasharray:none"
             id="path5092"
             inkscape:connector-curvature="0" />
          <path
             transform="matrix(0.83467488,0.55074299,-0.55074299,0.83467488,0,0)"
             d="M 1.6565e-6,100 C -34.143998,100 -61.822998,55.228 -61.822998,0 c 0,-55.228 27.679,-100 61.8229996565,-100 h 2.8692e-6"
             style="fill:none;stroke:#000000;stroke-width:3.18398976;stroke-miterlimit:4;stroke-opacity:1;stroke-dasharray:none"
             id="path5094"
             inkscape:connector-curvature="0" />
          <path
             transform="matrix(0.6478,0.76181,-0.76181,0.6478,0,0)"
             d="M 1.9728e-6,100 C -40.661998,100 -73.625998,55.228 -73.625998,0 c 0,-55.228 32.964,-100 73.6259999728,-100 h 3.417e-6"
             style="fill:none;stroke:#000000;stroke-width:3.18399096;stroke-miterlimit:4;stroke-opacity:1;stroke-dasharray:none"
             id="path5096"
             inkscape:connector-curvature="0" />
          <path
             transform="matrix(0.32096014,0.9470927,-0.9470927,0.32096014,0,0)"
             d="M 2.1546e-6,100 C -44.409998,100 -80.410998,55.228 -80.410998,0 c 0,-55.228 36.001,-100 80.4110001546,-100 h 3.7319e-6"
             style="fill:none;stroke:#000000;stroke-width:3.18398976;stroke-miterlimit:4;stroke-opacity:1;stroke-dasharray:none"
             id="path5098"
             inkscape:connector-curvature="0" />
          <path
             transform="matrix(0.12102046,-0.99265001,0.99265001,0.12102046,0,0)"
             d="M 1.6029e-6,-100 C 45.131002,-100 81.717002,-55.228 81.717002,0 c 0,55.228 -36.586,100 -81.7170003971,100"
             style="fill:none;stroke:#000000;stroke-width:3.18398976;stroke-miterlimit:4;stroke-opacity:1;stroke-dasharray:none"
             id="path5100"
             inkscape:connector-curvature="0" />
          <path
             transform="matrix(0.51469394,-0.85737398,0.85737398,0.51469394,0,0)"
             d="M 1.5193e-6,-100 C 42.776002,-100 77.453002,-55.228 77.453002,0 c 0,55.228 -34.677,100 -77.4530004807,100"
             style="fill:none;stroke:#000000;stroke-width:3.18398976;stroke-miterlimit:4;stroke-opacity:1;stroke-dasharray:none"
             id="path5102"
             inkscape:connector-curvature="0" />
          <path
             transform="matrix(0.76179842,-0.64781415,0.64781415,0.76179842,0,0)"
             d="M 1.3321e-6,-100 C 37.507001,-100 67.912001,-55.228 67.912001,0 c 0,55.228 -30.405,100 -67.9119996679,100"
             style="fill:none;stroke:#000000;stroke-width:3.18398976;stroke-miterlimit:4;stroke-opacity:1;stroke-dasharray:none"
             id="path5104"
             inkscape:connector-curvature="0" />
          <path
             transform="matrix(0.89492657,-0.44621343,0.44621343,0.89492657,0,0)"
             d="M 1.0542e-6,-100 C 29.681001,-100 53.742001,-55.228 53.742001,0 c 0,55.228 -24.061,100 -53.7419999458,100"
             style="fill:none;stroke:#000000;stroke-width:3.18398976;stroke-miterlimit:4;stroke-opacity:1;stroke-dasharray:none"
             id="path5106"
             inkscape:connector-curvature="0" />
          <path
             transform="matrix(0.96302633,-0.26940729,0.26940729,0.96302633,0,0)"
             d="M 7.0439e-7,-100 C 19.833001,-100 35.910001,-55.228 35.910001,0 35.910001,55.228 19.833001,100 7.0439e-7,100"
             style="fill:none;stroke:#000000;stroke-width:3.18398976;stroke-miterlimit:4;stroke-opacity:1;stroke-dasharray:none"
             id="path5108"
             inkscape:connector-curvature="0" />
          <path
             transform="matrix(0.99384163,-0.11080982,0.11080982,0.99384163,0,0)"
             d="M 3.0661e-7,-100 C 8.6329003,-100 15.631,-55.228 15.631,0 15.631,55.228 8.6329003,100 3.0661e-7,100"
             style="fill:none;stroke:#000000;stroke-width:3.18398976;stroke-miterlimit:4;stroke-opacity:1;stroke-dasharray:none"
             id="path5110"
             inkscape:connector-curvature="0" />
        </g>
        <g
           style="stroke:#000000;stroke-width:3.18398976;stroke-miterlimit:4;stroke-opacity:1;stroke-dasharray:none"
           id="g5112">
          <path
             d="m 15.682,98.764 c -10.262,1.6294 -21.102,1.6294 -31.364,10e-7"
             style="fill:none;stroke:#000000;stroke-width:3.18398976;stroke-miterlimit:4;stroke-opacity:1;stroke-dasharray:none"
             id="path5114"
             inkscape:connector-curvature="0" />
          <path
             d="m 50.483,86.323 c -27.345,15.992 -72.114,16.242 -99.995,0.55695 -0.3268,-0.18384 -0.65047,-0.3695 -0.97099,-0.55695"
             style="fill:none;stroke:#000000;stroke-width:3.18398976;stroke-miterlimit:4;stroke-opacity:1;stroke-dasharray:none"
             id="path5116"
             inkscape:connector-curvature="0" />
          <path
             d="M 69.65,71.756 C 46.92,93.82 -2.69,101.14 -41.16,88.099 -52.906,84.117 -62.708,78.495 -69.65,71.756"
             style="fill:none;stroke:#000000;stroke-width:3.18398976;stroke-miterlimit:4;stroke-opacity:1;stroke-dasharray:none"
             id="path5118"
             inkscape:connector-curvature="0" />
          <path
             d="M 83.237,55.422 C 65.681,81.79 14.182,95.003 -31.793,84.932 -55.478,79.743 -74.19,69.01 -83.237,55.422"
             style="fill:none;stroke:#000000;stroke-width:3.18398976;stroke-miterlimit:4;stroke-opacity:1;stroke-dasharray:none"
             id="path5120"
             inkscape:connector-curvature="0" />
          <path
             d="M 92.612,37.724 C 80.661,67.062 29.51,85.288 -21.638,78.434 -56.87,73.712 -84.38,57.933 -92.612,37.724"
             style="fill:none;stroke:#000000;stroke-width:3.18398976;stroke-miterlimit:4;stroke-opacity:1;stroke-dasharray:none"
             id="path5122"
             inkscape:connector-curvature="0" />
          <path
             d="M 98.16,19.097 C 92.11,50.193 43.258,72.587 -10.95,69.117 -56.829,66.181 -93.04,45.411 -98.16,19.097"
             style="fill:none;stroke:#000000;stroke-width:3.18398976;stroke-miterlimit:4;stroke-opacity:1;stroke-dasharray:none"
             id="path5124"
             inkscape:connector-curvature="0" />
          <path
             d="M 100,0 C 100,31.678 55.228,57.359 0,57.359 -55.228,57.359 -100,31.678 -100,0 v -2.662e-6"
             style="fill:none;stroke:#000000;stroke-width:3.18398976;stroke-miterlimit:4;stroke-opacity:1;stroke-dasharray:none"
             id="path5126"
             inkscape:connector-curvature="0" />
          <path
             d="m 98.16,-19.097 c 6.05,31.095 -32.994,59.116 -87.206,62.586 -54.212,3.47 -103.06,-18.925 -109.11,-50.02 -0.81236,-4.1756 -0.81236,-8.3901 -10e-7,-12.566"
             style="fill:none;stroke:#000000;stroke-width:3.18398976;stroke-miterlimit:4;stroke-opacity:1;stroke-dasharray:none"
             id="path5128"
             inkscape:connector-curvature="0" />
          <path
             d="m 92.612,-37.724 c 11.948,29.338 -19.826,58.677 -70.974,65.532 -51.148,6.854 -102.3,-11.372 -114.25,-40.71 -3.3255,-8.1641 -3.3255,-16.658 10e-7,-24.822"
             style="fill:none;stroke:#000000;stroke-width:3.18398976;stroke-miterlimit:4;stroke-opacity:1;stroke-dasharray:none"
             id="path5130"
             inkscape:connector-curvature="0" />
          <path
             d="m 83.237,-55.422 c 17.553,26.368 -5.478,55.907 -51.448,65.977 -45.971,10.07 -97.47,-3.142 -115.03,-29.51 -7.8182,-11.742 -7.8182,-24.725 -2e-6,-36.467"
             style="fill:none;stroke:#000000;stroke-width:3.18398976;stroke-miterlimit:4;stroke-opacity:1;stroke-dasharray:none"
             id="path5132"
             inkscape:connector-curvature="0" />
          <path
             d="m 69.65,-71.756 c 22.731,22.064 9.974,50.52 -28.493,63.558 C 2.69,4.84 -46.92,-2.4771 -69.653,-24.541 c -15.002,-14.562 -15.002,-32.653 1e-6,-47.215"
             style="fill:none;stroke:#000000;stroke-width:3.18398976;stroke-miterlimit:4;stroke-opacity:1;stroke-dasharray:none"
             id="path5134"
             inkscape:connector-curvature="0" />
          <path
             d="m 50.483,-86.322 c 27.345,15.992 26.91,41.672 -0.97099,57.356 -27.881,15.685 -72.65,15.435 -99.995,-0.55695 -26.97,-15.773 -26.97,-41.026 -3e-6,-56.799"
             style="fill:none;stroke:#000000;stroke-width:3.18398976;stroke-miterlimit:4;stroke-opacity:1;stroke-dasharray:none"
             id="path5136"
             inkscape:connector-curvature="0" />
          <path
             d="m 15.682,-98.764 c 31.286,4.9678 49.627,23.543 40.966,41.488 -8.6609,17.945 -41.044,28.466 -72.33,23.498 -31.286,-4.9678 -49.627,-23.543 -40.966,-41.488 5.5101,-11.417 21.062,-20.337 40.966,-23.498"
             style="fill:none;stroke:#000000;stroke-width:3.18398976;stroke-miterlimit:4;stroke-opacity:1;stroke-dasharray:none"
             id="path5138"
             inkscape:connector-curvature="0" />
          <path
             d="m 45.399,-72.987 c 0,14.382 -20.326,26.041 -45.399,26.041 -25.073,0 -45.399,-11.659 -45.399,-26.041 0,-14.382 20.326,-26.041 45.399,-26.041 25.073,0 45.399,11.659 45.399,26.041 z"
             style="fill:none;stroke:#000000;stroke-width:3.18398976;stroke-miterlimit:4;stroke-opacity:1;stroke-dasharray:none"
             id="path5140"
             inkscape:connector-curvature="0" />
          <path
             d="m 30.902,-77.906 c 0,9.7895 -13.835,17.725 -30.902,17.725 -17.067,0 -30.902,-7.936 -30.902,-17.725 0,-9.7895 13.835,-17.725 30.902,-17.725 17.067,0 30.902,7.936 30.902,17.725 z"
             style="fill:none;stroke:#000000;stroke-width:3.18398976;stroke-miterlimit:4;stroke-opacity:1;stroke-dasharray:none"
             id="path5142"
             inkscape:connector-curvature="0" />
          <path
             d="m 15.643,-80.907 c 0,4.956 -7.0038,8.9737 -15.643,8.9737 -8.6396,0 -15.643,-4.0177 -15.643,-8.9737 0,-4.956 7.0038,-8.9737 15.643,-8.9737 8.6396,0 15.643,4.0177 15.643,8.9737 z"
             style="fill:none;stroke:#000000;stroke-width:3.18398976;stroke-miterlimit:4;stroke-opacity:1;stroke-dasharray:none"
             id="path5144"
             inkscape:connector-curvature="0" />
        </g>
        <path
           d="M 100,0 C 100,55.228 55.228,100 0,100 -55.228,100 -100,55.228 -100,0 c 0,-55.228 44.772,-100 100,-100 55.228,0 100,44.772 100,100 z"
           style="fill:none;stroke:#000000;stroke-width:3.18398976;stroke-miterlimit:4;stroke-opacity:1;stroke-dasharray:none"
           id="path5146"
           inkscape:connector-curvature="0" />
      </g>
    </g>
    <g
       id="g7905"
       transform="matrix(0.3463066,0,0,0.3463066,-40.635048,123.95641)"
       style="fill:#88aa00">
      <path
         sodipodi:nodetypes="csssssc"
         inkscape:connector-curvature="0"
         id="path5567"
         d="m 475.15467,443.2949 c -3.79541,111.11843 -17.13038,72.83054 -103.71688,242.72614 -24.50217,48.07691 -11.73599,57.31078 -36.11051,7.42401 -84.06434,-172.05266 -100.22918,-142.38 -103.07589,-250.14978 -1.6395,-62.07607 54.37585,-112.43183 121.45154,-112.43183 67.07588,-3.7e-4 123.5715,50.36839 121.45174,112.43183 z"
         style="fill:#88aa00;fill-opacity:1;stroke:none;display:inline" />
      <g
         transform="matrix(0.33100894,0,0,0.33100894,232.56045,280.51627)"
         id="layer1-0"
         style="fill:#88aa00;fill-opacity:1;stroke:#ffffff;stroke-width:38.66194153;stroke-miterlimit:4;stroke-opacity:1;stroke-dasharray:none">
        <g
           transform="translate(-3.1565,4.0357)"
           stroke-miterlimit="0"
           id="g2485"
           style="fill:#88aa00;stroke:#ffffff;stroke-width:38.66194153;stroke-miterlimit:4;stroke-opacity:1;stroke-dasharray:none">
          <path
             d="m 654.29,578.08 a 231.43,231.43 0 1 1 -462.86,0 231.43,231.43 0 1 1 462.86,0 z"
             transform="matrix(0.99284,0.11944,-0.11944,0.99284,20.955,-98.214)"
             id="path2392"
             inkscape:connector-curvature="0"
             style="fill:#88aa00;stroke:#ffffff;stroke-width:38.66199493;stroke-miterlimit:4;stroke-opacity:1;stroke-dasharray:none" />
          <path
             transform="matrix(-0.44349,-0.19233,0.21042,-0.3707,97.221,255.04)"
             d="m -815.11,230.18 a 241.43,241.43 0 0 1 373.23,-85.32"
             id="path2396"
             inkscape:connector-curvature="0"
             style="fill:#88aa00;fill-opacity:0;stroke:#ffffff;stroke-width:85.41664886;stroke-miterlimit:4;stroke-opacity:1;stroke-dasharray:none" />
          <path
             transform="matrix(-1.0189,-0.45628,0.49607,-0.85034,-380.71,484.23)"
             d="m -815.11,230.18 a 241.43,241.43 0 0 1 373.23,-85.32"
             id="path3170"
             inkscape:connector-curvature="0"
             style="fill:#88aa00;fill-opacity:0;stroke:#ffffff;stroke-width:36.98465729;stroke-miterlimit:4;stroke-opacity:1;stroke-dasharray:none" />
          <path
             transform="matrix(0.64115,-0.98764,0.80549,0.6552,575.85,-235.75)"
             d="m -815.11,230.18 a 241.43,241.43 0 0 1 373.23,-85.32"
             id="path3172"
             inkscape:connector-curvature="0"
             style="fill:#88aa00;fill-opacity:0;stroke:#ffffff;stroke-width:35.06594086;stroke-miterlimit:4;stroke-opacity:1;stroke-dasharray:none" />
          <path
             d="M 422.2,299.12 314.83,753.5"
             id="path3178"
             inkscape:connector-curvature="0"
             style="fill:#88aa00;stroke:#ffffff;stroke-width:38.66194153;stroke-miterlimit:4;stroke-opacity:1;stroke-dasharray:none" />
          <path
             transform="matrix(-1.3253,-0.66861,0.7111,-1.0989,-589.04,215.76)"
             d="m -794.06,193.28 a 241.43,241.43 0 0 1 285.09,-87.65"
             id="path2393"
             inkscape:connector-curvature="0"
             style="fill:#88aa00;fill-opacity:0;stroke:#ffffff;stroke-width:27.81635666;stroke-linecap:round;stroke-miterlimit:4;stroke-opacity:1;stroke-dasharray:none" />
          <path
             transform="matrix(-0.31108,1.1351,-0.96591,-0.37971,404.8,1314.6)"
             d="m -815.11,230.18 a 241.43,241.43 0 0 1 373.23,-85.32"
             id="path2395"
             inkscape:connector-curvature="0"
             style="fill:#88aa00;fill-opacity:0;stroke:#ffffff;stroke-width:35.08168793;stroke-miterlimit:4;stroke-opacity:1;stroke-dasharray:none" />
        </g>
      </g>
    </g>
    <path
       sodipodi:nodetypes="csssssc"
       inkscape:connector-curvature="0"
       id="path7875"
       d="m 975.15467,-456.7051 c -3.79541,111.11843 -17.13038,72.83054 -103.71688,242.72614 -24.50217,48.07691 -11.73599,57.31078 -36.11051,7.42401 -84.06434,-172.05266 -100.22918,-142.38 -103.07589,-250.14978 -1.6395,-62.07607 54.37585,-112.43183 121.45154,-112.43183 67.07588,-3.7e-4 123.5715,50.36839 121.45174,112.43183 z"
       style="fill:#000000;fill-opacity:1;stroke:#000000;stroke-width:11.11428452;stroke-linecap:butt;stroke-linejoin:miter;stroke-miterlimit:4;stroke-opacity:1;stroke-dasharray:none;display:inline" />
    <path
       sodipodi:type="star"
       style="fill:#ffd42a;fill-opacity:1;stroke:#000000;stroke-width:3;stroke-miterlimit:4;stroke-opacity:1;stroke-dasharray:none"
       id="path7877"
       sodipodi:sides="5"
       sodipodi:cx="432.34528"
       sodipodi:cy="519.00165"
       sodipodi:r1="113.42533"
       sodipodi:r2="56.712666"
       sodipodi:arg1="-1.5707963"
       sodipodi:arg2="-0.9424778"
       inkscape:flatsided="false"
       inkscape:rounded="0"
       inkscape:randomized="0"
       d="m 432.34528,405.57632 33.33486,67.54382 74.53904,10.83116 -53.93695,52.57553 12.73278,74.23784 -66.66973,-35.05036 -66.66974,35.05036 12.73279,-74.23784 -53.93695,-52.57554 74.53903,-10.83115 z"
       transform="matrix(0.79306703,0,0,0.79306703,512.38575,-845.24012)"
       inkscape:transform-center-y="-8.5898229" />
    <g
       transform="matrix(0.38797846,0,0,0.38797846,816.92423,-786.34565)"
       id="g7879"
       style="fill:#241f1c;fill-opacity:1;stroke:#ffffff;stroke-width:25.77462769;stroke-miterlimit:4;stroke-opacity:1;stroke-dasharray:none">
      <g
         transform="translate(-3.1565,4.0357)"
         stroke-miterlimit="0"
         id="g7881"
         style="fill:#241f1c;stroke:#ffffff;stroke-width:25.77462769;stroke-miterlimit:4;stroke-opacity:1;stroke-dasharray:none">
        <path
           d="m 654.29,578.08 a 231.43,231.43 0 1 1 -462.86,0 231.43,231.43 0 1 1 462.86,0 z"
           transform="matrix(0.99284,0.11944,-0.11944,0.99284,20.955,-98.214)"
           id="path7883"
           inkscape:connector-curvature="0"
           style="fill:#241f1c;stroke:#ffffff;stroke-width:25.77466393;stroke-miterlimit:4;stroke-opacity:1;stroke-dasharray:none" />
        <path
           transform="matrix(-0.44349,-0.19233,0.21042,-0.3707,97.221,255.04)"
           d="m -815.11,230.18 a 241.43,241.43 0 0 1 373.23,-85.32"
           id="path7885"
           inkscape:connector-curvature="0"
           style="fill:#241f1c;fill-opacity:0;stroke:#ffffff;stroke-width:56.9444313;stroke-miterlimit:4;stroke-opacity:1;stroke-dasharray:none" />
        <path
           transform="matrix(-1.0189,-0.45628,0.49607,-0.85034,-380.71,484.23)"
           d="m -815.11,230.18 a 241.43,241.43 0 0 1 373.23,-85.32"
           id="path7887"
           inkscape:connector-curvature="0"
           style="fill:#241f1c;fill-opacity:0;stroke:#ffffff;stroke-width:24.65643883;stroke-miterlimit:4;stroke-opacity:1;stroke-dasharray:none" />
        <path
           transform="matrix(0.64115,-0.98764,0.80549,0.6552,575.85,-235.75)"
           d="m -815.11,230.18 a 241.43,241.43 0 0 1 373.23,-85.32"
           id="path7889"
           inkscape:connector-curvature="0"
           style="fill:#241f1c;fill-opacity:0;stroke:#ffffff;stroke-width:23.37729454;stroke-miterlimit:4;stroke-opacity:1;stroke-dasharray:none" />
        <path
           d="M 422.2,299.12 314.83,753.5"
           id="path7891"
           inkscape:connector-curvature="0"
           style="fill:#241f1c;stroke:#ffffff;stroke-width:25.77462769;stroke-miterlimit:4;stroke-opacity:1;stroke-dasharray:none" />
        <path
           transform="matrix(-1.3253,-0.66861,0.7111,-1.0989,-589.04,215.76)"
           d="m -794.06,193.28 a 241.43,241.43 0 0 1 285.09,-87.65"
           id="path7893"
           inkscape:connector-curvature="0"
           style="fill:#241f1c;fill-opacity:0;stroke:#ffffff;stroke-width:18.54423714;stroke-linecap:round;stroke-miterlimit:4;stroke-opacity:1;stroke-dasharray:none" />
        <path
           transform="matrix(-0.31108,1.1351,-0.96591,-0.37971,404.8,1314.6)"
           d="m -815.11,230.18 a 241.43,241.43 0 0 1 373.23,-85.32"
           id="path7895"
           inkscape:connector-curvature="0"
           style="fill:#241f1c;fill-opacity:0;stroke:#ffffff;stroke-width:23.38779259;stroke-miterlimit:4;stroke-opacity:1;stroke-dasharray:none" />
      </g>
    </g>
    <text
       xml:space="preserve"
       style="font-size:40px;font-style:normal;font-weight:normal;line-height:125%;letter-spacing:0px;word-spacing:0px;fill:#000000;fill-opacity:1;stroke:none;font-family:Nexa Light;-inkscape-font-specification:Nexa Light"
       x="614.28577"
       y="-10.494952"
       id="text7897"
       sodipodi:linespacing="125%"><tspan
         sodipodi:role="line"
         id="tspan7899"
         x="614.28577"
         y="-10.494952">REDE</tspan></text>
    <text
       xml:space="preserve"
       style="font-size:40px;font-style:normal;font-weight:normal;line-height:125%;letter-spacing:0px;word-spacing:0px;fill:#000000;fill-opacity:1;stroke:none;font-family:Nexa Bold;-inkscape-font-specification:Nexa Bold"
       x="728.89435"
       y="-15.021564"
       id="text7901"
       sodipodi:linespacing="125%"><tspan
         sodipodi:role="line"
         id="tspan7903"
         x="728.89435"
         y="-15.021564">MAPAS</tspan></text>
    <text
       xml:space="preserve"
       style="font-size:112.97097015px;font-style:normal;font-variant:normal;font-weight:bold;font-stretch:normal;line-height:125%;letter-spacing:0px;word-spacing:0px;fill:#71c837;fill-opacity:1;stroke:none;font-family:Nexa Bold;-inkscape-font-specification:'Nexa Bold, Bold'"
       x="142.04607"
       y="978.77155"
       id="text7917"
       sodipodi:linespacing="125%"><tspan
         sodipodi:role="line"
         id="tspan7919"
         x="142.04607"
         y="978.77155">rede</tspan></text>
    <text
       xml:space="preserve"
       style="font-size:112.97097014999999942px;font-style:normal;font-weight:normal;line-height:125%;letter-spacing:0px;word-spacing:0px;fill:#483737;fill-opacity:1;stroke:none;font-family:Nexa Bold;-inkscape-font-specification:Nexa Bold"
       x="403.54279"
       y="978.64484"
       id="text7921"
       sodipodi:linespacing="125%"><tspan
         sodipodi:role="line"
         id="tspan7923"
         x="403.54279"
         y="978.64484">mapas</tspan></text>
    <g
       style="fill:#483737"
       transform="matrix(0.3463066,0,0,0.3463066,-40.635048,763.95641)"
       id="g7925">
      <path
         style="fill:#483737;fill-opacity:1;stroke:none;display:inline"
         d="m 475.15467,443.2949 c -3.79541,111.11843 -17.13038,72.83054 -103.71688,242.72614 -24.50217,48.07691 -11.73599,57.31078 -36.11051,7.42401 -84.06434,-172.05266 -100.22918,-142.38 -103.07589,-250.14978 -1.6395,-62.07607 54.37585,-112.43183 121.45154,-112.43183 67.07588,-3.7e-4 123.5715,50.36839 121.45174,112.43183 z"
         id="path7927"
         inkscape:connector-curvature="0"
         sodipodi:nodetypes="csssssc" />
      <g
         style="fill:#483737;fill-opacity:1;stroke:#ffffff;stroke-width:38.66194153;stroke-miterlimit:4;stroke-opacity:1;stroke-dasharray:none"
         id="g7929"
         transform="matrix(0.33100894,0,0,0.33100894,232.56045,280.51627)">
        <g
           style="fill:#483737;stroke:#ffffff;stroke-width:38.66194153;stroke-miterlimit:4;stroke-opacity:1;stroke-dasharray:none"
           id="g7931"
           stroke-miterlimit="0"
           transform="translate(-3.1565,4.0357)">
          <path
             style="fill:#483737;stroke:#ffffff;stroke-width:38.66199493;stroke-miterlimit:4;stroke-opacity:1;stroke-dasharray:none"
             inkscape:connector-curvature="0"
             id="path7933"
             transform="matrix(0.99284,0.11944,-0.11944,0.99284,20.955,-98.214)"
             d="m 654.29,578.08 a 231.43,231.43 0 1 1 -462.86,0 231.43,231.43 0 1 1 462.86,0 z" />
          <path
             style="fill:#483737;fill-opacity:0;stroke:#ffffff;stroke-width:85.41664886;stroke-miterlimit:4;stroke-opacity:1;stroke-dasharray:none"
             inkscape:connector-curvature="0"
             id="path7935"
             d="m -815.11,230.18 a 241.43,241.43 0 0 1 373.23,-85.32"
             transform="matrix(-0.44349,-0.19233,0.21042,-0.3707,97.221,255.04)" />
          <path
             style="fill:#483737;fill-opacity:0;stroke:#ffffff;stroke-width:36.98465729;stroke-miterlimit:4;stroke-opacity:1;stroke-dasharray:none"
             inkscape:connector-curvature="0"
             id="path7937"
             d="m -815.11,230.18 a 241.43,241.43 0 0 1 373.23,-85.32"
             transform="matrix(-1.0189,-0.45628,0.49607,-0.85034,-380.71,484.23)" />
          <path
             style="fill:#483737;fill-opacity:0;stroke:#ffffff;stroke-width:35.06594086;stroke-miterlimit:4;stroke-opacity:1;stroke-dasharray:none"
             inkscape:connector-curvature="0"
             id="path7939"
             d="m -815.11,230.18 a 241.43,241.43 0 0 1 373.23,-85.32"
             transform="matrix(0.64115,-0.98764,0.80549,0.6552,575.85,-235.75)" />
          <path
             style="fill:#483737;stroke:#ffffff;stroke-width:38.66194153;stroke-miterlimit:4;stroke-opacity:1;stroke-dasharray:none"
             inkscape:connector-curvature="0"
             id="path7941"
             d="M 422.2,299.12 314.83,753.5" />
          <path
             style="fill:#483737;fill-opacity:0;stroke:#ffffff;stroke-width:27.81635666;stroke-linecap:round;stroke-miterlimit:4;stroke-opacity:1;stroke-dasharray:none"
             inkscape:connector-curvature="0"
             id="path7943"
             d="m -794.06,193.28 a 241.43,241.43 0 0 1 285.09,-87.65"
             transform="matrix(-1.3253,-0.66861,0.7111,-1.0989,-589.04,215.76)" />
          <path
             style="fill:#483737;fill-opacity:0;stroke:#ffffff;stroke-width:35.08168793;stroke-miterlimit:4;stroke-opacity:1;stroke-dasharray:none"
             inkscape:connector-curvature="0"
             id="path7945"
             d="m -815.11,230.18 a 241.43,241.43 0 0 1 373.23,-85.32"
             transform="matrix(-0.31108,1.1351,-0.96591,-0.37971,404.8,1314.6)" />
        </g>
      </g>
    </g>
    <text
       sodipodi:linespacing="125%"
       id="text7947"
       y="538.77155"
       x="142.04607"
       style="font-size:112.97097015px;font-style:normal;font-variant:normal;font-weight:bold;font-stretch:normal;line-height:125%;letter-spacing:0px;word-spacing:0px;fill:#aa8800;fill-opacity:1;stroke:none;font-family:Nexa Bold;-inkscape-font-specification:'Nexa Bold, Bold'"
       xml:space="preserve"><tspan
         y="538.77155"
         x="142.04607"
         id="tspan7949"
         sodipodi:role="line">rede</tspan></text>
    <text
       sodipodi:linespacing="125%"
       id="text7951"
       y="538.64484"
       x="403.54279"
       style="font-size:112.97097015px;font-style:normal;font-weight:normal;line-height:125%;letter-spacing:0px;word-spacing:0px;fill:#88aa00;fill-opacity:1;stroke:none;font-family:Nexa Bold;-inkscape-font-specification:Nexa Bold"
       xml:space="preserve"><tspan
         y="538.64484"
         x="403.54279"
         id="tspan7953"
         sodipodi:role="line">mapas</tspan></text>
    <g
       id="g7955"
       transform="matrix(0.3463066,0,0,0.3463066,-40.635048,323.95641)"
       style="fill:#88aa00">
      <path
         sodipodi:nodetypes="csssssc"
         inkscape:connector-curvature="0"
         id="path7957"
         d="m 475.15467,443.2949 c -3.79541,111.11843 -17.13038,72.83054 -103.71688,242.72614 -24.50217,48.07691 -11.73599,57.31078 -36.11051,7.42401 -84.06434,-172.05266 -100.22918,-142.38 -103.07589,-250.14978 -1.6395,-62.07607 54.37585,-112.43183 121.45154,-112.43183 67.07588,-3.7e-4 123.5715,50.36839 121.45174,112.43183 z"
         style="fill:#88aa00;fill-opacity:1;stroke:none;display:inline" />
      <g
         transform="matrix(0.33100894,0,0,0.33100894,232.56045,280.51627)"
         id="g7959"
         style="fill:#88aa00;fill-opacity:1;stroke:#ffffff;stroke-width:38.66194153;stroke-miterlimit:4;stroke-opacity:1;stroke-dasharray:none">
        <g
           transform="translate(-3.1565,4.0357)"
           stroke-miterlimit="0"
           id="g7961"
           style="fill:#88aa00;stroke:#ffffff;stroke-width:38.66194153;stroke-miterlimit:4;stroke-opacity:1;stroke-dasharray:none">
          <path
             d="m 654.29,578.08 a 231.43,231.43 0 1 1 -462.86,0 231.43,231.43 0 1 1 462.86,0 z"
             transform="matrix(0.99284,0.11944,-0.11944,0.99284,20.955,-98.214)"
             id="path7963"
             inkscape:connector-curvature="0"
             style="fill:#88aa00;stroke:#ffffff;stroke-width:38.66199493;stroke-miterlimit:4;stroke-opacity:1;stroke-dasharray:none" />
          <path
             transform="matrix(-0.44349,-0.19233,0.21042,-0.3707,97.221,255.04)"
             d="m -815.11,230.18 a 241.43,241.43 0 0 1 373.23,-85.32"
             id="path7965"
             inkscape:connector-curvature="0"
             style="fill:#88aa00;fill-opacity:0;stroke:#ffffff;stroke-width:85.41664886;stroke-miterlimit:4;stroke-opacity:1;stroke-dasharray:none" />
          <path
             transform="matrix(-1.0189,-0.45628,0.49607,-0.85034,-380.71,484.23)"
             d="m -815.11,230.18 a 241.43,241.43 0 0 1 373.23,-85.32"
             id="path7967"
             inkscape:connector-curvature="0"
             style="fill:#88aa00;fill-opacity:0;stroke:#ffffff;stroke-width:36.98465729;stroke-miterlimit:4;stroke-opacity:1;stroke-dasharray:none" />
          <path
             transform="matrix(0.64115,-0.98764,0.80549,0.6552,575.85,-235.75)"
             d="m -815.11,230.18 a 241.43,241.43 0 0 1 373.23,-85.32"
             id="path7969"
             inkscape:connector-curvature="0"
             style="fill:#88aa00;fill-opacity:0;stroke:#ffffff;stroke-width:35.06594086;stroke-miterlimit:4;stroke-opacity:1;stroke-dasharray:none" />
          <path
             d="M 422.2,299.12 314.83,753.5"
             id="path7971"
             inkscape:connector-curvature="0"
             style="fill:#88aa00;stroke:#ffffff;stroke-width:38.66194153;stroke-miterlimit:4;stroke-opacity:1;stroke-dasharray:none" />
          <path
             transform="matrix(-1.3253,-0.66861,0.7111,-1.0989,-589.04,215.76)"
             d="m -794.06,193.28 a 241.43,241.43 0 0 1 285.09,-87.65"
             id="path7973"
             inkscape:connector-curvature="0"
             style="fill:#88aa00;fill-opacity:0;stroke:#ffffff;stroke-width:27.81635666;stroke-linecap:round;stroke-miterlimit:4;stroke-opacity:1;stroke-dasharray:none" />
          <path
             transform="matrix(-0.31108,1.1351,-0.96591,-0.37971,404.8,1314.6)"
             d="m -815.11,230.18 a 241.43,241.43 0 0 1 373.23,-85.32"
             id="path7975"
             inkscape:connector-curvature="0"
             style="fill:#88aa00;fill-opacity:0;stroke:#ffffff;stroke-width:35.08168793;stroke-miterlimit:4;stroke-opacity:1;stroke-dasharray:none" />
        </g>
      </g>
    </g>
    <path
       sodipodi:type="arc"
       style="fill:#333333;fill-opacity:1;stroke:none;filter:url(#filter8163)"
       id="path7977"
       sodipodi:cx="84.285713"
       sodipodi:cy="170.71428"
       sodipodi:rx="42.857143"
       sodipodi:ry="6.4285712"
       d="m 127.14286,170.71428 a 42.857143,6.4285712 0 1 1 -85.71429,0 42.857143,6.4285712 0 1 1 85.71429,0 z"
       transform="matrix(0.90550246,0,0,0.60215699,2.9647927,1051.7221)" />
    <path
       transform="matrix(2.7279551,0,0,0.58151089,41.786651,1083.8043)"
       d="m 127.14286,170.71428 a 42.857143,6.4285712 0 1 1 -85.71429,0 42.857143,6.4285712 0 1 1 85.71429,0 z"
       sodipodi:ry="6.4285712"
       sodipodi:rx="42.857143"
       sodipodi:cy="170.71428"
       sodipodi:cx="84.285713"
       id="path8055"
       style="fill:#333333;fill-opacity:1;stroke:none;filter:url(#filter8051)"
       sodipodi:type="arc" />
    <path
       sodipodi:type="arc"
       style="fill:#333333;fill-opacity:1;stroke:none;filter:url(#filter8051)"
       id="path8061"
       sodipodi:cx="84.285713"
       sodipodi:cy="170.71428"
       sodipodi:rx="42.857143"
       sodipodi:ry="6.4285712"
       d="m 127.14286,170.71428 a 42.857143,6.4285712 0 1 1 -85.71429,0 42.857143,6.4285712 0 1 1 85.71429,0 z"
       transform="matrix(3.5244343,0,0,0.58151089,292.51197,1083.8043)" />
  </g>
</svg>
