<?xml version="1.0" encoding="UTF-8" standalone="no"?>
<!-- Created with Inkscape (http://www.inkscape.org/) -->

<svg
   xmlns:dc="http://purl.org/dc/elements/1.1/"
   xmlns:cc="http://creativecommons.org/ns#"
   xmlns:rdf="http://www.w3.org/1999/02/22-rdf-syntax-ns#"
   xmlns:svg="http://www.w3.org/2000/svg"
   xmlns="http://www.w3.org/2000/svg"
   xmlns:sodipodi="http://sodipodi.sourceforge.net/DTD/sodipodi-0.dtd"
   xmlns:inkscape="http://www.inkscape.org/namespaces/inkscape"
   width="9.1000004cm"
   height="5.1199999cm"
   viewBox="0 0 322.44095 181.41733"
   id="svg7425"
   version="1.1"
   inkscape:version="0.91 r13725"
   sodipodi:docname="2019-cartao-de-visita-treinamento-em-foco-frente.svg"
   inkscape:export-filename="/media/francisco/pessoal/conteudo-impresso/cartao-de-visita/cartao-de-visita-treinamento-em-foco/2019-cartao-de-visita-treinamento-em-foco-frente.svg.png"
   inkscape:export-xdpi="360"
   inkscape:export-ydpi="360">
  <defs
     id="defs7427" />
  <sodipodi:namedview
     id="base"
     pagecolor="#ffffff"
     bordercolor="#666666"
     borderopacity="1.0"
     inkscape:pageopacity="0.0"
     inkscape:pageshadow="2"
     inkscape:zoom="1.4"
     inkscape:cx="173.82429"
     inkscape:cy="60.447158"
     inkscape:document-units="px"
     inkscape:current-layer="layer1"
     showgrid="false"
     units="cm"
     inkscape:window-width="1301"
     inkscape:window-height="744"
     inkscape:window-x="65"
     inkscape:window-y="24"
     inkscape:window-maximized="1"
     borderlayer="true" />
  <metadata
     id="metadata7430">
    <rdf:RDF>
      <cc:Work
         rdf:about="">
        <dc:format>image/svg+xml</dc:format>
        <dc:type
           rdf:resource="http://purl.org/dc/dcmitype/StillImage" />
        <dc:title></dc:title>
      </cc:Work>
    </rdf:RDF>
  </metadata>
  <g
     inkscape:label="Layer 1"
     inkscape:groupmode="layer"
     id="layer1"
     transform="translate(0,-870.94482)">
    <rect
       style="opacity:1;fill:#ffffff;fill-opacity:1;stroke:none;stroke-width:0.98900002;stroke-linecap:round;stroke-linejoin:round;stroke-miterlimit:4;stroke-dasharray:none;stroke-dashoffset:0;stroke-opacity:1"
       id="rect4902"
       width="332.97586"
       height="182.91275"
       x="0.7648384"
       y="870.16663"
       rx="0"
       ry="0" />
    <path
       inkscape:connector-curvature="0"
       id="path4365-4-8-9-2-0"
       style="font-style:normal;font-variant:normal;font-weight:normal;font-stretch:normal;font-size:medium;line-height:125%;font-family:'Lobster 13';-inkscape-font-specification:'Lobster 13, ';letter-spacing:0px;word-spacing:0px;fill:#ff5919;fill-opacity:1;stroke:#d85e2f;stroke-width:0.71131349;stroke-linecap:butt;stroke-linejoin:miter;stroke-miterlimit:4;stroke-dasharray:none;stroke-opacity:1"
       d="m 56.925143,949.97231 q 0,-1.5478 0.568965,-2.8745 0.568965,-1.36353 1.735824,-2.46911 1.1816,-1.10557 3.194629,-1.76891 2.027585,-0.66335 4.69708,-0.66335 0.393916,0 3.194555,0.36852 2.800786,0.36853 4.478317,0.36853 2.363164,0 3.442572,-0.44222 -0.08661,0.36852 -0.233277,0.84759 -0.130825,0.62649 -0.277129,1.06872 -0.146673,0.40538 -0.423067,0.92132 -0.262389,0.47909 -0.743977,0.73704 -0.48144,0.36854 -1.166896,0.36854 -0.379249,0 -0.846021,-0.36854 -0.466774,-0.36852 -0.831503,-0.36852 -0.350098,-0.36852 -0.962696,-0.36852 -0.598115,-0.36852 -0.904359,-0.36852 -0.291871,-0.36853 -1.021035,-0.36853 -0.714789,-0.36853 -0.962696,-0.36853 l -4.128167,19.24067 -4.288645,0 4.230252,-19.75292 q -0.889839,0 -1.604592,0.36853 -0.714827,0.36853 -1.42947,0.36853 -0.700308,0.36852 -1.21075,0.70019 -0.510628,0.44223 -0.919027,1.10558 -0.393916,0.62649 -0.598115,1.6215 -0.204163,0.92132 -0.204163,2.1743 0,0.66335 0.08661,1.10557 0.102452,0.44223 0.204163,0.66334 0.116454,0.36853 0.116454,0.36853 -1.604555,0 -2.40687,-0.6265 -0.787648,-0.66333 -0.787648,-2.24799 z" />
    <path
       inkscape:connector-curvature="0"
       id="path4367-1-3-7-0-5"
       style="font-style:normal;font-variant:normal;font-weight:normal;font-stretch:normal;font-size:medium;line-height:125%;font-family:'Lobster 13';-inkscape-font-specification:'Lobster 13, ';letter-spacing:0px;word-spacing:0px;fill:#ff5919;fill-opacity:1;stroke:#d85e2f;stroke-width:0.71131349;stroke-linecap:butt;stroke-linejoin:miter;stroke-miterlimit:4;stroke-dasharray:none;stroke-opacity:1"
       d="m 70.141172,964.56957 3.179999,-14.9363 4.288663,0 -0.320985,1.47409 q 1.925504,-1.47409 3.530133,-1.47409 0.991883,0 1.560812,0.51592 0.583484,0.51594 0.583484,1.40041 0,0.88445 -0.612634,1.6215 -0.612635,0.7002 -1.633817,0.7002 -0.466736,0 -0.72931,-0.36853 -0.262389,-0.36852 -0.350098,-0.47908 -0.08845,-0.36853 -0.130827,-0.58964 -0.04275,-0.36853 -0.160308,-0.47908 -0.102452,-0.36852 -0.350098,-0.36852 -0.627303,0 -1.079555,0.36852 -0.437587,0.36852 -0.991885,0.73705 l -2.479838,11.71539 -4.303231,0 z" />
    <path
       inkscape:connector-curvature="0"
       id="path4369-4-4-9-6-1"
       style="font-style:normal;font-variant:normal;font-weight:normal;font-stretch:normal;font-size:medium;line-height:125%;font-family:'Lobster 13';-inkscape-font-specification:'Lobster 13, ';letter-spacing:0px;word-spacing:0px;fill:#ff5919;fill-opacity:1;stroke:#d85e2f;stroke-width:0.71131349;stroke-linecap:butt;stroke-linejoin:miter;stroke-miterlimit:4;stroke-dasharray:none;stroke-opacity:1"
       d="m 82.233973,959.8156 q 0,-0.99502 0.146672,-2.06374 0.146673,-1.10557 0.452106,-2.28485 0.320985,-1.21614 0.889839,-2.28485 0.568965,-1.06872 1.312795,-1.91633 0.743977,-0.88446 1.837979,-1.36355 1.094039,-0.51593 2.406908,-0.51593 1.867166,0 2.844492,0.81076 0.991958,0.7739 0.991958,2.3217 0,1.28984 -0.656453,2.43226 -0.641858,1.10558 -1.66293,1.84262 -1.021107,0.73706 -2.173483,1.17929 -1.13782,0.44222 -2.261008,0.58964 -0.08845,0.70019 -0.08845,1.28983 0,1.36354 0.714863,1.99003 0.714753,0.62649 1.735825,0.62649 1.152413,0 2.698667,-1.17927 1.560812,-1.17929 2.319383,-2.80079 l 1.342019,0 q -0.539741,0.95816 -1.167006,1.84262 -0.612672,0.84761 -1.429507,1.62151 -0.816945,0.81075 -1.692154,1.36354 -0.875246,0.58964 -1.954654,0.92131 -1.064925,0.36853 -2.188078,0.36853 -2.071402,0 -3.252965,-1.36355 -1.16708,-1.36353 -1.16708,-3.39042 z m 4.361579,-2.69023 q 1.312869,0 2.406907,-0.7002 1.108669,-0.7002 1.706748,-1.69521 0.598042,-1.03187 0.612672,-2.10059 0,-0.40538 -0.07297,-0.70019 -0.05859,-0.36854 -0.320984,-0.6265 -0.248018,-0.36853 -0.656453,-0.36853 -0.787648,0 -1.560813,0.99503 -0.758534,0.99501 -1.269087,2.32169 -0.510554,1.32669 -0.846059,2.8745 z" />
    <path
       inkscape:connector-curvature="0"
       id="path4371-9-4-7-8-1"
       style="font-style:normal;font-variant:normal;font-weight:normal;font-stretch:normal;font-size:medium;line-height:125%;font-family:'Lobster 13';-inkscape-font-specification:'Lobster 13, ';letter-spacing:0px;word-spacing:0px;fill:#ff5919;fill-opacity:1;stroke:#d85e2f;stroke-width:0.71131349;stroke-linecap:butt;stroke-linejoin:miter;stroke-miterlimit:4;stroke-dasharray:none;stroke-opacity:1"
       d="m 93.437011,961.31917 q 0,-0.62649 0.18979,-1.54779 l 2.144333,-10.14917 4.303256,0 -2.144336,10.14917 q -0.131195,0.7739 -0.131195,0.95816 0,0.55278 0.320985,0.8476 0.335357,0.36853 1.1816,0.36853 0.422993,0 0.977326,-0.36853 0.55437,-0.36852 0.96277,-0.62649 0.4084,-0.36852 1.06482,-0.88446 0.67112,-0.58964 0.93358,-0.81075 l 1.02114,0 q -0.18979,0.36852 -0.83146,0.88446 -0.62716,0.66335 -1.10867,1.14242 -0.48129,0.47909 -1.23979,1.17929 -0.74401,0.66334 -1.356687,1.10556 -0.598041,0.44223 -1.298238,0.77391 -0.70016,0.36852 -1.254494,0.36852 -1.779642,0 -2.757005,-0.81075 -0.977327,-0.81075 -0.977327,-2.46911 z m 2.90283,-15.62175 q 0,-0.99501 0.685567,-1.69521 0.700232,-0.70019 1.677597,-0.70019 0.991957,0 1.692075,0.70019 0.70016,0.73705 0.70016,1.69521 0,0.99502 -0.70016,1.65836 -0.700082,0.7002 -1.692075,0.7002 -0.991994,0 -1.677597,-0.7002 -0.685567,-0.66334 -0.685567,-1.65836 z" />
    <path
       inkscape:connector-curvature="0"
       id="path4373-8-9-5-9-0"
       style="font-style:normal;font-variant:normal;font-weight:normal;font-stretch:normal;font-size:medium;line-height:125%;font-family:'Lobster 13';-inkscape-font-specification:'Lobster 13, ';letter-spacing:0px;word-spacing:0px;fill:#ff5919;fill-opacity:1;stroke:#d85e2f;stroke-width:0.71131349;stroke-linecap:butt;stroke-linejoin:miter;stroke-miterlimit:4;stroke-dasharray:none;stroke-opacity:1"
       d="m 100.59932,964.56957 3.1654,-14.9363 4.30322,0 -0.35009,1.6215 q 2.23182,-1.6215 3.9094,-1.6215 1.25456,0 2.34852,1.14242 1.09408,1.14243 1.09408,2.57967 0,0.40538 -0.073,0.73705 l -1.22531,5.70476 q -0.14594,0.55279 -0.14594,0.95816 0,0.5528 0.33536,0.84761 0.33535,0.36852 1.16701,0.36852 0.53974,0 0.91898,-0.36852 0.39388,-0.36852 0.97733,-0.81075 0.59804,-0.58964 0.93359,-0.88446 l 1.02114,0 q -0.27713,0.36852 -0.90436,0.99501 -0.62734,0.7002 -1.15245,1.25298 -0.51059,0.5528 -1.18157,1.10558 -0.67093,0.58964 -1.38575,0.92132 -0.70024,0.36852 -1.35665,0.36852 -3.70516,0 -3.70516,-3.24301 0,-0.6265 0.18979,-1.54781 l 1.12319,-5.3694 q 0.0874,-0.40538 0.0874,-0.81075 0,-0.77391 -0.37927,-1.28984 -0.37929,-0.51594 -0.99192,-0.51594 -0.94818,0 -1.88165,0.62649 l -2.53829,12.06181 -4.30323,0 z" />
    <path
       inkscape:connector-curvature="0"
       id="path4375-6-1-1-2-8"
       style="font-style:normal;font-variant:normal;font-weight:normal;font-stretch:normal;font-size:medium;line-height:125%;font-family:'Lobster 13';-inkscape-font-specification:'Lobster 13, ';letter-spacing:0px;word-spacing:0px;fill:#ff5919;fill-opacity:1;stroke:#d85e2f;stroke-width:0.71131349;stroke-linecap:butt;stroke-linejoin:miter;stroke-miterlimit:4;stroke-dasharray:none;stroke-opacity:1"
       d="m 116.48484,960.95434 q 0,-1.62151 0.23327,-3.16931 0.23328,-1.54781 0.80236,-3.02191 0.58348,-1.51094 1.44417,-2.61652 0.8752,-1.10558 2.24641,-1.80577 1.38577,-0.66334 3.10707,-0.66334 1.10867,0 1.99843,0.73704 l 0.17505,-0.7739 4.30323,0 -2.14433,10.15285 q -0.1312,0.7739 -0.1312,0.95817 0,0.55279 0.32099,0.84761 0.33536,0.36852 1.1816,0.36852 0.42295,0 0.97732,-0.36852 0.55427,-0.36853 0.96278,-0.66335 0.4084,-0.36853 1.06482,-0.88446 0.67093,-0.58963 0.93357,-0.81075 l 1.02119,0 q -0.18979,0.36852 -0.83154,0.88446 -0.62727,0.66334 -1.10867,1.14242 -0.4813,0.47909 -1.2399,1.17928 -0.74395,0.66334 -1.35658,1.10557 -0.59804,0.44224 -1.29824,0.7739 -0.70023,0.36854 -1.25449,0.36854 -3.04872,0 -3.63222,-2.28486 -1.77963,2.46912 -4.06983,2.46912 -1.03563,0 -1.79423,-0.36854 -0.74394,-0.36852 -1.15242,-0.88445 -0.39388,-0.55279 -0.56889,-1.17928 -0.18979,-0.62649 -0.18979,-1.36354 z m 4.04065,-0.81075 q 0,2.10058 1.72127,2.10058 0.88984,0 1.91091,-1.4741 0.0293,-0.36852 0.18979,-0.99501 l 1.66293,-7.90853 q -0.61268,-0.5528 -1.45869,-0.5528 -1.07948,0 -2.02756,1.36355 -0.94828,1.36353 -1.47343,3.39043 -0.52507,2.02688 -0.52507,4.0685 z" />
    <path
       inkscape:connector-curvature="0"
       id="path4377-2-7-3-6-5"
       style="font-style:normal;font-variant:normal;font-weight:normal;font-stretch:normal;font-size:medium;line-height:125%;font-family:'Lobster 13';-inkscape-font-specification:'Lobster 13, ';letter-spacing:0px;word-spacing:0px;fill:#ff5919;fill-opacity:1;stroke:#d85e2f;stroke-width:0.71131349;stroke-linecap:butt;stroke-linejoin:miter;stroke-miterlimit:4;stroke-dasharray:none;stroke-opacity:1"
       d="m 130.79487,964.56957 3.16541,-14.9363 4.30324,0 -0.33535,1.58465 q 2.20267,-1.58465 3.86564,-1.58465 0.83147,0 1.63375,0.55278 0.81694,0.55279 1.31283,1.4004 2.46525,-1.95318 4.36162,-1.95318 1.26909,0 2.34854,1.14242 1.09404,1.14243 1.09404,2.61653 0,0.36852 -0.0586,0.70019 l -1.22535,5.70107 q -0.14593,0.6265 -0.14593,1.10558 0,1.25298 1.22531,1.25298 0.80235,0 1.64833,-0.92131 0.84606,-0.92131 1.48792,-2.13744 l 1.4004,0 q -0.20417,0.36853 -0.77317,0.95816 -0.56889,0.73705 -0.99192,1.17928 -0.40839,0.47908 -1.06481,1.17928 -0.64187,0.70019 -1.1816,1.10557 -0.53974,0.40538 -1.1816,0.73706 -0.64187,0.36852 -1.19616,0.36852 -3.70515,0 -3.70515,-3.24301 0,-0.7002 0.17505,-1.54781 l 1.13781,-5.36572 q 0.0874,-0.40538 0.0874,-0.7739 0,-0.81075 -0.37928,-1.28984 -0.37929,-0.47907 -0.99192,-0.47907 -0.919,0 -1.7359,0.51593 0.14594,0.62649 0.14594,1.03186 0,0.36853 -0.0586,0.6265 l -2.2172,10.4882 -4.31793,0 2.14433,-10.15285 q 0.0874,-0.40537 0.0874,-0.81075 0,-0.7739 -0.37927,-1.25298 -0.37929,-0.51594 -0.99192,-0.51594 -0.93359,0 -1.82332,0.62649 l -2.56744,12.0655 -4.30322,0 z" />
    <path
       inkscape:connector-curvature="0"
       id="path4379-2-5-7-6-0"
       style="font-style:normal;font-variant:normal;font-weight:normal;font-stretch:normal;font-size:medium;line-height:125%;font-family:'Lobster 13';-inkscape-font-specification:'Lobster 13, ';letter-spacing:0px;word-spacing:0px;fill:#ff5919;fill-opacity:1;stroke:#d85e2f;stroke-width:0.71131349;stroke-linecap:butt;stroke-linejoin:miter;stroke-miterlimit:4;stroke-dasharray:none;stroke-opacity:1"
       d="m 154.11986,959.8156 q 0,-0.99502 0.14595,-2.06374 0.14593,-1.10557 0.45225,-2.28485 0.32099,-1.21614 0.88984,-2.28485 0.56889,-1.06872 1.31287,-1.91633 0.74393,-0.88446 1.83797,-1.36355 1.09404,-0.51593 2.40691,-0.51593 1.86717,0 2.8445,0.81076 0.99192,0.7739 0.99192,2.3217 0,1.28984 -0.65638,2.43226 -0.64187,1.10558 -1.66294,1.84262 -1.02114,0.73706 -2.17348,1.17929 -1.13781,0.44222 -2.26104,0.58964 -0.0874,0.70019 -0.0874,1.28983 0,1.36354 0.71475,1.99003 0.71476,0.62649 1.7359,0.62649 1.15237,0 2.69863,-1.17927 1.56084,-1.17929 2.31935,-2.80079 l 1.34209,0 q -0.53974,0.95816 -1.16701,1.84262 -0.61267,0.84761 -1.42958,1.62151 -0.81684,0.81075 -1.69208,1.36354 -0.87524,0.58964 -1.95462,0.92131 -1.06496,0.36853 -2.18819,0.36853 -2.0714,0 -3.25286,-1.36355 -1.16703,-1.36353 -1.16703,-3.39042 z m 4.36159,-2.69023 q 1.31283,0 2.40687,-0.7002 1.10859,-0.7002 1.70667,-1.69521 0.59804,-1.03187 0.61267,-2.10059 0,-0.40538 -0.073,-0.70019 -0.0586,-0.36854 -0.32098,-0.6265 -0.24802,-0.36853 -0.65645,-0.36853 -0.78776,0 -1.56085,0.99503 -0.75858,0.99501 -1.26909,2.32169 -0.51056,1.32669 -0.84606,2.8745 z" />
    <path
       inkscape:connector-curvature="0"
       id="path4381-5-7-8-4-6"
       style="font-style:normal;font-variant:normal;font-weight:normal;font-stretch:normal;font-size:medium;line-height:125%;font-family:'Lobster 13';-inkscape-font-specification:'Lobster 13, ';letter-spacing:0px;word-spacing:0px;fill:#ff5919;fill-opacity:1;stroke:#d85e2f;stroke-width:0.71131349;stroke-linecap:butt;stroke-linejoin:miter;stroke-miterlimit:4;stroke-dasharray:none;stroke-opacity:1"
       d="m 164.37467,964.56957 3.16541,-14.9363 4.30324,0 -0.3501,1.6215 q 2.23189,-1.6215 3.9094,-1.6215 1.25449,0 2.34857,1.14242 1.09404,1.14243 1.09404,2.57967 0,0.40538 -0.073,0.73705 l -1.22535,5.70476 q -0.14593,0.55279 -0.14593,0.95816 0,0.5528 0.33536,0.84761 0.33535,0.36852 1.16693,0.36852 0.53974,0 0.91898,-0.36852 0.39388,-0.36852 0.9774,-0.81075 0.59805,-0.58964 0.93359,-0.88446 l 1.02107,0 q -0.27713,0.36852 -0.90439,0.99501 -0.62727,0.7002 -1.15241,1.25298 -0.51049,0.5528 -1.18157,1.10558 -0.67105,0.58964 -1.3858,0.92132 -0.70016,0.36852 -1.35665,0.36852 -3.70515,0 -3.70515,-3.24301 0,-0.6265 0.18979,-1.54781 l 1.12326,-5.3694 q 0.0874,-0.40538 0.0874,-0.81075 0,-0.77391 -0.37928,-1.28984 -0.37925,-0.51594 -0.99188,-0.51594 -0.94821,0 -1.8818,0.62649 l -2.53817,12.06181 -4.30326,0 z" />
    <path
       inkscape:connector-curvature="0"
       id="path4383-2-6-0-9-4"
       style="font-style:normal;font-variant:normal;font-weight:normal;font-stretch:normal;font-size:medium;line-height:125%;font-family:'Lobster 13';-inkscape-font-specification:'Lobster 13, ';letter-spacing:0px;word-spacing:0px;fill:#ff5919;fill-opacity:1;stroke:#d85e2f;stroke-width:0.71131349;stroke-linecap:butt;stroke-linejoin:miter;stroke-miterlimit:4;stroke-dasharray:none;stroke-opacity:1"
       d="m 180.47902,961.31917 q 0,-0.73704 0.37928,-2.65337 0.37929,-1.91633 0.94818,-4.54022 0.58345,-2.57967 0.72935,-3.27987 l -0.97737,0 0.23328,-1.17928 0.99188,0 0.88984,-4.12378 4.41992,-0.58965 q -0.43762,2.02689 -1.00651,4.72818 l 1.77967,0 -0.23364,1.17927 -1.79424,0 q -2.02758,9.30893 -2.02758,9.8912 0,0.55279 0.32098,0.88445 0.32099,0.36854 1.16693,0.36854 0.42307,0 0.97741,-0.36854 0.56884,-0.36852 0.97732,-0.62649 0.4084,-0.36852 1.06482,-0.9213 0.67101,-0.5528 0.93357,-0.81076 l 1.00656,0 q -0.20416,0.36853 -0.8315,0.88446 -0.62723,0.66334 -1.10867,1.14243 -0.48137,0.47908 -1.22531,1.17927 -0.74394,0.66335 -1.35661,1.10558 -0.61264,0.44223 -1.31283,0.7739 -0.68564,0.36852 -1.23994,0.36852 -1.77965,0 -2.74241,-0.7739 -0.96273,-0.81075 -0.96273,-2.46911 z" />
    <path
       inkscape:connector-curvature="0"
       id="path4385-3-2-9-5-6"
       style="font-style:normal;font-variant:normal;font-weight:normal;font-stretch:normal;font-size:medium;line-height:125%;font-family:'Lobster 13';-inkscape-font-specification:'Lobster 13, ';letter-spacing:0px;word-spacing:0px;fill:#ff5919;fill-opacity:1;stroke:#d85e2f;stroke-width:0.71131349;stroke-linecap:butt;stroke-linejoin:miter;stroke-miterlimit:4;stroke-dasharray:none;stroke-opacity:1"
       d="m 188.64782,959.84508 q 0,-2.65338 0.64183,-4.72448 0.64182,-2.06374 1.73589,-3.31672 1.1086,-1.25299 2.49444,-1.84263 1.38576,-0.62649 2.97579,-0.62649 3.50091,0 3.61759,4.38912 0.26276,0.36853 0.86069,0.36853 0.61267,0 1.13781,-0.36853 0.52519,-0.36852 1.06483,-0.66334 0.55433,-0.40538 0.94816,-0.55278 l 0.11646,0.62649 q -0.6856,0.88446 -1.80883,1.58465 -1.10863,0.7002 -2.4069,1.06872 -0.20416,2.1743 -0.87525,3.92479 -0.67101,1.76892 -1.63374,2.83764 -0.94817,1.06872 -2.05685,1.62151 -1.094,0.55278 -2.24641,0.55278 -2.4215,0 -3.50091,-1.10557 -1.06493,-1.14243 -1.06493,-3.77369 z m 3.96775,-0.36853 q 0,1.25299 0.51054,1.76893 0.52512,0.47907 1.48785,0.47907 0.65645,0 1.21071,-0.47907 0.55434,-0.47909 0.93359,-1.3267 0.39391,-0.8476 0.6419,-1.84262 0.26239,-1.03187 0.40842,-2.13744 -0.61263,0 -0.93357,-0.36852 -0.32099,-0.40538 -0.32099,-0.95816 0,-0.66335 0.36484,-1.28984 0.36484,-0.58964 0.94817,-0.81076 -0.13119,-1.5478 -1.25449,-1.5478 -0.99192,0 -1.80882,0.95817 -0.80232,0.99501 -1.2545,2.3954 -0.45217,1.40039 -0.70016,2.76394 -0.23364,1.36353 -0.23364,2.35855 z" />
    <path
       inkscape:connector-curvature="0"
       id="path4387-2-4-5-0-2"
       style="font-style:normal;font-variant:normal;font-weight:normal;font-stretch:normal;font-size:medium;line-height:125%;font-family:'Lobster 13';-inkscape-font-specification:'Lobster 13, ';letter-spacing:0px;word-spacing:0px;fill:#ff5919;fill-opacity:1;stroke:#d85e2f;stroke-width:0.71131349;stroke-linecap:butt;stroke-linejoin:miter;stroke-miterlimit:4;stroke-dasharray:none;stroke-opacity:1"
       d="m 207.27575,959.8156 q 0,-0.99502 0.14593,-2.06374 0.14594,-1.10557 0.45222,-2.28485 0.32098,-1.21614 0.88977,-2.28485 0.56892,-1.06872 1.31286,-1.91633 0.74394,-0.88446 1.83798,-1.36355 1.09404,-0.51593 2.40691,-0.51593 1.86717,0 2.8445,0.81076 0.99192,0.7739 0.99192,2.3217 0,1.28984 -0.65642,2.43226 -0.64182,1.10558 -1.66297,1.84262 -1.02107,0.73706 -2.17348,1.17929 -1.13778,0.44222 -2.26101,0.58964 -0.0874,0.70019 -0.0874,1.28983 0,1.36354 0.71475,1.99003 0.71476,0.62649 1.7359,0.62649 1.15234,0 2.69863,-1.17927 1.56081,-1.17929 2.31935,-2.80079 l 1.34198,0 q -0.53967,0.95816 -1.16693,1.84262 -0.61267,0.84761 -1.42958,1.62151 -0.81691,0.81075 -1.69212,1.36354 -0.87522,0.58964 -1.95465,0.92131 -1.06486,0.36853 -2.18809,0.36853 -2.0714,0 -3.253,-1.36355 -1.16693,-1.36353 -1.16693,-3.39042 z m 4.36157,-2.69023 q 1.31283,0 2.4069,-0.7002 1.1086,-0.7002 1.70668,-1.69521 0.59804,-1.03187 0.61268,-2.10059 0,-0.40538 -0.073,-0.70019 -0.0586,-0.36854 -0.32098,-0.6265 -0.24801,-0.36853 -0.65645,-0.36853 -0.78772,0 -1.56085,0.99503 -0.75854,0.99501 -1.26908,2.32169 -0.51056,1.32669 -0.84606,2.8745 z" />
    <path
       inkscape:connector-curvature="0"
       id="path4389-7-2-2-4-5"
       style="font-style:normal;font-variant:normal;font-weight:normal;font-stretch:normal;font-size:medium;line-height:125%;font-family:'Lobster 13';-inkscape-font-specification:'Lobster 13, ';letter-spacing:0px;word-spacing:0px;fill:#ff5919;fill-opacity:1;stroke:#d85e2f;stroke-width:0.71131349;stroke-linecap:butt;stroke-linejoin:miter;stroke-miterlimit:4;stroke-dasharray:none;stroke-opacity:1"
       d="m 217.55972,964.56957 3.16541,-14.9363 4.30324,0 -0.33535,1.58465 q 2.20266,-1.58465 3.86564,-1.58465 0.83147,0 1.63375,0.55278 0.81691,0.55279 1.31283,1.4004 2.46525,-1.95318 4.36163,-1.95318 1.26908,0 2.3485,1.14242 1.09404,1.14243 1.09404,2.61653 0,0.36852 -0.0594,0.70019 l -1.22527,5.70107 q -0.14594,0.6265 -0.14594,1.10558 0,1.25298 1.22528,1.25298 0.80231,0 1.64822,-0.92131 0.84613,-0.92131 1.48799,-2.13744 l 1.40036,0 q -0.20306,0.36853 -0.77309,0.95816 -0.56882,0.73705 -0.992,1.17928 -0.40832,0.47908 -1.06481,1.17928 -0.64186,0.70019 -1.18167,1.10557 -0.53981,0.40538 -1.18168,0.73706 -0.64186,0.36852 -1.19616,0.36852 -3.70515,0 -3.70515,-3.24301 0,-0.7002 0.17504,-1.54781 l 1.13782,-5.36572 q 0.0874,-0.40538 0.0874,-0.7739 0,-0.81075 -0.37928,-1.28984 -0.37928,-0.47907 -0.99188,-0.47907 -0.919,0 -1.7359,0.51593 0.14594,0.62649 0.14594,1.03186 0,0.36853 -0.0586,0.6265 l -2.2173,10.4882 -4.31783,0 2.14433,-10.15285 q 0.0874,-0.40537 0.0874,-0.81075 0,-0.7739 -0.37931,-1.25298 -0.37929,-0.51594 -0.99192,-0.51594 -0.93359,0 -1.82338,0.62649 l -2.56734,12.0655 -4.30323,0 z" />
    <path
       inkscape:connector-curvature="0"
       id="path4391-3-5-1-8-8"
       style="font-style:normal;font-variant:normal;font-weight:normal;font-stretch:normal;font-size:medium;line-height:125%;font-family:'Lobster 13';-inkscape-font-specification:'Lobster 13, ';letter-spacing:0px;word-spacing:0px;fill:#ff5919;fill-opacity:1;stroke:#d85e2f;stroke-width:0.71131349;stroke-linecap:butt;stroke-linejoin:miter;stroke-miterlimit:4;stroke-dasharray:none;stroke-opacity:1"
       d="m 247.81362,949.9244 q 0,-1.25298 0.33535,-2.32171 0.3501,-1.10557 1.12327,-2.10059 0.78771,-1.03187 1.94017,-1.73206 1.16707,-0.7002 2.90286,-1.14243 1.7505,-0.44223 3.89481,-0.44223 0.51063,0 2.21727,0.36852 1.72126,0.36854 2.74237,0.36854 1.53159,0 2.68405,-0.36854 -0.0719,0.36854 -0.20307,0.6265 -0.11645,0.47908 -0.20305,0.73705 -0.0867,0.36852 -0.29187,0.66335 -0.20306,0.40537 -0.45218,0.62649 -0.24802,0.36852 -0.68568,0.47907 -0.43755,0.36854 -0.992,0.36854 -1.45876,0 -4.18649,-0.5528 l -1.47339,6.87299 4.60956,0 -0.59804,2.21114 -4.4783,0 -2.21726,10.315 -4.30325,0 4.30325,-19.9556 q -0.91896,0.36853 -1.59004,0.36853 -0.67109,0.36852 -1.21068,0.99502 -0.52522,0.70019 -0.80231,1.91633 -0.27713,1.21613 -0.27713,2.94818 0,0.66335 0.0866,1.10558 0.10139,0.44223 0.2178,0.62649 0.11645,0.36853 0.11645,0.36853 -1.60462,0 -2.40694,-0.66335 -0.80231,-0.66334 -0.80231,-2.21114 z" />
    <path
       inkscape:connector-curvature="0"
       id="path4393-9-5-3-7-6"
       style="font-style:normal;font-variant:normal;font-weight:normal;font-stretch:normal;font-size:medium;line-height:125%;font-family:'Lobster 13';-inkscape-font-specification:'Lobster 13, ';letter-spacing:0px;word-spacing:0px;fill:#ff5919;fill-opacity:1;stroke:#d85e2f;stroke-width:0.71131349;stroke-linecap:butt;stroke-linejoin:miter;stroke-miterlimit:4;stroke-dasharray:none;stroke-opacity:1"
       d="m 262.10913,959.84508 q 0,-2.65338 0.64185,-4.72448 0.64187,-2.06374 1.73591,-3.31672 1.10863,-1.25299 2.49443,-1.84263 1.38572,-0.62649 2.97576,-0.62649 3.50095,0 3.61762,4.38912 0.26238,0.36853 0.86076,0.36853 0.61264,0 1.13786,-0.36853 0.52522,-0.36852 1.06482,-0.66334 0.55418,-0.40538 0.94817,-0.55278 l 0.11645,0.62649 q -0.68567,0.88446 -1.80868,1.58465 -1.10863,0.7002 -2.40695,1.06872 -0.20305,2.1743 -0.87512,3.92479 -0.67109,1.76892 -1.63386,2.83764 -0.94818,1.06872 -2.05681,1.62151 -1.09404,0.55278 -2.24649,0.55278 -2.42157,0 -3.50094,-1.10557 -1.06482,-1.14243 -1.06482,-3.77369 z m 3.96776,-0.36853 q 0,1.25299 0.51037,1.76893 0.52522,0.47907 1.48799,0.47907 0.65645,0 1.21067,-0.47907 0.5542,-0.47909 0.93355,-1.3267 0.39399,-0.8476 0.64186,-1.84262 0.26239,-1.03187 0.40836,-2.13744 -0.61263,0 -0.93358,-0.36852 -0.32098,-0.40538 -0.32098,-0.95816 0,-0.66335 0.36483,-1.28984 0.36484,-0.58964 0.94818,-0.81076 -0.1312,-1.5478 -1.25449,-1.5478 -0.99199,0 -1.80895,0.95817 -0.8023,0.99501 -1.25448,2.3954 -0.45219,1.40039 -0.70006,2.76394 -0.2329,1.36353 -0.2329,2.35855 z" />
    <path
       inkscape:connector-curvature="0"
       id="path4395-0-0-2-17-2"
       style="font-style:normal;font-variant:normal;font-weight:normal;font-stretch:normal;font-size:medium;line-height:125%;font-family:'Lobster 13';-inkscape-font-specification:'Lobster 13, ';letter-spacing:0px;word-spacing:0px;fill:#ff5919;fill-opacity:1;stroke:#d85e2f;stroke-width:0.71131349;stroke-linecap:butt;stroke-linejoin:miter;stroke-miterlimit:4;stroke-dasharray:none;stroke-opacity:1"
       d="m 274.46451,959.67187 q 0,-1.40039 0.2329,-2.72708 0.23292,-1.36354 0.80232,-2.72708 0.58341,-1.36354 1.42958,-2.35855 0.86077,-0.99503 2.20267,-1.65836 1.3565,-0.62649 3.01959,-0.62649 3.28211,0 3.28211,2.06373 0,0.47908 -0.14593,0.99502 -0.32099,-0.36853 -0.74387,-0.36853 -0.32099,0 -0.96277,0.36853 0.14593,-0.55279 0.14593,-0.84761 0,-0.99502 -1.10863,-0.99502 -1.18168,0 -2.15882,1.36354 -0.9774,1.36355 -1.4734,3.20617 -0.4814,1.84262 -0.4814,3.50098 0,1.51095 0.45218,2.35856 0.46677,0.8476 1.72127,0.8476 2.71325,0 5.20764,-2.80078 l 1.00663,0 q -0.24802,0.36852 -0.74413,0.92131 -0.496,0.66334 -0.88998,1.17928 -0.37915,0.51593 -1.07942,1.17927 -0.7003,0.62649 -1.42957,1.06872 -0.72928,0.44224 -1.83791,0.70021 -1.09404,0.36852 -2.34854,0.36852 -4.099,0 -4.099,-4.90138 z" />
    <path
       inkscape:connector-curvature="0"
       id="path4397-1-5-7-27-8"
       style="font-style:normal;font-variant:normal;font-weight:normal;font-stretch:normal;font-size:medium;line-height:125%;font-family:'Lobster 13';-inkscape-font-specification:'Lobster 13, ';letter-spacing:0px;word-spacing:0px;fill:#ff5919;fill-opacity:1;stroke:#d85e2f;stroke-width:0.71131349;stroke-linecap:butt;stroke-linejoin:miter;stroke-miterlimit:4;stroke-dasharray:none;stroke-opacity:1"
       d="m 285.39041,959.84508 q 0,-2.65338 0.64185,-4.72448 0.64186,-2.06374 1.73587,-3.31672 1.10862,-1.25299 2.49442,-1.84263 1.38573,-0.62649 2.97581,-0.62649 3.50095,0 3.61769,4.38912 0.26239,0.36853 0.86076,0.36853 0.61264,0 1.13761,-0.36853 0.52522,-0.36852 1.06481,-0.66334 0.55418,-0.40538 0.94818,-0.55278 l 0.11644,0.62649 q -0.68567,0.88446 -1.80893,1.58465 -1.10864,0.7002 -2.40694,1.06872 -0.20307,2.1743 -0.87536,3.92479 -0.67108,1.76892 -1.63386,2.83764 -0.94817,1.06872 -2.05681,1.62151 -1.09404,0.55278 -2.24648,0.55278 -2.42133,0 -3.50091,-1.10557 -1.06482,-1.14243 -1.06482,-3.77369 z m 3.96764,-0.36853 q 0,1.25299 0.51062,1.76893 0.52523,0.47907 1.48799,0.47907 0.65645,0 1.21065,-0.47907 0.55418,-0.47909 0.93354,-1.3267 0.39373,-0.8476 0.64186,-1.84262 0.26239,-1.03187 0.40832,-2.13744 -0.61263,0 -0.93354,-0.36852 -0.32099,-0.40538 -0.32099,-0.95816 0,-0.66335 0.36484,-1.28984 0.36484,-0.58964 0.94817,-0.81076 -0.13118,-1.5478 -1.25449,-1.5478 -0.99199,0 -1.80868,0.95817 -0.80232,0.99501 -1.25449,2.3954 -0.45218,1.40039 -0.70005,2.76394 -0.23291,1.36353 -0.23291,2.35855 z" />
    <path
       style="color:#000000;font-style:normal;font-variant:normal;font-weight:normal;font-stretch:normal;font-size:medium;line-height:normal;font-family:sans-serif;text-indent:0;text-align:start;text-decoration:none;text-decoration-line:none;text-decoration-style:solid;text-decoration-color:#000000;letter-spacing:normal;word-spacing:normal;text-transform:none;direction:ltr;block-progression:tb;writing-mode:lr-tb;baseline-shift:baseline;text-anchor:start;white-space:normal;clip-rule:nonzero;display:inline;overflow:visible;visibility:visible;opacity:1;isolation:auto;mix-blend-mode:normal;color-interpolation:sRGB;color-interpolation-filters:linearRGB;solid-color:#000000;solid-opacity:1;fill:#d85e2f;fill-opacity:1;fill-rule:evenodd;stroke:none;stroke-width:1px;stroke-linecap:butt;stroke-linejoin:miter;stroke-miterlimit:4;stroke-dasharray:none;stroke-dashoffset:0;stroke-opacity:1;color-rendering:auto;image-rendering:auto;shape-rendering:auto;text-rendering:auto;enable-background:accumulate"
       d="m 73.106431,939.63888 -0.216692,0.66335 4.21805,3.72946 -4.227794,4.27857 0.202689,0.66335 15.127882,-4.52917 z"
       id="path4250-5-3-5-9-2-7"
       inkscape:connector-curvature="0"
       sodipodi:nodetypes="ccccccc" />
    <path
       style="color:#000000;font-style:normal;font-variant:normal;font-weight:normal;font-stretch:normal;font-size:medium;line-height:normal;font-family:sans-serif;text-indent:0;text-align:start;text-decoration:none;text-decoration-line:none;text-decoration-style:solid;text-decoration-color:#000000;letter-spacing:normal;word-spacing:normal;text-transform:none;direction:ltr;block-progression:tb;writing-mode:lr-tb;baseline-shift:baseline;text-anchor:start;white-space:normal;clip-rule:nonzero;display:inline;overflow:visible;visibility:visible;opacity:1;isolation:auto;mix-blend-mode:normal;color-interpolation:sRGB;color-interpolation-filters:linearRGB;solid-color:#000000;solid-opacity:1;fill:#ff5919;fill-opacity:1;fill-rule:evenodd;stroke:none;stroke-width:1px;stroke-linecap:butt;stroke-linejoin:miter;stroke-miterlimit:4;stroke-dasharray:none;stroke-dashoffset:0;stroke-opacity:1;color-rendering:auto;image-rendering:auto;shape-rendering:auto;text-rendering:auto;enable-background:accumulate"
       d="m 73.143298,940.28748 -0.188315,0.58965 3.662617,3.24301 -3.671094,3.71841 0.176155,0.58964 13.135942,-3.93216 z"
       id="path4250-5-3-5-6-1-6-2"
       inkscape:connector-curvature="0"
       sodipodi:nodetypes="ccccccc" />
    <path
       style="color:#000000;font-style:normal;font-variant:normal;font-weight:normal;font-stretch:normal;font-size:medium;line-height:normal;font-family:sans-serif;text-indent:0;text-align:start;text-decoration:none;text-decoration-line:none;text-decoration-style:solid;text-decoration-color:#000000;letter-spacing:normal;word-spacing:normal;text-transform:none;direction:ltr;block-progression:tb;writing-mode:lr-tb;baseline-shift:baseline;text-anchor:start;white-space:normal;clip-rule:nonzero;display:inline;overflow:visible;visibility:visible;opacity:1;isolation:auto;mix-blend-mode:normal;color-interpolation:sRGB;color-interpolation-filters:linearRGB;solid-color:#000000;solid-opacity:1;fill:#d85e2f;fill-opacity:1;fill-rule:evenodd;stroke:none;stroke-width:1px;stroke-linecap:butt;stroke-linejoin:miter;stroke-miterlimit:4;stroke-dasharray:none;stroke-dashoffset:0;stroke-opacity:1;color-rendering:auto;image-rendering:auto;shape-rendering:auto;text-rendering:auto;enable-background:accumulate"
       d="m 260.72619,939.23351 -0.2178,0.66334 4.21804,3.72947 -4.22775,4.28594 0.20306,0.66334 15.12794,-4.52548 z"
       id="path4250-5-3-5-0-0-0"
       inkscape:connector-curvature="0"
       sodipodi:nodetypes="ccccccc" />
    <path
       style="color:#000000;font-style:normal;font-variant:normal;font-weight:normal;font-stretch:normal;font-size:medium;line-height:normal;font-family:sans-serif;text-indent:0;text-align:start;text-decoration:none;text-decoration-line:none;text-decoration-style:solid;text-decoration-color:#000000;letter-spacing:normal;word-spacing:normal;text-transform:none;direction:ltr;block-progression:tb;writing-mode:lr-tb;baseline-shift:baseline;text-anchor:start;white-space:normal;clip-rule:nonzero;display:inline;overflow:visible;visibility:visible;opacity:1;isolation:auto;mix-blend-mode:normal;color-interpolation:sRGB;color-interpolation-filters:linearRGB;solid-color:#000000;solid-opacity:1;fill:#ff5919;fill-opacity:1;fill-rule:evenodd;stroke:none;stroke-width:1px;stroke-linecap:butt;stroke-linejoin:miter;stroke-miterlimit:4;stroke-dasharray:none;stroke-dashoffset:0;stroke-opacity:1;color-rendering:auto;image-rendering:auto;shape-rendering:auto;text-rendering:auto;enable-background:accumulate"
       d="m 260.76316,939.8821 -0.18832,0.58964 3.6627,3.24302 -3.67117,3.71841 0.17578,0.58964 13.13597,-3.93216 z"
       id="path4250-5-3-5-6-9-6-6"
       inkscape:connector-curvature="0"
       sodipodi:nodetypes="ccccccc" />
    <circle
       cy="964.43787"
       cx="34.632893"
       style="fill:#ff5919;fill-opacity:1;stroke:#d85e2f;stroke-width:0.57123697;stroke-opacity:1"
       id="path3783-5-9"
       r="17.826708" />
    <circle
       cy="961.95459"
       cx="34.716927"
       style="fill:#ffffff;fill-opacity:1;stroke:#d85e2f;stroke-width:0.57123697;stroke-opacity:1"
       id="path3785-9-9"
       r="11.36561" />
    <path
       style="fill:#ff5919;fill-opacity:1;stroke:#d85e2f;stroke-width:0.57123697;stroke-opacity:1"
       d="m 25.992425,940.63759 17.946471,0 c 1.096103,0 1.978424,0.88445 1.978424,1.99002 l 0,0.84761 c 0,1.10558 0.291871,1.99003 -1.978424,1.99003 l -17.946471,0 c -2.195226,0 -1.978497,-0.88445 -1.978497,-1.99003 l 0,-0.84761 c 0,-1.10557 0.882432,-1.99002 1.978497,-1.99002 z"
       id="rect3931-4-0"
       inkscape:connector-curvature="0"
       sodipodi:nodetypes="sssssssss" />
    <path
       style="color:#000000;font-style:normal;font-variant:normal;font-weight:normal;font-stretch:normal;font-size:medium;line-height:normal;font-family:sans-serif;text-indent:0;text-align:start;text-decoration:none;text-decoration-line:none;text-decoration-style:solid;text-decoration-color:#000000;letter-spacing:normal;word-spacing:normal;text-transform:none;direction:ltr;block-progression:tb;writing-mode:lr-tb;baseline-shift:baseline;text-anchor:start;white-space:normal;clip-rule:nonzero;display:inline;overflow:visible;visibility:visible;opacity:1;isolation:auto;mix-blend-mode:normal;color-interpolation:sRGB;color-interpolation-filters:linearRGB;solid-color:#000000;solid-opacity:1;fill:#d85e2f;fill-opacity:1;fill-rule:evenodd;stroke:none;stroke-width:1px;stroke-linecap:butt;stroke-linejoin:miter;stroke-miterlimit:4;stroke-dasharray:none;stroke-dashoffset:0;stroke-opacity:1;color-rendering:auto;image-rendering:auto;shape-rendering:auto;text-rendering:auto;enable-background:accumulate"
       d="m 31.055699,963.48485 0.543349,0.17405 2.99437,-3.38742 3.439859,3.39523 0.547805,-0.16289 -3.638291,-12.14883 z"
       id="path4250-5-3-5-60-0-1"
       inkscape:connector-curvature="0"
       sodipodi:nodetypes="ccccccc" />
    <path
       style="color:#000000;font-style:normal;font-variant:normal;font-weight:normal;font-stretch:normal;font-size:medium;line-height:normal;font-family:sans-serif;text-indent:0;text-align:start;text-decoration:none;text-decoration-line:none;text-decoration-style:solid;text-decoration-color:#000000;letter-spacing:normal;word-spacing:normal;text-transform:none;direction:ltr;block-progression:tb;writing-mode:lr-tb;baseline-shift:baseline;text-anchor:start;white-space:normal;clip-rule:nonzero;display:inline;overflow:visible;visibility:visible;opacity:1;isolation:auto;mix-blend-mode:normal;color-interpolation:sRGB;color-interpolation-filters:linearRGB;solid-color:#000000;solid-opacity:1;fill:#ff5919;fill-opacity:1;fill-rule:evenodd;stroke:none;stroke-width:1px;stroke-linecap:butt;stroke-linejoin:miter;stroke-miterlimit:4;stroke-dasharray:none;stroke-dashoffset:0;stroke-opacity:1;color-rendering:auto;image-rendering:auto;shape-rendering:auto;text-rendering:auto;enable-background:accumulate"
       d="m 31.575548,963.45519 0.471808,0.15114 2.6001,-2.9414 2.986926,2.94818 0.475675,-0.14145 -3.159233,-10.54918 z"
       id="path4250-5-3-5-6-6-9-3"
       inkscape:connector-curvature="0"
       sodipodi:nodetypes="ccccccc" />
    <path
       inkscape:connector-curvature="0"
       id="path4307-7-1"
       style="font-style:normal;font-weight:normal;font-size:medium;line-height:125%;font-family:sans-serif;letter-spacing:0px;word-spacing:0px;fill:#000000;fill-opacity:1;stroke:none;stroke-width:1px;stroke-linecap:butt;stroke-linejoin:miter;stroke-opacity:1"
       d="m 63.56241,982.39878 -2.762497,-7.23782 1.022618,0 2.292371,6.09539 2.297307,-6.09539 1.017718,0 -2.757633,7.23782 -1.109811,0 z" />
    <path
       inkscape:connector-curvature="0"
       id="path4309-7-0"
       style="font-style:normal;font-weight:normal;font-size:medium;line-height:125%;font-family:sans-serif;letter-spacing:0px;word-spacing:0px;fill:#000000;fill-opacity:1;stroke:none;stroke-width:1px;stroke-linecap:butt;stroke-linejoin:miter;stroke-opacity:1"
       d="m 69.770617,977.5969 q -0.717185,0 -1.133986,0.55279 -0.416949,0.55279 -0.416949,1.5478 0,0.99502 0.412047,1.5478 0.416802,0.5528 1.138852,0.5528 0.712468,0 1.129233,-0.5528 0.4168,-0.55278 0.4168,-1.5478 0,-0.95815 -0.4168,-1.5478 -0.416765,-0.55279 -1.129233,-0.55279 z m 0,-0.77389 q 1.163138,0 1.827219,0.77389 0.663897,0.7739 0.663897,2.06374 0,1.32669 -0.663897,2.10059 -0.664044,0.7739 -1.827219,0.7739 -1.168001,0 -1.831861,-0.7739 -0.659143,-0.7739 -0.659143,-2.10059 0,-1.32668 0.659143,-2.06374 0.66386,-0.77389 1.831861,-0.77389 z" />
    <path
       inkscape:connector-curvature="0"
       id="path4311-1-3"
       style="font-style:normal;font-weight:normal;font-size:medium;line-height:125%;font-family:sans-serif;letter-spacing:0px;word-spacing:0px;fill:#000000;fill-opacity:1;stroke:none;stroke-width:1px;stroke-linecap:butt;stroke-linejoin:miter;stroke-opacity:1"
       d="m 77.64125,977.18047 0,0.84761 q -0.377995,-0.36853 -0.760855,-0.36853 -0.377996,-0.36852 -0.76561,-0.36852 -0.867617,0 -1.347325,0.55279 -0.479709,0.55278 -0.479709,1.5478 0,0.99502 0.479709,1.5478 0.479855,0.55278 1.347325,0.55278 0.387762,0 0.76561,-0.36852 0.383044,-0.36852 0.760855,-0.36852 l 0,0.81075 q -0.373094,0.36852 -0.775523,0.36852 -0.397379,0.36854 -0.848048,0.36854 -1.226192,0 -1.948352,-0.77391 -0.72205,-0.7739 -0.72205,-2.06374 0,-1.32668 0.726951,-2.06374 0.731705,-0.77389 2.001567,-0.77389 0.412048,0 0.804563,0.36852 0.392479,0.36852 0.760856,0.36852 z" />
    <path
       inkscape:connector-curvature="0"
       id="path4313-1-4"
       style="font-style:normal;font-weight:normal;font-size:medium;line-height:125%;font-family:sans-serif;letter-spacing:0px;word-spacing:0px;fill:#000000;fill-opacity:1;stroke:none;stroke-width:1px;stroke-linecap:butt;stroke-linejoin:miter;stroke-opacity:1"
       d="m 83.844723,979.46164 0,0.44223 -4.100156,0 q 0.05675,0.92131 0.552382,1.40039 0.49924,0.47908 1.386094,0.47908 0.51376,0 0.993616,-0.36852 0.484573,-0.36853 0.959527,-0.36853 l 0,0.84761 q -0.479855,0.36852 -0.98385,0.36852 -0.503957,0.36852 -1.022618,0.36852 -1.298902,0 -2.059757,-0.77389 -0.756139,-0.7739 -0.756139,-2.06374 0,-1.32669 0.717333,-2.10059 0.722049,-0.81075 1.943413,-0.81075 1.095329,0 1.730187,0.73705 0.639758,0.70019 0.639758,1.91632 z m -0.891756,-0.36853 q -0.0094,-0.73705 -0.412047,-1.17928 -0.39738,-0.44223 -1.056522,-0.44223 -0.746337,0 -1.197042,0.40538 -0.445952,0.40538 -0.51376,1.17929 l 3.179298,0 z m -1.890161,-4.73922 0.717185,0 1.187422,1.80577 -0.673662,0 -0.872334,-1.17928 -0.872335,1.17928 -0.673662,0 1.187422,-1.80577 z" />
    <path
       inkscape:connector-curvature="0"
       id="path4315-5-0"
       style="font-style:normal;font-weight:normal;font-size:medium;line-height:125%;font-family:sans-serif;letter-spacing:0px;word-spacing:0px;fill:#000000;fill-opacity:1;stroke:none;stroke-width:1px;stroke-linecap:butt;stroke-linejoin:miter;stroke-opacity:1"
       d="m 93.111025,979.46164 0,0.44223 -4.099994,0 q 0.05749,0.92131 0.552455,1.40039 0.499129,0.47908 1.386021,0.47908 0.513723,0 0.993505,-0.36852 0.484646,-0.36853 0.959528,-0.36853 l 0,0.84761 q -0.479746,0.36852 -0.983777,0.36852 -0.504068,0.36852 -1.022618,0.36852 -1.298754,0 -2.059721,-0.77389 -0.756064,-0.7739 -0.756064,-2.06374 0,-1.32669 0.717332,-2.10059 0.722235,-0.81075 1.943488,-0.81075 1.095255,0 1.730075,0.73705 0.639685,0.70019 0.639685,1.91632 z m -0.891755,-0.36853 q -0.0094,-0.73705 -0.411901,-1.17928 -0.39738,-0.44223 -1.056559,-0.44223 -0.746337,0 -1.197079,0.40538 -0.445841,0.40538 -0.513723,1.17929 l 3.179224,0 z" />
    <path
       inkscape:connector-curvature="0"
       id="path4317-9-3"
       style="font-style:normal;font-weight:normal;font-size:medium;line-height:125%;font-family:sans-serif;letter-spacing:0px;word-spacing:0px;fill:#000000;fill-opacity:1;stroke:none;stroke-width:1px;stroke-linecap:butt;stroke-linejoin:miter;stroke-opacity:1"
       d="m 101.19487,977.12888 0,0.8476 q -0.37799,-0.36852 -0.78507,-0.36852 -0.40711,-0.36852 -0.843291,-0.36852 -0.663934,0 -0.998296,0.36852 -0.32946,0.36852 -0.32946,0.62649 0,0.36853 0.237329,0.47908 0.237329,0.36853 0.95481,0.36853 l 0.305507,0.36852 q 0.949871,0.36853 1.347361,0.55279 0.40221,0.36852 0.40221,0.99501 0,0.77391 -0.60095,1.17929 -0.59602,0.44223 -1.642886,0.44223 -0.436186,0 -0.91114,-0.36854 -0.470201,-0.36852 -0.993506,-0.36852 l 0,-0.9213 q 0.494339,0.36852 0.974158,0.36852 0.479819,0.36852 0.949872,0.36852 0.630103,0 0.969292,-0.36852 0.33941,-0.36852 0.33941,-0.62649 0,-0.36853 -0.24728,-0.55279 -0.24249,-0.36853 -1.071114,-0.36853 l -0.310298,-0.36852 q -0.828701,-0.36852 -1.197041,-0.55278 -0.368155,-0.36853 -0.368155,-0.99502 0,-0.77391 0.542762,-1.17928 0.542836,-0.40538 1.54117,-0.40538 0.494228,0 0.930486,0.36852 0.43611,0.36853 0.80449,0.36853 z" />
    <path
       inkscape:connector-curvature="0"
       id="path4319-7-9"
       style="font-style:normal;font-weight:normal;font-size:medium;line-height:125%;font-family:sans-serif;letter-spacing:0px;word-spacing:0px;fill:#000000;fill-opacity:1;stroke:none;stroke-width:1px;stroke-linecap:butt;stroke-linejoin:miter;stroke-opacity:1"
       d="m 107.55337,979.46164 0,0.44223 -4.10009,0 q 0.0575,0.92131 0.55257,1.40039 0.49916,0.47908 1.38602,0.47908 0.51376,0 0.9935,-0.36852 0.48465,-0.36853 0.95961,-0.36853 l 0,0.84761 q -0.47983,0.36852 -0.98382,0.36852 -0.50407,0.36852 -1.02262,0.36852 -1.29886,0 -2.05972,-0.77389 -0.75595,-0.7739 -0.75595,-2.06374 0,-1.32669 0.71722,-2.10059 0.72205,-0.81075 1.9433,-0.81075 1.09533,0 1.73019,0.73705 0.63969,0.70019 0.63969,1.91632 z m -0.89175,-0.36853 q -0.009,-0.73705 -0.4119,-1.17928 -0.39738,-0.44223 -1.05645,-0.44223 -0.74645,0 -1.19708,0.40538 -0.44584,0.40538 -0.51372,1.17929 l 3.17922,0 z" />
    <path
       inkscape:connector-curvature="0"
       id="path4321-7-1"
       style="font-style:normal;font-weight:normal;font-size:medium;line-height:125%;font-family:sans-serif;letter-spacing:0px;word-spacing:0px;fill:#000000;fill-opacity:1;stroke:none;stroke-width:1px;stroke-linecap:butt;stroke-linejoin:miter;stroke-opacity:1"
       d="m 108.92493,980.25397 0,-3.27987 0.89175,0 0,3.24301 q 0,0.7739 0.30036,1.17928 0.30034,0.36853 0.90147,0.36853 0.72206,0 1.13889,-0.44223 0.42163,-0.44223 0.42163,-1.25298 l 0,-3.09561 0.89176,0 0,5.42836 -0.89176,0 0,-0.84761 q -0.32466,0.47909 -0.75595,0.73706 -0.42653,0.36852 -0.9935,0.36852 -0.93535,0 -1.42,-0.58964 -0.48465,-0.58963 -0.48465,-1.69521 z m 2.24395,-3.42729 0,0 z" />
    <path
       inkscape:connector-curvature="0"
       id="path4323-6-9"
       style="font-style:normal;font-weight:normal;font-size:medium;line-height:125%;font-family:sans-serif;letter-spacing:0px;word-spacing:0px;fill:#000000;fill-opacity:1;stroke:none;stroke-width:1px;stroke-linecap:butt;stroke-linejoin:miter;stroke-opacity:1"
       d="m 119.35931,975.42998 0,1.5478 1.83673,0 0,0.7002 -1.83673,0 0,2.9482 q 0,0.66334 0.1791,0.84761 0.1839,0.36852 0.74155,0.36852 l 0.91586,0 0,0.73704 -0.91586,0 q -1.03235,0 -1.4249,-0.36852 -0.39259,-0.36852 -0.39259,-1.40039 l 0,-2.9482 -0.65432,0 0,-0.7002 0.65432,0 0,-1.5478 0.89658,0 z" />
    <path
       inkscape:connector-curvature="0"
       id="path4325-7-6"
       style="font-style:normal;font-weight:normal;font-size:medium;line-height:125%;font-family:sans-serif;letter-spacing:0px;word-spacing:0px;fill:#000000;fill-opacity:1;stroke:none;stroke-width:1px;stroke-linecap:butt;stroke-linejoin:miter;stroke-opacity:1"
       d="m 122.37377,976.97041 0.89175,0 0,5.42837 -0.89175,0 0,-5.42837 z m 0,-2.10059 0.89175,0 0,1.14243 -0.89175,0 0,-1.14243 z" />
    <path
       inkscape:connector-curvature="0"
       id="path4327-3-9"
       style="font-style:normal;font-weight:normal;font-size:medium;line-height:125%;font-family:sans-serif;letter-spacing:0px;word-spacing:0px;fill:#000000;fill-opacity:1;stroke:none;stroke-width:1px;stroke-linecap:butt;stroke-linejoin:miter;stroke-opacity:1"
       d="m 129.35265,978.01334 q 0.33425,-0.58964 0.79958,-0.88446 0.46534,-0.36852 1.09534,-0.36852 0.84812,0 1.30855,0.58963 0.46036,0.58964 0.46036,1.69522 l 0,3.27986 -0.89647,0 0,-3.24301 q 0,-0.81075 -0.27639,-1.14243 -0.2764,-0.36852 -0.8433,-0.36852 -0.69304,0 -1.09529,0.44223 -0.40221,0.47908 -0.40221,1.25298 l 0,3.05875 -0.89658,0 0,-3.24301 q 0,-0.77391 -0.27639,-1.17928 -0.2764,-0.36853 -0.8531,-0.36853 -0.68332,0 -1.08556,0.44223 -0.40228,0.44224 -0.40228,1.25299 l 0,3.05875 -0.89659,0 0,-5.42836 0.89659,0 0,0.84761 q 0.3055,-0.51594 0.73185,-0.73706 0.42653,-0.36852 1.01289,-0.36852 0.59129,0 1.00327,0.36852 0.41672,0.36852 0.6155,0.88446 z" />
    <path
       inkscape:connector-curvature="0"
       id="path4329-65-3"
       style="font-style:normal;font-weight:normal;font-size:medium;line-height:125%;font-family:sans-serif;letter-spacing:0px;word-spacing:0px;fill:#000000;fill-opacity:1;stroke:none;stroke-width:1px;stroke-linecap:butt;stroke-linejoin:miter;stroke-opacity:1"
       d="m 139.44296,979.46164 0,0.44223 -4.10017,0 q 0.0575,0.92131 0.55257,1.40039 0.49925,0.47908 1.3861,0.47908 0.51365,0 0.9935,-0.36852 0.48464,-0.36853 0.9596,-0.36853 l 0,0.84761 q -0.47982,0.36852 -0.98381,0.36852 -0.50411,0.36852 -1.02258,0.36852 -1.29886,0 -2.05972,-0.77389 -0.75606,-0.7739 -0.75606,-2.06374 0,-1.32669 0.71714,-2.10059 0.72213,-0.81075 1.94345,-0.81075 1.09534,0 1.73023,0.73705 0.63968,0.70019 0.63968,1.91632 z m -0.89176,-0.36853 q -0.009,-0.73705 -0.41197,-1.17928 -0.39738,-0.44223 -1.05653,-0.44223 -0.7463,0 -1.197,0.40538 -0.44602,0.40538 -0.51372,1.17929 l 3.17925,0 z" />
    <path
       inkscape:connector-curvature="0"
       id="path4331-6-3"
       style="font-style:normal;font-weight:normal;font-size:medium;line-height:125%;font-family:sans-serif;letter-spacing:0px;word-spacing:0px;fill:#000000;fill-opacity:1;stroke:none;stroke-width:1px;stroke-linecap:butt;stroke-linejoin:miter;stroke-opacity:1"
       d="m 148.29241,978.01334 q 0.33462,-0.58964 0.79977,-0.88446 0.46534,-0.36852 1.09529,-0.36852 0.8482,0 1.30849,0.58963 0.46039,0.58964 0.46039,1.69522 l 0,3.27986 -0.89654,0 0,-3.24301 q 0,-0.81075 -0.2764,-1.14243 -0.27639,-0.36852 -0.84322,-0.36852 -0.69312,0 -1.09536,0.44223 -0.40221,0.47908 -0.40221,1.25298 l 0,3.05875 -0.89666,0 0,-3.24301 q 0,-0.77391 -0.27639,-1.17928 -0.27639,-0.36853 -0.85303,-0.36853 -0.68331,0 -1.08559,0.44223 -0.40221,0.44224 -0.40221,1.25299 l 0,3.05875 -0.89666,0 0,-5.42836 0.89666,0 0,0.84761 q 0.30514,-0.51594 0.73178,-0.73706 0.42653,-0.36852 1.01288,-0.36852 0.5913,0 1.00324,0.36852 0.4168,0.36852 0.61541,0.88446 z" />
    <path
       inkscape:connector-curvature="0"
       id="path4333-3-8"
       style="font-style:normal;font-weight:normal;font-size:medium;line-height:125%;font-family:sans-serif;letter-spacing:0px;word-spacing:0px;fill:#000000;fill-opacity:1;stroke:none;stroke-width:1px;stroke-linecap:butt;stroke-linejoin:miter;stroke-opacity:1"
       d="m 156.20669,979.66801 q -1.0807,0 -1.49754,0.36853 -0.4168,0.36852 -0.4168,0.8476 0,0.47908 0.3103,0.77391 0.31509,0.36852 0.85302,0.36852 0.74148,0 1.18735,-0.51594 0.45063,-0.51593 0.45063,-1.40039 l 0,-0.36852 -0.88681,0 z m 1.7786,-0.36852 0,3.0956 -0.89174,0 0,-0.81075 q -0.30515,0.47908 -0.76086,0.7002 -0.45554,0.36852 -1.11465,0.36852 -0.8336,0 -1.32789,-0.47908 -0.48945,-0.47908 -0.48945,-1.25299 0,-0.9213 0.61061,-1.40039 0.61552,-0.47908 1.83194,-0.47908 l 1.25037,0 0,-0.36852 q 0,-0.6265 -0.40711,-0.92131 -0.40221,-0.36853 -1.13403,-0.36853 -0.46533,0 -0.90623,0.36853 -0.44102,0.36852 -0.84821,0.36852 l 0,-0.81075 q 0.48952,-0.36853 0.94996,-0.36853 0.46032,-0.36853 0.89654,-0.36853 1.17773,0 1.75927,0.6265 0.58148,0.62649 0.58148,1.84262 z" />
    <path
       inkscape:connector-curvature="0"
       id="path4335-94-0"
       style="font-style:normal;font-weight:normal;font-size:medium;line-height:125%;font-family:sans-serif;letter-spacing:0px;word-spacing:0px;fill:#000000;fill-opacity:1;stroke:none;stroke-width:1px;stroke-linecap:butt;stroke-linejoin:miter;stroke-opacity:1"
       d="m 159.82697,976.97041 0.89173,0 0,5.42837 -0.89173,0 0,-5.42837 z m 0,-2.10059 0.89173,0 0,1.14243 -0.89173,0 0,-1.14243 z" />
    <path
       inkscape:connector-curvature="0"
       id="path4337-8-5"
       style="font-style:normal;font-weight:normal;font-size:medium;line-height:125%;font-family:sans-serif;letter-spacing:0px;word-spacing:0px;fill:#000000;fill-opacity:1;stroke:none;stroke-width:1px;stroke-linecap:butt;stroke-linejoin:miter;stroke-opacity:1"
       d="m 166.04007,977.12888 0,0.8476 q -0.37808,-0.36852 -0.78515,-0.36852 -0.40711,-0.36852 -0.84329,-0.36852 -0.66393,0 -0.99829,0.36852 -0.32947,0.36852 -0.32947,0.62649 0,0.36853 0.23733,0.47908 0.23734,0.36853 0.95477,0.36853 l 0.30551,0.36852 q 0.94987,0.36853 1.34729,0.55279 0.40221,0.36852 0.40221,0.99501 0,0.77391 -0.60098,1.17929 -0.5961,0.44223 -1.64297,0.44223 -0.43618,0 -0.91106,-0.36854 -0.47013,-0.36852 -0.99358,-0.36852 l 0,-0.9213 q 0.49434,0.36852 0.97419,0.36852 0.47975,0.36852 0.94984,0.36852 0.6301,0 0.96929,-0.36852 0.33941,-0.36852 0.33941,-0.62649 0,-0.36853 -0.24727,-0.55279 -0.24249,-0.36853 -1.07109,-0.36853 l -0.31029,-0.36852 q -0.8287,-0.36852 -1.19709,-0.55278 -0.36815,-0.36853 -0.36815,-0.99502 0,-0.77391 0.54269,-1.17928 0.54284,-0.40538 1.54125,-0.40538 0.49422,0 0.93052,0.36852 0.43611,0.36853 0.80448,0.36853 z" />
    <path
       inkscape:connector-curvature="0"
       id="path4339-1-6"
       style="font-style:normal;font-weight:normal;font-size:medium;line-height:125%;font-family:sans-serif;letter-spacing:0px;word-spacing:0px;fill:#000000;fill-opacity:1;stroke:none;stroke-width:1px;stroke-linecap:butt;stroke-linejoin:miter;stroke-opacity:1"
       d="m 171.77828,981.58434 0,2.87449 -0.89658,0 0,-7.49211 0.89658,0 0,0.81077 q 0.28119,-0.51594 0.70763,-0.73706 0.43133,-0.36852 1.02738,-0.36852 0.98868,0 1.60418,0.81075 0.62038,0.7739 0.62038,2.06374 0,1.28984 -0.62038,2.06373 -0.6155,0.81076 -1.60418,0.81076 -0.59609,0 -1.02738,-0.36852 -0.4266,-0.36853 -0.70763,-0.7002 z m 3.0338,-1.91633 q 0,-0.95816 -0.40711,-1.5478 -0.40221,-0.55279 -1.10981,-0.55279 -0.70757,0 -1.11464,0.55279 -0.40228,0.55279 -0.40228,1.5478 0,0.99501 0.40228,1.54781 0.40711,0.55278 1.11464,0.55278 0.70764,0 1.10981,-0.55278 0.40711,-0.5528 0.40711,-1.54781 z" />
    <path
       inkscape:connector-curvature="0"
       id="path4341-2-6"
       style="font-style:normal;font-weight:normal;font-size:medium;line-height:125%;font-family:sans-serif;letter-spacing:0px;word-spacing:0px;fill:#000000;fill-opacity:1;stroke:none;stroke-width:1px;stroke-linecap:butt;stroke-linejoin:miter;stroke-opacity:1"
       d="m 180.36129,977.80328 q -0.15036,-0.36853 -0.32946,-0.36853 -0.17431,-0.36852 -0.38769,-0.36852 -0.75607,0 -1.16314,0.47908 -0.40221,0.51593 -0.40221,1.40039 l 0,2.87449 -0.89665,0 0,-5.42836 0.89665,0 0,0.84761 q 0.28118,-0.47908 0.73179,-0.73705 0.45069,-0.36853 1.09525,-0.36853 0.0922,0 0.20343,0 0.11129,0 0.24727,0.36853 l 0.008,0.92131 z" />
    <path
       inkscape:connector-curvature="0"
       id="path4343-9-4"
       style="font-style:normal;font-weight:normal;font-size:medium;line-height:125%;font-family:sans-serif;letter-spacing:0px;word-spacing:0px;fill:#000000;fill-opacity:1;stroke:none;stroke-width:1px;stroke-linecap:butt;stroke-linejoin:miter;stroke-opacity:1"
       d="m 183.19643,977.5969 q -0.71722,0 -1.13406,0.55279 -0.41676,0.55279 -0.41676,1.5478 0,0.99502 0.41197,1.5478 0.4168,0.5528 1.13892,0.5528 0.71236,0 1.12924,-0.5528 0.41676,-0.55278 0.41676,-1.5478 0,-0.95815 -0.41676,-1.5478 -0.4168,-0.55279 -1.12924,-0.55279 z m 0,-0.77389 q 1.16318,0 1.82715,0.77389 0.66389,0.7739 0.66389,2.06374 0,1.32669 -0.66389,2.10059 -0.66394,0.7739 -1.82715,0.7739 -1.16804,0 -1.83197,-0.7739 -0.65911,-0.7739 -0.65911,-2.10059 0,-1.32668 0.65911,-2.06374 0.66393,-0.77389 1.83197,-0.77389 z" />
    <path
       inkscape:connector-curvature="0"
       id="path4345-3-0"
       style="font-style:normal;font-weight:normal;font-size:medium;line-height:125%;font-family:sans-serif;letter-spacing:0px;word-spacing:0px;fill:#000000;fill-opacity:1;stroke:none;stroke-width:1px;stroke-linecap:butt;stroke-linejoin:miter;stroke-opacity:1"
       d="m 190.73267,977.7959 0,-2.94819 0.89169,0 0,7.54001 -0.89169,0 0,-0.81075 q -0.28118,0.47909 -0.71247,0.73704 -0.42645,0.36854 -1.02743,0.36854 -0.98382,0 -1.60423,-0.77391 -0.61544,-0.81075 -0.61544,-2.06374 0,-1.28984 0.61544,-2.06374 0.62037,-0.81075 1.60423,-0.81075 0.60094,0 1.02743,0.36852 0.43136,0.36854 0.71247,0.73706 z m -3.03877,1.87948 q 0,0.99502 0.40228,1.54781 0.40711,0.55278 1.11464,0.55278 0.7076,0 1.11471,-0.55278 0.40711,-0.55279 0.40711,-1.54781 0,-0.95816 -0.40711,-1.5478 -0.40711,-0.55278 -1.11471,-0.55278 -0.70757,0 -1.11464,0.55278 -0.40228,0.55278 -0.40228,1.5478 z" />
    <path
       inkscape:connector-curvature="0"
       id="path4347-9-0"
       style="font-style:normal;font-weight:normal;font-size:medium;line-height:125%;font-family:sans-serif;letter-spacing:0px;word-spacing:0px;fill:#000000;fill-opacity:1;stroke:none;stroke-width:1px;stroke-linecap:butt;stroke-linejoin:miter;stroke-opacity:1"
       d="m 193.36906,980.25397 0,-3.27987 0.89176,0 0,3.24301 q 0,0.7739 0.30034,1.17928 0.30035,0.36853 0.90149,0.36853 0.72205,0 1.13885,-0.44223 0.42163,-0.44223 0.42163,-1.25298 l 0,-3.09561 0.89175,0 0,5.42836 -0.89175,0 0,-0.84761 q -0.32467,0.47909 -0.75603,0.73706 -0.4265,0.36852 -0.99351,0.36852 -0.93535,0 -1.42,-0.58964 -0.48464,-0.58963 -0.48464,-1.69521 z m 2.24394,-3.42729 0,0 z" />
    <path
       inkscape:connector-curvature="0"
       id="path4349-0-4"
       style="font-style:normal;font-weight:normal;font-size:medium;line-height:125%;font-family:sans-serif;letter-spacing:0px;word-spacing:0px;fill:#000000;fill-opacity:1;stroke:none;stroke-width:1px;stroke-linecap:butt;stroke-linejoin:miter;stroke-opacity:1"
       d="m 200.64354,975.42998 0,1.5478 1.83685,0 0,0.7002 -1.83685,0 0,2.9482 q 0,0.66334 0.17911,0.84761 0.18426,0.36852 0.74151,0.36852 l 0.91596,0 0,0.73704 -0.91596,0 q -1.03232,0 -1.42483,-0.36852 -0.39262,-0.36852 -0.39262,-1.40039 l 0,-2.9482 -0.65421,0 0,-0.7002 0.65421,0 0,-1.5478 0.89657,0 z" />
    <path
       inkscape:connector-curvature="0"
       id="path4351-8-6"
       style="font-style:normal;font-weight:normal;font-size:medium;line-height:125%;font-family:sans-serif;letter-spacing:0px;word-spacing:0px;fill:#000000;fill-opacity:1;stroke:none;stroke-width:1px;stroke-linecap:butt;stroke-linejoin:miter;stroke-opacity:1"
       d="m 203.65799,976.97041 0.89176,0 0,5.42837 -0.89176,0 0,-5.42837 z m 0,-2.10059 0.89176,0 0,1.14243 -0.89176,0 0,-1.14243 z" />
    <path
       inkscape:connector-curvature="0"
       id="path4353-8-2"
       style="font-style:normal;font-weight:normal;font-size:medium;line-height:125%;font-family:sans-serif;letter-spacing:0px;word-spacing:0px;fill:#000000;fill-opacity:1;stroke:none;stroke-width:1px;stroke-linecap:butt;stroke-linejoin:miter;stroke-opacity:1"
       d="m 205.77106,976.97041 0.94507,0 1.69625,4.55497 1.69631,-4.55497 0.94498,0 -2.0354,5.42837 -1.21167,0 -2.03554,-5.42837 z" />
    <path
       inkscape:connector-curvature="0"
       id="path4355-5-6"
       style="font-style:normal;font-weight:normal;font-size:medium;line-height:125%;font-family:sans-serif;letter-spacing:0px;word-spacing:0px;fill:#000000;fill-opacity:1;stroke:none;stroke-width:1px;stroke-linecap:butt;stroke-linejoin:miter;stroke-opacity:1"
       d="m 214.38803,977.5969 q -0.71722,0 -1.13406,0.55279 -0.4168,0.55279 -0.4168,1.5478 0,0.99502 0.41197,1.5478 0.41687,0.5528 1.13893,0.5528 0.71239,0 1.12923,-0.5528 0.4168,-0.55278 0.4168,-1.5478 0,-0.95815 -0.4168,-1.5478 -0.41688,-0.55279 -1.12923,-0.55279 z m 0,-0.77389 q 1.16317,0 1.82706,0.77389 0.66402,0.7739 0.66402,2.06374 0,1.32669 -0.66402,2.10059 -0.66385,0.7739 -1.82706,0.7739 -1.16804,0 -1.83197,-0.7739 -0.65911,-0.7739 -0.65911,-2.10059 0,-1.32668 0.65911,-2.06374 0.66397,-0.77389 1.83197,-0.77389 z" />
    <path
       inkscape:connector-curvature="0"
       id="path4357-0-7"
       style="font-style:normal;font-weight:normal;font-size:medium;line-height:125%;font-family:sans-serif;letter-spacing:0px;word-spacing:0px;fill:#000000;fill-opacity:1;stroke:none;stroke-width:1px;stroke-linecap:butt;stroke-linejoin:miter;stroke-opacity:1"
       d="m 221.81277,977.12888 0,0.8476 q -0.37807,-0.36852 -0.78514,-0.36852 -0.40711,-0.36852 -0.84326,-0.36852 -0.66393,0 -0.99841,0.36852 -0.32946,0.36852 -0.32946,0.62649 0,0.36853 0.23734,0.47908 0.23732,0.36853 0.95477,0.36853 l 0.30551,0.36852 q 0.94983,0.36853 1.34728,0.55279 0.40225,0.36852 0.40225,0.99501 0,0.77391 -0.60103,1.17929 -0.59605,0.44223 -1.64292,0.44223 -0.43615,0 -0.91114,-0.36854 -0.47017,-0.36852 -0.99351,-0.36852 l 0,-0.9213 q 0.49438,0.36852 0.9742,0.36852 0.47975,0.36852 0.94984,0.36852 0.62999,0 0.96929,-0.36852 0.33941,-0.36852 0.33941,-0.62649 0,-0.36853 -0.24728,-0.55279 -0.24249,-0.36853 -1.07108,-0.36853 l -0.31029,-0.36852 q -0.82879,-0.36852 -1.19709,-0.55278 -0.36852,-0.36853 -0.36852,-0.99502 0,-0.77391 0.54284,-1.17928 0.54279,-0.40538 1.54113,-0.40538 0.49438,0 0.93053,0.36852 0.43626,0.36853 0.80456,0.36853 z" />
    <path
       inkscape:connector-curvature="0"
       id="path4359-9-5"
       style="font-style:normal;font-weight:normal;font-size:medium;line-height:125%;font-family:sans-serif;letter-spacing:0px;word-spacing:0px;fill:#000000;fill-opacity:1;stroke:none;stroke-width:1px;stroke-linecap:butt;stroke-linejoin:miter;stroke-opacity:1"
       d="m 230.26004,977.7959 0,-2.94819 0.89176,0 0,7.54001 -0.89176,0 0,-0.81075 q -0.28118,0.47909 -0.71238,0.73704 -0.4265,0.36854 -1.02745,0.36854 -0.98385,0 -1.60408,-0.77391 -0.61554,-0.81075 -0.61554,-2.06374 0,-1.28984 0.61554,-2.06374 0.62023,-0.81075 1.60408,-0.81075 0.60099,0 1.02745,0.36852 0.43132,0.36854 0.71238,0.73706 z m -3.03863,1.87948 q 0,0.99502 0.40226,1.54781 0.4071,0.55278 1.11463,0.55278 0.70761,0 1.11464,-0.55278 0.4071,-0.55279 0.4071,-1.54781 0,-0.95816 -0.4071,-1.5478 -0.40703,-0.55278 -1.11464,-0.55278 -0.70756,0 -1.11463,0.55278 -0.40226,0.55278 -0.40226,1.5478 z" />
    <path
       inkscape:connector-curvature="0"
       id="path4361-6-6"
       style="font-style:normal;font-weight:normal;font-size:medium;line-height:125%;font-family:sans-serif;letter-spacing:0px;word-spacing:0px;fill:#000000;fill-opacity:1;stroke:none;stroke-width:1px;stroke-linecap:butt;stroke-linejoin:miter;stroke-opacity:1"
       d="m 235.09197,977.5969 q -0.7173,0 -1.13413,0.55279 -0.41673,0.55279 -0.41673,1.5478 0,0.99502 0.41201,1.5478 0.41672,0.5528 1.13885,0.5528 0.71246,0 1.12919,-0.5528 0.41688,-0.55278 0.41688,-1.5478 0,-0.95815 -0.41688,-1.5478 -0.41673,-0.55279 -1.12919,-0.55279 z m 0,-0.77389 q 1.16314,0 1.82711,0.77389 0.66393,0.7739 0.66393,2.06374 0,1.32669 -0.66393,2.10059 -0.66397,0.7739 -1.82711,0.7739 -1.16796,0 -1.83194,-0.7739 -0.6591,-0.7739 -0.6591,-2.10059 0,-1.32668 0.6591,-2.06374 0.66393,-0.77389 1.83194,-0.77389 z" />
    <path
       inkscape:connector-curvature="0"
       id="path4363-3-9"
       style="font-style:normal;font-weight:normal;font-size:medium;line-height:125%;font-family:sans-serif;letter-spacing:0px;word-spacing:0px;fill:#000000;fill-opacity:1;stroke:none;stroke-width:1px;stroke-linecap:butt;stroke-linejoin:miter;stroke-opacity:1"
       d="m 242.74935,979.69013 q 0,0.99501 0.40213,1.54779 0.40712,0.5528 1.11457,0.5528 0.7075,0 1.11457,-0.5528 0.40711,-0.55278 0.40711,-1.54779 0,-0.95817 -0.40711,-1.54781 -0.40712,-0.55278 -1.11457,-0.55278 -0.70745,0 -1.11457,0.55278 -0.40213,0.55279 -0.40213,1.54781 z m 3.03867,1.91633 q -0.28118,0.47907 -0.71243,0.70019 -0.42642,0.36852 -1.0274,0.36852 -0.98382,0 -1.60416,-0.81075 -0.61562,-0.7739 -0.61562,-2.06374 0,-1.28984 0.61562,-2.06374 0.6203,-0.81075 1.60416,-0.81075 0.60098,0 1.0274,0.36852 0.43136,0.36853 0.71243,0.7002 l 0,-0.81075 0.89172,0 0,7.4921 -0.89172,0 0,-2.8745 z" />
    <path
       inkscape:connector-curvature="0"
       id="path4365-8-8"
       style="font-style:normal;font-weight:normal;font-size:medium;line-height:125%;font-family:sans-serif;letter-spacing:0px;word-spacing:0px;fill:#000000;fill-opacity:1;stroke:none;stroke-width:1px;stroke-linecap:butt;stroke-linejoin:miter;stroke-opacity:1"
       d="m 248.42447,980.25397 0,-3.27987 0.89172,0 0,3.24301 q 0,0.7739 0.30034,1.17928 0.30035,0.36853 0.90137,0.36853 0.72209,0 1.13886,-0.44223 0.4217,-0.44223 0.4217,-1.25298 l 0,-3.09561 0.89172,0 0,5.42836 -0.89172,0 0,-0.84761 q -0.32504,0.47909 -0.75599,0.73706 -0.42642,0.36852 -0.9935,0.36852 -0.93528,0 -1.41993,-0.58964 -0.48461,-0.58963 -0.48461,-1.69521 z m 2.24376,-3.42729 0,0 z" />
    <path
       inkscape:connector-curvature="0"
       id="path4367-5-7"
       style="font-style:normal;font-weight:normal;font-size:medium;line-height:125%;font-family:sans-serif;letter-spacing:0px;word-spacing:0px;fill:#000000;fill-opacity:1;stroke:none;stroke-width:1px;stroke-linecap:butt;stroke-linejoin:miter;stroke-opacity:1"
       d="m 259.45982,979.46164 0,0.44223 -4.1001,0 q 0.0571,0.92131 0.55246,1.40039 0.49919,0.47908 1.38597,0.47908 0.51384,0 0.99351,-0.36852 0.48462,-0.36853 0.95956,-0.36853 l 0,0.84761 q -0.47989,0.36852 -0.98381,0.36852 -0.50391,0.36852 -1.02247,0.36852 -1.29882,0 -2.05979,-0.77389 -0.75603,-0.7739 -0.75603,-2.06374 0,-1.32669 0.71737,-2.10059 0.72209,-0.81075 1.94337,-0.81075 1.09526,0 1.73019,0.73705 0.63961,0.70019 0.63961,1.91632 z m -0.89172,-0.36853 q -0.009,-0.73705 -0.41205,-1.17928 -0.39746,-0.44223 -1.05663,-0.44223 -0.74634,0 -1.19705,0.40538 -0.44598,0.40538 -0.51382,1.17929 l 3.17929,0 z" />
    <path
       inkscape:connector-curvature="0"
       id="path4369-6-2"
       style="font-style:normal;font-weight:normal;font-size:medium;line-height:125%;font-family:sans-serif;letter-spacing:0px;word-spacing:0px;fill:#000000;fill-opacity:1;stroke:none;stroke-width:1px;stroke-linecap:butt;stroke-linejoin:miter;stroke-opacity:1"
       d="m 268.59533,979.12259 0,3.27987 -0.89173,0 0,-3.24301 q 0,-0.7739 -0.30034,-1.17928 -0.30072,-0.36853 -0.90164,-0.36853 -0.72208,0 -1.13884,0.44223 -0.41677,0.44223 -0.41677,1.25299 l 0,3.05875 -0.8964,0 0,-5.42836 0.8964,0 0,0.8476 q 0.31988,-0.47908 0.75131,-0.7002 0.43607,-0.36852 1.00317,-0.36852 0.93553,0 1.4152,0.58964 0.47989,0.55278 0.47989,1.69521 z" />
    <path
       inkscape:connector-curvature="0"
       id="path4371-1-8"
       style="font-style:normal;font-weight:normal;font-size:medium;line-height:125%;font-family:sans-serif;letter-spacing:0px;word-spacing:0px;fill:#000000;fill-opacity:1;stroke:none;stroke-width:1px;stroke-linecap:butt;stroke-linejoin:miter;stroke-opacity:1"
       d="m 270.29157,980.25397 0,-3.27987 0.89171,0 0,3.24301 q 0,0.7739 0.30034,1.17928 0.30072,0.36853 0.90164,0.36853 0.72209,0 1.13885,-0.44223 0.42149,-0.44223 0.42149,-1.25298 l 0,-3.09561 0.89171,0 0,5.42836 -0.89171,0 0,-0.84761 q -0.32468,0.47909 -0.75626,0.73706 -0.42641,0.36852 -0.99346,0.36852 -0.93532,0 -1.41993,-0.58964 -0.48461,-0.58963 -0.48461,-1.69521 z m 2.24401,-3.42729 0,0 z" />
    <path
       inkscape:connector-curvature="0"
       id="path4373-1-2"
       style="font-style:normal;font-weight:normal;font-size:medium;line-height:125%;font-family:sans-serif;letter-spacing:0px;word-spacing:0px;fill:#000000;fill-opacity:1;stroke:none;stroke-width:1px;stroke-linecap:butt;stroke-linejoin:miter;stroke-opacity:1"
       d="m 281.19599,979.12259 0,3.27987 -0.89172,0 0,-3.24301 q 0,-0.7739 -0.30035,-1.17928 -0.30034,-0.36853 -0.90163,-0.36853 -0.72208,0 -1.13885,0.44223 -0.41676,0.44223 -0.41676,1.25299 l 0,3.05875 -0.89666,0 0,-5.42836 0.89666,0 0,0.8476 q 0.3195,-0.47908 0.75105,-0.7002 0.43607,-0.36852 1.00316,-0.36852 0.93554,0 1.41521,0.58964 0.47967,0.55278 0.47967,1.69521 z" />
    <path
       inkscape:connector-curvature="0"
       id="path4375-5-9"
       style="font-style:normal;font-weight:normal;font-size:medium;line-height:125%;font-family:sans-serif;letter-spacing:0px;word-spacing:0px;fill:#000000;fill-opacity:1;stroke:none;stroke-width:1px;stroke-linecap:butt;stroke-linejoin:miter;stroke-opacity:1"
       d="m 286.89056,977.18047 0,0.84761 q -0.37788,-0.36853 -0.76096,-0.36853 -0.37788,-0.36852 -0.76569,-0.36852 -0.86769,0 -1.34736,0.55279 -0.47967,0.55278 -0.47967,1.5478 0,0.99502 0.47967,1.5478 0.47989,0.55278 1.34736,0.55278 0.38781,0 0.76569,-0.36852 0.38282,-0.36852 0.76096,-0.36852 l 0,0.81075 q -0.37316,0.36852 -0.77534,0.36852 -0.39745,0.36854 -0.84812,0.36854 -1.22627,0 -1.94835,-0.77391 -0.72234,-0.7739 -0.72234,-2.06374 0,-1.32668 0.72702,-2.06374 0.73201,-0.77389 2.00161,-0.77389 0.41178,0 0.80456,0.36852 0.39273,0.36852 0.76096,0.36852 z" />
    <path
       inkscape:connector-curvature="0"
       id="path4377-9-9"
       style="font-style:normal;font-weight:normal;font-size:medium;line-height:125%;font-family:sans-serif;letter-spacing:0px;word-spacing:0px;fill:#000000;fill-opacity:1;stroke:none;stroke-width:1px;stroke-linecap:butt;stroke-linejoin:miter;stroke-opacity:1"
       d="m 290.91801,979.66801 q -1.08092,0 -1.49765,0.36853 -0.41677,0.36852 -0.41677,0.8476 0,0.47908 0.31031,0.77391 0.31509,0.36852 0.85283,0.36852 0.7414,0 1.18738,-0.51594 0.45071,-0.51593 0.45071,-1.40039 l 0,-0.36852 -0.88674,0 z m 1.77872,-0.36852 0,3.0956 -0.89172,0 0,-0.81075 q -0.30551,0.47908 -0.76097,0.7002 -0.45564,0.36852 -1.11482,0.36852 -0.83353,0 -1.32802,-0.47908 -0.48954,-0.47908 -0.48954,-1.25299 0,-0.9213 0.61064,-1.40039 0.61536,-0.47908 1.83197,-0.47908 l 1.2503,0 0,-0.36852 q 0,-0.6265 -0.40711,-0.92131 -0.40214,-0.36853 -1.13413,-0.36853 -0.4653,0 -0.90632,0.36853 -0.44101,0.36852 -0.84812,0.36852 l 0,-0.81075 q 0.48955,-0.36853 0.9499,-0.36853 0.46037,-0.36853 0.89666,-0.36853 1.17773,0 1.75915,0.6265 0.58143,0.62649 0.58143,1.84262 z" />
    <path
       inkscape:connector-curvature="0"
       id="path4379-8-6"
       style="font-style:normal;font-weight:normal;font-size:medium;line-height:125%;font-family:sans-serif;letter-spacing:0px;word-spacing:0px;fill:#000000;fill-opacity:1;stroke:none;stroke-width:1px;stroke-linecap:butt;stroke-linejoin:miter;stroke-opacity:1"
       d="m 295.10046,981.1679 0.98382,0 0,1.25299 -0.98382,0 0,-1.25299 z m 0,-6.00694 0.98382,0 0,3.16931 -0.0966,1.73207 -0.78525,0 -0.1017,-1.73207 0,-3.16931 z" />
    <text
       xml:space="preserve"
       style="font-style:normal;font-weight:normal;font-size:17.63322639px;line-height:125%;font-family:sans-serif;text-align:center;letter-spacing:0px;word-spacing:0px;text-anchor:middle;fill:#ff5919;fill-opacity:1;stroke:none;stroke-width:1px;stroke-linecap:butt;stroke-linejoin:miter;stroke-opacity:1"
       x="156.00023"
       y="1097.2626"
       id="text9429-7"
       sodipodi:linespacing="125%"><tspan
         sodipodi:role="line"
         x="156.00023"
         y="1097.2626"
         id="tspan9435-3"
         style="font-style:normal;font-variant:normal;font-weight:normal;font-stretch:normal;font-family:'Lobster 13';-inkscape-font-specification:'Lobster 13, ';fill:#ff5919;fill-opacity:1">www.treinamentoemfoco.com.br</tspan></text>
    <path
       sodipodi:nodetypes="ccccccc"
       inkscape:connector-curvature="0"
       id="path4250-5-3-5-6-9-6-6-0"
       d="m -48.485373,839.49508 -1.45347,7.6721 50.83762589,34.98874 -40.26425489,52.19214 3.10565,7.11352 158.450392,-69.38853 z"
       style="color:#000000;font-style:normal;font-variant:normal;font-weight:normal;font-stretch:normal;font-size:medium;line-height:normal;font-family:sans-serif;text-indent:0;text-align:start;text-decoration:none;text-decoration-line:none;text-decoration-style:solid;text-decoration-color:#000000;letter-spacing:normal;word-spacing:normal;text-transform:none;direction:ltr;block-progression:tb;writing-mode:lr-tb;baseline-shift:baseline;text-anchor:start;white-space:normal;clip-rule:nonzero;display:inline;overflow:visible;visibility:visible;opacity:1;isolation:auto;mix-blend-mode:normal;color-interpolation:sRGB;color-interpolation-filters:linearRGB;solid-color:#000000;solid-opacity:1;fill:#ff5919;fill-opacity:1;fill-rule:evenodd;stroke:none;stroke-width:1px;stroke-linecap:butt;stroke-linejoin:miter;stroke-miterlimit:4;stroke-dasharray:none;stroke-dashoffset:0;stroke-opacity:1;color-rendering:auto;image-rendering:auto;shape-rendering:auto;text-rendering:auto;enable-background:accumulate" />
    <path
       sodipodi:nodetypes="ccccccc"
       inkscape:connector-curvature="0"
       id="path4250-5-3-5-6-9-6-6-0-5"
       d="m 366.53463,983.97752 3.17054,7.13594 -41.48209,45.69374 51.13922,41.5935 -1.39544,7.6352 -170.12446,-31.2884 z"
       style="color:#000000;font-style:normal;font-variant:normal;font-weight:normal;font-stretch:normal;font-size:medium;line-height:normal;font-family:sans-serif;text-indent:0;text-align:start;text-decoration:none;text-decoration-line:none;text-decoration-style:solid;text-decoration-color:#000000;letter-spacing:normal;word-spacing:normal;text-transform:none;direction:ltr;block-progression:tb;writing-mode:lr-tb;baseline-shift:baseline;text-anchor:start;white-space:normal;clip-rule:nonzero;display:inline;overflow:visible;visibility:visible;opacity:1;isolation:auto;mix-blend-mode:normal;color-interpolation:sRGB;color-interpolation-filters:linearRGB;solid-color:#000000;solid-opacity:1;fill:#ff5919;fill-opacity:1;fill-rule:evenodd;stroke:none;stroke-width:1px;stroke-linecap:butt;stroke-linejoin:miter;stroke-miterlimit:4;stroke-dasharray:none;stroke-dashoffset:0;stroke-opacity:1;color-rendering:auto;image-rendering:auto;shape-rendering:auto;text-rendering:auto;enable-background:accumulate" />
  </g>
</svg>
