<?xml version="1.0" encoding="UTF-8" standalone="no"?>
<!-- Created with Inkscape (http://www.inkscape.org/) -->

<svg
   xmlns:dc="http://purl.org/dc/elements/1.1/"
   xmlns:cc="http://creativecommons.org/ns#"
   xmlns:rdf="http://www.w3.org/1999/02/22-rdf-syntax-ns#"
   xmlns:svg="http://www.w3.org/2000/svg"
   xmlns="http://www.w3.org/2000/svg"
   xmlns:xlink="http://www.w3.org/1999/xlink"
   xmlns:sodipodi="http://sodipodi.sourceforge.net/DTD/sodipodi-0.dtd"
   xmlns:inkscape="http://www.inkscape.org/namespaces/inkscape"
   width="700"
   height="700"
   id="svg3821"
   version="1.1"
   inkscape:version="0.48.4 r9939"
   sodipodi:docname="Novo documento 1">
  <defs
     id="defs3823">
    <circle
       sodipodi:ry="260.63156"
       sodipodi:rx="260.63156"
       sodipodi:cy="-456.27188"
       sodipodi:cx="-365.36975"
       style="fill:#ffffff;stroke:none"
       id="path3344-0-0"
       cx="-365.36975"
       cy="-456.27188"
       r="260.63156"
       transform="matrix(-0.9997695,0.02146977,-0.02146977,-0.9997695,0,0)" />
    <ellipse
       sodipodi:ry="321.01978"
       sodipodi:rx="313.12689"
       sodipodi:cy="563.50305"
       sodipodi:cx="-150.14915"
       style="fill:#ffffff;stroke:none"
       id="path3344-4-6-0"
       cx="-150.14915"
       cy="563.50305"
       transform="matrix(-0.88735607,0.46108482,0.43151822,0.90210422,0,0)"
       rx="313.12689"
       ry="321.01978" />
  </defs>
  <sodipodi:namedview
     id="base"
     pagecolor="#ffffff"
     bordercolor="#666666"
     borderopacity="1.0"
     inkscape:pageopacity="0.0"
     inkscape:pageshadow="2"
     inkscape:zoom="0.22425739"
     inkscape:cx="372.04724"
     inkscape:cy="169.44815"
     inkscape:document-units="px"
     inkscape:current-layer="layer1"
     showgrid="false"
     inkscape:window-width="530"
     inkscape:window-height="394"
     inkscape:window-x="331"
     inkscape:window-y="255"
     inkscape:window-maximized="0" />
  <metadata
     id="metadata3826">
    <rdf:RDF>
      <cc:Work
         rdf:about="">
        <dc:format>image/svg+xml</dc:format>
        <dc:type
           rdf:resource="http://purl.org/dc/dcmitype/StillImage" />
        <dc:title></dc:title>
      </cc:Work>
    </rdf:RDF>
  </metadata>
  <g
     inkscape:label="Camada 1"
     inkscape:groupmode="layer"
     id="layer1"
     transform="translate(0,-352.36218)">
    <ellipse
       sodipodi:ry="321.01978"
       sodipodi:rx="313.12689"
       sodipodi:cy="1532.6925"
       sodipodi:cx="527.138"
       style="fill:#ffffff;stroke:none"
       id="ellipse12173-9"
       cx="527.138"
       cy="1532.6925"
       transform="matrix(-0.88735605,0.46108481,0.43151821,0.9021042,176.22012,-887.14119)"
       rx="313.12689"
       ry="321.01978"
       d="m 840.26489,1532.6925 c 0,177.2943 -140.19168,321.0198 -313.12689,321.0198 -172.93521,0 -313.12689,-143.7255 -313.12689,-321.0198 0,-177.2943 140.19168,-321.0198 313.12689,-321.0198 172.93521,0 313.12689,143.7255 313.12689,321.0198 z" />
    <circle
       sodipodi:ry="260.63156"
       sodipodi:rx="260.63156"
       sodipodi:cy="-548.14935"
       sodipodi:cx="-1514.5753"
       style="fill:#ffffff;stroke:none"
       id="circle12178-9"
       cx="-1514.5753"
       cy="-548.14935"
       r="260.63156"
       transform="matrix(-0.44462588,-0.89571635,0.89571635,-0.44462588,176.22012,-887.14119)"
       d="m -1253.9438,-548.14935 c 0,143.94283 -116.6887,260.63156 -260.6315,260.63156 -143.9429,0 -260.6316,-116.68873 -260.6316,-260.63156 0,-143.94284 116.6887,-260.63156 260.6316,-260.63156 143.9428,0 260.6315,116.68872 260.6315,260.63156 z" />
    <text
       y="-204.40771"
       x="-110.37007"
       xml:space="preserve"
       style="font-size:40px;font-style:normal;font-variant:normal;font-weight:normal;font-stretch:normal;line-height:125%;letter-spacing:0px;word-spacing:0px;fill:#000000;fill-opacity:1;stroke:none;font-family:'Terminal Greek 737 (437G)';-inkscape-font-specification:'Terminal Greek 737 (437G)'"
       id="text3349-7-0"
       sodipodi:linespacing="125%"
       transform="matrix(0.98980985,-0.14239533,0.14239533,0.98980985,-91.197048,314.73461)"><textPath
         xlink:href="#path3344-4-6-0"
         id="textPath3375-2-4"
         style="font-size:55px;font-style:normal;font-variant:normal;font-weight:normal;font-stretch:normal;font-family:'Terminal Greek 737 (437G)';-inkscape-font-specification:'Terminal Greek 737 (437G)'">MERCADO DE TROCA</textPath></text>
    <path
       style="fill:none;stroke:#000000;stroke-width:7;stroke-miterlimit:4;stroke-dasharray:none"
       d="m 306.27187,648.3768 c 0,0 6.55542,22.1999 0.93288,38.0707 -12.68595,35.8086 -25.68931,63.7778 -50.71428,55 -19.383,-6.7989 -43.4928,-26.6939 -50.71428,-55 -5.00391,-19.614 8.11118,-40.7427 8.11118,-40.7427"
       id="path3378-2-7"
       inkscape:connector-curvature="0"
       sodipodi:nodetypes="csssc" />
    <path
       style="fill:none;stroke:#000000;stroke-width:6.36880589;stroke-linecap:butt;stroke-linejoin:miter;stroke-miterlimit:4;stroke-opacity:1;stroke-dasharray:none"
       d="m 216.5892,634.535 -10.59134,-109.4148 17.2608,23.446 20.3991,-54.7074 20.39909,39.0767 20.39912,-39.0767 17.26078,44.287 15.69163,-31.2614 -10.49365,134.9947"
       id="path4181-8-8"
       inkscape:connector-curvature="0"
       sodipodi:nodetypes="ccccccccc" />
    <path
       style="fill:none;stroke:#000000;stroke-width:7;stroke-linecap:round;stroke-linejoin:miter;stroke-miterlimit:4;stroke-opacity:1;stroke-dasharray:none"
       d="m 231.78778,739.4071 -6.15374,25.4355"
       id="path4193-2-79"
       inkscape:connector-curvature="0" />
    <path
       style="fill:none;stroke:#000000;stroke-width:7;stroke-linecap:round;stroke-linejoin:miter;stroke-miterlimit:4;stroke-opacity:1;stroke-dasharray:none"
       d="m 286.32038,742.2789 3.69224,20.1022"
       id="path4195-7-8"
       inkscape:connector-curvature="0" />
    <path
       style="fill:none;stroke:#000000;stroke-width:7;stroke-linecap:round;stroke-linejoin:miter;stroke-miterlimit:4;stroke-opacity:1;stroke-dasharray:none"
       d="m 222.75995,764.4323 -41.84544,6.9743 -26.66622,70.9731"
       id="path4197-0-7"
       inkscape:connector-curvature="0" />
    <path
       style="fill:none;stroke:#000000;stroke-width:7;stroke-linecap:round;stroke-linejoin:miter;stroke-miterlimit:4;stroke-opacity:1;stroke-dasharray:none"
       d="m 209.88169,810.6336 6.49125,74.9934"
       id="path4199-2-3"
       inkscape:connector-curvature="0"
       sodipodi:nodetypes="cc" />
    <path
       style="fill:none;stroke:#000000;stroke-width:7;stroke-linecap:round;stroke-linejoin:miter;stroke-miterlimit:4;stroke-opacity:1;stroke-dasharray:none"
       d="m 209.98308,809.9001 -13.53823,27.4867"
       id="path4201-2-4"
       inkscape:connector-curvature="0" />
    <path
       style="fill:none;stroke:#000000;stroke-width:7;stroke-linecap:round;stroke-linejoin:miter;stroke-miterlimit:4;stroke-opacity:1;stroke-dasharray:none"
       d="m 200.58767,855.0975 -4.09544,-18.0393"
       id="path4203-8-2"
       inkscape:connector-curvature="0"
       sodipodi:nodetypes="cc" />
    <path
       style="fill:none;stroke:#000000;stroke-width:7;stroke-linecap:round;stroke-linejoin:miter;stroke-miterlimit:4;stroke-opacity:1;stroke-dasharray:none"
       d="m 154.38656,843.6851 6.15374,14.7689"
       id="path4205-2-5"
       inkscape:connector-curvature="0" />
    <path
       style="fill:none;stroke:#000000;stroke-width:8.69999981;stroke-linecap:butt;stroke-linejoin:miter;stroke-miterlimit:4;stroke-opacity:1;stroke-dasharray:none"
       d="M 288.78188,926.89116 C 275.99559,861.191 265.89764,776.3009 314.62759,758.2786 c 57.62308,14.9609 55.50365,90.2844 60.30666,160.40746"
       id="path4207-4-5"
       inkscape:connector-curvature="0"
       sodipodi:nodetypes="ccc" />
    <path
       style="fill:#ffffff;fill-rule:evenodd;stroke:#000000;stroke-width:4.89547157;stroke-linecap:round;stroke-linejoin:miter;stroke-miterlimit:4;stroke-opacity:1;stroke-dasharray:none"
       d="m 286.3069,707.8674 c 5.7984,46.3207 -13.06439,44.8722 -30.32947,43.6615 -17.76371,-1.2457 -33.93083,-3.4826 -26.65552,-43.0378"
       id="path4191-3-84"
       inkscape:connector-curvature="0"
       sodipodi:nodetypes="csc" />
    <path
       style="fill:none;stroke:#000000;stroke-width:3.5;stroke-linecap:round;stroke-linejoin:round;stroke-miterlimit:4;stroke-opacity:1;stroke-dasharray:none"
       d="m 210.8345,696.3309 c 10.13865,12.7973 71.50571,24.2606 90.25486,3.6923"
       id="path4189-7-0"
       inkscape:connector-curvature="0"
       sodipodi:nodetypes="cc" />
    <path
       style="fill:none;stroke:#000000;stroke-width:4.80000019;stroke-linecap:round;stroke-linejoin:miter;stroke-miterlimit:4;stroke-opacity:1;stroke-dasharray:none"
       d="m 234.77935,686.7631 c 5.36097,-7.0644 8.66569,-3.8476 11.88523,-0.2049"
       id="path4213-0-2"
       inkscape:connector-curvature="0"
       sodipodi:nodetypes="cc" />
    <path
       sodipodi:nodetypes="cc"
       inkscape:connector-curvature="0"
       id="path4215-7-1"
       d="m 271.59599,687.5813 c 5.36097,-7.0644 8.66569,-3.8476 11.88524,-0.2049"
       style="fill:none;stroke:#000000;stroke-width:4.80000019;stroke-linecap:round;stroke-linejoin:miter;stroke-miterlimit:4;stroke-opacity:1;stroke-dasharray:none" />
    <path
       style="fill:none;stroke:#000000;stroke-width:10.80000019;stroke-linecap:square;stroke-linejoin:miter;stroke-miterlimit:4;stroke-opacity:1;stroke-dasharray:none"
       d="m 164.52751,688.4684 27.56866,209.0388"
       id="path4217-2-3"
       inkscape:connector-curvature="0"
       sodipodi:nodetypes="cc" />
    <path
       style="fill:none;stroke:#000000;stroke-width:1px;stroke-linecap:butt;stroke-linejoin:miter;stroke-opacity:1"
       d="m 430.24989,690.6485 0.20492,0"
       id="path9199-2-5"
       inkscape:connector-curvature="0" />
    <path
       style="fill:none;stroke:#000000;stroke-width:9.5;stroke-linecap:round;stroke-linejoin:miter;stroke-miterlimit:4;stroke-opacity:1;stroke-dasharray:none;stroke-dashoffset:0"
       d="m 456.78361,717.5296 c 3.43418,3.8742 5.84966,4.1281 7.34612,1.9391 2.05078,-4.2746 7.10758,-7.7125 12.87851,-5.5489 8.83608,-1.6735 10.67396,-0.1567 14.09234,4.8397 -0.0454,0.1622 3.75267,5.282 7.8343,-1.2134"
       id="path9201-9-28"
       inkscape:connector-curvature="0"
       sodipodi:nodetypes="ccccc" />
    <path
       sodipodi:nodetypes="csssc"
       inkscape:connector-curvature="0"
       id="path9203-6-8"
       d="m 452.4358,651.773 c 0,0 -4.44935,10.8601 -6.48926,27.5734 -4.60257,37.7095 -5.42716,68.5426 20.88712,71.8377 20.38164,2.5522 50.83132,-4.5126 69.91127,-26.6337 13.22088,-15.3281 10.89686,-40.0876 10.89686,-40.0876"
       style="fill:none;stroke:#000000;stroke-width:7;stroke-miterlimit:4;stroke-dasharray:none" />
    <path
       style="fill:none;stroke:#000000;stroke-width:4.19999981;stroke-linecap:butt;stroke-linejoin:miter;stroke-miterlimit:4;stroke-opacity:1;stroke-dasharray:none"
       d="m 460.36634,718.6183 c 9.00999,6.4605 18.60842,10.7143 32.19836,0"
       id="path9205-0-7"
       inkscape:connector-curvature="0"
       sodipodi:nodetypes="cc" />
    <path
       style="fill:none;stroke:#000000;stroke-width:4.80000019;stroke-linecap:round;stroke-linejoin:miter;stroke-miterlimit:4;stroke-opacity:1;stroke-dasharray:none"
       d="m 453.85405,688.0896 c 5.36097,-7.0644 8.66569,-3.8476 11.88524,-0.2049"
       id="path4213-6-2-6"
       inkscape:connector-curvature="0"
       sodipodi:nodetypes="cc" />
    <path
       sodipodi:nodetypes="cc"
       inkscape:connector-curvature="0"
       id="path4215-2-4-56"
       d="m 490.6707,688.9078 c 5.36097,-7.0645 8.66569,-3.8476 11.88524,-0.205"
       style="fill:none;stroke:#000000;stroke-width:4.80000019;stroke-linecap:round;stroke-linejoin:miter;stroke-miterlimit:4;stroke-opacity:1;stroke-dasharray:none" />
    <path
       style="fill:none;stroke:#000000;stroke-width:8.69999981;stroke-linecap:butt;stroke-linejoin:miter;stroke-miterlimit:4;stroke-opacity:1;stroke-dasharray:none"
       d="m 574.80106,692.5115 c -57.14484,-25.5266 -156.79733,-35.8719 -171.43453,-76.5799 0.45604,-14.4266 11.17363,-21.5236 27.84724,-24.3663 -4.57586,12.4764 -0.6293,21.1651 15.66406,24.3663 l 106.16758,23.4961"
       id="path9225-3-5"
       inkscape:connector-curvature="0"
       sodipodi:nodetypes="ccccc" />
    <path
       style="fill:none;stroke:#000000;stroke-width:5.03835297;stroke-linecap:round;stroke-linejoin:miter;stroke-miterlimit:4;stroke-opacity:1;stroke-dasharray:none"
       d="m 468.07311,614.6364 c 4.15958,-9.9428 11.6378,-20.5335 38.80948,-15.6879 28.60991,5.102 27.83335,11.3436 31.87632,30.7865"
       id="path9227-6-70"
       inkscape:connector-curvature="0"
       sodipodi:nodetypes="csc" />
    <path
       style="fill:none;stroke:#000000;stroke-width:2.53854656;stroke-linecap:butt;stroke-linejoin:miter;stroke-miterlimit:4;stroke-opacity:1;stroke-dasharray:none"
       d="m 466.18228,615.2506 -7.6413,-35.0421"
       id="path9229-6-0"
       inkscape:connector-curvature="0"
       sodipodi:nodetypes="cc" />
    <path
       style="fill:none;stroke:#000000;stroke-width:6.90199995;stroke-linecap:butt;stroke-linejoin:miter;stroke-miterlimit:4;stroke-opacity:1;stroke-dasharray:none"
       d="m 464.26879,770.1248 c -12.04691,3.9732 -22.53868,0.3282 -28.00141,7.2869 -22.27988,1.1617 -40.0268,18.97 -38.47502,25.0623"
       id="path12135-0-7"
       inkscape:connector-curvature="0"
       sodipodi:nodetypes="ccc" />
    <path
       style="fill:none;stroke:#000000;stroke-width:6.90199995;stroke-linecap:butt;stroke-linejoin:miter;stroke-miterlimit:4;stroke-opacity:1;stroke-dasharray:none"
       d="m 436.57254,777.5012 c 5.94777,43.7971 34.61869,100.132 59.06642,123.2105"
       id="path12137-6-00"
       inkscape:connector-curvature="0"
       sodipodi:nodetypes="cc" />
    <path
       style="fill:none;stroke:#000000;stroke-width:6.90199995;stroke-linecap:butt;stroke-linejoin:miter;stroke-miterlimit:4;stroke-opacity:1;stroke-dasharray:none"
       d="m 462.72169,768.8942 c -8.51842,4.8641 24.62902,87.0478 48.91617,122.4512"
       id="path12139-6-3"
       inkscape:connector-curvature="0"
       sodipodi:nodetypes="cc" />
    <path
       style="fill:none;stroke:#000000;stroke-width:6.90199995;stroke-linecap:round;stroke-linejoin:miter;stroke-miterlimit:4;stroke-opacity:1;stroke-dasharray:none"
       d="m 481.46219,833.7991 c 5.89578,-22.6364 20.0485,-46.4409 42.33159,-64.307 19.1837,-0.718 52.02347,-2.0599 67.91501,2.1604"
       id="path12141-7-7"
       inkscape:connector-curvature="0"
       sodipodi:nodetypes="ccc" />
    <path
       style="fill:none;stroke:#000000;stroke-width:6.93100023;stroke-linecap:round;stroke-linejoin:miter;stroke-miterlimit:4;stroke-opacity:1;stroke-dasharray:none"
       d="m 513.77059,748.6878 7.50323,19.8403"
       id="path12145-2-8"
       inkscape:connector-curvature="0" />
    <path
       style="fill:none;stroke:#000000;stroke-width:6.69999981;stroke-linecap:round;stroke-linejoin:miter;stroke-miterlimit:4;stroke-opacity:1;stroke-dasharray:none"
       d="m 465.05307,753.0524 -1.85185,14.8148"
       id="path12147-5-0"
       inkscape:connector-curvature="0" />
    <path
       style="fill:none;stroke:#000000;stroke-width:7;stroke-linecap:round;stroke-linejoin:miter;stroke-miterlimit:4;stroke-opacity:1;stroke-dasharray:none"
       d="m 494.06541,861.0771 c 10.31472,-33.8732 29.27922,-65.8919 59.25926,-93.2099"
       id="path12149-6-7"
       inkscape:connector-curvature="0"
       sodipodi:nodetypes="cc" />
    <text
       xml:space="preserve"
       style="font-size:55px;font-style:normal;font-variant:normal;font-weight:normal;font-stretch:normal;line-height:125%;letter-spacing:0px;word-spacing:0px;fill:#000000;fill-opacity:1;stroke:none;font-family:'Terminal Greek 737 (437G)';-inkscape-font-specification:'Terminal Greek 737 (437G)'"
       id="text3338-2-2"
       sodipodi:linespacing="125%"
       x="-100.49353"
       y="-238.97562"
       transform="matrix(0.97287075,0.23134921,-0.23134921,0.97287075,86.641583,181.49131)"><textPath
         xlink:href="#path3344-0-0"
         id="textPath3346-5-2"><tspan
   id="tspan3340-3-6"
   style="font-size:55px;font-style:normal;font-variant:normal;font-weight:normal;font-stretch:normal;font-family:'Terminal Greek 737 (437G)';-inkscape-font-specification:'Terminal Greek 737 (437G)'">O ÍNDIO E O PORTUGUÊS</tspan></textPath></text>
  </g>
</svg>
