<?xml version="1.0" encoding="UTF-8" standalone="no"?>
<!-- Created with Inkscape (http://www.inkscape.org/) -->

<svg
   xmlns:dc="http://purl.org/dc/elements/1.1/"
   xmlns:cc="http://creativecommons.org/ns#"
   xmlns:rdf="http://www.w3.org/1999/02/22-rdf-syntax-ns#"
   xmlns:svg="http://www.w3.org/2000/svg"
   xmlns="http://www.w3.org/2000/svg"
   xmlns:sodipodi="http://sodipodi.sourceforge.net/DTD/sodipodi-0.dtd"
   xmlns:inkscape="http://www.inkscape.org/namespaces/inkscape"
   width="744.09448"
   height="644"
   id="svg2"
   version="1.1"
   inkscape:version="0.47 r22583"
   sodipodi:docname="module-phases-english.svg"
   inkscape:export-filename="/home/francisco/Download/imagens-graficos-originais/module-phases-english.png"
   inkscape:export-xdpi="90"
   inkscape:export-ydpi="90">
  <defs
     id="defs4">
    <inkscape:perspective
       sodipodi:type="inkscape:persp3d"
       inkscape:vp_x="0 : 526.18109 : 1"
       inkscape:vp_y="0 : 1000 : 0"
       inkscape:vp_z="744.09448 : 526.18109 : 1"
       inkscape:persp3d-origin="372.04724 : 350.78739 : 1"
       id="perspective210" />
    <marker
       inkscape:stockid="Arrow1Lend"
       orient="auto"
       refY="0"
       refX="0"
       id="Arrow1Lend"
       style="overflow:visible">
      <path
         id="path3772"
         d="M 0,0 5,-5 -12.5,0 5,5 0,0 z"
         style="fill-rule:evenodd;stroke:#000000;stroke-width:1pt"
         transform="matrix(-0.8,0,0,-0.8,-10,0)" />
    </marker>
    <marker
       inkscape:stockid="Arrow1Lend"
       orient="auto"
       refY="0"
       refX="0"
       id="Arrow1Lend-5"
       style="overflow:visible">
      <path
         inkscape:connector-curvature="0"
         id="path3772-8"
         d="M 0,0 5,-5 -12.5,0 5,5 0,0 z"
         style="fill-rule:evenodd;stroke:#000000;stroke-width:1pt"
         transform="matrix(-0.8,0,0,-0.8,-10,0)" />
    </marker>
  </defs>
  <sodipodi:namedview
     id="base"
     pagecolor="#ffffff"
     bordercolor="#666666"
     borderopacity="1.0"
     inkscape:pageopacity="0.0"
     inkscape:pageshadow="2"
     inkscape:zoom="0.3535534"
     inkscape:cx="29.353321"
     inkscape:cy="483.38546"
     inkscape:document-units="px"
     inkscape:current-layer="layer1"
     showgrid="false"
     inkscape:window-width="1920"
     inkscape:window-height="1051"
     inkscape:window-x="0"
     inkscape:window-y="1"
     inkscape:window-maximized="1"
     showguides="true"
     inkscape:guide-bbox="true">
    <sodipodi:guide
       orientation="1,0"
       position="46.964286,752.5"
       id="guide4121" />
    <sodipodi:guide
       orientation="1,0"
       position="701.04587,538.41131"
       id="guide4145" />
  </sodipodi:namedview>
  <metadata
     id="metadata7">
    <rdf:RDF>
      <cc:Work
         rdf:about="">
        <dc:format>image/svg+xml</dc:format>
        <dc:type
           rdf:resource="http://purl.org/dc/dcmitype/StillImage" />
        <dc:title></dc:title>
      </cc:Work>
    </rdf:RDF>
  </metadata>
  <g
     inkscape:label="Layer 1"
     inkscape:groupmode="layer"
     id="layer1"
     transform="translate(0,-408.36207)">
    <rect
       style="opacity:0.2;fill:#ff0000;fill-opacity:1;stroke:#000000;stroke-width:2;stroke-linejoin:round;stroke-miterlimit:4;stroke-opacity:1;stroke-dasharray:4, 2;stroke-dashoffset:0"
       id="rect4579"
       width="155.71428"
       height="185.71428"
       x="49.142857"
       y="532.93359"
       ry="24.285715" />
    <rect
       ry="24.285715"
       y="532.93359"
       x="215.14285"
       height="185.71428"
       width="155.71428"
       id="rect4581"
       style="opacity:0.2;fill:#ffff00;fill-opacity:1;stroke:#000000;stroke-width:2;stroke-linejoin:round;stroke-miterlimit:4;stroke-opacity:1;stroke-dasharray:4, 2;stroke-dashoffset:0" />
    <rect
       style="opacity:0.1;fill:#008000;fill-opacity:1;stroke:#000000;stroke-width:2;stroke-linejoin:round;stroke-miterlimit:4;stroke-opacity:1;stroke-dasharray:4, 2;stroke-dashoffset:0"
       id="rect4583"
       width="155.71428"
       height="185.71428"
       x="379.14285"
       y="532.93359"
       ry="24.285715" />
    <rect
       ry="24.285715"
       y="532.93359"
       x="543.14282"
       height="185.71428"
       width="155.71428"
       id="rect4585"
       style="opacity:0.1;fill:#0000ff;fill-opacity:1;stroke:#000000;stroke-width:2;stroke-linejoin:round;stroke-miterlimit:4;stroke-opacity:1;stroke-dasharray:4, 2;stroke-dashoffset:0" />
    <path
       style="font-size:14px;font-style:normal;font-weight:bold;text-align:start;line-height:125%;letter-spacing:0px;word-spacing:0px;text-anchor:start;fill:#000000;fill-opacity:1;stroke:none;font-family:Sans;-inkscape-font-specification:Sans Bold"
       d="m 56,480.59375 c -1.230472,10e-6 -2.187503,0.26564 -2.84375,0.8125 -0.656251,0.54688 -0.968751,1.32748 -0.96875,2.34375 -10e-7,0.8112 0.218098,1.45899 0.6875,1.9375 0.473956,0.47852 1.229164,0.84375 2.25,1.0625 l 1,0.21875 c 0.619786,0.13672 1.044916,0.29558 1.25,0.46875 0.209629,0.17318 0.312493,0.39974 0.3125,0.71875 -7e-6,0.35547 -0.163418,0.65235 -0.46875,0.84375 -0.305344,0.19141 -0.738287,0.28125 -1.3125,0.28125 -0.565108,0 -1.139327,-0.10807 -1.75,-0.28125 -0.606122,-0.17773 -1.254559,-0.43489 -1.90625,-0.78125 l 0,2.21875 c 0.651691,0.24154 1.317055,0.43945 1.96875,0.5625 0.651689,0.12305 1.29036,0.1875 1.9375,0.1875 1.371738,0 2.397128,-0.26562 3.0625,-0.8125 0.669913,-0.55143 0.999991,-1.4056 1,-2.53125 -9e-6,-0.85677 -0.240243,-1.5039 -0.71875,-1.96875 -0.478523,-0.46484 -1.271491,-0.83463 -2.40625,-1.0625 l -1.125,-0.21875 c -0.533207,-0.10937 -0.888676,-0.2246 -1.09375,-0.375 -0.200524,-0.15494 -0.312503,-0.38281 -0.3125,-0.65625 -3e-6,-0.36458 0.136715,-0.63931 0.4375,-0.8125 0.300777,-0.17317 0.777339,-0.24999 1.40625,-0.25 0.473953,10e-6 0.966791,0.0599 1.5,0.1875 0.533196,0.12761 1.095695,0.31186 1.65625,0.5625 l 0,-2.15625 c -0.633471,-0.16861 -1.251309,-0.29296 -1.84375,-0.375 -0.592454,-0.0866 -1.158209,-0.12499 -1.71875,-0.125 z m 22.03125,0 c -1.636072,10e-6 -2.909508,0.46746 -3.84375,1.40625 -0.929689,0.93881 -1.406251,2.25196 -1.40625,3.90625 -10e-7,1.64974 0.476561,2.9362 1.40625,3.875 0.934242,0.9388 2.207678,1.40625 3.84375,1.40625 1.640617,0 2.914054,-0.46745 3.84375,-1.40625 0.929677,-0.9388 1.406239,-2.22526 1.40625,-3.875 -1.1e-5,-1.65429 -0.476573,-2.96744 -1.40625,-3.90625 -0.929696,-0.93879 -2.203133,-1.40624 -3.84375,-1.40625 z m 55.90625,0 c -1.63607,10e-6 -2.90951,0.46746 -3.84375,1.40625 -0.92969,0.93881 -1.40625,2.25196 -1.40625,3.90625 0,1.64974 0.47656,2.9362 1.40625,3.875 0.93424,0.9388 2.20768,1.40625 3.84375,1.40625 1.64062,0 2.9453,-0.46745 3.875,-1.40625 0.92968,-0.9388 1.37499,-2.22526 1.375,-3.875 -1e-5,-1.65429 -0.44532,-2.96744 -1.375,-3.90625 -0.9297,-0.93879 -2.23438,-1.40624 -3.875,-1.40625 z m 79.25,0 c -1.63607,10e-6 -2.90951,0.46746 -3.84375,1.40625 -0.92969,0.93881 -1.40625,2.25196 -1.40625,3.90625 0,1.64974 0.47656,2.9362 1.40625,3.875 0.93424,0.9388 2.20768,1.40625 3.84375,1.40625 1.64062,0 2.9453,-0.46745 3.875,-1.40625 0.92968,-0.9388 1.37499,-2.22526 1.375,-3.875 -1e-5,-1.65429 -0.44532,-2.96744 -1.375,-3.90625 -0.9297,-0.93879 -2.23438,-1.40624 -3.875,-1.40625 z m 17.40625,0 c -1.69987,10e-6 -3.03776,0.48504 -4.03125,1.4375 -0.99349,0.94792 -1.5,2.2435 -1.5,3.875 0,1.62696 0.50651,2.89128 1.5,3.84375 0.99349,0.94792 2.33138,1.4375 4.03125,1.4375 0.56965,0 1.1009,-0.0599 1.625,-0.1875 0.52408,-0.1276 1.04817,-0.31185 1.53125,-0.5625 l 0,-2.125 c -0.48764,0.33268 -0.96355,0.5638 -1.4375,0.71875 -0.47397,0.15495 -0.97592,0.25 -1.5,0.25 -0.93881,0 -1.68099,-0.30469 -2.21875,-0.90625 -0.53776,-0.60156 -0.8125,-1.41601 -0.8125,-2.46875 0,-1.05729 0.27474,-1.89843 0.8125,-2.5 0.53776,-0.60155 1.27994,-0.90624 2.21875,-0.90625 0.52408,10e-6 1.02603,0.0638 1.5,0.21875 0.47395,0.15496 0.94986,0.41733 1.4375,0.75 l 0,-2.125 c -0.48308,-0.25064 -1.00717,-0.43489 -1.53125,-0.5625 -0.5241,-0.12759 -1.05535,-0.18749 -1.625,-0.1875 z m 24.4375,0 c -1.63607,10e-6 -2.90951,0.46746 -3.84375,1.40625 -0.92969,0.93881 -1.40625,2.25196 -1.40625,3.90625 0,1.64974 0.47656,2.9362 1.40625,3.875 0.93424,0.9388 2.20768,1.40625 3.84375,1.40625 1.64062,0 2.91405,-0.46745 3.84375,-1.40625 0.92968,-0.9388 1.40624,-2.22526 1.40625,-3.875 -10e-6,-1.65429 -0.47657,-2.96744 -1.40625,-3.90625 -0.9297,-0.93879 -2.20313,-1.40624 -3.84375,-1.40625 z m -189.9375,0.1875 -3.78125,10.1875 2.65625,0 0.65625,-1.84375 4.125,0 0.625,1.84375 2.65625,0 -3.78125,-10.1875 -3.15625,0 z m 25.03125,0 0,10.1875 2.65625,0 0,-3.53125 1.71875,0 c 1.298821,0 2.307284,-0.26953 3,-0.84375 0.697256,-0.57877 1.03124,-1.42903 1.03125,-2.5 -1e-5,-1.0664 -0.333994,-1.86327 -1.03125,-2.4375 -0.692716,-0.57877 -1.701179,-0.87499 -3,-0.875 l -4.375,0 z m 11.53125,0 -3.78125,10.1875 2.65625,0 0.65625,-1.84375 4.09375,0 0.65625,1.84375 2.65625,0 -3.78125,-10.1875 -3.15625,0 z m 7.84375,0 0,6.125 c 0,1.44466 0.36914,2.51237 1.09375,3.21875 0.72461,0.70638 1.80013,1.0625 3.28125,1.0625 1.48567,0 2.61913,-0.35612 3.34375,-1.0625 0.7246,-0.70638 1.06249,-1.77409 1.0625,-3.21875 l 0,-6.125 -2.625,0 0,6.125 c -1e-5,0.8431 -0.12826,1.44792 -0.40625,1.8125 -0.27344,0.36003 -0.7461,0.53125 -1.375,0.53125 -0.62435,0 -1.06576,-0.17122 -1.34375,-0.53125 -0.27344,-0.36458 -0.40625,-0.9694 -0.40625,-1.8125 l 0,-6.125 -2.625,0 z m 11.375,0 0,10.1875 7.25,0 0,-1.96875 -4.625,0 0,-8.21875 -2.625,0 z m 23.96875,0 0,2 3.375,0 0,8.1875 2.625,0 0,-8.1875 3.40625,0 0,-2 -9.40625,0 z m 12.21875,0 -3.78125,10.1875 2.65625,0 0.65625,-1.84375 4.09375,0 0.65625,1.84375 2.625,0 -3.78125,-10.1875 -3.125,0 z m 7.375,0 3.40625,5 -3.53125,5.1875 2.75,0 2.375,-3.46875 2.375,3.46875 2.75,0 -3.53125,-5.1875 3.375,-5 -2.75,0 -2.21875,3.28125 -2.25,-3.28125 -2.75,0 z m 16.5625,0 0,10.1875 2.625,0 0,-10.1875 -2.625,0 z m 5.21875,0 0,10.1875 2.5,0 0,-7 3.71875,7 2.9375,0 0,-10.1875 -2.5,0 0,7 -3.71875,-7 -2.9375,0 z m 10.5,0 3.78125,10.1875 3.15625,0 3.78125,-10.1875 -2.65625,0 -2.6875,7.53125 -2.71875,-7.53125 -2.65625,0 z m 23.71875,0 0,10.1875 2.625,0 0,-10.1875 -2.625,0 z m 15.5,0 0,10.1875 7.25,0 0,-1.96875 -4.625,0 0,-2.34375 4.21875,0 0,-2 -4.21875,0 0,-1.875 4.46875,0 0,-2 -7.09375,0 z m 24.71875,0 3.78125,10.1875 3.15625,0 3.78125,-10.1875 -2.65625,0 -2.6875,7.53125 -2.71875,-7.53125 -2.65625,0 z m 12.0625,0 0,10.1875 7.25,0 0,-1.96875 -4.625,0 0,-2.34375 4.1875,0 0,-2 -4.1875,0 0,-1.875 4.46875,0 0,-2 -7.09375,0 z m 9.5625,0 0,10.1875 2.625,0 0,-3.84375 0.75,0 c 0.42838,0 0.77604,0.0944 1.03125,0.28125 0.25976,0.18685 0.49934,0.52084 0.75,1.03125 l 1.25,2.53125 2.8125,0 -1.4375,-2.875 c -0.29168,-0.58789 -0.5879,-1.02539 -0.875,-1.3125 -0.28256,-0.29166 -0.60873,-0.48046 -0.96875,-0.5625 0.65624,-0.20507 1.14517,-0.5358 1.46875,-0.96875 0.32812,-0.43294 0.49999,-0.98176 0.5,-1.65625 -10e-6,-0.97525 -0.3086,-1.67382 -0.9375,-2.125 -0.62436,-0.45116 -1.59311,-0.68749 -2.9375,-0.6875 l -4.03125,0 z m 9.5625,0 3.78125,10.1875 3.125,0 3.78125,-10.1875 -2.65625,0 -2.6875,7.53125 -2.71875,-7.53125 -2.625,0 z m 12.03125,0 0,10.1875 2.625,0 0,-10.1875 -2.625,0 z m 5.21875,0 0,10.1875 7.25,0 0,-1.96875 -4.59375,0 0,-2.34375 4.1875,0 0,-2 -4.1875,0 0,-1.875 4.46875,0 0,-2 -7.125,0 z m 8.71875,0 2.40625,10.1875 3.0625,0 1.8125,-7.75 1.84375,7.75 3.0625,0 2.40625,-10.1875 -2.5,0 -1.78125,7.40625 -1.75,-7.40625 -2.53125,0 -1.75,7.40625 -1.78125,-7.40625 -2.5,0 z M 78.03125,482.5 c 0.806634,10e-6 1.432935,0.28256 1.875,0.875 0.442049,0.59246 0.656242,1.45574 0.65625,2.53125 -8e-6,1.07097 -0.214201,1.87631 -0.65625,2.46875 -0.442065,0.59245 -1.068366,0.90625 -1.875,0.90625 -0.802088,0 -1.432947,-0.3138 -1.875,-0.90625 -0.442061,-0.59244 -0.656253,-1.39778 -0.65625,-2.46875 -3e-6,-1.07551 0.214189,-1.93879 0.65625,-2.53125 0.442053,-0.59244 1.072912,-0.87499 1.875,-0.875 z m 55.90625,0 c 0.80663,10e-6 1.43294,0.28256 1.875,0.875 0.44205,0.59246 0.68749,1.45574 0.6875,2.53125 -1e-5,1.07097 -0.24545,1.87631 -0.6875,2.46875 -0.44206,0.59245 -1.06837,0.90625 -1.875,0.90625 -0.80209,0 -1.4017,-0.3138 -1.84375,-0.90625 -0.44206,-0.59244 -0.65625,-1.39778 -0.65625,-2.46875 0,-1.07551 0.21419,-1.93879 0.65625,-2.53125 0.44205,-0.59244 1.04166,-0.87499 1.84375,-0.875 z m 79.25,0 c 0.80663,10e-6 1.43294,0.28256 1.875,0.875 0.44205,0.59246 0.65624,1.45574 0.65625,2.53125 -1e-5,1.07097 -0.2142,1.87631 -0.65625,2.46875 -0.44206,0.59245 -1.06837,0.90625 -1.875,0.90625 -0.80209,0 -1.4017,-0.3138 -1.84375,-0.90625 -0.44206,-0.59244 -0.6875,-1.39778 -0.6875,-2.46875 0,-1.07551 0.24544,-1.93879 0.6875,-2.53125 0.44205,-0.59244 1.04166,-0.87499 1.84375,-0.875 z m 41.84375,0 c 0.80663,10e-6 1.43294,0.28256 1.875,0.875 0.44205,0.59246 0.65624,1.45574 0.65625,2.53125 -10e-6,1.07097 -0.2142,1.87631 -0.65625,2.46875 -0.44206,0.59245 -1.06837,0.90625 -1.875,0.90625 -0.80209,0 -1.43295,-0.3138 -1.875,-0.90625 -0.44206,-0.59244 -0.65625,-1.39778 -0.65625,-2.46875 0,-1.07551 0.21419,-1.93879 0.65625,-2.53125 0.44205,-0.59244 1.07291,-0.87499 1.875,-0.875 z m -162.25,0.1875 1.4375,0 c 0.510411,10e-6 0.909499,0.12891 1.1875,0.375 0.277988,0.2461 0.406243,0.57553 0.40625,1.03125 -7e-6,0.45574 -0.128262,0.81185 -0.40625,1.0625 -0.278001,0.2461 -0.677089,0.37501 -1.1875,0.375 l -1.4375,0 0,-2.84375 z m 192.125,0 1.125,0 c 0.55143,10e-6 0.91926,0.11199 1.15625,0.3125 0.24153,0.20053 0.37499,0.50391 0.375,0.96875 -10e-6,0.46941 -0.13347,0.82618 -0.375,1.03125 -0.23699,0.20508 -0.60482,0.31251 -1.15625,0.3125 l -1.125,0 0,-2.625 z m -218.21875,0.46875 1.375,4.0625 -2.78125,0 1.40625,-4.0625 z m 36.5625,0 1.375,4.0625 -2.78125,0 1.40625,-4.0625 z m 55.375,0 1.40625,4.0625 -2.78125,0 1.375,-4.0625 z"
       id="text4587" />
    <text
       sodipodi:linespacing="125%"
       id="text4591"
       y="523.87195"
       x="123.79551"
       style="font-size:14px;font-style:normal;font-weight:normal;text-align:center;line-height:125%;letter-spacing:0px;word-spacing:0px;text-anchor:middle;fill:#000000;fill-opacity:1;stroke:none;font-family:Sans"
       xml:space="preserve"><tspan
         y="523.87195"
         x="123.79551"
         id="tspan4593"
         sodipodi:role="line">1 - Conception</tspan></text>
    <text
       xml:space="preserve"
       style="font-size:14px;font-style:normal;font-weight:normal;text-align:center;line-height:125%;letter-spacing:0px;word-spacing:0px;text-anchor:middle;fill:#000000;fill-opacity:1;stroke:none;font-family:Sans"
       x="287.7955"
       y="523.87195"
       id="text4595"
       sodipodi:linespacing="125%"><tspan
         sodipodi:role="line"
         id="tspan4597"
         x="287.7955"
         y="523.87195">2 - Development</tspan></text>
    <text
       sodipodi:linespacing="125%"
       id="text4599"
       y="523.87195"
       x="453.7955"
       style="font-size:14px;font-style:normal;font-weight:normal;text-align:center;line-height:125%;letter-spacing:0px;word-spacing:0px;text-anchor:middle;fill:#000000;fill-opacity:1;stroke:none;font-family:Sans"
       xml:space="preserve"><tspan
         y="523.87195"
         x="453.7955"
         id="tspan4601"
         sodipodi:role="line">3 - Operation</tspan></text>
    <text
       xml:space="preserve"
       style="font-size:14px;font-style:normal;font-weight:normal;text-align:center;line-height:125%;letter-spacing:0px;word-spacing:0px;text-anchor:middle;fill:#000000;fill-opacity:1;stroke:none;font-family:Sans"
       x="615.79553"
       y="523.87195"
       id="text4603"
       sodipodi:linespacing="125%"><tspan
         sodipodi:role="line"
         id="tspan4605"
         x="615.79553"
         y="523.87195">4 - Improvements</tspan></text>
    <text
       xml:space="preserve"
       style="font-size:14px;font-style:normal;font-weight:normal;text-align:start;line-height:125%;letter-spacing:0px;word-spacing:0px;text-anchor:start;fill:#000000;fill-opacity:1;stroke:none;font-family:Sans"
       x="63.378376"
       y="561.5863"
       id="text4630"
       sodipodi:linespacing="125%"><tspan
         sodipodi:role="line"
         x="63.378376"
         y="561.5863"
         id="tspan4634">*high degree of </tspan><tspan
         sodipodi:role="line"
         x="63.378376"
         y="579.0863"
         id="tspan3019">uncertainty</tspan><tspan
         sodipodi:role="line"
         x="63.378376"
         y="596.5863"
         id="tspan4636">*benchmarking</tspan><tspan
         sodipodi:role="line"
         x="63.378376"
         y="614.0863"
         id="tspan3023">with other states</tspan><tspan
         sodipodi:role="line"
         x="63.378376"
         y="631.5863"
         id="tspan3025">ellectronic tax</tspan><tspan
         sodipodi:role="line"
         x="63.378376"
         y="649.0863"
         id="tspan3027">system (Angra, </tspan><tspan
         sodipodi:role="line"
         x="63.378376"
         y="666.5863"
         id="tspan3029">State Electronix</tspan><tspan
         sodipodi:role="line"
         x="63.378376"
         y="684.0863"
         id="tspan4443">Tax, NF Paulistana)</tspan></text>
    <text
       sodipodi:linespacing="125%"
       id="text3109"
       y="842.87195"
       x="53.19281"
       style="font-size:10px;font-style:normal;font-weight:normal;text-align:start;line-height:125%;letter-spacing:0px;word-spacing:0px;text-anchor:start;fill:#000000;fill-opacity:1;stroke:none;font-family:Sans"
       xml:space="preserve"><tspan
         id="tspan3117"
         y="842.87195"
         x="53.19281"
         sodipodi:role="line">04              05              06                07              08               09               10              11               12               13               14</tspan></text>
    <path
       style="fill:none;stroke:#000000;stroke-width:1.00748622px;stroke-linecap:butt;stroke-linejoin:miter;stroke-opacity:1"
       d="m 359.62724,580.7317 -134.31872,0"
       id="path3136"
       inkscape:connector-curvature="0" />
    <text
       xml:space="preserve"
       style="font-size:14px;font-style:normal;font-weight:normal;text-align:center;line-height:125%;letter-spacing:0px;word-spacing:0px;text-anchor:middle;fill:#000000;fill-opacity:1;stroke:none;font-family:Sans"
       x="287.28531"
       y="566.18127"
       id="text3138"
       sodipodi:linespacing="125%"
       inkscape:transform-center-y="5.2944234"><tspan
         sodipodi:role="line"
         x="287.28531"
         y="566.18127"
         id="tspan3140">engine core</tspan></text>
    <path
       inkscape:connector-curvature="0"
       id="path3160"
       d="m 359.62724,616.7317 -134.31872,0"
       style="fill:none;stroke:#000000;stroke-width:1.00748622px;stroke-linecap:butt;stroke-linejoin:miter;stroke-opacity:1" />
    <text
       sodipodi:linespacing="125%"
       id="text3181"
       y="603.08588"
       x="287.069"
       style="font-size:14px;font-style:normal;font-weight:normal;text-align:center;line-height:125%;letter-spacing:0px;word-spacing:0px;text-anchor:middle;fill:#000000;fill-opacity:1;stroke:none;font-family:Sans"
       xml:space="preserve"
       inkscape:transform-center-y="5.294431"><tspan
         id="tspan3183"
         y="603.08588"
         x="287.069"
         sodipodi:role="line">registration</tspan></text>
    <text
       sodipodi:linespacing="125%"
       id="text3205"
       y="783.67639"
       x="272.73636"
       style="font-size:12.3591032px;font-style:normal;font-weight:normal;text-align:center;line-height:125%;letter-spacing:0px;word-spacing:0px;text-anchor:middle;fill:#000000;fill-opacity:1;stroke:none;font-family:Sans"
       xml:space="preserve"
       inkscape:transform-center-y="4.6738819"><tspan
         id="tspan3207"
         y="783.67639"
         x="272.73636"
         sodipodi:role="line">restaurants</tspan></text>
    <g
       id="g4173"
       transform="translate(10.714286,562)">
      <rect
         ry="0"
         y="310.93359"
         x="64.428574"
         height="26.428595"
         width="102.14285"
         id="rect3209"
         style="fill:#ffffff;fill-opacity:1;stroke:#000000;stroke-width:2;stroke-linejoin:round;stroke-miterlimit:4;stroke-opacity:1;stroke-dasharray:4, 2;stroke-dashoffset:0" />
      <text
         sodipodi:linespacing="125%"
         id="text3211"
         y="328.64789"
         x="112.28571"
         style="font-size:14px;font-style:normal;font-weight:normal;text-align:center;line-height:125%;letter-spacing:0px;word-spacing:0px;text-anchor:middle;fill:#000000;fill-opacity:1;stroke:none;font-family:Sans"
         xml:space="preserve"><tspan
           y="328.64789"
           x="112.28571"
           id="tspan3213"
           sodipodi:role="line">law 2009/78</tspan></text>
      <path
         inkscape:connector-curvature="0"
         id="path3215"
         d="m 165.71429,323.79075 67.14285,0 0,-23.57143"
         style="fill:none;stroke:#000000;stroke-width:1px;stroke-linecap:butt;stroke-linejoin:miter;stroke-opacity:1;marker-end:url(#Arrow1Lend)" />
    </g>
    <path
       style="fill:none;stroke:#000000;stroke-width:1px;stroke-linecap:butt;stroke-linejoin:miter;stroke-opacity:1"
       d="m 47.142857,812.36218 655.000003,0"
       id="path4179"
       inkscape:connector-curvature="0" />
    <g
       transform="translate(146.2147,608.56927)"
       id="g3902">
      <rect
         style="fill:#ffffff;fill-opacity:1;stroke:#000000;stroke-width:2;stroke-linejoin:round;stroke-miterlimit:4;stroke-opacity:1;stroke-dasharray:4, 2;stroke-dashoffset:0"
         id="rect3904"
         width="102.14285"
         height="26.428595"
         x="64.428574"
         y="310.93359"
         ry="0" />
      <text
         xml:space="preserve"
         style="font-size:14px;font-style:normal;font-weight:normal;text-align:center;line-height:125%;letter-spacing:0px;word-spacing:0px;text-anchor:middle;fill:#000000;fill-opacity:1;stroke:none;font-family:Sans"
         x="112.28571"
         y="328.64789"
         id="text3906"
         sodipodi:linespacing="125%"><tspan
           sodipodi:role="line"
           id="tspan3908"
           x="112.28571"
           y="328.64789">law 2009/78</tspan></text>
      <path
         style="fill:none;stroke:#000000;stroke-width:1px;stroke-linecap:butt;stroke-linejoin:miter;stroke-opacity:1;marker-end:url(#Arrow1Lend)"
         d="m 109.14575,309.64861 -0.53737,-54.88615"
         id="path3910"
         inkscape:connector-curvature="0"
         sodipodi:nodetypes="cc" />
    </g>
    <rect
       style="opacity:0.1;fill:#ff0000;fill-opacity:1;stroke:none"
       id="rect4109"
       width="179.68837"
       height="19.285713"
       x="46.928574"
       y="812.36218"
       ry="0" />
    <path
       inkscape:connector-curvature="0"
       id="path4111"
       d="m 47.142857,832.36218 655.000003,0"
       style="fill:none;stroke:#000000;stroke-width:1px;stroke-linecap:butt;stroke-linejoin:miter;stroke-opacity:1" />
    <rect
       ry="0"
       y="812.36218"
       x="226.39267"
       height="19.285713"
       width="58.672215"
       id="rect4113"
       style="opacity:0.1;fill:#ffff00;fill-opacity:1;stroke:none" />
    <rect
       style="opacity:0.1;fill:#00ff00;fill-opacity:1;stroke:none"
       id="rect4115"
       width="60.166409"
       height="19.285713"
       x="284.91513"
       y="812.36218"
       ry="0.21313395" />
    <rect
       ry="0"
       y="812.36218"
       x="345.00757"
       height="19.285713"
       width="357.13525"
       id="rect4117"
       style="opacity:0.1;fill:#0000ff;fill-opacity:1;stroke:none" />
    <path
       style="fill:none;stroke:#000000;stroke-width:1;stroke-linecap:butt;stroke-linejoin:miter;stroke-miterlimit:4;stroke-opacity:1;stroke-dasharray:none"
       d="m 47.633929,832.78955 0,18.3417"
       id="path4119"
       inkscape:connector-curvature="0" />
    <path
       inkscape:connector-curvature="0"
       id="path4123"
       d="m 701.56315,832.91265 0,18.3417"
       style="fill:none;stroke:#000000;stroke-width:1;stroke-linecap:butt;stroke-linejoin:miter;stroke-miterlimit:4;stroke-opacity:1;stroke-dasharray:none" />
    <path
       inkscape:connector-curvature="0"
       id="path4125"
       d="m 107.08204,832.78955 0,18.3417"
       style="fill:none;stroke:#000000;stroke-width:1;stroke-linecap:butt;stroke-linejoin:miter;stroke-miterlimit:4;stroke-opacity:1;stroke-dasharray:none" />
    <path
       style="fill:none;stroke:#000000;stroke-width:1;stroke-linecap:butt;stroke-linejoin:miter;stroke-miterlimit:4;stroke-opacity:1;stroke-dasharray:none"
       d="m 166.53015,832.78955 0,18.3417"
       id="path4127"
       inkscape:connector-curvature="0" />
    <path
       inkscape:connector-curvature="0"
       id="path4129"
       d="m 225.97826,832.78955 0,18.3417"
       style="fill:none;stroke:#000000;stroke-width:1;stroke-linecap:butt;stroke-linejoin:miter;stroke-miterlimit:4;stroke-opacity:1;stroke-dasharray:none" />
    <path
       style="fill:none;stroke:#000000;stroke-width:1;stroke-linecap:butt;stroke-linejoin:miter;stroke-miterlimit:4;stroke-opacity:1;stroke-dasharray:none"
       d="m 285.42637,832.78955 0,18.3417"
       id="path4131"
       inkscape:connector-curvature="0" />
    <path
       inkscape:connector-curvature="0"
       id="path4133"
       d="m 344.87448,832.78955 0,18.3417"
       style="fill:none;stroke:#000000;stroke-width:1;stroke-linecap:butt;stroke-linejoin:miter;stroke-miterlimit:4;stroke-opacity:1;stroke-dasharray:none" />
    <path
       style="fill:none;stroke:#000000;stroke-width:1;stroke-linecap:butt;stroke-linejoin:miter;stroke-miterlimit:4;stroke-opacity:1;stroke-dasharray:none"
       d="m 404.32259,832.78955 0,18.3417"
       id="path4135"
       inkscape:connector-curvature="0" />
    <path
       inkscape:connector-curvature="0"
       id="path4137"
       d="m 463.77069,832.78955 0,18.3417"
       style="fill:none;stroke:#000000;stroke-width:1;stroke-linecap:butt;stroke-linejoin:miter;stroke-miterlimit:4;stroke-opacity:1;stroke-dasharray:none" />
    <path
       style="fill:none;stroke:#000000;stroke-width:1;stroke-linecap:butt;stroke-linejoin:miter;stroke-miterlimit:4;stroke-opacity:1;stroke-dasharray:none"
       d="m 523.2188,832.78955 0,18.3417"
       id="path4139"
       inkscape:connector-curvature="0" />
    <path
       inkscape:connector-curvature="0"
       id="path4141"
       d="m 582.66691,832.78955 0,18.3417"
       style="fill:none;stroke:#000000;stroke-width:1;stroke-linecap:butt;stroke-linejoin:miter;stroke-miterlimit:4;stroke-opacity:1;stroke-dasharray:none" />
    <path
       style="fill:none;stroke:#000000;stroke-width:1;stroke-linecap:butt;stroke-linejoin:miter;stroke-miterlimit:4;stroke-opacity:1;stroke-dasharray:none"
       d="m 642.11502,832.78955 0,18.3417"
       id="path4143"
       inkscape:connector-curvature="0" />
    <text
       xml:space="preserve"
       style="font-size:14px;font-style:normal;font-weight:normal;text-align:start;line-height:125%;letter-spacing:0px;word-spacing:0px;text-anchor:start;fill:#000000;fill-opacity:1;stroke:none;font-family:Sans"
       x="46.949806"
       y="825.87195"
       id="text4147"
       sodipodi:linespacing="125%"><tspan
         sodipodi:role="line"
         id="tspan4149"
         x="46.949806"
         y="825.87195">concepção</tspan></text>
    <text
       sodipodi:linespacing="125%"
       id="text4151"
       y="825.87195"
       x="228.31161"
       style="font-size:14px;font-style:normal;font-weight:normal;text-align:start;line-height:125%;letter-spacing:0px;word-spacing:0px;text-anchor:start;fill:#000000;fill-opacity:1;stroke:none;font-family:Sans"
       xml:space="preserve"><tspan
         y="825.87195"
         x="228.31161"
         id="tspan4153"
         sodipodi:role="line">des.</tspan></text>
    <text
       xml:space="preserve"
       style="font-size:14px;font-style:normal;font-weight:normal;text-align:start;line-height:125%;letter-spacing:0px;word-spacing:0px;text-anchor:start;fill:#000000;fill-opacity:1;stroke:none;font-family:Sans"
       x="287.48105"
       y="825.87195"
       id="text4155"
       sodipodi:linespacing="125%"><tspan
         sodipodi:role="line"
         id="tspan4157"
         x="287.48105"
         y="825.87195">impl.</tspan></text>
    <text
       sodipodi:linespacing="125%"
       id="text4159"
       y="825.87195"
       x="346.33313"
       style="font-size:14px;font-style:normal;font-weight:normal;text-align:start;line-height:125%;letter-spacing:0px;word-spacing:0px;text-anchor:start;fill:#000000;fill-opacity:1;stroke:none;font-family:Sans"
       xml:space="preserve"><tspan
         y="825.87195"
         x="346.33313"
         id="tspan4161"
         sodipodi:role="line">refinamentos</tspan></text>
    <rect
       ry="24.285715"
       y="532.93359"
       x="49.142857"
       height="185.71428"
       width="155.71428"
       id="rect4165"
       style="fill:none;stroke:#000000;stroke-width:2;stroke-linejoin:round;stroke-miterlimit:4;stroke-opacity:1;stroke-dasharray:4, 2;stroke-dashoffset:0" />
    <rect
       style="fill:none;stroke:#000000;stroke-width:2;stroke-linejoin:round;stroke-miterlimit:4;stroke-opacity:1;stroke-dasharray:4, 2;stroke-dashoffset:0"
       id="rect4167"
       width="155.71428"
       height="185.71428"
       x="215.14285"
       y="532.93359"
       ry="24.285715" />
    <rect
       ry="24.285715"
       y="532.93359"
       x="379.14285"
       height="185.71428"
       width="155.71428"
       id="rect4169"
       style="fill:none;stroke:#000000;stroke-width:2;stroke-linejoin:round;stroke-miterlimit:4;stroke-opacity:1;stroke-dasharray:4, 2;stroke-dashoffset:0" />
    <rect
       style="fill:none;stroke:#000000;stroke-width:2;stroke-linejoin:round;stroke-miterlimit:4;stroke-opacity:1;stroke-dasharray:4, 2;stroke-dashoffset:0"
       id="rect4171"
       width="155.71428"
       height="185.71428"
       x="543.14282"
       y="532.93359"
       ry="24.285715" />
    <g
       id="g4175"
       transform="translate(-33.404269,840.21218)"
       style="fill:#e6e6e6">
      <path
         style="fill:#e6e6e6;fill-opacity:1;stroke:none"
         d="m 308.18674,-28.557175 c 0,-0.333425 0.80966,-0.430484 6.91725,-0.829213 1.5218,-0.09935 5.00809,-0.445018 7.74732,-0.768155 12.74663,-1.503673 24.1118,-3.507856 63.9154,-11.271129 57.33138,-11.181883 97.19043,-18.164758 137.51495,-24.091137 51.08423,-7.507697 90.83563,-11.501669 138.14122,-13.879553 4.45327,-0.22385 18.52301,-0.8525 31.26597,-1.396999 12.74303,-0.544498 26.81379,-1.172737 31.26837,-1.396085 4.45463,-0.223348 8.5012,-0.406087 8.99243,-0.406087 0.81833,0 0.89317,2.276462 0.89317,27.180244 l 0,27.180246 -213.32803,0 c -211.56178,0 -213.32805,-0.0027 -213.32805,-0.322132 z"
         id="path4301"
         inkscape:connector-curvature="0" />
      <path
         inkscape:connector-curvature="0"
         id="path4303"
         d="m -1662.3563,-321.9778 c 0,-2.05083 1.4779,-2.64782 12.6269,-5.10032 2.7779,-0.61108 9.1418,-2.73722 14.1421,-4.72477 23.268,-9.24879 44.0142,-21.57612 116.6726,-69.32646 104.654,-68.77752 177.4136,-111.72779 251.0229,-148.17976 93.2503,-46.17834 165.8134,-70.74446 252.1661,-85.37035 8.1291,-1.37686 33.8123,-5.24356 57.0736,-8.59266 23.2614,-3.3491 48.9465,-7.21327 57.07797,-8.58704 8.1316,-1.37377 15.5183,-2.49776 16.415,-2.49776 1.4938,0 1.6304,14.00206 1.6304,167.18024 l 0,167.18025 -389.41377,0 c -386.1897,0 -389.4138,-0.0164 -389.4138,-1.98137 z"
         style="fill:#e6e6e6;fill-opacity:1;stroke:none" />
    </g>
    <g
       id="g4224"
       transform="translate(50.267781,648.14214)">
      <rect
         ry="0"
         y="310.93359"
         x="22.428574"
         height="25.000023"
         width="183.57143"
         id="rect4226"
         style="fill:#ffffff;fill-opacity:1;stroke:#000000;stroke-width:2;stroke-linejoin:round;stroke-miterlimit:4;stroke-opacity:1;stroke-dasharray:4, 2;stroke-dashoffset:0" />
      <text
         sodipodi:linespacing="125%"
         id="text4228"
         y="328.64789"
         x="112.28571"
         style="font-size:14px;font-style:normal;font-weight:normal;text-align:center;line-height:125%;letter-spacing:0px;word-spacing:0px;text-anchor:middle;fill:#000000;fill-opacity:1;stroke:none;font-family:Sans"
         xml:space="preserve"><tspan
           y="328.64789"
           x="112.28571"
           id="tspan4230"
           sodipodi:role="line">convênio ICMS 115/2003</tspan></text>
      <path
         sodipodi:nodetypes="cc"
         inkscape:connector-curvature="0"
         id="path4232"
         d="M 21.177066,322.63439 -3.3034951,321.75754"
         style="fill:none;stroke:#000000;stroke-width:1px;stroke-linecap:butt;stroke-linejoin:miter;stroke-opacity:1;marker-end:url(#Arrow1Lend)" />
    </g>
    <text
       xml:space="preserve"
       style="font-size:10px;font-style:normal;font-weight:normal;text-align:start;line-height:125%;letter-spacing:0px;word-spacing:0px;text-anchor:start;fill:#000000;fill-opacity:1;stroke:none;font-family:Sans"
       x="701.0459"
       y="755.15771"
       id="text4305"
       sodipodi:linespacing="125%"><tspan
         sodipodi:role="line"
         x="701.0459"
         y="755.15771"
         id="tspan4307"
         style="font-size:10px;text-align:end;text-anchor:end">16,5 million users</tspan></text>
    <text
       xml:space="preserve"
       style="font-size:11.80804062px;font-style:normal;font-weight:normal;text-align:center;line-height:125%;letter-spacing:0px;word-spacing:0px;text-anchor:middle;fill:#000000;fill-opacity:1;stroke:none;font-family:Sans"
       x="332.52142"
       y="771.21851"
       id="text4354"
       sodipodi:linespacing="125%"
       inkscape:transform-center-y="4.4654926"><tspan
         sodipodi:role="line"
         x="332.52142"
         y="771.21851"
         id="tspan4356">supermakets</tspan></text>
    <path
       inkscape:connector-curvature="0"
       id="path4358"
       d="m 525.75586,579.85357 -134.31872,0"
       style="fill:none;stroke:#000000;stroke-width:1.00748622px;stroke-linecap:butt;stroke-linejoin:miter;stroke-opacity:1" />
    <text
       xml:space="preserve"
       style="font-size:14px;font-style:normal;font-weight:normal;text-align:center;line-height:125%;letter-spacing:0px;word-spacing:0px;text-anchor:middle;fill:#000000;fill-opacity:1;stroke:none;font-family:Sans"
       x="292.37613"
       y="637.27661"
       id="text4368"
       sodipodi:linespacing="125%"
       inkscape:transform-center-y="5.294431"><tspan
         sodipodi:role="line"
         x="292.37613"
         y="637.27661"
         id="tspan4370">tax devolution</tspan></text>
    <text
       xml:space="preserve"
       style="font-size:14px;font-style:normal;font-weight:bold;text-align:center;line-height:125%;letter-spacing:0px;word-spacing:0px;text-anchor:middle;fill:#000000;fill-opacity:1;stroke:none;font-family:Sans;-inkscape-font-specification:Sans Bold"
       x="274.42856"
       y="750.93359"
       id="text4399"
       sodipodi:linespacing="125%"><tspan
         sodipodi:role="line"
         id="tspan4401"
         x="274.42856"
         y="750.93359">Serra Governor</tspan></text>
    <path
       sodipodi:nodetypes="cc"
       inkscape:connector-curvature="0"
       id="path4232-6"
       d="m 229.85421,758.49053 0.53737,28.45758"
       style="fill:none;stroke:#000000;stroke-width:1px;stroke-linecap:butt;stroke-linejoin:miter;stroke-opacity:1;marker-end:url(#Arrow1Lend)" />
    <text
       sodipodi:linespacing="125%"
       id="text4445"
       y="963.87189"
       x="658.69202"
       style="font-size:14px;font-style:normal;font-weight:normal;text-align:end;line-height:125%;letter-spacing:0px;word-spacing:0px;text-anchor:end;fill:#000000;fill-opacity:1;stroke:none;font-family:Sans"
       xml:space="preserve"><tspan
         y="963.87189"
         x="658.69202"
         sodipodi:role="line"
         id="tspan4449">Author: Francisco Matelli Matulovic</tspan></text>
    <path
       inkscape:connector-curvature="0"
       id="path3434"
       d="m 691.62724,578.97922 -134.31872,0"
       style="fill:none;stroke:#000000;stroke-width:1.00748622px;stroke-linecap:butt;stroke-linejoin:miter;stroke-opacity:1" />
    <text
       inkscape:transform-center-y="5.2944234"
       sodipodi:linespacing="125%"
       id="text3436"
       y="566.18115"
       x="619.28528"
       style="font-size:14px;font-style:normal;font-weight:normal;text-align:center;line-height:125%;letter-spacing:0px;word-spacing:0px;text-anchor:middle;fill:#000000;fill-opacity:1;stroke:none;font-family:Sans"
       xml:space="preserve"><tspan
         id="tspan3438"
         y="566.18115"
         x="619.28528"
         sodipodi:role="line">security enhanc.</tspan></text>
    <path
       style="fill:none;stroke:#000000;stroke-width:1.00748622px;stroke-linecap:butt;stroke-linejoin:miter;stroke-opacity:1"
       d="m 691.62724,612.32731 -134.31872,0"
       id="path3440"
       inkscape:connector-curvature="0" />
    <text
       inkscape:transform-center-y="5.294431"
       xml:space="preserve"
       style="font-size:14px;font-style:normal;font-weight:normal;text-align:center;line-height:125%;letter-spacing:0px;word-spacing:0px;text-anchor:middle;fill:#000000;fill-opacity:1;stroke:none;font-family:Sans"
       x="619.06897"
       y="599.74115"
       id="text3442"
       sodipodi:linespacing="125%"><tspan
         sodipodi:role="line"
         x="619.06897"
         y="599.74115"
         id="tspan3444">complain system</tspan></text>
    <text
       inkscape:transform-center-y="5.294431"
       sodipodi:linespacing="125%"
       id="text3452"
       y="632.84998"
       x="624.3761"
       style="font-size:14px;font-style:normal;font-weight:normal;text-align:center;line-height:125%;letter-spacing:0px;word-spacing:0px;text-anchor:middle;fill:#000000;fill-opacity:1;stroke:none;font-family:Sans"
       xml:space="preserve"><tspan
         id="tspan3454"
         y="632.84998"
         x="624.3761"
         sodipodi:role="line">doc. authenticator</tspan></text>
    <text
       inkscape:transform-center-y="5.2944234"
       sodipodi:linespacing="125%"
       id="text3456"
       y="566.18127"
       x="453.28531"
       style="font-size:14px;font-style:normal;font-weight:normal;text-align:center;line-height:125%;letter-spacing:0px;word-spacing:0px;text-anchor:middle;fill:#000000;fill-opacity:1;stroke:none;font-family:Sans"
       xml:space="preserve"><tspan
         id="tspan3458"
         y="566.18127"
         x="453.28531"
         sodipodi:role="line">tax info receiver</tspan></text>
    <path
       style="fill:none;stroke:#000000;stroke-width:1.00748622px;stroke-linecap:butt;stroke-linejoin:miter;stroke-opacity:1"
       d="m 525.62724,616.7317 -134.31872,0"
       id="path3460"
       inkscape:connector-curvature="0" />
    <text
       inkscape:transform-center-y="5.294431"
       xml:space="preserve"
       style="font-size:14px;font-style:normal;font-weight:normal;text-align:center;line-height:125%;letter-spacing:0px;word-spacing:0px;text-anchor:middle;fill:#000000;fill-opacity:1;stroke:none;font-family:Sans"
       x="453.069"
       y="603.08588"
       id="text3462"
       sodipodi:linespacing="125%"><tspan
         sodipodi:role="line"
         x="453.069"
         y="603.08588"
         id="tspan3464">money transfer</tspan></text>
    <text
       inkscape:transform-center-y="5.294431"
       sodipodi:linespacing="125%"
       id="text3466"
       y="637.27661"
       x="458.37613"
       style="font-size:14px;font-style:normal;font-weight:normal;text-align:center;line-height:125%;letter-spacing:0px;word-spacing:0px;text-anchor:middle;fill:#000000;fill-opacity:1;stroke:none;font-family:Sans"
       xml:space="preserve"><tspan
         id="tspan3468"
         y="637.27661"
         x="458.37613"
         sodipodi:role="line">prize draw</tspan></text>
    <path
       inkscape:connector-curvature="0"
       id="path3470"
       d="m 691.62724,644.54063 -134.31872,0"
       style="fill:none;stroke:#000000;stroke-width:1.00748622px;stroke-linecap:butt;stroke-linejoin:miter;stroke-opacity:1" />
    <text
       xml:space="preserve"
       style="font-size:14px;font-style:normal;font-weight:normal;text-align:center;line-height:125%;letter-spacing:0px;word-spacing:0px;text-anchor:middle;fill:#000000;fill-opacity:1;stroke:none;font-family:Sans"
       x="624.3761"
       y="665.06329"
       id="text3472"
       sodipodi:linespacing="125%"
       inkscape:transform-center-y="5.294431"><tspan
         sodipodi:role="line"
         x="624.3761"
         y="665.06329"
         id="tspan3474">debt control</tspan></text>
    <text
       sodipodi:linespacing="125%"
       id="text3053"
       y="750.93359"
       x="84.428558"
       style="font-size:14px;font-style:normal;font-weight:bold;text-align:center;line-height:125%;letter-spacing:0px;word-spacing:0px;text-anchor:middle;fill:#000000;fill-opacity:1;stroke:none;font-family:Sans;-inkscape-font-specification:Sans Bold"
       xml:space="preserve"><tspan
         y="750.93359"
         x="84.428558"
         id="tspan3055"
         sodipodi:role="line">Serra Mayor</tspan></text>
    <path
       style="fill:none;stroke:#000000;stroke-width:1px;stroke-linecap:butt;stroke-linejoin:miter;stroke-opacity:1;marker-end:url(#Arrow1Lend)"
       d="m 49.85421,758.49053 0.53737,28.45758"
       id="path3057"
       inkscape:connector-curvature="0"
       sodipodi:nodetypes="cc" />
    <path
       style="fill:none;stroke:#000000;stroke-width:0.60710067px;stroke-linecap:butt;stroke-linejoin:miter;stroke-opacity:1;marker-end:url(#Arrow1Lend)"
       d="m 270.72063,785.47348 0.32624,17.27662"
       id="path3843"
       inkscape:connector-curvature="0"
       sodipodi:nodetypes="cc" />
    <path
       sodipodi:nodetypes="cc"
       inkscape:connector-curvature="0"
       id="path3845"
       d="m 322.72063,773.47348 0.32624,17.27662"
       style="fill:none;stroke:#000000;stroke-width:0.60710067px;stroke-linecap:butt;stroke-linejoin:miter;stroke-opacity:1;marker-end:url(#Arrow1Lend)" />
  </g>
</svg>
