<?xml version="1.0" encoding="UTF-8" standalone="no"?>
<!-- Created with Inkscape (http://www.inkscape.org/) -->

<svg
   xmlns:dc="http://purl.org/dc/elements/1.1/"
   xmlns:cc="http://creativecommons.org/ns#"
   xmlns:rdf="http://www.w3.org/1999/02/22-rdf-syntax-ns#"
   xmlns:svg="http://www.w3.org/2000/svg"
   xmlns="http://www.w3.org/2000/svg"
   xmlns:sodipodi="http://sodipodi.sourceforge.net/DTD/sodipodi-0.dtd"
   xmlns:inkscape="http://www.inkscape.org/namespaces/inkscape"
   width="300mm"
   height="300mm"
   viewBox="0 0 1062.9921 1062.9921"
   id="svg4196"
   version="1.1"
   inkscape:version="0.91 r13725"
   sodipodi:docname="arca-logo.svg"
   inkscape:export-filename="/home/francisco/pessoal/conteudo/identidade-visual/logos/arca-da-risada/arca-logo3-nopng.png"
   inkscape:export-xdpi="67.730003"
   inkscape:export-ydpi="67.730003">
  <defs
     id="defs4198" />
  <sodipodi:namedview
     id="base"
     pagecolor="#ffffff"
     bordercolor="#666666"
     borderopacity="1.0"
     inkscape:pageopacity="0.0"
     inkscape:pageshadow="2"
     inkscape:zoom="0.24748737"
     inkscape:cx="889.0854"
     inkscape:cy="932.89365"
     inkscape:document-units="px"
     inkscape:current-layer="layer1"
     showgrid="false"
     inkscape:window-width="1301"
     inkscape:window-height="744"
     inkscape:window-x="1345"
     inkscape:window-y="24"
     inkscape:window-maximized="1" />
  <metadata
     id="metadata4201">
    <rdf:RDF>
      <cc:Work
         rdf:about="">
        <dc:format>image/svg+xml</dc:format>
        <dc:type
           rdf:resource="http://purl.org/dc/dcmitype/StillImage" />
        <dc:title />
      </cc:Work>
    </rdf:RDF>
  </metadata>
  <g
     inkscape:label="Layer 1"
     inkscape:groupmode="layer"
     id="layer1"
     transform="translate(0,10.629921)">
    <path
       inkscape:connector-curvature="0"
       style="opacity:1;fill:#ff6600;fill-opacity:0.80784314;stroke:none;stroke-width:51.5359993;stroke-linecap:round;stroke-linejoin:round;stroke-miterlimit:4;stroke-dasharray:none;stroke-dashoffset:0;stroke-opacity:1"
       d="m 1475.064,-630.92877 0,1075.62171 1070.4557,0 0,-1075.62171 -1070.4557,0 z m 986.418,84.45555 10.7117,875.49699 -901.6597,-35.40859 35.7065,-746.73884 855.2415,-93.34956 z"
       id="rect4208" />
    <rect
       style="opacity:1;fill:#d55907;fill-opacity:1;stroke:#000000;stroke-width:10;stroke-linecap:round;stroke-linejoin:round;stroke-miterlimit:4;stroke-dasharray:none;stroke-dashoffset:0;stroke-opacity:1"
       id="rect4155"
       width="1252.5892"
       height="1280.8734"
       x="-88.893425"
       y="-143.65843"
       rx="5.5425501"
       ry="1.78689" />
    <circle
       style="opacity:1;fill:#ffffff;fill-opacity:1;stroke:#000000;stroke-width:10;stroke-linecap:round;stroke-linejoin:round;stroke-miterlimit:4;stroke-dasharray:none;stroke-dashoffset:0;stroke-opacity:1"
       id="path4153"
       cx="531.49603"
       cy="520.86615"
       r="517.19812" />
    <g
       id="g4227"
       transform="matrix(1.8314487,0,0,1.8314487,-208.61448,43.717464)"
       style="stroke:#ff6600;stroke-width:5.48281097;stroke-miterlimit:4;stroke-dasharray:none;stroke-opacity:0.80784314">
      <text
         transform="matrix(0.99459649,-0.10381625,0.10381625,0.99459649,0,0)"
         sodipodi:linespacing="125%"
         id="text4196"
         y="292.30878"
         x="157.20403"
         style="font-style:normal;font-variant:normal;font-weight:bold;font-stretch:normal;font-size:116.82365417px;line-height:125%;font-family:'Super Mario 256';-inkscape-font-specification:'Super Mario 256 Bold';letter-spacing:0px;word-spacing:0px;fill:#000000;fill-opacity:1;stroke:#ff6600;stroke-width:5.48281097;stroke-linecap:butt;stroke-linejoin:miter;stroke-miterlimit:4;stroke-dasharray:none;stroke-opacity:0.80784314"
         xml:space="preserve"><tspan
           y="292.30878"
           x="157.20403"
           id="tspan4198"
           sodipodi:role="line">ARCA</tspan></text>
      <text
         transform="matrix(0.97086717,0.23961831,-0.23961831,0.97086717,0,0)"
         sodipodi:linespacing="125%"
         id="text4200"
         y="99.92804"
         x="562.89282"
         style="font-style:normal;font-variant:normal;font-weight:bold;font-stretch:normal;font-size:81.60488129px;line-height:125%;font-family:'Super Mario 256';-inkscape-font-specification:'Super Mario 256 Bold';letter-spacing:0px;word-spacing:0px;fill:#000000;fill-opacity:1;stroke:#ff6600;stroke-width:5.48281097;stroke-linecap:butt;stroke-linejoin:miter;stroke-miterlimit:4;stroke-dasharray:none;stroke-opacity:0.80784314"
         xml:space="preserve"><tspan
           y="99.92804"
           x="562.89282"
           id="tspan4202"
           sodipodi:role="line">DA</tspan></text>
      <text
         sodipodi:linespacing="125%"
         id="text4204"
         y="366.21106"
         x="218.80142"
         style="font-style:normal;font-variant:normal;font-weight:bold;font-stretch:normal;font-size:108.30440521px;line-height:125%;font-family:'Super Mario 256';-inkscape-font-specification:'Super Mario 256 Bold';letter-spacing:0px;word-spacing:0px;fill:#000000;fill-opacity:1;stroke:#ff6600;stroke-width:5.48281097;stroke-linecap:butt;stroke-linejoin:miter;stroke-miterlimit:4;stroke-dasharray:none;stroke-opacity:0.80784314"
         xml:space="preserve"><tspan
           y="366.21106"
           x="218.80142"
           id="tspan4206"
           sodipodi:role="line">RISADA</tspan></text>
    </g>
    <g
       id="g4862"
       transform="translate(808.12204,193.94929)">
      <circle
         r="114.81154"
         cy="757.67743"
         cx="796.31403"
         id="path4235"
         style="opacity:1;fill:#ffffff;fill-opacity:0.80784314;stroke:#000000;stroke-width:17.72587585;stroke-linecap:round;stroke-linejoin:round;stroke-miterlimit:4;stroke-dasharray:none;stroke-dashoffset:0;stroke-opacity:1" />
      <text
         sodipodi:linespacing="125%"
         id="text4237"
         y="922.74176"
         x="797.86255"
         style="font-style:normal;font-weight:normal;font-size:41.47862244px;line-height:125%;font-family:sans-serif;letter-spacing:0px;word-spacing:0px;fill:#000000;fill-opacity:1;stroke:none;stroke-width:1px;stroke-linecap:butt;stroke-linejoin:miter;stroke-opacity:1"
         xml:space="preserve"><tspan
           style="font-style:normal;font-variant:normal;font-weight:normal;font-stretch:condensed;font-family:Impact;-inkscape-font-specification:'Impact Condensed';text-align:center;text-anchor:middle"
           id="tspan4245"
           y="922.74176"
           x="797.86255"
           sodipodi:role="line">com prof. CHASALA</tspan></text>
      <path
         id="path4215"
         d="m 782.87034,631.90266 c -0.22494,0.006 -0.42023,0.0138 -0.63908,0.0201 0.17819,0.0846 0.35196,0.17704 0.52825,0.26484 0.0368,-0.0951 0.0735,-0.1894 0.11083,-0.28499 z m -53.22491,16.09356 c -0.15735,0.066 -0.31469,0.13231 -0.475,0.19144 -0.007,0.0194 -0.0171,0.0369 -0.0245,0.0562 l 0.4937,-0.23749 c 0.002,-0.004 0.004,-0.007 0.006,-0.0101 z m 96.31381,5.14286 c -0.28203,0.007 -0.56626,0.10526 -0.85643,0.28787 -0.57814,0.36389 -1.00963,1.5189 -1.23065,3.29472 -0.48315,3.88199 -1.92562,5.04354 -6.26845,5.04354 -1.78511,0 -3.79791,0.21006 -4.47211,0.46635 -1.30476,0.49613 -2.72472,3.1781 -2.16337,4.08637 0.71161,1.1514 -0.27248,2.5707 -1.78193,2.5707 -0.1128,0 -0.21852,-0.007 -0.32242,-0.0144 -0.44205,1.18947 -0.88612,2.38511 -1.22778,3.62001 -0.91619,2.18537 -1.69597,4.64337 -3.48327,6.13602 -0.20866,1.57255 -0.66987,3.13637 -1.3746,4.64772 -0.0168,-0.51605 -0.027,-2.06457 -0.0504,-1.54876 -0.0361,0.80739 0.0661,1.61764 0.0101,2.4239 -0.22275,3.20693 -1.51748,5.88026 -2.34905,8.9543 -0.34379,0.46884 -0.67307,0.94942 -1.01188,1.4221 0.19614,0.75703 0.35293,1.52087 0.50954,2.17631 0.0366,0.98064 0.29042,1.97763 0.10939,2.94207 -0.007,0.0382 -0.013,0.059 -0.0201,0.0964 0.86032,-0.59612 1.2903,-1.18513 1.57467,-2.04678 0.40495,-1.22693 1.16238,-1.97907 2.83124,-2.81252 2.70191,-1.34941 2.9531,-2.12977 0.56134,-1.74164 -0.99123,0.16086 -1.86006,0.0444 -2.05829,-0.27635 -0.56486,-0.91393 0.70924,-6.68568 2.08564,-9.44657 2.03987,-4.09168 4.96955,-6.77303 8.63909,-7.90644 3.90938,-1.20748 6.04193,-0.7442 8.91831,1.93882 1.58322,1.47684 2.06353,2.3477 2.2958,4.1569 0.16154,1.25846 0.73362,3.16374 1.27096,4.23461 1.61655,3.22163 1.20082,3.9298 -3.15366,5.36884 -7.64359,2.52599 -10.62263,3.6981 -11.21843,4.41598 -0.51495,0.62046 -0.24018,0.73408 1.79633,0.73408 1.32307,0 3.69866,-0.32987 5.27816,-0.73264 3.56173,-0.90825 10.39101,-1.64283 19.56532,-2.10579 3.86421,-0.19501 7.87097,-0.65599 8.90393,-1.02484 1.03301,-0.36883 1.47561,-0.6815 0.98453,-0.69377 -0.4911,-0.0122 -2.07916,-0.5944 -3.52933,-1.29399 -1.45018,-0.6996 -3.10895,-1.28281 -3.68623,-1.29543 -0.57728,-0.0126 -1.73695,-0.31856 -2.57646,-0.68082 l -1.52573,-0.65923 2.79813,-1.47823 c 1.5391,-0.81282 3.02783,-1.56621 3.30766,-1.67399 0.27985,-0.10778 1.48914,-0.63283 2.68731,-1.16732 2.45687,-1.096 5.70709,-0.85123 5.70709,0.43037 0,0.51637 -0.31635,0.64051 -1.04642,0.40878 -1.26924,-0.40283 -4.54984,1.05131 -4.54984,2.01655 0,0.37764 0.79393,1.38301 1.76466,2.23534 1.50853,1.32451 2.04482,1.50776 3.6891,1.25513 2.59114,-0.3981 3.34184,-1.07718 3.01259,-2.72329 -0.14887,-0.74442 -0.0707,-1.55858 0.17273,-1.80928 0.2434,-0.25068 0.90038,-1.67507 1.4624,-3.16517 0.87477,-2.31922 0.95084,-3.15156 0.5268,-5.78482 -0.27251,-1.69186 -0.92399,-3.90704 -1.448,-4.92263 -1.25978,-2.44167 -4.76674,-5.2894 -8.4059,-6.82404 -2.20518,-0.92993 -3.10495,-1.62276 -3.58403,-2.76215 -0.35178,-0.83661 -1.04732,-1.67839 -1.54588,-1.86974 -0.49863,-0.19117 -3.15453,-0.19315 -5.90284,-0.004 l -4.99748,0.34545 -0.78015,-1.98057 c -1.43816,-3.64696 -2.61954,-5.29608 -3.84167,-5.26377 z m 41.17742,7.68766 c -0.13457,0.005 -0.23128,0.0835 -0.23318,0.19288 0.16449,0.14888 0.32833,0.29465 0.4937,0.4462 0.12857,0.059 0.25941,0.11272 0.39151,0.16409 -0.0421,-0.29052 -0.14079,-0.48495 -0.25621,-0.61174 -0.016,-0.0148 -0.033,-0.0326 -0.0489,-0.0475 -10e-4,-0.001 -0.003,-0.003 -0.004,-0.004 -7.4e-4,-4.9e-4 -0.002,-7.4e-4 -0.003,-10e-4 -0.082,-0.0431 -0.16532,-0.0852 -0.24757,-0.12811 -0.0316,-0.006 -0.0629,-0.0113 -0.0921,-0.0101 z m -119.46892,55.68192 c 0.64541,0.14437 1.25883,0.32466 1.85534,0.52681 0.0175,-0.017 0.0358,-0.034 0.0533,-0.0518 -0.55932,-0.2596 -1.19227,-0.33128 -1.90861,-0.47499 z m 81.88704,21.83089 c -0.8188,-0.0368 -1.68691,1.98513 -2.57359,6.00071 -0.75404,3.41503 -0.31162,4.23983 2.64555,4.93848 4.15246,0.98104 5.70084,0.38104 4.27061,-1.65384 -0.44291,-0.63014 -1.03794,-2.06165 -1.32134,-3.181 -0.77683,-3.06834 -2.04174,-5.75693 -2.85715,-6.06981 -0.0542,-0.0208 -0.10949,-0.0321 -0.16408,-0.0346 z m -27.44297,6.86434 c -0.0388,0.0357 -0.0761,0.0725 -0.11515,0.10794 0.035,0.006 0.0701,0.01 0.10507,0.0159 0.004,-0.0413 0.007,-0.0827 0.0101,-0.12379 z m 50.12164,22.54049 c -2.6e-4,0.007 0.028,0.0234 0.0662,0.0432 0.0179,-0.0112 0.0209,-0.0146 0.036,-0.0245 -0.0646,-0.0175 -0.10195,-0.0249 -0.10219,-0.0187 z m -178.54054,3.23282 c 0.004,0.0301 0.009,0.0591 0.013,0.0892 0.2232,0.70887 0.41839,1.42291 0.46347,2.16481 0.009,0.143 -0.004,0.28587 -0.0115,0.42893 0.0161,0.0646 0.0329,0.14819 0.0489,0.20584 0.14196,0.5108 0.32881,0.85391 0.41454,0.76286 0.0946,-0.10048 -0.037,-1.21698 -0.2231,-2.45412 -0.31731,-0.42457 -0.50479,-0.78343 -0.70529,-1.19755 z m 188.18574,2.10866 c -1.84947,-0.0291 -2.71149,0.50638 -3.10903,1.75891 -0.15565,0.49042 -0.47032,0.89097 -0.69954,0.89097 -0.63482,0 -1.07932,2.90895 -1.0493,6.86866 0.0147,1.95887 -0.31685,4.82146 -0.73839,6.36057 -1.3857,5.05934 -0.98324,7.9669 1.28391,9.26808 1.33991,0.76901 2.10092,2.43397 1.11264,2.43397 -0.21207,0 -2.21258,1.72165 -4.44477,3.82727 -2.23225,2.10563 -4.97786,4.27809 -6.10148,4.8262 -1.12363,0.54812 -2.44398,1.70603 -2.93487,2.57503 -0.49088,0.86901 -1.56143,1.83308 -2.37927,2.14178 -0.81784,0.3087 -1.72189,1.07757 -2.00936,1.70853 -0.28747,0.63095 -1.3352,2.04526 -2.32745,3.14358 -0.99231,1.09834 -1.80354,2.36012 -1.80354,2.80245 0,1.04762 -3.44152,4.3802 -4.79884,4.64771 -3.65977,0.7213 -4.27297,0.7069 -5.02339,-0.12954 -0.8559,-0.95398 -0.99377,-4.5569 -0.21303,-5.57179 0.49898,-0.64864 -0.76392,-3.181 -1.58618,-3.181 -0.22189,0 -0.93913,-0.97406 -1.59482,-2.16337 -0.65569,-1.18932 -2.35985,-3.2181 -3.78698,-4.50954 -1.42707,-1.29144 -2.92703,-3.00841 -3.33213,-3.81576 -0.40536,-0.80734 -1.00286,-1.81127 -1.32854,-2.23102 -0.32568,-0.41976 -1.09613,-2.30406 -1.71285,-4.18712 -1.29666,-3.95905 -1.09309,-7.93498 0.57719,-11.24577 1.29591,-2.56877 0.87272,-4.91976 -0.88665,-4.91976 -0.8101,0 -1.46832,0.46882 -1.96186,1.39906 -0.87162,1.64296 -5.69572,5.87687 -6.42101,5.63513 -0.15425,-0.0514 -0.30233,-1.80405 -0.43181,-4.67075 -0.46328,0.32599 -0.90474,0.67928 -1.25945,1.11838 -0.10888,0.13479 -0.15541,0.31135 -0.26053,0.44909 -0.17225,0.22573 -0.35782,0.4403 -0.53688,0.66067 -0.21172,0.21597 -0.41907,0.43714 -0.63476,0.64915 -0.20442,0.20096 -0.39197,0.42276 -0.62469,0.59014 -0.13026,0.0937 -0.26358,0.16837 -0.39582,0.24614 -0.0498,0.067 -0.10321,0.13227 -0.14826,0.20151 -0.85323,0.82953 -2.50877,3.18574 -3.35804,3.51781 -0.4254,0.16634 -0.87906,0.22444 -1.33861,0.26196 -0.40813,0.26208 -0.82576,0.51283 -1.25081,0.75424 l -0.059,1.01475 -2.25261,1.33717 c -0.56085,0.33278 -1.26453,0.79266 -1.96618,1.27384 -0.38561,0.36923 -0.80228,0.70539 -1.30694,0.97157 -0.0784,0.0293 -0.0514,0.0186 -0.11803,0.0432 -0.31967,0.23706 -0.62379,0.46709 -0.87658,0.67075 -2.24022,1.80485 -3.88905,2.48851 -4.52393,1.87981 -0.72543,0.59479 -1.55349,0.55109 -2.43541,0.74127 -0.11047,0.0238 0.42369,-0.0553 0.33826,0.0187 -0.48115,0.41671 -0.72786,0.003 -0.54984,0.26772 -0.12893,0.0512 -0.2452,0.11464 -0.36272,0.17705 -2.33937,3.91616 -5.38203,7.14942 -8.71537,10.24973 -2.09384,1.28214 -4.24256,2.60894 -6.50018,3.27024 -0.65476,0.84519 -1.45627,1.56522 -2.24541,2.29148 0.61258,3.69705 -1.02211,7.49921 -3.93379,10.3217 -1.71607,1.54134 -3.46395,2.8378 -5.31271,4.13674 -0.58089,10.68558 -1.38257,14.37619 -3.9669,21.86111 -0.98818,2.86207 -1.33505,3.36937 -2.13457,3.12631 -0.60787,-0.1848 -0.82957,-0.091 -0.61317,0.25908 0.18677,0.30222 1.30252,0.79336 2.48002,1.09248 1.17751,0.29912 2.5983,0.75174 3.15798,1.00468 2.00329,0.90537 9.08811,2.5883 9.77906,2.32314 0.38759,-0.1487 0.56534,-0.0434 0.39438,0.23317 -0.2837,0.45902 0.56095,0.6137 3.94531,0.72113 0.62963,0.02 1.30645,0.26119 1.5027,0.53544 0.19618,0.27426 1.83331,0.5025 3.63872,0.5081 1.80541,0.007 3.18309,0.17104 3.06153,0.36847 -0.1215,0.19736 1.4462,0.44757 3.48327,0.5556 2.03823,0.10789 7.5974,0.1354 12.35409,0.0604 4.75724,-0.0751 9.90961,-0.1479 11.44873,-0.16264 1.99615,-0.0192 2.58129,-0.16979 2.0439,-0.5225 -0.509,-0.33413 0.19192,-0.39764 2.16193,-0.19431 1.97591,0.20399 2.91759,0.12022 2.91759,-0.26197 0,-0.31022 0.34311,-0.43166 0.76287,-0.2706 0.42011,0.16122 0.76286,0.0147 0.76286,-0.32529 0,-0.34422 0.3438,-0.48532 0.77582,-0.31955 1.0354,0.39736 5.37144,-0.218 5.06225,-0.71823 -0.13381,-0.21659 0.19252,-0.28003 0.724,-0.14106 0.53145,0.13897 1.50371,-0.0436 2.16194,-0.4059 0.65828,-0.36234 1.62292,-0.59253 2.14321,-0.51242 0.5203,0.0801 0.8141,-0.0703 0.65204,-0.3325 -0.16806,-0.27194 0.27641,-0.36693 1.03634,-0.22166 0.85479,0.16341 1.21402,0.0627 1.0018,-0.28068 -0.19985,-0.32339 0.0282,-0.44113 0.57575,-0.29794 0.49827,0.13029 1.4501,-0.23419 2.11443,-0.81036 0.66428,-0.57615 1.45765,-1.0433 1.76466,-1.03923 0.30696,0.004 0.21537,0.24732 -0.20439,0.54121 -0.58227,0.40766 -0.46093,0.45005 0.50954,0.18135 1.73703,-0.48095 3.93639,-1.63113 4.32674,-2.26268 0.17695,-0.2864 0.53729,-0.38853 0.80029,-0.22598 0.68952,0.42615 2.57174,-0.26395 2.22958,-0.81756 -0.15849,-0.25649 0.0449,-0.3385 0.45052,-0.18281 0.40592,0.15569 1.2533,-0.24667 1.88269,-0.89528 0.62943,-0.64861 0.98207,-0.89388 0.78446,-0.54408 -0.19757,0.3498 -0.12529,0.6362 0.16121,0.6362 0.2865,0 0.75605,-0.43714 1.0421,-0.97157 0.33269,-0.62164 0.87178,-0.88031 1.49694,-0.7168 0.58293,0.15244 1.40594,-0.17386 2.04102,-0.80893 0.58557,-0.58555 1.17998,-1.06513 1.3199,-1.06513 l 0.79309,0 c 0.29632,0 0.37526,-0.26419 0.1756,-0.58727 -0.23873,-0.38621 -0.13848,-0.44841 0.29364,-0.18135 0.42036,0.25982 1.01499,-0.0327 1.64951,-0.8118 0.54553,-0.6699 0.81684,-0.88686 0.6031,-0.48364 -0.50651,0.95528 3.28464,-1.26974 4.49801,-2.6398 0.48972,-0.55297 0.89098,-0.85725 0.89098,-0.6765 0,0.18077 0.46451,0.0792 1.03202,-0.22454 0.56751,-0.30372 0.87465,-0.8036 0.6837,-1.11263 -0.19101,-0.30904 -0.12061,-0.42193 0.15689,-0.25045 0.66001,0.40792 2.80957,-1.10219 2.43397,-1.70996 -0.15914,-0.2575 0.0431,-0.34004 0.44908,-0.18424 0.40612,0.15578 0.91126,0.002 1.12271,-0.3397 0.26676,-0.43161 0.16472,-0.49491 -0.33105,-0.20727 -0.42307,0.24544 -0.54174,0.22528 -0.29076,-0.0489 0.23319,-0.25457 0.46273,-0.36769 0.50954,-0.25045 0.0466,0.11725 0.60614,-0.0648 1.24362,-0.4059 0.67832,-0.36304 1.01391,-0.87482 0.80892,-1.2321 -0.19259,-0.33576 -0.16275,-0.44062 0.0662,-0.23317 0.52589,0.4764 1.86631,-0.59181 1.4955,-1.1918 -0.15137,-0.24492 0.0368,-0.32506 0.41885,-0.17848 0.38201,0.14658 1.13772,-0.25341 1.67975,-0.88809 0.97907,-1.14643 0.97922,-1.1482 -0.0317,-0.3987 -0.94093,0.69756 -0.96525,0.68712 -0.32386,-0.13099 0.38149,-0.48664 0.89839,-0.75776 1.14861,-0.6031 0.25027,0.15467 1.65498,-0.90187 3.12199,-2.34616 1.46707,-1.44431 2.34626,-2.45299 1.95322,-2.24254 -0.47653,0.25523 -0.59248,0.18432 -0.34688,-0.21302 0.20245,-0.32765 0.54295,-0.48788 0.7571,-0.35552 0.5699,0.3522 4.72306,-4.02971 4.25909,-4.49371 -0.21618,-0.21618 -0.0782,-0.31783 0.30658,-0.22454 0.38476,0.0933 0.8145,-0.14813 0.95575,-0.53688 0.15726,-0.43289 0.034,-0.56879 -0.3181,-0.35122 -0.96743,0.59791 -0.63833,-10e-4 0.56279,-1.02626 1.12454,-0.95945 1.12818,-0.95838 0.39007,0.0489 -0.73633,1.00486 -0.73284,1.0054 0.37711,0.059 0.61824,-0.52712 1.00195,-1.15663 0.8521,-1.39907 -0.14984,-0.24244 -0.0164,-0.44044 0.29652,-0.44044 0.31286,0 0.40548,-0.26417 0.20583,-0.58727 -0.20801,-0.33649 -0.14066,-0.45018 0.15689,-0.26628 0.66469,0.41081 2.27114,-1.34059 2.07556,-2.26269 -0.0817,-0.38482 0.12478,-0.64776 0.45916,-0.58294 0.33443,0.0649 1.12312,-0.60484 1.75315,-1.48974 0.65945,-0.92611 0.8339,-1.43764 0.41022,-1.2062 -0.40479,0.22117 -0.0691,-0.15804 0.74559,-0.84203 0.81468,-0.68399 1.32529,-1.49526 1.13566,-1.80208 -0.18963,-0.30682 -0.0772,-0.72302 0.25045,-0.92552 0.4074,-0.25178 0.46007,-0.14182 0.16553,0.3469 -0.36679,0.60863 -0.3028,0.6106 0.43037,0.0158 0.96249,-0.78074 1.19212,-1.85503 0.27492,-1.28823 -0.36685,0.22673 -0.4502,0.13887 -0.22022,-0.23318 0.20245,-0.32761 0.55925,-0.47705 0.79309,-0.33249 0.57336,0.35434 3.20173,-4.19423 2.79957,-4.84491 -0.17482,-0.28286 -0.0136,-0.45257 0.35696,-0.37568 0.38246,0.0793 0.64058,-0.2584 0.59734,-0.78301 -0.042,-0.50836 0.0525,-0.79393 0.21159,-0.63477 0.15919,0.15916 0.82446,-0.6507 1.47678,-1.7992 1.36032,-2.39489 1.4295,-2.67661 0.54985,-2.23102 -0.34981,0.17718 -0.21261,-0.0229 0.30514,-0.44477 0.51775,-0.42188 0.80004,-0.99615 0.62756,-1.27528 -0.17253,-0.27912 -0.0455,-0.67264 0.28212,-0.87513 0.40241,-0.24871 0.46391,-0.13585 0.18855,0.34688 -0.28182,0.494 -0.24149,0.55612 0.13243,0.2044 0.29749,-0.27985 0.61769,-0.95116 0.71105,-1.49263 0.18932,-1.09817 0.25679,-1.0561 -7.80713,-4.85499 -3.72489,-1.75477 -5.80323,-3.0601 -6.61389,-4.154 -0.65025,-0.8774 -2.23174,-2.6519 -3.5135,-3.94243 -1.28176,-1.29053 -2.74154,-3.03239 -3.24434,-3.8719 -0.50274,-0.83952 -1.34681,-1.98368 -1.87693,-2.54336 -0.53011,-0.55968 -1.43842,-1.65305 -2.01799,-2.42966 -1.29753,-1.73872 -3.47999,-2.68512 -7.65024,-3.3163 -0.85551,-0.12948 -1.58142,-0.20189 -2.19791,-0.21159 z m 42.21952,2.23246 c -0.10578,0.48452 -0.17761,1.0156 -0.17273,1.43506 l 0.0158,1.27096 0.40734,-1.27096 c 0.0764,-0.23852 0.14459,-0.51811 0.20727,-0.80173 -0.16525,-0.22795 -0.33016,-0.4592 -0.45771,-0.63333 z m -229.03067,0.59303 c -0.0771,-0.0117 -0.13011,0.17362 -0.14537,0.54408 -0.0221,0.53635 0.0972,0.83693 0.26627,0.66786 0.16908,-0.16907 0.18727,-0.60717 0.0403,-0.97445 -0.0609,-0.15221 -0.11495,-0.23048 -0.1612,-0.23749 z m 50.65997,0.23893 c -0.45355,0.70348 -0.91283,1.40353 -1.38611,2.09428 0.67766,-0.14559 1.15363,-0.86582 1.38611,-2.09428 z m 177.27966,3.83159 c -0.0771,-0.0116 -0.12868,0.17363 -0.14394,0.54409 -0.0221,0.53635 0.0972,0.83693 0.26629,0.66786 0.16907,-0.16906 0.18726,-0.60716 0.0403,-0.97445 -0.0609,-0.1522 -0.1164,-0.23048 -0.16265,-0.2375 z m -0.45916,2.70745 c -0.0796,-0.004 -0.32711,0.56685 -0.7312,1.69558 -0.55102,1.5391 -0.99969,3.02783 -0.9946,3.30767 0.0101,0.92105 1.36811,-2.60436 1.6855,-4.37424 0.0752,-0.41931 0.0882,-0.6269 0.0403,-0.62901 z m -176.76292,1.18748 c -0.3121,0 -0.62704,1.32808 -0.79886,2.7751 0.35855,-0.46849 0.7205,-0.93551 1.08241,-1.40482 0.0497,-0.24542 0.10629,-0.48954 0.16841,-0.7312 -0.15203,-0.38188 -0.3176,-0.63908 -0.45196,-0.63908 z m 174.91477,4.91688 c -0.23888,-0.061 -1.20173,2.09577 -1.62505,3.76538 -0.17278,0.68153 0.13524,0.32338 0.68514,-0.79597 0.54986,-1.11935 0.99969,-2.37978 0.99461,-2.79957 -7.4e-4,-0.10707 -0.0206,-0.16112 -0.0547,-0.16984 z m -2.04102,5.4149 c -0.11082,0.0114 -0.37081,0.33604 -0.67075,0.86074 -0.39996,0.6996 -0.72687,1.50066 -0.72687,1.7805 0,0.27984 0.32691,-0.0633 0.72687,-0.76287 0.39992,-0.6996 0.72832,-1.50065 0.72832,-1.7805 0,-0.0699 -0.0207,-0.10165 -0.0576,-0.0979 z m -207.6575,19.18388 c -0.40638,-0.006 1.10338,2.41336 2.61532,4.19144 0.87818,1.03272 1.34573,1.18693 0.75136,0.24757 -1.75006,-2.7656 -3.01474,-4.43366 -3.36668,-4.43901 z m 58.76792,4.59447 c -0.29933,-0.0584 -0.67757,0.65856 -0.93991,1.42209 0.0893,-0.0847 0.18114,-0.16551 0.26916,-0.25189 0.28824,-0.33024 1.07316,-0.60451 0.86506,-0.99028 -0.0585,-0.10847 -0.12405,-0.16622 -0.19431,-0.17992 z m -55.04572,0.99604 c -0.0262,0.0262 0.12829,0.23271 0.44476,0.6362 0.66469,0.84753 1.0824,1.11685 1.0824,0.69809 0,-0.10565 -0.40125,-0.50546 -0.89096,-0.88952 -0.40348,-0.31645 -0.6099,-0.47104 -0.6362,-0.44477 z m 1.8611,2.05397 c -0.33464,-0.0144 0.76338,1.43883 2.69162,3.66464 0.0355,-0.19019 0.0702,-0.3806 0.10363,-0.57143 -0.33357,-0.41232 -0.66843,-0.83561 -1.0018,-1.27528 -0.75027,-0.98957 -1.55747,-1.80775 -1.79345,-1.81793 z m 179.19401,7.61282 c 0.13993,0 -0.28268,0.5728 -0.9399,1.2724 -0.65726,0.69959 -1.30952,1.2724 -1.44944,1.2724 -0.13992,0 0.28264,-0.57281 0.93991,-1.2724 0.65721,-0.6996 1.30958,-1.2724 1.44943,-1.2724 z m -5.10687,5.08816 c 0.13992,0 -0.16136,0.45796 -0.66786,1.01763 -0.50651,0.55968 -1.03461,1.01763 -1.17453,1.01763 -0.13991,0 0.15992,-0.45795 0.66643,-1.01763 0.50651,-0.55967 1.03605,-1.01763 1.17596,-1.01763 z m -53.92733,7.19252 c 0.6938,0.0246 1.51567,0.29403 2.49011,0.77006 1.91964,0.93778 1.92646,0.95311 2.00359,4.24901 0.0426,1.81895 0.0992,3.71911 0.12667,4.22311 0.0292,0.53766 0.77188,1.21715 1.79633,1.64519 2.46884,1.03156 2.65053,1.67668 0.70673,2.50162 -0.92958,0.39453 -3.05661,2.10729 -4.72688,3.80569 -3.24755,3.30222 -4.35707,3.70884 -5.53437,2.02806 -0.59896,-0.85515 -0.69063,-2.4527 -0.47643,-8.26772 0.29465,-7.99769 1.13621,-11.04303 3.61425,-10.95502 z m -82.85717,11.8719 c -0.20082,0.0548 -0.40719,0.10303 -0.61605,0.14826 0.39742,0.17621 0.63045,0.1491 0.63045,-0.11947 0,-0.007 -0.01,-0.0193 -0.0144,-0.0288 z m 0.6031,0.4865 c -0.20627,0.0361 0.20882,0.41708 1.31846,1.01907 0.76955,0.41749 1.60893,0.76751 1.86542,0.7787 0.64617,0.0282 0.30725,-0.22359 -1.61066,-1.19899 -0.87661,-0.44581 -1.41295,-0.62687 -1.57322,-0.59878 z m 4.0662,1.96762 c -0.0376,0.0245 0.19214,0.21422 0.6578,0.58726 0.54319,0.4352 1.21096,0.79021 1.48398,0.79021 0.64643,0 0.357,-0.2356 -1.20042,-0.97733 -0.59967,-0.2856 -0.90376,-0.42465 -0.94136,-0.40014 z m 3.23139,1.42066 c -0.27984,0 0.29297,0.43824 1.2724,0.97444 0.97943,0.53622 2.00875,0.97446 2.28859,0.97446 0.27984,0 -0.29153,-0.43824 -1.27096,-0.97446 -0.97944,-0.5362 -2.0102,-0.97444 -2.29003,-0.97444 z"
         style="fill:#000000"
         inkscape:connector-curvature="0" />
      <path
         sodipodi:nodetypes="sssss"
         inkscape:connector-curvature="0"
         id="path4254"
         d="m 847.45439,789.41103 c 0,10.64857 -6.99923,19.28094 -15.6332,19.28094 -8.63398,0 -15.6332,-8.63237 -15.6332,-19.28094 0,-10.64857 -8.44047,-17.70779 15.6332,-19.28094 23.36177,-1.52664 15.6332,8.63237 15.6332,19.28094 z"
         style="opacity:1;fill:#000000;fill-opacity:1;stroke:none;stroke-width:13.80000019;stroke-linecap:round;stroke-linejoin:round;stroke-miterlimit:4;stroke-dasharray:none;stroke-dashoffset:0;stroke-opacity:1" />
      <ellipse
         ry="6.3842134"
         rx="13.790808"
         cy="758.0459"
         cx="843.11072"
         id="path4254-3"
         style="opacity:1;fill:#000000;fill-opacity:1;stroke:none;stroke-width:13.80000019;stroke-linecap:round;stroke-linejoin:round;stroke-miterlimit:4;stroke-dasharray:none;stroke-dashoffset:0;stroke-opacity:1" />
      <ellipse
         ry="6.3842134"
         rx="13.790808"
         cy="758.66571"
         cx="819.31458"
         id="path4254-3-6"
         style="opacity:1;fill:#000000;fill-opacity:1;stroke:none;stroke-width:13.80000019;stroke-linecap:round;stroke-linejoin:round;stroke-miterlimit:4;stroke-dasharray:none;stroke-dashoffset:0;stroke-opacity:1" />
      <path
         sodipodi:nodetypes="sssssss"
         inkscape:connector-curvature="0"
         id="path4254-3-7"
         d="m 857.07629,719.06165 c 0,5.37769 -4.84805,10.12646 -12.24903,12.97151 -4.58094,1.76098 -10.66105,-7.1084 -16.65387,-7.1084 -6.55663,0 -12.07288,8.66614 -16.87818,6.59225 -6.68265,-2.88411 -10.9825,-7.39083 -10.9825,-12.45536 10e-6,-8.70629 11.14365,-8.98975 26.81847,-8.98975 15.67483,0 29.9451,0.28346 29.94511,8.98975 z"
         style="opacity:1;fill:#000000;fill-opacity:1;stroke:none;stroke-width:13.80000019;stroke-linecap:round;stroke-linejoin:round;stroke-miterlimit:4;stroke-dasharray:none;stroke-dashoffset:0;stroke-opacity:1" />
      <path
         sodipodi:nodetypes="cccsc"
         inkscape:connector-curvature="0"
         id="path4320"
         d="m 868.66156,684.18716 c 4.19952,56.47928 0.40308,9.79301 -37.38795,10.5346 -42.03332,1.55794 -42.28742,42.21705 -43.18821,-10.5346 0,-16.20416 18.03759,-29.34023 40.28808,-29.34023 22.2505,0 40.28808,13.13607 40.28808,29.34023 z"
         style="opacity:1;fill:#000000;fill-opacity:1;stroke:none;stroke-width:13.80000019;stroke-linecap:round;stroke-linejoin:round;stroke-miterlimit:4;stroke-dasharray:none;stroke-dashoffset:0;stroke-opacity:1" />
      <rect
         y="713.85065"
         x="852.66541"
         height="3.1266394"
         width="18.238731"
         id="rect4324"
         style="opacity:1;fill:#000000;fill-opacity:1;stroke:none;stroke-width:13.80000019;stroke-linecap:round;stroke-linejoin:round;stroke-miterlimit:4;stroke-dasharray:none;stroke-dashoffset:0;stroke-opacity:1" />
      <rect
         y="713.32947"
         x="792.20941"
         height="3.1266394"
         width="18.238731"
         id="rect4324-2"
         style="opacity:1;fill:#000000;fill-opacity:1;stroke:none;stroke-width:13.80000019;stroke-linecap:round;stroke-linejoin:round;stroke-miterlimit:4;stroke-dasharray:none;stroke-dashoffset:0;stroke-opacity:1" />
    </g>
  </g>
</svg>
